<svg width="72" height="72" viewBox="0 0 72 72" fill="none" xmlns="http://www.w3.org/2000/svg">
<path d="M18.03 6C12.24 6 7.53003 10.71 7.53003 16.5C7.53003 21.24 10.71 25.209 15.03 26.511V47.991C15.027 48.528 15.111 53.334 18.552 56.784C20.676 58.92 23.52 60 27 60V66L39 57L27 48V54C21.531 54 21.048 49.398 21.03 48V26.511C25.35 25.209 28.53 21.24 28.53 16.5C28.53 10.71 23.817 6 18.03 6ZM18.03 21C15.549 21 13.53 18.981 13.53 16.5C13.53 14.019 15.549 12 18.03 12C20.511 12 22.53 14.019 22.53 16.5C22.53 18.981 20.511 21 18.03 21ZM57.03 45.489V23.991C57.015 19.173 53.799 12 45 12V6L33 15L45 24V18C50.487 18 51.003 22.617 51.03 24V45.489C46.71 46.791 43.53 50.76 43.53 55.5C43.53 61.29 48.24 66 54.03 66C59.82 66 64.53 61.29 64.53 55.5C64.53 50.76 61.35 46.791 57.03 45.489ZM54.03 60C51.549 60 49.53 57.981 49.53 55.5C49.53 53.019 51.549 51 54.03 51C56.511 51 58.53 53.019 58.53 55.5C58.53 57.981 56.511 60 54.03 60Z" fill="#E50F8C"/>
</svg>
