<svg width="72" height="72" viewBox="0 0 72 72" fill="none" xmlns="http://www.w3.org/2000/svg">
<path d="M66.0002 23.997C65.9996 23.4616 65.8559 22.936 65.5835 22.475C65.3114 22.0139 64.9208 21.6341 64.4522 21.375L37.3862 6.37496C36.9416 6.12995 36.4421 6.00146 35.9342 6.00146C35.4266 6.00146 34.9268 6.12995 34.4822 6.37496L7.54818 21.255C7.0803 21.5141 6.69018 21.8935 6.41823 22.3541C6.14628 22.8146 6.00237 23.3395 6.00147 23.8743C6.00054 24.4092 6.14262 24.9345 6.41301 25.396C6.68337 25.8575 7.0722 26.2383 7.53918 26.499L34.6052 41.619C35.0507 41.8692 35.5532 42.0012 36.0644 42.0015C36.5753 42.0021 37.0781 41.8713 37.5242 41.622L64.4582 26.622C64.9262 26.3618 65.3159 25.9812 65.5868 25.5196C65.858 25.058 66.0008 24.5323 66.0002 23.997ZM36.0692 35.562L15.1802 23.895L35.9312 12.429L56.8232 24.006L36.0692 35.562Z" fill="#E50F8C"/>
<path d="M61.545 33.378L36.0001 47.568L10.455 33.378L7.54199 38.622L34.5421 53.622C34.9876 53.8695 35.4889 53.9991 35.9986 53.9991C36.5083 53.9991 37.0096 53.8695 37.4551 53.622L64.4551 38.622L61.545 33.378Z" fill="#E50F8C"/>
<path d="M61.545 45.378L36.0001 59.568L10.455 45.378L7.54199 50.622L34.5421 65.622C34.9876 65.8695 35.4889 65.9991 35.9986 65.9991C36.5083 65.9991 37.0096 65.8695 37.4551 65.622L64.4551 50.622L61.545 45.378Z" fill="#E50F8C"/>
</svg>
