<svg width="73" height="72" viewBox="0 0 73 72" fill="none" xmlns="http://www.w3.org/2000/svg">
<path d="M48.5 6H24.5C14.573 6 6.5 14.073 6.5 24V63C6.5 63.7956 6.81608 64.5588 7.37867 65.1213C7.94129 65.6838 8.70434 66 9.5 66H48.5C58.427 66 66.5 57.927 66.5 48V24C66.5 14.073 58.427 6 48.5 6ZM60.5 48C60.5 54.618 55.118 60 48.5 60H12.5V24C12.5 17.382 17.882 12 24.5 12H48.5C55.118 12 60.5 17.382 60.5 24V48Z" fill="#E50F8C"/>
<path d="M33.4999 40.758L26.6209 33.879L22.3789 38.121L33.4999 49.242L52.1209 30.621L47.8789 26.3789L33.4999 40.758Z" fill="#E50F8C"/>
</svg>
