<svg width="1440" height="1000" viewBox="0 0 1440 1000" fill="none" xmlns="http://www.w3.org/2000/svg">
<mask id="mask0_437_13392" style="mask-type:alpha" maskUnits="userSpaceOnUse" x="0" y="0" width="1440" height="1024">
<path d="M0 0H1440V1024H0V0Z" fill="#FFFAEF"/>
</mask>
<g mask="url(#mask0_437_13392)">
</g>
<g opacity="0.1" clip-path="url(#clip0_437_13392)">
<path d="M1020.32 794.876C1018.58 793.084 1006.56 809.261 986.572 810.63C967.01 811.949 960.713 797.589 940.853 800.551C936.846 801.148 929.355 805.304 913.85 812.546C898.668 819.639 888.788 827.703 886.847 829.047C874.353 837.758 853.472 849.579 816.664 863.491C870.048 858.514 923.457 853.512 976.841 848.534C1013.77 808.017 1021.76 796.369 1020.32 794.876Z" fill="#1467E1"/>
<path d="M968.702 861.401C967.582 850.226 929.902 841.939 898.967 843.407C874.726 844.552 869.351 850.998 847.225 854.656C801.009 862.272 785.504 840.57 741.503 838.903C691.827 837.036 681.175 863.541 635.78 870.385C603.102 875.313 553.476 869.913 485.06 816.404C438.57 837.409 392.08 858.39 345.59 879.395C425.828 891.391 506.065 903.386 586.278 915.382C703.076 933.525 792.498 922.127 851.73 908.638C858.649 907.07 970.693 881.137 968.702 861.401Z" fill="#3A95EE"/>
<path d="M907.802 844.527C903.746 845.324 898.668 843.756 896.105 839.774C893.815 836.215 894.014 831.486 895.732 828.45C897.15 825.961 898.868 825.787 899.39 823.323C899.963 820.585 898.071 819.49 898.668 816.753C899.067 814.886 900.585 812.571 903.049 811.999C905.587 811.402 908.35 812.845 909.37 814.836C910.664 817.35 908.325 819.167 909.271 821.879C910.54 825.463 915.692 824.468 917.309 827.728C919.723 832.531 915.667 842.984 907.802 844.527Z" fill="#113BC1"/>
<path d="M906.21 867.299C905.786 867.299 905.463 866.976 905.463 866.553V835.418C905.463 834.995 905.786 834.672 906.21 834.672C906.633 834.672 906.956 834.995 906.956 835.418V866.553C906.956 866.976 906.608 867.299 906.21 867.299Z" fill="#0A377A"/>
<path d="M881.446 853.163C876.22 853.437 872.064 849.106 870.57 845.323C867.26 836.986 874.453 825.388 880.849 825.388C887.22 825.388 894.263 836.961 891.127 845.323C889.833 848.708 886.374 852.889 881.446 853.163Z" fill="#FFFEFF"/>
<path d="M880.55 881.386C880.127 881.386 879.804 881.062 879.804 880.639V840.844C879.804 840.421 880.127 840.097 880.55 840.097C880.973 840.097 881.297 840.421 881.297 840.844V880.639C881.297 881.037 880.949 881.386 880.55 881.386Z" fill="#0A377A"/>
<path d="M720.597 861.65C715.595 861.899 711.663 857.767 710.219 854.159C707.058 846.195 713.927 835.145 720.025 835.145C726.098 835.145 732.817 846.17 729.831 854.159C728.586 857.419 725.276 861.401 720.597 861.65Z" fill="#D0F7F7"/>
<path d="M719.776 883.651C719.353 883.651 719.029 883.327 719.029 882.904V856C719.029 855.577 719.353 855.254 719.776 855.254C720.199 855.254 720.523 855.577 720.523 856V882.904C720.523 883.327 720.199 883.651 719.776 883.651Z" fill="#0A377A"/>
<path d="M746.456 845.572C741.652 845.821 737.869 841.839 736.501 838.38C733.464 830.739 740.06 820.137 745.908 820.137C751.732 820.137 758.178 830.714 755.316 838.38C754.121 841.491 750.96 845.324 746.456 845.572Z" fill="#113BC1"/>
<path d="M746.083 875.836C745.659 875.836 745.336 875.512 745.336 875.089V827.877C745.336 827.454 745.659 827.131 746.083 827.131C746.506 827.131 746.829 827.454 746.829 827.877V875.089C746.829 875.512 746.481 875.836 746.083 875.836Z" fill="#0A377A"/>
<path d="M857.529 875.014C853.796 875.214 850.859 872.127 849.789 869.415C847.425 863.467 852.552 855.229 857.106 855.229C861.636 855.229 866.663 863.467 864.423 869.415C863.502 871.854 861.038 874.815 857.529 875.014Z" fill="#FFFEFF"/>
<path d="M856.882 895.323C856.459 895.323 856.136 894.999 856.136 894.576V866.254C856.136 865.831 856.459 865.507 856.882 865.507C857.305 865.507 857.629 865.831 857.629 866.254V894.576C857.629 894.974 857.305 895.323 856.882 895.323Z" fill="#0A377A"/>
<path d="M1439.98 569.12H1385.79V827.504H1439.98V569.12Z" fill="#3A95EE"/>
<path d="M1439.98 586.865H1394.53V591.818H1439.98V586.865Z" fill="#012A94"/>
<path d="M1439.98 598.115H1394.53V603.067H1439.98V598.115Z" fill="#012A94"/>
<path d="M1439.98 609.364H1394.53V614.316H1439.98V609.364Z" fill="#012A94"/>
<path d="M1439.98 620.613H1394.53V625.566H1439.98V620.613Z" fill="#012A94"/>
<path d="M1439.98 631.862H1394.53V636.815H1439.98V631.862Z" fill="#012A94"/>
<path d="M1439.98 643.111H1394.53V648.064H1439.98V643.111Z" fill="#012A94"/>
<path d="M1439.98 654.361H1394.53V659.313H1439.98V654.361Z" fill="#012A94"/>
<path d="M1439.98 665.61H1394.53V670.562H1439.98V665.61Z" fill="#012A94"/>
<path d="M1439.98 676.859H1394.53V681.812H1439.98V676.859Z" fill="#012A94"/>
<path d="M1439.98 688.108H1394.53V693.061H1439.98V688.108Z" fill="#012A94"/>
<path d="M1439.98 699.357H1394.53V704.31H1439.98V699.357Z" fill="#012A94"/>
<path d="M1439.98 710.607H1394.53V715.559H1439.98V710.607Z" fill="#012A94"/>
<path d="M1439.98 721.856H1394.53V726.809H1439.98V721.856Z" fill="#012A94"/>
<path d="M1439.98 733.105H1394.53V738.058H1439.98V733.105Z" fill="#012A94"/>
<path d="M1439.98 744.354H1394.53V749.307H1439.98V744.354Z" fill="#012A94"/>
<path d="M1439.98 755.604H1394.53V760.556H1439.98V755.604Z" fill="#012A94"/>
<path d="M1439.98 766.853H1394.53V771.805H1439.98V766.853Z" fill="#012A94"/>
<path d="M1360.71 502.396H1317.73V799.58H1360.71V502.396Z" fill="#FFFEFF"/>
<path d="M1385.82 502.396H1360.71V805.13H1385.82V502.396Z" fill="#1266E3"/>
<path d="M1327.86 513.073H1324.84V528.329H1327.86V513.073Z" fill="#3A93FB"/>
<path d="M1335.37 513.073H1332.36V528.329H1335.37V513.073Z" fill="#3A93FB"/>
<path d="M1342.86 513.073H1339.85V528.329H1342.86V513.073Z" fill="#3A93FB"/>
<path d="M1350.35 513.073H1347.34V528.329H1350.35V513.073Z" fill="#3A93FB"/>
<path d="M1327.86 539.33H1324.84V554.586H1327.86V539.33Z" fill="#3A93FB"/>
<path d="M1335.37 539.33H1332.36V554.586H1335.37V539.33Z" fill="#3A93FB"/>
<path d="M1342.86 539.33H1339.85V554.586H1342.86V539.33Z" fill="#3A93FB"/>
<path d="M1350.35 539.33H1347.34V554.586H1350.35V539.33Z" fill="#3A93FB"/>
<path d="M1327.86 565.561H1324.84V580.817H1327.86V565.561Z" fill="#3A93FB"/>
<path d="M1335.37 565.561H1332.36V580.817H1335.37V565.561Z" fill="#3A93FB"/>
<path d="M1342.86 565.561H1339.85V580.817H1342.86V565.561Z" fill="#3A93FB"/>
<path d="M1350.35 565.561H1347.34V580.817H1350.35V565.561Z" fill="#3A93FB"/>
<path d="M1327.86 591.818H1324.84V607.074H1327.86V591.818Z" fill="#3A93FB"/>
<path d="M1335.37 591.818H1332.36V607.074H1335.37V591.818Z" fill="#3A93FB"/>
<path d="M1342.86 591.818H1339.85V607.074H1342.86V591.818Z" fill="#3A93FB"/>
<path d="M1350.35 591.818H1347.34V607.074H1350.35V591.818Z" fill="#3A93FB"/>
<path d="M1327.86 618.074H1324.84V633.33H1327.86V618.074Z" fill="#3A93FB"/>
<path d="M1335.37 618.074H1332.36V633.33H1335.37V618.074Z" fill="#3A93FB"/>
<path d="M1342.86 618.074H1339.85V633.33H1342.86V618.074Z" fill="#3A93FB"/>
<path d="M1350.35 618.074H1347.34V633.33H1350.35V618.074Z" fill="#3A93FB"/>
<path d="M1327.86 644.306H1324.84V659.562H1327.86V644.306Z" fill="#3A93FB"/>
<path d="M1335.37 644.306H1332.36V659.562H1335.37V644.306Z" fill="#3A93FB"/>
<path d="M1342.86 644.306H1339.85V659.562H1342.86V644.306Z" fill="#3A93FB"/>
<path d="M1350.35 644.306H1347.34V659.562H1350.35V644.306Z" fill="#3A93FB"/>
<path d="M1327.86 670.562H1324.84V685.819H1327.86V670.562Z" fill="#3A93FB"/>
<path d="M1335.37 670.562H1332.36V685.819H1335.37V670.562Z" fill="#3A93FB"/>
<path d="M1342.86 670.562H1339.85V685.819H1342.86V670.562Z" fill="#3A93FB"/>
<path d="M1350.35 670.562H1347.34V685.819H1350.35V670.562Z" fill="#3A93FB"/>
<path d="M1327.86 696.819H1324.84V712.075H1327.86V696.819Z" fill="#3A93FB"/>
<path d="M1335.37 696.819H1332.36V712.075H1335.37V696.819Z" fill="#3A93FB"/>
<path d="M1342.86 696.819H1339.85V712.075H1342.86V696.819Z" fill="#3A93FB"/>
<path d="M1350.35 696.819H1347.34V712.075H1350.35V696.819Z" fill="#3A93FB"/>
<path d="M1327.86 723.075H1324.84V738.332H1327.86V723.075Z" fill="#3A93FB"/>
<path d="M1335.37 723.075H1332.36V738.332H1335.37V723.075Z" fill="#3A93FB"/>
<path d="M1342.86 723.075H1339.85V738.332H1342.86V723.075Z" fill="#3A93FB"/>
<path d="M1350.35 723.075H1347.34V738.332H1350.35V723.075Z" fill="#3A93FB"/>
<path d="M1327.86 749.307H1324.84V764.563H1327.86V749.307Z" fill="#3A93FB"/>
<path d="M1335.37 749.307H1332.36V764.563H1335.37V749.307Z" fill="#3A93FB"/>
<path d="M1342.86 749.307H1339.85V764.563H1342.86V749.307Z" fill="#3A93FB"/>
<path d="M1350.35 749.307H1347.34V764.563H1350.35V749.307Z" fill="#3A93FB"/>
<path d="M1053.87 653.763H1013.97V789.376H1053.87V653.763Z" fill="#FFFEFF"/>
<path d="M1066.64 653.763H1053.87V785.394H1066.64V653.763Z" fill="#1266E3"/>
<path d="M1023.23 660.806H1021.71V785.369H1023.23V660.806Z" fill="#3A93FB"/>
<path d="M1034.48 660.806H1032.96V785.369H1034.48V660.806Z" fill="#3A93FB"/>
<path d="M1045.73 660.806H1044.21V785.369H1045.73V660.806Z" fill="#3A93FB"/>
<path d="M436.629 577.632H368.337V870.609H436.629V577.632Z" fill="#002A9A"/>
<path d="M498.923 894.8H436.629V577.632L498.923 647.019V894.8Z" fill="#FEFFFF"/>
<path d="M456.489 651.175H446.111V657.446H456.489V651.175Z" fill="#157DB7"/>
<path d="M473.786 651.175H463.408V657.446H473.786V651.175Z" fill="#157DB7"/>
<path d="M491.108 651.175H480.73V657.446H491.108V651.175Z" fill="#157DB7"/>
<path d="M456.489 666.157H446.111V672.429H456.489V666.157Z" fill="#157DB7"/>
<path d="M473.786 666.157H463.408V672.429H473.786V666.157Z" fill="#157DB7"/>
<path d="M491.108 666.157H480.73V672.429H491.108V666.157Z" fill="#157DB7"/>
<path d="M456.489 681.165H446.111V687.436H456.489V681.165Z" fill="#157DB7"/>
<path d="M473.786 681.165H463.408V687.436H473.786V681.165Z" fill="#157DB7"/>
<path d="M491.108 681.165H480.73V687.436H491.108V681.165Z" fill="#157DB7"/>
<path d="M456.489 696.172H446.111V702.444H456.489V696.172Z" fill="#157DB7"/>
<path d="M473.786 696.172H463.408V702.444H473.786V696.172Z" fill="#157DB7"/>
<path d="M491.108 696.172H480.73V702.444H491.108V696.172Z" fill="#157DB7"/>
<path d="M456.489 711.154H446.111V717.426H456.489V711.154Z" fill="#157DB7"/>
<path d="M473.786 711.154H463.408V717.426H473.786V711.154Z" fill="#157DB7"/>
<path d="M491.108 711.154H480.73V717.426H491.108V711.154Z" fill="#157DB7"/>
<path d="M456.489 726.161H446.111V732.433H456.489V726.161Z" fill="#157DB7"/>
<path d="M473.786 726.161H463.408V732.433H473.786V726.161Z" fill="#157DB7"/>
<path d="M491.108 726.161H480.73V732.433H491.108V726.161Z" fill="#157DB7"/>
<path d="M456.489 741.169H446.111V747.44H456.489V741.169Z" fill="#157DB7"/>
<path d="M473.786 741.169H463.408V747.44H473.786V741.169Z" fill="#157DB7"/>
<path d="M491.108 741.169H480.73V747.44H491.108V741.169Z" fill="#157DB7"/>
<path d="M456.489 756.151H446.111V762.423H456.489V756.151Z" fill="#157DB7"/>
<path d="M473.786 756.151H463.408V762.423H473.786V756.151Z" fill="#157DB7"/>
<path d="M491.108 756.151H480.73V762.423H491.108V756.151Z" fill="#157DB7"/>
<path d="M456.489 771.158H446.111V777.43H456.489V771.158Z" fill="#157DB7"/>
<path d="M473.786 771.158H463.408V777.43H473.786V771.158Z" fill="#157DB7"/>
<path d="M491.108 771.158H480.73V777.43H491.108V771.158Z" fill="#157DB7"/>
<path d="M456.489 786.166H446.111V792.437H456.489V786.166Z" fill="#157DB7"/>
<path d="M473.786 786.166H463.408V792.437H473.786V786.166Z" fill="#157DB7"/>
<path d="M491.108 786.166H480.73V792.437H491.108V786.166Z" fill="#157DB7"/>
<path d="M456.489 801.173H446.111V807.445H456.489V801.173Z" fill="#157DB7"/>
<path d="M473.786 801.173H463.408V807.445H473.786V801.173Z" fill="#157DB7"/>
<path d="M491.108 801.173H480.73V807.445H491.108V801.173Z" fill="#157DB7"/>
<path d="M456.489 816.155H446.111V822.427H456.489V816.155Z" fill="#157DB7"/>
<path d="M473.786 816.155H463.408V822.427H473.786V816.155Z" fill="#157DB7"/>
<path d="M491.108 816.155H480.73V822.427H491.108V816.155Z" fill="#157DB7"/>
<path d="M456.489 831.162H446.111V837.434H456.489V831.162Z" fill="#157DB7"/>
<path d="M473.786 831.162H463.408V837.434H473.786V831.162Z" fill="#157DB7"/>
<path d="M491.108 831.162H480.73V837.434H491.108V831.162Z" fill="#157DB7"/>
<path d="M456.489 849.903H446.111V856.175H456.489V849.903Z" fill="#157DB7"/>
<path d="M473.786 849.903H463.408V856.175H473.786V849.903Z" fill="#157DB7"/>
<path d="M491.108 849.903H480.73V856.175H491.108V849.903Z" fill="#157DB7"/>
<path d="M345.416 546.323V485.1H277.672V512.302H257.687V546.323H232.75V829.794H350.667V546.323H345.416Z" fill="#1266E3"/>
<path d="M365.401 546.323V512.302H345.416V485.1H317.368V512.302H297.383V546.323H272.42V832.681H390.338V546.323H365.401Z" fill="#3A93FB"/>
<path d="M303.779 790.197H295.74V568.498H303.779V790.197ZM296.985 788.953H302.535V569.742H296.985V788.953Z" fill="white"/>
<path d="M323.614 790.197H315.576V568.498H323.614V790.197ZM316.82 788.953H322.37V569.742H316.82V788.953Z" fill="white"/>
<path d="M346.287 790.197H338.248V568.498H346.287V790.197ZM339.492 788.953H345.042V569.742H339.492V788.953Z" fill="white"/>
<path d="M368.96 790.197H360.921V568.498H368.96V790.197ZM362.165 788.953H367.715V569.742H362.165V788.953Z" fill="white"/>
<path d="M202.984 485.1H147.136V856.996H202.984V485.1Z" fill="#1266E3"/>
<path d="M147.136 856.996H115.952V485L147.136 485.1V856.996Z" fill="#002A9A"/>
<path d="M164.582 502.396H159.58V512.451H164.582V502.396Z" fill="#FEFFFF"/>
<path d="M173.367 502.396H168.365V512.451H173.367V502.396Z" fill="#FEFFFF"/>
<path d="M182.128 502.396H177.125V512.451H182.128V502.396Z" fill="#FEFFFF"/>
<path d="M190.888 502.396H185.886V512.451H190.888V502.396Z" fill="#FEFFFF"/>
<path d="M164.582 519.544H159.58V529.599H164.582V519.544Z" fill="#FEFFFF"/>
<path d="M173.367 519.544H168.365V529.599H173.367V519.544Z" fill="#FEFFFF"/>
<path d="M182.128 519.544H177.125V529.599H182.128V519.544Z" fill="#FEFFFF"/>
<path d="M190.888 519.544H185.886V529.599H190.888V519.544Z" fill="#FEFFFF"/>
<path d="M164.582 536.692H159.58V546.746H164.582V536.692Z" fill="#FEFFFF"/>
<path d="M173.367 536.692H168.365V546.746H173.367V536.692Z" fill="#FEFFFF"/>
<path d="M182.128 536.692H177.125V546.746H182.128V536.692Z" fill="#FEFFFF"/>
<path d="M190.888 536.692H185.886V546.746H190.888V536.692Z" fill="#FEFFFF"/>
<path d="M164.582 553.864H159.58V563.919H164.582V553.864Z" fill="#FEFFFF"/>
<path d="M173.367 553.864H168.365V563.919H173.367V553.864Z" fill="#FEFFFF"/>
<path d="M182.128 553.864H177.125V563.919H182.128V553.864Z" fill="#FEFFFF"/>
<path d="M190.888 553.864H185.886V563.919H190.888V553.864Z" fill="#FEFFFF"/>
<path d="M164.582 571.012H159.58V581.066H164.582V571.012Z" fill="#FEFFFF"/>
<path d="M173.367 571.012H168.365V581.066H173.367V571.012Z" fill="#FEFFFF"/>
<path d="M182.128 571.012H177.125V581.066H182.128V571.012Z" fill="#FEFFFF"/>
<path d="M190.888 571.012H185.886V581.066H190.888V571.012Z" fill="#FEFFFF"/>
<path d="M164.582 588.159H159.58V598.214H164.582V588.159Z" fill="#FEFFFF"/>
<path d="M173.367 588.159H168.365V598.214H173.367V588.159Z" fill="#FEFFFF"/>
<path d="M182.128 588.159H177.125V598.214H182.128V588.159Z" fill="#FEFFFF"/>
<path d="M190.888 588.159H185.886V598.214H190.888V588.159Z" fill="#FEFFFF"/>
<path d="M164.582 605.332H159.58V615.386H164.582V605.332Z" fill="#FEFFFF"/>
<path d="M173.367 605.332H168.365V615.386H173.367V605.332Z" fill="#FEFFFF"/>
<path d="M182.128 605.332H177.125V615.386H182.128V605.332Z" fill="#FEFFFF"/>
<path d="M190.888 605.332H185.886V615.386H190.888V605.332Z" fill="#FEFFFF"/>
<path d="M164.582 622.479H159.58V632.534H164.582V622.479Z" fill="#FEFFFF"/>
<path d="M173.367 622.479H168.365V632.534H173.367V622.479Z" fill="#FEFFFF"/>
<path d="M182.128 622.479H177.125V632.534H182.128V622.479Z" fill="#FEFFFF"/>
<path d="M190.888 622.479H185.886V632.534H190.888V622.479Z" fill="#FEFFFF"/>
<path d="M164.582 639.627H159.58V649.682H164.582V639.627Z" fill="#FEFFFF"/>
<path d="M173.367 639.627H168.365V649.682H173.367V639.627Z" fill="#FEFFFF"/>
<path d="M182.128 639.627H177.125V649.682H182.128V639.627Z" fill="#FEFFFF"/>
<path d="M190.888 639.627H185.886V649.682H190.888V639.627Z" fill="#FEFFFF"/>
<path d="M164.582 656.775H159.58V666.829H164.582V656.775Z" fill="#FEFFFF"/>
<path d="M173.367 656.775H168.365V666.829H173.367V656.775Z" fill="#FEFFFF"/>
<path d="M182.128 656.775H177.125V666.829H182.128V656.775Z" fill="#FEFFFF"/>
<path d="M190.888 656.775H185.886V666.829H190.888V656.775Z" fill="#FEFFFF"/>
<path d="M164.582 673.947H159.58V684.002H164.582V673.947Z" fill="#FEFFFF"/>
<path d="M173.367 673.947H168.365V684.002H173.367V673.947Z" fill="#FEFFFF"/>
<path d="M182.128 673.947H177.125V684.002H182.128V673.947Z" fill="#FEFFFF"/>
<path d="M190.888 673.947H185.886V684.002H190.888V673.947Z" fill="#FEFFFF"/>
<path d="M164.582 691.095H159.58V701.149H164.582V691.095Z" fill="#FEFFFF"/>
<path d="M173.367 691.095H168.365V701.149H173.367V691.095Z" fill="#FEFFFF"/>
<path d="M182.128 691.095H177.125V701.149H182.128V691.095Z" fill="#FEFFFF"/>
<path d="M190.888 691.095H185.886V701.149H190.888V691.095Z" fill="#FEFFFF"/>
<path d="M164.582 604.76H159.58V614.814H164.582V604.76Z" fill="#FEFFFF"/>
<path d="M173.367 604.76H168.365V614.814H173.367V604.76Z" fill="#FEFFFF"/>
<path d="M182.128 604.76H177.125V614.814H182.128V604.76Z" fill="#FEFFFF"/>
<path d="M190.888 604.76H185.886V614.814H190.888V604.76Z" fill="#FEFFFF"/>
<path d="M164.582 621.907H159.58V631.962H164.582V621.907Z" fill="#FEFFFF"/>
<path d="M173.367 621.907H168.365V631.962H173.367V621.907Z" fill="#FEFFFF"/>
<path d="M182.128 621.907H177.125V631.962H182.128V621.907Z" fill="#FEFFFF"/>
<path d="M190.888 621.907H185.886V631.962H190.888V621.907Z" fill="#FEFFFF"/>
<path d="M164.582 639.08H159.58V649.134H164.582V639.08Z" fill="#FEFFFF"/>
<path d="M173.367 639.08H168.365V649.134H173.367V639.08Z" fill="#FEFFFF"/>
<path d="M182.128 639.08H177.125V649.134H182.128V639.08Z" fill="#FEFFFF"/>
<path d="M190.888 639.08H185.886V649.134H190.888V639.08Z" fill="#FEFFFF"/>
<path d="M164.582 656.227H159.58V666.282H164.582V656.227Z" fill="#FEFFFF"/>
<path d="M173.367 656.227H168.365V666.282H173.367V656.227Z" fill="#FEFFFF"/>
<path d="M182.128 656.227H177.125V666.282H182.128V656.227Z" fill="#FEFFFF"/>
<path d="M190.888 656.227H185.886V666.282H190.888V656.227Z" fill="#FEFFFF"/>
<path d="M164.582 673.375H159.58V683.429H164.582V673.375Z" fill="#FEFFFF"/>
<path d="M173.367 673.375H168.365V683.429H173.367V673.375Z" fill="#FEFFFF"/>
<path d="M182.128 673.375H177.125V683.429H182.128V673.375Z" fill="#FEFFFF"/>
<path d="M190.888 673.375H185.886V683.429H190.888V673.375Z" fill="#FEFFFF"/>
<path d="M164.582 690.547H159.58V700.602H164.582V690.547Z" fill="#FEFFFF"/>
<path d="M173.367 690.547H168.365V700.602H173.367V690.547Z" fill="#FEFFFF"/>
<path d="M182.128 690.547H177.125V700.602H182.128V690.547Z" fill="#FEFFFF"/>
<path d="M190.888 690.547H185.886V700.602H190.888V690.547Z" fill="#FEFFFF"/>
<path d="M164.582 707.695H159.58V717.749H164.582V707.695Z" fill="#FEFFFF"/>
<path d="M173.367 707.695H168.365V717.749H173.367V707.695Z" fill="#FEFFFF"/>
<path d="M182.128 707.695H177.125V717.749H182.128V707.695Z" fill="#FEFFFF"/>
<path d="M190.888 707.695H185.886V717.749H190.888V707.695Z" fill="#FEFFFF"/>
<path d="M164.582 724.843H159.58V734.897H164.582V724.843Z" fill="#FEFFFF"/>
<path d="M173.367 724.843H168.365V734.897H173.367V724.843Z" fill="#FEFFFF"/>
<path d="M182.128 724.843H177.125V734.897H182.128V724.843Z" fill="#FEFFFF"/>
<path d="M190.888 724.843H185.886V734.897H190.888V724.843Z" fill="#FEFFFF"/>
<path d="M164.582 742.015H159.58V752.07H164.582V742.015Z" fill="#FEFFFF"/>
<path d="M173.367 742.015H168.365V752.07H173.367V742.015Z" fill="#FEFFFF"/>
<path d="M182.128 742.015H177.125V752.07H182.128V742.015Z" fill="#FEFFFF"/>
<path d="M190.888 742.015H185.886V752.07H190.888V742.015Z" fill="#FEFFFF"/>
<path d="M164.582 759.163H159.58V769.217H164.582V759.163Z" fill="#FEFFFF"/>
<path d="M173.367 759.163H168.365V769.217H173.367V759.163Z" fill="#FEFFFF"/>
<path d="M182.128 759.163H177.125V769.217H182.128V759.163Z" fill="#FEFFFF"/>
<path d="M190.888 759.163H185.886V769.217H190.888V759.163Z" fill="#FEFFFF"/>
<path d="M164.582 776.31H159.58V786.365H164.582V776.31Z" fill="#FEFFFF"/>
<path d="M173.367 776.31H168.365V786.365H173.367V776.31Z" fill="#FEFFFF"/>
<path d="M182.128 776.31H177.125V786.365H182.128V776.31Z" fill="#FEFFFF"/>
<path d="M190.888 776.31H185.886V786.365H190.888V776.31Z" fill="#FEFFFF"/>
<path d="M164.582 793.458H159.58V803.512H164.582V793.458Z" fill="#FEFFFF"/>
<path d="M173.367 793.458H168.365V803.512H173.367V793.458Z" fill="#FEFFFF"/>
<path d="M182.128 793.458H177.125V803.512H182.128V793.458Z" fill="#FEFFFF"/>
<path d="M190.888 793.458H185.886V803.512H190.888V793.458Z" fill="#FEFFFF"/>
<path d="M110.153 783.378C122.821 778.251 128.147 779.297 130.561 781.686C135.887 786.937 127.798 799.505 133.97 805.503C138.251 809.66 143.975 805.404 150.969 810.605C156.295 814.562 154.801 818.395 159.48 820.809C166.2 824.294 172.272 817.873 178.196 820.809C180.884 822.153 184.094 825.712 184.99 836.115C183.646 839.326 176.752 854.806 159.48 861.625C143.801 867.797 125.533 864.462 111.87 853.113C111.298 829.843 110.725 806.623 110.153 783.378Z" fill="#3A95EE"/>
<path d="M121.327 630.219H75.9819V870.585H121.327V630.219Z" fill="#5EC0FF"/>
<path d="M75.982 630.219H0V870.585H75.982V630.219Z" fill="#3891ED"/>
<path d="M75.982 630.219H0V639.179H75.982V630.219Z" fill="#012A94"/>
<path d="M121.327 630.219H75.9819V639.179H121.327V630.219Z" fill="#1266E3"/>
<path d="M96.39 646.098H92.0347V843.158H96.39V646.098Z" fill="#3A95EE"/>
<path d="M107.739 646.098H103.383V843.158H107.739V646.098Z" fill="#3A95EE"/>
<path d="M813.478 926.631C824.677 917.871 840.68 905.9 860.715 892.884C860.715 892.884 890.68 873.422 920.594 858.315C992.246 822.128 1065.34 854.258 1182.39 820.909C1252.65 800.899 1291.45 773.697 1335.35 789.426C1344.41 792.661 1363.67 804.607 1391.59 805.18C1411.98 805.578 1428.8 800.177 1439.98 795.449C1439.98 827.205 1439.98 858.937 1439.98 890.694C1288.09 921.156 1114.05 940.145 922.436 933.276C885.179 931.933 848.843 929.668 813.478 926.631Z" fill="#5BBDFE"/>
<path d="M560.843 852.342C572.789 850.052 589.414 847.962 609.225 848.957C622.216 849.629 642.027 850.799 665.471 860.206C676.397 864.587 692.3 872.451 708.776 886.637C691.205 891.64 670.648 896.219 647.477 899.006C612.361 903.237 581.5 902.217 556.886 899.554C558.205 883.825 559.524 868.071 560.843 852.342Z" fill="#1467E1"/>
<path d="M574.78 750.427H528.39V906.124H574.78V750.427Z" fill="#3A95EE"/>
<path d="M498.923 876.284H528.39V750.427L498.923 750.8V876.284Z" fill="#1469DE"/>
<path d="M540.485 776.758H538.27V783.278H540.485V776.758Z" fill="#FEFFFF"/>
<path d="M548.997 776.758H546.782V783.278H548.997V776.758Z" fill="#FEFFFF"/>
<path d="M557.483 776.758H555.268V783.278H557.483V776.758Z" fill="#FEFFFF"/>
<path d="M565.995 776.758H563.78V783.278H565.995V776.758Z" fill="#FEFFFF"/>
<path d="M540.485 790.919H538.27V797.44H540.485V790.919Z" fill="#FEFFFF"/>
<path d="M548.997 790.919H546.782V797.44H548.997V790.919Z" fill="#FEFFFF"/>
<path d="M557.483 790.919H555.268V797.44H557.483V790.919Z" fill="#FEFFFF"/>
<path d="M565.995 790.919H563.78V797.44H565.995V790.919Z" fill="#FEFFFF"/>
<path d="M540.485 805.105H538.27V811.625H540.485V805.105Z" fill="#FEFFFF"/>
<path d="M548.997 805.105H546.782V811.625H548.997V805.105Z" fill="#FEFFFF"/>
<path d="M557.483 805.105H555.268V811.625H557.483V805.105Z" fill="#FEFFFF"/>
<path d="M565.995 805.105H563.78V811.625H565.995V805.105Z" fill="#FEFFFF"/>
<path d="M540.485 819.266H538.27V825.786H540.485V819.266Z" fill="#FEFFFF"/>
<path d="M548.997 819.266H546.782V825.786H548.997V819.266Z" fill="#FEFFFF"/>
<path d="M557.483 819.266H555.268V825.786H557.483V819.266Z" fill="#FEFFFF"/>
<path d="M565.995 819.266H563.78V825.786H565.995V819.266Z" fill="#FEFFFF"/>
<path d="M540.485 833.452H538.27V839.972H540.485V833.452Z" fill="#FEFFFF"/>
<path d="M548.997 833.452H546.782V839.972H548.997V833.452Z" fill="#FEFFFF"/>
<path d="M557.483 833.452H555.268V839.972H557.483V833.452Z" fill="#FEFFFF"/>
<path d="M565.995 833.452H563.78V839.972H565.995V833.452Z" fill="#FEFFFF"/>
<path d="M540.485 847.613H538.27V854.134H540.485V847.613Z" fill="#FEFFFF"/>
<path d="M548.997 847.613H546.782V854.134H548.997V847.613Z" fill="#FEFFFF"/>
<path d="M557.483 847.613H555.268V854.134H557.483V847.613Z" fill="#FEFFFF"/>
<path d="M565.995 847.613H563.78V854.134H565.995V847.613Z" fill="#FEFFFF"/>
<path d="M540.485 861.799H538.27V868.319H540.485V861.799Z" fill="#FEFFFF"/>
<path d="M548.997 861.799H546.782V868.319H548.997V861.799Z" fill="#FEFFFF"/>
<path d="M557.483 861.799H555.268V868.319H557.483V861.799Z" fill="#FEFFFF"/>
<path d="M565.995 861.799H563.78V868.319H565.995V861.799Z" fill="#FEFFFF"/>
<path d="M241.087 776.584C255.721 772.154 261.072 773.996 263.187 776.584C267.368 781.686 260.599 791.467 264.879 795.299C269.185 799.132 278.02 790.994 285.287 795.299C290.613 798.46 288.697 804.508 293.799 807.196C300.344 810.655 307.139 802.492 314.207 803.786C320.005 804.856 326.626 812.472 331.205 839.5C297.208 841.765 263.187 844.029 229.19 846.294C233.148 823.049 237.13 799.804 241.087 776.584Z" fill="#87D5FB"/>
<path d="M0 836.688C57.9634 839.475 118.515 843.83 181.381 850.152C258.956 857.942 332.524 867.946 401.836 879.395C267.941 910.778 134.045 942.161 0.149326 973.57C0.0995506 947.637 0.074663 921.679 0.0248877 895.746C0 876.06 0 856.374 0 836.688Z" fill="#1669E1"/>
<path d="M0 917.249C8.51158 908.414 22.8966 895.323 43.5036 884.571C57.1172 877.478 73.767 871.605 139.495 860.58C182.028 853.437 179.116 856.199 199.499 851.57C255.298 838.902 259.13 822.253 295.491 815.583C339.318 807.519 377.272 823.721 421.497 842.586C469.456 863.043 470.128 874.865 508.505 887.583C547.678 900.574 579.609 899.056 622.49 896.592C730.204 890.395 752.354 861.451 805.489 875.587C828.46 881.684 862.059 897.14 896.702 942.41C802.328 951.718 707.855 959.209 613.257 964.909C409.402 977.178 205.049 981.011 0.174214 976.456C0.124438 956.696 0.074663 936.985 0 917.249Z" fill="#5EC0FF"/>
<path d="M1317.73 671.906H1293.36V799.58H1317.73V671.906Z" fill="#1266E3"/>
<path d="M1071.12 785.369H926.991V855.503H1071.12V785.369Z" fill="#AFE5FF"/>
<path d="M1071.09 788.878H1032.69V855.527H1071.09V788.878Z" fill="#3A93FB"/>
<path d="M1032.71 785.369H926.991V793.358H1032.71V785.369Z" fill="#1469E8"/>
<path d="M1071.09 785.369H1032.69V793.358H1071.09V785.369Z" fill="#113BC1"/>
<path d="M1262.43 756.723C1270.02 750.626 1278.16 751.696 1281.14 756.674C1283.13 759.984 1282.54 764.463 1282.14 766.454C1282.64 766.156 1287.29 763.443 1292.17 766.454C1297.54 769.789 1298.17 777.007 1298.19 777.455C1301.43 769.093 1308.67 766.056 1313.25 768.893C1317.83 771.731 1318.25 779.521 1318.27 779.894C1323.25 774.742 1330.12 773.796 1335.32 777.455C1341.35 781.661 1342.24 789.948 1342.34 790.894C1343.51 784.647 1348.34 780.441 1353.37 781.113C1358.72 781.81 1362.8 787.783 1362.4 794.553C1366.95 794.976 1370.69 799.082 1371.43 804.333C1372.26 810.107 1369.27 816.006 1364.42 817.773C1369.72 817.176 1374.6 820.237 1376.46 825.115C1379 831.71 1375.89 841.366 1368.42 844.676C1334.65 847.937 1300.85 851.197 1267.08 854.457C1265.56 821.854 1263.99 789.276 1262.43 756.723Z" fill="#87D5FB"/>
<path d="M1261.85 639.453H1191.35V872.974H1261.85V639.453Z" fill="#3A93FB"/>
<path d="M1293.36 639.453H1261.85V856.896H1293.36V639.453Z" fill="#002A9A"/>
<path d="M1205.46 664.564H1202.97V670.562H1205.46V664.564Z" fill="#FEFFFF"/>
<path d="M1212.98 664.564H1210.49V670.562H1212.98V664.564Z" fill="#FEFFFF"/>
<path d="M1220.47 664.564H1217.98V670.562H1220.47V664.564Z" fill="#FEFFFF"/>
<path d="M1227.96 664.564H1225.47V670.562H1227.96V664.564Z" fill="#FEFFFF"/>
<path d="M1235.47 664.564H1232.98V670.562H1235.47V664.564Z" fill="#FEFFFF"/>
<path d="M1242.96 664.564H1240.48V670.562H1242.96V664.564Z" fill="#FEFFFF"/>
<path d="M1250.46 664.564H1247.97V670.562H1250.46V664.564Z" fill="#FEFFFF"/>
<path d="M1205.46 679.572H1202.97V685.57H1205.46V679.572Z" fill="#FEFFFF"/>
<path d="M1212.98 679.572H1210.49V685.57H1212.98V679.572Z" fill="#FEFFFF"/>
<path d="M1220.47 679.572H1217.98V685.57H1220.47V679.572Z" fill="#FEFFFF"/>
<path d="M1227.96 679.572H1225.47V685.57H1227.96V679.572Z" fill="#FEFFFF"/>
<path d="M1235.47 679.572H1232.98V685.57H1235.47V679.572Z" fill="#FEFFFF"/>
<path d="M1242.96 679.572H1240.48V685.57H1242.96V679.572Z" fill="#FEFFFF"/>
<path d="M1250.46 679.572H1247.97V685.57H1250.46V679.572Z" fill="#FEFFFF"/>
<path d="M1205.46 694.579H1202.97V700.577H1205.46V694.579Z" fill="#FEFFFF"/>
<path d="M1212.98 694.579H1210.49V700.577H1212.98V694.579Z" fill="#FEFFFF"/>
<path d="M1220.47 694.579H1217.98V700.577H1220.47V694.579Z" fill="#FEFFFF"/>
<path d="M1227.96 694.579H1225.47V700.577H1227.96V694.579Z" fill="#FEFFFF"/>
<path d="M1235.47 694.579H1232.98V700.577H1235.47V694.579Z" fill="#FEFFFF"/>
<path d="M1242.96 694.579H1240.48V700.577H1242.96V694.579Z" fill="#FEFFFF"/>
<path d="M1250.46 694.579H1247.97V700.577H1250.46V694.579Z" fill="#FEFFFF"/>
<path d="M1205.46 709.562H1202.97V715.559H1205.46V709.562Z" fill="#FEFFFF"/>
<path d="M1212.98 709.562H1210.49V715.559H1212.98V709.562Z" fill="#FEFFFF"/>
<path d="M1220.47 709.562H1217.98V715.559H1220.47V709.562Z" fill="#FEFFFF"/>
<path d="M1227.96 709.562H1225.47V715.559H1227.96V709.562Z" fill="#FEFFFF"/>
<path d="M1235.47 709.562H1232.98V715.559H1235.47V709.562Z" fill="#FEFFFF"/>
<path d="M1242.96 709.562H1240.48V715.559H1242.96V709.562Z" fill="#FEFFFF"/>
<path d="M1250.46 709.562H1247.97V715.559H1250.46V709.562Z" fill="#FEFFFF"/>
<path d="M1205.46 724.569H1202.97V730.567H1205.46V724.569Z" fill="#FEFFFF"/>
<path d="M1212.98 724.569H1210.49V730.567H1212.98V724.569Z" fill="#FEFFFF"/>
<path d="M1220.47 724.569H1217.98V730.567H1220.47V724.569Z" fill="#FEFFFF"/>
<path d="M1227.96 724.569H1225.47V730.567H1227.96V724.569Z" fill="#FEFFFF"/>
<path d="M1235.47 724.569H1232.98V730.567H1235.47V724.569Z" fill="#FEFFFF"/>
<path d="M1242.96 724.569H1240.48V730.567H1242.96V724.569Z" fill="#FEFFFF"/>
<path d="M1250.46 724.569H1247.97V730.567H1250.46V724.569Z" fill="#FEFFFF"/>
<path d="M1205.46 739.576H1202.97V745.574H1205.46V739.576Z" fill="#FEFFFF"/>
<path d="M1212.98 739.576H1210.49V745.574H1212.98V739.576Z" fill="#FEFFFF"/>
<path d="M1220.47 739.576H1217.98V745.574H1220.47V739.576Z" fill="#FEFFFF"/>
<path d="M1227.96 739.576H1225.47V745.574H1227.96V739.576Z" fill="#FEFFFF"/>
<path d="M1235.47 739.576H1232.98V745.574H1235.47V739.576Z" fill="#FEFFFF"/>
<path d="M1242.96 739.576H1240.48V745.574H1242.96V739.576Z" fill="#FEFFFF"/>
<path d="M1250.46 739.576H1247.97V745.574H1250.46V739.576Z" fill="#FEFFFF"/>
<path d="M1205.46 754.558H1202.97V760.556H1205.46V754.558Z" fill="#FEFFFF"/>
<path d="M1212.98 754.558H1210.49V760.556H1212.98V754.558Z" fill="#FEFFFF"/>
<path d="M1220.47 754.558H1217.98V760.556H1220.47V754.558Z" fill="#FEFFFF"/>
<path d="M1227.96 754.558H1225.47V760.556H1227.96V754.558Z" fill="#FEFFFF"/>
<path d="M1235.47 754.558H1232.98V760.556H1235.47V754.558Z" fill="#FEFFFF"/>
<path d="M1242.96 754.558H1240.48V760.556H1242.96V754.558Z" fill="#FEFFFF"/>
<path d="M1250.46 754.558H1247.97V760.556H1250.46V754.558Z" fill="#FEFFFF"/>
<path d="M1205.46 769.566H1202.97V775.564H1205.46V769.566Z" fill="#FEFFFF"/>
<path d="M1212.98 769.566H1210.49V775.564H1212.98V769.566Z" fill="#FEFFFF"/>
<path d="M1220.47 769.566H1217.98V775.564H1220.47V769.566Z" fill="#FEFFFF"/>
<path d="M1227.96 769.566H1225.47V775.564H1227.96V769.566Z" fill="#FEFFFF"/>
<path d="M1235.47 769.566H1232.98V775.564H1235.47V769.566Z" fill="#FEFFFF"/>
<path d="M1242.96 769.566H1240.48V775.564H1242.96V769.566Z" fill="#FEFFFF"/>
<path d="M1250.46 769.566H1247.97V775.564H1250.46V769.566Z" fill="#FEFFFF"/>
<path d="M1205.46 784.573H1202.97V790.571H1205.46V784.573Z" fill="#FEFFFF"/>
<path d="M1212.98 784.573H1210.49V790.571H1212.98V784.573Z" fill="#FEFFFF"/>
<path d="M1220.47 784.573H1217.98V790.571H1220.47V784.573Z" fill="#FEFFFF"/>
<path d="M1227.96 784.573H1225.47V790.571H1227.96V784.573Z" fill="#FEFFFF"/>
<path d="M1235.47 784.573H1232.98V790.571H1235.47V784.573Z" fill="#FEFFFF"/>
<path d="M1242.96 784.573H1240.48V790.571H1242.96V784.573Z" fill="#FEFFFF"/>
<path d="M1250.46 784.573H1247.97V790.571H1250.46V784.573Z" fill="#FEFFFF"/>
<path d="M1205.46 799.555H1202.97V805.553H1205.46V799.555Z" fill="#FEFFFF"/>
<path d="M1212.98 799.555H1210.49V805.553H1212.98V799.555Z" fill="#FEFFFF"/>
<path d="M1220.47 799.555H1217.98V805.553H1220.47V799.555Z" fill="#FEFFFF"/>
<path d="M1227.96 799.555H1225.47V805.553H1227.96V799.555Z" fill="#FEFFFF"/>
<path d="M1235.47 799.555H1232.98V805.553H1235.47V799.555Z" fill="#FEFFFF"/>
<path d="M1242.96 799.555H1240.48V805.553H1242.96V799.555Z" fill="#FEFFFF"/>
<path d="M1250.46 799.555H1247.97V805.553H1250.46V799.555Z" fill="#FEFFFF"/>
<path d="M1205.46 814.562H1202.97V820.56H1205.46V814.562Z" fill="#FEFFFF"/>
<path d="M1212.98 814.562H1210.49V820.56H1212.98V814.562Z" fill="#FEFFFF"/>
<path d="M1220.47 814.562H1217.98V820.56H1220.47V814.562Z" fill="#FEFFFF"/>
<path d="M1227.96 814.562H1225.47V820.56H1227.96V814.562Z" fill="#FEFFFF"/>
<path d="M1235.47 814.562H1232.98V820.56H1235.47V814.562Z" fill="#FEFFFF"/>
<path d="M1242.96 814.562H1240.48V820.56H1242.96V814.562Z" fill="#FEFFFF"/>
<path d="M1250.46 814.562H1247.97V820.56H1250.46V814.562Z" fill="#FEFFFF"/>
<path d="M1205.46 829.57H1202.97V835.568H1205.46V829.57Z" fill="#FEFFFF"/>
<path d="M1212.98 829.57H1210.49V835.568H1212.98V829.57Z" fill="#FEFFFF"/>
<path d="M1220.47 829.57H1217.98V835.568H1220.47V829.57Z" fill="#FEFFFF"/>
<path d="M1227.96 829.57H1225.47V835.568H1227.96V829.57Z" fill="#FEFFFF"/>
<path d="M1235.47 829.57H1232.98V835.568H1235.47V829.57Z" fill="#FEFFFF"/>
<path d="M1242.96 829.57H1240.48V835.568H1242.96V829.57Z" fill="#FEFFFF"/>
<path d="M1250.46 829.57H1247.97V835.568H1250.46V829.57Z" fill="#FEFFFF"/>
<path d="M220.554 702.792H163.86V856.996H220.554V702.792Z" fill="#01289D"/>
<path d="M246.064 702.792H189.37V856.996H246.064V702.792Z" fill="#FEFFFF"/>
<path d="M208.011 714.514H198.828V718.422H208.011V714.514Z" fill="#3A93FB"/>
<path d="M223.018 714.514H213.835V718.422H223.018V714.514Z" fill="#3A93FB"/>
<path d="M238.051 714.514H228.867V718.422H238.051V714.514Z" fill="#3A93FB"/>
<path d="M208.011 729.521H198.828V733.429H208.011V729.521Z" fill="#3A93FB"/>
<path d="M223.018 729.521H213.835V733.429H223.018V729.521Z" fill="#3A93FB"/>
<path d="M238.051 729.521H228.867V733.429H238.051V729.521Z" fill="#3A93FB"/>
<path d="M208.011 744.504H198.828V748.411H208.011V744.504Z" fill="#3A93FB"/>
<path d="M223.018 744.504H213.835V748.411H223.018V744.504Z" fill="#3A93FB"/>
<path d="M238.051 744.504H228.867V748.411H238.051V744.504Z" fill="#3A93FB"/>
<path d="M208.011 759.511H198.828V763.418H208.011V759.511Z" fill="#3A93FB"/>
<path d="M223.018 759.511H213.835V763.418H223.018V759.511Z" fill="#3A93FB"/>
<path d="M238.051 759.511H228.867V763.418H238.051V759.511Z" fill="#3A93FB"/>
<path d="M208.011 774.518H198.828V778.426H208.011V774.518Z" fill="#3A93FB"/>
<path d="M223.018 774.518H213.835V778.426H223.018V774.518Z" fill="#3A93FB"/>
<path d="M238.051 774.518H228.867V778.426H238.051V774.518Z" fill="#3A93FB"/>
<path d="M208.011 789.501H198.828V793.408H208.011V789.501Z" fill="#3A93FB"/>
<path d="M223.018 789.501H213.835V793.408H223.018V789.501Z" fill="#3A93FB"/>
<path d="M238.051 789.501H228.867V793.408H238.051V789.501Z" fill="#3A93FB"/>
<path d="M208.011 804.508H198.828V808.415H208.011V804.508Z" fill="#3A93FB"/>
<path d="M223.018 804.508H213.835V808.415H223.018V804.508Z" fill="#3A93FB"/>
<path d="M238.051 804.508H228.867V808.415H238.051V804.508Z" fill="#3A93FB"/>
<path d="M208.011 819.515H198.828V823.423H208.011V819.515Z" fill="#3A93FB"/>
<path d="M223.018 819.515H213.835V823.423H223.018V819.515Z" fill="#3A93FB"/>
<path d="M238.051 819.515H228.867V823.423H238.051V819.515Z" fill="#3A93FB"/>
<path d="M208.011 834.498H198.828V838.405H208.011V834.498Z" fill="#3A93FB"/>
<path d="M223.018 834.498H213.835V838.405H223.018V834.498Z" fill="#3A93FB"/>
<path d="M238.051 834.498H228.867V838.405H238.051V834.498Z" fill="#3A93FB"/>
<path d="M984.382 801.148C982.341 801.223 981.072 806.997 978.757 817.449C977.065 825.115 976.816 829.868 976.517 836.563C976.069 846.543 976.99 849.032 978.757 850.625C980.574 852.242 983.635 853.263 986.074 852.317C991.524 850.202 991.624 839.102 991.699 832.631C991.823 817.823 987.891 800.999 984.382 801.148Z" fill="#113BC1"/>
<path d="M984.855 868.071C984.431 868.071 984.108 867.747 984.108 867.324V825.314C984.108 824.891 984.431 824.567 984.855 824.567C985.278 824.567 985.601 824.891 985.601 825.314V867.324C985.601 867.747 985.278 868.071 984.855 868.071Z" fill="#0A377A"/>
<path d="M953.62 850.201C952.501 849.38 949.439 846.618 951.978 828.027C952.924 821.133 955.014 805.777 957.727 805.852C959.17 805.901 960.34 812.994 962.655 827.205C965.392 844.129 965.268 848.161 962.655 850.201C960.241 852.093 956.109 851.993 953.62 850.201Z" fill="#146AE3"/>
<path d="M957.105 868.071C956.682 868.071 956.358 867.747 956.358 867.324V834.97C956.358 834.547 956.682 834.224 957.105 834.224C957.528 834.224 957.852 834.547 957.852 834.97V867.324C957.852 867.747 957.528 868.071 957.105 868.071Z" fill="#0A377A"/>
<path d="M1006.31 807.345C1004.07 807.395 1002.77 817.698 1001.8 825.339C1000.16 838.28 999.016 847.489 1003.5 850.077C1006.11 851.595 1010.24 850.6 1012.5 848.385C1014.32 846.618 1015.57 843.457 1011.93 825.886C1009.47 813.866 1008.12 807.295 1006.31 807.345Z" fill="#146AE3"/>
<path d="M1007.73 868.071C1007.3 868.071 1006.98 867.747 1006.98 867.324V833.751C1006.98 833.328 1007.3 833.004 1007.73 833.004C1008.15 833.004 1008.47 833.328 1008.47 833.751V867.324C1008.47 867.747 1008.15 868.071 1007.73 868.071Z" fill="#0A377A"/>
<path d="M1075.45 915.283C1074.18 884.298 1072.88 853.313 1071.61 822.327C1068 822.85 1065.29 823.97 1063.62 824.816C1060.64 826.334 1057.35 827.977 1055.88 831.561C1054.84 834.074 1055.11 836.488 1055.39 837.808C1053.62 837.384 1050.93 836.862 1047.65 836.812C1042.47 836.737 1037.47 836.613 1033.91 839.823C1029.18 844.079 1030 851.496 1030.15 852.69C1023.83 853.064 1018.45 856.473 1016.41 861.575C1015.02 865.01 1015.54 868.22 1015.91 869.813C1014.65 870.037 1012.38 870.609 1010.17 872.302C1009.54 872.775 1005.19 876.284 1005.16 882.307C1005.14 888.603 1009.92 892.212 1010.41 892.56C1004.47 892.884 1000.48 898.21 1001.26 902.889C1002.05 907.717 1007.8 911.525 1013.62 909.633C1008.15 914.661 1005.88 918.419 1006.88 920.883C1009.29 927.104 1032.17 925.238 1075.45 915.283Z" fill="#113BC1"/>
<path d="M1166.19 755.23H1071.19V911.4H1166.19V755.23Z" fill="#146AE3"/>
<path d="M1159.89 901.395H1191.35V755.23H1159.89V901.395Z" fill="#002A9A"/>
<path d="M1131.17 779.048H1122.78V793.034H1131.17V779.048Z" fill="#87D5FB"/>
<path d="M1146.7 779.048H1138.31V793.034H1146.7V779.048Z" fill="#87D5FB"/>
<path d="M1109.42 777.181H1085.8V785.767H1109.42V777.181Z" fill="#87D5FB"/>
<path d="M1131.17 806.997H1122.78V820.983H1131.17V806.997Z" fill="#87D5FB"/>
<path d="M1146.7 806.997H1138.31V820.983H1146.7V806.997Z" fill="#87D5FB"/>
<path d="M1109.42 805.155H1085.8V813.741H1109.42V805.155Z" fill="#87D5FB"/>
<path d="M1109.42 833.104H1085.8V841.69H1109.42V833.104Z" fill="#87D5FB"/>
<path d="M1131.17 834.97H1122.78V848.957H1131.17V834.97Z" fill="#87D5FB"/>
<path d="M1146.7 834.97H1138.31V848.957H1146.7V834.97Z" fill="#87D5FB"/>
<path d="M1109.42 861.052H1085.8V869.639H1109.42V861.052Z" fill="#87D5FB"/>
<path d="M1131.17 862.919H1122.78V876.906H1131.17V862.919Z" fill="#87D5FB"/>
<path d="M1146.7 862.919H1138.31V876.906H1146.7V862.919Z" fill="#87D5FB"/>
<path d="M1101.48 776.31H1099.74V875.562H1101.48V776.31Z" fill="#146AE3"/>
<path d="M121.352 814.115C117.943 817.051 112.716 822.327 109.033 830.366C105.997 836.961 101.965 845.772 106.221 853.337C108.908 858.091 114.508 861.675 120.78 861.749C126.778 861.799 132.552 858.663 135.339 853.91C139.869 846.195 135.19 836.513 131.407 828.699C128.172 821.954 124.214 817.126 121.352 814.115Z" fill="#FEFFFF"/>
<path d="M120.805 893.108C120.456 893.108 120.183 892.834 120.183 892.486V835.344C120.183 834.995 120.456 834.721 120.805 834.721C121.153 834.721 121.427 834.995 121.427 835.344V892.486C121.427 892.834 121.153 893.108 120.805 893.108Z" fill="#0A377A"/>
<path d="M161.063 824C156.832 827.634 150.361 834.179 145.782 844.134C142.024 852.322 136.997 863.248 142.298 872.606C145.633 878.479 152.576 882.934 160.366 883.034C167.783 883.108 174.975 879.201 178.435 873.302C184.034 863.746 178.236 851.725 173.582 842.044C169.525 833.681 164.597 827.708 161.063 824Z" fill="#113BC1"/>
<path d="M160.366 943.784C159.943 943.784 159.62 943.461 159.62 943.038V857.499C159.62 857.076 159.943 856.752 160.366 856.752C160.789 856.752 161.113 857.076 161.113 857.499V943.038C161.113 943.461 160.789 943.784 160.366 943.784Z" fill="#0A377A"/>
<path d="M30.5399 821C29.0217 822.742 26.7072 825.853 25.0646 830.607C23.7207 834.514 21.9288 839.716 23.8202 844.17C25.0148 846.983 27.5036 849.098 30.291 849.123C32.954 849.148 35.5174 847.306 36.7618 844.494C38.7777 839.94 36.6871 834.215 35.0197 829.611C33.5762 825.604 31.8092 822.767 30.5399 821Z" fill="#113BC1"/>
<path d="M30.2911 868.062C29.868 868.062 29.5444 867.739 29.5444 867.316V833.543C29.5444 833.12 29.868 832.797 30.2911 832.797C30.7142 832.797 31.0377 833.12 31.0377 833.543V867.316C31.0377 867.714 30.7142 868.062 30.2911 868.062Z" fill="#0A377A"/>
<path d="M1191.37 682.558H1128.95V755.23H1191.37V682.558Z" fill="#AAE9FA"/>
<path d="M1177.88 682.558H1128.95V755.205H1177.88V682.558Z" fill="#FFFEFF"/>
<path d="M1171.49 689.577H1133.61V691.319H1171.49V689.577Z" fill="#23A0E0"/>
<path d="M1171.49 697.068H1133.61V698.81H1171.49V697.068Z" fill="#23A0E0"/>
<path d="M1171.49 704.559H1133.61V706.301H1171.49V704.559Z" fill="#23A0E0"/>
<path d="M1171.49 712.075H1133.61V713.817H1171.49V712.075Z" fill="#23A0E0"/>
<path d="M1171.49 719.566H1133.61V721.309H1171.49V719.566Z" fill="#23A0E0"/>
<path d="M1171.49 727.057H1133.61V728.8H1171.49V727.057Z" fill="#23A0E0"/>
<path d="M1171.49 734.573H1133.61V736.316H1171.49V734.573Z" fill="#23A0E0"/>
<path d="M1171.49 742.065H1133.61V743.807H1171.49V742.065Z" fill="#23A0E0"/>
<path d="M1171.49 749.556H1133.61V751.298H1171.49V749.556Z" fill="#23A0E0"/>
<path d="M1047.42 888.404C1056.73 888.006 1066.04 887.508 1075.35 887.085C1141.52 883.974 1204.04 865.458 1218.38 861.426C1259.41 849.853 1326.51 838.081 1439.95 838.579C1439.95 900.4 1439.95 962.246 1439.95 1024.07C1282.86 1023.84 1125.77 1023.59 968.677 1023.37C935.104 1012.32 912.854 984.794 912.431 955.875C912.083 930.414 928.708 907.891 946.826 897.314C961.535 888.752 970.917 891.639 1047.42 888.404Z" fill="#3A95EE"/>
<path d="M528.664 944.526C521.819 938.851 511.964 931.211 499.421 923.147C483.741 913.068 465.648 901.445 439.79 893.904C421.945 888.678 396.908 881.012 368.91 889.4C351.09 894.75 354.848 898.235 340.787 901.769C305.496 910.654 289.543 886.737 264.282 897.264C247.109 904.432 251.963 916.527 231.654 925.387C211.694 934.098 199.798 925.561 182.153 934.396C168.24 941.34 160.55 954.182 156.27 963.639C265.402 962.893 374.534 962.146 483.667 961.4C498.649 955.775 513.656 950.15 528.664 944.526Z" fill="#1969E2"/>
<path d="M0 976.631C108.411 976.681 216.821 976.755 325.232 976.805C324.187 963.863 320.777 946.666 308.632 940.046C298.179 934.371 291.26 941.962 274.884 940.793C246.861 938.777 242.331 914.735 209.629 904.805C191.809 899.379 191.386 905.975 164.632 902.565C143.502 899.852 93.4283 878.076 91.1386 877.055C72.7217 868.992 44.0263 863.019 0.0248877 874.218C0 908.364 0 942.51 0 976.631Z" fill="#3A95EE"/>
<path d="M244.695 927.776C243.899 926.557 241.087 922.251 240.987 916.104C240.863 908.613 244.87 904.506 243.999 898.11C243.526 894.626 242.157 894.402 242.132 891.291C242.132 887.035 244.745 886.139 245.392 881.087C245.94 876.657 244.223 874.965 243.999 869.415C243.725 862.446 245.94 852.889 249.573 851.421C252.46 850.251 255.746 854.383 256.99 859.684C258.657 866.777 255.795 872.376 257.911 879.619C258.956 883.202 260.325 884.173 260.474 887.881C260.599 891.49 259.354 892.336 259.305 895.671C259.23 901.52 262.963 903.088 263.71 909.285C264.581 916.652 260.474 924.441 260.001 925.337C255.945 932.853 249.101 934.546 244.695 927.776Z" fill="#113BC1"/>
<path d="M251.49 961.275C251.067 961.275 250.743 960.951 250.743 960.528V874.566C250.743 874.143 251.067 873.82 251.49 873.82C251.913 873.82 252.236 874.143 252.236 874.566V960.528C252.236 960.927 251.913 961.275 251.49 961.275Z" fill="#0A377A"/>
<path d="M176.653 950.648C174.587 950.499 170.107 950.15 165.702 947.139C163.412 945.571 160.749 943.779 159.903 940.693C158.285 934.795 165.304 931.46 163.761 925.885C162.616 921.704 158.086 921.38 157.315 916.229C157.215 915.507 156.966 913.342 157.962 911.077C160.102 906.174 165.179 907.145 167.618 903.337C170.804 898.359 164.283 893.183 166.971 885.94C168.838 880.913 174.388 877.055 177.275 878.2C180.062 879.32 180.386 885.119 180.485 887.21C180.809 893.382 178.395 895.174 179.838 898.16C181.406 901.396 184.666 900.126 188.848 903.959C191.734 906.597 195.045 911.649 193.999 916.204C192.954 920.758 188.25 921.953 188.848 924.566C189.42 927.08 193.875 926.383 196.588 929.718C199.425 933.227 198.827 939.324 196.588 943.232C191.859 951.669 179.216 950.822 176.653 950.648Z" fill="#D0F7F7"/>
<path d="M178.171 972.798C177.748 972.798 177.424 972.475 177.424 972.052V922.65C177.424 922.227 177.748 921.903 178.171 921.903C178.594 921.903 178.918 922.227 178.918 922.65V972.052C178.918 972.475 178.569 972.798 178.171 972.798Z" fill="#0A377A"/>
<path d="M217.767 937.059C214.233 936.562 208.26 934.396 206.891 929.817C205.199 924.118 212.616 921.306 212.939 912.894C213.238 905.004 206.866 903.536 206.891 895.373C206.916 888.653 211.272 880.863 218.365 878.449C223.915 876.582 231.53 877.877 232.874 881.46C234.716 886.413 222.994 891.067 223.815 898.981C224.537 906 234.193 906.547 236.508 915.905C238.175 922.724 234.566 928.473 234.094 929.195C230.883 934.148 224.562 938.03 217.767 937.059Z" fill="#E7FFF7"/>
<path d="M221.227 970.185C220.804 970.185 220.48 969.861 220.48 969.438V914.86C220.48 914.437 220.804 914.113 221.227 914.113C221.65 914.113 221.973 914.437 221.973 914.86V969.438C221.973 969.837 221.65 970.185 221.227 970.185Z" fill="#0A377A"/>
<path d="M1268.42 874.268C1268.82 873.098 1269.3 871.082 1268.42 869.216C1266.93 865.98 1262.03 864.213 1256.6 865.831C1256.2 865.184 1252 858.365 1244.23 857.967C1240.2 857.767 1237.14 859.385 1235.8 860.206C1232.41 855.602 1226.76 853.213 1221.16 854.009C1213 855.204 1209.57 862.521 1209.34 863.019C1204.66 859.236 1200.23 857.593 1197.52 856.822C1193.49 855.702 1185.1 853.337 1180.07 857.942C1177.76 860.057 1176.99 862.919 1176.69 864.686C1172.31 862.596 1167.6 862.919 1165.44 865.259C1162.58 868.37 1163.35 875.935 1169.94 880.44C1202.8 878.399 1235.62 876.334 1268.42 874.268Z" fill="#87D5FB"/>
<path d="M1325.79 891.391C1324 891.266 1320.09 890.967 1316.23 888.329C1314.24 886.96 1311.9 885.393 1311.18 882.705C1309.76 877.553 1315.91 874.641 1314.57 869.763C1313.57 866.13 1309.61 865.831 1308.94 861.326C1308.84 860.704 1308.64 858.813 1309.51 856.822C1311.38 852.541 1315.84 853.387 1317.95 850.077C1320.74 845.722 1315.04 841.217 1317.38 834.896C1319.02 830.49 1323.85 827.131 1326.39 828.151C1328.83 829.122 1329.1 834.199 1329.2 836.015C1329.5 841.416 1327.36 842.984 1328.63 845.572C1330 848.385 1332.86 847.29 1336.49 850.625C1339.01 852.939 1341.89 857.319 1341 861.301C1340.1 865.283 1335.97 866.329 1336.49 868.618C1336.99 870.808 1340.87 870.186 1343.24 873.123C1345.7 876.184 1345.2 881.51 1343.24 884.945C1339.06 892.286 1328.03 891.54 1325.79 891.391Z" fill="#E7FFF7"/>
<path d="M1327.11 910.828C1326.69 910.828 1326.36 910.504 1326.36 910.081V866.951C1326.36 866.528 1326.69 866.204 1327.11 866.204C1327.53 866.204 1327.86 866.528 1327.86 866.951V910.081C1327.86 910.479 1327.51 910.828 1327.11 910.828Z" fill="#0A377A"/>
<path d="M1403.99 873.447C1403.09 872.053 1399.86 867.125 1399.73 860.107C1399.58 851.545 1404.16 846.842 1403.19 839.525C1402.67 835.518 1401.08 835.269 1401.08 831.735C1401.08 826.857 1404.06 825.861 1404.78 820.062C1405.41 814.985 1403.44 813.069 1403.19 806.723C1402.87 798.759 1405.43 787.833 1409.56 786.141C1412.87 784.797 1416.63 789.525 1418.05 795.598C1419.97 803.711 1416.68 810.107 1419.12 818.395C1420.31 822.501 1421.88 823.621 1422.03 827.852C1422.18 831.959 1420.76 832.929 1420.71 836.762C1420.61 843.457 1424.92 845.249 1425.76 852.342C1426.78 860.779 1422.08 869.664 1421.51 870.684C1416.88 879.245 1409.04 881.162 1403.99 873.447Z" fill="#B1E4FF"/>
<path d="M1411.78 911.624C1411.35 911.624 1411.03 911.301 1411.03 910.878V812.596C1411.03 812.173 1411.35 811.85 1411.78 811.85C1412.2 811.85 1412.52 812.173 1412.52 812.596V910.878C1412.52 911.276 1412.2 911.624 1411.78 911.624Z" fill="#0A377A"/>
<path d="M1370.51 888.628C1365.76 889.723 1359.81 887.558 1356.83 882.058C1354.14 877.13 1354.39 870.585 1356.4 866.379C1358.05 862.919 1360.09 862.695 1360.68 859.286C1361.36 855.503 1359.14 853.96 1359.84 850.177C1360.41 847.016 1363.1 847.439 1364.96 843.606C1367.58 838.231 1363.84 833.577 1366.11 831.71C1368.05 830.117 1373.2 831.511 1375.12 834.721C1377.53 838.728 1372.41 841.59 1373.62 848.982C1374.37 853.512 1377.28 858.24 1380.64 863.716C1381.51 865.159 1381.49 864.96 1381.66 865.383C1384.48 872.028 1379.72 886.488 1370.51 888.628Z" fill="#113BC1"/>
<path d="M1368.65 914.238C1368.22 914.238 1367.9 913.914 1367.9 913.491V875.363C1367.9 874.94 1368.22 874.616 1368.65 874.616C1369.07 874.616 1369.39 874.94 1369.39 875.363V913.491C1369.39 913.914 1369.07 914.238 1368.65 914.238Z" fill="#0A377A"/>
<path d="M1066.78 976.805C1191.17 976.88 1315.59 976.979 1439.98 977.054C1439.98 952.589 1439.98 928.15 1439.98 903.685C1422.08 908.463 1408.92 912.446 1400.06 915.283C1396.89 916.278 1390.97 918.045 1381.09 921.33C1370.31 924.939 1367.23 926.283 1360.98 927.652C1331.37 934.197 1316.48 922.575 1288.41 919.787C1252.2 916.154 1249.98 932.779 1204.66 938.926C1141.32 947.487 1096.03 909.21 1049.46 938.926C1041.8 943.804 1031.67 952.639 1023.38 969.712C1037.84 972.051 1052.3 974.441 1066.78 976.805Z" fill="#B1E4FF"/>
<path d="M155.623 976.705C462.064 976.78 768.481 976.83 1074.92 976.905C938.489 924.466 824.951 909.434 767.187 913.018C698.323 917.299 651.385 935.566 651.385 935.566C627.418 944.899 628.837 945.272 615.397 950.573C574.009 966.875 551.063 940.967 492.402 941.564C451.562 941.987 457.759 955.103 411.393 956.571C373.365 957.766 360.772 949.628 318.388 950.573C286.009 951.295 263.162 956.721 249.399 959.583C243.053 960.902 242.555 963.54 236.756 965.382C228.12 968.119 210.002 967.447 210.002 967.447C199.997 965.879 183.596 966.626 155.623 976.705Z" fill="#1C4CC4"/>
<path d="M0 976.954C0 949.877 0 922.774 0 895.696C8.53647 888.827 20.5572 888.977 28.2973 895.622C34.9174 901.321 37.3564 910.903 34.2952 919.613C49.7753 911.251 64.7079 912.744 69.9094 920.186C70.8303 921.505 72.9457 925.113 71.776 932.007C72.7715 930.987 77.1517 926.706 83.2243 926.955C90.4418 927.229 97.2361 933.799 98.6049 943.082C100.447 942.261 103.508 941.191 107.365 941.216C109.829 941.216 116.574 941.241 121.103 946.467C125.732 951.818 124.662 958.712 124.488 959.782C129.117 956.422 135.14 955.974 139.67 958.662C145.394 962.047 147.858 969.936 144.722 976.855C96.4895 976.855 48.2572 976.905 0 976.954Z" fill="#113BC1"/>
<path d="M1318.17 962.843C1315.59 963.117 1310.48 963.639 1307.2 960.28C1303.59 956.596 1303.94 950.101 1306.1 946.019C1308.29 941.863 1311.31 942.261 1312.33 938.702C1313.57 934.297 1309.36 932.206 1309.76 927.005C1310.14 922.102 1314.54 916.826 1319.64 916.403C1323.38 916.079 1326.24 918.493 1327.36 919.414C1331.86 923.172 1333.78 929.693 1332.78 935.044C1331.96 939.573 1329.77 940.27 1329.85 944.177C1329.95 948.483 1333.31 949.229 1333.13 952.589C1332.91 957.642 1325.02 962.146 1318.17 962.843Z" fill="#113BC1"/>
<path d="M1317.73 977.576C1317.3 977.576 1316.98 977.253 1316.98 976.83V933.7C1316.98 933.276 1317.3 932.953 1317.73 932.953C1318.15 932.953 1318.47 933.276 1318.47 933.7V976.83C1318.47 977.228 1318.15 977.576 1317.73 977.576Z" fill="#0A377A"/>
<path d="M1439.98 884.074C1439.98 905.253 1440 926.408 1440 947.587C1409.61 947.587 1379.22 947.562 1348.86 947.562C1349.33 946.293 1350.43 942.336 1352.87 940.195C1353.86 939.324 1355.85 937.632 1359.02 937.06C1362.43 936.462 1365.11 937.557 1366.16 938.055C1366.03 937.284 1365.91 936.139 1366.16 934.795C1366.9 930.614 1370.79 925.835 1375.69 926.034C1379.5 926.184 1381.96 929.245 1382.46 929.917C1382.48 928.548 1382.63 926.532 1383.21 924.168C1383.46 923.147 1384.35 919.962 1386.96 916.054C1389.23 912.695 1393.63 906.099 1401.03 904.93C1402.97 904.631 1404.63 904.78 1405.68 904.93C1405.75 903.835 1406 902.267 1406.8 900.549C1409.01 895.796 1414.89 891.291 1420.49 892.809C1423.65 893.655 1425.59 896.144 1426.51 897.563C1427.03 896.294 1427.73 894.95 1428.65 893.556C1432.19 888.205 1437.01 885.418 1439.98 884.074Z" fill="#113BC1"/>
</g>
<defs>
<clipPath id="clip0_437_13392">
<rect width="1440" height="518" fill="white" transform="translate(0 456)"/>
</clipPath>
</defs>
</svg>
