<svg width="1440" height="1024" viewBox="0 0 1440 1024" fill="none" xmlns="http://www.w3.org/2000/svg">
<mask id="mask0_437_21277" style="mask-type:alpha" maskUnits="userSpaceOnUse" x="0" y="0" width="1440" height="1024">
<path d="M0 0H1440V1024H0V0Z" fill="#FFFAEF"/>
</mask>
<g mask="url(#mask0_437_21277)">
</g>
<g opacity="0.1" clip-path="url(#clip0_437_21277)">
<path d="M1020.32 794.877C1018.58 793.085 1006.56 809.262 986.572 810.631C967.01 811.95 960.713 797.589 940.853 800.551C936.846 801.148 929.355 805.305 913.85 812.547C898.668 819.64 888.788 827.704 886.847 829.047C874.353 837.758 853.472 849.58 816.664 863.492C870.048 858.514 923.457 853.512 976.841 848.534C1013.77 808.017 1021.76 796.37 1020.32 794.877Z" fill="#1467E1"/>
<path d="M968.702 861.399C967.582 850.225 929.902 841.937 898.967 843.405C874.727 844.55 869.351 850.996 847.226 854.655C801.009 862.27 785.504 840.568 741.503 838.901C691.827 837.034 681.175 863.54 635.78 870.384C603.103 875.311 553.477 869.911 485.06 816.402C438.57 837.408 392.08 858.388 345.59 879.393C425.828 891.389 506.066 903.385 586.279 915.381C703.076 933.524 792.498 922.125 851.73 908.636C858.649 907.068 970.693 881.135 968.702 861.399Z" fill="#3A95EE"/>
<path d="M907.802 844.528C903.746 845.324 898.669 843.756 896.105 839.774C893.815 836.215 894.015 831.487 895.732 828.45C897.15 825.961 898.868 825.787 899.39 823.323C899.963 820.586 898.071 819.491 898.669 816.753C899.067 814.886 900.585 812.572 903.049 811.999C905.587 811.402 908.35 812.846 909.37 814.837C910.664 817.35 908.325 819.167 909.271 821.88C910.54 825.464 915.692 824.468 917.309 827.728C919.723 832.532 915.667 842.985 907.802 844.528Z" fill="#113BC1"/>
<path d="M906.209 867.3C905.786 867.3 905.463 866.976 905.463 866.553V835.419C905.463 834.995 905.786 834.672 906.209 834.672C906.633 834.672 906.956 834.995 906.956 835.419V866.553C906.956 866.976 906.608 867.3 906.209 867.3Z" fill="#0A377A"/>
<path d="M881.446 853.161C876.22 853.435 872.064 849.105 870.57 845.322C867.26 836.984 874.453 825.387 880.849 825.387C887.22 825.387 894.263 836.96 891.127 845.322C889.833 848.706 886.374 852.888 881.446 853.161Z" fill="#FFFEFF"/>
<path d="M880.55 881.382C880.127 881.382 879.804 881.059 879.804 880.636V840.84C879.804 840.417 880.127 840.094 880.55 840.094C880.973 840.094 881.297 840.417 881.297 840.84V880.636C881.297 881.034 880.948 881.382 880.55 881.382Z" fill="#0A377A"/>
<path d="M720.597 861.65C715.595 861.899 711.663 857.767 710.219 854.159C707.058 846.195 713.927 835.145 720.025 835.145C726.098 835.145 732.817 846.17 729.831 854.159C728.586 857.419 725.276 861.401 720.597 861.65Z" fill="#D0F7F7"/>
<path d="M719.776 883.651C719.353 883.651 719.029 883.327 719.029 882.904V856.001C719.029 855.577 719.353 855.254 719.776 855.254C720.199 855.254 720.523 855.577 720.523 856.001V882.904C720.523 883.327 720.199 883.651 719.776 883.651Z" fill="#0A377A"/>
<path d="M746.456 845.572C741.652 845.821 737.869 841.839 736.501 838.379C733.464 830.739 740.059 820.137 745.908 820.137C751.732 820.137 758.178 830.714 755.316 838.379C754.121 841.49 750.96 845.323 746.456 845.572Z" fill="#113BC1"/>
<path d="M746.082 875.834C745.659 875.834 745.336 875.511 745.336 875.087V827.876C745.336 827.452 745.659 827.129 746.082 827.129C746.505 827.129 746.829 827.452 746.829 827.876V875.087C746.829 875.511 746.481 875.834 746.082 875.834Z" fill="#0A377A"/>
<path d="M857.529 875.016C853.796 875.215 850.859 872.129 849.789 869.416C847.425 863.468 852.552 855.23 857.106 855.23C861.636 855.23 866.663 863.468 864.423 869.416C863.502 871.855 861.038 874.817 857.529 875.016Z" fill="#FFFEFF"/>
<path d="M856.882 895.323C856.459 895.323 856.135 895 856.135 894.577V866.254C856.135 865.831 856.459 865.508 856.882 865.508C857.305 865.508 857.629 865.831 857.629 866.254V894.577C857.629 894.975 857.305 895.323 856.882 895.323Z" fill="#0A377A"/>
<path d="M1439.98 569.121H1385.79V827.505H1439.98V569.121Z" fill="#3A95EE"/>
<path d="M1439.98 586.867H1394.53V591.82H1439.98V586.867Z" fill="#012A94"/>
<path d="M1439.98 598.113H1394.53V603.066H1439.98V598.113Z" fill="#012A94"/>
<path d="M1439.98 609.363H1394.53V614.316H1439.98V609.363Z" fill="#012A94"/>
<path d="M1439.98 620.613H1394.53V625.566H1439.98V620.613Z" fill="#012A94"/>
<path d="M1439.98 631.863H1394.53V636.816H1439.98V631.863Z" fill="#012A94"/>
<path d="M1439.98 643.113H1394.53V648.066H1439.98V643.113Z" fill="#012A94"/>
<path d="M1439.98 654.359H1394.53V659.312H1439.98V654.359Z" fill="#012A94"/>
<path d="M1439.98 665.609H1394.53V670.562H1439.98V665.609Z" fill="#012A94"/>
<path d="M1439.98 676.859H1394.53V681.812H1439.98V676.859Z" fill="#012A94"/>
<path d="M1439.98 688.109H1394.53V693.062H1439.98V688.109Z" fill="#012A94"/>
<path d="M1439.98 699.359H1394.53V704.312H1439.98V699.359Z" fill="#012A94"/>
<path d="M1439.98 710.609H1394.53V715.562H1439.98V710.609Z" fill="#012A94"/>
<path d="M1439.98 721.855H1394.53V726.808H1439.98V721.855Z" fill="#012A94"/>
<path d="M1439.98 733.105H1394.53V738.058H1439.98V733.105Z" fill="#012A94"/>
<path d="M1439.98 744.355H1394.53V749.308H1439.98V744.355Z" fill="#012A94"/>
<path d="M1439.98 755.605H1394.53V760.558H1439.98V755.605Z" fill="#012A94"/>
<path d="M1439.98 766.855H1394.53V771.808H1439.98V766.855Z" fill="#012A94"/>
<path d="M1360.71 502.398H1317.73V799.582H1360.71V502.398Z" fill="#FFFEFF"/>
<path d="M1385.82 502.398H1360.71V805.132H1385.82V502.398Z" fill="#1266E3"/>
<path d="M1327.86 513.074H1324.84V528.33H1327.86V513.074Z" fill="#3A93FB"/>
<path d="M1335.37 513.074H1332.36V528.33H1335.37V513.074Z" fill="#3A93FB"/>
<path d="M1342.86 513.074H1339.85V528.33H1342.86V513.074Z" fill="#3A93FB"/>
<path d="M1350.35 513.074H1347.34V528.33H1350.35V513.074Z" fill="#3A93FB"/>
<path d="M1327.86 539.332H1324.84V554.588H1327.86V539.332Z" fill="#3A93FB"/>
<path d="M1335.37 539.332H1332.36V554.588H1335.37V539.332Z" fill="#3A93FB"/>
<path d="M1342.86 539.332H1339.85V554.588H1342.86V539.332Z" fill="#3A93FB"/>
<path d="M1350.35 539.332H1347.34V554.588H1350.35V539.332Z" fill="#3A93FB"/>
<path d="M1327.86 565.562H1324.84V580.819H1327.86V565.562Z" fill="#3A93FB"/>
<path d="M1335.37 565.562H1332.36V580.819H1335.37V565.562Z" fill="#3A93FB"/>
<path d="M1342.86 565.562H1339.85V580.819H1342.86V565.562Z" fill="#3A93FB"/>
<path d="M1350.35 565.562H1347.34V580.819H1350.35V565.562Z" fill="#3A93FB"/>
<path d="M1327.86 591.82H1324.84V607.076H1327.86V591.82Z" fill="#3A93FB"/>
<path d="M1335.37 591.82H1332.36V607.076H1335.37V591.82Z" fill="#3A93FB"/>
<path d="M1342.86 591.82H1339.85V607.076H1342.86V591.82Z" fill="#3A93FB"/>
<path d="M1350.35 591.82H1347.34V607.076H1350.35V591.82Z" fill="#3A93FB"/>
<path d="M1327.86 618.078H1324.84V633.334H1327.86V618.078Z" fill="#3A93FB"/>
<path d="M1335.37 618.078H1332.36V633.334H1335.37V618.078Z" fill="#3A93FB"/>
<path d="M1342.86 618.078H1339.85V633.334H1342.86V618.078Z" fill="#3A93FB"/>
<path d="M1350.35 618.078H1347.34V633.334H1350.35V618.078Z" fill="#3A93FB"/>
<path d="M1327.86 644.309H1324.84V659.565H1327.86V644.309Z" fill="#3A93FB"/>
<path d="M1335.37 644.309H1332.36V659.565H1335.37V644.309Z" fill="#3A93FB"/>
<path d="M1342.86 644.309H1339.85V659.565H1342.86V644.309Z" fill="#3A93FB"/>
<path d="M1350.35 644.309H1347.34V659.565H1350.35V644.309Z" fill="#3A93FB"/>
<path d="M1327.86 670.562H1324.84V685.819H1327.86V670.562Z" fill="#3A93FB"/>
<path d="M1335.37 670.562H1332.36V685.819H1335.37V670.562Z" fill="#3A93FB"/>
<path d="M1342.86 670.562H1339.85V685.819H1342.86V670.562Z" fill="#3A93FB"/>
<path d="M1350.35 670.562H1347.34V685.819H1350.35V670.562Z" fill="#3A93FB"/>
<path d="M1327.86 696.82H1324.84V712.076H1327.86V696.82Z" fill="#3A93FB"/>
<path d="M1335.37 696.82H1332.36V712.076H1335.37V696.82Z" fill="#3A93FB"/>
<path d="M1342.86 696.82H1339.85V712.076H1342.86V696.82Z" fill="#3A93FB"/>
<path d="M1350.35 696.82H1347.34V712.076H1350.35V696.82Z" fill="#3A93FB"/>
<path d="M1327.86 723.078H1324.84V738.334H1327.86V723.078Z" fill="#3A93FB"/>
<path d="M1335.37 723.078H1332.36V738.334H1335.37V723.078Z" fill="#3A93FB"/>
<path d="M1342.86 723.078H1339.85V738.334H1342.86V723.078Z" fill="#3A93FB"/>
<path d="M1350.35 723.078H1347.34V738.334H1350.35V723.078Z" fill="#3A93FB"/>
<path d="M1327.86 749.309H1324.84V764.565H1327.86V749.309Z" fill="#3A93FB"/>
<path d="M1335.37 749.309H1332.36V764.565H1335.37V749.309Z" fill="#3A93FB"/>
<path d="M1342.86 749.309H1339.85V764.565H1342.86V749.309Z" fill="#3A93FB"/>
<path d="M1350.35 749.309H1347.34V764.565H1350.35V749.309Z" fill="#3A93FB"/>
<path d="M1053.87 653.762H1013.97V789.375H1053.87V653.762Z" fill="#FFFEFF"/>
<path d="M1066.64 653.762H1053.87V785.393H1066.64V653.762Z" fill="#1266E3"/>
<path d="M1023.23 660.805H1021.71V785.367H1023.23V660.805Z" fill="#3A93FB"/>
<path d="M1034.48 660.805H1032.96V785.367H1034.48V660.805Z" fill="#3A93FB"/>
<path d="M1045.73 660.805H1044.21V785.367H1045.73V660.805Z" fill="#3A93FB"/>
<path d="M436.629 577.633H368.337V870.61H436.629V577.633Z" fill="#002A9A"/>
<path d="M498.923 894.801H436.629V577.633L498.923 647.02V894.801Z" fill="#FEFFFF"/>
<path d="M456.489 651.176H446.111V657.447H456.489V651.176Z" fill="#157DB7"/>
<path d="M473.786 651.176H463.408V657.447H473.786V651.176Z" fill="#157DB7"/>
<path d="M491.108 651.176H480.73V657.447H491.108V651.176Z" fill="#157DB7"/>
<path d="M456.489 666.16H446.111V672.432H456.489V666.16Z" fill="#157DB7"/>
<path d="M473.786 666.16H463.408V672.432H473.786V666.16Z" fill="#157DB7"/>
<path d="M491.108 666.16H480.73V672.432H491.108V666.16Z" fill="#157DB7"/>
<path d="M456.489 681.164H446.111V687.436H456.489V681.164Z" fill="#157DB7"/>
<path d="M473.786 681.164H463.408V687.436H473.786V681.164Z" fill="#157DB7"/>
<path d="M491.108 681.164H480.73V687.436H491.108V681.164Z" fill="#157DB7"/>
<path d="M456.489 696.172H446.111V702.444H456.489V696.172Z" fill="#157DB7"/>
<path d="M473.786 696.172H463.408V702.444H473.786V696.172Z" fill="#157DB7"/>
<path d="M491.108 696.172H480.73V702.444H491.108V696.172Z" fill="#157DB7"/>
<path d="M456.489 711.156H446.111V717.428H456.489V711.156Z" fill="#157DB7"/>
<path d="M473.786 711.156H463.408V717.428H473.786V711.156Z" fill="#157DB7"/>
<path d="M491.108 711.156H480.73V717.428H491.108V711.156Z" fill="#157DB7"/>
<path d="M456.489 726.164H446.111V732.436H456.489V726.164Z" fill="#157DB7"/>
<path d="M473.786 726.164H463.408V732.436H473.786V726.164Z" fill="#157DB7"/>
<path d="M491.108 726.164H480.73V732.436H491.108V726.164Z" fill="#157DB7"/>
<path d="M456.489 741.168H446.111V747.44H456.489V741.168Z" fill="#157DB7"/>
<path d="M473.786 741.168H463.408V747.44H473.786V741.168Z" fill="#157DB7"/>
<path d="M491.108 741.168H480.73V747.44H491.108V741.168Z" fill="#157DB7"/>
<path d="M456.489 756.152H446.111V762.424H456.489V756.152Z" fill="#157DB7"/>
<path d="M473.786 756.152H463.408V762.424H473.786V756.152Z" fill="#157DB7"/>
<path d="M491.108 756.152H480.73V762.424H491.108V756.152Z" fill="#157DB7"/>
<path d="M456.489 771.16H446.111V777.432H456.489V771.16Z" fill="#157DB7"/>
<path d="M473.786 771.16H463.408V777.432H473.786V771.16Z" fill="#157DB7"/>
<path d="M491.108 771.16H480.73V777.432H491.108V771.16Z" fill="#157DB7"/>
<path d="M456.489 786.168H446.111V792.44H456.489V786.168Z" fill="#157DB7"/>
<path d="M473.786 786.168H463.408V792.44H473.786V786.168Z" fill="#157DB7"/>
<path d="M491.108 786.168H480.73V792.44H491.108V786.168Z" fill="#157DB7"/>
<path d="M456.489 801.172H446.111V807.444H456.489V801.172Z" fill="#157DB7"/>
<path d="M473.786 801.172H463.408V807.444H473.786V801.172Z" fill="#157DB7"/>
<path d="M491.108 801.172H480.73V807.444H491.108V801.172Z" fill="#157DB7"/>
<path d="M456.489 816.156H446.111V822.428H456.489V816.156Z" fill="#157DB7"/>
<path d="M473.786 816.156H463.408V822.428H473.786V816.156Z" fill="#157DB7"/>
<path d="M491.108 816.156H480.73V822.428H491.108V816.156Z" fill="#157DB7"/>
<path d="M456.489 831.164H446.111V837.436H456.489V831.164Z" fill="#157DB7"/>
<path d="M473.786 831.164H463.408V837.436H473.786V831.164Z" fill="#157DB7"/>
<path d="M491.108 831.164H480.73V837.436H491.108V831.164Z" fill="#157DB7"/>
<path d="M456.489 849.902H446.111V856.174H456.489V849.902Z" fill="#157DB7"/>
<path d="M473.786 849.902H463.408V856.174H473.786V849.902Z" fill="#157DB7"/>
<path d="M491.108 849.902H480.73V856.174H491.108V849.902Z" fill="#157DB7"/>
<path d="M345.416 546.325V485.102H277.672V512.304H257.687V546.325H232.749V829.796H350.667V546.325H345.416Z" fill="#1266E3"/>
<path d="M365.401 546.325V512.304H345.416V485.102H317.367V512.304H297.383V546.325H272.42V832.683H390.338V546.325H365.401Z" fill="#3A93FB"/>
<path d="M303.779 790.199H295.74V568.5H303.779V790.199ZM296.984 788.955H302.534V569.744H296.984V788.955Z" fill="white"/>
<path d="M323.614 790.199H315.576V568.5H323.614V790.199ZM316.82 788.955H322.37V569.744H316.82V788.955Z" fill="white"/>
<path d="M346.287 790.199H338.248V568.5H346.287V790.199ZM339.493 788.955H345.043V569.744H339.493V788.955Z" fill="white"/>
<path d="M368.96 790.199H360.921V568.5H368.96V790.199ZM362.165 788.955H367.715V569.744H362.165V788.955Z" fill="white"/>
<path d="M202.984 485.098H147.136V856.994H202.984V485.098Z" fill="#1266E3"/>
<path d="M147.136 856.996H115.952V485L147.136 485.1V856.996Z" fill="#002A9A"/>
<path d="M164.582 502.395H159.58V512.449H164.582V502.395Z" fill="#FEFFFF"/>
<path d="M173.367 502.395H168.365V512.449H173.367V502.395Z" fill="#FEFFFF"/>
<path d="M182.128 502.395H177.125V512.449H182.128V502.395Z" fill="#FEFFFF"/>
<path d="M190.888 502.395H185.886V512.449H190.888V502.395Z" fill="#FEFFFF"/>
<path d="M164.582 519.543H159.58V529.598H164.582V519.543Z" fill="#FEFFFF"/>
<path d="M173.367 519.543H168.365V529.598H173.367V519.543Z" fill="#FEFFFF"/>
<path d="M182.128 519.543H177.125V529.598H182.128V519.543Z" fill="#FEFFFF"/>
<path d="M190.888 519.543H185.886V529.598H190.888V519.543Z" fill="#FEFFFF"/>
<path d="M164.582 536.691H159.58V546.746H164.582V536.691Z" fill="#FEFFFF"/>
<path d="M173.367 536.691H168.365V546.746H173.367V536.691Z" fill="#FEFFFF"/>
<path d="M182.128 536.691H177.125V546.746H182.128V536.691Z" fill="#FEFFFF"/>
<path d="M190.888 536.691H185.886V546.746H190.888V536.691Z" fill="#FEFFFF"/>
<path d="M164.582 553.863H159.58V563.918H164.582V553.863Z" fill="#FEFFFF"/>
<path d="M173.367 553.863H168.365V563.918H173.367V553.863Z" fill="#FEFFFF"/>
<path d="M182.128 553.863H177.125V563.918H182.128V553.863Z" fill="#FEFFFF"/>
<path d="M190.888 553.863H185.886V563.918H190.888V553.863Z" fill="#FEFFFF"/>
<path d="M164.582 571.012H159.58V581.066H164.582V571.012Z" fill="#FEFFFF"/>
<path d="M173.367 571.012H168.365V581.066H173.367V571.012Z" fill="#FEFFFF"/>
<path d="M182.128 571.012H177.125V581.066H182.128V571.012Z" fill="#FEFFFF"/>
<path d="M190.888 571.012H185.886V581.066H190.888V571.012Z" fill="#FEFFFF"/>
<path d="M164.582 588.156H159.58V598.211H164.582V588.156Z" fill="#FEFFFF"/>
<path d="M173.367 588.156H168.365V598.211H173.367V588.156Z" fill="#FEFFFF"/>
<path d="M182.128 588.156H177.125V598.211H182.128V588.156Z" fill="#FEFFFF"/>
<path d="M190.888 588.156H185.886V598.211H190.888V588.156Z" fill="#FEFFFF"/>
<path d="M164.582 605.328H159.58V615.383H164.582V605.328Z" fill="#FEFFFF"/>
<path d="M173.367 605.328H168.365V615.383H173.367V605.328Z" fill="#FEFFFF"/>
<path d="M182.128 605.328H177.125V615.383H182.128V605.328Z" fill="#FEFFFF"/>
<path d="M190.888 605.328H185.886V615.383H190.888V605.328Z" fill="#FEFFFF"/>
<path d="M164.582 622.477H159.58V632.531H164.582V622.477Z" fill="#FEFFFF"/>
<path d="M173.367 622.477H168.365V632.531H173.367V622.477Z" fill="#FEFFFF"/>
<path d="M182.128 622.477H177.125V632.531H182.128V622.477Z" fill="#FEFFFF"/>
<path d="M190.888 622.477H185.886V632.531H190.888V622.477Z" fill="#FEFFFF"/>
<path d="M164.582 639.625H159.58V649.68H164.582V639.625Z" fill="#FEFFFF"/>
<path d="M173.367 639.625H168.365V649.68H173.367V639.625Z" fill="#FEFFFF"/>
<path d="M182.128 639.625H177.125V649.68H182.128V639.625Z" fill="#FEFFFF"/>
<path d="M190.888 639.625H185.886V649.68H190.888V639.625Z" fill="#FEFFFF"/>
<path d="M164.582 656.773H159.58V666.828H164.582V656.773Z" fill="#FEFFFF"/>
<path d="M173.367 656.773H168.365V666.828H173.367V656.773Z" fill="#FEFFFF"/>
<path d="M182.128 656.773H177.125V666.828H182.128V656.773Z" fill="#FEFFFF"/>
<path d="M190.888 656.773H185.886V666.828H190.888V656.773Z" fill="#FEFFFF"/>
<path d="M164.582 673.945H159.58V684H164.582V673.945Z" fill="#FEFFFF"/>
<path d="M173.367 673.945H168.365V684H173.367V673.945Z" fill="#FEFFFF"/>
<path d="M182.128 673.945H177.125V684H182.128V673.945Z" fill="#FEFFFF"/>
<path d="M190.888 673.945H185.886V684H190.888V673.945Z" fill="#FEFFFF"/>
<path d="M164.582 691.094H159.58V701.148H164.582V691.094Z" fill="#FEFFFF"/>
<path d="M173.367 691.094H168.365V701.148H173.367V691.094Z" fill="#FEFFFF"/>
<path d="M182.128 691.094H177.125V701.148H182.128V691.094Z" fill="#FEFFFF"/>
<path d="M190.888 691.094H185.886V701.148H190.888V691.094Z" fill="#FEFFFF"/>
<path d="M164.582 604.758H159.58V614.812H164.582V604.758Z" fill="#FEFFFF"/>
<path d="M173.367 604.758H168.365V614.812H173.367V604.758Z" fill="#FEFFFF"/>
<path d="M182.128 604.758H177.125V614.812H182.128V604.758Z" fill="#FEFFFF"/>
<path d="M190.888 604.758H185.886V614.812H190.888V604.758Z" fill="#FEFFFF"/>
<path d="M164.582 621.906H159.58V631.961H164.582V621.906Z" fill="#FEFFFF"/>
<path d="M173.367 621.906H168.365V631.961H173.367V621.906Z" fill="#FEFFFF"/>
<path d="M182.128 621.906H177.125V631.961H182.128V621.906Z" fill="#FEFFFF"/>
<path d="M190.888 621.906H185.886V631.961H190.888V621.906Z" fill="#FEFFFF"/>
<path d="M164.582 639.078H159.58V649.133H164.582V639.078Z" fill="#FEFFFF"/>
<path d="M173.367 639.078H168.365V649.133H173.367V639.078Z" fill="#FEFFFF"/>
<path d="M182.128 639.078H177.125V649.133H182.128V639.078Z" fill="#FEFFFF"/>
<path d="M190.888 639.078H185.886V649.133H190.888V639.078Z" fill="#FEFFFF"/>
<path d="M164.582 656.227H159.58V666.281H164.582V656.227Z" fill="#FEFFFF"/>
<path d="M173.367 656.227H168.365V666.281H173.367V656.227Z" fill="#FEFFFF"/>
<path d="M182.128 656.227H177.125V666.281H182.128V656.227Z" fill="#FEFFFF"/>
<path d="M190.888 656.227H185.886V666.281H190.888V656.227Z" fill="#FEFFFF"/>
<path d="M164.582 673.375H159.58V683.43H164.582V673.375Z" fill="#FEFFFF"/>
<path d="M173.367 673.375H168.365V683.43H173.367V673.375Z" fill="#FEFFFF"/>
<path d="M182.128 673.375H177.125V683.43H182.128V673.375Z" fill="#FEFFFF"/>
<path d="M190.888 673.375H185.886V683.43H190.888V673.375Z" fill="#FEFFFF"/>
<path d="M164.582 690.547H159.58V700.601H164.582V690.547Z" fill="#FEFFFF"/>
<path d="M173.367 690.547H168.365V700.601H173.367V690.547Z" fill="#FEFFFF"/>
<path d="M182.128 690.547H177.125V700.601H182.128V690.547Z" fill="#FEFFFF"/>
<path d="M190.888 690.547H185.886V700.601H190.888V690.547Z" fill="#FEFFFF"/>
<path d="M164.582 707.691H159.58V717.746H164.582V707.691Z" fill="#FEFFFF"/>
<path d="M173.367 707.691H168.365V717.746H173.367V707.691Z" fill="#FEFFFF"/>
<path d="M182.128 707.691H177.125V717.746H182.128V707.691Z" fill="#FEFFFF"/>
<path d="M190.888 707.691H185.886V717.746H190.888V707.691Z" fill="#FEFFFF"/>
<path d="M164.582 724.84H159.58V734.894H164.582V724.84Z" fill="#FEFFFF"/>
<path d="M173.367 724.84H168.365V734.894H173.367V724.84Z" fill="#FEFFFF"/>
<path d="M182.128 724.84H177.125V734.894H182.128V724.84Z" fill="#FEFFFF"/>
<path d="M190.888 724.84H185.886V734.894H190.888V724.84Z" fill="#FEFFFF"/>
<path d="M164.582 742.012H159.58V752.066H164.582V742.012Z" fill="#FEFFFF"/>
<path d="M173.367 742.012H168.365V752.066H173.367V742.012Z" fill="#FEFFFF"/>
<path d="M182.128 742.012H177.125V752.066H182.128V742.012Z" fill="#FEFFFF"/>
<path d="M190.888 742.012H185.886V752.066H190.888V742.012Z" fill="#FEFFFF"/>
<path d="M164.582 759.16H159.58V769.215H164.582V759.16Z" fill="#FEFFFF"/>
<path d="M173.367 759.16H168.365V769.215H173.367V759.16Z" fill="#FEFFFF"/>
<path d="M182.128 759.16H177.125V769.215H182.128V759.16Z" fill="#FEFFFF"/>
<path d="M190.888 759.16H185.886V769.215H190.888V759.16Z" fill="#FEFFFF"/>
<path d="M164.582 776.309H159.58V786.363H164.582V776.309Z" fill="#FEFFFF"/>
<path d="M173.367 776.309H168.365V786.363H173.367V776.309Z" fill="#FEFFFF"/>
<path d="M182.128 776.309H177.125V786.363H182.128V776.309Z" fill="#FEFFFF"/>
<path d="M190.888 776.309H185.886V786.363H190.888V776.309Z" fill="#FEFFFF"/>
<path d="M164.582 793.457H159.58V803.512H164.582V793.457Z" fill="#FEFFFF"/>
<path d="M173.367 793.457H168.365V803.512H173.367V793.457Z" fill="#FEFFFF"/>
<path d="M182.128 793.457H177.125V803.512H182.128V793.457Z" fill="#FEFFFF"/>
<path d="M190.888 793.457H185.886V803.512H190.888V793.457Z" fill="#FEFFFF"/>
<path d="M110.153 783.377C122.821 778.25 128.147 779.295 130.561 781.685C135.887 786.936 127.798 799.504 133.97 805.502C138.251 809.658 143.975 805.403 150.969 810.604C156.294 814.561 154.801 818.394 159.48 820.808C166.2 824.292 172.272 817.871 178.196 820.808C180.883 822.152 184.094 825.711 184.99 836.114C183.646 839.324 176.752 854.805 159.48 861.624C143.801 867.796 125.533 864.461 111.87 853.112C111.298 829.842 110.725 806.622 110.153 783.377Z" fill="#3A95EE"/>
<path d="M121.327 630.219H75.982V870.584H121.327V630.219Z" fill="#5EC0FF"/>
<path d="M75.982 630.219H0V870.584H75.982V630.219Z" fill="#3891ED"/>
<path d="M75.982 630.219H0V639.178H75.982V630.219Z" fill="#012A94"/>
<path d="M121.327 630.219H75.982V639.178H121.327V630.219Z" fill="#1266E3"/>
<path d="M96.3899 646.098H92.0345V843.158H96.3899V646.098Z" fill="#3A95EE"/>
<path d="M107.739 646.098H103.383V843.158H107.739V646.098Z" fill="#3A95EE"/>
<path d="M813.478 926.63C824.677 917.87 840.68 905.899 860.715 892.882C860.715 892.882 890.68 873.42 920.594 858.313C992.246 822.127 1065.34 854.257 1182.39 820.907C1252.65 800.898 1291.45 773.695 1335.35 789.424C1344.41 792.66 1363.67 804.606 1391.59 805.178C1411.98 805.576 1428.8 800.176 1439.98 795.447C1439.98 827.204 1439.98 858.936 1439.98 890.692C1288.09 921.155 1114.05 940.144 922.436 933.275C885.179 931.931 848.843 929.666 813.478 926.63Z" fill="#5BBDFE"/>
<path d="M560.843 852.342C572.789 850.053 589.414 847.962 609.225 848.958C622.216 849.63 642.027 850.799 665.471 860.207C676.397 864.587 692.3 872.452 708.776 886.638C691.205 891.64 670.648 896.219 647.477 899.007C612.361 903.238 581.5 902.217 556.886 899.554C558.205 883.825 559.524 868.071 560.843 852.342Z" fill="#1467E1"/>
<path d="M574.781 750.426H528.39V906.123H574.781V750.426Z" fill="#3A95EE"/>
<path d="M498.923 876.283H528.39V750.426L498.923 750.799V876.283Z" fill="#1469DE"/>
<path d="M540.485 776.758H538.27V783.278H540.485V776.758Z" fill="#FEFFFF"/>
<path d="M548.997 776.758H546.782V783.278H548.997V776.758Z" fill="#FEFFFF"/>
<path d="M557.484 776.758H555.269V783.278H557.484V776.758Z" fill="#FEFFFF"/>
<path d="M565.995 776.758H563.78V783.278H565.995V776.758Z" fill="#FEFFFF"/>
<path d="M540.485 790.918H538.27V797.439H540.485V790.918Z" fill="#FEFFFF"/>
<path d="M548.997 790.918H546.782V797.439H548.997V790.918Z" fill="#FEFFFF"/>
<path d="M557.484 790.918H555.269V797.439H557.484V790.918Z" fill="#FEFFFF"/>
<path d="M565.995 790.918H563.78V797.439H565.995V790.918Z" fill="#FEFFFF"/>
<path d="M540.485 805.105H538.27V811.626H540.485V805.105Z" fill="#FEFFFF"/>
<path d="M548.997 805.105H546.782V811.626H548.997V805.105Z" fill="#FEFFFF"/>
<path d="M557.484 805.105H555.269V811.626H557.484V805.105Z" fill="#FEFFFF"/>
<path d="M565.995 805.105H563.78V811.626H565.995V805.105Z" fill="#FEFFFF"/>
<path d="M540.485 819.266H538.27V825.786H540.485V819.266Z" fill="#FEFFFF"/>
<path d="M548.997 819.266H546.782V825.786H548.997V819.266Z" fill="#FEFFFF"/>
<path d="M557.484 819.266H555.269V825.786H557.484V819.266Z" fill="#FEFFFF"/>
<path d="M565.995 819.266H563.78V825.786H565.995V819.266Z" fill="#FEFFFF"/>
<path d="M540.485 833.453H538.27V839.974H540.485V833.453Z" fill="#FEFFFF"/>
<path d="M548.997 833.453H546.782V839.974H548.997V833.453Z" fill="#FEFFFF"/>
<path d="M557.484 833.453H555.269V839.974H557.484V833.453Z" fill="#FEFFFF"/>
<path d="M565.995 833.453H563.78V839.974H565.995V833.453Z" fill="#FEFFFF"/>
<path d="M540.485 847.613H538.27V854.134H540.485V847.613Z" fill="#FEFFFF"/>
<path d="M548.997 847.613H546.782V854.134H548.997V847.613Z" fill="#FEFFFF"/>
<path d="M557.484 847.613H555.269V854.134H557.484V847.613Z" fill="#FEFFFF"/>
<path d="M565.995 847.613H563.78V854.134H565.995V847.613Z" fill="#FEFFFF"/>
<path d="M540.485 861.801H538.27V868.321H540.485V861.801Z" fill="#FEFFFF"/>
<path d="M548.997 861.801H546.782V868.321H548.997V861.801Z" fill="#FEFFFF"/>
<path d="M557.484 861.801H555.269V868.321H557.484V861.801Z" fill="#FEFFFF"/>
<path d="M565.995 861.801H563.78V868.321H565.995V861.801Z" fill="#FEFFFF"/>
<path d="M241.087 776.582C255.721 772.152 261.072 773.994 263.187 776.582C267.368 781.684 260.599 791.465 264.879 795.298C269.185 799.13 278.02 790.992 285.287 795.298C290.613 798.458 288.697 804.506 293.799 807.194C300.344 810.653 307.139 802.49 314.207 803.784C320.005 804.854 326.626 812.47 331.205 839.498C297.208 841.763 263.187 844.028 229.19 846.292C233.148 823.047 237.13 799.802 241.087 776.582Z" fill="#87D5FB"/>
<path d="M0 836.688C57.9634 839.475 118.515 843.83 181.381 850.152C258.956 857.942 332.524 867.946 401.836 879.395C267.941 910.778 134.045 942.161 0.149326 973.57C0.0995506 947.637 0.074663 921.679 0.0248877 895.746C0 876.06 0 856.374 0 836.688Z" fill="#1669E1"/>
<path d="M0 917.249C8.51158 908.414 22.8966 895.323 43.5036 884.571C57.1172 877.478 73.767 871.605 139.495 860.58C182.028 853.437 179.116 856.199 199.499 851.57C255.298 838.902 259.13 822.253 295.491 815.583C339.318 807.519 377.272 823.721 421.497 842.586C469.456 863.043 470.128 874.865 508.505 887.583C547.678 900.574 579.609 899.056 622.49 896.592C730.204 890.395 752.354 861.451 805.489 875.587C828.46 881.684 862.059 897.14 896.702 942.41C802.328 951.718 707.855 959.209 613.257 964.909C409.402 977.178 205.049 981.011 0.174214 976.456C0.124438 956.696 0.074663 936.985 0 917.249Z" fill="#5EC0FF"/>
<path d="M1317.73 671.906H1293.36V799.58H1317.73V671.906Z" fill="#1266E3"/>
<path d="M1071.12 785.367H926.991V855.501H1071.12V785.367Z" fill="#AFE5FF"/>
<path d="M1071.09 788.875H1032.69V855.524H1071.09V788.875Z" fill="#3A93FB"/>
<path d="M1032.71 785.367H926.991V793.356H1032.71V785.367Z" fill="#1469E8"/>
<path d="M1071.09 785.367H1032.69V793.356H1071.09V785.367Z" fill="#113BC1"/>
<path d="M1262.43 756.722C1270.02 750.624 1278.16 751.695 1281.14 756.672C1283.13 759.982 1282.54 764.462 1282.14 766.453C1282.64 766.154 1287.29 763.442 1292.17 766.453C1297.54 769.788 1298.17 777.005 1298.19 777.453C1301.43 769.091 1308.67 766.055 1313.25 768.892C1317.83 771.729 1318.25 779.519 1318.27 779.892C1323.25 774.741 1330.12 773.795 1335.32 777.453C1341.35 781.659 1342.24 789.947 1342.34 790.893C1343.51 784.646 1348.34 780.44 1353.37 781.112C1358.72 781.809 1362.8 787.782 1362.4 794.551C1366.95 794.974 1370.69 799.081 1371.43 804.332C1372.26 810.106 1369.27 816.004 1364.42 817.771C1369.72 817.174 1374.6 820.235 1376.46 825.113C1379 831.708 1375.89 841.365 1368.42 844.675C1334.65 847.935 1300.85 851.195 1267.08 854.456C1265.56 821.853 1263.99 789.275 1262.43 756.722Z" fill="#87D5FB"/>
<path d="M1261.85 639.453H1191.35V872.974H1261.85V639.453Z" fill="#3A93FB"/>
<path d="M1293.36 639.453H1261.85V856.897H1293.36V639.453Z" fill="#002A9A"/>
<path d="M1205.46 664.566H1202.97V670.564H1205.46V664.566Z" fill="#FEFFFF"/>
<path d="M1212.97 664.566H1210.49V670.564H1212.97V664.566Z" fill="#FEFFFF"/>
<path d="M1220.47 664.566H1217.98V670.564H1220.47V664.566Z" fill="#FEFFFF"/>
<path d="M1227.96 664.566H1225.47V670.564H1227.96V664.566Z" fill="#FEFFFF"/>
<path d="M1235.47 664.566H1232.98V670.564H1235.47V664.566Z" fill="#FEFFFF"/>
<path d="M1242.96 664.566H1240.48V670.564H1242.96V664.566Z" fill="#FEFFFF"/>
<path d="M1250.46 664.566H1247.97V670.564H1250.46V664.566Z" fill="#FEFFFF"/>
<path d="M1205.46 679.57H1202.97V685.568H1205.46V679.57Z" fill="#FEFFFF"/>
<path d="M1212.97 679.57H1210.49V685.568H1212.97V679.57Z" fill="#FEFFFF"/>
<path d="M1220.47 679.57H1217.98V685.568H1220.47V679.57Z" fill="#FEFFFF"/>
<path d="M1227.96 679.57H1225.47V685.568H1227.96V679.57Z" fill="#FEFFFF"/>
<path d="M1235.47 679.57H1232.98V685.568H1235.47V679.57Z" fill="#FEFFFF"/>
<path d="M1242.96 679.57H1240.48V685.568H1242.96V679.57Z" fill="#FEFFFF"/>
<path d="M1250.46 679.57H1247.97V685.568H1250.46V679.57Z" fill="#FEFFFF"/>
<path d="M1205.46 694.578H1202.97V700.576H1205.46V694.578Z" fill="#FEFFFF"/>
<path d="M1212.97 694.578H1210.49V700.576H1212.97V694.578Z" fill="#FEFFFF"/>
<path d="M1220.47 694.578H1217.98V700.576H1220.47V694.578Z" fill="#FEFFFF"/>
<path d="M1227.96 694.578H1225.47V700.576H1227.96V694.578Z" fill="#FEFFFF"/>
<path d="M1235.47 694.578H1232.98V700.576H1235.47V694.578Z" fill="#FEFFFF"/>
<path d="M1242.96 694.578H1240.48V700.576H1242.96V694.578Z" fill="#FEFFFF"/>
<path d="M1250.46 694.578H1247.97V700.576H1250.46V694.578Z" fill="#FEFFFF"/>
<path d="M1205.46 709.562H1202.97V715.56H1205.46V709.562Z" fill="#FEFFFF"/>
<path d="M1212.97 709.562H1210.49V715.56H1212.97V709.562Z" fill="#FEFFFF"/>
<path d="M1220.47 709.562H1217.98V715.56H1220.47V709.562Z" fill="#FEFFFF"/>
<path d="M1227.96 709.562H1225.47V715.56H1227.96V709.562Z" fill="#FEFFFF"/>
<path d="M1235.47 709.562H1232.98V715.56H1235.47V709.562Z" fill="#FEFFFF"/>
<path d="M1242.96 709.562H1240.48V715.56H1242.96V709.562Z" fill="#FEFFFF"/>
<path d="M1250.46 709.562H1247.97V715.56H1250.46V709.562Z" fill="#FEFFFF"/>
<path d="M1205.46 724.57H1202.97V730.568H1205.46V724.57Z" fill="#FEFFFF"/>
<path d="M1212.97 724.57H1210.49V730.568H1212.97V724.57Z" fill="#FEFFFF"/>
<path d="M1220.47 724.57H1217.98V730.568H1220.47V724.57Z" fill="#FEFFFF"/>
<path d="M1227.96 724.57H1225.47V730.568H1227.96V724.57Z" fill="#FEFFFF"/>
<path d="M1235.47 724.57H1232.98V730.568H1235.47V724.57Z" fill="#FEFFFF"/>
<path d="M1242.96 724.57H1240.48V730.568H1242.96V724.57Z" fill="#FEFFFF"/>
<path d="M1250.46 724.57H1247.97V730.568H1250.46V724.57Z" fill="#FEFFFF"/>
<path d="M1205.46 739.578H1202.97V745.576H1205.46V739.578Z" fill="#FEFFFF"/>
<path d="M1212.97 739.578H1210.49V745.576H1212.97V739.578Z" fill="#FEFFFF"/>
<path d="M1220.47 739.578H1217.98V745.576H1220.47V739.578Z" fill="#FEFFFF"/>
<path d="M1227.96 739.578H1225.47V745.576H1227.96V739.578Z" fill="#FEFFFF"/>
<path d="M1235.47 739.578H1232.98V745.576H1235.47V739.578Z" fill="#FEFFFF"/>
<path d="M1242.96 739.578H1240.48V745.576H1242.96V739.578Z" fill="#FEFFFF"/>
<path d="M1250.46 739.578H1247.97V745.576H1250.46V739.578Z" fill="#FEFFFF"/>
<path d="M1205.46 754.559H1202.97V760.557H1205.46V754.559Z" fill="#FEFFFF"/>
<path d="M1212.97 754.559H1210.49V760.557H1212.97V754.559Z" fill="#FEFFFF"/>
<path d="M1220.47 754.559H1217.98V760.557H1220.47V754.559Z" fill="#FEFFFF"/>
<path d="M1227.96 754.559H1225.47V760.557H1227.96V754.559Z" fill="#FEFFFF"/>
<path d="M1235.47 754.559H1232.98V760.557H1235.47V754.559Z" fill="#FEFFFF"/>
<path d="M1242.96 754.559H1240.48V760.557H1242.96V754.559Z" fill="#FEFFFF"/>
<path d="M1250.46 754.559H1247.97V760.557H1250.46V754.559Z" fill="#FEFFFF"/>
<path d="M1205.46 769.566H1202.97V775.564H1205.46V769.566Z" fill="#FEFFFF"/>
<path d="M1212.97 769.566H1210.49V775.564H1212.97V769.566Z" fill="#FEFFFF"/>
<path d="M1220.47 769.566H1217.98V775.564H1220.47V769.566Z" fill="#FEFFFF"/>
<path d="M1227.96 769.566H1225.47V775.564H1227.96V769.566Z" fill="#FEFFFF"/>
<path d="M1235.47 769.566H1232.98V775.564H1235.47V769.566Z" fill="#FEFFFF"/>
<path d="M1242.96 769.566H1240.48V775.564H1242.96V769.566Z" fill="#FEFFFF"/>
<path d="M1250.46 769.566H1247.97V775.564H1250.46V769.566Z" fill="#FEFFFF"/>
<path d="M1205.46 784.574H1202.97V790.572H1205.46V784.574Z" fill="#FEFFFF"/>
<path d="M1212.97 784.574H1210.49V790.572H1212.97V784.574Z" fill="#FEFFFF"/>
<path d="M1220.47 784.574H1217.98V790.572H1220.47V784.574Z" fill="#FEFFFF"/>
<path d="M1227.96 784.574H1225.47V790.572H1227.96V784.574Z" fill="#FEFFFF"/>
<path d="M1235.47 784.574H1232.98V790.572H1235.47V784.574Z" fill="#FEFFFF"/>
<path d="M1242.96 784.574H1240.48V790.572H1242.96V784.574Z" fill="#FEFFFF"/>
<path d="M1250.46 784.574H1247.97V790.572H1250.46V784.574Z" fill="#FEFFFF"/>
<path d="M1205.46 799.555H1202.97V805.553H1205.46V799.555Z" fill="#FEFFFF"/>
<path d="M1212.97 799.555H1210.49V805.553H1212.97V799.555Z" fill="#FEFFFF"/>
<path d="M1220.47 799.555H1217.98V805.553H1220.47V799.555Z" fill="#FEFFFF"/>
<path d="M1227.96 799.555H1225.47V805.553H1227.96V799.555Z" fill="#FEFFFF"/>
<path d="M1235.47 799.555H1232.98V805.553H1235.47V799.555Z" fill="#FEFFFF"/>
<path d="M1242.96 799.555H1240.48V805.553H1242.96V799.555Z" fill="#FEFFFF"/>
<path d="M1250.46 799.555H1247.97V805.553H1250.46V799.555Z" fill="#FEFFFF"/>
<path d="M1205.46 814.562H1202.97V820.56H1205.46V814.562Z" fill="#FEFFFF"/>
<path d="M1212.97 814.562H1210.49V820.56H1212.97V814.562Z" fill="#FEFFFF"/>
<path d="M1220.47 814.562H1217.98V820.56H1220.47V814.562Z" fill="#FEFFFF"/>
<path d="M1227.96 814.562H1225.47V820.56H1227.96V814.562Z" fill="#FEFFFF"/>
<path d="M1235.47 814.562H1232.98V820.56H1235.47V814.562Z" fill="#FEFFFF"/>
<path d="M1242.96 814.562H1240.48V820.56H1242.96V814.562Z" fill="#FEFFFF"/>
<path d="M1250.46 814.562H1247.97V820.56H1250.46V814.562Z" fill="#FEFFFF"/>
<path d="M1205.46 829.57H1202.97V835.568H1205.46V829.57Z" fill="#FEFFFF"/>
<path d="M1212.97 829.57H1210.49V835.568H1212.97V829.57Z" fill="#FEFFFF"/>
<path d="M1220.47 829.57H1217.98V835.568H1220.47V829.57Z" fill="#FEFFFF"/>
<path d="M1227.96 829.57H1225.47V835.568H1227.96V829.57Z" fill="#FEFFFF"/>
<path d="M1235.47 829.57H1232.98V835.568H1235.47V829.57Z" fill="#FEFFFF"/>
<path d="M1242.96 829.57H1240.48V835.568H1242.96V829.57Z" fill="#FEFFFF"/>
<path d="M1250.46 829.57H1247.97V835.568H1250.46V829.57Z" fill="#FEFFFF"/>
<path d="M220.554 702.793H163.86V856.997H220.554V702.793Z" fill="#01289D"/>
<path d="M246.064 702.793H189.37V856.997H246.064V702.793Z" fill="#FEFFFF"/>
<path d="M208.011 714.516H198.828V718.423H208.011V714.516Z" fill="#3A93FB"/>
<path d="M223.018 714.516H213.835V718.423H223.018V714.516Z" fill="#3A93FB"/>
<path d="M238.05 714.516H228.867V718.423H238.05V714.516Z" fill="#3A93FB"/>
<path d="M208.011 729.523H198.828V733.431H208.011V729.523Z" fill="#3A93FB"/>
<path d="M223.018 729.523H213.835V733.431H223.018V729.523Z" fill="#3A93FB"/>
<path d="M238.05 729.523H228.867V733.431H238.05V729.523Z" fill="#3A93FB"/>
<path d="M208.011 744.504H198.828V748.411H208.011V744.504Z" fill="#3A93FB"/>
<path d="M223.018 744.504H213.835V748.411H223.018V744.504Z" fill="#3A93FB"/>
<path d="M238.05 744.504H228.867V748.411H238.05V744.504Z" fill="#3A93FB"/>
<path d="M208.011 759.512H198.828V763.419H208.011V759.512Z" fill="#3A93FB"/>
<path d="M223.018 759.512H213.835V763.419H223.018V759.512Z" fill="#3A93FB"/>
<path d="M238.05 759.512H228.867V763.419H238.05V759.512Z" fill="#3A93FB"/>
<path d="M208.011 774.52H198.828V778.427H208.011V774.52Z" fill="#3A93FB"/>
<path d="M223.018 774.52H213.835V778.427H223.018V774.52Z" fill="#3A93FB"/>
<path d="M238.05 774.52H228.867V778.427H238.05V774.52Z" fill="#3A93FB"/>
<path d="M208.011 789.504H198.828V793.411H208.011V789.504Z" fill="#3A93FB"/>
<path d="M223.018 789.504H213.835V793.411H223.018V789.504Z" fill="#3A93FB"/>
<path d="M238.05 789.504H228.867V793.411H238.05V789.504Z" fill="#3A93FB"/>
<path d="M208.011 804.508H198.828V808.415H208.011V804.508Z" fill="#3A93FB"/>
<path d="M223.018 804.508H213.835V808.415H223.018V804.508Z" fill="#3A93FB"/>
<path d="M238.05 804.508H228.867V808.415H238.05V804.508Z" fill="#3A93FB"/>
<path d="M208.011 819.516H198.828V823.423H208.011V819.516Z" fill="#3A93FB"/>
<path d="M223.018 819.516H213.835V823.423H223.018V819.516Z" fill="#3A93FB"/>
<path d="M238.05 819.516H228.867V823.423H238.05V819.516Z" fill="#3A93FB"/>
<path d="M208.011 834.5H198.828V838.407H208.011V834.5Z" fill="#3A93FB"/>
<path d="M223.018 834.5H213.835V838.407H223.018V834.5Z" fill="#3A93FB"/>
<path d="M238.05 834.5H228.867V838.407H238.05V834.5Z" fill="#3A93FB"/>
<path d="M984.382 801.149C982.341 801.224 981.072 806.998 978.757 817.451C977.065 825.116 976.816 829.87 976.517 836.565C976.069 846.544 976.99 849.033 978.757 850.626C980.574 852.244 983.635 853.264 986.074 852.318C991.524 850.203 991.624 839.103 991.699 832.632C991.823 817.824 987.891 801 984.382 801.149Z" fill="#113BC1"/>
<path d="M984.855 868.074C984.431 868.074 984.108 867.75 984.108 867.327V825.317C984.108 824.894 984.431 824.57 984.855 824.57C985.278 824.57 985.601 824.894 985.601 825.317V867.327C985.601 867.75 985.278 868.074 984.855 868.074Z" fill="#0A377A"/>
<path d="M953.62 850.202C952.501 849.38 949.439 846.618 951.978 828.027C952.924 821.133 955.014 805.777 957.727 805.852C959.17 805.902 960.34 812.995 962.655 827.205C965.392 844.129 965.268 848.161 962.655 850.202C960.241 852.093 956.109 851.994 953.62 850.202Z" fill="#146AE3"/>
<path d="M957.105 868.07C956.682 868.07 956.358 867.746 956.358 867.323V834.969C956.358 834.546 956.682 834.223 957.105 834.223C957.528 834.223 957.851 834.546 957.851 834.969V867.323C957.851 867.746 957.528 868.07 957.105 868.07Z" fill="#0A377A"/>
<path d="M1006.31 807.344C1004.07 807.394 1002.77 817.697 1001.8 825.338C1000.16 838.279 999.016 847.488 1003.5 850.076C1006.11 851.594 1010.24 850.599 1012.5 848.384C1014.32 846.617 1015.57 843.456 1011.93 825.885C1009.47 813.865 1008.12 807.294 1006.31 807.344Z" fill="#146AE3"/>
<path d="M1007.73 868.071C1007.3 868.071 1006.98 867.747 1006.98 867.324V833.751C1006.98 833.327 1007.3 833.004 1007.73 833.004C1008.15 833.004 1008.47 833.327 1008.47 833.751V867.324C1008.47 867.747 1008.15 868.071 1007.73 868.071Z" fill="#0A377A"/>
<path d="M1075.45 915.284C1074.18 884.298 1072.88 853.313 1071.61 822.328C1068 822.851 1065.29 823.971 1063.62 824.817C1060.64 826.335 1057.35 827.978 1055.88 831.561C1054.84 834.075 1055.11 836.489 1055.39 837.808C1053.62 837.385 1050.93 836.863 1047.65 836.813C1042.47 836.738 1037.47 836.614 1033.91 839.824C1029.18 844.08 1030 851.496 1030.15 852.691C1023.83 853.064 1018.45 856.474 1016.41 861.576C1015.02 865.01 1015.54 868.221 1015.91 869.814C1014.65 870.038 1012.38 870.61 1010.17 872.303C1009.54 872.775 1005.19 876.285 1005.16 882.307C1005.14 888.604 1009.92 892.213 1010.41 892.561C1004.47 892.885 1000.48 898.211 1001.26 902.889C1002.05 907.718 1007.8 911.525 1013.62 909.634C1008.15 914.661 1005.88 918.419 1006.88 920.883C1009.29 927.105 1032.17 925.239 1075.45 915.284Z" fill="#113BC1"/>
<path d="M1166.19 755.23H1071.19V911.401H1166.19V755.23Z" fill="#146AE3"/>
<path d="M1159.89 901.396H1191.35V755.23H1159.89V901.396Z" fill="#002A9A"/>
<path d="M1131.17 779.047H1122.78V793.034H1131.17V779.047Z" fill="#87D5FB"/>
<path d="M1146.7 779.047H1138.31V793.034H1146.7V779.047Z" fill="#87D5FB"/>
<path d="M1109.42 777.18H1085.8V785.766H1109.42V777.18Z" fill="#87D5FB"/>
<path d="M1131.17 806.996H1122.78V820.983H1131.17V806.996Z" fill="#87D5FB"/>
<path d="M1146.7 806.996H1138.31V820.983H1146.7V806.996Z" fill="#87D5FB"/>
<path d="M1109.42 805.152H1085.8V813.739H1109.42V805.152Z" fill="#87D5FB"/>
<path d="M1109.42 833.102H1085.8V841.688H1109.42V833.102Z" fill="#87D5FB"/>
<path d="M1131.17 834.969H1122.78V848.956H1131.17V834.969Z" fill="#87D5FB"/>
<path d="M1146.7 834.969H1138.31V848.956H1146.7V834.969Z" fill="#87D5FB"/>
<path d="M1109.42 861.051H1085.8V869.637H1109.42V861.051Z" fill="#87D5FB"/>
<path d="M1131.17 862.918H1122.78V876.905H1131.17V862.918Z" fill="#87D5FB"/>
<path d="M1146.7 862.918H1138.31V876.905H1146.7V862.918Z" fill="#87D5FB"/>
<path d="M1101.48 776.309H1099.74V875.561H1101.48V776.309Z" fill="#146AE3"/>
<path d="M121.352 814.113C117.943 817.05 112.716 822.326 109.033 830.365C105.997 836.96 101.965 845.77 106.221 853.336C108.908 858.09 114.508 861.674 120.78 861.748C126.778 861.798 132.552 858.662 135.339 853.909C139.869 846.193 135.19 836.512 131.407 828.697C128.171 821.953 124.214 817.125 121.352 814.113Z" fill="#FEFFFF"/>
<path d="M120.805 893.105C120.456 893.105 120.182 892.831 120.182 892.483V835.341C120.182 834.993 120.456 834.719 120.805 834.719C121.153 834.719 121.427 834.993 121.427 835.341V892.483C121.427 892.831 121.153 893.105 120.805 893.105Z" fill="#0A377A"/>
<path d="M161.063 824C156.832 827.634 150.361 834.179 145.782 844.134C142.024 852.322 136.997 863.248 142.298 872.606C145.633 878.479 152.576 882.934 160.366 883.034C167.783 883.108 174.975 879.201 178.435 873.302C184.034 863.746 178.236 851.725 173.582 842.044C169.525 833.681 164.597 827.708 161.063 824Z" fill="#113BC1"/>
<path d="M160.366 943.786C159.943 943.786 159.62 943.463 159.62 943.039V857.501C159.62 857.077 159.943 856.754 160.366 856.754C160.789 856.754 161.113 857.077 161.113 857.501V943.039C161.113 943.463 160.789 943.786 160.366 943.786Z" fill="#0A377A"/>
<path d="M30.5399 821C29.0217 822.742 26.7072 825.853 25.0646 830.607C23.7207 834.514 21.9288 839.716 23.8202 844.17C25.0148 846.983 27.5036 849.098 30.291 849.123C32.954 849.148 35.5174 847.306 36.7618 844.494C38.7777 839.94 36.6871 834.215 35.0197 829.611C33.5762 825.604 31.8092 822.767 30.5399 821Z" fill="#113BC1"/>
<path d="M30.291 868.063C29.8679 868.063 29.5444 867.739 29.5444 867.316V833.544C29.5444 833.12 29.8679 832.797 30.291 832.797C30.7141 832.797 31.0377 833.12 31.0377 833.544V867.316C31.0377 867.714 30.7141 868.063 30.291 868.063Z" fill="#0A377A"/>
<path d="M1191.37 682.559H1128.95V755.231H1191.37V682.559Z" fill="#AAE9FA"/>
<path d="M1177.88 682.559H1128.95V755.206H1177.88V682.559Z" fill="#FFFEFF"/>
<path d="M1171.49 689.578H1133.61V691.32H1171.49V689.578Z" fill="#23A0E0"/>
<path d="M1171.49 697.066H1133.61V698.809H1171.49V697.066Z" fill="#23A0E0"/>
<path d="M1171.49 704.559H1133.61V706.301H1171.49V704.559Z" fill="#23A0E0"/>
<path d="M1171.49 712.074H1133.61V713.816H1171.49V712.074Z" fill="#23A0E0"/>
<path d="M1171.49 719.566H1133.61V721.309H1171.49V719.566Z" fill="#23A0E0"/>
<path d="M1171.49 727.059H1133.61V728.801H1171.49V727.059Z" fill="#23A0E0"/>
<path d="M1171.49 734.574H1133.61V736.316H1171.49V734.574Z" fill="#23A0E0"/>
<path d="M1171.49 742.066H1133.61V743.809H1171.49V742.066Z" fill="#23A0E0"/>
<path d="M1171.49 749.555H1133.61V751.297H1171.49V749.555Z" fill="#23A0E0"/>
<path d="M1047.42 888.403C1056.73 888.005 1066.04 887.507 1075.35 887.084C1141.52 883.973 1204.04 865.456 1218.38 861.425C1259.42 849.852 1326.51 838.08 1439.95 838.578C1439.95 900.399 1439.95 962.245 1439.95 1024.07C1282.86 1023.84 1125.77 1023.59 968.678 1023.37C935.104 1012.32 912.854 984.793 912.431 955.873C912.083 930.413 928.708 907.89 946.826 897.313C961.535 888.751 970.917 891.638 1047.42 888.403Z" fill="#3A95EE"/>
<path d="M528.664 944.524C521.82 938.85 511.964 931.209 499.421 923.146C483.741 913.066 465.648 901.444 439.79 893.903C421.945 888.676 396.908 881.011 368.91 889.398C351.09 894.749 354.848 898.233 340.787 901.767C305.496 910.652 289.543 886.735 264.282 897.263C247.11 904.43 251.963 916.526 231.654 925.386C211.694 934.096 199.798 925.56 182.153 934.395C168.241 941.339 160.55 954.181 156.27 963.638C265.402 962.891 374.534 962.145 483.667 961.398C498.649 955.773 513.656 950.149 528.664 944.524Z" fill="#1969E2"/>
<path d="M0 976.63C108.411 976.68 216.821 976.755 325.232 976.804C324.187 963.863 320.777 946.666 308.632 940.045C298.179 934.371 291.26 941.962 274.884 940.792C246.861 938.776 242.331 914.735 209.629 904.804C191.809 899.379 191.386 905.974 164.632 902.565C143.502 899.852 93.4283 878.075 91.1386 877.055C72.7217 868.991 44.0263 863.018 0.0248877 874.218C0 908.363 0 942.509 0 976.63Z" fill="#3A95EE"/>
<path d="M244.695 927.778C243.899 926.558 241.087 922.252 240.987 916.105C240.863 908.614 244.87 904.508 243.999 898.111C243.526 894.627 242.157 894.403 242.132 891.292C242.132 887.036 244.745 886.14 245.392 881.088C245.94 876.658 244.223 874.966 243.999 869.416C243.725 862.447 245.94 852.891 249.573 851.422C252.46 850.252 255.746 854.384 256.99 859.685C258.657 866.778 255.795 872.378 257.911 879.62C258.956 883.204 260.325 884.174 260.474 887.883C260.599 891.491 259.354 892.337 259.305 895.672C259.23 901.521 262.963 903.089 263.71 909.286C264.581 916.653 260.474 924.443 260.001 925.339C255.945 932.855 249.101 934.547 244.695 927.778Z" fill="#113BC1"/>
<path d="M251.49 961.276C251.067 961.276 250.743 960.952 250.743 960.529V874.567C250.743 874.144 251.067 873.82 251.49 873.82C251.913 873.82 252.236 874.144 252.236 874.567V960.529C252.236 960.927 251.913 961.276 251.49 961.276Z" fill="#0A377A"/>
<path d="M176.653 950.647C174.587 950.497 170.107 950.149 165.702 947.138C163.412 945.57 160.749 943.778 159.903 940.692C158.285 934.793 165.304 931.458 163.761 925.884C162.616 921.702 158.086 921.379 157.315 916.227C157.215 915.505 156.966 913.34 157.962 911.075C160.102 906.172 165.179 907.143 167.618 903.335C170.804 898.358 164.283 893.181 166.971 885.939C168.838 880.912 174.388 877.054 177.275 878.199C180.062 879.319 180.386 885.118 180.485 887.208C180.809 893.38 178.395 895.172 179.838 898.159C181.406 901.394 184.666 900.125 188.848 903.957C191.734 906.596 195.045 911.648 193.999 916.202C192.954 920.757 188.25 921.951 188.848 924.564C189.42 927.078 193.875 926.381 196.588 929.716C199.425 933.225 198.827 939.323 196.588 943.23C191.859 951.667 179.216 950.821 176.653 950.647Z" fill="#D0F7F7"/>
<path d="M178.171 972.798C177.748 972.798 177.424 972.474 177.424 972.051V922.649C177.424 922.226 177.748 921.902 178.171 921.902C178.594 921.902 178.917 922.226 178.917 922.649V972.051C178.917 972.474 178.569 972.798 178.171 972.798Z" fill="#0A377A"/>
<path d="M217.767 937.059C214.233 936.561 208.26 934.396 206.891 929.816C205.199 924.117 212.615 921.305 212.939 912.893C213.237 905.003 206.866 903.535 206.891 895.372C206.916 888.652 211.271 880.862 218.364 878.448C223.914 876.582 231.53 877.876 232.874 881.46C234.716 886.412 222.993 891.066 223.815 898.981C224.536 905.999 234.193 906.546 236.507 915.904C238.175 922.723 234.566 928.473 234.093 929.194C230.883 934.147 224.561 938.029 217.767 937.059Z" fill="#E7FFF7"/>
<path d="M221.226 970.185C220.803 970.185 220.48 969.862 220.48 969.439V914.86C220.48 914.437 220.803 914.113 221.226 914.113C221.65 914.113 221.973 914.437 221.973 914.86V969.439C221.973 969.837 221.65 970.185 221.226 970.185Z" fill="#0A377A"/>
<path d="M1268.42 874.269C1268.82 873.099 1269.3 871.084 1268.42 869.217C1266.93 865.982 1262.03 864.215 1256.6 865.832C1256.2 865.185 1252 858.366 1244.23 857.968C1240.2 857.769 1237.14 859.386 1235.8 860.208C1232.41 855.603 1226.76 853.214 1221.16 854.011C1213 855.205 1209.57 862.522 1209.34 863.02C1204.66 859.237 1200.23 857.594 1197.52 856.823C1193.49 855.703 1185.1 853.339 1180.07 857.943C1177.76 860.058 1176.99 862.92 1176.69 864.687C1172.31 862.597 1167.6 862.92 1165.44 865.26C1162.58 868.371 1163.35 875.937 1169.94 880.441C1202.8 878.401 1235.62 876.335 1268.42 874.269Z" fill="#87D5FB"/>
<path d="M1325.79 891.392C1324 891.268 1320.09 890.969 1316.23 888.331C1314.24 886.962 1311.9 885.394 1311.18 882.706C1309.76 877.555 1315.91 874.643 1314.57 869.765C1313.57 866.131 1309.61 865.833 1308.94 861.328C1308.84 860.706 1308.64 858.814 1309.51 856.823C1311.38 852.543 1315.84 853.389 1317.95 850.079C1320.74 845.723 1315.04 841.219 1317.38 834.897C1319.02 830.492 1323.85 827.132 1326.39 828.153C1328.83 829.123 1329.1 834.2 1329.2 836.017C1329.5 841.418 1327.36 842.986 1328.63 845.574C1330 848.386 1332.86 847.291 1336.49 850.626C1339.01 852.941 1341.89 857.321 1341 861.303C1340.1 865.285 1335.97 866.33 1336.49 868.62C1336.99 870.81 1340.87 870.188 1343.24 873.125C1345.7 876.186 1345.2 881.512 1343.24 884.946C1339.06 892.288 1328.03 891.542 1325.79 891.392Z" fill="#E7FFF7"/>
<path d="M1327.11 910.831C1326.69 910.831 1326.36 910.507 1326.36 910.084V866.954C1326.36 866.531 1326.69 866.207 1327.11 866.207C1327.53 866.207 1327.86 866.531 1327.86 866.954V910.084C1327.86 910.482 1327.51 910.831 1327.11 910.831Z" fill="#0A377A"/>
<path d="M1403.99 873.446C1403.09 872.052 1399.86 867.125 1399.73 860.106C1399.58 851.545 1404.16 846.841 1403.19 839.524C1402.67 835.517 1401.08 835.268 1401.08 831.734C1401.08 826.856 1404.06 825.861 1404.78 820.062C1405.41 814.985 1403.44 813.069 1403.19 806.722C1402.87 798.758 1405.43 787.832 1409.56 786.14C1412.87 784.796 1416.63 789.525 1418.05 795.597C1419.97 803.711 1416.68 810.107 1419.12 818.394C1420.31 822.501 1421.88 823.621 1422.03 827.852C1422.18 831.958 1420.76 832.929 1420.71 836.762C1420.61 843.456 1424.92 845.248 1425.76 852.341C1426.78 860.778 1422.08 869.663 1421.51 870.683C1416.88 879.245 1409.04 881.161 1403.99 873.446Z" fill="#B1E4FF"/>
<path d="M1411.78 911.622C1411.35 911.622 1411.03 911.299 1411.03 910.876V812.594C1411.03 812.171 1411.35 811.848 1411.78 811.848C1412.2 811.848 1412.52 812.171 1412.52 812.594V910.876C1412.52 911.274 1412.2 911.622 1411.78 911.622Z" fill="#0A377A"/>
<path d="M1370.51 888.626C1365.76 889.721 1359.81 887.556 1356.83 882.056C1354.14 877.128 1354.39 870.583 1356.4 866.377C1358.04 862.917 1360.09 862.693 1360.68 859.284C1361.35 855.501 1359.14 853.958 1359.84 850.175C1360.41 847.014 1363.1 847.437 1364.96 843.604C1367.58 838.229 1363.84 833.575 1366.11 831.708C1368.05 830.115 1373.2 831.509 1375.12 834.72C1377.53 838.726 1372.41 841.589 1373.62 848.98C1374.37 853.51 1377.28 858.238 1380.64 863.714C1381.51 865.157 1381.49 864.958 1381.66 865.381C1384.48 872.026 1379.72 886.486 1370.51 888.626Z" fill="#113BC1"/>
<path d="M1368.65 914.234C1368.22 914.234 1367.9 913.911 1367.9 913.488V875.36C1367.9 874.937 1368.22 874.613 1368.65 874.613C1369.07 874.613 1369.39 874.937 1369.39 875.36V913.488C1369.39 913.911 1369.07 914.234 1368.65 914.234Z" fill="#0A377A"/>
<path d="M1066.78 976.804C1191.17 976.878 1315.59 976.978 1439.98 977.052C1439.98 952.588 1439.98 928.148 1439.98 903.684C1422.08 908.462 1408.92 912.444 1400.06 915.281C1396.89 916.277 1390.97 918.044 1381.09 921.329C1370.31 924.938 1367.23 926.282 1360.98 927.65C1331.37 934.196 1316.48 922.573 1288.41 919.786C1252.2 916.152 1249.98 932.777 1204.66 938.925C1141.32 947.486 1096.03 909.209 1049.46 938.925C1041.8 943.802 1031.67 952.638 1023.38 969.711C1037.84 972.05 1052.3 974.439 1066.78 976.804Z" fill="#B1E4FF"/>
<path d="M155.623 976.705C462.064 976.78 768.481 976.829 1074.92 976.904C938.489 924.466 824.951 909.434 767.187 913.017C698.323 917.298 651.385 935.566 651.385 935.566C627.418 944.899 628.837 945.272 615.397 950.573C574.009 966.874 551.063 940.966 492.402 941.564C451.562 941.987 457.759 955.102 411.393 956.571C373.365 957.765 360.772 949.627 318.388 950.573C286.009 951.295 263.162 956.72 249.399 959.582C243.053 960.901 242.555 963.539 236.756 965.381C228.12 968.119 210.002 967.447 210.002 967.447C199.997 965.879 183.596 966.625 155.623 976.705Z" fill="#1C4CC4"/>
<path d="M0 976.953C0 949.875 0 922.773 0 895.695C8.53647 888.826 20.5572 888.975 28.2973 895.62C34.9174 901.32 37.3564 910.901 34.2952 919.612C49.7753 911.25 64.7079 912.743 69.9094 920.184C70.8303 921.503 72.9457 925.112 71.776 932.006C72.7715 930.986 77.1517 926.705 83.2243 926.954C90.4418 927.228 97.2361 933.798 98.6049 943.081C100.447 942.26 103.508 941.19 107.365 941.214C109.829 941.214 116.574 941.239 121.103 946.466C125.732 951.817 124.662 958.711 124.488 959.781C129.117 956.421 135.14 955.973 139.67 958.661C145.394 962.045 147.858 969.935 144.722 976.854C96.4895 976.854 48.2572 976.903 0 976.953Z" fill="#113BC1"/>
<path d="M1318.17 962.845C1315.59 963.119 1310.48 963.641 1307.2 960.282C1303.59 956.598 1303.94 950.103 1306.1 946.021C1308.29 941.865 1311.31 942.263 1312.33 938.704C1313.57 934.299 1309.36 932.208 1309.76 927.007C1310.14 922.104 1314.54 916.828 1319.64 916.405C1323.38 916.081 1326.24 918.495 1327.36 919.416C1331.86 923.174 1333.78 929.695 1332.78 935.045C1331.96 939.575 1329.77 940.272 1329.85 944.179C1329.95 948.485 1333.31 949.231 1333.13 952.591C1332.91 957.643 1325.02 962.148 1318.17 962.845Z" fill="#113BC1"/>
<path d="M1317.73 977.577C1317.3 977.577 1316.98 977.253 1316.98 976.83V933.7C1316.98 933.277 1317.3 932.953 1317.73 932.953C1318.15 932.953 1318.47 933.277 1318.47 933.7V976.83C1318.47 977.228 1318.15 977.577 1317.73 977.577Z" fill="#0A377A"/>
<path d="M1439.98 884.074C1439.98 905.254 1440 926.408 1440 947.588C1409.61 947.588 1379.22 947.563 1348.86 947.563C1349.33 946.293 1350.43 942.336 1352.87 940.196C1353.86 939.325 1355.85 937.632 1359.02 937.06C1362.43 936.463 1365.11 937.558 1366.16 938.056C1366.03 937.284 1365.91 936.139 1366.16 934.795C1366.9 930.614 1370.79 925.836 1375.69 926.035C1379.5 926.184 1381.96 929.245 1382.46 929.917C1382.48 928.548 1382.63 926.533 1383.21 924.168C1383.46 923.148 1384.35 919.962 1386.96 916.055C1389.23 912.695 1393.63 906.1 1401.03 904.93C1402.97 904.631 1404.63 904.781 1405.68 904.93C1405.75 903.835 1406 902.267 1406.8 900.55C1409.01 895.796 1414.89 891.292 1420.49 892.81C1423.65 893.656 1425.59 896.145 1426.51 897.563C1427.03 896.294 1427.73 894.95 1428.65 893.556C1432.19 888.206 1437.01 885.418 1439.98 884.074Z" fill="#113BC1"/>
</g>
<defs>
<clipPath id="clip0_437_21277">
<rect width="1440" height="518" fill="white" transform="translate(0 456)"/>
</clipPath>
</defs>
</svg>
