<svg width="343" height="44" viewBox="0 0 343 44" fill="none" xmlns="http://www.w3.org/2000/svg">
<g clip-path="url(#clip0_2791_29516)">
<rect x="0.5" y="0.5" width="342" height="43" rx="3.5" fill="white" stroke="#EAEAEA"/>
<path d="M97.4272 23.7044H100.607V25.4219H95V16.2881H97.4272V23.7044Z" fill="black"/>
<path d="M105.369 25.526C104.593 25.526 103.893 25.3742 103.268 25.0706C102.653 24.767 102.166 24.3333 101.806 23.7695C101.456 23.2057 101.281 22.5465 101.281 21.7918C101.281 21.0458 101.461 20.3909 101.821 19.8271C102.18 19.2546 102.672 18.8166 103.297 18.513C103.921 18.2094 104.622 18.0576 105.398 18.0576C106.173 18.0576 106.874 18.2094 107.498 18.513C108.123 18.8166 108.615 19.2546 108.974 19.8271C109.334 20.3909 109.514 21.0458 109.514 21.7918C109.514 22.5378 109.329 23.197 108.96 23.7695C108.601 24.3333 108.104 24.767 107.47 25.0706C106.845 25.3742 106.145 25.526 105.369 25.526ZM105.369 23.6004C105.833 23.6004 106.225 23.4442 106.547 23.132C106.878 22.8197 107.044 22.373 107.044 21.7918C107.044 21.2107 106.883 20.7639 106.561 20.4517C106.249 20.1394 105.861 19.9833 105.398 19.9833C104.924 19.9833 104.532 20.1394 104.219 20.4517C103.907 20.7553 103.751 21.202 103.751 21.7918C103.751 22.373 103.902 22.8197 104.205 23.132C104.517 23.4442 104.905 23.6004 105.369 23.6004Z" fill="black"/>
<path d="M113.811 18.0576C114.369 18.0576 114.857 18.1617 115.273 18.3699C115.699 18.5781 116.025 18.8513 116.252 19.1896V18.1617H118.68V25.4089C118.68 26.0768 118.533 26.6797 118.24 27.2175C117.956 27.7639 117.516 28.1976 116.92 28.5186C116.333 28.8395 115.599 29 114.719 29C113.546 29 112.595 28.7441 111.866 28.2323C111.138 27.7292 110.721 27.044 110.617 26.1766H113.016C113.092 26.4541 113.272 26.671 113.556 26.8271C113.839 26.9919 114.19 27.0743 114.606 27.0743C115.107 27.0743 115.505 26.9399 115.798 26.671C116.101 26.4108 116.252 25.9901 116.252 25.4089V24.381C116.016 24.7193 115.689 24.9969 115.273 25.2137C114.857 25.4219 114.369 25.526 113.811 25.526C113.158 25.526 112.567 25.3742 112.037 25.0706C111.507 24.7584 111.086 24.3203 110.774 23.7565C110.471 23.184 110.319 22.5248 110.319 21.7788C110.319 21.0328 110.471 20.3779 110.774 19.8141C111.086 19.2503 111.507 18.8166 112.037 18.513C112.567 18.2094 113.158 18.0576 113.811 18.0576ZM116.252 21.7918C116.252 21.2367 116.082 20.7986 115.741 20.4777C115.41 20.1567 115.003 19.9963 114.521 19.9963C114.038 19.9963 113.627 20.1567 113.286 20.4777C112.955 20.79 112.789 21.2237 112.789 21.7788C112.789 22.3339 112.955 22.7763 113.286 23.1059C113.627 23.4269 114.038 23.5874 114.521 23.5874C115.003 23.5874 115.41 23.4269 115.741 23.1059C116.082 22.785 116.252 22.347 116.252 21.7918Z" fill="black"/>
<path d="M124.664 17.4071C124.238 17.4071 123.888 17.2943 123.613 17.0688C123.348 16.8346 123.216 16.5483 123.216 16.21C123.216 15.8631 123.348 15.5768 123.613 15.3513C123.888 15.1171 124.238 15 124.664 15C125.08 15 125.421 15.1171 125.686 15.3513C125.96 15.5768 126.097 15.8631 126.097 16.21C126.097 16.5483 125.96 16.8346 125.686 17.0688C125.421 17.2943 125.08 17.4071 124.664 17.4071ZM125.87 18.1617V25.4219H123.443V18.1617H125.87Z" fill="black"/>
<path d="M132.456 18.084C133.383 18.084 134.121 18.3616 134.67 18.9167C135.228 19.4632 135.508 20.2178 135.508 21.1806V25.4223H133.095V21.4799C133.095 20.9941 132.957 20.6168 132.683 20.3479C132.409 20.079 132.039 19.9446 131.576 19.9446C131.112 19.9446 130.743 20.079 130.469 20.3479C130.194 20.6168 130.057 20.9941 130.057 21.4799V25.4223H127.63V18.1621H130.057V19.1249C130.303 18.8039 130.634 18.5524 131.051 18.3702C131.467 18.1794 131.935 18.084 132.456 18.084Z" fill="black"/>
<path d="M151.572 18.1621L149.428 25.4223H146.746L145.497 20.7123L144.205 25.4223H141.536L139.379 18.1621H141.806L142.927 23.3536L144.262 18.1621H146.831L148.179 23.3275L149.286 18.1621H151.572Z" fill="black"/>
<path d="M153.717 17.4071C153.291 17.4071 152.941 17.2943 152.667 17.0688C152.402 16.8346 152.27 16.5483 152.27 16.21C152.27 15.8631 152.402 15.5768 152.667 15.3513C152.941 15.1171 153.291 15 153.717 15C154.134 15 154.474 15.1171 154.739 15.3513C155.014 15.5768 155.151 15.8631 155.151 16.21C155.151 16.5483 155.014 16.8346 154.739 17.0688C154.474 17.2943 154.134 17.4071 153.717 17.4071ZM154.924 18.1617V25.4219H152.497V18.1617H154.924Z" fill="black"/>
<path d="M161.097 23.5357V25.4223H159.862C158.982 25.4223 158.296 25.2271 157.804 24.8368C157.312 24.4378 157.066 23.7916 157.066 22.8982V20.0097H156.101V18.1621H157.066V16.3926H159.493V18.1621H161.083V20.0097H159.493V22.9242C159.493 23.141 159.55 23.2972 159.663 23.3926C159.777 23.488 159.966 23.5357 160.231 23.5357H161.097Z" fill="black"/>
<path d="M167.318 18.0839C168.226 18.0839 168.955 18.3615 169.504 18.9166C170.052 19.4631 170.327 20.2177 170.327 21.1806V25.4222H167.914V21.4798C167.914 20.9941 167.777 20.6167 167.502 20.3478C167.228 20.0789 166.859 19.9445 166.395 19.9445C165.931 19.9445 165.562 20.0789 165.288 20.3478C165.014 20.6167 164.876 20.9941 164.876 21.4798V25.4222H162.449V15.7939H164.876V19.1378C165.122 18.8169 165.458 18.561 165.884 18.3702C166.31 18.1793 166.788 18.0839 167.318 18.0839Z" fill="black"/>
<path d="M179.433 25.6111C181.704 25.6111 183.086 24.5232 183.086 22.7975C183.086 21.6159 182.298 20.8093 180.671 20.4811L179.075 20.1528C178.471 20.0215 178.154 19.8433 178.154 19.5151C178.154 19.1869 178.451 18.9805 179.177 18.9805C180.019 19.0074 180.824 19.3064 181.449 19.8245L182.789 18.0239C181.734 17.3477 180.462 17.0173 179.177 17.0861C177.05 17.0861 175.617 18.0239 175.617 19.6839C175.603 20.2731 175.831 20.8458 176.255 21.2886C176.68 21.7314 177.27 22.0122 177.909 22.0754L179.495 22.4224C180.283 22.5818 180.518 22.7975 180.518 23.0789C180.518 23.3603 180.201 23.6323 179.495 23.6323C178.494 23.6143 177.53 23.2833 176.763 22.6944L175.341 24.4388C176.512 25.2596 177.961 25.6748 179.433 25.6111Z" fill="#F4333D"/>
<path d="M185.735 19.852C186.043 19.852 186.344 19.7682 186.6 19.6112C186.856 19.4541 187.056 19.2309 187.172 18.9699C187.29 18.7088 187.321 18.4217 187.259 18.145C187.198 17.8682 187.049 17.6142 186.831 17.4152C186.612 17.2162 186.334 17.0812 186.032 17.0272C185.73 16.9733 185.417 17.0029 185.133 17.1122C184.848 17.2215 184.606 17.4057 184.437 17.6413C184.267 17.8771 184.178 18.1536 184.18 18.4359C184.177 18.6234 184.215 18.8095 184.293 18.983C184.37 19.1566 184.485 19.3141 184.63 19.4463C184.775 19.5784 184.948 19.6824 185.137 19.7522C185.327 19.8219 185.531 19.8558 185.735 19.852Z" fill="black"/>
<path d="M184.059 25.4216H187.414L186.708 20.3291C186.074 20.4792 185.409 20.4792 184.775 20.3291L184.059 25.4216Z" fill="black"/>
<path d="M188.988 25.4218H191.71V21.0139C191.71 19.9354 192.282 19.2695 193.388 19.2695C194.492 19.2695 194.994 19.8228 194.994 21.0139V25.4218H197.674V20.3949C197.674 18.2004 196.477 17.075 194.431 17.075C193.898 17.0537 193.368 17.1581 192.892 17.3781C192.415 17.5981 192.008 17.9264 191.71 18.3317V17.8065C191.717 17.7296 191.706 17.6519 191.678 17.5793C191.65 17.5066 191.604 17.4405 191.544 17.3859C191.485 17.3313 191.412 17.2894 191.333 17.2632C191.254 17.237 191.169 17.2271 191.085 17.2344H189.04L188.988 25.4218Z" fill="#F4333D"/>
<path d="M206.443 17.2351C206.358 17.2279 206.274 17.2377 206.195 17.2639C206.115 17.2901 206.044 17.332 205.984 17.3867C205.924 17.4413 205.878 17.5073 205.85 17.58C205.821 17.6527 205.81 17.7303 205.818 17.8072V18.3043C205.521 17.9024 205.115 17.5779 204.639 17.3626C204.164 17.1474 203.636 17.0485 203.107 17.0757C202.005 17.1729 200.983 17.6426 200.239 18.3935C199.495 19.1443 199.083 20.1222 199.083 21.1366C199.083 22.1509 199.495 23.1289 200.239 23.8797C200.983 24.6305 202.005 25.1003 203.107 25.1974C203.619 25.227 204.131 25.1456 204.602 24.9599C205.073 24.7741 205.49 24.4893 205.818 24.1283V24.6723C205.819 24.9292 205.762 25.1835 205.651 25.4194C205.54 25.6553 205.377 25.8677 205.173 26.0436C204.969 26.2194 204.727 26.355 204.463 26.4417C204.199 26.5285 203.919 26.5647 203.639 26.548C202.635 26.5658 201.661 26.2302 200.918 25.6101L199.516 27.4858C200.71 28.313 202.186 28.7251 203.68 28.6487C206.361 28.6487 208.54 27.4202 208.54 24.3346V17.2351H206.443ZM203.823 23.031C203.418 23.031 203.023 22.921 202.687 22.7149C202.35 22.5088 202.087 22.2158 201.933 21.8731C201.778 21.5304 201.737 21.1533 201.816 20.7894C201.896 20.4256 202.091 20.0913 202.377 19.829C202.662 19.5667 203.027 19.3881 203.424 19.3157C203.821 19.2433 204.232 19.2805 204.606 19.4224C204.981 19.5644 205.3 19.8048 205.525 20.1132C205.749 20.4217 205.869 20.7843 205.869 21.1554C205.869 21.6528 205.654 22.1299 205.27 22.4816C204.887 22.8334 204.366 23.031 203.823 23.031Z" fill="#F4333D"/>
<path d="M216.03 17.0753C215.485 17.0531 214.941 17.1535 214.447 17.3676C213.953 17.5817 213.524 17.9031 213.196 18.3039V17.8068C213.204 17.7299 213.193 17.6523 213.165 17.5796C213.136 17.5069 213.091 17.4409 213.031 17.3862C212.972 17.3316 212.899 17.2897 212.82 17.2635C212.741 17.2373 212.656 17.2275 212.573 17.2347H210.526V28.4232H213.196V24.5218C213.552 24.8835 213.99 25.1686 214.48 25.3566C214.971 25.5447 215.5 25.6311 216.03 25.6096C216.616 25.596 217.192 25.4733 217.724 25.2492C218.256 25.025 218.732 24.7041 219.125 24.3059C219.517 23.9076 219.816 23.4403 220.006 22.9325C220.195 22.4247 220.27 21.8869 220.225 21.3518C220.273 20.8153 220.2 20.2755 220.013 19.7655C219.824 19.2554 219.525 18.7859 219.133 18.3856C218.74 17.9853 218.262 17.6626 217.729 17.4373C217.195 17.212 216.617 17.0888 216.03 17.0753ZM215.314 23.4245C214.857 23.4413 214.404 23.3323 214.016 23.1116C213.627 22.8908 213.319 22.5684 213.132 22.1857C212.944 21.8031 212.886 21.3778 212.965 20.9646C213.043 20.5514 213.255 20.1692 213.573 19.8673C213.89 19.5654 214.299 19.3575 214.747 19.2704C215.194 19.1834 215.66 19.221 216.083 19.3787C216.508 19.5364 216.87 19.8068 217.125 20.1551C217.38 20.5034 217.515 20.9137 217.514 21.3331C217.53 21.6051 217.484 21.8772 217.38 22.1323C217.276 22.3875 217.116 22.6204 216.909 22.8165C216.703 23.0126 216.455 23.1677 216.18 23.2723C215.906 23.3769 215.611 23.4287 215.314 23.4245Z" fill="#F4333D"/>
<path d="M229.074 17.2341C228.99 17.2269 228.906 17.2367 228.826 17.2629C228.747 17.2891 228.674 17.331 228.615 17.3856C228.555 17.4403 228.51 17.5063 228.481 17.579C228.453 17.6517 228.442 17.7293 228.45 17.8062V18.3033C228.118 17.8957 227.68 17.5701 227.176 17.3557C226.672 17.1413 226.119 17.0447 225.564 17.0747C224.979 17.0884 224.404 17.211 223.871 17.4352C223.34 17.6593 222.863 17.9803 222.471 18.3785C222.078 18.7768 221.779 19.244 221.589 19.7519C221.4 20.2597 221.325 20.7975 221.37 21.3325C221.325 21.8676 221.4 22.4053 221.589 22.9131C221.779 23.421 222.078 23.8882 222.471 24.2865C222.863 24.6848 223.34 25.0057 223.871 25.2299C224.404 25.454 224.979 25.5766 225.564 25.5903C226.119 25.6178 226.672 25.5201 227.175 25.3059C227.678 25.0917 228.115 24.7675 228.45 24.3617V25.4215H231.13V17.2341H229.074ZM226.281 23.4239C225.701 23.3883 225.158 23.152 224.76 22.7628C224.363 22.3736 224.142 21.8607 224.142 21.3278C224.142 20.7949 224.363 20.282 224.76 19.8928C225.158 19.5036 225.701 19.2674 226.281 19.2317C226.861 19.2674 227.404 19.5036 227.802 19.8928C228.199 20.282 228.42 20.7949 228.42 21.3278C228.42 21.8607 228.199 22.3736 227.802 22.7628C227.404 23.152 226.861 23.3883 226.281 23.4239Z" fill="#F4333D"/>
<path d="M236.554 25.6101C238.825 25.6101 240.206 24.5223 240.206 22.7966C240.206 21.6149 239.418 20.8084 237.792 20.4801L236.206 20.1519C235.592 20.0205 235.275 19.8424 235.275 19.5141C235.275 19.1859 235.571 18.9796 236.298 18.9796C237.139 19.0065 237.945 19.3054 238.569 19.8236L239.91 18.023C238.855 17.3468 237.583 17.0163 236.298 17.0851C234.17 17.0851 232.738 18.023 232.738 19.683C232.724 20.2722 232.951 20.8448 233.376 21.2876C233.8 21.7304 234.39 22.0112 235.029 22.0744L236.615 22.4215C237.403 22.5808 237.638 22.7966 237.638 23.0779C237.638 23.3593 237.311 23.6313 236.615 23.6313C235.614 23.6133 234.651 23.2824 233.884 22.6934L232.543 24.4941C233.716 25.3082 235.166 25.7167 236.636 25.6476L236.554 25.6101Z" fill="#F4333D"/>
<path d="M245.024 25.6107C247.296 25.6107 248.677 24.5227 248.677 22.7971C248.677 21.6154 247.889 20.8088 246.262 20.4806L244.666 20.1524C244.063 20.0211 243.745 19.8429 243.745 19.5147C243.745 19.1864 244.043 18.9801 244.769 18.9801C245.608 19.0059 246.41 19.3052 247.03 19.8241L248.37 18.0235C247.321 17.3453 246.05 17.0146 244.769 17.0856C242.64 17.0856 241.208 18.0235 241.208 19.6835C241.194 20.2727 241.422 20.8454 241.846 21.2882C242.271 21.7309 242.86 22.0117 243.5 22.075L245.086 22.4219C245.874 22.5814 246.109 22.7971 246.109 23.0785C246.109 23.3598 245.792 23.6318 245.086 23.6318C244.085 23.6138 243.121 23.2829 242.354 22.6939L241.014 24.4946C242.187 25.3088 243.636 25.7172 245.106 25.6482L245.024 25.6107Z" fill="#F4333D"/>
</g>
<defs>
<clipPath id="clip0_2791_29516">
<rect width="343" height="44" fill="white"/>
</clipPath>
</defs>
</svg>
