<svg width="432" height="44" viewBox="0 0 432 44" fill="none" xmlns="http://www.w3.org/2000/svg">
<g clip-path="url(#clip0_2711_28046)">
<rect x="0.5" y="0.5" width="431" height="43" rx="3.5" fill="white" stroke="#EAEAEA"/>
<path d="M141.427 23.7044H144.607V25.4219H139V16.2881H141.427V23.7044Z" fill="black"/>
<path d="M149.369 25.526C148.593 25.526 147.893 25.3742 147.268 25.0706C146.653 24.767 146.166 24.3333 145.806 23.7695C145.456 23.2057 145.281 22.5465 145.281 21.7918C145.281 21.0458 145.461 20.3909 145.821 19.8271C146.18 19.2546 146.672 18.8166 147.297 18.513C147.921 18.2094 148.622 18.0576 149.398 18.0576C150.173 18.0576 150.874 18.2094 151.498 18.513C152.123 18.8166 152.615 19.2546 152.974 19.8271C153.334 20.3909 153.514 21.0458 153.514 21.7918C153.514 22.5378 153.329 23.197 152.96 23.7695C152.601 24.3333 152.104 24.767 151.47 25.0706C150.845 25.3742 150.145 25.526 149.369 25.526ZM149.369 23.6004C149.833 23.6004 150.225 23.4442 150.547 23.132C150.878 22.8197 151.044 22.373 151.044 21.7918C151.044 21.2107 150.883 20.7639 150.561 20.4517C150.249 20.1394 149.861 19.9833 149.398 19.9833C148.924 19.9833 148.532 20.1394 148.219 20.4517C147.907 20.7553 147.751 21.202 147.751 21.7918C147.751 22.373 147.902 22.8197 148.205 23.132C148.517 23.4442 148.905 23.6004 149.369 23.6004Z" fill="black"/>
<path d="M157.811 18.0576C158.369 18.0576 158.857 18.1617 159.273 18.3699C159.699 18.5781 160.025 18.8513 160.252 19.1896V18.1617H162.68V25.4089C162.68 26.0768 162.533 26.6797 162.24 27.2175C161.956 27.7639 161.516 28.1976 160.92 28.5186C160.333 28.8395 159.599 29 158.719 29C157.546 29 156.595 28.7441 155.866 28.2323C155.138 27.7292 154.721 27.044 154.617 26.1766H157.016C157.092 26.4541 157.272 26.671 157.556 26.8271C157.839 26.9919 158.19 27.0743 158.606 27.0743C159.107 27.0743 159.505 26.9399 159.798 26.671C160.101 26.4108 160.252 25.9901 160.252 25.4089V24.381C160.016 24.7193 159.689 24.9969 159.273 25.2137C158.857 25.4219 158.369 25.526 157.811 25.526C157.158 25.526 156.567 25.3742 156.037 25.0706C155.507 24.7584 155.086 24.3203 154.774 23.7565C154.471 23.184 154.319 22.5248 154.319 21.7788C154.319 21.0328 154.471 20.3779 154.774 19.8141C155.086 19.2503 155.507 18.8166 156.037 18.513C156.567 18.2094 157.158 18.0576 157.811 18.0576ZM160.252 21.7918C160.252 21.2367 160.082 20.7986 159.741 20.4777C159.41 20.1567 159.003 19.9963 158.521 19.9963C158.038 19.9963 157.627 20.1567 157.286 20.4777C156.955 20.79 156.789 21.2237 156.789 21.7788C156.789 22.3339 156.955 22.7763 157.286 23.1059C157.627 23.4269 158.038 23.5874 158.521 23.5874C159.003 23.5874 159.41 23.4269 159.741 23.1059C160.082 22.785 160.252 22.347 160.252 21.7918Z" fill="black"/>
<path d="M168.664 17.4071C168.238 17.4071 167.888 17.2943 167.613 17.0688C167.348 16.8346 167.216 16.5483 167.216 16.21C167.216 15.8631 167.348 15.5768 167.613 15.3513C167.888 15.1171 168.238 15 168.664 15C169.08 15 169.421 15.1171 169.686 15.3513C169.96 15.5768 170.097 15.8631 170.097 16.21C170.097 16.5483 169.96 16.8346 169.686 17.0688C169.421 17.2943 169.08 17.4071 168.664 17.4071ZM169.87 18.1617V25.4219H167.443V18.1617H169.87Z" fill="black"/>
<path d="M176.456 18.0836C177.383 18.0836 178.121 18.3612 178.67 18.9163C179.228 19.4628 179.508 20.2174 179.508 21.1803V25.4219H177.095V21.4795C177.095 20.9938 176.957 20.6165 176.683 20.3476C176.409 20.0787 176.039 19.9442 175.576 19.9442C175.112 19.9442 174.743 20.0787 174.469 20.3476C174.194 20.6165 174.057 20.9938 174.057 21.4795V25.4219H171.63V18.1617H174.057V19.1245C174.303 18.8036 174.634 18.552 175.051 18.3699C175.467 18.179 175.935 18.0836 176.456 18.0836Z" fill="black"/>
<path d="M195.572 18.1617L193.428 25.4219H190.746L189.497 20.7119L188.205 25.4219H185.536L183.379 18.1617H185.806L186.927 23.3531L188.262 18.1617H190.831L192.179 23.3271L193.286 18.1617H195.572Z" fill="black"/>
<path d="M197.717 17.4071C197.291 17.4071 196.941 17.2943 196.667 17.0688C196.402 16.8346 196.27 16.5483 196.27 16.21C196.27 15.8631 196.402 15.5768 196.667 15.3513C196.941 15.1171 197.291 15 197.717 15C198.134 15 198.474 15.1171 198.739 15.3513C199.014 15.5768 199.151 15.8631 199.151 16.21C199.151 16.5483 199.014 16.8346 198.739 17.0688C198.474 17.2943 198.134 17.4071 197.717 17.4071ZM198.924 18.1617V25.4219H196.497V18.1617H198.924Z" fill="black"/>
<path d="M205.097 23.5353V25.4219H203.862C202.982 25.4219 202.296 25.2268 201.804 24.8364C201.312 24.4374 201.066 23.7912 201.066 22.8978V20.0093H200.101V18.1617H201.066V16.3922H203.493V18.1617H205.083V20.0093H203.493V22.9238C203.493 23.1407 203.55 23.2968 203.663 23.3922C203.777 23.4876 203.966 23.5353 204.231 23.5353H205.097Z" fill="black"/>
<path d="M211.318 18.0837C212.226 18.0837 212.955 18.3612 213.504 18.9164C214.052 19.4628 214.327 20.2175 214.327 21.1803V25.4219H211.914V21.4796C211.914 20.9938 211.777 20.6165 211.502 20.3476C211.228 20.0787 210.859 19.9443 210.395 19.9443C209.931 19.9443 209.562 20.0787 209.288 20.3476C209.014 20.6165 208.876 20.9938 208.876 21.4796V25.4219H206.449V15.7937H208.876V19.1376C209.122 18.8166 209.458 18.5607 209.884 18.3699C210.31 18.1791 210.788 18.0837 211.318 18.0837Z" fill="black"/>
<path d="M223.433 25.6107C225.704 25.6107 227.086 24.5228 227.086 22.7972C227.086 21.6155 226.298 20.809 224.671 20.4807L223.075 20.1524C222.471 20.0212 222.154 19.843 222.154 19.5147C222.154 19.1865 222.451 18.9801 223.177 18.9801C224.019 19.0071 224.824 19.306 225.449 19.8242L226.789 18.0236C225.734 17.3474 224.462 17.017 223.177 17.0857C221.05 17.0857 219.617 18.0236 219.617 19.6835C219.603 20.2728 219.831 20.8454 220.255 21.2882C220.68 21.731 221.27 22.0118 221.909 22.075L223.495 22.4221C224.283 22.5815 224.518 22.7972 224.518 23.0786C224.518 23.3599 224.201 23.6319 223.495 23.6319C222.494 23.6139 221.53 23.283 220.763 22.694L219.341 24.4384C220.512 25.2592 221.961 25.6744 223.433 25.6107Z" fill="#F4333D"/>
<path d="M229.735 19.8516C230.043 19.8516 230.344 19.7677 230.6 19.6107C230.856 19.4537 231.056 19.2305 231.172 18.9694C231.29 18.7084 231.321 18.4213 231.259 18.1445C231.198 17.8677 231.049 17.6137 230.831 17.4147C230.612 17.2158 230.334 17.0808 230.032 17.0268C229.73 16.9729 229.417 17.0024 229.133 17.1118C228.848 17.2211 228.606 17.4053 228.437 17.6409C228.267 17.8766 228.178 18.1531 228.18 18.4355C228.177 18.623 228.215 18.809 228.293 18.9826C228.37 19.1562 228.485 19.3137 228.63 19.4459C228.775 19.578 228.948 19.682 229.137 19.7518C229.327 19.8214 229.531 19.8554 229.735 19.8516Z" fill="black"/>
<path d="M228.059 25.4221H231.414L230.708 20.3296C230.074 20.4797 229.409 20.4797 228.775 20.3296L228.059 25.4221Z" fill="black"/>
<path d="M232.988 25.4213H235.71V21.0134C235.71 19.935 236.282 19.2691 237.388 19.2691C238.492 19.2691 238.994 19.8224 238.994 21.0134V25.4213H241.674V20.3945C241.674 18.1999 240.477 17.0745 238.431 17.0745C237.898 17.0533 237.368 17.1577 236.892 17.3776C236.415 17.5977 236.008 17.926 235.71 18.3313V17.8061C235.717 17.7291 235.706 17.6515 235.678 17.5789C235.65 17.5061 235.604 17.4401 235.544 17.3855C235.485 17.3309 235.412 17.2889 235.333 17.2628C235.254 17.2365 235.169 17.2267 235.085 17.2339H233.04L232.988 25.4213Z" fill="#F4333D"/>
<path d="M250.443 17.2349C250.358 17.2277 250.274 17.2375 250.195 17.2638C250.115 17.2899 250.044 17.3319 249.984 17.3865C249.924 17.4411 249.878 17.5071 249.85 17.5799C249.821 17.6525 249.81 17.7301 249.818 17.8071V18.3041C249.521 17.9022 249.115 17.5778 248.639 17.3624C248.164 17.1472 247.636 17.0483 247.107 17.0755C246.005 17.1727 244.983 17.6425 244.239 18.3933C243.495 19.1441 243.083 20.122 243.083 21.1364C243.083 22.1507 243.495 23.1287 244.239 23.8795C244.983 24.6303 246.005 25.1001 247.107 25.1972C247.619 25.2268 248.131 25.1454 248.602 24.9597C249.073 24.7739 249.49 24.4891 249.818 24.1281V24.6721C249.819 24.929 249.762 25.1833 249.651 25.4192C249.54 25.6551 249.377 25.8675 249.173 26.0434C248.969 26.2193 248.727 26.3548 248.463 26.4415C248.199 26.5283 247.919 26.5645 247.639 26.5478C246.635 26.5656 245.661 26.23 244.918 25.6099L243.516 27.4856C244.71 28.3128 246.186 28.7249 247.68 28.6485C250.361 28.6485 252.54 27.42 252.54 24.3345V17.2349H250.443ZM247.823 23.0308C247.418 23.0308 247.023 22.9209 246.687 22.7147C246.35 22.5086 246.087 22.2157 245.933 21.873C245.778 21.5302 245.737 21.1531 245.816 20.7892C245.896 20.4254 246.091 20.0912 246.377 19.8288C246.662 19.5665 247.027 19.3879 247.424 19.3155C247.821 19.2431 248.232 19.2803 248.606 19.4222C248.981 19.5642 249.3 19.8046 249.525 20.1131C249.749 20.4215 249.869 20.7841 249.869 21.1552C249.869 21.6526 249.654 22.1297 249.27 22.4814C248.887 22.8333 248.366 23.0308 247.823 23.0308Z" fill="#F4333D"/>
<path d="M260.03 17.0748C259.485 17.0527 258.941 17.1531 258.447 17.3672C257.953 17.5813 257.524 17.9026 257.196 18.3035V17.8064C257.204 17.7294 257.193 17.6519 257.165 17.5792C257.136 17.5065 257.091 17.4405 257.031 17.3858C256.972 17.3312 256.899 17.2892 256.82 17.2631C256.741 17.2369 256.656 17.2271 256.573 17.2343H254.526V28.4228H257.196V24.5213C257.552 24.883 257.99 25.1681 258.48 25.3562C258.971 25.5443 259.5 25.6307 260.03 25.6092C260.616 25.5956 261.192 25.4729 261.724 25.2487C262.256 25.0246 262.732 24.7036 263.125 24.3054C263.517 23.9071 263.816 23.4399 264.006 22.9321C264.195 22.4243 264.27 21.8865 264.225 21.3514C264.273 20.8149 264.2 20.2751 264.013 19.765C263.824 19.255 263.525 18.7854 263.133 18.3851C262.74 17.9848 262.262 17.6622 261.729 17.4369C261.195 17.2116 260.617 17.0884 260.03 17.0748ZM259.314 23.4241C258.857 23.4409 258.404 23.3319 258.016 23.1111C257.627 22.8904 257.319 22.5679 257.132 22.1853C256.944 21.8027 256.886 21.3773 256.965 20.9642C257.043 20.551 257.255 20.1688 257.573 19.8669C257.89 19.565 258.299 19.3571 258.747 19.27C259.194 19.1829 259.66 19.2206 260.083 19.3783C260.508 19.536 260.87 19.8064 261.125 20.1547C261.38 20.503 261.515 20.9133 261.514 21.3327C261.53 21.6047 261.484 21.8767 261.38 22.1319C261.276 22.3871 261.116 22.62 260.909 22.8161C260.703 23.0122 260.455 23.1673 260.18 23.2719C259.906 23.3765 259.611 23.4283 259.314 23.4241Z" fill="#F4333D"/>
<path d="M273.074 17.2345C272.99 17.2273 272.906 17.237 272.826 17.2633C272.747 17.2894 272.674 17.3314 272.615 17.386C272.555 17.4407 272.51 17.5067 272.481 17.5794C272.453 17.6521 272.442 17.7297 272.45 17.8066V18.3037C272.118 17.8961 271.68 17.5705 271.176 17.356C270.672 17.1416 270.119 17.0451 269.564 17.075C268.979 17.0888 268.404 17.2114 267.871 17.4355C267.34 17.6597 266.863 17.9806 266.471 18.3789C266.078 18.7771 265.779 19.2444 265.589 19.7522C265.4 20.26 265.325 20.7978 265.37 21.3329C265.325 21.8679 265.4 22.4057 265.589 22.9135C265.779 23.4214 266.078 23.8886 266.471 24.2868C266.863 24.6851 267.34 25.0061 267.871 25.2302C268.404 25.4544 268.979 25.577 269.564 25.5907C270.119 25.6182 270.672 25.5205 271.175 25.3063C271.678 25.0921 272.115 24.7678 272.45 24.3621V25.4218H275.13V17.2345H273.074ZM270.281 23.4243C269.701 23.3887 269.158 23.1523 268.76 22.7632C268.363 22.374 268.142 21.8611 268.142 21.3282C268.142 20.7953 268.363 20.2824 268.76 19.8932C269.158 19.504 269.701 19.2677 270.281 19.2321C270.861 19.2677 271.404 19.504 271.802 19.8932C272.199 20.2824 272.42 20.7953 272.42 21.3282C272.42 21.8611 272.199 22.374 271.802 22.7632C271.404 23.1523 270.861 23.3887 270.281 23.4243Z" fill="#F4333D"/>
<path d="M280.554 25.61C282.825 25.61 284.206 24.5221 284.206 22.7965C284.206 21.6148 283.418 20.8082 281.792 20.48L280.206 20.1518C279.592 20.0204 279.275 19.8422 279.275 19.514C279.275 19.1858 279.571 18.9795 280.298 18.9795C281.139 19.0063 281.945 19.3053 282.569 19.8235L283.91 18.0229C282.855 17.3466 281.583 17.0162 280.298 17.085C278.17 17.085 276.738 18.0228 276.738 19.6829C276.724 20.272 276.951 20.8447 277.376 21.2875C277.8 21.7303 278.39 22.0111 279.029 22.0743L280.615 22.4213C281.403 22.5807 281.638 22.7965 281.638 23.0778C281.638 23.3592 281.311 23.6312 280.615 23.6312C279.614 23.6132 278.651 23.2822 277.884 22.6933L276.543 24.4939C277.716 25.3081 279.166 25.7166 280.636 25.6475L280.554 25.61Z" fill="#F4333D"/>
<path d="M289.024 25.6106C291.296 25.6106 292.677 24.5226 292.677 22.797C292.677 21.6153 291.889 20.8087 290.262 20.4805L288.666 20.1522C288.063 20.021 287.745 19.8428 287.745 19.5146C287.745 19.1863 288.043 18.9799 288.769 18.9799C289.608 19.0058 290.41 19.3051 291.03 19.824L292.37 18.0233C291.321 17.3452 290.05 17.0145 288.769 17.0855C286.64 17.0855 285.208 18.0233 285.208 19.6833C285.194 20.2726 285.422 20.8452 285.846 21.288C286.271 21.7308 286.86 22.0116 287.5 22.0749L289.086 22.4218C289.874 22.5813 290.109 22.797 290.109 23.0784C290.109 23.3597 289.792 23.6316 289.086 23.6316C288.085 23.6137 287.121 23.2828 286.354 22.6938L285.014 24.4945C286.187 25.3086 287.636 25.7171 289.106 25.6481L289.024 25.6106Z" fill="#F4333D"/>
</g>
<defs>
<clipPath id="clip0_2711_28046">
<rect width="432" height="44" fill="white"/>
</clipPath>
</defs>
</svg>
