<svg width="35" height="24" viewBox="0 0 35 24" fill="none" xmlns="http://www.w3.org/2000/svg">
<rect width="34.5001" height="24" transform="translate(0.500122)" fill="white"/>
<path d="M9.29914 8H4.20466C3.53862 8 3.00012 8.54558 3.00012 9.21162V14.3557C3.00012 15.0217 3.53862 15.5673 4.20466 15.5673H9.30623C9.97226 15.5673 10.5108 15.0217 10.5108 14.3557V9.21162C10.5037 8.54558 9.96518 8 9.29914 8Z" fill="#1677FF"/>
<path d="M9.17877 12.749C8.88118 12.6498 8.4773 12.4939 8.02383 12.3309C8.29308 11.8562 8.50565 11.3177 8.64736 10.7367H7.17357V10.1982H8.98746V9.90059H7.17357V9.00781H6.42959C6.30205 9.00781 6.30205 9.13535 6.30205 9.13535V9.90059H4.47399V10.1982H6.30914V10.7367H4.79284V11.0343H7.72624C7.61996 11.4098 7.47825 11.757 7.30111 12.0758C6.35165 11.757 5.33134 11.5019 4.69364 11.6578C4.28268 11.757 4.02052 11.9412 3.87172 12.1325C3.16317 13.004 3.67333 14.3219 5.16837 14.3219C6.05406 14.3219 6.90432 13.826 7.56327 13.004C8.54816 13.4859 10.5038 14.3078 10.5038 14.3078V13.1387C10.5038 13.1387 10.2558 13.1174 9.17877 12.749ZM5.02666 13.8189C3.85755 13.8189 3.51745 12.8907 4.09137 12.3876C4.28268 12.2175 4.63696 12.1325 4.82118 12.1113C5.51556 12.0404 6.15326 12.3097 6.91141 12.6852C6.37999 13.3796 5.70687 13.8189 5.02666 13.8189Z" fill="white"/>
<path d="M19.2902 9.10499C19.2902 9.4947 19.5736 9.75686 19.9775 9.75686C20.3813 9.75686 20.6648 9.4947 20.6648 9.10499C20.6648 8.72237 20.3813 8.45312 19.9775 8.45312C19.5736 8.45312 19.2902 8.72237 19.2902 9.10499Z" fill="#1677FF"/>
<path d="M18.5674 8.61719H17.3771V14.1085H18.5674V8.61719Z" fill="black"/>
<path d="M15.294 8.8125H13.6997L11.9142 14.1195H13.0124L13.31 13.078H15.2019L15.4853 14.1195H16.8953L15.294 8.8125ZM13.558 12.2135L14.2666 9.76904H14.2949L14.968 12.2135H13.558Z" fill="black"/>
<path d="M20.5655 10.0781H19.3751V14.1098H20.5655V10.0781Z" fill="black"/>
<path d="M32.9927 10.0852L32.9998 10.0781H31.8803L31.1717 12.5368H31.1363L30.3215 10.0781H28.9894L30.5907 14.131L29.9247 15.3639V15.3923H30.9662L32.9927 10.0852Z" fill="black"/>
<path d="M23.5273 10C23.088 10 22.755 10.163 22.3653 10.4818V10.085H21.1749V15.3992H22.3653V14.0742C22.592 14.1309 22.8046 14.1663 23.0597 14.1663C24.1225 14.1663 25.079 13.3869 25.079 11.991C25.079 10.744 24.3847 10 23.5273 10ZM22.7692 13.4223C22.6345 13.4223 22.507 13.4081 22.3653 13.3656V11.1762C22.6133 11.0061 22.8188 10.9211 23.0738 10.9211C23.5202 10.9211 23.8745 11.2754 23.8745 12.0265C23.8745 12.9901 23.3502 13.4223 22.7692 13.4223Z" fill="black"/>
<path d="M28.7563 13.1027V11.4164C28.7563 10.4953 28.2178 9.99219 27.2612 9.99219C26.6519 9.99219 26.2267 10.0985 25.4615 10.3323L25.6741 11.2605C26.3755 10.9416 26.6802 10.807 27.0061 10.807C27.3958 10.807 27.573 11.0834 27.573 11.5156V11.5439C26.2126 11.799 25.7874 11.9407 25.5253 12.2029C25.3269 12.4013 25.2489 12.6776 25.2489 13.0035C25.2489 13.7759 25.8512 14.1939 26.418 14.1939C26.8361 14.1939 27.1762 14.038 27.6367 13.6908L27.7218 14.1089H28.9121L28.7563 13.1027ZM27.5659 13.1382C27.247 13.3082 27.0699 13.3791 26.8573 13.3791C26.5739 13.3791 26.3897 13.1878 26.3897 12.8902C26.3897 12.7768 26.411 12.6634 26.5031 12.5713C26.6448 12.4296 26.9211 12.3233 27.5659 12.1745V13.1382Z" fill="black"/>
</svg>
