<svg width="16" height="18" viewBox="0 0 16 18" fill="none" xmlns="http://www.w3.org/2000/svg">
<path d="M8.83333 9.00002H11.3333L8 12.3334L4.66667 9.00002H7.16667V5.66669H8.83333V9.00002ZM10.5 2.33335H2.16667V15.6667H13.8333V5.66669H10.5V2.33335ZM0.5 1.49335C0.5 1.03669 0.8725 0.666687 1.3325 0.666687H11.3333L15.5 4.83335V16.4942C15.5007 16.6036 15.48 16.7121 15.4388 16.8135C15.3977 16.9149 15.3369 17.0073 15.2601 17.0852C15.1832 17.1631 15.0917 17.2251 14.991 17.2677C14.8902 17.3103 14.7819 17.3326 14.6725 17.3334H1.3275C1.10865 17.3319 0.899183 17.2443 0.74435 17.0896C0.589517 16.9349 0.501742 16.7255 0.5 16.5067V1.49335Z" fill="black"/>
</svg>
