<svg width="35" height="24" viewBox="0 0 35 24" fill="none" xmlns="http://www.w3.org/2000/svg">
<rect width="34.5" height="24" fill="white"/>
<path fill-rule="evenodd" clip-rule="evenodd" d="M28.3809 8.45587C28.3706 8.53571 28.3603 8.61556 28.35 8.69541C28.2759 9.26547 28.0298 9.75568 27.6251 10.1681C27.2143 10.5885 26.715 10.8513 26.1281 10.9473C25.1871 11.102 24.0988 10.723 23.5469 9.87595C23.4615 9.74456 23.4059 9.59497 23.3369 9.45346C23.3194 9.41708 23.3256 9.38676 23.3544 9.3534C23.4563 9.23717 23.5531 9.1179 23.6519 8.99964C23.6622 8.98751 23.6674 8.97235 23.6828 8.94506C23.7199 9.04513 23.7425 9.12295 23.7755 9.19573C24.0885 9.88707 24.6249 10.3055 25.3827 10.4319C26.4802 10.6158 27.5294 9.8901 27.7796 8.86117C27.8187 8.70046 27.8362 8.53268 27.8434 8.36793C27.8517 8.15365 27.8465 7.93736 27.8331 7.72207C27.8084 7.31272 27.656 6.94784 27.4028 6.62542C27.0321 6.15441 26.5461 5.86736 25.9428 5.79863C25.3436 5.73091 24.8113 5.9088 24.3479 6.28278C23.8651 6.67292 23.447 7.12573 23.0455 7.59472C22.8591 7.81304 22.68 8.03742 22.4978 8.25877C22.4864 8.27191 22.4741 8.28404 22.4545 8.30527C22.4525 8.27798 22.4514 8.26281 22.4514 8.24765C22.4514 8.03034 22.4504 7.81202 22.4525 7.59472C22.4525 7.56439 22.4617 7.52902 22.4803 7.50577C22.8005 7.09844 23.133 6.70122 23.5057 6.33938C23.7817 6.07153 24.0813 5.83098 24.4087 5.62681C24.7093 5.43881 25.0419 5.33268 25.394 5.2872C26.7922 5.10729 28.0102 6.0776 28.2975 7.26825C28.3314 7.40672 28.3428 7.55024 28.3644 7.69175C28.3695 7.72308 28.3757 7.75441 28.3819 7.78575C28.3809 8.01114 28.3809 8.2335 28.3809 8.45587Z" fill="#00B041"/>
<path fill-rule="evenodd" clip-rule="evenodd" d="M21.3057 19.6073C21.3459 19.6386 21.3747 19.6598 21.4036 19.6831C21.8247 20.0186 22.3034 20.2319 22.8419 20.2996C23.2002 20.3451 23.5585 20.338 23.8993 20.1985C24.2792 20.0429 24.4697 19.7478 24.5047 19.3556C24.5232 19.1484 24.516 18.9392 24.5191 18.731C24.5191 18.7138 24.515 18.6966 24.5129 18.6723C24.4985 18.6794 24.4893 18.6814 24.4841 18.6875C24.2442 18.9553 23.9312 19.0948 23.5853 19.1615C23.0221 19.2717 22.4764 19.2121 21.9657 18.9462C21.42 18.6622 21.105 18.1993 20.9536 17.6212C20.8939 17.3937 20.8682 17.1623 20.8682 16.9278C20.8682 15.8989 20.8682 14.8709 20.8682 13.842C20.8682 13.7521 20.8682 13.7521 20.9619 13.7521C21.3232 13.7521 21.6836 13.7541 22.045 13.75C22.1181 13.749 22.1346 13.7713 22.1346 13.84C22.1325 14.8851 22.1274 15.9302 22.1366 16.9743C22.1407 17.4544 22.4311 17.9406 23.0478 18.0457C23.4041 18.1063 23.7438 18.0507 24.0373 17.8253C24.2586 17.6545 24.3698 17.421 24.4059 17.1522C24.4203 17.0471 24.4213 16.9399 24.4213 16.8338C24.4223 15.8372 24.4223 14.8416 24.4223 13.845C24.4223 13.751 24.4223 13.751 24.5191 13.751C24.8712 13.751 25.2223 13.7521 25.5744 13.75C25.628 13.75 25.6475 13.7642 25.6475 13.8208C25.6455 15.6654 25.6517 17.509 25.6424 19.3536C25.6403 19.8579 25.488 20.3249 25.1369 20.712C24.8434 21.0354 24.4687 21.2265 24.0476 21.3356C23.7984 21.4003 23.5441 21.4286 23.2867 21.4407C22.5721 21.4731 21.9338 21.278 21.3737 20.8383C21.3232 20.7989 21.3006 20.7565 21.3016 20.6918C21.3047 20.3512 21.3027 20.0106 21.3037 19.6699C21.3006 19.6568 21.3027 19.6406 21.3057 19.6073Z" fill="#00B041"/>
<path fill-rule="evenodd" clip-rule="evenodd" d="M10.6339 19.2361C10.5999 19.2361 10.5742 19.2361 10.5494 19.2361C10.2025 19.2361 9.85549 19.2341 9.50852 19.2381C9.43439 19.2391 9.41895 19.2159 9.41895 19.1482C9.421 17.6957 9.41997 16.2433 9.41997 14.7898C9.41997 14.0904 9.41997 13.391 9.41997 12.6905C9.41997 12.5996 9.41997 12.5986 9.51264 12.5986C10.3744 12.5986 11.2362 12.5844 12.0969 12.6046C12.7188 12.6188 13.2892 12.8048 13.7402 13.2545C14.0233 13.5365 14.1901 13.8812 14.2653 14.2663C14.361 14.7555 14.3507 15.2437 14.1829 15.7177C13.9296 16.4303 13.4045 16.8507 12.6725 17.0387C12.4254 17.1024 12.1731 17.1277 11.9167 17.1277C11.5203 17.1267 11.124 17.1277 10.7276 17.1277C10.6349 17.1277 10.6349 17.1287 10.6349 17.2197C10.6349 17.8615 10.6349 18.5033 10.6349 19.1451C10.6339 19.1734 10.6339 19.2007 10.6339 19.2361ZM11.3258 16.0189C11.4936 16.0189 11.6604 16.024 11.8282 16.0169C11.9713 16.0108 12.1165 16.0037 12.2555 15.9754C12.6375 15.8966 12.9155 15.6874 13.0431 15.3164C13.1461 15.0193 13.1471 14.7161 13.0575 14.4159C12.971 14.1248 12.7785 13.9247 12.4902 13.8115C12.31 13.7407 12.1216 13.7134 11.9312 13.7104C11.5214 13.7053 11.1106 13.7094 10.6998 13.7084C10.6473 13.7084 10.6318 13.7276 10.6318 13.7781C10.6328 14.5008 10.6339 15.2224 10.6318 15.9451C10.6318 16.0037 10.6514 16.0199 10.709 16.0199C10.916 16.0169 11.1209 16.0189 11.3258 16.0189Z" fill="#00B041"/>
<path fill-rule="evenodd" clip-rule="evenodd" d="M18.8845 18.6678C18.6065 18.9528 18.2719 19.1105 17.8919 19.1842C17.6098 19.2388 17.3257 19.2358 17.0415 19.2065C16.6955 19.1711 16.3671 19.0811 16.0613 18.9164C15.495 18.6101 15.1491 18.1351 14.9751 17.5307C14.8989 17.2649 14.8639 16.9919 14.8629 16.716C14.8618 16.4502 14.8557 16.1823 14.8783 15.9175C14.9669 14.8896 15.5589 14.0345 16.7131 13.7657C17.3164 13.6252 17.9218 13.6373 18.5097 13.8374C19.3025 14.1083 19.7864 14.6622 19.9913 15.4566C20.051 15.6901 20.0788 15.9287 20.0788 16.1702C20.0778 17.1365 20.0788 18.1017 20.0788 19.068C20.0788 19.166 20.0788 19.166 19.9789 19.166C19.6412 19.166 19.3045 19.165 18.9668 19.1671C18.9051 19.1671 18.8793 19.1539 18.8824 19.0862C18.8886 18.9487 18.8845 18.8082 18.8845 18.6678ZM18.8968 16.4734C18.8824 16.2774 18.8865 16.0793 18.8515 15.8872C18.765 15.4203 18.4973 15.0867 18.0392 14.9179C17.7519 14.8118 17.4554 14.8037 17.1558 14.8563C16.5988 14.9533 16.1694 15.3808 16.086 15.9287C16.0397 16.2349 16.0407 16.5432 16.0737 16.8494C16.1282 17.3599 16.3928 17.7369 16.8695 17.9572C17.1661 18.0947 17.4801 18.1068 17.8024 18.0643C18.31 17.9966 18.6899 17.6772 18.8278 17.1931C18.8937 16.9546 18.8865 16.715 18.8968 16.4734Z" fill="#00B041"/>
<path fill-rule="evenodd" clip-rule="evenodd" d="M12.1738 7.76635C11.4325 7.76635 10.6974 7.76635 9.95299 7.76635C9.95093 7.73603 9.94887 7.71177 9.94887 7.68751C9.94887 7.57128 9.94887 7.45605 9.94887 7.33982C9.94887 7.24481 9.94887 7.24481 10.0498 7.24481C10.649 7.24481 11.2482 7.24481 11.8485 7.24481C12.1079 7.24481 12.3674 7.24683 12.6268 7.2438C12.6886 7.24279 12.7082 7.26098 12.7072 7.32162C12.7051 8.22725 12.7061 9.13287 12.7041 10.0395C12.7041 10.0769 12.6866 10.1224 12.6619 10.1507C12.3931 10.46 12.0523 10.6732 11.6786 10.837C11.3254 10.9916 10.9548 11.0796 10.5697 11.121C9.91592 11.1907 9.2786 11.1321 8.67629 10.8592C7.62198 10.3791 6.96098 9.57759 6.72109 8.46174C6.58003 7.80476 6.59342 7.14475 6.83949 6.50798C7.16278 5.67008 7.74862 5.05757 8.54759 4.63609C8.97075 4.41272 9.42377 4.2793 9.90254 4.22674C10.2536 4.18833 10.6037 4.20248 10.9538 4.22876C11.2976 4.25504 11.6343 4.31771 11.9586 4.43596C12.0245 4.46022 12.0544 4.48953 12.0503 4.56433C12.0431 4.72301 12.0482 4.88271 12.0482 5.0515C11.9823 5.01916 11.9277 4.98985 11.8711 4.96357C11.5767 4.82409 11.2647 4.74828 10.9414 4.72301C10.7066 4.70482 10.4719 4.69269 10.2361 4.69572C9.53394 4.70482 8.90589 4.93022 8.34991 5.34765C7.82275 5.74285 7.45519 6.25024 7.27089 6.87993C7.1772 7.19831 7.16072 7.52478 7.17411 7.8553C7.19161 8.27576 7.28222 8.67602 7.47475 9.051C7.89688 9.87071 8.56715 10.3791 9.48349 10.5712C9.85414 10.649 10.2279 10.6409 10.6016 10.5984C11.0423 10.5489 11.4613 10.4337 11.8382 10.1982C11.9411 10.1335 12.0369 10.0567 12.1285 9.97785C12.1563 9.9546 12.1769 9.9071 12.1769 9.87071C12.18 9.19452 12.179 8.51733 12.179 7.84114C12.181 7.8179 12.1769 7.79465 12.1738 7.76635Z" fill="#00B041"/>
<path fill-rule="evenodd" clip-rule="evenodd" d="M20.2204 10.2993C20.2204 10.4681 20.2225 10.6267 20.2184 10.7864C20.2184 10.8046 20.1864 10.8329 20.1648 10.839C20.0001 10.8835 19.8353 10.9441 19.6675 10.9613C18.9756 11.0341 18.3496 10.8542 17.7988 10.4387C17.2191 10.0011 16.8619 9.42598 16.7682 8.71341C16.728 8.41019 16.7414 8.09888 16.7466 7.79162C16.7589 7.17506 16.9885 6.63735 17.3983 6.17443C17.807 5.71354 18.3167 5.41335 18.9314 5.30924C19.7633 5.16774 20.5077 5.3709 21.147 5.91366C21.6413 6.33312 21.9378 6.8678 22.0438 7.50052C22.0634 7.6208 22.0737 7.74411 22.0737 7.86641C22.0757 8.8721 22.0747 9.87778 22.0747 10.8825C22.0747 10.9118 22.0747 10.9411 22.0747 10.9754C21.8956 10.9754 21.7247 10.9754 21.5445 10.9754C21.5445 10.9401 21.5445 10.9077 21.5445 10.8764C21.5445 9.87071 21.5517 8.86502 21.5424 7.86035C21.5331 6.80311 20.7558 5.99553 19.8014 5.81966C18.6472 5.60842 17.5373 6.38265 17.3077 7.49042C17.285 7.60059 17.2706 7.7148 17.2696 7.82699C17.2655 8.12314 17.2418 8.4203 17.3025 8.71341C17.4611 9.48561 17.9203 10.0203 18.6575 10.3185C19.1476 10.5166 19.6449 10.5014 20.1411 10.3255C20.1648 10.3175 20.1885 10.3094 20.2204 10.2993Z" fill="#00B041"/>
<path fill-rule="evenodd" clip-rule="evenodd" d="M11.766 8.1729C11.766 8.2012 11.766 8.22445 11.766 8.24668C11.766 8.72881 11.7649 9.20992 11.767 9.69204C11.767 9.7446 11.7505 9.77795 11.7094 9.80929C11.4798 9.98617 11.2131 10.0812 10.933 10.1428C10.617 10.2126 10.2937 10.2469 9.97139 10.2257C9.02314 10.1641 8.32095 9.71327 7.86793 8.89659C7.66922 8.53879 7.58891 8.15066 7.5817 7.74334C7.5745 7.34915 7.62598 6.9681 7.80204 6.6103C8.12533 5.95332 8.64836 5.51466 9.33819 5.26197C9.75312 5.10935 10.1845 5.07498 10.6242 5.10227C10.9979 5.12552 11.3634 5.18111 11.7124 5.31554C11.8113 5.35294 11.907 5.39842 12.0018 5.4439C12.0223 5.45401 12.045 5.48332 12.045 5.50354C12.0481 5.6885 12.0471 5.87347 12.0471 6.07359C12.0182 6.05439 11.9976 6.04226 11.9781 6.02811C11.6867 5.81181 11.3541 5.69558 10.9948 5.65717C10.7539 5.6319 10.5099 5.60764 10.2689 5.61674C9.41953 5.65212 8.75544 6.01295 8.32713 6.74776C8.17887 7.00246 8.11606 7.28345 8.10989 7.57858C8.10268 7.92021 8.13769 8.25376 8.28801 8.56608C8.58659 9.18667 9.07771 9.57277 9.77268 9.67991C10.2628 9.75572 10.7436 9.688 11.21 9.52224C11.2574 9.50505 11.2749 9.47877 11.2749 9.43026C11.2728 9.21295 11.2718 8.99463 11.2749 8.77732C11.2759 8.7096 11.2563 8.68534 11.1832 8.68534C10.7982 8.68838 10.4141 8.68534 10.0291 8.68838C9.96522 8.68838 9.9436 8.67321 9.94565 8.60752C9.9508 8.46399 9.94771 8.32148 9.94771 8.17189C10.5552 8.1729 11.1554 8.1729 11.766 8.1729Z" fill="#00B041"/>
<path fill-rule="evenodd" clip-rule="evenodd" d="M24.4286 8.0619C24.4595 8.19835 24.4791 8.31358 24.511 8.42577C24.6006 8.73404 24.756 9.00391 24.9908 9.23133C25.485 9.70941 26.1769 9.57599 26.5619 9.18989C26.7751 8.97662 26.8924 8.71888 26.8976 8.41869C26.9017 8.19229 26.913 7.96386 26.8924 7.73948C26.8471 7.25533 26.4744 6.85104 25.9905 6.74289C25.5643 6.64788 25.1936 6.76411 24.8734 7.04611C24.4482 7.4221 24.0786 7.85066 23.711 8.27921C23.293 8.76639 22.8883 9.26367 22.4786 9.75691C22.4744 9.76196 22.4714 9.76904 22.4539 9.77207C22.4528 9.75388 22.4497 9.73569 22.4497 9.71648C22.4497 9.4921 22.4477 9.2667 22.4518 9.04232C22.4528 9.00391 22.4672 8.95944 22.4899 8.92912C22.8688 8.43385 23.2796 7.96588 23.7069 7.51105C23.9396 7.26241 24.1733 7.01377 24.4204 6.77725C24.6994 6.51042 25.0227 6.30524 25.4088 6.22337C25.869 6.12634 26.2942 6.22943 26.6762 6.49323C27.0695 6.76411 27.3177 7.13303 27.4072 7.59898C27.4227 7.67984 27.4289 7.76474 27.4289 7.84762C27.4268 8.09728 27.4381 8.34895 27.4114 8.59658C27.3383 9.25053 26.8368 9.80947 26.18 9.99342C25.4613 10.1946 24.7293 9.91054 24.3061 9.26872C24.1774 9.07264 24.0837 8.8614 24.0291 8.63499C24.0219 8.60265 24.0322 8.55615 24.0528 8.52987C24.164 8.38938 24.2814 8.25293 24.3957 8.11446C24.407 8.10132 24.4132 8.08616 24.4286 8.0619Z" fill="#00B041"/>
<path fill-rule="evenodd" clip-rule="evenodd" d="M20.2197 9.28243C20.2197 9.46133 20.2218 9.6281 20.2177 9.79386C20.2166 9.81913 20.1878 9.84945 20.1641 9.86562C20.0231 9.95962 19.8625 10.0071 19.6967 10.0324C18.9739 10.1416 18.2892 9.82418 17.9176 9.20763C17.7611 8.94787 17.6787 8.66587 17.6807 8.36265C17.6818 8.21407 17.6818 8.06651 17.6807 7.91793C17.6756 7.35596 17.9093 6.90416 18.35 6.55646C19.3343 5.78021 20.856 6.28356 21.1 7.55406C21.1217 7.66929 21.1309 7.78855 21.132 7.9058C21.134 8.89936 21.133 9.89291 21.133 10.8865C21.133 10.9795 21.133 10.9795 21.0362 10.9805C20.9178 10.9805 20.8004 10.9774 20.682 10.9815C20.6213 10.9835 20.6069 10.9613 20.6069 10.9057C20.6089 10.6388 20.6079 10.373 20.6079 10.1062C20.6079 9.38148 20.6079 8.65577 20.6079 7.93107C20.6079 7.67333 20.5513 7.42974 20.3978 7.21648C20.1559 6.88192 19.8254 6.71717 19.4053 6.70908C18.9132 6.701 18.3922 7.02241 18.2491 7.58539C18.2264 7.67636 18.2161 7.77238 18.213 7.86638C18.2069 8.03012 18.211 8.19487 18.211 8.35962C18.211 8.95292 18.6321 9.44111 19.2313 9.525C19.5587 9.5715 19.8686 9.50277 20.1507 9.32892C20.1683 9.31578 20.1878 9.30264 20.2197 9.28243Z" fill="#00B041"/>
<path fill-rule="evenodd" clip-rule="evenodd" d="M17.336 5.61853C17.2021 5.76105 17.0848 5.88739 16.9694 6.00969C16.8325 5.95915 16.7007 5.89244 16.5607 5.86111C15.7216 5.67412 14.9731 5.83079 14.3697 6.46452C14.1 6.74753 13.9507 7.09421 13.893 7.47526C13.8652 7.65517 13.8549 7.83913 13.8549 8.02106C13.8508 8.9752 13.8528 9.92934 13.8528 10.8835C13.8528 10.9815 13.8528 10.9815 13.753 10.9815C13.6325 10.9815 13.5121 10.9795 13.3916 10.9825C13.3411 10.9835 13.3226 10.9653 13.3267 10.9188C13.3278 10.9077 13.3267 10.8956 13.3267 10.8845C13.3267 9.89093 13.3278 8.89737 13.3267 7.90381C13.3267 7.33073 13.4698 6.80009 13.8086 6.32908C14.2091 5.77217 14.762 5.44469 15.4395 5.31935C15.9666 5.22131 16.4855 5.25366 16.9869 5.44772C17.1053 5.49219 17.2134 5.55789 17.336 5.61853Z" fill="#00B041"/>
<path fill-rule="evenodd" clip-rule="evenodd" d="M16.738 6.34105C16.6577 6.49772 16.5825 6.64528 16.5084 6.78982C16.4034 6.76556 16.2994 6.7312 16.1933 6.71907C15.6888 6.66045 15.2008 6.8161 14.9383 7.29317C14.8425 7.46702 14.7972 7.65602 14.7972 7.85312C14.7962 8.86082 14.7972 9.86853 14.7972 10.8762C14.7972 10.9066 14.7972 10.9359 14.7972 10.9723C14.6211 10.9723 14.4502 10.9723 14.2721 10.9723C14.2711 10.948 14.268 10.9237 14.268 10.8995C14.268 9.87561 14.2587 8.85173 14.2711 7.82785C14.2803 7.00208 14.86 6.35823 15.6497 6.21875C15.9658 6.16316 16.2778 6.18135 16.5846 6.27636C16.6371 6.29153 16.6865 6.31882 16.738 6.34105Z" fill="#00B041"/>
<path fill-rule="evenodd" clip-rule="evenodd" d="M23.0098 2.94531C23.1858 2.94531 23.3547 2.94531 23.5307 2.94531C23.5318 2.97361 23.5349 2.99787 23.5349 3.02213C23.5349 3.90754 23.5349 4.79193 23.5359 5.67734C23.5359 5.72282 23.5215 5.75214 23.4885 5.78549C23.3464 5.92699 23.2085 6.07355 23.0695 6.21809C23.052 6.23628 23.0355 6.25447 23.0108 6.28277C23.0098 5.16389 23.0098 4.05814 23.0098 2.94531Z" fill="#00B041"/>
<path fill-rule="evenodd" clip-rule="evenodd" d="M23.9483 5.50276C23.9483 5.46435 23.9483 5.44009 23.9483 5.41482C23.9483 4.62038 23.9483 3.82594 23.9483 3.03049C23.9483 2.9375 23.9483 2.9375 24.0461 2.9375C24.1542 2.9375 24.2634 2.9375 24.3715 2.9375C24.4724 2.9375 24.4734 2.9375 24.4734 3.0406C24.4734 3.19322 24.4734 3.34685 24.4734 3.49947C24.4734 4.02506 24.4724 4.55165 24.4744 5.07723C24.4744 5.13181 24.458 5.16315 24.4085 5.19347C24.2726 5.27736 24.1429 5.37035 24.0111 5.45929C23.9946 5.47142 23.9782 5.48254 23.9483 5.50276Z" fill="#00B041"/>
</svg>
