<svg width="35" height="24" viewBox="0 0 35 24" fill="none" xmlns="http://www.w3.org/2000/svg">
<rect width="34.5" height="24" fill="white"/>
<path d="M20.8064 5.71094H13.6758V18.2901H20.8064V5.71094Z" fill="#FF5F00"/>
<path d="M14.1284 12C14.1272 10.7885 14.4069 9.59268 14.9461 8.503C15.4854 7.41331 16.2701 6.45835 17.2409 5.7104C16.0387 4.78277 14.5949 4.20588 13.0746 4.04569C11.5542 3.8855 10.0186 4.14845 8.64326 4.8045C7.26793 5.46056 6.10837 6.48325 5.29712 7.75566C4.48587 9.02808 4.05566 10.4989 4.05566 12C4.05566 13.5011 4.48587 14.9719 5.29712 16.2443C6.10837 17.5167 7.26793 18.5394 8.64326 19.1955C10.0186 19.8515 11.5542 20.1145 13.0746 19.9543C14.5949 19.7941 16.0387 19.2172 17.2409 18.2896C16.2701 17.5416 15.4854 16.5867 14.9461 15.497C14.4069 14.4073 14.1272 13.2115 14.1284 12Z" fill="#EB001B"/>
<path d="M30.426 12C30.4261 13.5011 29.9959 14.9719 29.1847 16.2443C28.3735 17.5167 27.214 18.5394 25.8387 19.1954C24.4634 19.8515 22.9278 20.1145 21.4075 19.9543C19.8871 19.7941 18.4434 19.2172 17.2412 18.2896C18.2111 17.5409 18.9952 16.5857 19.5344 15.4962C20.0736 14.4067 20.3537 13.2113 20.3537 12C20.3537 10.7887 20.0736 9.59325 19.5344 8.50374C18.9952 7.41422 18.2111 6.45911 17.2412 5.7104C18.4434 4.78276 19.8871 4.20588 21.4075 4.04569C22.9278 3.8855 24.4634 4.14846 25.8387 4.80452C27.214 5.46059 28.3735 6.48327 29.1847 7.75569C29.9959 9.02811 30.4261 10.4989 30.426 12Z" fill="#F79E1B"/>
<path d="M29.648 16.9589V16.7014H29.7538V16.6489H29.4844V16.7014H29.5902V16.9589H29.648ZM30.171 16.9589V16.6484H30.0884L29.9935 16.862L29.8985 16.6484H29.8158V16.9589H29.8741V16.7247L29.9632 16.9267H30.0237L30.1128 16.7242V16.9589H30.171Z" fill="#F79E1B"/>
</svg>
