<svg width="18" height="16" viewBox="0 0 18 16" fill="none" xmlns="http://www.w3.org/2000/svg">
<path d="M14.8333 4.66667H14V0.5H3.99996V4.66667H3.16663C1.78329 4.66667 0.666626 5.78333 0.666626 7.16667V12.1667H3.99996V15.5H14V12.1667H17.3333V7.16667C17.3333 5.78333 16.2166 4.66667 14.8333 4.66667ZM5.66663 2.16667H12.3333V4.66667H5.66663V2.16667ZM12.3333 12.1667V13.8333H5.66663V10.5H12.3333V12.1667ZM14 10.5V8.83333H3.99996V10.5H2.33329V7.16667C2.33329 6.70833 2.70829 6.33333 3.16663 6.33333H14.8333C15.2916 6.33333 15.6666 6.70833 15.6666 7.16667V10.5H14Z" fill="black"/>
</svg>
