<svg width="35" height="24" viewBox="0 0 35 24" fill="none" xmlns="http://www.w3.org/2000/svg">
<rect width="34.5001" height="24" fill="white"/>
<path d="M34.5001 0H0V24H34.5001V0Z" fill="white"/>
<path d="M11.6095 5.25269L2.65064 6.45462C2.65064 6.45462 2.25 6.49914 2.25 6.97768C2.25 7.45623 2.25 15.4914 2.25 15.4914C2.25 15.4914 2.30565 16.4819 3.4408 16.4819C4.57596 16.4819 13.5905 16.4819 13.5905 16.4819C13.5905 16.4819 14.4919 16.2593 14.4919 15.3578C14.4919 14.4564 14.4919 8.33542 14.4919 8.33542C14.4919 8.33542 14.5142 7.34494 13.3122 7.34494C12.1103 7.34494 3.51871 7.34494 3.51871 7.34494C3.51871 7.34494 3.14032 7.27817 3.04016 6.87752C3.02903 6.71059 3.08468 6.69946 3.25161 6.69946C3.41855 6.69946 12.2438 6.69946 12.2438 6.69946V5.73124C12.2438 5.73124 12.2216 5.20817 11.6095 5.25269Z" fill="#ED4C2F"/>
<path d="M8.55916 15.0376C7.81352 15.0376 7.26819 14.7371 6.46691 13.9359C6.32223 13.7912 6.32223 13.5575 6.46691 13.4128C6.61158 13.2681 6.84529 13.2681 6.98997 13.4128C7.83577 14.2586 8.23642 14.4589 8.91529 14.2809C9.3048 14.1696 9.66093 13.6688 9.68319 13.0901C9.69432 12.6449 9.38271 12.3444 8.74835 12.222C7.60206 11.9883 6.9232 11.5542 6.734 10.9199C6.5782 10.408 6.77852 9.82925 7.27932 9.3507L7.30158 9.32845C8.36997 8.43813 9.61642 9.10587 10.1283 9.57328C10.273 9.70683 10.2842 9.94054 10.1395 10.0963C10.0059 10.241 9.77222 10.2522 9.62754 10.1075C9.58303 10.063 8.62593 9.1949 7.79126 9.87377C7.5019 10.152 7.37948 10.4636 7.44626 10.6973C7.54642 11.0423 8.06948 11.3205 8.90416 11.4875C10.3287 11.7768 10.4511 12.7117 10.4288 13.1012C10.3954 13.947 9.68319 14.9041 9.01545 14.9931C8.83738 15.0265 8.69271 15.0376 8.55916 15.0376Z" fill="white"/>
<path d="M18.2752 7.28451C18.1305 7.19548 17.9635 7.11757 17.7521 7.06193C17.3737 6.95064 17.0955 6.81709 16.9731 6.63903C16.8618 6.48322 16.8618 6.2829 16.9953 6.02693C17.0732 5.87113 17.2624 5.77096 17.5073 5.75984C17.7632 5.73758 18.0748 5.80435 18.3976 5.97129C18.4755 6.0158 18.5756 5.98242 18.6202 5.89338C18.6647 5.81548 18.6313 5.71532 18.5423 5.6708C18.1639 5.47048 17.7855 5.40371 17.4739 5.42597C17.1066 5.45935 16.8284 5.61516 16.6837 5.87113C16.4723 6.26064 16.4834 6.57225 16.6837 6.83935C16.8618 7.07306 17.1956 7.26225 17.6519 7.38467C17.83 7.44032 17.9747 7.49596 18.0971 7.57386C18.2752 7.68515 18.3864 7.80757 18.4421 7.94112C18.4977 8.06354 18.4977 8.20822 18.4644 8.34176C18.4421 8.40854 18.4087 8.47531 18.3753 8.54209C18.3753 8.55322 18.3642 8.56435 18.3531 8.57547C18.2195 8.7758 17.9969 8.87596 17.7298 8.87596C17.4405 8.87596 17.0732 8.76467 16.6948 8.53096C16.6392 8.49757 16.5835 8.46418 16.539 8.4308C16.4611 8.37515 16.361 8.39741 16.3053 8.47531C16.2497 8.55322 16.2719 8.65338 16.3498 8.70902C16.4055 8.75354 16.4611 8.78693 16.5056 8.82031C16.9397 9.08741 17.3626 9.22096 17.7076 9.22096C18.086 9.22096 18.4087 9.07628 18.609 8.7758C18.609 8.76467 18.6202 8.74241 18.6424 8.73128C18.6981 8.64225 18.7426 8.54209 18.7648 8.45305C18.8205 8.25273 18.8205 8.03015 18.7314 7.82983C18.6647 7.60725 18.5089 7.42919 18.2752 7.28451Z" fill="#ED4C2F"/>
<path d="M20.835 6.92097C20.6681 6.87646 20.4678 6.87646 20.2563 6.94323C20.0671 6.99888 19.8668 7.11017 19.6776 7.26597V5.58549C19.6776 5.49646 19.5997 5.42969 19.5107 5.42969C19.4217 5.42969 19.3438 5.49646 19.3438 5.58549V9.03549C19.3438 9.12452 19.4217 9.19129 19.5107 9.19129C19.5997 9.19129 19.6776 9.12452 19.6776 9.03549V7.74452L19.6887 7.73339C19.9002 7.47742 20.1339 7.32162 20.3565 7.25484C20.5012 7.21033 20.6347 7.21033 20.7571 7.24372C20.8684 7.2771 20.9575 7.33275 21.0242 7.42178C21.091 7.51081 21.1244 7.64436 21.1244 7.80017V9.03549C21.1244 9.12452 21.2023 9.20242 21.2913 9.20242C21.3804 9.20242 21.4583 9.12452 21.4583 9.03549V7.80017C21.4583 7.57759 21.4026 7.37726 21.2913 7.23259C21.1689 7.07678 21.0131 6.96549 20.835 6.92097Z" fill="#ED4C2F"/>
<path d="M23.0943 6.89062C22.7827 6.89062 22.4822 7.02417 22.2708 7.23562C22.0593 7.44708 21.9258 7.73643 21.9258 8.05917C21.9258 8.38191 22.0593 8.67127 22.2708 8.88272C22.4822 9.09417 22.7716 9.22772 23.0943 9.22772C23.4171 9.22772 23.7064 9.09417 23.9179 8.88272C24.1293 8.67127 24.2629 8.38191 24.2629 8.05917C24.2629 7.73643 24.1293 7.44708 23.9179 7.23562C23.7064 7.02417 23.4171 6.89062 23.0943 6.89062ZM23.6842 8.63788C23.5284 8.78256 23.328 8.88272 23.0943 8.88272C22.8717 8.88272 22.6603 8.79369 22.5045 8.63788C22.3598 8.4932 22.2597 8.28175 22.2597 8.04804C22.2597 7.82546 22.3487 7.61401 22.5045 7.4582C22.6603 7.31353 22.8606 7.21337 23.0943 7.21337C23.3169 7.21337 23.5284 7.3024 23.6842 7.4582C23.8288 7.60288 23.929 7.81433 23.929 8.04804C23.929 8.27062 23.8288 8.48207 23.6842 8.63788Z" fill="#ED4C2F"/>
<path d="M25.9213 6.89062C25.5985 6.89062 25.3092 7.02417 25.0977 7.23562C25.0866 7.24675 25.0755 7.25788 25.0643 7.26901V7.05756C25.0643 6.96853 24.9864 6.89062 24.8974 6.89062C24.8084 6.89062 24.7305 6.96853 24.7305 7.05756V10.3517C24.7305 10.4408 24.8084 10.5187 24.8974 10.5187C24.9864 10.5187 25.0643 10.4408 25.0643 10.3517V8.82707C25.0755 8.8382 25.0866 8.84933 25.0977 8.86046C25.3092 9.07191 25.5985 9.20546 25.9213 9.20546C26.244 9.20546 26.5334 9.07191 26.7448 8.86046C26.9563 8.64901 27.0898 8.35965 27.0898 8.03691C27.0898 7.71417 26.9563 7.42482 26.7448 7.21337C26.5334 7.00192 26.244 6.89062 25.9213 6.89062ZM26.5 8.63788C26.3442 8.78256 26.1439 8.88272 25.9101 8.88272C25.6764 8.88272 25.4761 8.79369 25.3203 8.63788C25.1756 8.4932 25.0755 8.28175 25.0755 8.04804C25.0755 7.82546 25.1645 7.61401 25.3203 7.4582C25.4761 7.31353 25.6764 7.21337 25.9101 7.21337C26.1327 7.21337 26.3442 7.3024 26.5 7.4582C26.6447 7.60288 26.7448 7.81433 26.7448 8.04804C26.7448 8.27062 26.6558 8.48207 26.5 8.63788Z" fill="#ED4C2F"/>
<path d="M29.3822 7.1788C29.193 6.97848 28.9259 6.86719 28.6477 6.86719C28.3584 6.86719 28.1024 6.97848 27.9132 7.1788C27.5126 7.61283 27.5126 8.08025 27.6795 8.54767C27.7463 8.75912 27.9021 8.91492 28.069 9.02621C28.236 9.13751 28.4474 9.19315 28.6922 9.19315C28.926 9.19315 29.1819 9.13751 29.4601 9.01509C29.5492 8.9817 29.5826 8.88154 29.5492 8.79251C29.5158 8.70347 29.4156 8.67009 29.3266 8.70347C29.0818 8.80363 28.8703 8.85928 28.6811 8.85928C28.5142 8.85928 28.3584 8.82589 28.2471 8.74799C28.1358 8.67009 28.0468 8.56993 27.9911 8.42525C27.9577 8.33622 27.9355 8.22493 27.9132 8.11364H29.449C29.538 8.11364 29.8051 8.13589 29.6605 7.65735C29.6048 7.50154 29.5492 7.34573 29.3822 7.1788ZM27.9243 7.77977C27.9689 7.63509 28.0468 7.5238 28.1469 7.42364C28.2805 7.29009 28.4585 7.21219 28.6477 7.21219C28.8369 7.21219 29.015 7.29009 29.1485 7.42364C29.2487 7.5238 29.3155 7.64622 29.3711 7.77977H27.9243Z" fill="#ED4C2F"/>
<path d="M32.2083 7.68078C32.1527 7.51385 32.0859 7.35804 31.9301 7.20224C31.7409 7.00192 31.4738 6.89062 31.1956 6.89062C30.9174 6.89062 30.6503 7.00192 30.4611 7.20224C30.0604 7.63627 30.0604 8.10369 30.2274 8.5711C30.2941 8.78256 30.4499 8.93836 30.6169 9.04965C30.7838 9.16094 30.9953 9.21659 31.2401 9.21659C31.4738 9.21659 31.7298 9.16094 32.008 9.03852C32.097 9.00514 32.1304 8.90497 32.097 8.81594C32.0636 8.72691 31.9635 8.69352 31.8744 8.72691C31.6296 8.82707 31.4182 8.88272 31.229 8.88272C31.062 8.88272 30.9062 8.84933 30.7949 8.77143C30.6836 8.69352 30.5946 8.59336 30.539 8.44869C30.5056 8.35965 30.4833 8.24836 30.4611 8.13707H31.9969C32.0748 8.12594 32.353 8.1482 32.2083 7.68078ZM30.4722 7.79207C30.5167 7.6474 30.5946 7.53611 30.6948 7.43595C30.8283 7.3024 31.0064 7.2245 31.1956 7.2245C31.3848 7.2245 31.5628 7.3024 31.6964 7.43595C31.7965 7.53611 31.8633 7.65853 31.919 7.79207H30.4722Z" fill="#ED4C2F"/>
<path d="M18.8209 10.0391H16.417V16.4828H17.3963V14.5574H18.9321C19.4441 14.5574 19.956 14.435 20.4012 14.1679C20.9242 13.8563 21.4584 13.311 21.4584 12.3539C21.4584 11.4636 20.991 10.896 20.5013 10.551C20.0117 10.206 19.4218 10.0391 18.8209 10.0391ZM19.1325 13.5224H17.3963V10.9962H18.9655C18.9878 10.9962 19.0212 10.9962 19.0434 10.9962C19.2771 11.0184 20.3233 11.2076 20.3233 12.3205C20.3233 13.5224 19.1325 13.5224 19.1325 13.5224Z" fill="#ED4C2F"/>
<path d="M25.3315 11.8994V12.3557C24.9309 12.0329 24.4301 11.8438 23.8848 11.8438C22.6161 11.8438 21.5811 12.8787 21.5811 14.1475C21.5811 15.4162 22.6161 16.4512 23.8848 16.4512C24.4301 16.4512 24.942 16.262 25.3315 15.9392V16.4512H26.3109V11.8994H25.3315ZM23.8736 15.5942C23.0723 15.5942 22.4269 14.9487 22.4269 14.1475C22.4269 13.3462 23.0723 12.7007 23.8736 12.7007C24.6749 12.7007 25.3204 13.3462 25.3204 14.1475C25.3204 14.9487 24.6749 15.5942 23.8736 15.5942Z" fill="#ED4C2F"/>
<path d="M26.7451 11.8438H28.0472L29.583 14.7707L31.0632 11.8438H32.2428L28.7261 18.3876H27.5798L28.9153 15.9615L26.7451 11.8438Z" fill="#ED4C2F"/>
</svg>
