<svg width="24" height="8" viewBox="0 0 24 8" fill="none" xmlns="http://www.w3.org/2000/svg">
<path d="M9.11264 0.136313L5.97103 7.63284H3.92053L2.37563 1.6508C2.28052 1.28189 2.19923 1.14764 1.91405 0.990985C1.44689 0.738422 0.678469 0.501515 0 0.353953L0.0474844 0.136359H3.3465C3.76725 0.136359 4.14553 0.417 4.24064 0.900797L5.05753 5.23964L7.07522 0.136359H9.11264V0.136313ZM17.1445 5.18419C17.1536 3.20672 14.4082 3.09909 14.428 2.21442C14.4333 1.94437 14.6893 1.65863 15.2498 1.58648C15.5281 1.54945 16.2941 1.52231 17.1623 1.92089L17.5026 0.331922C17.0355 0.162375 16.435 0 15.6888 0C13.7721 0 12.4228 1.01948 12.4114 2.47819C12.3989 3.55687 13.3741 4.15884 14.1097 4.51809C14.865 4.88569 15.1176 5.12039 15.1149 5.45006C15.11 5.95322 14.5123 6.17311 13.9547 6.183C12.9795 6.19819 12.4139 5.91947 11.9621 5.70909L11.611 7.35267C12.0635 7.56042 12.9013 7.7408 13.7683 7.75144C15.8054 7.75134 17.1381 6.74273 17.1445 5.18419ZM22.206 7.63289H24L22.4346 0.136359H20.7785C20.4063 0.136359 20.0926 0.353391 19.9528 0.685875L17.0446 7.63289H19.0801L19.4842 6.51333H21.9724L22.206 7.63289ZM20.0421 4.97681L21.0633 2.16197L21.6508 4.97681H20.0421ZM11.884 0.136313L10.2795 7.63284H8.33981L9.94472 0.136313H11.884Z" fill="#1A2ADF"/>
</svg>
