<svg xmlns="http://www.w3.org/2000/svg" width="11" height="13" viewBox="0 0 11 13" fill="none">
    <path d="M9.63933 3.87978L1.365 1.12167C1.19844 1.06615 1.11516 1.03839 1.05758 1.07989C1 1.12139 1 1.20918 1 1.38475V7.28571L9.63933 4.40594C9.96562 4.29718 10.1288 4.24279 10.1288 4.14286C10.1288 4.04292 9.96562 3.98854 9.63933 3.87978Z" fill="currentColor"/>
    <path d="M1 7.28571V1.38475C1 1.20918 1 1.12139 1.05758 1.07989C1.11516 1.03839 1.19844 1.06615 1.365 1.12167L9.63933 3.87978C9.96562 3.98854 10.1288 4.04292 10.1288 4.14286C10.1288 4.24279 9.96562 4.29718 9.63933 4.40594L1 7.28571ZM1 7.28571V11.2143V12" stroke="currentColor" stroke-width="1.10924" stroke-linecap="round"/>
</svg>