<svg width="35" height="32" viewBox="0 0 35 32" fill="none" xmlns="http://www.w3.org/2000/svg">
    <path fill-rule="evenodd" clip-rule="evenodd" d="M28.3044 25.8462H33.8456C34.1862 25.8462 34.4604 26.1218 34.4604 26.4615V31.3846C34.4604 31.7243 34.1862 32 33.8456 32H0.614812C0.274196 32 0 31.7243 0 31.3846V26.4615C0 26.1218 0.274196 25.8462 0.614812 25.8462H6.15598V28.3077C5.81536 28.3077 5.54117 28.5834 5.54117 28.9231C5.54117 29.2628 5.81536 29.5385 6.15598 29.5385H6.31393C6.52993 29.9065 6.92868 30.1538 7.3856 30.1538H27.0748C27.5317 30.1538 27.9305 29.9065 28.1465 29.5385H28.3044C28.645 29.5385 28.9192 29.2628 28.9192 28.9231C28.9192 28.5834 28.645 28.3077 28.3044 28.3077V25.8462ZM25.8452 8.61539C26.867 8.61539 27.6896 9.44246 27.6896 10.4615V28.9231C27.6896 29.2628 27.4154 29.5385 27.0748 29.5385H7.3856C7.04499 29.5385 6.77079 29.2628 6.77079 28.9231V10.4615C6.77079 9.44246 7.59338 8.61539 8.61522 8.61539H25.8452ZM17.2302 11.0769C13.4917 11.0769 10.4594 14.1095 10.4594 17.8462C10.4594 21.5828 13.4917 24.6154 17.2302 24.6154C20.9687 24.6154 24.001 21.5828 24.001 17.8462C24.001 14.1095 20.9687 11.0769 17.2302 11.0769ZM17.2302 12.3077C20.2874 12.3077 22.7714 14.7889 22.7714 17.8462C22.7714 20.9034 20.2874 23.3846 17.2302 23.3846C14.173 23.3846 11.689 20.9034 11.689 17.8462C11.689 14.7889 14.173 12.3077 17.2302 12.3077ZM17.2302 18.4615C17.7868 18.4615 18.2935 18.7778 18.2935 19.2443C18.2935 19.7108 17.7868 20.0283 17.2302 20.0283C16.6736 20.0283 16.1669 19.7108 16.1669 19.2443C16.1669 18.9046 15.8927 18.6289 15.5521 18.6289C15.2115 18.6289 14.9373 18.9046 14.9373 19.2443C14.9373 20.1452 15.6351 20.9452 16.6154 21.1852V21.7625C16.6154 22.1022 16.8896 22.3778 17.2302 22.3778C17.5708 22.3778 17.845 22.1022 17.845 21.7625V21.1852C18.8253 20.9452 19.5231 20.1452 19.5231 19.2443C19.5231 18.1662 18.5262 17.2308 17.2302 17.2308C16.6736 17.2308 16.1669 16.9145 16.1669 16.448C16.1669 15.9815 16.6736 15.664 17.2302 15.664C17.7868 15.664 18.2935 15.9815 18.2935 16.448C18.2935 16.7877 18.5677 17.0634 18.9083 17.0634C19.2489 17.0634 19.5231 16.7877 19.5231 16.448C19.5231 15.5471 18.8253 14.7471 17.845 14.5071V13.9298C17.845 13.5902 17.5708 13.3145 17.2302 13.3145C16.8896 13.3145 16.6154 13.5902 16.6154 13.9298V14.5071C15.6351 14.7471 14.9373 15.5471 14.9373 16.448C14.9373 17.5262 15.9342 18.4615 17.2302 18.4615ZM16.0006 0H18.4598C18.8004 0 19.0744 0.275692 19.0744 0.615385V3.07692H20.9188C21.1847 3.07692 21.409 3.23938 21.5004 3.48308C21.5918 3.72677 21.517 3.99877 21.3176 4.16492L17.6206 7.24185C17.3963 7.43262 17.0641 7.43262 16.8398 7.24185L13.1428 4.16492C12.9434 3.99877 12.8686 3.72677 12.96 3.48308C13.0514 3.23938 13.2757 3.07692 13.5416 3.07692H15.386V0.615385C15.386 0.275692 15.66 0 16.0006 0ZM25.8452 0H28.3044C28.645 0 28.9192 0.275692 28.9192 0.615385V3.07692H30.7718C31.0293 3.07692 31.2619 3.23938 31.345 3.48308C31.4364 3.72677 31.3616 3.99877 31.1622 4.16492L27.4736 7.24185C27.241 7.43262 26.9087 7.43262 26.6844 7.24185L22.9874 4.16492C22.788 3.99877 22.7132 3.72677 22.8046 3.48308C22.896 3.23938 23.1286 3.07692 23.3862 3.07692H25.2306V0.615385C25.2306 0.275692 25.5046 0 25.8452 0ZM6.15598 0H8.61522C8.95584 0 9.22978 0.275692 9.22978 0.615385V3.07692H11.0742C11.3318 3.07692 11.5644 3.23938 11.6558 3.48308C11.7472 3.72677 11.6724 3.99877 11.473 4.16492L7.77604 7.24185C7.55173 7.43262 7.21941 7.43262 6.9868 7.24185L3.29818 4.16492C3.0988 3.99877 3.024 3.72677 3.11538 3.48308C3.19846 3.23938 3.43108 3.07692 3.68862 3.07692H5.54117V0.615385C5.54117 0.275692 5.81536 0 6.15598 0Z" fill="currentColor"/>
</svg>
