<svg width="112" height="112" viewBox="0 0 112 112" fill="none" xmlns="http://www.w3.org/2000/svg">
<path fill-rule="evenodd" clip-rule="evenodd" d="M65.6161 21C65.6161 26.5167 61.1327 31 55.6161 31C50.0994 31 45.6161 26.5167 45.6161 21C45.6161 15.4833 50.0994 11 55.6161 11C61.1327 11 65.6161 15.4833 65.6161 21ZM62.2827 21C62.2827 17.3167 59.2994 14.3333 55.6161 14.3333C51.9327 14.3333 48.9494 17.3167 48.9494 21C48.9494 24.6833 51.9327 27.6667 55.6161 27.6667C59.2994 27.6667 62.2827 24.6833 62.2827 21ZM72.6661 35.1167L82.2994 42.6167H82.3161C83.3828 43.4333 84.0661 44.6333 84.2161 45.9667C84.3828 47.3167 83.9994 48.6333 83.1494 49.6833L73.6161 61.6167C72.4828 63.0333 70.6494 63.6 68.9661 63.2V95.75C68.9661 98.65 66.6161 101 63.7161 101C61.1494 101 58.9161 99.0833 58.5328 96.5333L55.6328 77.2333L52.7328 96.5333C52.3661 99.0833 50.1328 101 47.5494 101C44.6494 101 42.2994 98.65 42.2994 95.75V63.2C41.9494 63.2833 41.5994 63.3333 41.2328 63.3333C39.8328 63.3333 38.5328 62.7 37.6494 61.6167L28.0994 49.6667C27.2494 48.6167 26.8828 47.3 27.0328 45.9667C27.1994 44.6333 27.8661 43.4333 28.9328 42.6167L38.5661 35.1167C40.5828 33.5333 43.1328 32.6667 45.7161 32.6667H65.5161C68.0994 32.6667 70.6328 33.5333 72.6661 35.1167ZM63.6994 97.6667C64.7494 97.6667 65.6161 96.8 65.6161 95.75H65.5828V61H45.5828V95.75C45.5828 96.8 46.4494 97.6667 47.4994 97.6667C48.4494 97.6667 49.2661 96.9667 49.3994 96.0333L53.9494 65.75C54.0661 64.9333 54.7661 64.3333 55.5994 64.3333C56.4328 64.3333 57.1328 64.9333 57.2494 65.75L61.7994 96.0333C61.9494 96.9667 62.7661 97.6667 63.6994 97.6667ZM70.9994 59.5333L80.5328 47.6L80.6161 47.5833C80.8994 47.2333 81.0161 46.8 80.9661 46.35C80.8994 45.9167 80.6828 45.5167 80.3328 45.25L70.6994 37.75C69.2328 36.6 67.4661 36 65.5828 36H45.7828C43.9161 36 42.1494 36.6 40.6828 37.75L31.0494 45.25C30.6828 45.5333 30.4661 45.9333 30.4161 46.3667C30.3661 46.8167 30.4828 47.25 30.7661 47.6L40.2994 59.5333C40.6994 60.0167 41.4328 60.15 41.9828 59.7833C42.2161 59.6333 42.3661 59.45 42.4494 59.2333C42.4494 59.2167 42.5328 58.9833 42.5328 58.9833C42.6161 58.6 42.5161 58.1833 42.2661 57.9L34.4161 48.75C34.0828 48.3667 33.9494 47.8333 34.0494 47.3333C34.1494 46.8167 34.4661 46.4 34.9328 46.1667L41.5994 42.8333C42.1161 42.5667 42.7328 42.6 43.2161 42.9C43.6994 43.2 43.9994 43.7333 43.9994 44.3167V54.8L44.7828 55.7167C45.2661 56.2667 45.5828 56.95 45.7494 57.65H65.5828C65.7494 56.9333 66.0661 56.2833 66.5328 55.7167L67.3161 54.8V44.3167C67.3161 43.7333 67.6161 43.2 68.0994 42.9C68.5828 42.6 69.1994 42.5833 69.7161 42.8333L76.3828 46.1667C76.8328 46.4 77.1661 46.8333 77.2661 47.3333C77.3661 47.8333 77.2328 48.3667 76.8994 48.75L69.0494 57.9C68.8494 58.1333 68.7494 58.4167 68.7494 58.7167V58.9333C68.7661 58.9667 68.8494 59.2 68.8494 59.2333C68.9328 59.4667 69.0828 59.6333 69.2994 59.7833C69.8661 60.1667 70.5828 60.05 70.9994 59.5333ZM70.6161 47.0333V50.9333L72.9661 48.2L70.6161 47.0333ZM40.6161 50.9333V47.0333L38.2661 48.2L40.6161 50.9333Z" fill="#2752E7"/>
</svg>
