<svg width="112" height="112" viewBox="0 0 112 112" fill="none" xmlns="http://www.w3.org/2000/svg">
<path d="M40.25 70C40.25 66.1325 37.1175 63 33.25 63C29.3825 63 26.25 66.1325 26.25 70C26.25 73.8675 29.3825 77 33.25 77C37.1175 77 40.25 73.8675 40.25 70ZM29.75 70C29.75 68.075 31.325 66.5 33.25 66.5C35.175 66.5 36.75 68.075 36.75 70C36.75 71.925 35.175 73.5 33.25 73.5C31.325 73.5 29.75 71.925 29.75 70Z" fill="#2752E7"/>
<path d="M22.75 70C22.75 66.1325 19.6175 63 15.75 63C11.8825 63 8.75 66.1325 8.75 70C8.75 73.8675 11.8825 77 15.75 77C19.6175 77 22.75 73.8675 22.75 70ZM12.25 70C12.25 68.075 13.825 66.5 15.75 66.5C17.675 66.5 19.25 68.075 19.25 70C19.25 71.925 17.675 73.5 15.75 73.5C13.825 73.5 12.25 71.925 12.25 70Z" fill="#2752E7"/>
<path d="M84 59.5C81.7075 59.5 79.7825 60.9875 79.065 63.035C78.96 63.035 78.855 63 78.75 63C74.8825 63 71.75 66.1325 71.75 70C71.75 73.8675 74.8825 77 78.75 77C82.6175 77 85.75 73.8675 85.75 70C85.75 69.895 85.715 69.79 85.715 69.685C87.7625 68.9675 89.25 67.0425 89.25 64.75C89.25 61.8625 86.8875 59.5 84 59.5ZM78.75 73.5C76.825 73.5 75.25 71.925 75.25 70C75.25 69.2475 75.495 68.565 75.8975 67.9875C76.7725 70.2275 78.54 71.9775 80.7625 72.8525C80.185 73.255 79.5025 73.5 78.75 73.5ZM79.0825 66.535C80.745 66.6925 82.04 68.005 82.215 69.6675C80.745 69.1425 79.6075 68.005 79.0825 66.535ZM84.6825 66.3425C84.105 65.415 83.3175 64.6275 82.39 64.0675C82.6525 63.455 83.2825 63.0175 84 63.0175C84.9625 63.0175 85.75 63.805 85.75 64.7675C85.75 65.4675 85.33 66.08 84.6825 66.36V66.3425Z" fill="#2752E7"/>
<path d="M108.5 87.5003C108.5 82.6703 104.58 78.7503 99.75 78.7503H92.75C90.825 78.7503 88.9875 79.3803 87.4825 80.5353C86.0125 79.4328 84.2275 78.7503 82.25 78.7503H75.25C73.2725 78.7503 71.47 79.4328 70 80.5528V64.7503C70.9625 64.7503 71.75 63.9628 71.75 63.0003V47.9328L86.31 31.9203C87.2725 30.8528 87.7275 29.4353 87.5525 28.0003C87.3775 26.5653 86.59 25.3053 85.4 24.5003C83.4575 23.2053 80.8325 23.4678 79.17 25.1128L79.0475 25.2353C72.7475 31.5353 64.3825 35.0003 55.475 35.0003C46.5675 35.0003 37.6075 38.3603 30.835 44.4503L25.3925 49.3503C23.59 50.9778 23.24 53.7253 24.5875 55.7553L24.6925 55.9303C25.445 57.0503 26.635 57.8203 27.965 58.0478C29.295 58.2753 30.6775 57.9428 31.7625 57.1378L40.2675 50.7503V63.0003C40.2675 63.9628 41.055 64.7503 42.0175 64.7503V80.5528C40.5475 79.4503 38.745 78.7503 36.7675 78.7503H29.7675C27.8075 78.7503 26.005 79.4328 24.535 80.5353C23.03 79.3978 21.175 78.7503 19.2675 78.7503H12.25C7.42 78.7503 3.5 82.6703 3.5 87.5003V92.7503H1.75V96.2503H110.25V92.7503H108.5V87.5003ZM21 87.5003V92.7503H7V87.5003C7 84.6128 9.3625 82.2503 12.25 82.2503H19.25C20.3175 82.2503 21.3325 82.5828 22.19 83.1778C21.455 84.4553 21 85.9253 21 87.5003ZM42 92.7503H24.5V87.5003C24.5 84.6128 26.8625 82.2503 29.75 82.2503H36.75C39.6375 82.2503 42 84.6128 42 87.5003V92.7503ZM52.92 92.7503L56 78.3478L59.08 92.7503H52.9025H52.92ZM66.5 92.7503H62.6675L57.715 69.6328C57.54 68.8278 56.8225 68.2503 56 68.2503C55.1775 68.2503 54.46 68.8278 54.285 69.6328L49.3325 92.7503H45.5V64.7503H66.5V92.7503ZM68.25 47.2503V61.2503H43.75V47.2503C43.75 46.5853 43.3825 45.9903 42.7875 45.6928C42.1925 45.3953 41.475 45.4653 40.95 45.8503L29.645 54.3378C29.33 54.5828 28.9275 54.6703 28.5425 54.6003C28.1575 54.5303 27.8075 54.3203 27.5975 53.9878L27.4925 53.8128C27.1075 53.2178 27.195 52.4303 27.72 51.9578L33.1625 47.0578C39.2875 41.5453 47.215 38.5003 55.4575 38.5003C65.2925 38.5003 74.55 34.6678 81.515 27.7028L81.6375 27.5803C82.1275 27.0903 82.88 27.0203 83.44 27.4053C83.9125 27.7203 84.035 28.1753 84.07 28.4203C84.105 28.6653 84.0875 29.1378 83.7025 29.5578L68.6875 46.0778C68.39 46.3928 68.2325 46.8128 68.2325 47.2503H68.25ZM87.5 92.7503H70V87.5003C70 84.6128 72.3625 82.2503 75.25 82.2503H82.25C85.1375 82.2503 87.5 84.6128 87.5 87.5003V92.7503ZM105 92.7503H91V87.5003C91 85.9253 90.545 84.4553 89.81 83.1778C90.6675 82.5828 91.6825 82.2503 92.75 82.2503H99.75C102.637 82.2503 105 84.6128 105 87.5003V92.7503Z" fill="#2752E7"/>
<path d="M106.75 64.75C106.75 61.8625 104.387 59.5 101.5 59.5C99.2075 59.5 97.2825 60.9875 96.565 63.035C96.46 63.035 96.355 63 96.25 63C92.3825 63 89.25 66.1325 89.25 70C89.25 73.8675 92.3825 77 96.25 77C100.118 77 103.25 73.8675 103.25 70C103.25 69.895 103.215 69.79 103.215 69.685C105.262 68.9675 106.75 67.0425 106.75 64.75ZM96.25 73.5C94.325 73.5 92.75 71.925 92.75 70C92.75 69.2475 92.995 68.565 93.3975 67.9875C94.2725 70.2275 96.04 71.9775 98.2625 72.8525C97.685 73.255 97.0025 73.5 96.25 73.5ZM96.5825 66.535C98.245 66.6925 99.54 68.005 99.715 69.6675C98.245 69.1425 97.1075 68.005 96.5825 66.535ZM102.182 66.3425C101.605 65.415 100.818 64.6275 99.89 64.0675C100.153 63.455 100.783 63.0175 101.5 63.0175C102.462 63.0175 103.25 63.805 103.25 64.7675C103.25 65.4675 102.83 66.08 102.182 66.36V66.3425Z" fill="#2752E7"/>
<path d="M64.75 24.5C64.75 19.67 60.83 15.75 56 15.75C51.17 15.75 47.25 19.67 47.25 24.5C47.25 29.33 51.17 33.25 56 33.25C60.83 33.25 64.75 29.33 64.75 24.5ZM50.75 24.5C50.75 21.6125 53.1125 19.25 56 19.25C58.8875 19.25 61.25 21.6125 61.25 24.5C61.25 27.3875 58.8875 29.75 56 29.75C53.1125 29.75 50.75 27.3875 50.75 24.5Z" fill="#2752E7"/>
</svg>
