<svg width="16" height="16" viewBox="0 0 16 16" fill="none" xmlns="http://www.w3.org/2000/svg">
<path d="M14.5018 1.92338C12.5077 -0.0708125 9.26289 -0.0708125 7.26845 1.92338L1.0682 8.12359C-0.356145 9.54809 -0.356051 11.8659 1.06839 13.2903C1.78067 14.0026 2.71598 14.3587 3.65167 14.3586C4.58711 14.3585 5.52292 14.0025 6.23507 13.2903L11.9184 7.60675C12.3325 7.19275 12.5606 6.64228 12.5606 6.05678C12.5606 5.47125 12.3327 4.92081 11.9185 4.50669C11.0638 3.65203 9.67304 3.65206 8.81848 4.50684L5.10176 8.22347C4.81642 8.50878 4.81642 8.97144 5.1017 9.25681C5.38701 9.54222 5.84967 9.54213 6.13504 9.25681L9.85179 5.54016C10.1367 5.25525 10.6002 5.25519 10.8851 5.54009C11.0231 5.67809 11.0992 5.86159 11.0992 6.05675C11.0992 6.25191 11.0232 6.43534 10.8851 6.57341L5.20173 12.2569C4.34701 13.1115 2.95639 13.1117 2.10173 12.257C1.24707 11.4023 1.24701 10.0116 2.10157 9.15684L8.30179 2.95672C9.72636 1.53222 12.0441 1.53222 13.4685 2.95672C14.1586 3.64672 14.5386 4.56419 14.5386 5.54003C14.5386 6.51588 14.1585 7.43334 13.4685 8.12341L7.26836 14.3237C6.98304 14.6091 6.98304 15.0717 7.26842 15.3571C7.41111 15.4998 7.59811 15.5711 7.78507 15.5711C7.97207 15.5711 8.15907 15.4997 8.30176 15.3571L14.5018 9.15678C15.4679 8.19075 15.9999 6.90631 16 5.54006C16 4.17384 15.4679 2.88941 14.5018 1.92338Z" fill="#FF6A68"/>
</svg>
