<svg width="16" height="16" viewBox="0 0 16 16" fill="none" xmlns="http://www.w3.org/2000/svg">
<g clip-path="url(#clip0_1729_54565)">
<path d="M14.5018 1.92399C12.5077 -0.0702022 9.26289 -0.0702022 7.26845 1.92399L1.0682 8.12421C-0.356145 9.54871 -0.356051 11.8665 1.06839 13.2909C1.78067 14.0032 2.71598 14.3593 3.65167 14.3592C4.58711 14.3591 5.52292 14.0031 6.23507 13.2909L11.9185 7.60736C12.3325 7.19336 12.5606 6.64289 12.5606 6.05739C12.5606 5.47186 12.3327 4.92142 11.9185 4.5073C11.0638 3.65264 9.67304 3.65267 8.81848 4.50745L5.10176 8.22408C4.81642 8.50939 4.81642 8.97205 5.1017 9.25742C5.38701 9.54283 5.84967 9.54274 6.13504 9.25742L9.85179 5.54077C10.1367 5.25586 10.6002 5.2558 10.8851 5.5407C11.0231 5.6787 11.0992 5.86221 11.0992 6.05736C11.0992 6.25252 11.0232 6.43595 10.8851 6.57402L5.20173 12.2575C4.34701 13.1121 2.95639 13.1123 2.10173 12.2576C1.24707 11.4029 1.24701 10.0122 2.10157 9.15745L8.30179 2.95733C9.72636 1.53283 12.0441 1.53283 13.4685 2.95733C14.1586 3.64733 14.5386 4.5648 14.5386 5.54064C14.5386 6.51649 14.1585 7.43395 13.4685 8.12402L7.26836 14.3243C6.98304 14.6097 6.98304 15.0723 7.26842 15.3577C7.41111 15.5004 7.59811 15.5717 7.78508 15.5717C7.97207 15.5717 8.15908 15.5003 8.30176 15.3577L14.5018 9.15739C15.4679 8.19136 16 6.90692 16 5.54067C16 4.17445 15.4679 2.89002 14.5018 1.92399Z" fill="#7E7E7E"/>
</g>
<defs>
<clipPath id="clip0_1729_54565">
<rect width="16" height="16" fill="white"/>
</clipPath>
</defs>
</svg>
