<svg width="8" height="10" viewBox="0 0 8 10" fill="none" xmlns="http://www.w3.org/2000/svg">
<path d="M6.16668 4.86666C6.4931 4.66789 6.76857 4.39561 6.97113 4.07152C7.17368 3.74743 7.29772 3.38051 7.33335 2.99999C7.33953 2.65592 7.27787 2.31399 7.15188 1.99375C7.0259 1.67351 6.83806 1.38122 6.59909 1.13359C6.36012 0.885953 6.07471 0.687823 5.75916 0.550512C5.44361 0.413202 5.1041 0.339402 4.76002 0.333328H0.43335V9.66666H5.10002C5.42745 9.66318 5.75099 9.59523 6.05217 9.4667C6.35334 9.33817 6.62625 9.15157 6.8553 8.91757C7.08436 8.68356 7.26507 8.40672 7.38713 8.10287C7.50919 7.79902 7.5702 7.4741 7.56668 7.14666V7.06666C7.56691 6.60474 7.4353 6.15234 7.1873 5.76263C6.9393 5.37292 6.58523 5.06209 6.16668 4.86666ZM1.76668 1.66666H4.56668C4.8508 1.65787 5.1308 1.73618 5.36913 1.8911C5.60746 2.04601 5.79271 2.27011 5.90002 2.53333C6.0086 2.88519 5.97348 3.26572 5.80234 3.59176C5.6312 3.91781 5.33795 4.16285 4.98668 4.27333C4.85027 4.3133 4.70883 4.33351 4.56668 4.33333H1.76668V1.66666ZM4.83335 8.33333H1.76668V5.66666H4.83335C5.11746 5.65787 5.39747 5.73618 5.6358 5.8911C5.87413 6.04601 6.05937 6.27011 6.16668 6.53333C6.27526 6.88519 6.24015 7.26572 6.06901 7.59176C5.89786 7.91781 5.60462 8.16285 5.25335 8.27333C5.11694 8.3133 4.9755 8.33351 4.83335 8.33333Z" fill="#7E7E7E"/>
</svg>
