<svg width="32" height="32" viewBox="0 0 32 32" fill="none" xmlns="http://www.w3.org/2000/svg">
<path d="M12.8907 20.147H11.5405V21.4972H12.8907V20.147Z" fill="#2752E7"/>
<path d="M15.0055 20.147H13.6553V21.4972H15.0055V20.147Z" fill="#2752E7"/>
<path d="M17.1212 20.147H15.771V21.4972H17.1212V20.147Z" fill="#2752E7"/>
<path d="M31.3582 0H3.98028V7.10913H0.64209V32H28.0198V24.8906H31.3582V0H31.3582ZM6.03415 2.05387H25.1755V3.79837H6.03415V2.05387ZM2.69596 9.163H21.837V10.9075H2.69596V9.163ZM25.966 29.9461H2.69596V12.9613H25.966V29.9461ZM23.8908 10.9075V9.163H25.9659V10.9075H23.8908ZM29.3043 22.8368H28.0197V7.10906H6.03415V5.85219H29.3043V22.8368H29.3043ZM29.3043 3.79831H27.2292V2.05387H29.3043V3.79831Z" fill="#2752E7"/>
</svg>
