<svg width="32" height="32" viewBox="0 0 32 32" fill="none" xmlns="http://www.w3.org/2000/svg">
<g clip-path="url(#clip0_1911_17052)">
<path d="M31.0625 7.53125H22.5859V5.66825C22.5859 3.58094 20.8878 1.88281 18.8005 1.88281H13.1996C11.1123 1.88281 9.41413 3.58094 9.41413 5.66825V7.53125H0.9375C0.41975 7.53125 0 7.951 0 8.46875V25.5C0 28.0459 2.07131 30.1172 4.61719 30.1172H27.3828C29.9287 30.1172 32 28.0459 32 25.5V8.46875C32 7.951 31.5802 7.53125 31.0625 7.53125ZM18.1272 19.7656C18.1272 20.9386 17.1729 21.8928 16 21.8928C14.8271 21.8928 13.8728 20.9386 13.8728 19.7656V17.6384H18.1272V19.7656ZM19.0647 15.7634H12.9353C12.4176 15.7634 11.9978 16.1832 11.9978 16.7009V18.4039C6.54606 17.2206 2.45925 13.6845 1.93344 9.40625H30.0665C29.5407 13.6845 25.4539 17.2206 20.0022 18.4039V16.701C20.0022 16.1832 19.5824 15.7634 19.0647 15.7634ZM11.2891 5.66825C11.2891 4.61481 12.1461 3.75781 13.1995 3.75781H18.8004C19.8538 3.75781 20.7109 4.61481 20.7109 5.66825V7.53125H11.289V5.66825H11.2891ZM30.125 25.5C30.125 27.0121 28.8948 28.2422 27.3828 28.2422H4.61719C3.10519 28.2422 1.875 27.0121 1.875 25.5V14.2409C2.63188 15.3232 3.60775 16.3226 4.78669 17.2068C6.82963 18.739 9.32369 19.8027 12.0381 20.3276C12.3122 22.2691 13.9839 23.7677 16 23.7677C18.0161 23.7677 19.6878 22.2691 19.9619 20.3276C22.6763 19.8027 25.1703 18.739 27.2133 17.2068C28.3923 16.3226 29.3681 15.3231 30.125 14.2409V25.5Z" fill="#2752E7"/>
</g>
<defs>
<clipPath id="clip0_1911_17052">
<rect width="32" height="32" fill="white"/>
</clipPath>
</defs>
</svg>
