<svg width="20" height="24" viewBox="0 0 20 24" fill="none" xmlns="http://www.w3.org/2000/svg">
<g id="Group 1000003247">
<g id="1">
<path id="Vector 4" d="M1.84888 0.701202L0.544922 2.29493V19.681L1.84888 21.1298H13.0049V19.1015L11.8459 16.3487L12.7152 14.6101L15.1782 13.5959V5.62725L9.96238 0.701202H1.84888Z" fill="white"/>
<path id="Vector 5" d="M17.3513 14.3203L15.3229 13.7408H14.019L11.8457 15.7691L12.8599 18.9566V23.1582L15.3229 22.144L17.3513 23.1582L17.6411 18.2322L18.0757 15.7691L17.3513 14.3203Z" fill="white"/>
<path id="Vector" d="M10.7533 9.68404C10.7533 9.49191 10.8296 9.30765 10.9655 9.1718C11.1013 9.03594 11.2856 8.95962 11.4777 8.95962H12.544C12.7362 8.95962 12.9204 9.03594 13.0563 9.1718C13.1921 9.30765 13.2685 9.49191 13.2685 9.68404C13.2685 9.87617 13.1921 10.0604 13.0563 10.1963C12.9204 10.3321 12.7362 10.4085 12.544 10.4085H11.4777C11.2856 10.4085 11.1013 10.3321 10.9655 10.1963C10.8296 10.0604 10.7533 9.87617 10.7533 9.68404ZM3.39608 10.4085H8.58002C8.77215 10.4085 8.95641 10.3321 9.09227 10.1963C9.22812 10.0604 9.30444 9.87617 9.30444 9.68404C9.30444 9.49191 9.22812 9.30765 9.09227 9.1718C8.95641 9.03594 8.77215 8.95962 8.58002 8.95962H3.39608C3.20395 8.95962 3.01969 9.03594 2.88384 9.1718C2.74798 9.30765 2.67166 9.49191 2.67166 9.68404C2.67166 9.87617 2.74798 10.0604 2.88384 10.1963C3.01969 10.3321 3.20395 10.4085 3.39608 10.4085ZM3.39608 13.0164H11.5704C11.7626 13.0164 11.9468 12.94 12.0827 12.8042C12.2185 12.6683 12.2948 12.4841 12.2948 12.2919C12.2948 12.0998 12.2185 11.9156 12.0827 11.7797C11.9468 11.6439 11.7626 11.5675 11.5704 11.5675H3.39608C3.20395 11.5675 3.01969 11.6439 2.88384 11.7797C2.74798 11.9156 2.67166 12.0998 2.67166 12.2919C2.67166 12.4841 2.74798 12.6683 2.88384 12.8042C3.01969 12.94 3.20395 13.0164 3.39608 13.0164ZM8.70173 14.1754H3.39608C3.20395 14.1754 3.01969 14.2518 2.88384 14.3876C2.74798 14.5235 2.67166 14.7077 2.67166 14.8999C2.67166 15.092 2.74798 15.2762 2.88384 15.4121C3.01969 15.548 3.20395 15.6243 3.39608 15.6243H8.70173C8.89386 15.6243 9.07811 15.548 9.21397 15.4121C9.34982 15.2762 9.42615 15.092 9.42615 14.8999C9.42615 14.7077 9.34982 14.5235 9.21397 14.3876C9.07811 14.2518 8.89386 14.1754 8.70173 14.1754ZM8.70173 16.7833H3.39608C3.20395 16.7833 3.01969 16.8597 2.88384 16.9955C2.74798 17.1314 2.67166 17.3156 2.67166 17.5078C2.67166 17.6999 2.74798 17.8842 2.88384 18.02C3.01969 18.1559 3.20395 18.2322 3.39608 18.2322H8.70173C8.89386 18.2322 9.07811 18.1559 9.21397 18.02C9.34982 17.8842 9.42615 17.6999 9.42615 17.5078C9.42615 17.3156 9.34982 17.1314 9.21397 16.9955C9.07811 16.8597 8.89386 16.7833 8.70173 16.7833ZM12.2514 23.2799V21.7384H2.28337C1.67852 21.7376 1.09862 21.4972 0.670652 21.0698C0.242686 20.6424 0.00153273 20.0628 0 19.4579V2.28337C0.000766755 1.67802 0.241582 1.09768 0.669631 0.669631C1.09768 0.241582 1.67802 0.000766755 2.28337 0H10.4925C10.589 0.000302401 10.6845 0.0196558 10.7735 0.0569498C10.8625 0.0942439 10.9433 0.148745 11.0112 0.217326L15.7315 5.03037C15.7975 5.09717 15.8497 5.17636 15.885 5.26339C15.9203 5.35041 15.938 5.44355 15.9372 5.53746V12.7498C16.591 12.875 17.201 13.1682 17.7071 13.6005C18.2133 14.0328 18.5983 14.5894 18.8242 15.2155C19.0502 15.8416 19.1094 16.5158 18.9959 17.1717C18.8824 17.8276 18.6003 18.4427 18.1771 18.9566V23.2741C18.1771 23.4015 18.1436 23.5266 18.0801 23.6369C18.0165 23.7473 17.9251 23.839 17.8149 23.9029C17.704 23.9657 17.5787 23.9986 17.4513 23.9986C17.3238 23.9986 17.1985 23.9657 17.0876 23.9029L15.4997 22.9815C15.4116 22.9306 15.3116 22.9038 15.2099 22.9038C15.1082 22.9038 15.0082 22.9306 14.9201 22.9815L13.3293 23.9029C13.2191 23.9666 13.094 24.0001 12.9668 24C12.8395 23.9999 12.7144 23.9663 12.6043 23.9026C12.4941 23.8388 12.4027 23.7472 12.3392 23.6369C12.2757 23.5265 12.2424 23.4014 12.2427 23.2741L12.2514 23.2799ZM16.7283 22.0252V20.049C16.2502 20.2555 15.735 20.362 15.2143 20.362C14.6935 20.362 14.1783 20.2555 13.7002 20.049V22.0252L14.2015 21.7355C14.5099 21.5575 14.8597 21.4637 15.2157 21.4637C15.5718 21.4637 15.9215 21.5575 16.2299 21.7355L16.7283 22.0252ZM15.2128 14.1291C14.7393 14.1291 14.2764 14.2695 13.8828 14.5327C13.4891 14.7958 13.1823 15.1698 13.0012 15.6073C12.8202 16.0448 12.7729 16.5262 12.8655 16.9906C12.9581 17.4549 13.1864 17.8814 13.5214 18.216C13.8564 18.5506 14.2832 18.7784 14.7476 18.8704C15.2121 18.9624 15.6935 18.9146 16.1308 18.733C16.5681 18.5514 16.9417 18.2442 17.2043 17.8502C17.467 17.4562 17.6069 16.9932 17.6063 16.5197C17.6055 15.8854 17.353 15.2773 16.9042 14.8291C16.4555 14.3808 15.8471 14.1291 15.2128 14.1291ZM11.1242 3.98721C11.1242 4.20854 11.2121 4.4208 11.3686 4.57731C11.5251 4.73381 11.7374 4.82174 11.9587 4.82174H13.4887L11.1242 2.41087V3.98721ZM12.2514 20.2895V18.9566C11.8277 18.4427 11.545 17.8273 11.431 17.1711C11.3171 16.5148 11.3758 15.8402 11.6014 15.2135C11.8271 14.5868 12.2119 14.0296 12.7181 13.5967C13.2242 13.1637 13.8343 12.8698 14.4884 12.744V6.26188H11.9587C11.3536 6.26035 10.7737 6.01929 10.3458 5.59141C9.91794 5.16352 9.67688 4.58363 9.67535 3.97851V1.44884H2.28337C2.06227 1.4496 1.85045 1.53777 1.69411 1.69411C1.53777 1.85045 1.4496 2.06227 1.44884 2.28337V19.4579C1.45036 19.6785 1.53887 19.8896 1.69513 20.0453C1.85138 20.201 2.06277 20.2888 2.28337 20.2895H12.2514Z" fill="#2752E7"/>
</g>
</g>
</svg>
