<svg width="16" height="16" viewBox="0 0 16 16" fill="none" xmlns="http://www.w3.org/2000/svg">
<path d="M7.33337 11.3333H4.66671C3.78265 11.3333 2.93481 10.9821 2.30968 10.357C1.68456 9.73191 1.33337 8.88406 1.33337 8C1.33337 7.11595 1.68456 6.2681 2.30968 5.64298C2.93481 5.01786 3.78265 4.66667 4.66671 4.66667H7.33337V6.00001H4.66671C4.13627 6.00001 3.62757 6.21072 3.25249 6.58579C2.87742 6.96086 2.66671 7.46957 2.66671 8C2.66671 8.53044 2.87742 9.03915 3.25249 9.41422C3.62757 9.78929 4.13627 10 4.66671 10H7.33337V11.3333ZM11.3334 4.66667H8.66671V6.00001H11.3334C11.8638 6.00001 12.3725 6.21072 12.7476 6.58579C13.1227 6.96086 13.3334 7.46957 13.3334 8C13.3334 8.53044 13.1227 9.03915 12.7476 9.41422C12.3725 9.78929 11.8638 10 11.3334 10H8.66671V11.3333H11.3334C12.2174 11.3333 13.0653 10.9821 13.6904 10.357C14.3155 9.73191 14.6667 8.88406 14.6667 8C14.6667 7.11595 14.3155 6.2681 13.6904 5.64298C13.0653 5.01786 12.2174 4.66667 11.3334 4.66667ZM10.6667 7.33334H5.33337V8.66667H10.6667V7.33334Z" fill="#7E7E7E"/>
</svg>
