<svg width="24" height="24" viewBox="0 0 24 24" fill="none" xmlns="http://www.w3.org/2000/svg">
<g id="data-processing (1) 1">
<g id="XMLID_92_">
<path id="XMLID_98_" d="M12.0668 19.9587C8.6738 19.9587 5.71595 17.793 4.64412 14.6688L5.51741 15.0499L5.98712 13.9733L3.55482 12.9121L2 15.2449L2.97736 15.8963L3.53591 15.0583C4.77054 18.6466 8.16897 21.1333 12.0669 21.1333C16.4219 21.1333 20.1536 18.0296 20.94 13.7533L19.7848 13.5408C19.1009 17.2596 15.855 19.9587 12.0668 19.9587Z" fill="#F79E1B"/>
<path id="XMLID_99_" d="M12.0674 4.17457C15.4268 4.17457 18.3767 6.3173 19.4667 9.40736L18.4299 8.98127L17.9834 10.0677L20.5765 11.1334L22.0005 8.89416L21.0094 8.2638L20.5588 8.9723C19.293 5.44311 15.9134 3 12.0674 3C7.75678 3 4.03187 6.06638 3.21045 10.2912L4.36341 10.5154C5.07778 6.84128 8.3178 4.17457 12.0674 4.17457Z" fill="#F79E1B"/>
<path id="XMLID_105_" d="M7.95166 17.6087H16.1788V7.96657L14.776 6.58398H7.95166V17.6087ZM10.7229 12.6836V11.509H13.4103V12.6836H10.7229ZM13.4103 13.99V15.1646H10.7229V13.99H13.4103ZM10.7229 10.2026V9.02807H13.4103V10.2026H10.7229Z" fill="#F79E1B"/>
</g>
</g>
</svg>
