<svg width="32" height="32" viewBox="0 0 32 32" fill="none" xmlns="http://www.w3.org/2000/svg">
    <path d="M8 11.15H9.86667H17.3333H24.8" stroke="#7A7A7A" stroke-width="1.5" stroke-linecap="round"
          stroke-linejoin="round"/>
    <path d="M13.1998 11.2V9.6C13.1998 9.17565 13.3684 8.76869 13.6684 8.46863C13.9685 8.16857 14.3755 8 14.7998 8H17.9998C18.4242 8 18.8311 8.16857 19.1312 8.46863C19.4312 8.76869 19.5998 9.17565 19.5998 9.6V11.2M21.9998 11.2V22.4C21.9998 22.8243 21.8312 23.2313 21.5312 23.5314C21.2311 23.8314 20.8242 24 20.3998 24H12.3998C11.9755 24 11.5685 23.8314 11.2684 23.5314C10.9684 23.2313 10.7998 22.8243 10.7998 22.4V11.2H21.9998Z"
          stroke="#7A7A7A" stroke-width="1.5" stroke-linecap="round" stroke-linejoin="round"/>
    <path d="M18.0322 15V20.6" stroke="#7A7A7A" stroke-width="1.5" stroke-linecap="round" stroke-linejoin="round"/>
    <path d="M14.2998 15V20.6" stroke="#7A7A7A" stroke-width="1.5" stroke-linecap="round" stroke-linejoin="round"/>
</svg>