<svg xmlns="http://www.w3.org/2000/svg" width="17" height="20" viewBox="0 0 17 20" fill="none">
    <path d="M5.48294 15.02L1.27085 16.4056L2.40008 12.1207L12.8333 1.0882C12.8898 1.03173 12.9665 1 13.0464 1C13.1263 1 13.2029 1.03173 13.2594 1.0882L15.8989 3.58914C15.928 3.61596 15.9516 3.64827 15.9682 3.68421C15.9848 3.72014 15.9942 3.75901 15.9958 3.79858C15.9975 3.83815 15.9912 3.87764 15.9776 3.91481C15.9639 3.95198 15.9431 3.98609 15.9162 4.0152L5.48294 15.02Z" stroke="black" stroke-linecap="round" stroke-linejoin="round"/>
    <path d="M11.1696 2.84424L14.2524 5.75737" stroke="black" stroke-linecap="round" stroke-linejoin="round"/>
    <path d="M1.68775 14.8467L2.81006 15.9066" stroke="black" stroke-linecap="round" stroke-linejoin="round"/>
    <path d="M0.403356 19H13.2163" stroke="black" stroke-linejoin="round"/>
</svg>