<svg width="16" height="17" viewBox="0 0 16 17" fill="none" xmlns="http://www.w3.org/2000/svg">
<path fill-rule="evenodd" clip-rule="evenodd" d="M8.37302 9.97247C8.15161 10.1357 7.84839 10.1357 7.62698 9.97247L1.25 5.26975V4.35897C1.25 4.01676 1.52983 3.73932 1.875 3.73932H14.125C14.4702 3.73932 14.75 4.01676 14.75 4.35897V5.26975L8.37302 9.97247ZM9.11905 10.9669L16 5.89249V4.35897C16 3.3323 15.1605 2.5 14.125 2.5H1.875C0.839479 2.5 5.36442e-07 3.3323 5.36442e-07 4.35897V5.89249L6.88095 10.9669C7.54517 11.4567 8.45482 11.4567 9.11905 10.9669Z" fill="#2752E7"/>
<path d="M14.75 8.35884V13.5299C14.75 13.8716 14.4696 14.1496 14.125 14.1496H1.875C1.53038 14.1496 1.25 13.8716 1.25 13.5299V8.35884L0 7.43704V13.5299C0 14.555 0.841125 15.3889 1.875 15.3889H14.125C15.1589 15.3889 16 14.555 16 13.5299V7.43704L14.75 8.35884Z" fill="#2752E7"/>
</svg>
