<svg width="101" height="85" viewBox="0 0 101 85" fill="none" xmlns="http://www.w3.org/2000/svg">
<path fill-rule="evenodd" clip-rule="evenodd" d="M99.1809 29.3819V50.9737C99.1809 50.9737 99.2727 72.2688 93.2301 82.4524C93.0777 82.6868 92.8203 82.8278 92.5432 82.8278C86.2695 82.8327 49.0252 82.8327 38.6121 82.8327C38.3252 82.8327 38.0596 82.6836 37.9104 82.4377C37.7629 82.1934 37.7531 81.8885 37.8859 81.6344C37.8924 81.6229 37.8973 81.6098 37.9023 81.5983C41.6055 73.5754 42.8547 61.2737 43.2563 54.9836C43.2859 54.5311 42.9416 54.1426 42.4908 54.1131C42.04 54.0836 41.6498 54.4278 41.6203 54.8787C41.2285 61.0213 40.0383 73.0327 36.4285 80.8803C36.035 81.6557 36.0678 82.559 36.5088 83.2868C36.9547 84.0229 37.7514 84.4721 38.6104 84.4721C49.0252 84.4721 86.2711 84.4721 92.5432 84.4672C93.3842 84.4672 94.1662 84.036 94.617 83.3245C94.6203 83.3196 94.6252 83.3131 94.6285 83.3065C100.847 72.8541 100.82 50.9688 100.82 50.9688V29.3819C100.82 28.9295 100.453 28.5623 100.001 28.5623C99.5481 28.5623 99.1809 28.9295 99.1809 29.3819Z" fill="#CCCCCC"/>
<path fill-rule="evenodd" clip-rule="evenodd" d="M41.8027 5.65067V6.74739C41.8027 6.8064 41.8093 6.86378 41.8208 6.91952C41.8404 7.01624 41.8749 7.09657 41.9191 7.16706L41.9306 7.18837C42.0765 7.41624 42.3322 7.56706 42.6224 7.56706C42.6224 7.56706 43.4421 7.49985 43.4421 6.73263V5.65067C43.4421 5.19821 43.8093 4.83099 44.2618 4.83099H76.4044C76.8568 4.83099 77.224 4.46378 77.224 4.01132C77.224 3.55886 76.8568 3.19165 76.4044 3.19165C76.4044 3.19165 51.024 3.19165 44.2618 3.19165C42.9044 3.19165 41.8027 4.29329 41.8027 5.65067Z" fill="#CCCCCC"/>
<path fill-rule="evenodd" clip-rule="evenodd" d="M99.6976 25.582C100.022 25.7099 100.391 25.6181 100.619 25.3558C100.847 25.0918 100.883 24.7148 100.711 24.4115C96.0862 16.3279 89.7501 9.31314 81.7239 3.35412C81.4501 3.15085 81.0796 3.13773 80.7927 3.32134C80.5075 3.50494 80.3632 3.84757 80.4337 4.18035C81.6419 9.95248 82.2354 15.7935 81.6501 21.7656C81.5698 22.5181 81.8468 23.2705 82.3993 23.7967C82.9534 24.323 83.719 24.5623 84.4731 24.4426C89.7304 23.6312 94.8583 23.6705 99.6976 25.582Z" fill="#2752E7"/>
<path fill-rule="evenodd" clip-rule="evenodd" d="M32.3671 12.5476C38.9507 10.3148 46.5277 11.8213 51.772 17.0656C57.9343 23.2279 58.9359 32.6099 54.7753 39.8181C54.6605 40.0181 54.6343 40.2558 54.7031 40.4754L57.2851 48.6607C57.3195 48.7722 57.29 48.8918 57.208 48.9738L56.9884 49.1935C56.9244 49.2558 56.831 49.2787 56.7458 49.2525L48.5195 46.6574C48.2998 46.5886 48.0621 46.6148 47.8638 46.7295C40.6556 50.8902 31.2736 49.8902 25.1113 43.7279C17.7539 36.3705 17.7539 24.423 25.1113 17.0656C25.431 16.7459 25.431 16.2263 25.1113 15.9066C24.79 15.5869 24.272 15.5869 23.9507 15.9066C15.9539 23.9033 15.9539 36.8885 23.9507 44.8869C30.5605 51.4951 40.5753 52.6426 48.3671 48.3279L56.2523 50.8164C56.9212 51.0263 57.6523 50.8476 58.1474 50.3525L58.3671 50.1328C58.8818 49.6181 59.0671 48.8607 58.8474 48.1689L56.3736 40.3213C60.6867 32.5312 59.5392 22.5148 52.931 15.9066C47.231 10.2066 38.9966 8.56888 31.8408 10.9951C31.413 11.1394 31.1818 11.6066 31.3277 12.0345C31.4736 12.4623 31.9392 12.6935 32.3671 12.5476Z" fill="#CCCCCC"/>
<path fill-rule="evenodd" clip-rule="evenodd" d="M34.9731 24.7623C34.937 23.2 35.5223 22.059 36.4288 21.3902C37.8518 20.341 39.9764 20.3852 41.1305 21.6852C41.6272 22.2443 41.9141 23.0344 41.9223 24.0344C41.9419 26.4328 40.8157 27.8344 39.7157 29.2852C38.2337 31.241 36.7534 33.2508 36.5698 36.6082C36.5206 37.5115 37.2141 38.2836 38.1174 38.3328C39.0206 38.382 39.7944 37.6885 39.8436 36.7852C39.9829 34.2361 41.2026 32.7508 42.3288 31.2656C43.837 29.277 45.2272 27.2934 45.201 24.0082C45.1846 22.077 44.5403 20.5869 43.5829 19.5082C41.3452 16.9902 37.2387 16.718 34.4829 18.7508C32.8305 19.9705 31.6288 21.9902 31.696 24.8393C31.7174 25.7443 32.4682 26.4623 33.3731 26.4393C34.278 26.418 34.9944 25.6672 34.9731 24.7623Z" fill="#2752E7"/>
<path d="M38.0515 44.4212C39.1652 44.4212 40.0679 43.5184 40.0679 42.4048C40.0679 41.2912 39.1652 40.3884 38.0515 40.3884C36.9379 40.3884 36.0352 41.2912 36.0352 42.4048C36.0352 43.5184 36.9379 44.4212 38.0515 44.4212Z" fill="#2752E7"/>
<path fill-rule="evenodd" clip-rule="evenodd" d="M18.3884 3.49832L24.9458 11.7475C25.5097 12.4557 26.5409 12.5737 27.2491 12.0114C27.9572 11.4491 28.0753 10.4164 27.513 9.70815L20.9556 1.45897C20.3917 0.750776 19.3605 0.632744 18.6523 1.19504C17.9441 1.75897 17.8261 2.79012 18.3884 3.49832Z" fill="#2752E7"/>
<path fill-rule="evenodd" clip-rule="evenodd" d="M0.823009 7.60148L17.9574 17.4376C18.741 17.8884 19.7443 17.6179 20.1951 16.8326C20.646 16.0474 20.3738 15.0457 19.5886 14.5949L2.4558 4.75886C1.67055 4.30804 0.66891 4.57853 0.218091 5.36378C-0.232729 6.14903 0.0377628 7.15066 0.823009 7.60148Z" fill="#2752E7"/>
<path fill-rule="evenodd" clip-rule="evenodd" d="M3.27802 25.8524H14.7534C15.6583 25.8524 16.3928 25.118 16.3928 24.2131C16.3928 23.3082 15.6583 22.5737 14.7534 22.5737H3.27802C2.3731 22.5737 1.63867 23.3082 1.63867 24.2131C1.63867 25.118 2.3731 25.8524 3.27802 25.8524Z" fill="#2752E7"/>
</svg>
