<svg width="20" height="20" viewBox="0 0 20 20" fill="none" xmlns="http://www.w3.org/2000/svg">
<path d="M2.38244 2.39749L12.8574 0.901653C12.9166 0.89317 12.9768 0.897503 13.0341 0.914345C13.0914 0.931186 13.1444 0.960145 13.1895 0.999261C13.2347 1.03839 13.2708 1.08674 13.2957 1.14108C13.3204 1.1954 13.3333 1.25443 13.3333 1.31415V18.6858C13.3333 18.7454 13.3204 18.8044 13.2957 18.8587C13.2709 18.9129 13.2348 18.9613 13.1898 19.0003C13.1448 19.0394 13.0918 19.0684 13.0347 19.0853C12.9775 19.1023 12.9173 19.1067 12.8583 19.0983L2.3816 17.6025C2.18295 17.5742 2.00119 17.4752 1.86968 17.3236C1.73818 17.1721 1.66578 16.9782 1.66577 16.7775V3.22249C1.66578 3.02183 1.73818 2.82791 1.86968 2.67635C2.00119 2.5248 2.18295 2.42578 2.3816 2.39749H2.38244ZM3.33327 3.94582V16.0542L11.6666 17.245V2.75499L3.33327 3.94582ZM14.1666 15.8333H16.6666V4.16665H14.1666V2.49999H17.4999C17.7209 2.49999 17.9329 2.58779 18.0892 2.74406C18.2455 2.90034 18.3333 3.1123 18.3333 3.33332V16.6667C18.3333 16.8877 18.2455 17.0996 18.0892 17.2559C17.9329 17.4122 17.7209 17.5 17.4999 17.5H14.1666V15.8333ZM8.49992 10L10.8333 13.3333H8.83326L7.49994 11.4283L6.1666 13.3333H4.1666L6.49994 10L4.1666 6.66665H6.1666L7.49994 8.57168L8.83326 6.66665H10.8333L8.49992 10Z" fill="#2752E7"/>
</svg>
