<svg width="24" height="24" viewBox="0 0 24 24" fill="none" xmlns="http://www.w3.org/2000/svg">
<rect width="24" height="24" rx="12" fill="white"/>
<path d="M5.33325 15.9997H9.99992V17.333H5.33325V15.9997ZM5.33325 11.333H11.3333V12.6664H5.33325V11.333ZM5.33325 6.66638H18.6666V7.99972H5.33325V6.66638ZM17.7826 12.683L18.5533 12.4224L19.2199 13.577L18.6093 14.1137C18.6861 14.4782 18.6861 14.8546 18.6093 15.219L19.2199 15.7557L18.5533 16.9104L17.7826 16.6497C17.5093 16.8964 17.1839 17.0864 16.8259 17.203L16.6666 17.9997H15.3333L15.1733 17.2024C14.8195 17.0868 14.4938 16.8982 14.2173 16.649L13.4466 16.9104L12.7799 15.7557L13.3906 15.219C13.3137 14.8546 13.3137 14.4782 13.3906 14.1137L12.7799 13.577L13.4466 12.4224L14.2173 12.683C14.4906 12.4364 14.8159 12.2464 15.1739 12.1297L15.3333 11.333H16.6666L16.8266 12.1304C17.1839 12.2464 17.5093 12.437 17.7826 12.6837V12.683ZM15.9999 15.9997C16.3535 15.9997 16.6927 15.8592 16.9427 15.6092C17.1928 15.3591 17.3333 15.02 17.3333 14.6664C17.3333 14.3128 17.1928 13.9736 16.9427 13.7236C16.6927 13.4735 16.3535 13.333 15.9999 13.333C15.6463 13.333 15.3072 13.4735 15.0571 13.7236C14.8071 13.9736 14.6666 14.3128 14.6666 14.6664C14.6666 15.02 14.8071 15.3591 15.0571 15.6092C15.3072 15.8592 15.6463 15.9997 15.9999 15.9997Z" fill="black"/>
</svg>
