<svg width="32" height="32" viewBox="0 0 32 32" fill="none" xmlns="http://www.w3.org/2000/svg">
<g clip-path="url(#clip0_641_41598)">
<mask id="mask0_641_41598" style="mask-type:luminance" maskUnits="userSpaceOnUse" x="0" y="0" width="32" height="32">
<path d="M0 0V32H12.25V31.4792C10.0009 30.4988 8.5 28.2652 8.5 25.75V20.75C8.5 18.2348 10.0009 16.0012 12.25 15.0208V13.25H19.75V15.0208C21.9991 16.0012 23.5 18.2348 23.5 20.75V25.75C23.5 28.2652 21.9991 30.4987 19.75 31.4792V32H32V0H0Z" fill="white"/>
</mask>
<g mask="url(#mask0_641_41598)">
<path fill-rule="evenodd" clip-rule="evenodd" d="M3.75 2.5C3.05967 2.5 2.5 3.05967 2.5 3.75C2.5 4.44033 3.05967 5 3.75 5H24.5V2.5H3.75ZM27 5V0H3.75C1.67896 0 0 1.67896 0 3.75V25.75C0 27.821 1.67896 29.5 3.75 29.5H32V5H27ZM2.5 7.28661V25.75C2.5 26.4403 3.05967 27 3.75 27H29.5V7.5H3.75C3.31171 7.5 2.89097 7.42481 2.5 7.28661ZM27 16V20.5H24.5V16H27Z" fill="#2752E7"/>
</g>
<path fill-rule="evenodd" clip-rule="evenodd" d="M17.25 17V14.5H14.75V17C12.679 17 11 18.679 11 20.75C11 22.821 12.679 24.5 14.75 24.5H17.25C17.9403 24.5 18.5 25.0597 18.5 25.75C18.5 26.4403 17.9403 27 17.25 27H14.75C14.0597 27 13.5 26.4403 13.5 25.75H11C11 27.821 12.679 29.5 14.75 29.5V32H17.25V29.5C19.321 29.5 21 27.821 21 25.75C21 23.679 19.321 22 17.25 22H14.75C14.0597 22 13.5 21.4403 13.5 20.75C13.5 20.0597 14.0597 19.5 14.75 19.5H17.25C17.9403 19.5 18.5 20.0597 18.5 20.75H21C21 18.679 19.321 17 17.25 17Z" fill="#2752E7"/>
</g>
<defs>
<clipPath id="clip0_641_41598">
<rect width="32" height="32" fill="white"/>
</clipPath>
</defs>
</svg>
