<svg width="12" height="10" viewBox="0 0 12 10" fill="none" xmlns="http://www.w3.org/2000/svg">
<path d="M7.0333 9.66666H8.36664L5.0333 0.333328H3.69997L0.366638 9.66666H1.69997L2.6333 7H6.0333L7.0333 9.66666ZM3.09997 5.66666L4.36664 2.2L5.6333 5.66666H3.09997ZM11.6333 8.66666C11.6333 8.86444 11.5747 9.05778 11.4648 9.22223C11.3549 9.38668 11.1987 9.51485 11.016 9.59054C10.8333 9.66623 10.6322 9.68603 10.4382 9.64745C10.2442 9.60886 10.066 9.51362 9.9262 9.37377C9.78634 9.23392 9.6911 9.05573 9.65252 8.86175C9.61393 8.66777 9.63374 8.46671 9.70942 8.28398C9.78511 8.10125 9.91328 7.94507 10.0777 7.83519C10.2422 7.72531 10.4355 7.66666 10.6333 7.66666C10.8985 7.66666 11.1529 7.77202 11.3404 7.95956C11.5279 8.14709 11.6333 8.40145 11.6333 8.66666ZM11.6333 6C11.6333 6.19778 11.5747 6.39112 11.4648 6.55556C11.3549 6.72001 11.1987 6.84819 11.016 6.92387C10.8333 6.99956 10.6322 7.01937 10.4382 6.98078C10.2442 6.9422 10.066 6.84695 9.9262 6.7071C9.78634 6.56725 9.6911 6.38907 9.65252 6.19509C9.61393 6.0011 9.63374 5.80004 9.70942 5.61731C9.78511 5.43459 9.91328 5.27841 10.0777 5.16853C10.2422 5.05864 10.4355 5 10.6333 5C10.8985 5 11.1529 5.10535 11.3404 5.29289C11.5279 5.48042 11.6333 5.73478 11.6333 6ZM11.6333 3.33333C11.6333 3.53111 11.5747 3.72445 11.4648 3.8889C11.3549 4.05335 11.1987 4.18152 11.016 4.25721C10.8333 4.3329 10.6322 4.3527 10.4382 4.31411C10.2442 4.27553 10.066 4.18029 9.9262 4.04044C9.78634 3.90058 9.6911 3.7224 9.65252 3.52842C9.61393 3.33444 9.63374 3.13337 9.70942 2.95064C9.78511 2.76792 9.91328 2.61174 10.0777 2.50186C10.2422 2.39198 10.4355 2.33333 10.6333 2.33333C10.8985 2.33333 11.1529 2.43868 11.3404 2.62622C11.5279 2.81376 11.6333 3.06811 11.6333 3.33333Z" fill="#7E7E7E"/>
</svg>
