<svg width="72" height="72" viewBox="0 0 72 72" fill="none" xmlns="http://www.w3.org/2000/svg">
<g clip-path="url(#clip0_772_35917)">
<rect width="72" height="72" fill="white"/>
<path d="M36 0C16.1499 0 0 16.1499 0 36C0 55.8501 16.1499 72 36 72C55.8501 72 72 55.8501 72 36C72 16.1499 55.8501 0 36 0ZM36 10.5C45.5112 10.5 53.25 18.2388 53.25 27.7501C53.25 37.2614 45.5112 45 36 45C26.4888 45 18.75 37.2613 18.75 27.75C18.75 18.2386 26.4888 10.5 36 10.5ZM36 66C26.1975 66 17.505 61.2532 12.0272 53.9603C18.0285 51.0727 26.5989 48 36 48C45.4018 48 53.9729 51.0732 59.9729 53.9601C54.4951 61.253 45.8027 66 36 66Z" fill="#7E7E7E"/>
</g>
<defs>
<clipPath id="clip0_772_35917">
<rect width="72" height="72" fill="white"/>
</clipPath>
</defs>
</svg>
