<svg width="20" height="20" viewBox="0 0 20 20" fill="none" xmlns="http://www.w3.org/2000/svg">
<path fill-rule="evenodd" clip-rule="evenodd" d="M2 9.99983C2 5.58875 5.5887 2 9.99978 2C14.4109 2 17.9996 5.58875 17.9996 9.99983C17.9996 14.4109 14.4109 17.9996 9.99978 17.9996C5.5887 17.9996 2 14.4109 2 9.99983ZM10.0005 14.6058C9.46595 14.6058 9.03106 14.1706 9.03106 13.6357C9.03106 13.1013 9.46595 12.6665 10.0005 12.6665C10.5351 12.6665 10.97 13.1013 10.97 13.6357C10.97 14.1706 10.5351 14.6058 10.0005 14.6058ZM10.0015 11.2123C9.59984 11.2123 9.27422 10.8866 9.27422 10.485V6.12148C9.27422 5.71984 9.59984 5.39423 10.0015 5.39423C10.4031 5.39423 10.7287 5.71984 10.7287 6.12148V10.485C10.7287 10.8866 10.4031 11.2123 10.0015 11.2123Z" fill="#F4333D"/>
</svg>
