<svg width="14" height="12" viewBox="0 0 14 12" fill="none" xmlns="http://www.w3.org/2000/svg">
<path d="M8.46671 5.33334L11 8.66667H3.00004L5.00004 6.06667L6.40004 7.86667L8.33337 5.33334H8.46671ZM4.66671 5.33334C5.20004 5.33334 5.66671 4.86667 5.66671 4.33334C5.66671 3.8 5.20004 3.33334 4.66671 3.33334C4.13337 3.33334 3.66671 3.8 3.66671 4.33334C3.66671 4.86667 4.13337 5.33334 4.66671 5.33334ZM13.6667 2.00001V10C13.6667 10.7333 13.0667 11.3333 12.3334 11.3333H1.66671C0.933374 11.3333 0.333374 10.7333 0.333374 10V2.00001C0.333374 1.26667 0.933374 0.666672 1.66671 0.666672H12.3334C13.0667 0.666672 13.6667 1.26667 13.6667 2.00001ZM12.3334 3.86667V2.00001H1.66671V10H12.3334V3.86667Z" fill="#7E7E7E"/>
</svg>
