<svg width="24" height="24" viewBox="0 0 24 24" fill="none" xmlns="http://www.w3.org/2000/svg">
<g id="Outline/Status/Info-triangle">
<g id="Icon">
<path d="M12.9998 9.00054C12.9998 9.55282 12.5521 10.0005 11.9998 10.0005C11.4475 10.0005 10.9998 9.55282 10.9998 9.00054C10.9998 8.44825 11.4475 8.00054 11.9998 8.00054C12.5521 8.00054 12.9998 8.44825 12.9998 9.00054Z" fill="#F04C4B"/>
<path d="M11.9998 11.7505C12.414 11.7505 12.7498 12.0863 12.7498 12.5005V17.5005C12.7498 17.9148 12.414 18.2505 11.9998 18.2505C11.5856 18.2505 11.2498 17.9148 11.2498 17.5005V12.5005C11.2498 12.0863 11.5856 11.7505 11.9998 11.7505Z" fill="#F04C4B"/>
<path fill-rule="evenodd" clip-rule="evenodd" d="M14.2702 3.99317C13.1782 2.39551 10.8214 2.3955 9.72943 3.99317L9.29751 4.62512C6.59147 8.58433 4.2665 12.791 2.35377 17.1886L2.26356 17.396C1.5895 18.9458 2.60787 20.7055 4.28741 20.8932C9.41304 21.4661 14.5865 21.4661 19.7122 20.8932C21.3917 20.7055 22.4101 18.9458 21.736 17.396L21.6458 17.1886C19.7331 12.7909 17.4081 8.58434 14.7021 4.62512L14.2702 3.99317ZM10.9678 4.83958C11.4642 4.11337 12.5354 4.11337 13.0318 4.83958L13.4637 5.47153C16.1163 9.35255 18.3953 13.4761 20.2703 17.7869L20.3605 17.9943C20.6319 18.6184 20.2219 19.3269 19.5456 19.4025C14.5307 19.963 9.46892 19.963 4.45402 19.4025C3.77773 19.3269 3.36767 18.6184 3.63908 17.9943L3.7293 17.7869C5.60425 13.4761 7.88329 9.35254 10.5359 5.47152L10.9678 4.83958Z" fill="#F04C4B"/>
</g>
</g>
</svg>
