<svg width="16" height="16" viewBox="0 0 16 16" fill="none" xmlns="http://www.w3.org/2000/svg">
    <g clip-path="url(#clip0_1_20342)">
        <path d="M12.875 11H12.25V10.375C12.25 10.0298 11.9702 9.75 11.625 9.75C11.2798 9.75 11 10.0298 11 10.375V11H10.375C10.0298 11 9.75 11.2798 9.75 11.625C9.75 11.9702 10.0298 12.25 10.375 12.25H11V12.875C11 13.2202 11.2798 13.5 11.625 13.5C11.9702 13.5 12.25 13.2202 12.25 12.875V12.25H12.875C13.2202 12.25 13.5 11.9702 13.5 11.625C13.5 11.2798 13.2202 11 12.875 11Z" fill="white"/>
        <path d="M2.375 3.125C2.375 4.84812 3.77688 6.25 5.5 6.25C7.22312 6.25 8.625 4.84812 8.625 3.125C8.625 1.40188 7.22312 0 5.5 0C3.77688 0 2.375 1.40188 2.375 3.125ZM7.375 3.125C7.375 4.15887 6.53387 5 5.5 5C4.46613 5 3.625 4.15887 3.625 3.125C3.625 2.09113 4.46613 1.25 5.5 1.25C6.53387 1.25 7.375 2.09113 7.375 3.125Z" fill="white"/>
        <path d="M1.875 13.5H5.50059C5.84578 13.5 6.12559 13.2202 6.12559 12.875C6.12559 12.5298 5.84578 12.25 5.50059 12.25H1.875C1.53038 12.25 1.25 11.9696 1.25 11.625C1.25 9.90188 2.65188 8.5 4.375 8.5H6.625C6.97019 8.5 7.25 8.22019 7.25 7.875C7.25 7.52981 6.97019 7.25 6.625 7.25H4.375C1.96263 7.25 0 9.21263 0 11.625C0 12.6589 0.841125 13.5 1.875 13.5Z" fill="white"/>
        <path d="M11.625 7.25C9.21263 7.25 7.25 9.21263 7.25 11.625C7.25 14.0374 9.21263 16 11.625 16C14.0374 16 16 14.0374 16 11.625C16 9.21263 14.0374 7.25 11.625 7.25ZM11.625 14.75C9.90188 14.75 8.5 13.3481 8.5 11.625C8.5 9.90188 9.90188 8.5 11.625 8.5C13.3481 8.5 14.75 9.90188 14.75 11.625C14.75 13.3481 13.3481 14.75 11.625 14.75Z" fill="white"/>
    </g>
    <defs>
        <clipPath id="clip0_1_20342">
            <rect width="16" height="16" fill="white"/>
        </clipPath>
    </defs>
</svg>