<svg width="4" height="10" viewBox="0 0 4 10" fill="none" xmlns="http://www.w3.org/2000/svg">
<path d="M1.84002 2.99999H3.17335L1.70669 9.66666H0.373352L1.84002 2.99999ZM2.96002 0.333328C2.82816 0.333328 2.69927 0.372428 2.58964 0.445682C2.48001 0.518936 2.39456 0.623055 2.3441 0.744873C2.29364 0.86669 2.28044 1.00073 2.30616 1.13006C2.33189 1.25938 2.39538 1.37816 2.48861 1.4714C2.58185 1.56463 2.70064 1.62813 2.82996 1.65385C2.95928 1.67958 3.09332 1.66637 3.21514 1.61591C3.33696 1.56546 3.44108 1.48001 3.51433 1.37038C3.58759 1.26074 3.62668 1.13185 3.62668 0.999995C3.62668 0.823184 3.55645 0.653615 3.43142 0.528591C3.3064 0.403566 3.13683 0.333328 2.96002 0.333328Z" fill="#7E7E7E"/>
</svg>
