<svg width="16" height="16" viewBox="0 0 16 16" fill="none" xmlns="http://www.w3.org/2000/svg">
<path fill-rule="evenodd" clip-rule="evenodd" d="M7.33398 2.66927C4.75666 2.66927 2.66732 4.75861 2.66732 7.33594C2.66732 9.91327 4.75666 12.0026 7.33398 12.0026C9.91131 12.0026 12.0007 9.91327 12.0007 7.33594C12.0007 4.75861 9.91131 2.66927 7.33398 2.66927ZM1.33398 7.33594C1.33398 4.02223 4.02028 1.33594 7.33398 1.33594C10.6477 1.33594 13.334 4.02223 13.334 7.33594C13.334 10.6496 10.6477 13.3359 7.33398 13.3359C4.02028 13.3359 1.33398 10.6496 1.33398 7.33594Z" fill="#717171"/>
<path fill-rule="evenodd" clip-rule="evenodd" d="M10.6289 10.6289C10.8892 10.3685 11.3113 10.3685 11.5717 10.6289L14.4717 13.5289C14.732 13.7892 14.732 14.2113 14.4717 14.4717C14.2113 14.732 13.7892 14.732 13.5289 14.4717L10.6289 11.5717C10.3685 11.3113 10.3685 10.8892 10.6289 10.6289Z" fill="#717171"/>
</svg>
