<svg width="10" height="10" viewBox="0 0 10 10" fill="none" xmlns="http://www.w3.org/2000/svg">
<path id="Vector" d="M9 1H9.5V0.5H9V1ZM3.94056 5.35233C3.7453 5.54759 3.7453 5.86417 3.94056 6.05944C4.13583 6.2547 4.45241 6.2547 4.64767 6.05944L3.94056 5.35233ZM1.10804 2.4926L0.641808 2.31198L0.641808 2.31198L1.10804 2.4926ZM3.35294 1.97059C3.62908 1.97059 3.85294 1.74673 3.85294 1.47059C3.85294 1.19445 3.62908 0.970588 3.35294 0.970588V1.97059ZM2.02201 1.57863L2.20263 2.04487L2.20263 2.04487L2.02201 1.57863ZM1.46863 8.53137L1.11508 8.88492L1.11508 8.88493L1.46863 8.53137ZM9.02941 6.64706C9.02941 6.37092 8.80555 6.14706 8.52941 6.14706C8.25327 6.14706 8.02941 6.37092 8.02941 6.64706H9.02941ZM8.42137 7.97799L7.95513 7.79737V7.79737L8.42137 7.97799ZM7.5074 8.89196L7.68802 9.35819L7.68802 9.35819L7.5074 8.89196ZM9.5 4.76471V1H8.5V4.76471H9.5ZM9 0.5H5.23529V1.5H9V0.5ZM8.64645 0.646447L3.94056 5.35233L4.64767 6.05944L9.35355 1.35355L8.64645 0.646447ZM6.17647 8.5H4.2V9.5H6.17647V8.5ZM1.5 5.8V3.82353H0.5V5.8H1.5ZM1.5 3.82353C1.5 3.46642 1.50024 3.22215 1.51248 3.0317C1.52445 2.84539 1.54642 2.74515 1.57428 2.67322L0.641808 2.31198C0.561627 2.51895 0.529575 2.7335 0.514534 2.96758C0.49976 3.19753 0.5 3.47928 0.5 3.82353H1.5ZM3.35294 0.970588C3.00869 0.970588 2.72695 0.970348 2.497 0.985123C2.26291 1.00016 2.04836 1.03222 1.84139 1.1124L2.20263 2.04487C2.27456 2.01701 2.3748 1.99504 2.56111 1.98307C2.75157 1.97083 2.99583 1.97059 3.35294 1.97059V0.970588ZM1.57428 2.67322C1.68605 2.38473 1.91414 2.15663 2.20263 2.04487L1.84139 1.1124C1.29062 1.32577 0.855177 1.76121 0.641808 2.31198L1.57428 2.67322ZM4.2 8.5C3.43162 8.5 2.90563 8.49894 2.51099 8.44588C2.13073 8.39476 1.94811 8.30375 1.82218 8.17782L1.11508 8.88493C1.45778 9.22762 1.8866 9.37093 2.37774 9.43696C2.8545 9.50106 3.45989 9.5 4.2 9.5V8.5ZM0.5 5.8C0.5 6.54011 0.498938 7.1455 0.563037 7.62226C0.62907 8.11341 0.772377 8.54223 1.11508 8.88492L1.82218 8.17782C1.69625 8.05189 1.60524 7.86927 1.55412 7.48901C1.50106 7.09437 1.5 6.56838 1.5 5.8H0.5ZM8.02941 6.64706C8.02941 7.00417 8.02917 7.24843 8.01694 7.43889C8.00496 7.6252 7.983 7.72544 7.95513 7.79737L8.8876 8.15861C8.96778 7.95164 8.99984 7.73709 9.01488 7.50301C9.02965 7.27306 9.02941 6.99131 9.02941 6.64706H8.02941ZM6.17647 9.5C6.52072 9.5 6.80247 9.50024 7.03242 9.48547C7.2665 9.47043 7.48105 9.43837 7.68802 9.35819L7.32678 8.42572C7.25485 8.45358 7.15461 8.47555 6.9683 8.48752C6.77785 8.49976 6.53358 8.5 6.17647 8.5V9.5ZM7.95513 7.79737C7.84337 8.08586 7.61528 8.31395 7.32678 8.42572L7.68802 9.35819C8.23879 9.14482 8.67424 8.70938 8.8876 8.15861L7.95513 7.79737Z" fill="black"/>
</svg>
