<svg width="20" height="20" viewBox="0 0 20 20" fill="none" xmlns="http://www.w3.org/2000/svg">
<path fill-rule="evenodd" clip-rule="evenodd" d="M1.81812 3.78532C1.81812 2.70054 2.69835 1.82031 3.78312 1.82031C4.86722 1.82031 5.74745 2.70054 5.74813 3.78532C5.74813 4.8701 4.8679 5.76874 3.78312 5.76874C2.69835 5.76874 1.81812 4.8701 1.81812 3.78532ZM18.1778 18.184V18.1833H18.1819V12.1819C18.1819 9.24598 17.5499 6.98438 14.1176 6.98438C12.4676 6.98438 11.3603 7.88983 10.9083 8.74825H10.8605V7.25847H7.6062V18.1833H10.9949V12.7737C10.9949 11.3494 11.2649 9.97212 13.0287 9.97212C14.7667 9.97212 14.7926 11.5976 14.7926 12.8651V18.184H18.1778ZM2.08813 7.25781H5.48088V18.1826H2.08813V7.25781Z" fill="#2752E7"/>
</svg>
