<svg width="20" height="24" viewBox="0 0 20 24" fill="none" xmlns="http://www.w3.org/2000/svg">
<path fill-rule="evenodd" clip-rule="evenodd" d="M10.0625 0C6.68234 0 3.9398 2.73645 3.9398 6.11167V9.38465H3.04366C1.64861 9.38465 0.5 10.5269 0.5 11.9214V21.4632C0.5 22.8577 1.64861 24 3.04366 24H17.2054C18.6005 24 19.7436 22.8577 19.7436 21.4632V11.9214C19.7436 10.5269 18.6005 9.38465 17.2054 9.38465H16.1893V6.11167C16.1893 2.73645 13.4427 0 10.0625 0ZM10.0625 1.41177C12.6866 1.41177 14.7776 3.49582 14.7776 6.11167V9.38465H5.35156V6.11167C5.35156 3.49582 7.43837 1.41177 10.0625 1.41177ZM3.04366 10.7964H4.64292H15.4807H17.2054C17.8444 10.7964 18.3318 11.2863 18.3318 11.9214V21.4632C18.3318 22.0983 17.8444 22.5882 17.2054 22.5882H3.04366C2.40465 22.5882 1.91176 22.0983 1.91176 21.4632V11.9214C1.91176 11.2863 2.40465 10.7964 3.04366 10.7964ZM10.1245 13.2973C8.77417 13.2973 7.65947 14.407 7.65947 15.7569C7.65947 16.8612 8.40528 17.8007 9.4159 18.1062V19.3842C9.41626 19.4769 9.43488 19.5686 9.47069 19.6541C9.50649 19.7396 9.55879 19.8172 9.6246 19.8825C9.6904 19.9478 9.76842 19.9995 9.8542 20.0346C9.93998 20.0698 10.0318 20.0877 10.1245 20.0873C10.3108 20.0866 10.4892 20.0123 10.6209 19.8806C10.7526 19.7489 10.8269 19.5704 10.8277 19.3842V18.1075C11.8391 17.8034 12.5841 16.8627 12.5841 15.7569C12.5841 14.407 11.4749 13.2973 10.1245 13.2973ZM10.1245 14.7091C10.7136 14.7091 11.1723 15.1716 11.1723 15.7569C11.1723 16.3422 10.7136 16.7992 10.1245 16.7992C9.53547 16.7992 9.07123 16.3422 9.07123 15.7569C9.07123 15.1716 9.53547 14.7091 10.1245 14.7091Z" fill="#2CAF70"/>
</svg>
