<svg width="26" height="32" viewBox="0 0 26 32" fill="none" xmlns="http://www.w3.org/2000/svg">
<path d="M12.8996 19.5883C12.7159 19.8409 12.4248 19.9931 12.1125 19.9999C11.8002 20.0066 11.5027 19.8671 11.3083 19.6226L9.71742 17.6226C9.37362 17.1904 9.44532 16.5613 9.87752 16.2175C10.3097 15.8737 10.9388 15.9454 11.2826 16.3776L12.0553 17.3489L14.1913 14.4119C14.5161 13.9653 15.1415 13.8665 15.5882 14.1914C16.0348 14.5162 16.1336 15.1416 15.8087 15.5883L12.8996 19.5883Z" fill="#2752E7"/>
<path fill-rule="evenodd" clip-rule="evenodd" d="M6 17C6 13.134 9.134 10 13 10C16.866 10 20 13.134 20 17C20 20.866 16.866 24 13 24C9.134 24 6 20.866 6 17ZM13 12C10.2386 12 8 14.2386 8 17C8 19.7614 10.2386 22 13 22C15.7614 22 18 19.7614 18 17C18 14.2386 15.7614 12 13 12Z" fill="#2752E7"/>
<path fill-rule="evenodd" clip-rule="evenodd" d="M26 8.0097V29C26 30.6569 24.6569 32 23 32H3C1.3431 32 0 30.6569 0 29V3C0 1.34316 1.3431 2.25e-05 3 2.25e-05H16.9943C16.998 -7.5e-06 17.0017 -7.5e-06 17.0053 2.25e-05H23C24.6569 2.25e-05 26 1.34316 26 3V7.9908C26.0001 7.9971 26.0001 8.0034 26 8.0097ZM16 2H3C2.4477 2 2 2.4477 2 3V29C2 29.5523 2.4477 30 3 30H23C23.5523 30 24 29.5523 24 29V9H17C16.4477 9 16 8.5523 16 8V2ZM22.3386 7L18 3.2038V7H22.3386ZM24 5.7962V3C24 2.4477 23.5523 2 23 2H19.6614L24 5.7962Z" fill="#2752E7"/>
</svg>
