<svg width="19" height="22" viewBox="0 0 19 22" fill="none" xmlns="http://www.w3.org/2000/svg">
<path d="M17.077 6.27558L2.15811 1.30262C1.8578 1.20252 1.70764 1.15247 1.60382 1.2273C1.5 1.30213 1.5 1.46041 1.5 1.77696V12.4166L17.077 7.22426C17.6653 7.02816 17.9594 6.93011 17.9594 6.74992C17.9594 6.56973 17.6653 6.47168 17.077 6.27558Z" fill="#2CAF70"/>
<path d="M1.5 12.4166V1.77696C1.5 1.46041 1.5 1.30213 1.60382 1.2273C1.70764 1.15247 1.8578 1.20252 2.15811 1.30262L17.077 6.27558C17.6653 6.47168 17.9594 6.56973 17.9594 6.74992C17.9594 6.93011 17.6653 7.02816 17.077 7.22426L1.5 12.4166ZM1.5 12.4166V19.4999V20.9166" stroke="#2CAF70" stroke-width="2" stroke-linecap="round"/>
</svg>
