<svg width="65" height="64" viewBox="0 0 65 64" fill="none" xmlns="http://www.w3.org/2000/svg">
<g clip-path="url(#clip0_403_15221)">
<path d="M49.4375 30.2295V17.9419C49.4375 17.4443 49.2402 16.9673 48.8882 16.6162L32.8218 0.549316C32.4702 0.197754 31.9932 0 31.4961 0H2.375C1.33936 0 0.5 0.839355 0.5 1.875V62.125C0.5 63.1606 1.33936 64 2.375 64H47.5625C56.9019 64 64.5 56.4019 64.5 47.0625C64.5 38.3569 57.8979 31.1655 49.4375 30.2295ZM33.3711 6.40186L43.0356 16.0664H33.3711V6.40186ZM4.25 60.25V3.75H29.6211V17.9414C29.6211 18.9771 30.4604 19.8164 31.4961 19.8164H45.6875V30.2295C37.2271 31.1655 30.625 38.3569 30.625 47.0625C30.625 52.3857 33.0942 57.1426 36.9468 60.25H4.25ZM47.5625 60.25C40.291 60.25 34.375 54.334 34.375 47.0625C34.375 39.791 40.291 33.875 47.5625 33.875C54.834 33.875 60.75 39.791 60.75 47.0625C60.75 54.334 54.834 60.25 47.5625 60.25Z" fill="#2752E7"/>
<path d="M52.5845 45.1875H49.4385V42.0415C49.4385 41.0063 48.5991 40.1665 47.5635 40.1665C46.5278 40.1665 45.6885 41.0063 45.6885 42.0415V45.1875H42.543C41.5073 45.1875 40.668 46.0269 40.668 47.0625C40.668 48.0981 41.5073 48.9375 42.543 48.9375H45.6885V52.0835C45.6885 53.1187 46.5278 53.9585 47.5635 53.9585C48.5991 53.9585 49.4385 53.1187 49.4385 52.0835V48.9375H52.5845C53.6201 48.9375 54.4595 48.0981 54.4595 47.0625C54.4595 46.0269 53.6201 45.1875 52.5845 45.1875V45.1875Z" fill="#2752E7"/>
</g>
<defs>
<clipPath id="clip0_403_15221">
<rect width="64" height="64" fill="white" transform="translate(0.5)"/>
</clipPath>
</defs>
</svg>
