<svg width="20" height="24" viewBox="0 0 20 24" fill="none" xmlns="http://www.w3.org/2000/svg">
<g id="Group 1000003246">
<path id="Vector 6" d="M13.5435 0.886078H4.5562L4.30303 12.6582L2.91063 14.1772L2.4043 17.0886L3.41695 20.2532L6.96126 21.7722L9.99923 21.1392L11.898 18.9873H16.2018L18.3537 18.481V5.6962L13.5435 0.886078Z" fill="white"/>
<path id="Vector" d="M7.30469 8.962C7.30469 9.31643 7.58317 9.59491 7.9376 9.59491H14.7984C15.1528 9.59491 15.4313 9.31643 15.4313 8.962C15.4313 8.60757 15.1528 8.32909 14.7984 8.32909H7.9376C7.58317 8.32909 7.30469 8.60757 7.30469 8.962Z" fill="#2752E7"/>
<path id="Vector_2" d="M18.7215 4.88608L14.2911 0.481013C13.9873 0.177215 13.557 0 13.1013 0H5.17721C4.72152 0 4.31645 0.177215 3.98734 0.506329C3.65823 0.835443 3.50633 1.24051 3.50633 1.6962V12.4304C2.3924 13.4684 1.68354 14.962 1.68354 16.6076C1.68354 17.9747 2.16456 19.2152 2.94937 20.2025L0.189873 22.9367C-0.0632911 23.1899 -0.0632911 23.5949 0.189873 23.8228C0.316456 23.9494 0.468354 24 0.64557 24C0.822785 24 0.974683 23.9494 1.10127 23.8228L3.86076 21.0633C4.8481 21.8481 6.08861 22.3291 7.4557 22.3291C9.55696 22.3291 11.4051 21.1899 12.3924 19.4937H17.5063C18.443 19.4937 19.2025 18.7342 19.2025 17.7975V6.07595C19.2025 5.64557 19.0253 5.21519 18.7215 4.88608ZM14.1899 2.1519L17.0506 5.01266H14.5949C14.3671 5.01266 14.1899 4.83544 14.1899 4.58228V2.1519ZM7.4557 21.0633C4.97468 21.0633 2.97468 19.0633 2.97468 16.5823C2.97468 14.1013 4.97468 12.1013 7.4557 12.1013C9.93671 12.1013 11.9367 14.1013 11.9367 16.5823C11.9367 19.0633 9.91139 21.0633 7.4557 21.0633ZM17.9367 17.8228C17.9367 18.0506 17.7595 18.2278 17.5063 18.2278H12.9494C13.1013 17.6962 13.2025 17.1392 13.2025 16.5823C13.2025 16.4557 13.2025 16.3291 13.1772 16.2025H14.7722C15.1266 16.2025 15.4051 15.9241 15.4051 15.5696C15.4051 15.2152 15.1266 14.9367 14.7722 14.9367H12.9494C12.7215 14.1772 12.3418 13.4937 11.8608 12.9114H14.7722C15.1266 12.9114 15.4051 12.6329 15.4051 12.2785C15.4051 11.9241 15.1266 11.6456 14.7722 11.6456H10.3671C9.50633 11.1392 8.51899 10.8354 7.4557 10.8354C6.49367 10.8354 5.58228 11.0886 4.79747 11.4937V1.67089C4.79747 1.56962 4.8481 1.44304 4.92405 1.36709C5 1.29114 5.10127 1.24051 5.22785 1.24051H12.9494V4.58228C12.9494 5.51899 13.7089 6.27848 14.6456 6.27848H17.9873V17.8228H17.9367Z" fill="#2752E7"/>
<path id="Vector_3" d="M8.39231 16.7089C8.11383 16.8608 7.78471 16.9367 7.43028 16.9367C7.10117 16.9367 6.77205 16.8608 6.49357 16.7089C5.93661 16.8608 5.53155 17.3418 5.4556 17.9494L5.35433 18.8101C5.32902 18.9873 5.48092 19.1646 5.65813 19.1646H9.22775C9.40497 19.1646 9.55686 19.0127 9.53155 18.8101L9.43028 17.9494C9.35433 17.3418 8.94927 16.8861 8.39231 16.7089Z" fill="#2752E7"/>
<path id="Vector_4" d="M7.42951 16.2532C8.19852 16.2532 8.82192 15.6298 8.82192 14.8608C8.82192 14.0918 8.19852 13.4684 7.42951 13.4684C6.66051 13.4684 6.03711 14.0918 6.03711 14.8608C6.03711 15.6298 6.66051 16.2532 7.42951 16.2532Z" fill="#2752E7"/>
</g>
</svg>
