<svg width="24" height="24" viewBox="0 0 24 24" fill="none" xmlns="http://www.w3.org/2000/svg">
<path fill-rule="evenodd" clip-rule="evenodd" d="M7.62273 1.75H14.3094L19.9766 7.65705V19.1463C19.9766 20.5856 18.8121 21.75 17.3778 21.75H7.62273C6.18346 21.75 5.01904 20.5856 5.01904 19.1463V4.35369C5.01902 2.91441 6.18343 1.75 7.62273 1.75Z" fill="#E5252A"/>
<path opacity="0.302" fill-rule="evenodd" clip-rule="evenodd" d="M14.3044 1.75V7.61207H19.9766L14.3044 1.75Z" fill="white"/>
<path d="M7.9126 16.6727V13.0195H9.46683C9.85164 13.0195 10.1565 13.1245 10.3864 13.3394C10.6163 13.5493 10.7312 13.8341 10.7312 14.1889C10.7312 14.5438 10.6163 14.8286 10.3864 15.0385C10.1565 15.2534 9.85164 15.3584 9.46683 15.3584H8.84713V16.6727H7.9126ZM8.84713 14.5638H9.36188C9.5018 14.5638 9.61175 14.5338 9.68672 14.4638C9.76168 14.3989 9.80168 14.3089 9.80168 14.189C9.80168 14.069 9.7617 13.9791 9.68672 13.9141C9.61177 13.8441 9.50183 13.8142 9.36188 13.8142H8.84713V14.5638ZM11.116 16.6727V13.0195H12.4103C12.6652 13.0195 12.9051 13.0545 13.13 13.1295C13.3549 13.2044 13.5598 13.3094 13.7397 13.4543C13.9196 13.5942 14.0645 13.7841 14.1695 14.024C14.2694 14.2639 14.3244 14.5388 14.3244 14.8486C14.3244 15.1535 14.2694 15.4283 14.1695 15.6682C14.0645 15.9081 13.9196 16.098 13.7397 16.2379C13.5598 16.3828 13.3549 16.4878 13.13 16.5628C12.9051 16.6377 12.6652 16.6727 12.4103 16.6727H11.116ZM12.0305 15.8781H12.3004C12.4453 15.8781 12.5803 15.8631 12.7052 15.8281C12.8251 15.7932 12.9401 15.7382 13.05 15.6632C13.155 15.5883 13.2399 15.4833 13.2999 15.3434C13.3599 15.2035 13.3899 15.0385 13.3899 14.8486C13.3899 14.6537 13.3599 14.4888 13.2999 14.3489C13.2399 14.209 13.155 14.104 13.05 14.029C12.9401 13.9541 12.8252 13.8991 12.7052 13.8641C12.5803 13.8292 12.4453 13.8141 12.3004 13.8141H12.0305V15.8781ZM14.7942 16.6727V13.0195H17.3929V13.8141H15.7287V14.3988H17.058V15.1885H15.7287V16.6727H14.7942Z" fill="white"/>
</svg>
