<svg width="32" height="32" viewBox="0 0 32 32" fill="none" xmlns="http://www.w3.org/2000/svg">
<path fill-rule="evenodd" clip-rule="evenodd" d="M2.8125 0H29.1875C30.7383 0 32 1.24228 32 2.76923V29.2308C32 30.7577 30.7383 32 29.1875 32H2.8125C1.26169 32 0 30.7577 0 29.2308V2.76923C0 1.24228 1.26169 0 2.8125 0ZM29.1875 30.1538C29.7044 30.1538 30.125 29.7398 30.125 29.2308V2.76923C30.125 2.26025 29.7044 1.84615 29.1875 1.84615H2.8125C2.29556 1.84615 1.875 2.26025 1.875 2.76923V29.2308C1.875 29.7398 2.29556 30.1538 2.8125 30.1538H29.1875ZM3.75 16C3.75 11.3391 7.59506 7.5625 12.25 7.5625C16.9024 7.5625 20.6875 11.3476 20.6875 16C20.6875 20.6517 16.9014 24.4375 12.25 24.4375C7.58913 24.4375 3.75 20.6544 3.75 16ZM8.17906 21.1738C9.30306 22.0435 10.7164 22.5625 12.25 22.5625C13.7812 22.5625 15.1914 22.0352 16.3091 21.153C15.4796 19.7131 13.9484 18.8125 12.25 18.8125C10.5434 18.8125 9.00581 19.7219 8.17906 21.1738ZM12.25 13.1875C11.2161 13.1875 10.375 14.0286 10.375 15.0625C10.375 16.0964 11.2161 16.9375 12.25 16.9375C13.2839 16.9375 14.125 16.0964 14.125 15.0625C14.125 14.0286 13.2839 13.1875 12.25 13.1875ZM15.046 17.558C16.0794 18.0426 16.9746 18.7928 17.6358 19.745C18.3771 18.6823 18.8125 17.3911 18.8125 16C18.8125 12.3814 15.8686 9.4375 12.25 9.4375C8.59694 9.4375 5.625 12.3814 5.625 16C5.625 17.4074 6.07475 18.7126 6.83913 19.7824C7.50275 18.8126 8.40731 18.0488 9.45406 17.558C8.86125 16.8946 8.5 16.0201 8.5 15.0625C8.5 12.9948 10.1823 11.3125 12.25 11.3125C14.3177 11.3125 16 12.9948 16 15.0625C16 16.0201 15.6387 16.8946 15.046 17.558ZM27.3125 9.4375H23.5C22.9823 9.4375 22.5625 9.85725 22.5625 10.375C22.5625 10.8927 22.9823 11.3125 23.5 11.3125H27.3125C27.8302 11.3125 28.25 10.8927 28.25 10.375C28.25 9.85725 27.8302 9.4375 27.3125 9.4375ZM23.5 13.1875H27.3125C27.8302 13.1875 28.25 13.6073 28.25 14.125C28.25 14.6427 27.8302 15.0625 27.3125 15.0625H23.5C22.9823 15.0625 22.5625 14.6427 22.5625 14.125C22.5625 13.6073 22.9823 13.1875 23.5 13.1875ZM27.3125 16.9375H23.5C22.9823 16.9375 22.5625 17.3573 22.5625 17.875C22.5625 18.3927 22.9823 18.8125 23.5 18.8125H27.3125C27.8302 18.8125 28.25 18.3927 28.25 17.875C28.25 17.3573 27.8302 16.9375 27.3125 16.9375ZM23.5 20.6875H27.3125C27.8302 20.6875 28.25 21.1073 28.25 21.625C28.25 22.1427 27.8302 22.5625 27.3125 22.5625H23.5C22.9823 22.5625 22.5625 22.1427 22.5625 21.625C22.5625 21.1073 22.9823 20.6875 23.5 20.6875Z" fill="#2752E7"/>
</svg>
