<svg width="32" height="32" viewBox="0 0 32 32" fill="none" xmlns="http://www.w3.org/2000/svg">
<path d="M26.2373 5.29492H22.1152V2H4V17.6475C4 19.0082 5.10704 20.1152 6.46777 20.1152H10.5898V28.4706L13.4694 30L15.5283 28.9062L17.5875 30L19.6469 28.9062L21.7062 30L23.7655 28.9062L25.8251 30L28.705 28.4706V7.7627C28.7051 6.40196 27.598 5.29492 26.2373 5.29492ZM5.64062 17.6475V3.64062H20.4746V5.29492H9.7627C8.40196 5.29492 7.29492 6.40196 7.29492 7.7627V17.6475C7.29492 18.1036 6.92387 18.4746 6.46777 18.4746C6.01168 18.4746 5.64062 18.1036 5.64062 17.6475ZM8.79248 18.4746C8.8848 18.2159 8.93555 17.9375 8.93555 17.6475V7.7627C8.93555 7.3066 9.3066 6.93555 9.7627 6.93555C10.2188 6.93555 10.5898 7.3066 10.5898 7.7627V18.4746H8.79248ZM27.0645 27.4842L25.8252 28.1423L23.7656 27.0486L21.7063 28.1423L19.647 27.0486L17.5877 28.1423L15.5285 27.0486L13.4695 28.1423L12.2306 27.4843V7.7627C12.2306 7.47263 12.1799 7.19427 12.0875 6.93555H26.2373C26.6934 6.93555 27.0645 7.3066 27.0645 7.7627V27.4842Z" fill="#2752E7"/>
<path d="M13.8848 20.1221H15.5254V21.7627H13.8848V20.1221Z" fill="#2752E7"/>
<path d="M17.1797 20.1221H25.4102V21.7627H17.1797V20.1221Z" fill="#2752E7"/>
<path d="M13.8848 23.4171H15.5254V25.0577H13.8848V23.4171Z" fill="#2752E7"/>
<path d="M17.1797 23.4171H25.4102V25.0577H17.1797V23.4171Z" fill="#2752E7"/>
<path d="M20.0998 15.9445H19.179C18.7391 15.9445 18.3812 15.5867 18.3812 15.1468H16.7406C16.7406 16.3718 17.6488 17.3883 18.8271 17.5594V18.66H20.4677V17.5576C21.6544 17.3794 22.5673 16.3531 22.5673 15.1176C22.5673 13.757 21.4604 12.6501 20.0998 12.6501H19.195C18.7391 12.6501 18.3682 12.2791 18.3682 11.8232C18.3682 11.3672 18.7391 10.9962 19.195 10.9962H20.0791C20.5356 10.9962 20.907 11.3677 20.907 11.8241H22.5477C22.5477 10.5952 21.6449 9.57342 20.4678 9.38644V8.28082H18.8272V9.38327C17.6405 9.56144 16.7275 10.5877 16.7275 11.8233C16.7275 13.1838 17.8345 14.2908 19.195 14.2908H20.0998C20.5558 14.2908 20.9267 14.6618 20.9267 15.1177C20.9267 15.5736 20.5558 15.9445 20.0998 15.9445V15.9445Z" fill="#2752E7"/>
</svg>
