<svg width="84" height="84" viewBox="0 0 84 84" fill="none" xmlns="http://www.w3.org/2000/svg">
<path d="M76.7899 23.5899L60.41 7.20995C59.4958 6.28821 58.404 5.56168 57.2008 5.07436C55.9975 4.58705 54.7079 4.3491 53.4099 4.37495H30.4149C29.1464 4.3726 27.8899 4.62196 26.7184 5.1086C25.5469 5.59523 24.4835 6.30947 23.5899 7.20995L7.20995 23.5899C6.30947 24.4835 5.59523 25.5469 5.1086 26.7184C4.62196 27.8899 4.3726 29.1464 4.37495 30.4149V53.5849C4.3491 54.8829 4.58705 56.1725 5.07436 57.3758C5.56168 58.579 6.28821 59.6708 7.20995 60.5849L23.5899 76.965C24.4835 77.8654 25.5469 78.5797 26.7184 79.0663C27.8899 79.5529 29.1464 79.8023 30.4149 79.7999H53.5849C54.8829 79.8258 56.1725 79.5878 57.3758 79.1005C58.579 78.6132 59.6708 77.8867 60.5849 76.965L76.965 60.5849C77.8867 59.6708 78.6132 58.579 79.1005 57.3758C79.5878 56.1725 79.8258 54.8829 79.7999 53.5849V30.4149C79.7796 29.1339 79.5027 27.87 78.9857 26.6978C78.4687 25.5256 77.7221 24.4688 76.7899 23.5899Z" fill="#FE3155"/>
<path d="M31.5008 55.9999C31.0401 56.0026 30.5835 55.9143 30.1571 55.7401C29.7307 55.5659 29.3428 55.3093 29.0158 54.9849C28.6877 54.6595 28.4273 54.2724 28.2496 53.8459C28.072 53.4194 27.9805 52.962 27.9805 52.4999C27.9805 52.0379 28.072 51.5804 28.2496 51.1539C28.4273 50.7274 28.6877 50.3403 29.0158 50.0149L50.0158 29.0149C50.3411 28.6869 50.7282 28.4265 51.1547 28.2488C51.5813 28.0711 52.0387 27.9796 52.5008 27.9796C52.9628 27.9796 53.4203 28.0711 53.8468 28.2488C54.2733 28.4265 54.6604 28.6869 54.9858 29.0149C55.3138 29.3403 55.5742 29.7274 55.7519 30.1539C55.9296 30.5804 56.0211 31.0379 56.0211 31.4999C56.0211 31.962 55.9296 32.4194 55.7519 32.8459C55.5742 33.2724 55.3138 33.6595 54.9858 33.9849L33.9858 54.9849C33.6587 55.3093 33.2709 55.5659 32.8444 55.7401C32.418 55.9143 31.9614 56.0026 31.5008 55.9999Z" fill="white"/>
<path d="M52.5008 55.9999C52.0401 56.0026 51.5835 55.9143 51.1571 55.7401C50.7307 55.5659 50.3428 55.3093 50.0158 54.9849L29.0158 33.9849C28.6877 33.6595 28.4273 33.2724 28.2496 32.8459C28.072 32.4194 27.9805 31.962 27.9805 31.4999C27.9805 31.0379 28.072 30.5804 28.2496 30.1539C28.4273 29.7274 28.6877 29.3403 29.0158 29.0149C29.3411 28.6869 29.7282 28.4265 30.1547 28.2488C30.5813 28.0711 31.0387 27.9796 31.5008 27.9796C31.9628 27.9796 32.4203 28.0711 32.8468 28.2488C33.2733 28.4265 33.6604 28.6869 33.9858 29.0149L54.9858 50.0149C55.3138 50.3403 55.5742 50.7274 55.7519 51.1539C55.9296 51.5804 56.0211 52.0379 56.0211 52.4999C56.0211 52.962 55.9296 53.4194 55.7519 53.8459C55.5742 54.2724 55.3138 54.6595 54.9858 54.9849C54.6587 55.3093 54.2709 55.5659 53.8444 55.7401C53.418 55.9143 52.9614 56.0026 52.5008 55.9999Z" fill="white"/>
</svg>
