<svg xmlns="http://www.w3.org/2000/svg" width="13" height="12" viewBox="0 0 13 12" fill="none">
    <path d="M12 0.5H12.5V0H12V0.5ZM5.17586 6.61703C4.9806 6.8123 4.9806 7.12888 5.17586 7.32414C5.37112 7.5194 5.6877 7.5194 5.88297 7.32414L5.17586 6.61703ZM1.14856 2.55233L0.682325 2.37171L0.682325 2.37171L1.14856 2.55233ZM4.23529 1.64706C4.51144 1.64706 4.73529 1.4232 4.73529 1.14706C4.73529 0.870916 4.51144 0.647059 4.23529 0.647059V1.64706ZM2.40527 1.29562L2.58589 1.76186L2.58589 1.76186L2.40527 1.29562ZM1.64436 10.8556L1.29081 11.2092L1.29081 11.2092L1.64436 10.8556ZM11.8529 8.26471C11.8529 7.98856 11.6291 7.76471 11.3529 7.76471C11.0768 7.76471 10.8529 7.98856 10.8529 8.26471H11.8529ZM11.2044 10.0947L10.7381 9.91411L11.2044 10.0947ZM9.94767 11.3514L10.1283 11.8177H10.1283L9.94767 11.3514ZM12.5 5.67647V0.5H11.5V5.67647H12.5ZM12 0H6.82353V1H12V0ZM11.6464 0.146447L5.17586 6.61703L5.88297 7.32414L12.3536 0.853553L11.6464 0.146447ZM8.11765 11H5.4V12H8.11765V11ZM1.5 7.1V4.38235H0.5V7.1H1.5ZM1.5 4.38235C1.5 3.89374 1.50024 3.55085 1.51754 3.28157C1.53458 3.01643 1.56668 2.85716 1.6148 2.73295L0.682325 2.37171C0.581885 2.63097 0.539704 2.90454 0.519599 3.21745C0.49976 3.52622 0.5 3.9066 0.5 4.38235H1.5ZM4.23529 0.647059C3.75954 0.647059 3.37917 0.646819 3.07039 0.666658C2.75748 0.686763 2.48391 0.728944 2.22465 0.829384L2.58589 1.76186C2.71011 1.71373 2.86937 1.68164 3.13451 1.6646C3.40379 1.6473 3.74668 1.64706 4.23529 1.64706V0.647059ZM1.6148 2.73295C1.78752 2.28709 2.14003 1.93458 2.58589 1.76186L2.22465 0.829384C1.51652 1.10371 0.956656 1.66358 0.682325 2.37171L1.6148 2.73295ZM5.4 11C4.34878 11 3.61066 10.9989 3.05263 10.9239C2.50898 10.8508 2.21172 10.7159 1.99792 10.5021L1.29081 11.2092C1.72138 11.6398 2.26484 11.827 2.91938 11.915C3.55953 12.0011 4.37704 12 5.4 12V11ZM0.5 7.1C0.5 8.12296 0.498938 8.94047 0.585004 9.58062C0.673004 10.2352 0.860244 10.7786 1.29081 11.2092L1.99792 10.5021C1.78412 10.2883 1.64918 9.99102 1.57609 9.44737C1.50106 8.88934 1.5 8.15123 1.5 7.1H0.5ZM10.8529 8.26471C10.8529 8.75332 10.8527 9.09621 10.8354 9.36549C10.8184 9.63063 10.7863 9.7899 10.7381 9.91411L11.6706 10.2754C11.7711 10.0161 11.8132 9.74252 11.8333 9.42961C11.8532 9.12083 11.8529 8.74046 11.8529 8.26471H10.8529ZM8.11765 12C8.5934 12 8.97378 12.0002 9.28255 11.9804C9.59546 11.9603 9.86903 11.9181 10.1283 11.8177L9.76705 10.8852C9.64284 10.9333 9.48357 10.9654 9.21843 10.9825C8.94916 10.9998 8.60626 11 8.11765 11V12ZM10.7381 9.91411C10.5654 10.36 10.2129 10.7125 9.76705 10.8852L10.1283 11.8177C10.8364 11.5433 11.3963 10.9835 11.6706 10.2754L10.7381 9.91411Z" fill="black"/>
</svg>