<svg width="89" height="14" viewBox="0 0 89 14" fill="none" xmlns="http://www.w3.org/2000/svg">
<path d="M4.91547 10.3416C7.64313 10.3416 9.30246 9.03493 9.30246 6.96233C9.30246 5.54312 8.3563 4.5744 6.40243 4.18016L4.48548 3.78584C3.76 3.62818 3.37927 3.41417 3.37927 3.01993C3.37927 2.62569 3.73538 2.37783 4.60766 2.37783C5.61917 2.41021 6.58522 2.76929 7.33627 3.3916L8.94541 1.22897C7.67913 0.416784 6.15144 0.0199387 4.60766 0.102502C2.05237 0.102502 0.331485 1.22896 0.331485 3.22265C0.315384 3.93039 0.588148 4.61816 1.09769 5.15001C1.60818 5.68185 2.31662 6.01905 3.08472 6.09502L4.98934 6.51183C5.9355 6.70327 6.21774 6.96233 6.21774 7.30031C6.21774 7.63821 5.837 7.9649 4.98934 7.9649C3.78747 7.94329 2.62916 7.54583 1.70763 6.83844L0 8.93362C1.40645 9.91943 3.14723 10.4181 4.91547 10.3416Z" fill="#F4333D"/>
<path d="M12.4849 3.42428C12.8552 3.42428 13.217 3.32357 13.5239 3.135C13.8317 2.94635 14.0713 2.67825 14.2114 2.36475C14.3526 2.05126 14.3895 1.70641 14.3156 1.37399C14.2427 1.04156 14.0637 0.736485 13.8014 0.497475C13.539 0.258553 13.2047 0.0963775 12.8419 0.0315246C12.4792 -0.0332416 12.1032 0.00226651 11.7622 0.133622C11.4203 0.264891 11.1296 0.486103 10.926 0.769129C10.7223 1.05224 10.6153 1.38432 10.6172 1.72343C10.6143 1.94864 10.6598 2.17211 10.7526 2.38056C10.8454 2.58909 10.9837 2.77827 11.158 2.93697C11.3323 3.09567 11.5397 3.22061 11.767 3.30438C11.9952 3.38808 12.2396 3.42888 12.4849 3.42428Z" fill="black"/>
<path d="M10.4707 10.1164H14.5006L13.653 4C12.8915 4.18023 12.0921 4.18023 11.3307 4L10.4707 10.1164Z" fill="black"/>
<path d="M16.3906 10.1132H19.6591V4.81909C19.6591 3.52376 20.3467 2.724 21.6745 2.724C23.0014 2.724 23.6038 3.38859 23.6038 4.81909V10.1132H26.823V4.07567C26.823 1.43988 25.3853 0.0882066 22.9275 0.0882066C22.2873 0.0626821 21.6508 0.188047 21.0788 0.452234C20.5067 0.716508 20.018 1.11083 19.6591 1.59762V0.966804C19.6685 0.87443 19.6553 0.781187 19.6212 0.693935C19.5871 0.606596 19.5322 0.527245 19.4602 0.461698C19.3892 0.396063 19.302 0.345709 19.2073 0.314281C19.1117 0.282766 19.0103 0.270959 18.909 0.279641H16.4522L16.3906 10.1132Z" fill="#F4333D"/>
<path d="M37.3549 0.280737C37.2536 0.272055 37.1523 0.283862 37.0576 0.315377C36.9619 0.346805 36.8757 0.397159 36.8037 0.462794C36.7317 0.528341 36.6768 0.607693 36.6427 0.695031C36.6086 0.782283 36.5954 0.875526 36.6048 0.967901V1.56486C36.2478 1.08215 35.76 0.692513 35.1889 0.433883C34.6188 0.175339 33.9842 0.0565723 33.3487 0.0893027C32.0256 0.205986 30.7981 0.770215 29.9041 1.67199C29.011 2.57377 28.5156 3.74833 28.5156 4.96665C28.5156 6.18496 29.011 7.35952 29.9041 8.2613C30.7981 9.16307 32.0256 9.7273 33.3487 9.84399C33.9634 9.87949 34.579 9.78174 35.1444 9.5587C35.7098 9.33558 36.2108 8.99343 36.6048 8.55986V9.21325C36.6058 9.5218 36.5376 9.82723 36.404 10.1106C36.2705 10.3939 36.0754 10.649 35.8301 10.8603C35.5848 11.0715 35.294 11.2343 34.9777 11.3385C34.6604 11.4427 34.3242 11.4861 33.988 11.4661C32.7814 11.4875 31.6117 11.0844 30.7195 10.3396L29.0356 12.5925C30.4695 13.586 32.2425 14.081 34.0372 13.9892C37.2565 13.9892 39.8742 12.5136 39.8742 8.80773V0.280737H37.3549ZM34.2087 7.24197C33.7228 7.24197 33.2483 7.10992 32.8439 6.86231C32.4395 6.6148 32.1241 6.26292 31.9385 5.85132C31.7528 5.43963 31.7036 4.9867 31.7983 4.54966C31.8939 4.1127 32.1279 3.71126 32.4717 3.3962C32.8145 3.08113 33.253 2.86661 33.7294 2.77962C34.2068 2.69271 34.7002 2.73733 35.1491 2.90785C35.599 3.07836 35.9826 3.36711 36.2525 3.73756C36.5224 4.10802 36.6664 4.54358 36.6664 4.98922C36.6664 5.5867 36.4078 6.1597 35.9466 6.58215C35.4863 7.00469 34.8612 7.24197 34.2087 7.24197Z" fill="#F4333D"/>
<path d="M48.8706 0.0885678C48.2152 0.0620015 47.5626 0.182505 46.9688 0.439659C46.3759 0.696814 45.8597 1.08281 45.4667 1.56421V0.967164C45.4761 0.87479 45.4629 0.781635 45.4288 0.694297C45.3947 0.606958 45.3398 0.527693 45.2678 0.462059C45.1967 0.396425 45.1096 0.346069 45.0149 0.314641C44.9192 0.283213 44.8179 0.271406 44.7175 0.280088H42.2598V13.7182H45.4667V9.03229C45.8938 9.46672 46.4204 9.80913 47.0086 10.035C47.5977 10.2609 48.2332 10.3647 48.8706 10.3389C49.5733 10.3225 50.2656 10.1752 50.904 9.90593C51.5433 9.63671 52.1153 9.25124 52.587 8.77296C53.0577 8.29459 53.4176 7.7334 53.6449 7.12351C53.8722 6.51361 53.9622 5.86769 53.9082 5.22497C53.966 4.58061 53.8788 3.93226 53.6534 3.31967C53.4271 2.70708 53.0681 2.14311 52.5965 1.66232C52.1248 1.18152 51.5509 0.793963 50.9106 0.523439C50.2694 0.252827 49.5752 0.104803 48.8706 0.0885678ZM48.0106 7.71439C47.4613 7.73462 46.9176 7.6037 46.4507 7.33855C45.9838 7.07341 45.6135 6.68612 45.389 6.22651C45.1636 5.76698 45.0935 5.25614 45.1882 4.75989C45.282 4.26364 45.5368 3.80463 45.9184 3.442C46.2992 3.07936 46.7907 2.82967 47.3287 2.72505C47.8657 2.62052 48.4254 2.66576 48.934 2.85519C49.4436 3.04454 49.8792 3.36933 50.1851 3.78762C50.492 4.20599 50.654 4.69877 50.6521 5.20249C50.671 5.52918 50.6161 5.85597 50.4911 6.16243C50.366 6.4689 50.1738 6.74863 49.9256 6.98417C49.6784 7.2197 49.3801 7.40601 49.0505 7.53164C48.7209 7.65726 48.3667 7.71942 48.0106 7.71439Z" fill="#F4333D"/>
<path d="M64.538 0.28095C64.4366 0.272268 64.3353 0.283989 64.2396 0.315504C64.1449 0.346932 64.0578 0.397287 63.9868 0.462921C63.9148 0.528555 63.8598 0.60782 63.8257 0.695159C63.7917 0.782497 63.7784 0.875653 63.7879 0.968028V1.56507C63.3891 1.07551 62.8635 0.68448 62.2583 0.426891C61.6531 0.169389 60.9882 0.0534004 60.3224 0.0894298C59.6197 0.105925 58.9283 0.253169 58.289 0.522392C57.6506 0.791614 57.0776 1.17708 56.6069 1.65545C56.1353 2.13373 55.7754 2.69492 55.5481 3.3049C55.3207 3.9148 55.2308 4.56072 55.2848 5.20335C55.2308 5.84598 55.3207 6.4919 55.5481 7.1018C55.7754 7.71178 56.1353 8.27288 56.6069 8.75125C57.0776 9.22962 57.6506 9.61509 58.289 9.88431C58.9283 10.1535 59.6197 10.3008 60.3224 10.3173C60.9882 10.3503 61.6521 10.233 62.2564 9.97564C62.8607 9.7184 63.3863 9.32894 63.7879 8.84163V10.1145H67.0071V0.28095H64.538ZM61.1833 7.71525C60.4863 7.67254 59.8337 7.38864 59.3564 6.92122C58.88 6.45379 58.6138 5.83773 58.6138 5.19771C58.6138 4.55769 58.88 3.94163 59.3564 3.4742C59.8337 3.00677 60.4863 2.72296 61.1833 2.68016C61.8795 2.72296 62.532 3.00677 63.0093 3.4742C63.4867 3.94163 63.7519 4.55769 63.7519 5.19771C63.7519 5.83773 63.4867 6.45379 63.0093 6.92122C62.532 7.38864 61.8795 7.67254 61.1833 7.71525Z" fill="#F4333D"/>
<path d="M73.5201 10.3416C76.2478 10.3416 77.9071 9.03502 77.9071 6.96242C77.9071 5.54312 76.9609 4.5744 75.0071 4.18016L73.1024 3.78592C72.3646 3.62818 71.9839 3.41417 71.9839 3.01993C71.9839 2.62569 72.34 2.37791 73.2132 2.37791C74.2238 2.41021 75.1908 2.76929 75.9409 3.39168L77.551 1.22896C76.2837 0.416784 74.7561 0.0199387 73.2132 0.102502C70.657 0.102502 68.9371 1.22896 68.9371 3.22274C68.92 3.93039 69.1937 4.61816 69.7033 5.15001C70.2128 5.68185 70.9212 6.01905 71.6893 6.09502L73.594 6.51183C74.5401 6.70326 74.8224 6.96242 74.8224 7.30031C74.8224 7.63821 74.4293 7.9649 73.594 7.9649C72.3921 7.94328 71.2347 7.54583 70.3132 6.83844L68.7031 9.00116C70.1124 9.97899 71.8532 10.4696 73.6186 10.3867L73.5201 10.3416Z" fill="#F4333D"/>
<path d="M83.6939 10.3423C86.4225 10.3423 88.0809 9.0356 88.0809 6.96299C88.0809 5.54369 87.1348 4.57498 85.1809 4.18074L83.2639 3.7865C82.5394 3.62884 82.1577 3.41483 82.1577 3.02059C82.1577 2.62635 82.5148 2.37849 83.3871 2.37849C84.3948 2.40957 85.358 2.76899 86.1024 3.39226L87.7125 1.22954C86.4519 0.415014 84.9261 0.0178207 83.3871 0.103163C80.8308 0.103163 79.1109 1.22954 79.1109 3.22331C79.0938 3.93105 79.3676 4.61882 79.8771 5.15067C80.3866 5.68243 81.0951 6.01972 81.8632 6.09568L83.7678 6.51241C84.714 6.70393 84.9962 6.96299 84.9962 7.30097C84.9962 7.63887 84.6155 7.96548 83.7678 7.96548C82.5659 7.94395 81.4086 7.54649 80.487 6.8391L78.877 9.00182C80.2862 9.97965 82.027 10.4703 83.7924 10.3873L83.6939 10.3423Z" fill="#F4333D"/>
</svg>
