<svg width="24" height="24" viewBox="0 0 24 24" fill="none" xmlns="http://www.w3.org/2000/svg">
<path d="M2.88122 6.38247L0.886719 4.78687L1.28562 7.97807L4.47681 10.3715H7.66801L8.86471 11.5682L2.48232 17.9506L0.886719 22.7374L1.28562 23.1363L6.07241 21.1418L12.4548 15.1583L14.0504 16.355V21.1418L16.4438 22.7374H19.635L17.6405 21.1418V19.1473L19.635 17.5517L21.2306 17.9506L22.8262 19.5462L22.0284 15.1583L19.635 13.9616H16.4438L14.8482 12.7649L22.8262 4.78687V2.79238L21.2306 1.19678H19.635L11.657 8.77587L10.4603 7.97807V6.38247L9.66251 2.79238L7.66801 1.19678H4.47681L6.07241 2.79238L6.87021 4.78687L4.87571 6.78137L2.88122 6.38247Z" fill="white"/>
<path d="M16.4802 13.0614L16.0015 12.5827L23.2136 5.3698C24.2157 4.36856 24.2603 2.78333 23.315 1.83635L22.1629 0.684324C21.6962 0.217611 21.0723 -0.0305041 20.3838 0.00300345C19.7296 0.0309264 19.1058 0.307763 18.6303 0.784846L11.4174 7.99775L10.9387 7.51907C11.6551 5.50702 11.1613 3.2293 9.63031 1.69833C8.22778 0.296593 6.16148 -0.257079 4.24038 0.255108C3.96434 0.328505 3.74893 0.543113 3.67474 0.819152C3.60054 1.09519 3.67952 1.38878 3.88137 1.59062L5.54877 3.25723L5.89741 4.30394L4.33851 5.86284L3.29179 5.5142L1.62519 3.8476C1.42335 3.64575 1.12816 3.56757 0.85372 3.64097C0.578479 3.71516 0.363871 3.93057 0.290474 4.20581C-0.222511 6.1285 0.330364 8.19401 1.73289 9.59574C3.26467 11.1267 5.54239 11.6206 7.55364 10.9041L8.03232 11.3828L1.71614 17.699C1.63477 17.7804 1.57174 17.8785 1.53265 17.9862L0.10698 21.8372C-0.117999 22.4451 0.0176266 23.0969 0.459607 23.5397C0.760378 23.8404 1.15928 24 1.57413 24C1.7688 24 1.96745 23.9649 2.16131 23.8931L6.01229 22.4674C6.12079 22.4275 6.21892 22.3645 6.2995 22.2831L12.6157 15.967L13.0944 16.4456C12.3779 18.4577 12.8718 20.7354 14.4027 22.2664C15.459 23.3227 16.8919 23.8971 18.3566 23.8971C18.8361 23.8971 19.3188 23.8357 19.7927 23.7096C20.0687 23.6362 20.2841 23.4216 20.3583 23.1456C20.4325 22.8695 20.3535 22.5759 20.1517 22.3741L18.4843 20.7075L18.1356 19.6608L19.6945 18.1019L20.7413 18.4505L22.4079 20.1171C22.6097 20.319 22.9041 20.3971 23.1793 20.3237C23.4546 20.2495 23.6692 20.0341 23.7426 19.7589C24.2556 17.8362 23.7027 15.7707 22.3002 14.369C20.7684 12.838 18.4907 12.3442 16.4794 13.0606L16.4802 13.0614ZM19.7576 1.91373C19.9506 1.72066 20.1964 1.60897 20.4501 1.5978C20.6854 1.58265 20.8865 1.66402 21.034 1.81241L22.1853 2.96364C22.5092 3.28834 22.4645 3.86116 22.0847 4.24091L21.2758 5.04988C21.2718 5.04589 21.2702 5.03951 21.2662 5.03552L18.9622 2.73148C18.9582 2.72749 18.9518 2.72589 18.9478 2.7219L19.7568 1.91293L19.7576 1.91373ZM8.30516 9.39948C8.15278 9.2463 7.94855 9.16573 7.74112 9.16573C7.62464 9.16573 7.50736 9.19126 7.39727 9.24391C5.87507 9.97071 4.0513 9.65877 2.86018 8.46845C2.24508 7.85335 1.85895 7.05794 1.73768 6.21786L2.29614 6.77632C2.3831 6.86408 2.49001 6.92949 2.60808 6.96938L4.30021 7.53343C4.58662 7.62917 4.90335 7.55417 5.11636 7.34036L7.37333 5.08419C7.58714 4.87038 7.66134 4.55445 7.5656 4.26804L7.00156 2.57511C6.96247 2.45783 6.89625 2.35093 6.80929 2.26317L6.25083 1.70471C7.09171 1.82597 7.88632 2.21211 8.50142 2.82721C9.69174 4.01753 10.0037 5.8413 9.27768 7.3643C9.13168 7.66905 9.19471 8.03285 9.43325 8.27219L10.2885 9.12743L9.15961 10.2563L8.30437 9.40108L8.30516 9.39948ZM1.60126 22.3916L2.80354 19.1454L4.85229 21.1949L1.60126 22.3916ZM6.1176 20.2089C6.11361 20.2049 6.11201 20.1985 6.10802 20.1945L3.80398 17.8905C3.79999 17.8865 3.79441 17.8849 3.78962 17.8809L17.8253 3.846C17.8293 3.84999 17.8309 3.85637 17.8349 3.86036L20.1389 6.16441C20.1429 6.16839 20.1493 6.16999 20.1533 6.17398L6.1184 20.2089H6.1176ZM21.7361 17.19C21.6492 17.1022 21.5422 17.0368 21.4242 16.9969L19.732 16.4329C19.4464 16.3363 19.1289 16.4121 18.9159 16.6259L16.6589 18.8821C16.4451 19.0959 16.3709 19.4119 16.4666 19.6983L17.0307 21.3912C17.0698 21.5085 17.136 21.6154 17.223 21.7031L17.7814 22.2616C16.9405 22.1403 16.1459 21.7542 15.5308 21.1391C14.3405 19.9488 14.0286 18.125 14.7546 16.602C14.9006 16.2973 14.8375 15.9335 14.599 15.6941L13.7438 14.8389L14.8726 13.71L15.7279 14.5652C15.9672 14.8046 16.3302 14.8668 16.6358 14.7208C18.158 13.9948 19.9825 14.3067 21.1729 15.4963C21.788 16.1114 22.1741 16.9068 22.2954 17.7469L21.7369 17.1884L21.7361 17.19Z" fill="#2752E7"/>
</svg>
