<svg width="32" height="32" viewBox="0 0 32 32" fill="none" xmlns="http://www.w3.org/2000/svg">
<g clip-path="url(#clip0_6540_44337)">
<path d="M19.75 20.625C19.75 18.5573 18.0677 16.875 16 16.875C13.9323 16.875 12.25 18.5573 12.25 20.625C12.25 22.6927 13.9323 24.375 16 24.375C18.0677 24.375 19.75 22.6927 19.75 20.625ZM16 22.5C14.9661 22.5 14.125 21.6589 14.125 20.625C14.125 19.5911 14.9661 18.75 16 18.75C17.0339 18.75 17.875 19.5911 17.875 20.625C17.875 21.6589 17.0339 22.5 16 22.5Z" fill="#B6B6B6"/>
<path d="M29.125 20.625C29.125 18.5573 27.4427 16.875 25.375 16.875C23.3073 16.875 21.625 18.5573 21.625 20.625C21.625 22.6927 23.3073 24.375 25.375 24.375C27.4427 24.375 29.125 22.6927 29.125 20.625ZM25.375 22.5C24.3411 22.5 23.5 21.6589 23.5 20.625C23.5 19.5911 24.3411 18.75 25.375 18.75C26.4089 18.75 27.25 19.5911 27.25 20.625C27.25 21.6589 26.4089 22.5 25.375 22.5Z" fill="#B6B6B6"/>
<path d="M29.1875 24.375H2.8125C1.26169 24.375 0 25.6367 0 27.1875V32H32V27.1875C32 25.6367 30.7383 24.375 29.1875 24.375ZM1.875 30.125V27.1875C1.875 26.6706 2.29556 26.25 2.8125 26.25H9.59875C9.49469 26.5434 9.4375 26.8589 9.4375 27.1875V30.125H1.875ZM20.6875 30.125H11.3125V27.1875C11.3125 26.6706 11.7331 26.25 12.25 26.25H15.0625V28.125H16.9375V26.25H19.75C20.2669 26.25 20.6875 26.6706 20.6875 27.1875V30.125ZM30.125 30.125H22.5625V27.1875C22.5625 26.8589 22.5053 26.5434 22.4013 26.25H29.1875C29.7044 26.25 30.125 26.6706 30.125 27.1875V30.125Z" fill="#B6B6B6"/>
<path d="M10.375 20.625C10.375 18.5573 8.69275 16.875 6.625 16.875C4.55725 16.875 2.875 18.5573 2.875 20.625C2.875 22.6927 4.55725 24.375 6.625 24.375C8.69275 24.375 10.375 22.6927 10.375 20.625ZM6.625 22.5C5.59113 22.5 4.75 21.6589 4.75 20.625C4.75 19.5911 5.59113 18.75 6.625 18.75C7.65887 18.75 8.5 19.5911 8.5 20.625C8.5 21.6589 7.65887 22.5 6.625 22.5Z" fill="#B6B6B6"/>
<path d="M24.4375 8.4375C24.4375 3.78506 20.6524 0 16 0C11.3476 0 7.5625 3.78506 7.5625 8.4375C7.5625 13.0899 11.3476 16.875 16 16.875C20.6524 16.875 24.4375 13.0899 24.4375 8.4375ZM16 15C12.3814 15 9.4375 12.0561 9.4375 8.4375C9.4375 4.81894 12.3814 1.875 16 1.875C19.6186 1.875 22.5625 4.81894 22.5625 8.4375C22.5625 12.0561 19.6186 15 16 15Z" fill="#B6B6B6"/>
<path d="M15.0621 8.98633L13.1871 7.11133L11.8613 8.43714L15.0621 11.638L20.138 6.56214L18.8121 5.23633L15.0621 8.98633Z" fill="#B6B6B6"/>
</g>
<defs>
<clipPath id="clip0_6540_44337">
<rect width="32" height="32" fill="white"/>
</clipPath>
</defs>
</svg>
