<svg width="58" height="40" viewBox="0 0 58 40" fill="none" xmlns="http://www.w3.org/2000/svg">
    <path d="M45.194 5H4.806C3.813 5 3 5.813 3 6.806V33.58c0 .993.813 1.805 1.806 1.805h40.388c.993 0 1.806-.812 1.806-1.805V6.806C47 5.813 46.187 5 45.194 5z" fill="#DFEBFA"/>
    <path d="M6.01 33.58V6.806A1.81 1.81 0 0 1 7.816 5h-3.01A1.81 1.81 0 0 0 3 6.806V33.58c0 .993.813 1.805 1.806 1.805h3.01A1.81 1.81 0 0 1 6.01 33.58z" fill="#B1DBFC"/>
    <path d="M25.628 29.354V10.659c0-.605-.495-1.1-1.1-1.1H8.49c-.605 0-1.1.495-1.1 1.1v18.695h18.238z" fill="#FF656F"/>
    <path d="M12.35 9.559H8.49c-.605 0-1.1.495-1.1 1.1v18.695h3.86V10.659c0-.605.494-1.1 1.1-1.1z" fill="#FF4756"/>
    <path d="M13.036 26.104c.616 1.213 1.877 2.098 3.528 2.098 1.49 0 2.782-.854 3.416-2.097l-1.182-.458a.372.372 0 0 1-.237-.345v-1.485a3.637 3.637 0 0 1-2 .596 3.84 3.84 0 0 1-2.107-.602V25.3c0 .098-.03.17-.075.225-.083.103-.216.142-.286.17l-1.057.409z" fill="#FFBD86"/>
    <path d="M16.509 26.368V24.41a3.833 3.833 0 0 1-2.055-.6v1.488c0 .099-.03.17-.075.225-.083.103-.216.142-.286.17l-1.057.41a3.789 3.789 0 0 0 1.666 1.666c.398-.146.758-.268 1.051-.363.45-.145.756-.566.756-1.04z" fill="#F6A96C"/>
    <path d="m23.985 27.655-4.136-1.602a3.665 3.665 0 0 1-3.287 2.051c-1.6 0-2.815-.87-3.393-2.052l-4.136 1.603c-.556.229-1.234.776-1.643 1.582v.49c0 .604.495 1.1 1.1 1.1h16.038c.605 0 1.1-.496 1.1-1.1v-.486c-.365-.732-.968-1.308-1.643-1.586z" fill="#60B8FE"/>
    <path d="M14.839 27.72a3.617 3.617 0 0 1-1.67-1.668l-4.136 1.603c-.556.229-1.234.776-1.643 1.582v.49c0 .604.495 1.1 1.1 1.1h1.503c.581-1.357 3.115-2.48 4.846-3.107z" fill="#23A8FE"/>
    <path d="M42.94 18.656h-9.259a.664.664 0 0 1 0-1.328h9.259a.664.664 0 1 1 0 1.328zM42.94 21.497h-9.259a.664.664 0 1 1 0-1.328h9.259a.664.664 0 0 1 0 1.328z" fill="#B1DBFC"/>
    <path d="M42.289 9.559H29.887a.651.651 0 0 0-.652.65v1.451c0 .36.292.651.652.651h12.402c.36 0 .651-.291.651-.651v-1.45a.651.651 0 0 0-.651-.651z" fill="#FF656F"/>
    <path d="M33.095 11.66v-1.45c0-.36.291-.651.651-.651h-3.86a.651.651 0 0 0-.65.65v1.451c0 .36.29.651.65.651h3.86a.651.651 0 0 1-.651-.651z" fill="#FF4756"/>
    <path d="M42.94 15.816h-9.259a.664.664 0 1 1 0-1.328h9.259a.664.664 0 0 1 0 1.328zM42.94 24.337h-9.259a.664.664 0 0 1 0-1.328h9.259a.664.664 0 1 1 0 1.328zM42.94 27.177h-9.259a.664.664 0 1 1 0-1.327h9.259a.664.664 0 0 1 0 1.327zM42.94 30.018h-9.259a.664.664 0 0 1 0-1.328h9.259a.664.664 0 1 1 0 1.328zM31.069 21.497h-1.834a.664.664 0 1 1 0-1.328h1.834a.664.664 0 0 1 0 1.328zM31.069 15.816h-1.834a.664.664 0 1 1 0-1.328h1.834a.664.664 0 0 1 0 1.328zM31.069 27.177h-1.834a.664.664 0 1 1 0-1.327h1.834a.664.664 0 0 1 0 1.327z" fill="#B1DBFC"/>
    <path d="M20.95 18.147a.696.696 0 0 1-.452.167c-.095 0-.265-.01-.354-.03v2.733c0 .034-.002.068-.003.101.915.074 1.801-.6 1.801-1.421 0-.626-.402-1.35-.992-1.55z" fill="#FFBD86"/>
    <path d="M21.258 18.31a1.155 1.155 0 0 0-.308-.163.696.696 0 0 1-.452.167c-.095 0-.265-.01-.354-.03v2.733l-.003.102a1.81 1.81 0 0 0 1.117-.286V18.31z" fill="#F6A96C"/>
    <path d="M12.873 21.017v-2.703h-.535c-.144 0-.281-.029-.407-.08-.488.246-.856.897-.856 1.463 0 .82.885 1.495 1.8 1.421l-.002-.1z" fill="#FFBD86"/>
    <path d="M12.873 20.833c-.406-.262-.684-.676-.684-1.136 0-.498.284-1.06.684-1.356v-.027h-.535c-.144 0-.281-.029-.407-.08-.488.246-.856.897-.856 1.463 0 .82.885 1.495 1.8 1.421l-.002-.1v-.185z" fill="#F6A96C"/>
    <path d="M19.163 17.057c0-.071-.096-.096-.13-.033a2.584 2.584 0 0 1-2.28 1.368h-3.958v2.625c0 1.913 1.5 3.66 3.767 3.66a3.665 3.665 0 0 0 3.66-3.66v-2.654a1.34 1.34 0 0 1-1.059-1.306z" fill="#FED2A4"/>
    <path d="M14.742 21.017v-2.625h-1.947v2.625c0 1.913 1.5 3.66 3.767 3.66.324 0 .64-.043.94-.122a3.638 3.638 0 0 1-2.76-3.538z" fill="#FFBD86"/>
    <path d="M19.984 13.574c-.35.027-.67-.194-.738-.538-.113-.58-.4-1.155-1.521-1.155h-3.89a2.585 2.585 0 0 0-2.586 2.585v2.916c0 .6.487 1.088 1.089 1.088h4.415c.988 0 1.845-.554 2.28-1.368.034-.063.13-.038.13.033 0 .734.6 1.335 1.335 1.335.385 0 .7-.315.7-.7v-3.038c0-.698-.609-1.205-1.214-1.158z" fill="#665E68"/>
    <path d="M13.55 17.382v-2.916a2.585 2.585 0 0 1 2.586-2.585h-2.302a2.585 2.585 0 0 0-2.585 2.585v2.916c0 .6.487 1.088 1.089 1.088h2.301a1.089 1.089 0 0 1-1.088-1.088z" fill="#544E55"/>
    <rect x=".5" y=".5" width="49" height="39" rx="1.5" stroke="#2752E7"/>
    <path fill="url(#a8e92jex7a)" d="M3 5h44v30H3z"/>
    <circle cx="50" cy="32" r="8" fill="#E11900"/>
    <path d="M54 28.967 53.033 28 50 31.077 46.967 28l-.967.967L49.077 32 46 35.033l.967.967L50 32.923 53.033 36l.967-.967L50.923 32 54 28.967z" fill="#F6F6F6"/>
    <defs>
        <radialGradient id="a8e92jex7a" cx="0" cy="0" r="1" gradientUnits="userSpaceOnUse" gradientTransform="matrix(0 19 -39.0466 0 25 20)">
            <stop offset=".313" stop-color="#fff" stop-opacity=".85"/>
            <stop offset="1" stop-color="#fff" stop-opacity="0"/>
        </radialGradient>
    </defs>
</svg>
