<svg width="20" height="20" viewBox="0 0 20 20" fill="none" xmlns="http://www.w3.org/2000/svg">
<g clip-path="url(#clip0_1_15410)">
<path fill-rule="evenodd" clip-rule="evenodd" d="M20 12.9412V7.05882H18.1986C17.9082 4.74063 15.9251 2.94118 13.5294 2.94118H7.00953C6.72863 1.27408 5.27514 0 3.52941 0C1.58329 0 0 1.58329 0 3.52941C0 5.47553 1.58329 7.05882 3.52941 7.05882C5.27514 7.05882 6.72863 5.78475 7.00953 4.11765H13.5294C15.2751 4.11765 16.7286 5.39173 17.0095 7.05882H14.1176V9.41177H7.05882C4.97306 9.41177 3.24475 10.9707 2.97729 12.9845C1.29251 13.2503 0 14.7123 0 16.4706C0 18.4167 1.58329 20 3.52941 20C5.27514 20 6.72863 18.7259 7.00953 17.0588H13.2858L12.5252 17.8194L13.3571 18.6513L15.5378 16.4706L13.3571 14.29L12.5253 15.1218L13.2858 15.8824H7.00953C6.76365 14.4229 5.6191 13.2649 4.16651 12.9989C4.41706 11.6296 5.61824 10.5882 7.05882 10.5882H14.1176V12.9412H20ZM3.52941 5.88235C2.232 5.88235 1.17647 4.82682 1.17647 3.52941C1.17647 2.232 2.232 1.17647 3.52941 1.17647C4.82682 1.17647 5.88235 2.232 5.88235 3.52941C5.88235 4.82682 4.82682 5.88235 3.52941 5.88235ZM5.88235 16.4706C5.88235 17.768 4.82682 18.8235 3.52941 18.8235C2.232 18.8235 1.17647 17.768 1.17647 16.4706C1.17647 15.1732 2.232 14.1176 3.52941 14.1176C4.82682 14.1176 5.88235 15.1732 5.88235 16.4706ZM15.2941 8.23529H18.8235V11.7647H15.2941V8.23529ZM4.11837 2.94067H2.94189V4.11714H4.11837V2.94067ZM4.11837 15.8826H2.94189V17.059H4.11837V15.8826ZM17.6462 9.41162H16.4697V10.5881H17.6462V9.41162Z" fill="#2CAF70"/>
<path d="M20 7.05882H20.15V6.90882H20V7.05882ZM20 12.9412V13.0912H20.15V12.9412H20ZM18.1986 7.05882L18.0498 7.07747L18.0662 7.20882H18.1986V7.05882ZM7.00953 2.94118L6.86161 2.9661L6.88269 3.09118H7.00953V2.94118ZM7.00953 4.11765V3.96765H6.88269L6.86161 4.09272L7.00953 4.11765ZM17.0095 7.05882V7.20882H17.1869L17.1574 7.0339L17.0095 7.05882ZM14.1176 7.05882V6.90882H13.9676V7.05882H14.1176ZM14.1176 9.41177V9.56176H14.2676V9.41177H14.1176ZM2.97729 12.9845L3.00067 13.1326L3.11125 13.1152L3.12599 13.0042L2.97729 12.9845ZM7.00953 17.0588V16.9088H6.88269L6.86161 17.0339L7.00953 17.0588ZM13.2858 17.0588L13.3918 17.1649L13.6479 16.9088H13.2858V17.0588ZM12.5252 17.8194L12.4192 17.7133L12.3131 17.8194L12.4192 17.9254L12.5252 17.8194ZM13.3571 18.6513L13.251 18.7573L13.3571 18.8634L13.4632 18.7573L13.3571 18.6513ZM15.5378 16.4706L15.6438 16.5767L15.7499 16.4706L15.6438 16.3645L15.5378 16.4706ZM13.3571 14.29L13.4632 14.1839L13.3571 14.0778L13.2511 14.1839L13.3571 14.29ZM12.5253 15.1218L12.4192 15.0158L12.3131 15.1218L12.4192 15.2279L12.5253 15.1218ZM13.2858 15.8824V16.0324H13.6479L13.3918 15.7763L13.2858 15.8824ZM7.00953 15.8824L6.86161 15.9073L6.88269 16.0324H7.00953V15.8824ZM4.16651 12.9989L4.01896 12.9719L3.99196 13.1195L4.1395 13.1465L4.16651 12.9989ZM14.1176 10.5882H14.2676V10.4382H14.1176V10.5882ZM14.1176 12.9412H13.9676V13.0912H14.1176V12.9412ZM18.8235 8.23529H18.9735V8.08529H18.8235V8.23529ZM15.2941 8.23529V8.08529H15.1441V8.23529H15.2941ZM18.8235 11.7647V11.9147H18.9735V11.7647H18.8235ZM15.2941 11.7647H15.1441V11.9147H15.2941V11.7647ZM2.94189 2.94067V2.79067H2.79189V2.94067H2.94189ZM4.11837 2.94067H4.26837V2.79067H4.11837V2.94067ZM2.94189 4.11714H2.79189V4.26714H2.94189V4.11714ZM4.11837 4.11714V4.26714H4.26837V4.11714H4.11837ZM2.94189 15.8826V15.7326H2.79189V15.8826H2.94189ZM4.11837 15.8826H4.26837V15.7326H4.11837V15.8826ZM2.94189 17.059H2.79189V17.209H2.94189V17.059ZM4.11837 17.059V17.209H4.26837V17.059H4.11837ZM16.4697 9.41162V9.26162H16.3197V9.41162H16.4697ZM17.6462 9.41162H17.7962V9.26162H17.6462V9.41162ZM16.4697 10.5881H16.3197V10.7381H16.4697V10.5881ZM17.6462 10.5881V10.7381H17.7962V10.5881H17.6462ZM19.85 7.05882V12.9412H20.15V7.05882H19.85ZM18.1986 7.20882H20V6.90882H18.1986V7.20882ZM13.5294 3.09118C15.8484 3.09118 17.7687 4.83329 18.0498 7.07747L18.3475 7.04018C18.0478 4.64796 16.0017 2.79118 13.5294 2.79118V3.09118ZM7.00953 3.09118H13.5294V2.79118H7.00953V3.09118ZM3.52941 0.15C5.20058 0.15 6.59266 1.36989 6.86161 2.9661L7.15744 2.91625C6.8646 1.17827 5.3497 -0.15 3.52941 -0.15V0.15ZM0.15 3.52941C0.15 1.66614 1.66614 0.15 3.52941 0.15V-0.15C1.50045 -0.15 -0.15 1.50045 -0.15 3.52941H0.15ZM3.52941 6.90882C1.66614 6.90882 0.15 5.39269 0.15 3.52941H-0.15C-0.15 5.55837 1.50045 7.20882 3.52941 7.20882V6.90882ZM6.86161 4.09272C6.59266 5.68894 5.20058 6.90882 3.52941 6.90882V7.20882C5.3497 7.20882 6.8646 5.88055 7.15744 4.14257L6.86161 4.09272ZM13.5294 3.96765H7.00953V4.26765H13.5294V3.96765ZM17.1574 7.0339C16.8646 5.29592 15.3497 3.96765 13.5294 3.96765V4.26765C15.2006 4.26765 16.5927 5.48753 16.8616 7.08375L17.1574 7.0339ZM14.1176 7.20882H17.0095V6.90882H14.1176V7.20882ZM14.2676 9.41177V7.05882H13.9676V9.41177H14.2676ZM7.05882 9.56176H14.1176V9.26177H7.05882V9.56176ZM3.12599 13.0042C3.38368 11.0639 5.04936 9.56176 7.05882 9.56176V9.26177C4.89676 9.26177 3.10581 10.8774 2.8286 12.9647L3.12599 13.0042ZM0.15 16.4706C0.15 14.7874 1.38755 13.3872 3.00067 13.1326L2.95391 12.8363C1.19747 13.1135 -0.15 14.6372 -0.15 16.4706H0.15ZM3.52941 19.85C1.66614 19.85 0.15 18.3339 0.15 16.4706H-0.15C-0.15 18.4995 1.50045 20.15 3.52941 20.15V19.85ZM6.86161 17.0339C6.59266 18.6301 5.20058 19.85 3.52941 19.85V20.15C5.3497 20.15 6.8646 18.8217 7.15744 17.0837L6.86161 17.0339ZM13.2858 16.9088H7.00953V17.2088H13.2858V16.9088ZM12.6313 17.9254L13.3918 17.1649L13.1797 16.9528L12.4192 17.7133L12.6313 17.9254ZM13.4632 18.5452L12.6313 17.7133L12.4192 17.9254L13.251 18.7573L13.4632 18.5452ZM15.4317 16.3645L13.251 18.5452L13.4632 18.7573L15.6438 16.5767L15.4317 16.3645ZM13.2511 14.396L15.4317 16.5767L15.6438 16.3645L13.4632 14.1839L13.2511 14.396ZM12.6313 15.2279L13.4632 14.396L13.2511 14.1839L12.4192 15.0158L12.6313 15.2279ZM13.3918 15.7763L12.6313 15.0158L12.4192 15.2279L13.1797 15.9884L13.3918 15.7763ZM7.00953 16.0324H13.2858V15.7324H7.00953V16.0324ZM4.1395 13.1465C5.53009 13.4011 6.62623 14.5102 6.86161 15.9073L7.15744 15.8574C6.90106 14.3357 5.70811 13.1287 4.19352 12.8514L4.1395 13.1465ZM7.05882 10.4382C5.54433 10.4382 4.28228 11.5328 4.01896 12.9719L4.31406 13.0259C4.55184 11.7264 5.69214 10.7382 7.05882 10.7382V10.4382ZM14.1176 10.4382H7.05882V10.7382H14.1176V10.4382ZM14.2676 12.9412V10.5882H13.9676V12.9412H14.2676ZM20 12.7912H14.1176V13.0912H20V12.7912ZM1.02647 3.52941C1.02647 4.90967 2.14916 6.03235 3.52941 6.03235V5.73235C2.31484 5.73235 1.32647 4.74398 1.32647 3.52941H1.02647ZM3.52941 1.02647C2.14916 1.02647 1.02647 2.14916 1.02647 3.52941H1.32647C1.32647 2.31484 2.31484 1.32647 3.52941 1.32647V1.02647ZM6.03235 3.52941C6.03235 2.14916 4.90967 1.02647 3.52941 1.02647V1.32647C4.74398 1.32647 5.73235 2.31484 5.73235 3.52941H6.03235ZM3.52941 6.03235C4.90967 6.03235 6.03235 4.90967 6.03235 3.52941H5.73235C5.73235 4.74398 4.74398 5.73235 3.52941 5.73235V6.03235ZM3.52941 18.9735C4.90967 18.9735 6.03235 17.8508 6.03235 16.4706H5.73235C5.73235 17.6852 4.74398 18.6735 3.52941 18.6735V18.9735ZM1.02647 16.4706C1.02647 17.8508 2.14916 18.9735 3.52941 18.9735V18.6735C2.31484 18.6735 1.32647 17.6852 1.32647 16.4706H1.02647ZM3.52941 13.9676C2.14916 13.9676 1.02647 15.0903 1.02647 16.4706H1.32647C1.32647 15.256 2.31484 14.2676 3.52941 14.2676V13.9676ZM6.03235 16.4706C6.03235 15.0903 4.90967 13.9676 3.52941 13.9676V14.2676C4.74398 14.2676 5.73235 15.256 5.73235 16.4706H6.03235ZM18.8235 8.08529H15.2941V8.38529H18.8235V8.08529ZM18.9735 11.7647V8.23529H18.6735V11.7647H18.9735ZM15.2941 11.9147H18.8235V11.6147H15.2941V11.9147ZM15.1441 8.23529V11.7647H15.4441V8.23529H15.1441ZM2.94189 3.09067H4.11837V2.79067H2.94189V3.09067ZM3.09189 4.11714V2.94067H2.79189V4.11714H3.09189ZM4.11837 3.96714H2.94189V4.26714H4.11837V3.96714ZM3.96837 2.94067V4.11714H4.26837V2.94067H3.96837ZM2.94189 16.0326H4.11837V15.7326H2.94189V16.0326ZM3.09189 17.059V15.8826H2.79189V17.059H3.09189ZM4.11837 16.909H2.94189V17.209H4.11837V16.909ZM3.96837 15.8826V17.059H4.26837V15.8826H3.96837ZM16.4697 9.56162H17.6462V9.26162H16.4697V9.56162ZM16.6197 10.5881V9.41162H16.3197V10.5881H16.6197ZM17.6462 10.4381H16.4697V10.7381H17.6462V10.4381ZM17.4962 9.41162V10.5881H17.7962V9.41162H17.4962Z" fill="#2CAF70"/>
</g>
<defs>
<clipPath id="clip0_1_15410">
<rect width="20" height="20" fill="white"/>
</clipPath>
</defs>
</svg>
