<svg width="10" height="12" viewBox="0 0 10 12" fill="none" xmlns="http://www.w3.org/2000/svg">
<path d="M9.66665 10.3333V11.6667H0.333313V10.3333H9.66665ZM7.66665 5.81C7.64469 6.24998 7.51408 6.67768 7.28647 7.05487C7.05887 7.43205 6.74136 7.74697 6.36233 7.97149C5.98329 8.196 5.55454 8.32312 5.11439 8.34147C4.67423 8.35982 4.23639 8.26884 3.83998 8.07666C3.38307 7.87899 2.99558 7.54942 2.72716 7.13015C2.45873 6.71088 2.32159 6.22102 2.33331 5.72333V0.336662H0.99998V5.81C1.02253 6.4376 1.19255 7.05108 1.49626 7.60077C1.79997 8.15045 2.22884 8.62091 2.74816 8.97404C3.26748 9.32718 3.86265 9.55308 4.4855 9.63345C5.10834 9.71382 5.74136 9.6464 6.33331 9.43666C7.12072 9.17421 7.80388 8.66743 8.28347 7.99002C8.76305 7.3126 9.01406 6.49987 8.99998 5.67V0.336662H7.66665V5.81ZM7.66665 0.333328H8.99998H7.66665ZM2.33331 0.333328H0.99998H2.33331Z" fill="#7E7E7E"/>
</svg>
