<svg width="16" height="16" viewBox="0 0 16 16" fill="none" xmlns="http://www.w3.org/2000/svg">
<g id="Icon">
<path id="Vector" d="M13.8083 5.67188L10.089 5.13135L8.42644 1.76075C8.38103 1.66846 8.30632 1.59376 8.21404 1.54835C7.98259 1.43409 7.70134 1.5293 7.58562 1.76075L5.92302 5.13135L2.20379 5.67188C2.10125 5.68653 2.0075 5.73487 1.93572 5.80811C1.84894 5.8973 1.80113 6.01729 1.80278 6.14172C1.80442 6.26614 1.8554 6.38483 1.94451 6.47169L4.63543 9.09522L3.99968 12.7998C3.98478 12.886 3.99431 12.9746 4.02721 13.0556C4.06011 13.1367 4.11506 13.2069 4.18582 13.2583C4.25658 13.3097 4.34033 13.3402 4.42756 13.3464C4.5148 13.3526 4.60203 13.3343 4.67937 13.2935L8.00603 11.5444L11.3327 13.2935C11.4235 13.3418 11.529 13.3579 11.6301 13.3403C11.8849 13.2964 12.0563 13.0547 12.0124 12.7998L11.3766 9.09522L14.0676 6.47169C14.1408 6.39991 14.1891 6.30616 14.2038 6.20362C14.2433 5.94727 14.0646 5.70997 13.8083 5.67188Z" fill="#FFD954"/>
</g>
</svg>
