<svg width="40" height="40" viewBox="0 0 40 40" fill="none" xmlns="http://www.w3.org/2000/svg">
<path d="M4.77102 13.2758C4.62578 13.1304 4.42422 13.0469 4.21875 13.0469C4.01328 13.0469 3.8118 13.1305 3.66641 13.2758C3.52102 13.4211 3.4375 13.6227 3.4375 13.8281C3.4375 14.0336 3.52102 14.2352 3.66641 14.3804C3.81172 14.5258 4.01328 14.6094 4.21875 14.6094C4.42422 14.6094 4.62578 14.5258 4.77102 14.3804C4.91641 14.2352 5 14.0336 5 13.8281C5 13.6227 4.91641 13.4211 4.77102 13.2758Z" fill="#2752E7"/>
<path d="M34.2188 0H18.4115C17.9801 0 17.6302 0.349844 17.6302 0.78125C17.6302 1.21266 17.9801 1.5625 18.4115 1.5625H34.2188C34.6495 1.5625 35 1.91297 35 2.34375V37.6562C35 38.087 34.6495 38.4375 34.2188 38.4375H5.78125C5.35047 38.4375 5 38.087 5 37.6562V16.7448C5 16.3134 4.65016 15.9635 4.21875 15.9635C3.78734 15.9635 3.4375 16.3134 3.4375 16.7448V37.6562C3.4375 38.9486 4.48891 40 5.78125 40H34.2188C35.5111 40 36.5625 38.9486 36.5625 37.6562V2.34375C36.5625 1.05141 35.5111 0 34.2188 0Z" fill="#2752E7"/>
<path d="M20.0003 3.125C19.4688 3.125 18.9345 3.16562 18.4125 3.24562C17.986 3.31109 17.6933 3.70977 17.7587 4.13625C17.8241 4.56273 18.223 4.85508 18.6493 4.79008C19.0933 4.72195 19.5478 4.6875 20.0003 4.6875C24.8682 4.6875 28.8285 8.64781 28.8285 13.5157C28.8285 15.6774 28.0471 17.6597 26.7524 19.1962C26.1795 18.211 25.397 17.3612 24.4473 16.7021C23.893 16.3174 23.2974 16.0104 22.674 15.7831C23.3856 15.0876 23.8285 14.1183 23.8285 13.047V12.2853C23.8285 10.1744 22.1112 8.45711 20.0003 8.45711C17.8895 8.45711 16.1722 10.1744 16.1722 12.2853V13.047C16.1722 14.1183 16.615 15.0876 17.3267 15.7831C16.7033 16.0104 16.1077 16.3174 15.5534 16.7021C14.5991 17.3645 13.8135 18.219 13.2399 19.2101C12.2534 18.0378 11.5638 16.5959 11.2941 14.9874C11.2227 14.562 10.8195 14.275 10.3944 14.3462C9.96884 14.4175 9.68173 14.8203 9.75306 15.2459C10.1548 17.6412 11.3983 19.8337 13.2546 21.4194C15.132 23.0232 17.5277 23.9065 20.0002 23.9065C25.7297 23.9065 30.391 19.2452 30.391 13.5158C30.391 7.78633 25.7298 3.125 20.0003 3.125ZM17.7347 12.2852C17.7347 11.0359 18.7511 10.0195 20.0003 10.0195C21.2495 10.0195 22.266 11.0359 22.266 12.2852V13.047C22.266 14.2962 21.2495 15.3126 20.0003 15.3126C18.7511 15.3126 17.7347 14.2962 17.7347 13.047V12.2852ZM20.0003 22.3439C17.8852 22.3439 15.9297 21.6053 14.3992 20.3531C15.4483 18.2241 17.5929 16.8751 20.0003 16.8751C22.4027 16.8751 24.5433 18.2185 25.5947 20.3398C24.0707 21.5915 22.1217 22.3439 20.0003 22.3439Z" fill="#2752E7"/>
<path d="M27.2148 31.0939H16.1211C15.6897 31.0939 15.3398 31.4438 15.3398 31.8752C15.3398 32.3066 15.6897 32.6564 16.1211 32.6564H27.2148C27.6463 32.6564 27.9961 32.3066 27.9961 31.8752C27.9961 31.4438 27.6462 31.0939 27.2148 31.0939Z" fill="#2752E7"/>
<path d="M13.3375 26.9477C13.1922 26.8023 12.9906 26.7188 12.7852 26.7188C12.5797 26.7188 12.3781 26.8023 12.2328 26.9477C12.0875 27.093 12.0039 27.2945 12.0039 27.5C12.0039 27.7062 12.0876 27.907 12.2328 28.0523C12.3781 28.1977 12.5797 28.2812 12.7852 28.2812C12.9906 28.2812 13.1922 28.1977 13.3375 28.0523C13.4836 27.907 13.5664 27.7055 13.5664 27.5C13.5664 27.2945 13.4836 27.093 13.3375 26.9477Z" fill="#2752E7"/>
<path d="M13.3375 31.3227C13.1922 31.1773 12.9914 31.0938 12.7852 31.0938C12.5797 31.0938 12.3781 31.1773 12.2328 31.3227C12.0875 31.468 12.0039 31.6695 12.0039 31.875C12.0039 32.0812 12.0876 32.282 12.2328 32.4273C12.3781 32.5727 12.5797 32.6562 12.7852 32.6562C12.9906 32.6562 13.1922 32.5727 13.3375 32.4273C13.4836 32.282 13.5664 32.0813 13.5664 31.875C13.5664 31.6695 13.4836 31.468 13.3375 31.3227Z" fill="#2752E7"/>
<path d="M27.2148 26.7189H16.1211C15.6897 26.7189 15.3398 27.0688 15.3398 27.5002C15.3398 27.9316 15.6897 28.2814 16.1211 28.2814H27.2148C27.6463 28.2814 27.9961 27.9316 27.9961 27.5002C27.9961 27.0688 27.6462 26.7189 27.2148 26.7189Z" fill="#2752E7"/>
<path d="M12.6277 4.50227C12.3225 4.19727 11.8279 4.19727 11.5228 4.50227L8.97857 7.04648L8.10912 6.17703C7.80389 5.87203 7.30936 5.87203 7.0042 6.17703C6.69912 6.48219 6.69912 6.97688 7.0042 7.28195L8.42607 8.70383C8.57865 8.85633 8.7785 8.93266 8.9785 8.93266C9.1785 8.93266 9.37834 8.85633 9.531 8.70391L12.6277 5.60719C12.9328 5.30203 12.9328 4.80734 12.6277 4.50227Z" fill="#2752E7"/>
<path d="M9.84375 0C6.31133 0 3.4375 2.87383 3.4375 6.40625C3.4375 9.93867 6.31133 12.8125 9.84375 12.8125C13.3762 12.8125 16.25 9.93867 16.25 6.40625C16.25 2.87383 13.3762 0 9.84375 0ZM9.84375 11.25C7.17289 11.25 5 9.07711 5 6.40625C5 3.73539 7.17289 1.5625 9.84375 1.5625C12.5146 1.5625 14.6875 3.73539 14.6875 6.40625C14.6875 9.07711 12.5146 11.25 9.84375 11.25Z" fill="#2752E7"/>
</svg>
