<svg width="40" height="40" viewBox="0 0 40 40" fill="none" xmlns="http://www.w3.org/2000/svg">
<g clip-path="url(#clip0_994_14719)">
<path d="M20.7947 39.2126C20.7947 39.6465 20.4412 40 20.0065 40C19.5727 40 19.2191 39.6465 19.2191 39.2126C19.2191 38.7787 19.5727 38.4252 20.0065 38.4252C20.4412 38.4252 20.7947 38.7787 20.7947 39.2126ZM3.46401 39.2126V38.2165C3.46401 32.9668 7.02464 30.1039 8.5837 29.1693C10.7011 27.9008 12.9754 26.9417 15.3538 26.3116V25.0438C14.9572 24.6938 14.5947 24.2957 14.2744 23.8521C13.3313 22.5459 12.5615 21.1297 11.9813 19.6344C11.4504 19.5619 10.965 19.224 10.7154 18.6954C10.4773 18.1916 8.82622 15.1372 8.57323 14.5937C7.93189 13.2157 8.77008 11.8543 9.83267 11.416C10.0096 11.343 10.1915 11.2891 10.3765 11.2583C10.2045 10.5544 10.1176 9.83055 10.1176 9.09457C10.1176 4.07976 14.1973 0 19.212 0C20.0933 0 20.9279 0.337087 21.5621 0.949134C21.5689 0.955669 21.5795 0.955669 21.5863 0.949134C22.2206 0.337087 23.0552 0 23.9365 0C27.3447 0 30.1176 2.77283 30.1176 6.1811V7.61504C30.1176 8.84976 29.948 10.0652 29.6135 11.2433C29.8025 11.2739 29.9913 11.3233 30.1703 11.4043C31.4777 11.9964 31.9883 13.4594 31.4297 14.582C31.1627 15.1187 29.5257 18.1797 29.2876 18.6838C29.038 19.212 28.5528 19.5499 28.0222 19.6227C27.4417 21.1216 26.6708 22.5411 25.7257 23.8502C25.405 24.2944 25.0421 24.693 24.6451 25.0434V26.3115C27.0234 26.9417 29.2978 27.9007 31.4152 29.1692C32.9742 30.1039 36.5349 32.9667 36.5349 38.2165V39.2126C36.5349 39.6475 36.1824 40 35.7475 40H23.5514C23.5506 40 23.5506 40 23.5498 40C23.0986 40 22.7342 39.6183 22.7642 39.1599C22.7916 38.7414 23.1581 38.4252 23.5775 38.4252H34.9601C34.9601 35.1003 33.2916 32.1299 30.605 30.5205C28.7083 29.3839 26.6772 28.5105 24.555 27.9183C24.1305 30.0454 22.2495 31.6535 19.9994 31.6535C17.7494 31.6535 15.8683 30.0455 15.4439 27.9183C13.3222 28.5105 11.2905 29.3839 9.39393 30.5205C6.70732 32.1299 5.03882 35.0089 5.03882 38.4252H16.464C16.916 38.4252 17.2799 38.8088 17.2488 39.2673C17.2204 39.685 16.8541 40 16.4354 40H4.25141C3.81653 40 3.46401 39.6475 3.46401 39.2126ZM11.6952 9.2152C11.7679 9.12976 12.8544 7.79528 14.7244 7.79528C15.6572 7.79528 16.5531 8.12031 17.2625 8.69984C17.9161 9.23362 18.7482 9.52756 19.6057 9.52756C21.6351 9.52756 23.2608 7.89535 23.3067 5.81173C23.3161 5.38378 23.6657 5.04173 24.0938 5.04165C24.5218 5.04157 24.8715 5.38346 24.8812 5.81142C24.9038 6.81693 25.445 7.68882 26.2937 8.08685C27.1284 8.47835 27.8269 9.07102 28.3392 9.79622C28.4746 9.08024 28.5428 8.35157 28.5428 7.61512V6.1811C28.5428 3.64118 26.4765 1.5748 23.9365 1.5748C23.4654 1.5748 23.0191 1.75504 22.68 2.08228C22.06 2.68087 21.0886 2.68079 20.4685 2.08228C20.1294 1.75504 19.6832 1.5748 19.212 1.5748C15.0657 1.5748 11.6555 4.90472 11.6952 9.2152ZM23.0703 26.0924C21.206 26.9724 19.052 27.0739 16.9286 26.0927V27.0079C16.9286 28.7012 18.3061 30.0787 19.9994 30.0787C21.6928 30.0787 23.0703 28.7012 23.0703 27.0079V26.0924ZM24.4489 22.9285C25.4256 21.5756 26.1999 20.0944 26.7485 18.5254C26.8448 18.25 27.2105 17.8334 27.8303 18.0772C28.1224 17.455 29.7674 14.4133 30.0058 13.9094C30.1875 13.5255 29.9678 13.0256 29.555 12.8539C29.3218 12.757 29.0639 12.7739 28.8372 12.8898C28.3484 13.1394 27.7439 12.8448 27.6816 12.3046C27.5399 11.0784 26.745 10.038 25.625 9.51268C25.0588 9.24716 24.576 8.85772 24.1998 8.3811C23.9629 8.8074 23.6553 9.19094 23.3176 9.55488C21.8231 11.1659 18.6989 11.8822 16.2663 9.91961C15.3173 9.15394 13.906 9.2 13.0352 10.0834C12.5615 10.5639 12.2829 11.2126 12.2829 11.8754V12.1854C12.2854 12.7637 11.6708 13.1498 11.1423 12.8891C10.9234 12.7812 10.6731 12.7764 10.4479 12.8658C10.0909 13.0076 9.78606 13.4698 9.99708 13.9212C10.2333 14.4264 11.9146 17.5135 12.1635 18.0774C12.8569 17.8361 13.1824 18.3313 13.2544 18.5367C13.8035 20.102 14.5763 21.5802 15.5512 22.9304C16.5996 24.3824 18.2209 25.2151 19.9992 25.215C21.7782 25.2146 23.4001 24.3813 24.4489 22.9285ZM36.9286 4.72441V0.787402C36.9286 0.35252 36.5761 0 36.1412 0H32.2042C31.7693 0 31.4168 0.35252 31.4168 0.787402C31.4168 1.22228 31.7693 1.5748 32.2042 1.5748H35.3538V4.72441C35.3538 5.15929 35.7063 5.51181 36.1412 5.51181C36.5761 5.51181 36.9286 5.15929 36.9286 4.72441ZM36.9286 26.2205V22.2835C36.9286 21.8486 36.5761 21.4961 36.1412 21.4961C35.7063 21.4961 35.3538 21.8486 35.3538 22.2835V25.4331H32.2042C31.7693 25.4331 31.4168 25.7856 31.4168 26.2205C31.4168 26.6554 31.7693 27.0079 32.2042 27.0079H36.1412C36.5761 27.0079 36.9286 26.6554 36.9286 26.2205ZM4.64512 4.72441V1.5748H7.79472C8.2296 1.5748 8.58212 1.22228 8.58212 0.787402C8.58212 0.35252 8.2296 0 7.79472 0H3.85771C3.42283 0 3.07031 0.35252 3.07031 0.787402V4.72441C3.07031 5.15929 3.42283 5.51181 3.85771 5.51181C4.2926 5.51181 4.64512 5.15929 4.64512 4.72441ZM8.58212 26.2205C8.58212 25.7856 8.2296 25.4331 7.79472 25.4331H4.64512V22.2835C4.64512 21.8486 4.2926 21.4961 3.85771 21.4961C3.42283 21.4961 3.07031 21.8486 3.07031 22.2835V26.2205C3.07031 26.6554 3.42283 27.0079 3.85771 27.0079H7.79472C8.2296 27.0079 8.58212 26.6554 8.58212 26.2205Z" fill="#2752E7"/>
</g>
<defs>
<clipPath id="clip0_994_14719">
<rect width="40" height="40" fill="white"/>
</clipPath>
</defs>
</svg>
