<svg width="40" height="40" viewBox="0 0 40 40" fill="none" xmlns="http://www.w3.org/2000/svg">
<path d="M37.5615 2.07101H30.0239C29.7003 2.07101 29.438 2.33336 29.438 2.65695C29.438 2.98055 29.7003 3.24289 30.0239 3.24289H37.5615C38.2599 3.24289 38.8281 3.81109 38.8281 4.50953V26.7731H1.17188V4.50953C1.17188 3.81109 1.74008 3.24289 2.43852 3.24289H27.2895C27.613 3.24289 27.8754 2.98055 27.8754 2.65695C27.8754 2.33336 27.613 2.07101 27.2895 2.07101H2.43852C1.09391 2.07101 0 3.16492 0 4.50953V28.6315C0 29.9761 1.09391 31.07 2.43852 31.07H8.04797C8.37156 31.07 8.63391 30.8077 8.63391 30.4841C8.63391 30.1605 8.37156 29.8981 8.04797 29.8981H2.43852C1.74008 29.8981 1.17188 29.3299 1.17188 28.6315V27.945H38.8281V28.6315C38.8281 29.3299 38.2599 29.8981 37.5615 29.8981H10.7566C10.433 29.8981 10.1706 30.1605 10.1706 30.4841C10.1706 30.8077 10.433 31.07 10.7566 31.07H14.4444L13.8659 34.4134H12.7966C11.8273 34.4134 11.0388 35.2019 11.0388 36.1712C11.0388 37.1405 11.8273 37.929 12.7966 37.929H27.2034C28.1727 37.929 28.9612 37.1405 28.9612 36.1712C28.9612 35.2019 28.1727 34.4134 27.2034 34.4134H26.1341L25.5556 31.07H37.5614C38.906 31.07 39.9999 29.9761 39.9999 28.6315V4.50953C40 3.16492 38.9061 2.07101 37.5615 2.07101ZM24.9448 34.4134H23.3497C23.0261 34.4134 22.7638 34.6757 22.7638 34.9993C22.7638 35.3229 23.0261 35.5852 23.3497 35.5852H27.2034C27.5265 35.5852 27.7893 35.848 27.7893 36.1712C27.7893 36.4943 27.5265 36.7571 27.2034 36.7571H12.7966C12.4735 36.7571 12.2107 36.4943 12.2107 36.1712C12.2107 35.848 12.4735 35.5852 12.7966 35.5852H20.6144C20.938 35.5852 21.2003 35.3229 21.2003 34.9993C21.2003 34.6757 20.938 34.4134 20.6144 34.4134H15.0552L15.6337 31.07H24.3664L24.9448 34.4134Z" fill="#2752E7"/>
<path d="M31.696 16.8966C31.4755 16.8966 31.2738 17.0204 31.1737 17.2169L28.4086 22.6516L26.0752 18.0653C25.9752 17.8688 25.7734 17.7451 25.5529 17.7451C25.3324 17.7451 25.1306 17.8688 25.0306 18.0653L23.7657 20.5515H21.7461C21.4225 20.5515 21.1602 20.8138 21.1602 21.1374C21.1602 21.461 21.4225 21.7234 21.7461 21.7234H24.125C24.3455 21.7234 24.5473 21.5996 24.6473 21.4031L25.5529 19.6232L27.8863 24.2095C27.9863 24.406 28.1881 24.5298 28.4086 24.5298C28.6291 24.5298 28.8309 24.406 28.9309 24.2095L31.696 18.7748L33.0333 21.4032C33.1333 21.5997 33.3351 21.7234 33.5555 21.7234H35.9345C36.258 21.7234 36.5204 21.4611 36.5204 21.1375C36.5204 20.8139 36.258 20.5516 35.9345 20.5516H33.9148L32.2183 17.2169C32.1183 17.0204 31.9165 16.8966 31.696 16.8966Z" fill="#2752E7"/>
<path d="M21.748 15.1609H24.7886C25.1122 15.1609 25.3745 14.8985 25.3745 14.5749V8.40664C25.3745 8.08305 25.1122 7.8207 24.7886 7.8207H21.748C21.4245 7.8207 21.1621 8.08305 21.1621 8.40664V14.5749C21.1621 14.8985 21.4245 15.1609 21.748 15.1609ZM22.334 8.99258H24.2027V13.989H22.334V8.99258Z" fill="#2752E7"/>
<path d="M30.3823 9.49687H27.3418C27.0182 9.49687 26.7559 9.75922 26.7559 10.0828V14.5749C26.7559 14.8985 27.0182 15.1609 27.3418 15.1609H30.3823C30.7059 15.1609 30.9683 14.8985 30.9683 14.5749V10.0828C30.9683 9.75922 30.7059 9.49687 30.3823 9.49687ZM29.7964 13.989H27.9277V10.6687H29.7964V13.989Z" fill="#2752E7"/>
<path d="M35.9351 15.1609C36.2587 15.1609 36.521 14.8985 36.521 14.5749V6.86015C36.521 6.53656 36.2587 6.27422 35.9351 6.27422H32.8945C32.5709 6.27422 32.3086 6.53656 32.3086 6.86015V14.5749C32.3086 14.8985 32.5709 15.1609 32.8945 15.1609H35.9351ZM33.4805 7.44609H35.3491V13.989H33.4805V7.44609Z" fill="#2752E7"/>
<path d="M17.3359 12.9025H4.05469C3.73109 12.9025 3.46875 13.1648 3.46875 13.4884C3.46875 13.812 3.73109 14.0744 4.05469 14.0744H17.3359C17.6595 14.0744 17.9219 13.812 17.9219 13.4884C17.9219 13.1648 17.6595 12.9025 17.3359 12.9025Z" fill="#2752E7"/>
<path d="M4.05469 17.187H6.43141C6.755 17.187 7.01734 16.9246 7.01734 16.601C7.01734 16.2774 6.755 16.0151 6.43141 16.0151H4.05469C3.73109 16.0151 3.46875 16.2774 3.46875 16.601C3.46875 16.9246 3.73109 17.187 4.05469 17.187Z" fill="#2752E7"/>
<path d="M17.335 16.0151H9.11523C8.79164 16.0151 8.5293 16.2774 8.5293 16.601C8.5293 16.9246 8.79164 17.187 9.11523 17.187H17.335C17.6586 17.187 17.9209 16.9246 17.9209 16.601C17.9209 16.2774 17.6586 16.0151 17.335 16.0151Z" fill="#2752E7"/>
<path d="M17.3359 6.27422H4.05469C3.73109 6.27422 3.46875 6.53656 3.46875 6.86015C3.46875 7.18375 3.73109 7.44609 4.05469 7.44609H17.3359C17.6595 7.44609 17.9219 7.18375 17.9219 6.86015C17.9219 6.53656 17.6595 6.27422 17.3359 6.27422Z" fill="#2752E7"/>
<path d="M4.05469 10.5587H12.2908C12.6144 10.5587 12.8767 10.2964 12.8767 9.97281C12.8767 9.64922 12.6144 9.38688 12.2908 9.38688H4.05469C3.73109 9.38688 3.46875 9.64922 3.46875 9.97281C3.46875 10.2964 3.73109 10.5587 4.05469 10.5587Z" fill="#2752E7"/>
<path d="M17.335 9.38688H14.9746C14.651 9.38688 14.3887 9.64922 14.3887 9.97281C14.3887 10.2964 14.651 10.5587 14.9746 10.5587H17.335C17.6586 10.5587 17.9209 10.2964 17.9209 9.97281C17.9209 9.64922 17.6586 9.38688 17.335 9.38688Z" fill="#2752E7"/>
<path d="M17.9219 19.6759C17.9219 19.3523 17.6595 19.0899 17.3359 19.0899H4.05469C3.73109 19.0899 3.46875 19.3523 3.46875 19.6759C3.46875 19.9995 3.73109 20.2618 4.05469 20.2618H17.3359C17.6595 20.2618 17.9219 19.9995 17.9219 19.6759Z" fill="#2752E7"/>
<path d="M4.05469 22.186C3.73109 22.186 3.46875 22.4484 3.46875 22.7719C3.46875 23.0955 3.73109 23.3579 4.05469 23.3579H10.3047C10.6283 23.3579 10.8906 23.0955 10.8906 22.7719C10.8906 22.4484 10.6283 22.186 10.3047 22.186H4.05469Z" fill="#2752E7"/>
</svg>
