<svg width="20" height="20" viewBox="0 0 20 20" fill="none" xmlns="http://www.w3.org/2000/svg">
<path fill-rule="evenodd" clip-rule="evenodd" d="M9.16699 3.33464C5.94533 3.33464 3.33366 5.94631 3.33366 9.16797C3.33366 12.3896 5.94533 15.0013 9.16699 15.0013C12.3887 15.0013 15.0003 12.3896 15.0003 9.16797C15.0003 5.94631 12.3887 3.33464 9.16699 3.33464ZM1.66699 9.16797C1.66699 5.02583 5.02486 1.66797 9.16699 1.66797C13.3091 1.66797 16.667 5.02583 16.667 9.16797C16.667 13.3101 13.3091 16.668 9.16699 16.668C5.02486 16.668 1.66699 13.3101 1.66699 9.16797Z" fill="#717171"/>
<path fill-rule="evenodd" clip-rule="evenodd" d="M13.2861 13.287C13.6115 12.9616 14.1391 12.9616 14.4646 13.287L18.0896 16.912C18.415 17.2375 18.415 17.7651 18.0896 18.0906C17.7641 18.416 17.2365 18.416 16.9111 18.0906L13.2861 14.4656C12.9606 14.1401 12.9606 13.6125 13.2861 13.287Z" fill="#717171"/>
</svg>
