<svg width="145" height="32" viewBox="0 0 145 32" fill="none" xmlns="http://www.w3.org/2000/svg"><path fill-rule="evenodd" clip-rule="evenodd" d="M24.3165 28.4371C24.3195 29.5876 24.3224 30.7382 24.3243 31.8888V31.8897H27.512C27.5169 31.1375 27.5219 30.3853 27.527 29.633C27.5438 27.1196 27.5607 24.6059 27.5721 22.0921C27.5768 21.1105 27.577 20.6271 27.7903 20.4992C27.9979 20.3747 28.4073 20.5867 29.2191 21.0037C29.6195 21.2089 30.0255 21.4066 30.4407 21.5789C36.1771 23.9526 42.7864 21.256 45.0956 15.6049C47.4584 9.82007 44.8431 3.29238 39.0466 0.878278C33.855 -1.28443 29.2755 0.833084 25.6615 4.11999C25.3878 4.36856 25.3517 4.64349 25.5284 5.00504C26.1563 6.28836 26.8684 6.4842 27.9429 5.58785C30.019 3.85542 32.3263 2.5947 35.072 2.72181C38.6508 2.88846 41.3466 4.67173 42.6514 8.07539C43.8573 11.2201 43.4486 14.3018 41.1671 16.891C38.7461 19.6375 35.662 20.2871 32.2274 19.3607C30.0764 18.7807 28.3729 17.4371 26.7796 15.9109C25.324 14.5168 24.0344 12.9708 22.7449 11.4249C21.4252 9.84268 20.1056 8.26067 18.6083 6.84198C16.9141 5.23666 15.0683 3.91945 12.7323 3.44209C8.32763 2.54292 4.23645 5.40143 3.35144 10.0197C2.57648 14.0636 5.53575 18.2591 9.70831 19.0528C13.019 19.6836 15.5501 18.1084 17.9647 16.1368C18.7313 15.5107 18.5362 15.0061 17.9711 14.4006C17.9342 14.3611 17.898 14.3216 17.8623 14.2827C17.385 13.7625 16.9893 13.3312 16.203 14.0862C15.0387 15.2047 13.6654 16.0417 12.0517 16.3647C9.13865 16.9484 6.3292 14.8432 5.99351 11.8397C5.65227 8.7872 7.88004 6.20456 10.8791 6.06709C13.252 5.95882 15.0267 7.13009 16.6469 8.65067C18.132 10.0444 19.4416 11.6005 20.7512 13.1566C21.6401 14.2128 22.5289 15.269 23.4726 16.2743C24.0866 16.9277 24.3206 17.6066 24.316 18.4897C24.2995 21.8058 24.308 25.1213 24.3165 28.4371ZM19.6191 3.39689C17.1647 1.42625 14.5143 -0.037838 11.0455 0.0713804C6.57242 0.0647896 2.55244 2.73405 0.846242 6.98227C-0.882153 11.2832 0.0638867 16.1463 3.43837 19.3061C8.70309 24.235 15.3781 23.1353 20.3672 18.3156C20.5975 18.0934 20.6326 17.8457 20.4976 17.5313C19.8891 16.1095 19.1188 15.9099 17.936 16.8938C15.8266 18.6489 13.5221 19.822 10.6802 19.7194C6.60201 19.5725 2.98339 16.0935 2.76699 12.0054C2.51823 7.29768 5.48951 3.46186 9.78322 2.8508C12.8331 2.41769 15.404 3.45338 17.7529 5.29032C19.7042 6.81636 21.2744 8.70888 22.844 10.6006C23.2441 11.0829 23.6442 11.5651 24.0506 12.0412C26.0324 14.363 28.0336 16.6443 30.7616 18.1273C34.9397 20.3982 39.9955 18.8315 41.9458 14.6341C43.8703 10.4914 42.0124 5.56525 37.85 3.89873C34.0917 2.39415 31.0104 3.85448 28.1538 6.25446C27.4426 6.85139 27.5055 7.35606 28.077 8.01137C28.6439 8.66197 29.1331 8.98963 29.8896 8.26182C30.7857 7.40031 31.8362 6.75347 33.0134 6.34767C35.2024 5.59256 37.6142 6.24787 38.9116 7.93228C40.2692 9.69578 40.3922 12.2539 39.2085 14.0965C37.9684 16.0286 35.7369 16.8684 33.4111 16.2988C32.2727 16.021 31.2989 15.4335 30.3668 14.7481C28.9292 13.6907 27.7836 12.3441 26.6384 10.9981C26.3713 10.6842 26.1043 10.3703 25.8335 10.0602C25.3648 9.52311 24.9056 8.9771 24.4464 8.43114C22.9469 6.64831 21.4478 4.86589 19.6191 3.39689Z" fill="url(#paint0_linear_2711_28069)"></path><path d="M64.7377 11.062V22.5704H61.6786V11.062C61.6786 6.51908 59.7661 4.52961 56.4518 4.52961C53.1374 4.52961 51.0123 6.73563 51.0123 11.3219V22.5704H47.9531V1.71724H51.0123V4.13981C52.4568 2.45258 54.4543 1.41406 56.9613 1.41406C60.9979 1.41406 64.7377 3.40447 64.7377 11.062Z" fill="url(#paint1_linear_2711_28069)"></path><path d="M83.944 16.731L86.6212 18.0717C84.9215 21.0141 81.9049 22.8736 78.2077 22.8736C72.3437 22.8736 68.3496 18.1141 68.3496 12.1871C68.3496 6.26016 72.3437 1.41406 78.1651 1.41406C81.9049 1.41406 84.9215 3.36116 86.6212 6.30253L83.944 7.59996C82.7113 5.69618 80.7147 4.44205 78.1651 4.44205C74.0009 4.44205 71.4513 7.90314 71.4513 12.1862C71.4513 16.4692 74.0009 19.8437 78.2077 19.8437C80.7147 19.8437 82.7122 18.6753 83.944 16.7291V16.731Z" fill="url(#paint2_linear_2711_28069)"></path><path d="M108.164 12.1871C108.164 18.1574 104.042 22.916 98.1784 22.916C92.3144 22.916 88.3203 18.1565 88.3203 12.1871C88.3203 6.21779 92.3569 1.41406 98.1784 1.41406C104 1.41406 108.164 6.2159 108.164 12.1871ZM105.062 12.1871C105.062 7.90408 102.385 4.44299 98.1784 4.44299C93.9716 4.44299 91.422 7.90408 91.422 12.1871C91.422 16.4702 93.9716 19.8447 98.1784 19.8447C102.385 19.8447 105.062 16.4702 105.062 12.1871Z" fill="url(#paint3_linear_2711_28069)"></path><path d="M122.315 1.50163L121.72 4.65954C121.295 4.57292 120.828 4.52961 120.319 4.52961C117.174 4.52961 114.879 6.73563 114.879 11.3219V22.5704H111.777V1.71724H114.879V4.13981C116.281 2.45258 118.321 1.41406 120.786 1.41406C121.295 1.41406 121.806 1.45737 122.315 1.50068V1.50163Z" fill="url(#paint4_linear_2711_28069)"></path><path d="M144.496 12.1862C144.496 18.1565 140.757 22.915 134.893 22.915C132.003 22.915 129.708 21.7033 128.136 19.7571V32.0009H125.077V1.7163H128.136V4.57198C129.708 2.62488 132.004 1.41406 134.893 1.41406C140.757 1.41406 144.496 6.2159 144.496 12.1871V12.1862ZM141.395 12.1862C141.395 7.90314 139.1 4.44205 134.894 4.44205C130.687 4.44205 128.307 7.90314 128.307 12.1862C128.307 16.4692 130.729 19.8437 134.894 19.8437C139.058 19.8437 141.395 16.4692 141.395 12.1862Z" fill="url(#paint5_linear_2711_28069)"></path><defs><linearGradient id="paint0_linear_2711_28069" x1="0.0379932" y1="12.2474" x2="61.1227" y2="7.11686" gradientUnits="userSpaceOnUse"><stop stop-color="#E80D8B"></stop><stop offset="0.45" stop-color="#E60E8B"></stop><stop offset="0.62" stop-color="#DF148E"></stop><stop offset="0.73" stop-color="#D31E93"></stop><stop offset="0.83" stop-color="#C22D9A"></stop><stop offset="0.91" stop-color="#AC40A4"></stop><stop offset="0.98" stop-color="#9257AF"></stop><stop offset="1" stop-color="#8761B4"></stop></linearGradient><linearGradient id="paint1_linear_2711_28069" x1="46.7907" y1="19.4012" x2="71.7762" y2="1.09216" gradientUnits="userSpaceOnUse"><stop offset="0.13" stop-color="#E80D8B"></stop><stop offset="0.41" stop-color="#AA43A5"></stop><stop offset="0.55" stop-color="#8760B3"></stop><stop offset="0.67" stop-color="#6E76BE"></stop><stop offset="0.75" stop-color="#657FC2"></stop></linearGradient><linearGradient id="paint2_linear_2711_28069" x1="69.6387" y1="19.275" x2="86.6475" y2="5.69034" gradientUnits="userSpaceOnUse"><stop offset="0.08" stop-color="#8761B4"></stop><stop offset="0.42" stop-color="#5B87C6"></stop><stop offset="0.61" stop-color="#4A97CE"></stop><stop offset="0.83" stop-color="#38A6D5"></stop><stop offset="1" stop-color="#31ACD9"></stop></linearGradient><linearGradient id="paint3_linear_2711_28069" x1="98.2422" y1="26.4015" x2="98.2422" y2="6.19802" gradientUnits="userSpaceOnUse"><stop stop-color="#8562B4"></stop><stop offset="0.11" stop-color="#667DC1"></stop><stop offset="0.23" stop-color="#4F91CC"></stop><stop offset="0.35" stop-color="#3EA0D3"></stop><stop offset="0.48" stop-color="#34A9D7"></stop><stop offset="0.65" stop-color="#31ACD9"></stop></linearGradient><linearGradient id="paint4_linear_2711_28069" x1="116.844" y1="25.1201" x2="116.94" y2="14.3113" gradientUnits="userSpaceOnUse"><stop stop-color="#8761B4"></stop><stop offset="0.07" stop-color="#7372BC"></stop><stop offset="0.18" stop-color="#5B87C6"></stop><stop offset="0.3" stop-color="#4897CF"></stop><stop offset="0.44" stop-color="#3AA3D4"></stop><stop offset="0.63" stop-color="#33AAD8"></stop><stop offset="0.99" stop-color="#31ACD9"></stop></linearGradient><linearGradient id="paint5_linear_2711_28069" x1="135.262" y1="33.2635" x2="134.403" y2="13.5113" gradientUnits="userSpaceOnUse"><stop stop-color="#8761B4"></stop><stop offset="0.06" stop-color="#7570BB"></stop><stop offset="0.18" stop-color="#5C85C6"></stop><stop offset="0.31" stop-color="#4996CE"></stop><stop offset="0.46" stop-color="#3BA2D4"></stop><stop offset="0.65" stop-color="#33A9D7"></stop><stop offset="0.99" stop-color="#31ACD9"></stop></linearGradient></defs></svg>