<svg width="15" height="12" viewBox="0 0 15 12" fill="none" xmlns="http://www.w3.org/2000/svg">
<path d="M0.333252 9.99972H4.99992V11.333H0.333252V9.99972ZM0.333252 5.33305H6.33325V6.66638H0.333252V5.33305ZM0.333252 0.666382H13.6666V1.99972H0.333252V0.666382ZM12.7826 6.68305L13.5533 6.42238L14.2199 7.57705L13.6093 8.11372C13.6861 8.47818 13.6861 8.85458 13.6093 9.21905L14.2199 9.75572L13.5533 10.9104L12.7826 10.6497C12.5093 10.8964 12.1839 11.0864 11.8259 11.203L11.6666 11.9997H10.3333L10.1733 11.2024C9.81945 11.0868 9.49379 10.8982 9.21725 10.649L8.44659 10.9104L7.77992 9.75572L8.39059 9.21905C8.31372 8.85458 8.31372 8.47818 8.39059 8.11372L7.77992 7.57705L8.44659 6.42238L9.21725 6.68305C9.49059 6.43638 9.81592 6.24638 10.1739 6.12972L10.3333 5.33305H11.6666L11.8266 6.13038C12.1839 6.24638 12.5093 6.43705 12.7826 6.68372V6.68305ZM10.9999 9.99972C11.3535 9.99972 11.6927 9.85925 11.9427 9.60918C12.1928 9.35912 12.3333 9.01998 12.3333 8.66638C12.3333 8.31278 12.1928 7.97365 11.9427 7.72358C11.6927 7.47352 11.3535 7.33305 10.9999 7.33305C10.6463 7.33305 10.3072 7.47352 10.0571 7.72358C9.80705 7.97365 9.66659 8.31278 9.66659 8.66638C9.66659 9.01998 9.80705 9.35912 10.0571 9.60918C10.3072 9.85925 10.6463 9.99972 10.9999 9.99972Z" fill="black"/>
</svg>
