<svg width="192" height="77" viewBox="0 0 192 77" fill="none" xmlns="http://www.w3.org/2000/svg">
<path d="M3.661 73V63.907H0.14V62.92H8.211V63.907H4.69V73H3.661ZM14.2335 73V69.143C14.2335 68.723 14.1938 68.338 14.1145 67.988C14.0352 67.6333 13.9068 67.3253 13.7295 67.064C13.5568 66.798 13.3305 66.5927 13.0505 66.448C12.7752 66.3033 12.4392 66.231 12.0425 66.231C11.6785 66.231 11.3565 66.294 11.0765 66.42C10.8012 66.546 10.5678 66.728 10.3765 66.966C10.1898 67.1993 10.0475 67.484 9.94952 67.82C9.85152 68.156 9.80252 68.5387 9.80252 68.968L9.07452 68.807C9.07452 68.0323 9.20985 67.3813 9.48052 66.854C9.75118 66.3267 10.1245 65.9277 10.6005 65.657C11.0765 65.3863 11.6225 65.251 12.2385 65.251C12.6912 65.251 13.0855 65.321 13.4215 65.461C13.7622 65.601 14.0492 65.79 14.2825 66.028C14.5205 66.266 14.7118 66.539 14.8565 66.847C15.0012 67.1503 15.1062 67.4747 15.1715 67.82C15.2368 68.1607 15.2695 68.5013 15.2695 68.842V73H14.2335ZM8.76652 73V62.92H9.69752V68.611H9.80252V73H8.76652ZM19.725 73.21C18.9877 73.21 18.3483 73.0467 17.807 72.72C17.2703 72.3933 16.8527 71.9337 16.554 71.341C16.2553 70.7483 16.106 70.053 16.106 69.255C16.106 68.429 16.253 67.715 16.547 67.113C16.841 66.511 17.254 66.0467 17.786 65.72C18.3227 65.3933 18.955 65.23 19.683 65.23C20.4297 65.23 21.0667 65.4027 21.594 65.748C22.1213 66.0887 22.5203 66.5787 22.791 67.218C23.0617 67.8573 23.1853 68.6203 23.162 69.507H22.112V69.143C22.0933 68.163 21.881 67.4233 21.475 66.924C21.0737 66.4247 20.4857 66.175 19.711 66.175C18.899 66.175 18.276 66.4387 17.842 66.966C17.4127 67.4933 17.198 68.2447 17.198 69.22C17.198 70.172 17.4127 70.9117 17.842 71.439C18.276 71.9617 18.8897 72.223 19.683 72.223C20.2243 72.223 20.6957 72.0993 21.097 71.852C21.503 71.6 21.8227 71.2383 22.056 70.767L23.015 71.138C22.7163 71.796 22.2753 72.307 21.692 72.671C21.1133 73.0303 20.4577 73.21 19.725 73.21ZM16.834 69.507V68.646H22.609V69.507H16.834ZM29.2192 73.203C28.3325 73.203 27.6022 73.0117 27.0282 72.629C26.4589 72.2463 26.1089 71.7143 25.9782 71.033L27.0282 70.858C27.1402 71.2873 27.3945 71.6303 27.7912 71.887C28.1925 72.139 28.6872 72.265 29.2752 72.265C29.8492 72.265 30.3019 72.146 30.6332 71.908C30.9645 71.6653 31.1302 71.3363 31.1302 70.921C31.1302 70.6877 31.0765 70.4987 30.9692 70.354C30.8665 70.2047 30.6542 70.067 30.3322 69.941C30.0102 69.815 29.5295 69.6657 28.8902 69.493C28.2042 69.3063 27.6675 69.1197 27.2802 68.933C26.8929 68.7463 26.6175 68.5317 26.4542 68.289C26.2909 68.0417 26.2092 67.7407 26.2092 67.386C26.2092 66.9567 26.3305 66.581 26.5732 66.259C26.8159 65.9323 27.1519 65.6803 27.5812 65.503C28.0105 65.321 28.5099 65.23 29.0792 65.23C29.6485 65.23 30.1572 65.3233 30.6052 65.51C31.0579 65.692 31.4219 65.9487 31.6972 66.28C31.9725 66.6113 32.1359 66.9963 32.1872 67.435L31.1372 67.624C31.0672 67.1807 30.8455 66.8307 30.4722 66.574C30.1035 66.3127 29.6345 66.1773 29.0652 66.168C28.5285 66.154 28.0922 66.2567 27.7562 66.476C27.4202 66.6907 27.2522 66.9777 27.2522 67.337C27.2522 67.5377 27.3129 67.7103 27.4342 67.855C27.5555 67.995 27.7749 68.128 28.0922 68.254C28.4142 68.38 28.8715 68.5177 29.4642 68.667C30.1595 68.8443 30.7055 69.031 31.1022 69.227C31.4989 69.423 31.7812 69.654 31.9492 69.92C32.1172 70.186 32.2012 70.515 32.2012 70.907C32.2012 71.621 31.9352 72.1833 31.4032 72.594C30.8759 73 30.1479 73.203 29.2192 73.203ZM36.3927 73.21C35.6553 73.21 35.016 73.0467 34.4747 72.72C33.938 72.3933 33.5203 71.9337 33.2217 71.341C32.923 70.7483 32.7737 70.053 32.7737 69.255C32.7737 68.429 32.9207 67.715 33.2147 67.113C33.5087 66.511 33.9217 66.0467 34.4537 65.72C34.9903 65.3933 35.6227 65.23 36.3507 65.23C37.0973 65.23 37.7343 65.4027 38.2617 65.748C38.789 66.0887 39.188 66.5787 39.4587 67.218C39.7293 67.8573 39.853 68.6203 39.8297 69.507H38.7797V69.143C38.761 68.163 38.5487 67.4233 38.1427 66.924C37.7413 66.4247 37.1533 66.175 36.3787 66.175C35.5667 66.175 34.9437 66.4387 34.5097 66.966C34.0803 67.4933 33.8657 68.2447 33.8657 69.22C33.8657 70.172 34.0803 70.9117 34.5097 71.439C34.9437 71.9617 35.5573 72.223 36.3507 72.223C36.892 72.223 37.3633 72.0993 37.7647 71.852C38.1707 71.6 38.4903 71.2383 38.7237 70.767L39.6827 71.138C39.384 71.796 38.943 72.307 38.3597 72.671C37.781 73.0303 37.1253 73.21 36.3927 73.21ZM33.5017 69.507V68.646H39.2767V69.507H33.5017ZM40.8231 73V65.44H41.7471V67.26L41.5651 67.022C41.6491 66.798 41.7588 66.5927 41.8941 66.406C42.0295 66.2147 42.1765 66.0583 42.3351 65.937C42.5311 65.7643 42.7598 65.6337 43.0211 65.545C43.2825 65.4517 43.5461 65.398 43.8121 65.384C44.0781 65.3653 44.3208 65.384 44.5401 65.44V66.406C44.2648 66.336 43.9638 66.3197 43.6371 66.357C43.3105 66.3943 43.0095 66.525 42.7341 66.749C42.4821 66.945 42.2931 67.1807 42.1671 67.456C42.0411 67.7267 41.9571 68.016 41.9151 68.324C41.8731 68.6273 41.8521 68.9283 41.8521 69.227V73H40.8231ZM47.352 73L44.608 65.44H45.651L47.884 71.656L50.103 65.44H51.16L48.416 73H47.352ZM51.9974 64.005V62.85H53.0264V64.005H51.9974ZM51.9974 73V65.44H53.0264V73H51.9974ZM57.701 73.21C56.9403 73.21 56.2963 73.0397 55.769 72.699C55.2417 72.3583 54.8403 71.8893 54.565 71.292C54.2943 70.69 54.1543 69.9993 54.145 69.22C54.1543 68.4267 54.299 67.7313 54.579 67.134C54.859 66.532 55.2627 66.0653 55.79 65.734C56.3173 65.398 56.9567 65.23 57.708 65.23C58.4733 65.23 59.1383 65.4167 59.703 65.79C60.2723 66.1633 60.662 66.6743 60.872 67.323L59.864 67.645C59.6867 67.1923 59.4043 66.8423 59.017 66.595C58.6343 66.343 58.1957 66.217 57.701 66.217C57.1457 66.217 56.686 66.3453 56.322 66.602C55.958 66.854 55.6873 67.2063 55.51 67.659C55.3327 68.1117 55.2417 68.632 55.237 69.22C55.2463 70.1253 55.4563 70.8533 55.867 71.404C56.2777 71.95 56.889 72.223 57.701 72.223C58.2143 72.223 58.6507 72.1063 59.01 71.873C59.374 71.635 59.6493 71.2897 59.836 70.837L60.872 71.145C60.592 71.817 60.1813 72.3303 59.64 72.685C59.0987 73.035 58.4523 73.21 57.701 73.21ZM64.7509 73.21C64.0135 73.21 63.3742 73.0467 62.8329 72.72C62.2962 72.3933 61.8785 71.9337 61.5799 71.341C61.2812 70.7483 61.1319 70.053 61.1319 69.255C61.1319 68.429 61.2789 67.715 61.5729 67.113C61.8669 66.511 62.2799 66.0467 62.8119 65.72C63.3485 65.3933 63.9809 65.23 64.7089 65.23C65.4555 65.23 66.0925 65.4027 66.6199 65.748C67.1472 66.0887 67.5462 66.5787 67.8169 67.218C68.0875 67.8573 68.2112 68.6203 68.1879 69.507H67.1379V69.143C67.1192 68.163 66.9069 67.4233 66.5009 66.924C66.0995 66.4247 65.5115 66.175 64.7369 66.175C63.9249 66.175 63.3019 66.4387 62.8679 66.966C62.4385 67.4933 62.2239 68.2447 62.2239 69.22C62.2239 70.172 62.4385 70.9117 62.8679 71.439C63.3019 71.9617 63.9155 72.223 64.7089 72.223C65.2502 72.223 65.7215 72.0993 66.1229 71.852C66.5289 71.6 66.8485 71.2383 67.0819 70.767L68.0409 71.138C67.7422 71.796 67.3012 72.307 66.7179 72.671C66.1392 73.0303 65.4835 73.21 64.7509 73.21ZM61.8599 69.507V68.646H67.6349V69.507H61.8599ZM74.8191 73.21C74.1237 73.21 73.5357 73.035 73.0551 72.685C72.5744 72.3303 72.2104 71.852 71.9631 71.25C71.7157 70.6433 71.5921 69.9643 71.5921 69.213C71.5921 68.4477 71.7157 67.7663 71.9631 67.169C72.2151 66.567 72.5837 66.0933 73.0691 65.748C73.5544 65.4027 74.1517 65.23 74.8611 65.23C75.5517 65.23 76.1444 65.405 76.6391 65.755C77.1337 66.105 77.5117 66.581 77.7731 67.183C78.0391 67.785 78.1721 68.4617 78.1721 69.213C78.1721 69.969 78.0391 70.648 77.7731 71.25C77.5071 71.852 77.1244 72.3303 76.6251 72.685C76.1257 73.035 75.5237 73.21 74.8191 73.21ZM71.4171 76.36V65.44H72.3411V71.131H72.4531V76.36H71.4171ZM74.7141 72.251C75.2414 72.251 75.6801 72.118 76.0301 71.852C76.3801 71.586 76.6414 71.2243 76.8141 70.767C76.9914 70.305 77.0801 69.787 77.0801 69.213C77.0801 68.6437 76.9937 68.1303 76.8211 67.673C76.6484 67.2157 76.3847 66.854 76.0301 66.588C75.6801 66.322 75.2344 66.189 74.6931 66.189C74.1657 66.189 73.7271 66.3173 73.3771 66.574C73.0317 66.8307 72.7727 67.1877 72.6001 67.645C72.4274 68.0977 72.3411 68.6203 72.3411 69.213C72.3411 69.7963 72.4274 70.319 72.6001 70.781C72.7727 71.2383 73.0341 71.5977 73.3841 71.859C73.7341 72.1203 74.1774 72.251 74.7141 72.251ZM79.1492 73V65.44H80.0732V67.26L79.8912 67.022C79.9752 66.798 80.0849 66.5927 80.2202 66.406C80.3556 66.2147 80.5026 66.0583 80.6612 65.937C80.8572 65.7643 81.0859 65.6337 81.3472 65.545C81.6086 65.4517 81.8722 65.398 82.1382 65.384C82.4042 65.3653 82.6469 65.384 82.8662 65.44V66.406C82.5909 66.336 82.2899 66.3197 81.9632 66.357C81.6366 66.3943 81.3356 66.525 81.0602 66.749C80.8082 66.945 80.6192 67.1807 80.4932 67.456C80.3672 67.7267 80.2832 68.016 80.2412 68.324C80.1992 68.6273 80.1782 68.9283 80.1782 69.227V73H79.1492ZM86.6544 73.21C85.9031 73.21 85.2614 73.0397 84.7294 72.699C84.1974 72.3583 83.7891 71.887 83.5044 71.285C83.2198 70.683 83.0774 69.9923 83.0774 69.213C83.0774 68.4197 83.2221 67.7243 83.5114 67.127C83.8008 66.5297 84.2114 66.0653 84.7434 65.734C85.2801 65.398 85.9171 65.23 86.6544 65.23C87.4104 65.23 88.0544 65.4003 88.5864 65.741C89.1231 66.077 89.5314 66.546 89.8114 67.148C90.0961 67.7453 90.2384 68.4337 90.2384 69.213C90.2384 70.0063 90.0961 70.704 89.8114 71.306C89.5268 71.9033 89.1161 72.37 88.5794 72.706C88.0428 73.042 87.4011 73.21 86.6544 73.21ZM86.6544 72.223C87.4944 72.223 88.1198 71.9453 88.5304 71.39C88.9411 70.83 89.1464 70.1043 89.1464 69.213C89.1464 68.2983 88.9388 67.5703 88.5234 67.029C88.1128 66.4877 87.4898 66.217 86.6544 66.217C86.0898 66.217 85.6231 66.3453 85.2544 66.602C84.8904 66.854 84.6174 67.2063 84.4354 67.659C84.2581 68.107 84.1694 68.625 84.1694 69.213C84.1694 70.123 84.3794 70.8533 84.7994 71.404C85.2194 71.95 85.8378 72.223 86.6544 72.223ZM92.9931 73L90.2491 65.44H91.2921L93.5251 71.656L95.7441 65.44H96.8011L94.0571 73H92.9931ZM97.6385 64.005V62.85H98.6675V64.005H97.6385ZM97.6385 73V65.44H98.6675V73H97.6385ZM103.139 73.21C102.434 73.21 101.832 73.035 101.333 72.685C100.834 72.3303 100.451 71.852 100.185 71.25C99.9191 70.648 99.7861 69.969 99.7861 69.213C99.7861 68.4617 99.9168 67.785 100.178 67.183C100.444 66.581 100.824 66.105 101.319 65.755C101.814 65.405 102.406 65.23 103.097 65.23C103.806 65.23 104.404 65.4027 104.889 65.748C105.374 66.0933 105.741 66.567 105.988 67.169C106.24 67.7663 106.366 68.4477 106.366 69.213C106.366 69.9643 106.242 70.6433 105.995 71.25C105.748 71.852 105.384 72.3303 104.903 72.685C104.422 73.035 103.834 73.21 103.139 73.21ZM103.244 72.251C103.781 72.251 104.224 72.1203 104.574 71.859C104.924 71.5977 105.185 71.2383 105.358 70.781C105.531 70.319 105.617 69.7963 105.617 69.213C105.617 68.6203 105.531 68.0977 105.358 67.645C105.185 67.1877 104.924 66.8307 104.574 66.574C104.229 66.3173 103.792 66.189 103.265 66.189C102.724 66.189 102.276 66.322 101.921 66.588C101.566 66.854 101.303 67.2157 101.13 67.673C100.962 68.1303 100.878 68.6437 100.878 69.213C100.878 69.787 100.964 70.305 101.137 70.767C101.314 71.2243 101.578 71.586 101.928 71.852C102.278 72.118 102.717 72.251 103.244 72.251ZM105.617 73V67.309H105.505V62.92H106.541V73H105.617ZM111.144 73.21C110.407 73.21 109.767 73.0467 109.226 72.72C108.689 72.3933 108.272 71.9337 107.973 71.341C107.674 70.7483 107.525 70.053 107.525 69.255C107.525 68.429 107.672 67.715 107.966 67.113C108.26 66.511 108.673 66.0467 109.205 65.72C109.742 65.3933 110.374 65.23 111.102 65.23C111.849 65.23 112.486 65.4027 113.013 65.748C113.54 66.0887 113.939 66.5787 114.21 67.218C114.481 67.8573 114.604 68.6203 114.581 69.507H113.531V69.143C113.512 68.163 113.3 67.4233 112.894 66.924C112.493 66.4247 111.905 66.175 111.13 66.175C110.318 66.175 109.695 66.4387 109.261 66.966C108.832 67.4933 108.617 68.2447 108.617 69.22C108.617 70.172 108.832 70.9117 109.261 71.439C109.695 71.9617 110.309 72.223 111.102 72.223C111.643 72.223 112.115 72.0993 112.516 71.852C112.922 71.6 113.242 71.2383 113.475 70.767L114.434 71.138C114.135 71.796 113.694 72.307 113.111 72.671C112.532 73.0303 111.877 73.21 111.144 73.21ZM108.253 69.507V68.646H114.028V69.507H108.253ZM115.574 73V65.44H116.498V67.26L116.316 67.022C116.4 66.798 116.51 66.5927 116.645 66.406C116.781 66.2147 116.928 66.0583 117.086 65.937C117.282 65.7643 117.511 65.6337 117.772 65.545C118.034 65.4517 118.297 65.398 118.563 65.384C118.829 65.3653 119.072 65.384 119.291 65.44V66.406C119.016 66.336 118.715 66.3197 118.388 66.357C118.062 66.3943 117.761 66.525 117.485 66.749C117.233 66.945 117.044 67.1807 116.918 67.456C116.792 67.7267 116.708 68.016 116.666 68.324C116.624 68.6273 116.603 68.9283 116.603 69.227V73H115.574ZM122.442 73V62.71H123.471V73H122.442ZM125.15 64.005V62.85H126.179V64.005H125.15ZM125.15 73V65.44H126.179V73H125.15ZM130.538 73.203C129.652 73.203 128.921 73.0117 128.347 72.629C127.778 72.2463 127.428 71.7143 127.297 71.033L128.347 70.858C128.459 71.2873 128.714 71.6303 129.11 71.887C129.512 72.139 130.006 72.265 130.594 72.265C131.168 72.265 131.621 72.146 131.952 71.908C132.284 71.6653 132.449 71.3363 132.449 70.921C132.449 70.6877 132.396 70.4987 132.288 70.354C132.186 70.2047 131.973 70.067 131.651 69.941C131.329 69.815 130.849 69.6657 130.209 69.493C129.523 69.3063 128.987 69.1197 128.599 68.933C128.212 68.7463 127.937 68.5317 127.773 68.289C127.61 68.0417 127.528 67.7407 127.528 67.386C127.528 66.9567 127.65 66.581 127.892 66.259C128.135 65.9323 128.471 65.6803 128.9 65.503C129.33 65.321 129.829 65.23 130.398 65.23C130.968 65.23 131.476 65.3233 131.924 65.51C132.377 65.692 132.741 65.9487 133.016 66.28C133.292 66.6113 133.455 66.9963 133.506 67.435L132.456 67.624C132.386 67.1807 132.165 66.8307 131.791 66.574C131.423 66.3127 130.954 66.1773 130.384 66.168C129.848 66.154 129.411 66.2567 129.075 66.476C128.739 66.6907 128.571 66.9777 128.571 67.337C128.571 67.5377 128.632 67.7103 128.753 67.855C128.875 67.995 129.094 68.128 129.411 68.254C129.733 68.38 130.191 68.5177 130.783 68.667C131.479 68.8443 132.025 69.031 132.421 69.227C132.818 69.423 133.1 69.654 133.268 69.92C133.436 70.186 133.52 70.515 133.52 70.907C133.52 71.621 133.254 72.1833 132.722 72.594C132.195 73 131.467 73.203 130.538 73.203ZM138.629 73C138.204 73.0887 137.784 73.1237 137.369 73.105C136.958 73.0863 136.589 72.9977 136.263 72.839C135.941 72.6803 135.696 72.433 135.528 72.097C135.392 71.817 135.318 71.5347 135.304 71.25C135.294 70.9607 135.29 70.6317 135.29 70.263V63.34H136.312V70.221C136.312 70.5383 136.314 70.8043 136.319 71.019C136.328 71.229 136.377 71.4157 136.466 71.579C136.634 71.8917 136.9 72.0783 137.264 72.139C137.632 72.1997 138.087 72.1857 138.629 72.097V73ZM133.673 66.322V65.44H138.629V66.322H133.673ZM141.941 64.005V62.85H142.97V64.005H141.941ZM141.941 73V65.44H142.97V73H141.941ZM147.329 73.203C146.443 73.203 145.712 73.0117 145.138 72.629C144.569 72.2463 144.219 71.7143 144.088 71.033L145.138 70.858C145.25 71.2873 145.505 71.6303 145.901 71.887C146.303 72.139 146.797 72.265 147.385 72.265C147.959 72.265 148.412 72.146 148.743 71.908C149.075 71.6653 149.24 71.3363 149.24 70.921C149.24 70.6877 149.187 70.4987 149.079 70.354C148.977 70.2047 148.764 70.067 148.442 69.941C148.12 69.815 147.64 69.6657 147 69.493C146.314 69.3063 145.778 69.1197 145.39 68.933C145.003 68.7463 144.728 68.5317 144.564 68.289C144.401 68.0417 144.319 67.7407 144.319 67.386C144.319 66.9567 144.441 66.581 144.683 66.259C144.926 65.9323 145.262 65.6803 145.691 65.503C146.121 65.321 146.62 65.23 147.189 65.23C147.759 65.23 148.267 65.3233 148.715 65.51C149.168 65.692 149.532 65.9487 149.807 66.28C150.083 66.6113 150.246 66.9963 150.297 67.435L149.247 67.624C149.177 67.1807 148.956 66.8307 148.582 66.574C148.214 66.3127 147.745 66.1773 147.175 66.168C146.639 66.154 146.202 66.2567 145.866 66.476C145.53 66.6907 145.362 66.9777 145.362 67.337C145.362 67.5377 145.423 67.7103 145.544 67.855C145.666 67.995 145.885 68.128 146.202 68.254C146.524 68.38 146.982 68.5177 147.574 68.667C148.27 68.8443 148.816 69.031 149.212 69.227C149.609 69.423 149.891 69.654 150.059 69.92C150.227 70.186 150.311 70.515 150.311 70.907C150.311 71.621 150.045 72.1833 149.513 72.594C148.986 73 148.258 73.203 147.329 73.203ZM156.746 73.21C156.008 73.21 155.369 73.0467 154.828 72.72C154.291 72.3933 153.873 71.9337 153.575 71.341C153.276 70.7483 153.127 70.053 153.127 69.255C153.127 68.429 153.274 67.715 153.568 67.113C153.862 66.511 154.275 66.0467 154.807 65.72C155.343 65.3933 155.976 65.23 156.704 65.23C157.45 65.23 158.087 65.4027 158.615 65.748C159.142 66.0887 159.541 66.5787 159.812 67.218C160.082 67.8573 160.206 68.6203 160.183 69.507H159.133V69.143C159.114 68.163 158.902 67.4233 158.496 66.924C158.094 66.4247 157.506 66.175 156.732 66.175C155.92 66.175 155.297 66.4387 154.863 66.966C154.433 67.4933 154.219 68.2447 154.219 69.22C154.219 70.172 154.433 70.9117 154.863 71.439C155.297 71.9617 155.91 72.223 156.704 72.223C157.245 72.223 157.716 72.0993 158.118 71.852C158.524 71.6 158.843 71.2383 159.077 70.767L160.036 71.138C159.737 71.796 159.296 72.307 158.713 72.671C158.134 73.0303 157.478 73.21 156.746 73.21ZM153.855 69.507V68.646H159.63V69.507H153.855ZM169.987 73L169.994 68.037C169.994 67.4537 169.831 66.9963 169.504 66.665C169.182 66.329 168.771 66.161 168.272 66.161C167.987 66.161 167.71 66.2263 167.439 66.357C167.168 66.4877 166.944 66.6977 166.767 66.987C166.594 67.2763 166.508 67.6543 166.508 68.121L165.899 67.946C165.885 67.4047 165.99 66.931 166.214 66.525C166.443 66.119 166.755 65.804 167.152 65.58C167.553 65.3513 168.006 65.237 168.51 65.237C169.271 65.237 169.88 65.4727 170.337 65.944C170.794 66.4107 171.023 67.043 171.023 67.841L171.016 73H169.987ZM160.964 73V65.44H161.888V67.302H162V73H160.964ZM165.486 73L165.493 68.107C165.493 67.505 165.332 67.0313 165.01 66.686C164.693 66.336 164.273 66.161 163.75 66.161C163.227 66.161 162.805 66.3407 162.483 66.7C162.161 67.0547 162 67.5283 162 68.121L161.384 67.785C161.384 67.2997 161.498 66.8657 161.727 66.483C161.956 66.0957 162.268 65.7923 162.665 65.573C163.062 65.349 163.512 65.237 164.016 65.237C164.497 65.237 164.924 65.3397 165.297 65.545C165.675 65.7503 165.971 66.049 166.186 66.441C166.401 66.833 166.508 67.309 166.508 67.869L166.501 73H165.486ZM175.673 73.21C174.978 73.21 174.39 73.035 173.909 72.685C173.429 72.3303 173.065 71.852 172.817 71.25C172.57 70.6433 172.446 69.9643 172.446 69.213C172.446 68.4477 172.57 67.7663 172.817 67.169C173.069 66.567 173.438 66.0933 173.923 65.748C174.409 65.4027 175.006 65.23 175.715 65.23C176.406 65.23 176.999 65.405 177.493 65.755C177.988 66.105 178.366 66.581 178.627 67.183C178.893 67.785 179.026 68.4617 179.026 69.213C179.026 69.969 178.893 70.648 178.627 71.25C178.361 71.852 177.979 72.3303 177.479 72.685C176.98 73.035 176.378 73.21 175.673 73.21ZM172.271 76.36V65.44H173.195V71.131H173.307V76.36H172.271ZM175.568 72.251C176.096 72.251 176.534 72.118 176.884 71.852C177.234 71.586 177.496 71.2243 177.668 70.767C177.846 70.305 177.934 69.787 177.934 69.213C177.934 68.6437 177.848 68.1303 177.675 67.673C177.503 67.2157 177.239 66.854 176.884 66.588C176.534 66.322 176.089 66.189 175.547 66.189C175.02 66.189 174.581 66.3173 174.231 66.574C173.886 66.8307 173.627 67.1877 173.454 67.645C173.282 68.0977 173.195 68.6203 173.195 69.213C173.195 69.7963 173.282 70.319 173.454 70.781C173.627 71.2383 173.888 71.5977 174.238 71.859C174.588 72.1203 175.032 72.251 175.568 72.251ZM184.119 73C183.695 73.0887 183.275 73.1237 182.859 73.105C182.449 73.0863 182.08 72.9977 181.753 72.839C181.431 72.6803 181.186 72.433 181.018 72.097C180.883 71.817 180.808 71.5347 180.794 71.25C180.785 70.9607 180.78 70.6317 180.78 70.263V63.34H181.802V70.221C181.802 70.5383 181.805 70.8043 181.809 71.019C181.819 71.229 181.868 71.4157 181.956 71.579C182.124 71.8917 182.39 72.0783 182.754 72.139C183.123 72.1997 183.578 72.1857 184.119 72.097V73ZM179.163 66.322V65.44H184.119V66.322H179.163ZM185.922 76.36L187.385 72.391L187.406 73.567L184.095 65.44H185.187L187.903 72.237H187.455L189.961 65.44H191.011L186.951 76.36H185.922Z" fill="#C4C4C4"/>
<path d="M113.262 24.0917H108.759C108.146 24.0917 107.553 24.1755 106.988 24.3295C105.874 22.1398 103.6 20.6353 100.98 20.6353H93.0204C90.3999 20.6353 88.1258 22.1398 87.0119 24.3295C86.4472 24.1755 85.8539 24.0917 85.2411 24.0917H80.7383C77.0228 24.0917 74 27.1145 74 30.83V38.0281C74 40.2574 75.8137 42.0711 78.043 42.0711H115.957C118.186 42.0711 120 40.2574 120 38.0281V30.83C120 27.1145 116.977 24.0917 113.262 24.0917ZM86.2821 27.3737V39.3759H78.043C77.2999 39.3759 76.6953 38.7713 76.6953 38.0282V30.8301C76.6953 28.6008 78.509 26.7871 80.7383 26.7871H85.2411C85.6069 26.7871 85.9612 26.8368 86.2984 26.9284C86.2887 27.0758 86.2821 27.224 86.2821 27.3737ZM105.023 39.3759H88.9774V27.3736C88.9774 25.1443 90.7911 23.3307 93.0204 23.3307H100.98C103.209 23.3307 105.023 25.1443 105.023 27.3736V39.3759ZM117.305 38.0282C117.305 38.7713 116.7 39.3759 115.957 39.3759H107.718V27.3736C107.718 27.2239 107.711 27.0756 107.702 26.9283C108.039 26.8368 108.393 26.787 108.759 26.787H113.262C115.491 26.787 117.305 28.6007 117.305 30.83V38.0282Z" fill="#DADADA"/>
<path d="M82.9897 11.3656C79.688 11.3656 77.002 14.0517 77.002 17.3533C77.0019 20.655 79.688 23.3411 82.9897 23.3411C86.2913 23.3411 88.9774 20.655 88.9774 17.3533C88.9774 14.0517 86.2913 11.3656 82.9897 11.3656ZM82.9896 20.6457C81.1741 20.6457 79.6972 19.1688 79.6972 17.3533C79.6972 15.5379 81.1741 14.0609 82.9896 14.0609C84.8051 14.0609 86.282 15.5379 86.282 17.3533C86.282 19.1688 84.8051 20.6457 82.9896 20.6457Z" fill="#DADADA"/>
<path d="M97 3.92883C92.589 3.92883 89.0005 7.51737 89.0005 11.9283C89.0005 16.3393 92.589 19.9278 97 19.9278C101.411 19.9278 105 16.3393 105 11.9283C105 7.51746 101.411 3.92883 97 3.92883ZM97 17.2325C94.0752 17.2325 91.6958 14.8531 91.6958 11.9283C91.6958 9.00366 94.0752 6.62415 97 6.62415C99.9248 6.62415 102.304 9.00357 102.304 11.9283C102.304 14.8531 99.9248 17.2325 97 17.2325Z" fill="#DADADA"/>
<path d="M111.01 11.3656C107.709 11.3656 105.022 14.0517 105.022 17.3533C105.023 20.655 107.709 23.3411 111.01 23.3411C114.312 23.3411 116.998 20.655 116.998 17.3533C116.998 14.0517 114.312 11.3656 111.01 11.3656ZM111.01 20.6457C109.195 20.6457 107.718 19.1688 107.718 17.3533C107.718 15.5379 109.195 14.0609 111.01 14.0609C112.826 14.0609 114.303 15.5379 114.303 17.3533C114.303 19.1688 112.826 20.6457 111.01 20.6457Z" fill="#DADADA"/>
</svg>
