<svg width="14" height="8" viewBox="0 0 14 8" fill="none" xmlns="http://www.w3.org/2000/svg">
<path d="M6.33337 7.33329H3.66671C2.78265 7.33329 1.93481 6.9821 1.30968 6.35698C0.684563 5.73186 0.333374 4.88401 0.333374 3.99996C0.333374 3.1159 0.684563 2.26806 1.30968 1.64294C1.93481 1.01782 2.78265 0.666626 3.66671 0.666626H6.33337V1.99996H3.66671C3.13627 1.99996 2.62757 2.21067 2.25249 2.58575C1.87742 2.96082 1.66671 3.46953 1.66671 3.99996C1.66671 4.53039 1.87742 5.0391 2.25249 5.41417C2.62757 5.78925 3.13627 5.99996 3.66671 5.99996H6.33337V7.33329ZM10.3334 0.666626H7.66671V1.99996H10.3334C10.8638 1.99996 11.3725 2.21067 11.7476 2.58575C12.1227 2.96082 12.3334 3.46953 12.3334 3.99996C12.3334 4.53039 12.1227 5.0391 11.7476 5.41417C11.3725 5.78925 10.8638 5.99996 10.3334 5.99996H7.66671V7.33329H10.3334C11.2174 7.33329 12.0653 6.9821 12.6904 6.35698C13.3155 5.73186 13.6667 4.88401 13.6667 3.99996C13.6667 3.1159 13.3155 2.26806 12.6904 1.64294C12.0653 1.01782 11.2174 0.666626 10.3334 0.666626ZM9.66671 3.33329H4.33337V4.66663H9.66671V3.33329Z" fill="#7E7E7E"/>
</svg>
