<svg width="480" height="320" viewBox="0 0 480 320" fill="none" xmlns="http://www.w3.org/2000/svg">
<g opacity="0.1" clip-path="url(#clip0_126_3161)">
<path d="M448.661 209.547C447.584 208.439 440.151 218.442 427.793 219.288C415.697 220.104 411.804 211.224 399.523 213.055C397.045 213.425 392.413 215.995 382.825 220.473C373.438 224.859 367.328 229.845 366.128 230.676C358.402 236.063 345.49 243.373 322.729 251.975C355.74 248.898 388.765 245.804 421.776 242.726C444.614 217.672 449.554 210.47 448.661 209.547Z" fill="#1467E1"/>
<path d="M416.743 250.683C416.051 243.773 392.751 238.648 373.622 239.556C358.633 240.264 355.309 244.25 341.627 246.512C313.049 251.221 303.462 237.802 276.253 236.771C245.536 235.616 238.949 252.006 210.879 256.238C190.672 259.285 159.986 255.946 117.68 222.859C88.9323 235.847 60.1848 248.821 31.4373 261.809C81.0529 269.227 130.669 276.645 180.269 284.062C252.492 295.281 307.786 288.233 344.413 279.892C348.691 278.922 417.975 262.887 416.743 250.683Z" fill="#3A95EE"/>
<path d="M379.085 240.249C376.577 240.741 373.437 239.772 371.852 237.309C370.437 235.109 370.56 232.185 371.622 230.307C372.499 228.768 373.561 228.66 373.884 227.137C374.238 225.444 373.068 224.767 373.437 223.074C373.684 221.92 374.622 220.489 376.146 220.135C377.716 219.765 379.424 220.658 380.055 221.889C380.855 223.443 379.409 224.567 379.993 226.244C380.778 228.46 383.964 227.845 384.964 229.861C386.457 232.831 383.948 239.295 379.085 240.249Z" fill="#113BC1"/>
<path d="M362.788 245.589C359.556 245.758 356.986 243.08 356.063 240.741C354.016 235.586 358.463 228.414 362.419 228.414C366.358 228.414 370.714 235.57 368.774 240.741C367.974 242.834 365.835 245.419 362.788 245.589Z" fill="#FFFEFF"/>
<path d="M362.234 263.04C361.972 263.04 361.772 262.84 361.772 262.579V237.971C361.772 237.709 361.972 237.509 362.234 237.509C362.496 237.509 362.696 237.709 362.696 237.971V262.579C362.696 262.825 362.48 263.04 362.234 263.04Z" fill="#0A377A"/>
<path d="M263.326 250.837C260.232 250.99 257.801 248.436 256.908 246.204C254.954 241.28 259.201 234.447 262.972 234.447C266.727 234.447 270.882 241.264 269.035 246.204C268.266 248.22 266.219 250.683 263.326 250.837Z" fill="#D0F7F7"/>
<path d="M262.818 264.441C262.556 264.441 262.356 264.241 262.356 263.979V247.343C262.356 247.082 262.556 246.881 262.818 246.881C263.08 246.881 263.28 247.082 263.28 247.343V263.979C263.28 264.241 263.08 264.441 262.818 264.441Z" fill="#0A377A"/>
<path d="M279.315 240.895C276.345 241.049 274.006 238.587 273.16 236.447C271.282 231.723 275.36 225.167 278.977 225.167C282.578 225.167 286.564 231.708 284.794 236.447C284.055 238.371 282.101 240.741 279.315 240.895Z" fill="#113BC1"/>
<path d="M279.085 259.609C278.823 259.609 278.623 259.409 278.623 259.147V229.953C278.623 229.692 278.823 229.491 279.085 229.491C279.346 229.491 279.546 229.692 279.546 229.953V259.147C279.546 259.409 279.331 259.609 279.085 259.609Z" fill="#0A377A"/>
<path d="M347.999 259.101C345.69 259.224 343.874 257.316 343.213 255.638C341.751 251.96 344.921 246.866 347.737 246.866C350.538 246.866 353.647 251.96 352.262 255.638C351.692 257.146 350.169 258.978 347.999 259.101Z" fill="#FFFEFF"/>
<path d="M347.599 271.659C347.337 271.659 347.137 271.458 347.137 271.197V253.684C347.137 253.422 347.337 253.222 347.599 253.222C347.86 253.222 348.06 253.422 348.06 253.684V271.197C348.06 271.443 347.86 271.659 347.599 271.659Z" fill="#0A377A"/>
<path d="M87.7321 75.2119H45.5034V256.377H87.7321V75.2119Z" fill="#002A9A"/>
<path d="M126.252 271.335H87.7322V75.2119L126.252 118.118V271.335Z" fill="#FEFFFF"/>
<path d="M100.013 120.688H93.5955V124.566H100.013V120.688Z" fill="#157DB7"/>
<path d="M110.708 120.688H104.291V124.566H110.708V120.688Z" fill="#157DB7"/>
<path d="M121.42 120.688H115.002V124.566H121.42V120.688Z" fill="#157DB7"/>
<path d="M100.013 129.952H93.5955V133.83H100.013V129.952Z" fill="#157DB7"/>
<path d="M110.708 129.952H104.291V133.83H110.708V129.952Z" fill="#157DB7"/>
<path d="M121.42 129.952H115.002V133.83H121.42V129.952Z" fill="#157DB7"/>
<path d="M100.013 139.232H93.5955V143.11H100.013V139.232Z" fill="#157DB7"/>
<path d="M110.708 139.232H104.291V143.11H110.708V139.232Z" fill="#157DB7"/>
<path d="M121.42 139.232H115.002V143.11H121.42V139.232Z" fill="#157DB7"/>
<path d="M100.013 148.512H93.5955V152.39H100.013V148.512Z" fill="#157DB7"/>
<path d="M110.708 148.512H104.291V152.39H110.708V148.512Z" fill="#157DB7"/>
<path d="M121.42 148.512H115.002V152.39H121.42V148.512Z" fill="#157DB7"/>
<path d="M100.013 157.776H93.5955V161.655H100.013V157.776Z" fill="#157DB7"/>
<path d="M110.708 157.776H104.291V161.655H110.708V157.776Z" fill="#157DB7"/>
<path d="M121.42 157.776H115.002V161.655H121.42V157.776Z" fill="#157DB7"/>
<path d="M100.013 167.056H93.5955V170.934H100.013V167.056Z" fill="#157DB7"/>
<path d="M110.708 167.056H104.291V170.934H110.708V167.056Z" fill="#157DB7"/>
<path d="M121.42 167.056H115.002V170.934H121.42V167.056Z" fill="#157DB7"/>
<path d="M100.013 176.336H93.5955V180.214H100.013V176.336Z" fill="#157DB7"/>
<path d="M110.708 176.336H104.291V180.214H110.708V176.336Z" fill="#157DB7"/>
<path d="M121.42 176.336H115.002V180.214H121.42V176.336Z" fill="#157DB7"/>
<path d="M100.013 185.601H93.5955V189.479H100.013V185.601Z" fill="#157DB7"/>
<path d="M110.708 185.601H104.291V189.479H110.708V185.601Z" fill="#157DB7"/>
<path d="M121.42 185.601H115.002V189.479H121.42V185.601Z" fill="#157DB7"/>
<path d="M100.013 194.88H93.5955V198.759H100.013V194.88Z" fill="#157DB7"/>
<path d="M110.708 194.88H104.291V198.759H110.708V194.88Z" fill="#157DB7"/>
<path d="M121.42 194.88H115.002V198.759H121.42V194.88Z" fill="#157DB7"/>
<path d="M100.013 204.16H93.5955V208.038H100.013V204.16Z" fill="#157DB7"/>
<path d="M110.708 204.16H104.291V208.038H110.708V204.16Z" fill="#157DB7"/>
<path d="M121.42 204.16H115.002V208.038H121.42V204.16Z" fill="#157DB7"/>
<path d="M100.013 213.44H93.5955V217.318H100.013V213.44Z" fill="#157DB7"/>
<path d="M110.708 213.44H104.291V217.318H110.708V213.44Z" fill="#157DB7"/>
<path d="M121.42 213.44H115.002V217.318H121.42V213.44Z" fill="#157DB7"/>
<path d="M100.013 222.705H93.5955V226.583H100.013V222.705Z" fill="#157DB7"/>
<path d="M110.708 222.705H104.291V226.583H110.708V222.705Z" fill="#157DB7"/>
<path d="M121.42 222.705H115.002V226.583H121.42V222.705Z" fill="#157DB7"/>
<path d="M100.013 231.984H93.5955V235.863H100.013V231.984Z" fill="#157DB7"/>
<path d="M110.708 231.984H104.291V235.863H110.708V231.984Z" fill="#157DB7"/>
<path d="M121.42 231.984H115.002V235.863H121.42V231.984Z" fill="#157DB7"/>
<path d="M100.013 243.573H93.5955V247.451H100.013V243.573Z" fill="#157DB7"/>
<path d="M110.708 243.573H104.291V247.451H110.708V243.573Z" fill="#157DB7"/>
<path d="M121.42 243.573H115.002V247.451H121.42V243.573Z" fill="#157DB7"/>
<path d="M31.3295 55.8521V17.994H-10.5606V34.8147H-22.9184V55.8521H-38.3386V231.138H34.5767V55.8521H31.3295Z" fill="#1266E3"/>
<path d="M43.6872 55.8521V34.8147H31.3295V17.994H13.9855V34.8147H1.62779V55.8521H-13.8079V232.923H59.1075V55.8521H43.6872Z" fill="#3A93FB"/>
<path d="M5.58285 206.653H0.612061V69.5641H5.58285V206.653ZM1.38153 205.884H4.81337V70.3336H1.38153V205.884Z" fill="white"/>
<path d="M17.8482 206.653H12.8774V69.5641H17.8482V206.653ZM13.6469 205.884H17.0788V70.3336H13.6469V205.884Z" fill="white"/>
<path d="M31.868 206.653H26.8972V69.5641H31.868V206.653ZM27.6667 205.884H31.0985V70.3336H27.6667V205.884Z" fill="white"/>
<path d="M45.888 206.653H40.9172V69.5641H45.888V206.653ZM41.6867 205.884H45.1186V70.3336H41.6867V205.884Z" fill="white"/>
<path d="M320.759 291.019C327.685 285.601 337.58 278.199 349.968 270.15C349.968 270.15 368.497 258.116 386.996 248.774C431.302 226.398 476.501 246.266 548.877 225.644C592.322 213.271 616.314 196.45 643.461 206.176C649.063 208.177 660.974 215.564 678.241 215.918C690.845 216.164 701.249 212.825 708.158 209.901C708.158 229.538 708.158 249.159 708.158 268.796C614.236 287.633 506.618 299.375 388.134 295.128C365.096 294.297 342.628 292.896 320.759 291.019Z" fill="#5BBDFE"/>
<path d="M164.541 245.081C171.928 243.665 182.208 242.373 194.458 242.988C202.491 243.404 214.741 244.127 229.238 249.944C235.994 252.653 245.828 257.516 256.016 266.288C245.151 269.381 232.439 272.213 218.112 273.936C196.397 276.553 177.314 275.922 162.094 274.275C162.91 264.549 163.725 254.807 164.541 245.081Z" fill="#1467E1"/>
<path d="M173.159 182.061H144.473V278.338H173.159V182.061Z" fill="#3A95EE"/>
<path d="M126.252 259.886H144.473V182.061L126.252 182.292V259.886Z" fill="#1469DE"/>
<path d="M151.952 198.343H150.583V202.375H151.952V198.343Z" fill="#FEFFFF"/>
<path d="M157.216 198.343H155.846V202.375H157.216V198.343Z" fill="#FEFFFF"/>
<path d="M162.463 198.343H161.094V202.375H162.463V198.343Z" fill="#FEFFFF"/>
<path d="M167.727 198.343H166.357V202.375H167.727V198.343Z" fill="#FEFFFF"/>
<path d="M151.952 207.1H150.583V211.132H151.952V207.1Z" fill="#FEFFFF"/>
<path d="M157.216 207.1H155.846V211.132H157.216V207.1Z" fill="#FEFFFF"/>
<path d="M162.463 207.1H161.094V211.132H162.463V207.1Z" fill="#FEFFFF"/>
<path d="M167.727 207.1H166.357V211.132H167.727V207.1Z" fill="#FEFFFF"/>
<path d="M151.952 215.872H150.583V219.904H151.952V215.872Z" fill="#FEFFFF"/>
<path d="M157.216 215.872H155.846V219.904H157.216V215.872Z" fill="#FEFFFF"/>
<path d="M162.463 215.872H161.094V219.904H162.463V215.872Z" fill="#FEFFFF"/>
<path d="M167.727 215.872H166.357V219.904H167.727V215.872Z" fill="#FEFFFF"/>
<path d="M151.952 224.628H150.583V228.66H151.952V224.628Z" fill="#FEFFFF"/>
<path d="M157.216 224.628H155.846V228.66H157.216V224.628Z" fill="#FEFFFF"/>
<path d="M162.463 224.628H161.094V228.66H162.463V224.628Z" fill="#FEFFFF"/>
<path d="M167.727 224.628H166.357V228.66H167.727V224.628Z" fill="#FEFFFF"/>
<path d="M151.952 233.4H150.583V237.432H151.952V233.4Z" fill="#FEFFFF"/>
<path d="M157.216 233.4H155.846V237.432H157.216V233.4Z" fill="#FEFFFF"/>
<path d="M162.463 233.4H161.094V237.432H162.463V233.4Z" fill="#FEFFFF"/>
<path d="M167.727 233.4H166.357V237.432H167.727V233.4Z" fill="#FEFFFF"/>
<path d="M151.952 242.157H150.583V246.189H151.952V242.157Z" fill="#FEFFFF"/>
<path d="M157.216 242.157H155.846V246.189H157.216V242.157Z" fill="#FEFFFF"/>
<path d="M162.463 242.157H161.094V246.189H162.463V242.157Z" fill="#FEFFFF"/>
<path d="M167.727 242.157H166.357V246.189H167.727V242.157Z" fill="#FEFFFF"/>
<path d="M151.952 250.929H150.583V254.961H151.952V250.929Z" fill="#FEFFFF"/>
<path d="M157.216 250.929H155.846V254.961H157.216V250.929Z" fill="#FEFFFF"/>
<path d="M162.463 250.929H161.094V254.961H162.463V250.929Z" fill="#FEFFFF"/>
<path d="M167.727 250.929H166.357V254.961H167.727V250.929Z" fill="#FEFFFF"/>
<path d="M-33.1831 198.235C-24.1341 195.496 -20.8254 196.635 -19.5173 198.235C-16.9319 201.39 -21.1178 207.438 -18.4708 209.808C-15.8084 212.178 -10.3452 207.146 -5.85143 209.808C-2.55809 211.763 -3.74308 215.502 -0.588242 217.165C3.45919 219.304 7.66051 214.256 12.0311 215.056C15.6169 215.718 19.7105 220.427 22.5421 237.14C1.52012 238.541 -19.5173 239.941 -40.5393 241.341C-38.0924 226.968 -35.6301 212.594 -33.1831 198.235Z" fill="#87D5FB"/>
<path d="M-182.261 235.401C-146.419 237.125 -108.976 239.818 -70.1023 243.727C-22.1333 248.544 23.358 254.73 66.2177 261.809C-16.5777 281.215 -99.3731 300.622 -182.168 320.043C-182.199 304.007 -182.215 287.956 -182.245 271.92C-182.261 259.747 -182.261 247.574 -182.261 235.401Z" fill="#1669E1"/>
<path d="M-182.261 285.217C-176.998 279.753 -168.102 271.658 -155.36 265.01C-146.942 260.624 -136.646 256.992 -96.0028 250.175C-69.7022 245.758 -71.5027 247.466 -58.8988 244.604C-24.3956 236.771 -22.0256 226.475 0.45845 222.351C27.5593 217.364 51.0282 227.383 78.3753 239.048C108.031 251.698 108.446 259.008 132.177 266.872C156.4 274.906 176.145 273.967 202.661 272.443C269.266 268.611 282.963 250.713 315.819 259.455C330.024 263.225 350.8 272.782 372.222 300.775C313.865 306.531 255.447 311.163 196.951 314.687C70.8961 322.274 -55.4669 324.644 -182.153 321.828C-182.184 309.609 -182.215 297.42 -182.261 285.217Z" fill="#5EC0FF"/>
<path d="M144.642 302.084C140.41 298.575 134.316 293.85 126.56 288.864C116.864 282.631 105.676 275.444 89.6865 270.781C78.6522 267.55 63.1704 262.81 45.8573 267.996C34.8384 271.305 37.1622 273.459 28.4672 275.644C6.6449 281.139 -3.21976 266.349 -18.8401 272.859C-29.4588 277.291 -26.4579 284.77 -39.0157 290.249C-51.358 295.635 -58.7142 290.357 -69.6253 295.82C-78.228 300.114 -82.9834 308.055 -85.6304 313.903C-18.1475 313.441 49.3353 312.979 116.818 312.518C126.083 309.04 135.362 305.562 144.642 302.084Z" fill="#1969E2"/>
<path d="M-182.261 321.936C-115.224 321.967 -48.1877 322.013 18.8489 322.044C18.2025 314.041 16.0942 303.407 8.58411 299.313C2.12051 295.805 -2.15775 300.498 -12.284 299.775C-29.6126 298.528 -32.4135 283.662 -52.6352 277.522C-63.6541 274.167 -63.9157 278.245 -80.4594 276.137C-93.525 274.459 -124.489 260.994 -125.904 260.363C-137.293 255.376 -155.037 251.683 -182.245 258.608C-182.261 279.723 -182.261 300.837 -182.261 321.936Z" fill="#3A95EE"/>
<path d="M-86.0305 321.982C103.46 322.028 292.935 322.059 482.426 322.105C398.061 289.68 327.854 280.384 292.135 282.6C249.552 285.247 220.528 296.543 220.528 296.543C205.708 302.314 206.585 302.545 198.275 305.823C172.682 315.903 158.493 299.883 122.22 300.252C96.9657 300.514 100.798 308.624 72.1271 309.532C48.612 310.271 40.8249 305.238 14.6166 305.823C-5.40508 306.269 -19.5326 309.624 -28.043 311.394C-31.9673 312.21 -32.2751 313.841 -35.8608 314.98C-41.201 316.673 -52.4045 316.257 -52.4045 316.257C-58.5911 315.288 -68.7328 315.749 -86.0305 321.982Z" fill="#1C4CC4"/>
</g>
<defs>
<clipPath id="clip0_126_3161">
<rect width="523.13" height="320" fill="white"/>
</clipPath>
</defs>
</svg>
