
<svg width="672" height="314" viewBox="0 0 672 314" fill="none" xmlns="http://www.w3.org/2000/svg">
<rect width="672" height="314" rx="8" fill="#2752E7"/>
<path fill-rule="evenodd" clip-rule="evenodd" d="M20 104C55.3462 104 84 75.1224 84 39.5C84 24.6183 78.9992 10.9137 70.5987 0H8C3.58172 0 0 3.58172 0 8V100.788C6.29239 102.872 13.0155 104 20 104ZM557.897 314H68.1034C97.7114 206.763 196.14 128 313 128C429.86 128 528.289 206.763 557.897 314ZM672 40.1807V235.819C620.67 232.719 580 190.109 580 138C580 85.8909 620.67 43.2808 672 40.1807Z" fill="#4375FF" fill-opacity="0.38"/>
</svg>
