
<svg width="1280" height="322" viewBox="0 0 1280 322" fill="none" xmlns="http://www.w3.org/2000/svg">
<path d="M1276 0H4C1.79086 0 0 1.79086 0 4V318C0 320.209 1.79086 322 4 322H1276C1278.21 322 1280 320.209 1280 318V4C1280 1.79086 1278.21 0 1276 0Z" fill="#2752E7"/>
<path fill-rule="evenodd" clip-rule="evenodd" d="M126.962 0C125.371 62.9547 73.8382 113.5 10.5 113.5C6.96092 113.5 3.45871 113.342 0 113.033V8C0 3.58172 3.58172 0 8 0H126.962ZM1280 46.4608C1273.97 45.4994 1267.8 45 1261.5 45C1197.16 45 1145 97.1588 1145 161.5C1145 225.841 1197.16 278 1261.5 278C1267.8 278 1273.97 277.501 1280 276.539V46.4608ZM1002.78 322C924.316 180.094 773.13 84 599.5 84C425.87 84 274.684 180.094 196.223 322H1002.78Z" fill="#4375FF" fill-opacity="0.38"/>
</svg>
