<svg width="164" height="52" viewBox="0 0 164 52" fill="none" xmlns="http://www.w3.org/2000/svg">
<path fill-rule="evenodd" clip-rule="evenodd" d="M14 17C14 16.4477 14.4477 16 15 16H22C22.5523 16 23 16.4477 23 17V24C23 24.5523 22.5523 25 22 25H15C14.4477 25 14 24.5523 14 24V17ZM16 18V23H21V18H16Z" fill="#2752E7"/>
<path fill-rule="evenodd" clip-rule="evenodd" d="M25 17C25 16.4477 25.4477 16 26 16H33C33.5523 16 34 16.4477 34 17V24C34 24.5523 33.5523 25 33 25H26C25.4477 25 25 24.5523 25 24V17ZM27 18V23H32V18H27Z" fill="#2752E7"/>
<path fill-rule="evenodd" clip-rule="evenodd" d="M25 28C25 27.4477 25.4477 27 26 27H33C33.5523 27 34 27.4477 34 28V35C34 35.5523 33.5523 36 33 36H26C25.4477 36 25 35.5523 25 35V28ZM27 29V34H32V29H27Z" fill="#2752E7"/>
<path fill-rule="evenodd" clip-rule="evenodd" d="M14 28C14 27.4477 14.4477 27 15 27H22C22.5523 27 23 27.4477 23 28V35C23 35.5523 22.5523 36 22 36H15C14.4477 36 14 35.5523 14 35V28ZM16 29V34H21V29H16Z" fill="#2752E7"/>
<path d="M44.32 32L48.064 20.48H50.472L54.216 32H52.48L49.032 21.488H49.464L46.056 32H44.32ZM46.264 29.4V27.832H52.28V29.4H46.264ZM55.8113 32V20.24H57.4833V32H55.8113ZM60.0456 32V20.24H61.7176V32H60.0456ZM72.1311 32.24C70.9791 32.24 69.9978 31.9893 69.1871 31.488C68.3765 30.9813 67.7551 30.2773 67.3231 29.376C66.8965 28.4747 66.6831 27.4293 66.6831 26.24C66.6831 25.0507 66.8965 24.0053 67.3231 23.104C67.7551 22.2027 68.3765 21.5013 69.1871 21C69.9978 20.4933 70.9791 20.24 72.1311 20.24C73.4591 20.24 74.5578 20.576 75.4271 21.248C76.3018 21.92 76.9098 22.824 77.2511 23.96L75.5551 24.416C75.3311 23.6107 74.9311 22.9787 74.3551 22.52C73.7845 22.0613 73.0431 21.832 72.1311 21.832C71.3151 21.832 70.6351 22.016 70.0911 22.384C69.5471 22.752 69.1365 23.2667 68.8591 23.928C68.5871 24.5893 68.4511 25.36 68.4511 26.24C68.4458 27.12 68.5791 27.8907 68.8511 28.552C69.1285 29.2133 69.5391 29.728 70.0831 30.096C70.6325 30.464 71.3151 30.648 72.1311 30.648C73.0431 30.648 73.7845 30.4187 74.3551 29.96C74.9311 29.496 75.3311 28.864 75.5551 28.064L77.2511 28.52C76.9098 29.656 76.3018 30.56 75.4271 31.232C74.5578 31.904 73.4591 32.24 72.1311 32.24ZM81.4506 32.24C80.8106 32.24 80.2746 32.1227 79.8426 31.888C79.4106 31.648 79.0826 31.3333 78.8586 30.944C78.64 30.5493 78.5306 30.1173 78.5306 29.648C78.5306 29.2107 78.608 28.8267 78.7626 28.496C78.9173 28.1653 79.1466 27.8853 79.4506 27.656C79.7546 27.4213 80.128 27.232 80.5706 27.088C80.9546 26.976 81.3893 26.8773 81.8746 26.792C82.36 26.7067 82.8693 26.6267 83.4026 26.552C83.9413 26.4773 84.4746 26.4027 85.0026 26.328L84.3946 26.664C84.4053 25.9867 84.2613 25.4853 83.9626 25.16C83.6693 24.8293 83.1626 24.664 82.4426 24.664C81.9893 24.664 81.5733 24.7707 81.1946 24.984C80.816 25.192 80.552 25.5387 80.4026 26.024L78.8426 25.544C79.056 24.8027 79.4613 24.2133 80.0586 23.776C80.6613 23.3387 81.4613 23.12 82.4586 23.12C83.232 23.12 83.904 23.2533 84.4746 23.52C85.0506 23.7813 85.472 24.1973 85.7386 24.768C85.8773 25.0507 85.9626 25.3493 85.9946 25.664C86.0266 25.9787 86.0426 26.3173 86.0426 26.68V32H84.5626V30.024L84.8506 30.28C84.4933 30.9413 84.0373 31.4347 83.4826 31.76C82.9333 32.08 82.256 32.24 81.4506 32.24ZM81.7466 30.872C82.2213 30.872 82.6293 30.7893 82.9706 30.624C83.312 30.4533 83.5866 30.2373 83.7946 29.976C84.0026 29.7147 84.1386 29.4427 84.2026 29.16C84.2933 28.904 84.344 28.616 84.3546 28.296C84.3706 27.976 84.3786 27.72 84.3786 27.528L84.9226 27.728C84.3946 27.808 83.9146 27.88 83.4826 27.944C83.0506 28.008 82.6586 28.072 82.3066 28.136C81.96 28.1947 81.6506 28.2667 81.3786 28.352C81.1493 28.432 80.944 28.528 80.7626 28.64C80.5866 28.752 80.4453 28.888 80.3386 29.048C80.2373 29.208 80.1866 29.4027 80.1866 29.632C80.1866 29.856 80.2426 30.064 80.3546 30.256C80.4666 30.4427 80.6373 30.592 80.8666 30.704C81.096 30.816 81.3893 30.872 81.7466 30.872ZM93.064 32C92.52 32.1067 91.9867 32.152 91.464 32.136C90.9413 32.12 90.4747 32.0187 90.064 31.832C89.6533 31.6453 89.344 31.352 89.136 30.952C88.9493 30.5947 88.848 30.232 88.832 29.864C88.8213 29.4907 88.816 29.0693 88.816 28.6V20.96H90.496V28.52C90.496 28.8667 90.4987 29.168 90.504 29.424C90.5147 29.68 90.5707 29.896 90.672 30.072C90.864 30.4027 91.168 30.592 91.584 30.64C92.0053 30.6827 92.4987 30.664 93.064 30.584V32ZM87.16 24.704V23.36H93.064V24.704H87.16ZM98.327 32.24C97.4683 32.24 96.7137 32.0533 96.063 31.68C95.4177 31.3013 94.9137 30.776 94.551 30.104C94.1937 29.4267 94.015 28.6427 94.015 27.752C94.015 26.808 94.191 25.9893 94.543 25.296C94.9003 24.6027 95.3963 24.0667 96.031 23.688C96.6657 23.3093 97.4043 23.12 98.247 23.12C99.127 23.12 99.8763 23.3253 100.495 23.736C101.114 24.1413 101.575 24.72 101.879 25.472C102.188 26.224 102.311 27.1173 102.247 28.152H100.575V27.544C100.564 26.5413 100.372 25.8 99.999 25.32C99.631 24.84 99.0683 24.6 98.311 24.6C97.4737 24.6 96.8443 24.864 96.423 25.392C96.0017 25.92 95.791 26.6827 95.791 27.68C95.791 28.6293 96.0017 29.3653 96.423 29.888C96.8443 30.4053 97.4523 30.664 98.247 30.664C98.7697 30.664 99.2203 30.5467 99.599 30.312C99.983 30.072 100.282 29.7307 100.495 29.288L102.135 29.808C101.799 30.5813 101.29 31.1813 100.607 31.608C99.9243 32.0293 99.1643 32.24 98.327 32.24ZM95.247 28.152V26.848H101.415V28.152H95.247ZM107.602 36.08C107.138 36.08 106.687 36.008 106.25 35.864C105.818 35.72 105.423 35.5067 105.066 35.224C104.709 34.9467 104.413 34.6027 104.178 34.192L105.722 33.408C105.909 33.776 106.175 34.0453 106.522 34.216C106.869 34.3867 107.234 34.472 107.618 34.472C108.093 34.472 108.498 34.3867 108.834 34.216C109.17 34.0507 109.423 33.8 109.594 33.464C109.77 33.128 109.855 32.712 109.85 32.216V29.8H110.05V23.36H111.53V32.232C111.53 32.4613 111.522 32.68 111.506 32.888C111.49 33.096 111.461 33.304 111.418 33.512C111.295 34.0933 111.061 34.5733 110.714 34.952C110.373 35.3307 109.935 35.6133 109.402 35.8C108.874 35.9867 108.274 36.08 107.602 36.08ZM107.474 32.24C106.669 32.24 105.973 32.04 105.386 31.64C104.805 31.24 104.354 30.696 104.034 30.008C103.719 29.3147 103.562 28.536 103.562 27.672C103.562 26.8027 103.722 26.0267 104.042 25.344C104.362 24.656 104.815 24.1147 105.402 23.72C105.994 23.32 106.695 23.12 107.506 23.12C108.322 23.12 109.007 23.32 109.562 23.72C110.122 24.1147 110.543 24.656 110.826 25.344C111.114 26.032 111.258 26.808 111.258 27.672C111.258 28.536 111.114 29.312 110.826 30C110.538 30.688 110.114 31.2347 109.554 31.64C108.994 32.04 108.301 32.24 107.474 32.24ZM107.706 30.728C108.255 30.728 108.703 30.5973 109.05 30.336C109.397 30.0747 109.65 29.7147 109.81 29.256C109.97 28.7973 110.05 28.2693 110.05 27.672C110.05 27.0747 109.967 26.5467 109.802 26.088C109.642 25.6293 109.391 25.272 109.05 25.016C108.714 24.76 108.285 24.632 107.762 24.632C107.207 24.632 106.751 24.768 106.394 25.04C106.037 25.312 105.77 25.6773 105.594 26.136C105.423 26.5947 105.338 27.1067 105.338 27.672C105.338 28.2427 105.423 28.76 105.594 29.224C105.77 29.6827 106.031 30.048 106.378 30.32C106.73 30.592 107.173 30.728 107.706 30.728ZM117.528 32.24C116.664 32.24 115.915 32.0453 115.28 31.656C114.646 31.2667 114.155 30.7307 113.808 30.048C113.467 29.36 113.296 28.568 113.296 27.672C113.296 26.7707 113.472 25.9787 113.824 25.296C114.176 24.608 114.67 24.0747 115.304 23.696C115.939 23.312 116.68 23.12 117.528 23.12C118.392 23.12 119.142 23.3147 119.776 23.704C120.411 24.0933 120.902 24.6293 121.248 25.312C121.595 25.9947 121.768 26.7813 121.768 27.672C121.768 28.5733 121.592 29.368 121.24 30.056C120.894 30.7387 120.403 31.2747 119.768 31.664C119.134 32.048 118.387 32.24 117.528 32.24ZM117.528 30.664C118.355 30.664 118.971 30.3867 119.376 29.832C119.787 29.272 119.992 28.552 119.992 27.672C119.992 26.7707 119.784 26.0507 119.368 25.512C118.958 24.968 118.344 24.696 117.528 24.696C116.968 24.696 116.507 24.824 116.144 25.08C115.782 25.3307 115.512 25.68 115.336 26.128C115.16 26.5707 115.072 27.0853 115.072 27.672C115.072 28.5787 115.28 29.304 115.696 29.848C116.112 30.392 116.723 30.664 117.528 30.664ZM123.526 32V23.36H125.014V25.456L124.806 25.184C124.913 24.9067 125.052 24.6533 125.222 24.424C125.393 24.1893 125.59 23.9973 125.814 23.848C126.033 23.688 126.276 23.5653 126.542 23.48C126.814 23.3893 127.092 23.336 127.374 23.32C127.657 23.2987 127.929 23.312 128.19 23.36V24.928C127.908 24.8533 127.593 24.832 127.246 24.864C126.905 24.896 126.59 25.0053 126.302 25.192C126.03 25.368 125.814 25.5813 125.654 25.832C125.5 26.0827 125.388 26.3627 125.318 26.672C125.249 26.976 125.214 27.2987 125.214 27.64V32H123.526ZM129.874 21.944V20.32H131.546V21.944H129.874ZM129.874 32V23.36H131.546V32H129.874ZM137.78 32.24C136.921 32.24 136.167 32.0533 135.516 31.68C134.871 31.3013 134.367 30.776 134.004 30.104C133.647 29.4267 133.468 28.6427 133.468 27.752C133.468 26.808 133.644 25.9893 133.996 25.296C134.353 24.6027 134.849 24.0667 135.484 23.688C136.119 23.3093 136.857 23.12 137.7 23.12C138.58 23.12 139.329 23.3253 139.948 23.736C140.567 24.1413 141.028 24.72 141.332 25.472C141.641 26.224 141.764 27.1173 141.7 28.152H140.028V27.544C140.017 26.5413 139.825 25.8 139.452 25.32C139.084 24.84 138.521 24.6 137.764 24.6C136.927 24.6 136.297 24.864 135.876 25.392C135.455 25.92 135.244 26.6827 135.244 27.68C135.244 28.6293 135.455 29.3653 135.876 29.888C136.297 30.4053 136.905 30.664 137.7 30.664C138.223 30.664 138.673 30.5467 139.052 30.312C139.436 30.072 139.735 29.7307 139.948 29.288L141.588 29.808C141.252 30.5813 140.743 31.1813 140.06 31.608C139.377 32.0293 138.617 32.24 137.78 32.24ZM134.7 28.152V26.848H140.868V28.152H134.7ZM146.799 32.232C145.748 32.232 144.892 32 144.231 31.536C143.57 31.072 143.164 30.4187 143.015 29.576L144.727 29.312C144.834 29.76 145.079 30.1147 145.463 30.376C145.852 30.632 146.335 30.76 146.911 30.76C147.434 30.76 147.842 30.6533 148.135 30.44C148.434 30.2267 148.583 29.9333 148.583 29.56C148.583 29.3413 148.53 29.1653 148.423 29.032C148.322 28.8933 148.106 28.7627 147.775 28.64C147.444 28.5173 146.94 28.3653 146.263 28.184C145.522 27.992 144.932 27.7867 144.495 27.568C144.063 27.344 143.754 27.0853 143.567 26.792C143.386 26.4933 143.295 26.1333 143.295 25.712C143.295 25.1893 143.434 24.7333 143.711 24.344C143.988 23.9547 144.378 23.6533 144.879 23.44C145.386 23.2267 145.978 23.12 146.655 23.12C147.316 23.12 147.906 23.224 148.423 23.432C148.94 23.64 149.359 23.936 149.679 24.32C149.999 24.6987 150.191 25.144 150.255 25.656L148.543 25.968C148.484 25.552 148.29 25.224 147.959 24.984C147.628 24.744 147.199 24.6133 146.671 24.592C146.164 24.5707 145.754 24.656 145.439 24.848C145.124 25.0347 144.967 25.2933 144.967 25.624C144.967 25.816 145.026 25.9787 145.143 26.112C145.266 26.2453 145.5 26.3733 145.847 26.496C146.194 26.6187 146.706 26.7653 147.383 26.936C148.108 27.1227 148.684 27.3307 149.111 27.56C149.538 27.784 149.842 28.0533 150.023 28.368C150.21 28.6773 150.303 29.0533 150.303 29.496C150.303 30.3493 149.991 31.0187 149.367 31.504C148.748 31.9893 147.892 32.232 146.799 32.232Z" fill="#2752E7"/>
<rect x="0.5" y="0.5" width="163" height="51" rx="3.5" stroke="#2752E7"/>
</svg>
