<svg width="25" height="22" viewBox="0 0 25 22" fill="none" xmlns="http://www.w3.org/2000/svg">
<g clip-path="url(#clip0_326_349)">
<rect width="24.0686" height="22.0002" transform="translate(0.325073)" fill="white"/>
<path fill-rule="evenodd" clip-rule="evenodd" d="M13.3877 19.9376C12.2505 19.9376 11.3252 19.0122 11.3252 17.8751C11.3252 16.738 12.2505 15.8126 13.3877 15.8126C14.5248 15.8126 15.4502 16.738 15.4502 17.8751C15.4502 19.0122 14.5248 19.9376 13.3877 19.9376ZM4.4501 6.87501C5.58724 6.87501 6.51262 7.8004 6.51262 8.93753C6.51262 10.0747 5.58724 11 4.4501 11C3.31297 11 2.38759 10.0747 2.38759 8.93753C2.38759 7.8004 3.31297 6.87501 4.4501 6.87501ZM13.3877 14.4376C11.6545 14.4376 10.2306 15.7321 9.99758 17.4021L4.92242 12.3276C6.59305 12.0939 7.88763 10.6707 7.88763 8.93753C7.88763 7.04207 6.34555 5.5 4.4501 5.5C2.55465 5.5 1.01257 7.04207 1.01257 8.93753C1.01257 9.8801 1.39551 10.7347 2.01152 11.3562C2.01496 11.3596 2.01633 11.3644 2.01977 11.3685L10.9573 20.3061C10.9615 20.3095 10.9663 20.3102 10.9697 20.3144C11.5919 20.9304 12.4458 21.3126 13.3877 21.3126C15.2831 21.3126 16.8252 19.7705 16.8252 17.8751C16.8252 15.9796 15.2831 14.4376 13.3877 14.4376Z" fill="#2752E7"/>
<path fill-rule="evenodd" clip-rule="evenodd" d="M11.3252 0.6875C10.945 0.6875 10.6377 0.995502 10.6377 1.37501C10.6377 1.75451 10.945 2.06251 11.3252 2.06251C16.2532 2.06251 20.2627 6.07204 20.2627 11.0001C20.2627 11.3796 20.5701 11.6876 20.9502 11.6876C21.3304 11.6876 21.6377 11.3796 21.6377 11.0001C21.6377 5.31372 17.0115 0.6875 11.3252 0.6875Z" fill="#2752E7"/>
<path fill-rule="evenodd" clip-rule="evenodd" d="M11.3252 4.125C10.945 4.125 10.6377 4.433 10.6377 4.81251C10.6377 5.19201 10.945 5.50001 11.3252 5.50001C14.3578 5.50001 16.8252 7.96747 16.8252 11.0001C16.8252 11.3796 17.1325 11.6876 17.5127 11.6876C17.8929 11.6876 18.2002 11.3796 18.2002 11.0001C18.2002 7.20915 15.1161 4.125 11.3252 4.125Z" fill="#2752E7"/>
<path fill-rule="evenodd" clip-rule="evenodd" d="M13.3877 11C13.3877 11.3795 13.695 11.6875 14.0752 11.6875C14.4554 11.6875 14.7627 11.3795 14.7627 11C14.7627 9.10457 13.2206 7.5625 11.3252 7.5625C10.945 7.5625 10.6377 7.8705 10.6377 8.25001C10.6377 8.62951 10.945 8.93751 11.3252 8.93751C12.4623 8.93751 13.3877 9.86289 13.3877 11Z" fill="#2752E7"/>
</g>
<defs>
<clipPath id="clip0_326_349">
<rect width="24.0686" height="22.0002" fill="white" transform="translate(0.325073)"/>
</clipPath>
</defs>
</svg>
