<svg width="12" height="12" viewBox="0 0 12 12" fill="none" xmlns="http://www.w3.org/2000/svg">
<path fill-rule="evenodd" clip-rule="evenodd" d="M7.53923 6.11864L10.3329 3.72397V8.31364L7.53923 6.11864ZM4.97606 6.56056L5.78272 7.25223C5.90772 7.35923 6.09172 7.35923 6.21672 7.25223L7.02339 6.56056L9.70239 8.6659H2.29639L4.97606 6.56056ZM5.99956 6.56036L2.23389 3.3327H9.76522L5.99956 6.56036ZM1.66618 3.72397L4.45985 6.11831L1.66618 8.31331V3.72397ZM10.9995 8.99935V2.99935C10.9995 2.81268 10.8265 2.66602 10.6662 2.66602H1.33285C1.16418 2.66602 0.999512 2.81068 0.999512 2.99935V8.99935C0.999512 9.17435 1.15851 9.33268 1.33285 9.33268H10.6662C10.8535 9.33268 10.9995 9.16702 10.9995 8.99935Z" fill="#2752E7"/>
</svg>
