<svg width="23" height="22" viewBox="0 0 23 22" fill="none" xmlns="http://www.w3.org/2000/svg">
<path fill-rule="evenodd" clip-rule="evenodd" d="M14.5008 11.2457L20.2628 6.30669V15.773L14.5008 11.2457ZM9.21389 12.1581L10.8777 13.5846C11.1355 13.8053 11.515 13.8053 11.7728 13.5846L13.4365 12.1581L18.962 16.5003H3.68704L9.21389 12.1581ZM11.3252 12.1574L3.55847 5.50025H19.092L11.3252 12.1574ZM2.38764 6.30739L8.14962 11.2457L2.38764 15.773V6.30739ZM21.6378 17.1878V4.81275C21.6378 4.42775 21.281 4.12524 20.9503 4.12524H1.70017C1.35229 4.12524 1.01266 4.42362 1.01266 4.81275V17.1878C1.01266 17.5488 1.3406 17.8753 1.70017 17.8753H20.9503C21.3367 17.8753 21.6378 17.5337 21.6378 17.1878Z" fill="#2752E7"/>
</svg>
