<svg width="126" height="24" viewBox="0 0 126 24" fill="none" xmlns="http://www.w3.org/2000/svg">
    <path d="M40.62 6.3c-.845-.9-1.993-1.42-3.215-1.42h-8.363c-.676 0-1.202.58-1.202 1.282 0 .702.526 1.26 1.202 1.26h8.363c1.186 0 2.163 1.038 2.163 2.298S38.591 12 37.405 12h-8.363c-.676 0-1.202.579-1.202 1.281v4.599c0 .72.526 1.278 1.202 1.278.676 0 1.186-.558 1.186-1.278v-3.32h7.177c1.222 0 2.37-.52 3.214-1.42.865-.92 1.334-2.12 1.334-3.419s-.469-2.499-1.334-3.42V6.3zM56.952 4.88c-.676 0-1.202.58-1.202 1.282v8.777l-9.717-9.698c-.34-.36-.845-.441-1.277-.24-.453.2-.732.66-.732 1.161v11.717c0 .72.543 1.278 1.201 1.278s1.184-.558 1.184-1.278v-8.78l9.718 9.72c.225.218.525.338.826.338.15 0 .319-.039.469-.099.433-.201.715-.66.715-1.18V6.163c0-.702-.526-1.281-1.184-1.281h-.001zM72.345 15.278c-.865.879-2.142 1.34-3.704 1.34h-.937c-3.028 0-4.924-1.76-4.924-4.598s1.896-4.599 4.924-4.599h.937c1.58 0 2.857.48 3.722 1.359.472.497 1.24.48 1.691-.02a1.347 1.347 0 0 0-.018-1.801c-1.316-1.359-3.175-2.08-5.395-2.08h-.937c-2.22 0-4.08.721-5.395 2.08a6.729 6.729 0 0 0-1.427 2.318 7.72 7.72 0 0 0-.49 2.742c0 .96.169 1.899.49 2.757a6.454 6.454 0 0 0 1.427 2.3c1.316 1.359 3.175 2.08 5.395 2.08h.937c2.199 0 4.043-.7 5.357-2.041.49-.497.49-1.299.038-1.8-.45-.52-1.201-.52-1.691-.039v.002zM107.696 16.62h-1.39l-1.917-2.22a4.39 4.39 0 0 0 2.107-1.26 4.95 4.95 0 0 0 1.334-3.42 4.95 4.95 0 0 0-1.334-3.42c-.865-.899-1.995-1.418-3.215-1.418h-8.38c-.659 0-1.187.579-1.187 1.28 0 .703.528 1.261 1.186 1.261h8.381c1.184 0 2.161 1.038 2.161 2.298s-.977 2.28-2.161 2.28h-8.38c-.659 0-1.187.579-1.187 1.281v4.599c0 .72.528 1.278 1.186 1.278.658 0 1.202-.558 1.202-1.278v-3.32h5.149l3.646 4.2c.225.26.544.399.883.399h1.916c.658 0 1.202-.558 1.202-1.278s-.544-1.26-1.202-1.26v-.003zM123.746 6.3c-.847-.9-1.992-1.42-3.214-1.42h-8.363c-.676 0-1.202.58-1.202 1.282 0 .702.526 1.26 1.202 1.26h8.363c1.184 0 2.163 1.038 2.163 2.298s-.979 2.28-2.163 2.28h-8.363c-.676 0-1.202.579-1.202 1.281v4.599c0 .72.526 1.278 1.202 1.278.676 0 1.184-.558 1.184-1.278v-3.32h7.179c1.222 0 2.367-.52 3.214-1.42.865-.92 1.334-2.12 1.334-3.419s-.469-2.499-1.334-3.42V6.3zM83.866 4.88c-4.296 0-7.781 3.196-7.781 7.14 0 3.944 3.485 7.136 7.78 7.136 4.297 0 7.781-3.195 7.781-7.136 0-3.942-3.482-7.14-7.78-7.14zm0 11.74c-2.767 0-5.014-2.062-5.014-4.6 0-2.537 2.247-4.598 5.014-4.598 2.766 0 5.013 2.058 5.013 4.599 0 2.54-2.244 4.598-5.013 4.598z" fill="#2752E7" fill-opacity=".9"/>
    <path d="M22.396 6A12.033 12.033 0 0 0 18 1.608 11.926 11.926 0 0 0 12 0C9.814 0 7.764.585 6 1.608A12 12 0 0 0 1.608 6 11.925 11.925 0 0 0 0 12c0 2.186.585 4.236 1.608 6A12.031 12.031 0 0 0 6 22.396 11.937 11.937 0 0 0 12 24c2.186 0 4.236-.583 6-1.604A12.065 12.065 0 0 0 22.396 18 11.937 11.937 0 0 0 24 12c0-2.186-.583-4.236-1.604-6zM15.72 18.444a7.402 7.402 0 0 1-3.72.996A7.437 7.437 0 0 1 4.56 12 7.436 7.436 0 0 1 12 4.56 7.437 7.437 0 0 1 19.44 12a7.437 7.437 0 0 1-3.72 6.444z" fill="url(#jq4bpyl2ma)"/>
    <path d="M9.695 15.997A4.626 4.626 0 0 1 7.39 12H.002a9.808 9.808 0 0 0 .006.384c.005.154.013.308.024.46.002.04.004.08.008.119.006.084.015.168.023.252l.024.222c.007.058.014.117.023.175.02.15.043.3.068.451l.022.117a11.371 11.371 0 0 0 .18.82c.02.07.037.142.056.211l.033.116a.095.095 0 0 1 .006.02l.067.222.07.216c.012.04.026.08.039.117l.065.184.04.11.028.071.07.18a12.042 12.042 0 0 0 .085.209l.063.146a12.319 12.319 0 0 0 .732 1.41l.112.18a10.63 10.63 0 0 0 .29.44 13.891 13.891 0 0 0 .468.63l.122.152a.505.505 0 0 1 .033.04 9.912 9.912 0 0 0 .24.278c.02.022.042.045.061.068l.095.105c.02.024.043.047.065.071l.031.033a12.113 12.113 0 0 0 .462.468l.146.135a21.623 21.623 0 0 0 .169.154l.008.007.112.1c.054.048.11.094.166.141l.04.033a8.705 8.705 0 0 0 .449.353l.018.015.094.07a3.8 3.8 0 0 0 .095.068l.076.054c.034.025.068.049.103.072.033.024.068.047.103.07.067.046.136.092.205.136l.105.067c.058.038.118.074.177.11.073.045.148.09.222.131l.026.016.254.142.054.029.169.09h.001a7.523 7.523 0 0 0 .25.125c.042.02.085.04.127.062l.14.065.108.048a4.958 4.958 0 0 0 .245.105l.01.004.103.043.03.012.083.032.133.053.14.052c.015.004.028.01.041.015l.13.046.054.018.117.04c.071.024.143.047.216.069l.024.007.192.058.006.002.02.006.116.033c.07.02.14.038.211.056l.031.009a8.965 8.965 0 0 0 .19.045c.023.006.046.01.068.017.026.006.05.01.075.017l.19.04a6.194 6.194 0 0 0 .31.06l.048.009c.11.02.221.037.331.052.063.01.125.02.188.027l.12.014a7.885 7.885 0 0 0 .609.058l.037.003v-7.43a4.616 4.616 0 0 1-1.503-.546v.001z" fill="url(#hh18w4mfxb)"/>
    <path d="M11.078.037a10.338 10.338 0 0 0-.626.063c-.093.013-.187.025-.28.04a11.165 11.165 0 0 0-.59.106 11.726 11.726 0 0 0-.867.211C8.634.48 8.55.503 8.468.53a.534.534 0 0 1-.035.012 2.407 2.407 0 0 0-.124.04c-.009 0-.017.004-.025.006a3.13 3.13 0 0 0-.1.034l-.031.01a.1.1 0 0 1-.018.006L8.099.65A10.402 10.402 0 0 0 7.6.834a7.38 7.38 0 0 0-.226.092L7.2 1a3.66 3.66 0 0 0-.176.08 10.934 10.934 0 0 0-.517.252c-.059.03-.115.058-.171.09-.053.027-.106.057-.159.086a12.14 12.14 0 0 0-.346.2l-.168.102c-.111.07-.22.14-.33.214-.003.002-.006.005-.01.006l-.108.074a12.078 12.078 0 0 0-.393.281l-.01.008-.092.069-.025.019h-.001a2.962 2.962 0 0 1-.065.052l-.036.027c-.07.054-.138.11-.205.165l-.006.004a.3.3 0 0 0-.034.029l-.1.084-.012.008-.044.039a1.005 1.005 0 0 0-.043.038l-.076.065-.122.11a.71.71 0 0 0-.046.041l-.107.099h-.001l-.074.072c-.07.066-.138.132-.207.2v.001l-.054.056-.147.15a8.008 8.008 0 0 0-.222.24c-.057.062-.11.124-.165.187-.054.062-.108.124-.16.188l-.027.031-.18.225-.038.049a10.063 10.063 0 0 0-.345.466l-.026.04-.03.041a8.058 8.058 0 0 0-.157.235 9.629 9.629 0 0 0-.152.238c-.035.056-.07.111-.104.168a13.896 13.896 0 0 0-.376.673v.001l-.086.17c-.085.172-.167.347-.245.524l-.072.166c0 .004-.002.006-.003.01-.031.076-.063.151-.093.227-.018.047-.036.092-.053.14l-.02.05-.022.057-.01.027-.079.223-.049.147-.065.203-.062.205-.03.108c-.023.08-.043.16-.065.24a7.074 7.074 0 0 0-.083.344 18.543 18.543 0 0 0-.098.479l-.02.114a14.278 14.278 0 0 0-.116.848 5.88 5.88 0 0 0-.022.258l-.009.107A12.041 12.041 0 0 0 0 12h7.389c0-.84.224-1.628.619-2.307.403-.7.986-1.284 1.687-1.687a4.573 4.573 0 0 1 1.504-.549V.028l-.121.009z" fill="url(#gla1rive7c)"/>
    <path d="m22.394 18-3.949-2.28-2.448-1.413c-.406.7-.99 1.284-1.69 1.69a4.623 4.623 0 0 1-3.108.546v7.43a8.497 8.497 0 0 0 .534.023c.088.003.177.004.266.004h.002a9.739 9.739 0 0 0 .38-.006 12.828 12.828 0 0 0 .833-.055h.002c.004 0 .007 0 .01-.002a7.58 7.58 0 0 0 .229-.025l.05-.006.108-.014a6.984 6.984 0 0 0 .392-.059c.012-.001.023-.004.035-.006l.084-.015c.091-.015.181-.033.271-.051l.025-.005.257-.056.032-.008.032-.007a8.758 8.758 0 0 0 .295-.074l.097-.026.067-.018c.023-.006.045-.011.068-.019a.092.092 0 0 0 .024-.006l.05-.014a4.28 4.28 0 0 0 .217-.066c.027-.007.052-.016.079-.024l.036-.012c.05-.016.1-.032.15-.05l.024-.007a11.099 11.099 0 0 0 .239-.083c.003 0 .007-.002.01-.004.056-.02.114-.04.17-.062l.202-.08a10.798 10.798 0 0 0 .468-.2l.042-.018.222-.105a9.711 9.711 0 0 0 .517-.266l.127-.07.126-.072.03-.015.034-.022a10.024 10.024 0 0 0 .416-.253l.016-.01a.091.091 0 0 0 .012-.007l.025-.017c.069-.044.137-.09.204-.135l.022-.016.091-.062.081-.057.035-.024.008-.006c.016-.01.032-.021.046-.032.07-.05.14-.103.21-.155.068-.051.137-.103.204-.156l.002-.002c.068-.053.135-.107.202-.162l.023-.018a16.43 16.43 0 0 0 .991-.914l.063-.068.072-.074v-.001a4.046 4.046 0 0 0 .133-.143v-.001c.123-.136.243-.275.36-.417.003-.002.005-.006.008-.01.006-.005.01-.013.016-.019a9.527 9.527 0 0 0 .245-.307c.04-.051.079-.104.118-.156.05-.067.099-.135.147-.204l.083-.115c.028-.04.056-.081.081-.122l.016-.021.025-.038.013-.02.072-.11.034-.053c.036-.056.072-.112.105-.169l.08-.13a.228.228 0 0 0 .019-.032c.01-.013.017-.026.024-.04l.057-.096z" fill="url(#eg5h7hgygd)"/>
    <path d="m22.368 5.952-.029-.046a2.473 2.473 0 0 0-.065-.108 4.422 4.422 0 0 0-.165-.264 2.189 2.189 0 0 0-.089-.138 5.435 5.435 0 0 0-.11-.163l-.041-.064a20.515 20.515 0 0 0-.23-.32l-.118-.155a9.847 9.847 0 0 0-.436-.533l-.065-.074-.085-.095a17.512 17.512 0 0 0-.204-.222l-.11-.116c-.034-.033-.065-.067-.098-.1a1.151 1.151 0 0 0-.037-.04c-.029-.028-.059-.055-.087-.084l-.003-.003c-.005-.003-.008-.008-.013-.013l-.024-.022-.042-.042-.09-.085-.023-.023c-.033-.031-.067-.063-.102-.093-.01-.011-.023-.02-.033-.03a6.72 6.72 0 0 0-.155-.14l-.066-.057c-.026-.024-.054-.047-.082-.071a8.64 8.64 0 0 0-.244-.2c-.037-.032-.075-.06-.113-.09l-.101-.08a18.052 18.052 0 0 0-.373-.275 11.643 11.643 0 0 0-.226-.155c-.044-.03-.09-.061-.136-.09a2.025 2.025 0 0 0-.068-.045l-.019-.013-.068-.043A12.892 12.892 0 0 0 18 1.608a12.529 12.529 0 0 0-1.087-.558c-.08-.036-.162-.07-.243-.106a10.103 10.103 0 0 0-.822-.313 8.523 8.523 0 0 0-.235-.076l-.208-.063-.072-.022-.065-.018a5.64 5.64 0 0 0-.208-.056 5.93 5.93 0 0 0-.16-.04c-.015-.005-.032-.01-.047-.013l-.075-.019-.07-.016-.12-.028c-.057-.012-.113-.025-.171-.035a11.207 11.207 0 0 0-.89-.148h-.002c-.199-.026-.4-.047-.603-.061a10.39 10.39 0 0 0-.614-.031 9.073 9.073 0 0 0-.619 0c-.165.003-.329.01-.492.022v7.43a4.587 4.587 0 0 1 3.11.549 4.63 4.63 0 0 1 1.689 1.688l2.447-1.414-.022-.036-.024-.038c.008.012.015.025.024.037a.381.381 0 0 1 .023.037l3.949-2.278.001-.002a.977.977 0 0 1-.027-.048z" fill="url(#gprmwequje)"/>
    <defs>
        <linearGradient id="jq4bpyl2ma" x1="0" y1="12" x2="24" y2="12" gradientUnits="userSpaceOnUse">
            <stop stop-color="#2752E7"/>
            <stop offset=".724" stop-color="#8CB5FD"/>
            <stop offset="1" stop-color="#2752E7"/>
        </linearGradient>
        <linearGradient id="hh18w4mfxb" x1="4.473" y1="14.512" x2="11.207" y2="17.134" gradientUnits="userSpaceOnUse">
            <stop offset=".226" stop-color="#4280FF"/>
            <stop offset="1" stop-color="#FA5E5C"/>
        </linearGradient>
        <linearGradient id="gla1rive7c" x1="14.592" y1="3.024" x2="2.928" y2="12.384" gradientUnits="userSpaceOnUse">
            <stop offset=".357" stop-color="#ADDDFF"/>
            <stop offset=".599" stop-color="#73A1FF"/>
            <stop offset=".751" stop-color="#4280FF"/>
        </linearGradient>
        <linearGradient id="eg5h7hgygd" x1="12.613" y1="18.526" x2="20.962" y2="17.88" gradientUnits="userSpaceOnUse">
            <stop stop-color="#FA5E5C"/>
            <stop offset="0" stop-color="#FA5E5C"/>
            <stop offset=".354" stop-color="#EB8981"/>
            <stop offset=".786" stop-color="#FFB0AA"/>
        </linearGradient>
        <linearGradient id="gprmwequje" x1="21.012" y1="4.846" x2="11.494" y2="4.846" gradientUnits="userSpaceOnUse">
            <stop offset=".249" stop-color="#95FFFF"/>
            <stop offset="1" stop-color="#ADDDFF"/>
        </linearGradient>
    </defs>
</svg>
