<svg width="20" height="20" viewBox="0 0 20 20" fill="none" xmlns="http://www.w3.org/2000/svg">
<path d="M10 0C4.48609 0 0 4.48609 0 10C0 15.5139 4.48609 20 10 20C15.5139 20 20 15.5139 20 10C20 4.48609 15.5139 0 10 0ZM10 2.91668C12.642 2.91668 14.7917 5.06633 14.7917 7.70836C14.7917 10.3504 12.642 12.5 10 12.5C7.35801 12.5 5.20832 10.3504 5.20832 7.70832C5.20832 5.06629 7.35801 2.91668 10 2.91668ZM10 18.3333C7.27707 18.3333 4.8625 17.0148 3.3409 14.989C5.00793 14.1869 7.38859 13.3333 10 13.3333C12.6116 13.3333 14.9925 14.187 16.6591 14.9889C15.1375 17.0147 12.723 18.3333 10 18.3333Z" fill="#2752E7"/>
</svg>
