<svg width="56" height="56" viewBox="0 0 56 56" fill="none" xmlns="http://www.w3.org/2000/svg">
<g id="bank 1">
<g id="Group">
<g id="Group_2">
<g id="Group_3">
<path id="Vector" d="M27.998 13.4526C25.9916 13.4526 24.3599 15.0844 24.3599 17.0908C24.3599 19.0972 25.9916 20.7289 27.998 20.7289C30.0045 20.7289 31.6361 19.0971 31.6361 17.0908C31.6361 15.0845 30.0044 13.4526 27.998 13.4526ZM27.998 18.9108C26.9948 18.9108 26.1781 18.094 26.1781 17.0908C26.1781 16.0876 26.9948 15.2709 27.998 15.2709C29.0012 15.2709 29.818 16.0876 29.818 17.0908C29.818 18.094 29.0012 18.9108 27.998 18.9108Z" fill="#2752E7"/>
<path id="Vector_2" d="M47.0909 24.3636C47.5934 24.3636 48 23.9595 48 23.457V19.8211C48 19.5006 47.8313 19.2033 47.5552 19.0399L29.772 8.47904C29.7639 8.47367 29.7559 8.46924 29.748 8.46481C28.6427 7.85228 27.3962 7.8337 26.227 8.47725L8.4448 19.0399C8.16866 19.2032 8 19.5006 8 19.8211V23.457C8 23.9595 8.40662 24.3636 8.90912 24.3636H11.6364V40.728C9.63082 40.728 8 42.3586 8 44.364V47.091C8 47.5934 8.40662 48 8.90912 48H47.0909C47.5934 48 48 47.5935 48 47.091V44.364C48 42.3586 46.3692 40.728 44.3636 40.728V24.3636H47.0909ZM46.1818 44.3636V46.1818H9.81815V44.3636C9.81815 43.3613 10.634 42.5455 11.6363 42.5455H12.5454H43.4545H44.3636C45.3659 42.5454 46.1818 43.3613 46.1818 44.3636ZM13.4545 40.7272V24.3636H17.0909V40.7272H13.4545ZM18.9091 40.7272V24.3636H24.3636V40.7272H18.9091ZM26.1818 40.7272V24.3636H29.8181V40.7272H26.1818ZM31.6363 40.7272V24.3636H37.0908V40.7272H31.6363ZM38.9091 40.7272V24.3636H42.5455V40.7272H38.9091ZM9.81815 22.5455V20.3358L27.1291 10.0517C27.6955 9.74007 28.2974 9.74092 28.8567 10.0454L46.1818 20.3358V22.5455H9.81815Z" fill="#2752E7"/>
</g>
</g>
</g>
</g>
</svg>
