<svg width="16" height="16" viewBox="0 0 16 16" fill="none" xmlns="http://www.w3.org/2000/svg">
<g id="download 1">
<g id="Group">
<path id="Vector" d="M8.0001 2.375C7.8622 2.37503 7.72996 2.42983 7.63245 2.52734C7.53493 2.62485 7.48014 2.7571 7.4801 2.895V8.82725L5.49148 6.83862C5.44319 6.79034 5.38586 6.75204 5.32276 6.72591C5.25966 6.69978 5.19204 6.68634 5.12375 6.68634C4.98583 6.68635 4.85356 6.74115 4.75604 6.83869C4.65853 6.93622 4.60375 7.0685 4.60376 7.20642C4.60377 7.34434 4.65857 7.47661 4.7561 7.57412L7.63235 10.45C7.72991 10.5475 7.86219 10.6023 8.0001 10.6023C8.13802 10.6023 8.2703 10.5475 8.36786 10.45L11.2441 7.57363C11.3416 7.47611 11.3964 7.34384 11.3965 7.20592C11.3965 7.068 11.3417 6.93572 11.2442 6.83819C11.1467 6.74065 11.0144 6.68585 10.8765 6.68584C10.7385 6.68583 10.6063 6.74061 10.5087 6.83813L8.52011 8.82725V2.895C8.52007 2.7571 8.46528 2.62485 8.36776 2.52734C8.27025 2.42983 8.13801 2.37503 8.0001 2.375Z" fill="#2752E7"/>
<path id="Vector_2" d="M2.895 9.25049C2.75709 9.25049 2.62482 9.30527 2.5273 9.40279C2.42979 9.50031 2.375 9.63258 2.375 9.77049V11.484C2.37563 12.0516 2.60139 12.5958 3.00274 12.9971C3.4041 13.3985 3.94827 13.6242 4.51587 13.6249H11.4841C12.0517 13.6242 12.5959 13.3985 12.9973 12.9971C13.3986 12.5958 13.6244 12.0516 13.625 11.484V9.77049C13.625 9.7022 13.6116 9.63458 13.5854 9.57149C13.5593 9.5084 13.521 9.45108 13.4727 9.40279C13.4244 9.35451 13.3671 9.3162 13.304 9.29007C13.2409 9.26394 13.1733 9.25049 13.105 9.25049C13.0367 9.25049 12.9691 9.26394 12.906 9.29007C12.8429 9.3162 12.7856 9.35451 12.7373 9.40279C12.689 9.45108 12.6507 9.5084 12.6246 9.57149C12.5984 9.63458 12.585 9.7022 12.585 9.77049V11.484C12.5847 11.7759 12.4686 12.0557 12.2622 12.2621C12.0558 12.4684 11.776 12.5845 11.4841 12.5849H4.51587C4.22401 12.5845 3.94419 12.4684 3.7378 12.2621C3.53142 12.0557 3.41533 11.7759 3.415 11.484V9.77049C3.41502 9.7022 3.40158 9.63457 3.37545 9.57147C3.34932 9.50838 3.31102 9.45105 3.26273 9.40276C3.21444 9.35447 3.15711 9.31616 3.09401 9.29004C3.03092 9.26391 2.96329 9.25047 2.895 9.25049Z" fill="#2752E7"/>
</g>
</g>
</svg>
