<svg width="20" height="21" viewBox="0 0 20 21" fill="none" xmlns="http://www.w3.org/2000/svg">
<g id="file-download 1">
<path id="Vector" d="M10.8333 10.5001H13.3333L10 13.8334L6.66667 10.5001H9.16667V7.16675H10.8333V10.5001ZM12.5 3.83341H4.16667V17.1667H15.8333V7.16675H12.5V3.83341ZM2.5 2.99341C2.5 2.53675 2.8725 2.16675 3.3325 2.16675H13.3333L17.5 6.33341V17.9942C17.5007 18.1037 17.48 18.2122 17.4388 18.3136C17.3977 18.415 17.3369 18.5073 17.2601 18.5852C17.1832 18.6632 17.0918 18.7252 16.991 18.7677C16.8902 18.8103 16.7819 18.8327 16.6725 18.8334H3.3275C3.10865 18.8319 2.89918 18.7443 2.74435 18.5897C2.58952 18.435 2.50174 18.2256 2.5 18.0067V2.99341Z" fill="black"/>
</g>
</svg>
