<svg width="240" height="125" viewBox="0 0 240 125" fill="none" xmlns="http://www.w3.org/2000/svg">
<g id="Layer_2">
<path id="Vector" d="M6.10352e-05 111.354C6.10352e-05 118.89 52.4055 125 117.046 125C181.686 125 234.091 118.89 234.091 111.354C234.091 103.817 181.686 97.707 117.046 97.707C52.4055 97.707 6.10352e-05 103.817 6.10352e-05 111.354Z" fill="#EFEFEF"/>
<path id="Vector_2" d="M179.816 109.124C167.45 108.579 156.227 110.792 140.628 114.029C125.029 117.266 112.471 118.345 98.19 117.068C83.9095 115.79 73.3796 109.862 89.0239 106.972C104.668 104.081 166.143 95.4608 175.559 98.7087C184.976 101.957 186.499 109.416 179.816 109.118V109.124Z" fill="#C3C6D8"/>
<g id="Group" opacity="0.64">
<path id="Vector_3" d="M99.5146 2.64236C99.5146 4.10116 102.066 5.28471 105.209 5.28471C108.351 5.28471 110.903 4.10116 110.903 2.64236C110.903 1.18356 108.351 0 105.209 0C102.066 0 99.5146 1.18356 99.5146 2.64236Z" fill="#F4F4F4"/>
<path id="Vector_4" d="M217.367 36.2503C212.43 36.2503 208.428 34.4782 208.428 32.2923C208.428 30.1063 212.43 28.3342 217.367 28.3342C222.304 28.3342 226.306 30.1063 226.306 32.2923C226.306 34.4782 222.304 36.2503 217.367 36.2503Z" fill="#F4F4F4"/>
</g>
<g id="Group_2" opacity="0.64">
<path id="Vector_5" d="M9.50977 87.8785C9.39312 80.9172 29.619 74.9544 54.6856 74.5602C79.7522 74.1661 100.167 79.4898 100.284 86.4511C100.401 93.4124 80.1746 99.3752 55.108 99.7694C30.0415 100.164 9.62642 94.8398 9.50977 87.8785Z" fill="#F4F4F4"/>
<path id="Vector_6" d="M126.502 91.0886C126.403 85.2825 149.537 80.1959 178.174 79.7273C206.812 79.2588 230.108 83.5857 230.207 89.3919C230.307 95.198 207.173 100.285 178.535 100.753C149.898 101.222 126.602 96.8947 126.502 91.0886Z" fill="#F4F4F4"/>
</g>
<path id="Vector_7" d="M185.532 98.7081C185.532 98.7081 202.677 87.0432 201.54 81.753C200.404 76.4628 203.626 73.7324 207.126 70.7432C210.632 67.7485 213.377 60.4105 210.348 55.1808C207.319 49.9512 217.736 42.9764 217.167 37.4715C216.599 31.9666 214.139 28.2068 206.939 34.2622C199.739 40.3176 203.432 47.1051 197.091 48.3933C190.743 49.6759 182.6 50.6888 182.503 57.7516C182.407 64.8144 182.219 65.2768 175.872 67.4788C169.524 69.6808 179.662 77.0353 171.706 79.1382C163.75 81.2411 164.478 98.0751 173.03 100.508C181.583 102.941 185.532 98.7137 185.532 98.7137V98.7081Z" fill="#A8BBFF"/>
<path id="Vector_8" d="M207.825 42.7511C207.825 42.7511 198.619 61.6935 190.987 73.986C183.356 86.2784 172.434 98.5158 172.434 98.5158L172.877 99.3471C172.877 99.3471 184.839 86.2784 193.471 72.1473C202.108 58.0162 207.82 42.7456 207.82 42.7456L207.825 42.7511Z" fill="#E4EAFF"/>
<path id="Vector_9" d="M201.967 106.971C201.967 106.971 212.338 105.32 215.889 99.5396C219.441 93.7595 216.457 89.3556 223.561 89.2179C230.664 89.0803 229.954 83.647 231.09 78.3788C232.227 73.1161 238.478 74.1345 239.472 68.0516C240.467 61.9686 240.893 56.9812 232.795 61.7484C224.697 66.5157 220.435 66.9286 216.884 69.1966C213.332 71.4646 217.026 77.6246 209.496 77.9164C201.967 78.2081 205.28 86.8894 200.052 87.049C194.824 87.2087 186.754 91.4144 189.601 97.5414C192.448 103.668 195.079 109.025 201.967 106.971Z" fill="#E4EAFF"/>
<path id="Vector_10" d="M229.67 70.7437C229.67 70.7437 221.646 81.5828 214.503 86.5042C207.365 91.4256 196 94.178 196 94.178V95.246C196 95.246 202.819 95.4387 211.343 90.3356C219.867 85.2326 229.67 70.7492 229.67 70.7492V70.7437Z" fill="#2752E7"/>
<path id="Vector_11" d="M172.44 82.9037C172.44 82.9037 184.498 78.142 181.657 70.7434C178.815 63.3448 180.679 65.8881 182.089 60.9006C183.504 55.9132 177.821 55.9132 176.684 51.234C175.548 46.5548 181.907 39.3984 177.378 37.4717C172.849 35.545 170.86 41.2316 171.144 45.7511C171.428 50.2706 163.33 49.3073 163.756 54.2617C164.183 59.2161 172.116 61.0162 166.16 64.8641C160.205 68.7121 163.95 83.0854 172.44 82.9037Z" fill="#2752E7"/>
<path id="Vector_12" d="M190.328 112.069C179.375 112.069 170.496 111.113 170.496 109.933C170.496 108.754 179.375 107.797 190.328 107.797C201.282 107.797 210.161 108.754 210.161 109.933C210.161 111.113 201.282 112.069 190.328 112.069Z" fill="#C3C6D8"/>
<path id="Vector_13" d="M29.9301 113.979C18.0731 113.979 8.46104 112.803 8.46104 111.353C8.46104 109.903 18.0731 108.727 29.9301 108.727C41.7871 108.727 51.3992 109.903 51.3992 111.353C51.3992 112.803 41.7871 113.979 29.9301 113.979Z" fill="#C3C6D8"/>
<path id="Vector_14" d="M54.1154 112.223C42.2584 112.223 32.6463 111.047 32.6463 109.597C32.6463 108.147 42.2584 106.971 54.1154 106.971C65.9724 106.971 75.5845 108.147 75.5845 109.597C75.5845 111.047 65.9724 112.223 54.1154 112.223Z" fill="#C3C6D8"/>
<path id="Vector_15" d="M56.5195 117.167C44.6624 117.167 35.0504 115.991 35.0504 114.541C35.0504 113.091 44.6624 111.915 56.5195 111.915C68.3765 111.915 77.9885 113.091 77.9885 114.541C77.9885 115.991 68.3765 117.167 56.5195 117.167Z" fill="#C3C6D8"/>
<path id="Vector_16" d="M103.338 70.6112C103.338 70.6112 103.236 66.3119 105.128 65.9761C107.021 65.6403 108.015 62.3043 107.924 61.7483C107.828 61.1923 103.139 58.6215 103.094 59.0344C103.048 59.4473 103.617 62.7062 100.582 64.3577C97.5534 66.0091 98.1671 69.6314 98.4058 69.8185C98.6444 70.0002 103.333 71.1287 103.338 70.6112Z" fill="#4670FF"/>
<path id="Vector_17" d="M96.6274 63.3451C96.6274 63.3451 96.5081 59.3541 93.0019 58.1155C89.4957 56.8769 88.6945 56.0071 88.3592 55.0878C88.0296 54.1685 87.6488 54.218 87.3193 54.3061C86.9897 54.3997 83.3869 58.0659 83.5289 58.8036C83.671 59.5358 84.9041 61.2918 87.8364 61.7487C90.7743 62.2001 91.246 62.2937 91.6722 63.3506C92.0984 64.4076 92.4791 64.87 92.4791 64.87C92.4791 64.87 96.7184 64.1323 96.6218 63.3506L96.6274 63.3451Z" fill="#4670FF"/>
<path id="Vector_18" d="M96.6274 54.2622C96.6274 54.2622 93.7633 50.9152 93.6212 48.7133C93.4792 46.5113 93.9508 44.8598 93.9508 44.8598L89.3592 44.3093C89.3592 44.3093 88.5068 46.4122 89.3592 49.9684C90.2116 53.53 91.871 55.7761 91.871 55.7761L96.6331 54.2622H96.6274Z" fill="#A7BBFF"/>
<path id="Vector_19" d="M97.9286 33.2998L101.1 35.4082C101.1 35.4082 103.134 38.2047 102.282 39.9497C101.429 41.6948 100.435 42.0141 100.435 43.6656C100.435 45.317 100.31 46.1868 100.207 46.2363C100.105 46.2804 96.6955 43.8032 96.6216 43.4839C96.5477 43.1646 97.2126 40.825 98.4458 39.7681C99.6789 38.7111 99.2982 34.4008 97.923 33.2998H97.9286Z" fill="#A7BBFF"/>
<path id="Vector_20" d="M88.2686 23.0713L91.7748 22.2896C91.7748 22.2896 93.2921 26.099 92.6727 28.9395C92.059 31.7855 90.2576 33.8003 90.2576 33.8003L85.8535 33.2939C85.8535 33.2939 88.3141 28.8459 88.2686 27.1449C88.2232 25.4494 88.2686 23.0602 88.2686 23.0602V23.0713Z" fill="#4670FF"/>
<path id="Vector_21" d="M73.209 17.3791C73.209 17.3791 76.7606 15.2212 76.9993 15.7276C77.238 16.2341 77.8063 18.1113 79.0849 19.3058C80.3634 20.5004 81.1704 21.139 82.3069 23.3905C83.4435 25.642 82.5456 26.0053 82.5456 26.0053L78.0506 26.5117C78.0506 26.5117 78.7098 24.0345 76.2492 23.484C73.7886 22.9336 71.3223 18.9425 71.3223 18.7113C71.3223 18.4801 73.2147 17.3791 73.2147 17.3791H73.209Z" fill="#A7BBFF"/>
<path id="Vector_22" d="M42.5628 109.509C49.8935 110.527 55.8034 110.588 64.3956 108.491C66.5152 107.973 68.1177 106.938 69.2997 105.606C72.9196 101.532 72.6354 94.6457 71.2318 91.1556C69.3736 86.5259 63.134 83.0248 57.9344 80.8724C56.0478 80.0907 54.8033 79.3365 53.9679 78.6759C52.5075 77.5254 52.354 76.6997 52.354 76.6997C51.5414 75.2629 51.172 72.6426 50.8084 70.6057C50.6492 69.7635 50.5072 69.0203 50.331 68.5029C49.7287 66.7523 49.1831 70.4791 47.9216 72.3453C46.6657 74.2115 42.9947 71.1067 42.2332 71.1067C41.4718 71.1067 42.1764 72.3453 42.8299 73.65C43.4891 74.9436 40.3125 74.773 40.3125 75.6207C40.3125 76.4685 43.3073 77.0355 45.8133 77.4869C45.9383 77.5089 46.052 77.5254 46.1656 77.5474C48.7342 77.9933 48.3535 80.0907 47.9102 80.8229C47.4783 81.555 46.6543 81.8413 41.8923 83.3661C41.5172 83.4872 41.1365 83.6414 40.7557 83.834C40.7387 83.8395 40.7273 83.845 40.7273 83.845C40.4034 83.9992 40.0852 84.1863 39.7613 84.3955C35.6527 86.9718 31.6976 92.9226 31.3225 98.2239C30.8907 104.433 35.2095 108.496 42.5458 109.514L42.5628 109.509Z" fill="#E0C7AD"/>
<path id="Vector_23" d="M40.7385 83.8451C40.7385 83.8451 45.4551 83.9277 47.0974 82.8542C48.7397 81.7808 48.6318 79.6339 49.3932 80.7073C50.1604 81.7863 55.2009 85.3425 53.9394 83.8451C52.6778 82.3478 49.7228 80.4926 50.382 80.0082C51.0412 79.5183 50.7684 77.487 54.3826 80.9385C57.9968 84.3791 64.725 86.4159 62.9179 85.3975C61.1109 84.3791 58.2639 83.1405 56.5704 81.5551C55.4282 80.4926 53.9052 79.744 53.9678 78.6815C52.5073 77.531 52.3539 76.7053 52.3539 76.7053C51.5413 75.2685 51.1719 72.6481 50.8082 70.6113C50.6377 72.4004 50.3366 74.5143 49.8422 74.6684C48.9614 74.9437 43.7617 72.0646 44.9608 73.5344C46.1712 75.0042 48.1942 75.5657 47.0974 75.7364C46.0064 75.907 41.7898 74.4978 43.4833 75.5107C44.1425 75.9015 45.0517 76.6722 45.8132 77.4815C45.9382 77.5035 46.0518 77.52 46.1655 77.542C48.734 77.9879 48.3533 80.0853 47.9101 80.8174C47.4782 81.5496 46.6542 81.8358 41.8921 83.3607C41.5171 83.4818 41.1363 83.6359 40.7556 83.8286C40.7385 83.8341 40.7272 83.8396 40.7272 83.8396L40.7385 83.8451Z" fill="#BF9A79"/>
<path id="Vector_24" d="M53.1725 75.5109C53.1725 75.5109 52.303 74.3934 51.6154 74.7292C50.9278 75.0595 46.4954 77.7734 46.4442 78.7863C46.3931 79.7992 47.1318 80.1515 48.2115 79.9478C49.2912 79.7442 53.8317 76.6944 53.1782 75.5109H53.1725Z" fill="#A7BBFF"/>
<path id="Vector_25" d="M31.3394 98.2188C30.9075 104.428 35.2264 108.491 42.5627 109.509C49.8933 110.528 55.8032 110.588 64.3954 108.491C66.5151 107.974 68.1176 106.939 69.2996 105.606C54.4053 108.095 56.4908 102.837 48.143 98.2023C37.8517 92.4827 39.7725 84.396 39.7725 84.396C35.6639 86.9723 31.7088 92.9231 31.3337 98.2243L31.3394 98.2188Z" fill="#BF9A79"/>
<path id="Vector_26" d="M47.9213 90.8697C48.0066 89.9283 48.3532 89.1742 48.9556 88.6072C49.4273 88.1668 50.0751 87.8805 50.9047 87.7594L50.8763 87.0493L51.7174 87.0107L51.7458 87.7209C52.7005 87.7759 53.4278 88.0126 53.9279 88.4255C54.678 89.0421 55.0758 89.8788 55.1213 90.9302C55.1497 91.5193 55.0474 92.0532 54.8201 92.5322C54.5928 93.0111 54.2575 93.3909 53.8143 93.6717C53.2119 94.057 52.6209 94.3158 52.0356 94.4589L52.2402 99.1656C52.7971 99.083 53.2687 98.7637 53.6495 98.2242C53.9165 97.8389 54.087 97.2444 54.1666 96.4462L55.6213 96.6608C55.6043 97.426 55.4395 98.0866 55.1383 98.6316C54.8371 99.1766 54.4621 99.5785 54.0245 99.8372C53.5869 100.096 53.013 100.289 52.3027 100.415L52.3652 101.896L51.5185 101.935L51.456 100.437C50.4501 100.437 49.6148 100.101 48.9556 99.4518C48.2907 98.7968 47.9441 97.9545 47.8986 96.9306C47.8759 96.4682 47.9327 96.0278 48.0691 95.6259C48.2055 95.2186 48.4044 94.8663 48.6715 94.5635C48.9385 94.2607 49.2909 93.9965 49.7284 93.7763C49.9557 93.6607 50.4274 93.4955 51.1434 93.2753L50.9616 89.0145C50.5013 89.1356 50.1433 89.3558 49.8875 89.6751C49.6318 89.9944 49.4784 90.4513 49.4159 91.0348L47.927 90.8752L47.9213 90.8697ZM49.7 95.6535C49.4557 95.9893 49.3477 96.4297 49.3704 96.9636C49.3988 97.5912 49.6034 98.1141 49.9842 98.5215C50.3649 98.9289 50.8365 99.1601 51.3991 99.2041L51.2059 94.7066C50.4501 94.9984 49.9444 95.3122 49.7057 95.6535H49.7ZM51.9731 93.0441C52.6209 92.8129 53.0698 92.5212 53.3312 92.1688C53.5869 91.8165 53.7063 91.3872 53.6892 90.8862C53.6665 90.3798 53.4903 89.9449 53.1494 89.587C52.8141 89.2292 52.3652 89.02 51.8026 88.9595L51.9788 93.0496L51.9731 93.0441Z" fill="#A7BBFF"/>
<path id="Vector_27" d="M38.4086 112.455C32.0667 113.28 26.9523 113.33 19.5137 111.629C17.6782 111.211 16.2917 110.368 15.2688 109.284C12.1376 105.975 12.382 100.382 13.5981 97.5473C15.2063 93.7875 20.6048 90.9414 25.1055 89.1964C26.7364 88.5633 27.8161 87.9468 28.5378 87.4128C29.7993 86.477 29.9357 85.8054 29.9357 85.8054C30.6404 84.6383 30.9586 82.5079 31.2711 80.8564C31.4075 80.1738 31.5325 79.5683 31.686 79.1499C32.2088 77.7297 32.6804 80.7574 33.7715 82.2712C34.8569 83.7851 38.0335 81.2638 38.6927 81.2638C39.3519 81.2638 38.7438 82.2712 38.1756 83.3281C37.6073 84.3796 40.352 84.242 40.352 84.9301C40.352 85.6182 37.7607 86.0806 35.5899 86.4439C35.482 86.4604 35.3854 86.477 35.2831 86.4935C33.0612 86.8568 33.3908 88.5578 33.7715 89.1523C34.1466 89.7469 34.8569 89.9781 38.9768 91.2167C39.3007 91.3158 39.6303 91.4424 39.9599 91.5965C39.977 91.5965 39.9826 91.6075 39.9826 91.6075C40.2611 91.7341 40.5395 91.8828 40.818 92.0534C44.3753 94.1453 47.7963 98.9786 48.1202 103.283C48.4953 108.326 44.7561 111.629 38.4086 112.455Z" fill="#EFE3C2"/>
<path id="Vector_28" opacity="0.56" d="M39.9824 91.607C39.9824 91.607 35.9023 91.6731 34.4816 90.8033C33.061 89.9335 33.1519 88.1885 32.4927 89.0583C31.8278 89.9335 27.4692 92.8236 28.5603 91.607C29.6514 90.3905 32.2086 88.8821 31.6403 88.4913C31.072 88.0949 31.305 86.4434 28.1796 89.2454C25.0541 92.0419 19.2294 93.6934 20.7921 92.8677C22.3548 92.0419 24.8211 91.0345 26.2872 89.7464C27.276 88.8821 28.5944 88.2766 28.5375 87.4123C29.7991 86.4765 29.9355 85.8049 29.9355 85.8049C30.6401 84.6378 30.9584 82.5074 31.2709 80.856C31.4187 82.3093 31.6801 84.0268 32.1063 84.1534C32.8677 84.3791 37.3684 82.0395 36.3285 83.2341C35.2829 84.4286 33.5326 84.8855 34.4816 85.0232C35.4249 85.1608 39.0732 84.0158 37.6071 84.8415C37.0388 85.1608 36.2489 85.7828 35.5897 86.4434C35.4818 86.46 35.3852 86.4765 35.2829 86.493C33.061 86.8563 33.3905 88.5573 33.7713 89.1519C34.1463 89.7464 34.8567 89.9776 38.9766 91.2162C39.3005 91.3153 39.6301 91.4419 39.9597 91.596C39.9767 91.596 39.9824 91.607 39.9824 91.607Z" fill="#D3AC89"/>
<path id="Vector_29" d="M29.2199 84.8419C29.2199 84.8419 29.9757 83.9336 30.5667 84.2034C31.1577 84.4731 34.9935 86.6751 35.0446 87.5008C35.0901 88.3265 34.4479 88.6128 33.516 88.4477C32.584 88.2825 28.6516 85.8053 29.2199 84.8419Z" fill="#4670FF"/>
<path id="Vector_30" opacity="0.56" d="M48.1202 103.283C48.4953 108.326 44.7561 111.629 38.4086 112.454C32.0667 113.28 26.9523 113.33 19.5137 111.629C17.6782 111.21 16.2916 110.368 15.2688 109.284C28.157 111.304 31.1404 108.777 38.3631 105.012C47.2678 100.366 40.818 92.0532 40.818 92.0532C44.3753 94.1451 47.7963 98.9784 48.1202 103.283Z" fill="#D3AC89"/>
<path id="Vector_31" d="M27.1339 97.31C27.2078 96.5448 27.509 95.9338 28.0261 95.4714C28.4353 95.1136 28.9978 94.8824 29.7139 94.7833L29.6855 94.2108L30.4128 94.1777L30.4412 94.7502C31.2652 94.7943 31.896 94.987 32.3279 95.3228C32.9757 95.8237 33.3224 96.5008 33.3621 97.3596C33.3849 97.8385 33.2939 98.2734 33.1007 98.6587C32.9018 99.0441 32.612 99.3579 32.2313 99.5836C31.7085 99.8973 31.197 100.107 30.6913 100.222L30.8674 104.043C31.3505 103.971 31.7596 103.718 32.0892 103.277C32.3165 102.964 32.4699 102.485 32.5325 101.835L33.7883 102.006C33.7713 102.628 33.6292 103.167 33.3678 103.608C33.1064 104.054 32.7825 104.378 32.4074 104.588C32.0324 104.797 31.5323 104.956 30.9129 105.055L30.9697 106.256L30.2367 106.289L30.1798 105.072C29.3104 105.072 28.5887 104.802 28.0147 104.268C27.4408 103.734 27.1396 103.052 27.0998 102.22C27.0828 101.841 27.1283 101.488 27.2476 101.158C27.3612 100.828 27.5374 100.541 27.7704 100.294C28.0034 100.046 28.3102 99.8313 28.6853 99.6551C28.8842 99.5615 29.2933 99.4239 29.9128 99.2478L29.7536 95.7852C29.3559 95.8843 29.0433 96.0604 28.8217 96.3247C28.6001 96.5834 28.4637 96.9522 28.4125 97.4256L27.1226 97.2935L27.1339 97.31ZM28.6739 101.196C28.4637 101.472 28.3671 101.824 28.3898 102.259C28.4125 102.771 28.5887 103.195 28.9183 103.525C29.2479 103.855 29.657 104.043 30.1401 104.081L29.9696 100.426C29.3161 100.663 28.8785 100.921 28.6683 101.191L28.6739 101.196ZM30.6401 99.0771C31.197 98.89 31.5891 98.6532 31.8108 98.3615C32.0324 98.0752 32.1347 97.7284 32.1176 97.321C32.1006 96.9082 31.9415 96.5559 31.6516 96.2641C31.3618 95.9723 30.9754 95.8017 30.4867 95.7521L30.6401 99.0716V99.0771Z" fill="#4670FF"/>
<path id="Vector_32" d="M87.3757 111.1C96.9794 116.495 122.847 115.647 135.201 112.686C147.555 109.724 160.199 106.834 168.723 106.972C172.621 107.032 177.298 106.46 180.554 105.337C183.612 104.285 185.419 102.749 184.157 100.812C183.827 100.305 183.288 99.7712 182.503 99.2097C182.503 99.2097 173.695 93.7874 174.69 82.6234C175.684 71.465 174.832 62.4754 169.291 55.6824C163.751 48.8948 162.188 47.5902 161.193 44.4909C160.966 43.7808 160.637 43.1918 160.188 42.7514C158.693 41.2595 155.84 41.3311 150.749 43.423C144.145 46.1424 133.996 47.7498 128.745 55.6824C123.5 63.6205 130.229 79.893 116.869 85.6566C112.396 87.5833 108.367 88.321 104.736 88.6953C97.5193 89.433 91.8594 88.7228 87.3757 93.0442C80.6418 99.54 77.7777 105.706 87.3757 111.1Z" fill="#F8F8F8"/>
<g id="Group_3" opacity="0.7">
<path id="Vector_33" d="M151.107 74.6688C151.107 74.6688 143.436 84.2143 141.305 89.1247C139.174 94.0351 139.174 90.611 146.845 93.0828C154.517 95.5545 155.938 96.204 155.938 96.204C155.938 96.204 147.328 92.8626 140.623 95.2407C133.917 97.6133 129.655 99.0831 129.655 99.0831C129.655 99.0831 135.622 97.9161 138.89 99.2097L142.157 100.503C142.157 100.503 132.383 99.7052 128.746 100.239C125.109 100.779 106.925 99.8373 104.578 97.4151C102.231 94.9985 109.624 93.6332 116.869 91.3542C124.115 89.0752 129.74 90.8973 131.28 86.8402C132.82 82.7831 135.764 50.9702 138.037 50.0674C140.31 49.1646 145.567 54.3447 146.277 56.6403C146.987 58.9358 148.124 61.3304 145.567 68.0464C143.009 74.7624 140.623 86.3172 140.623 86.3172C140.623 86.3172 147.698 75.8028 151.107 74.6633V74.6688Z" fill="#E4E4E4"/>
</g>
<g id="Group_4" opacity="0.7">
<path id="Vector_34" d="M87.3757 111.1C96.9794 116.495 122.847 115.647 135.201 112.686C147.555 109.724 160.199 106.834 168.723 106.972C172.621 107.032 177.298 106.46 180.554 105.337L184.157 100.812C183.827 100.305 183.288 99.7713 182.503 99.2098C182.503 99.2098 173.695 93.7875 174.69 82.6235C175.684 71.4651 174.832 62.4755 169.291 55.6825C163.751 48.8949 162.188 47.5903 161.193 44.491C160.966 43.7809 160.636 43.1919 160.188 42.7515C160.699 44.6507 161.921 48.4325 164.415 52.886C168.013 59.3102 174.587 60.9892 172.434 70.6063C170.286 80.2289 163.847 88.4972 164.035 93.0773C164.222 97.6574 162.711 99.5566 155.323 100.812C147.936 102.061 146.038 102.254 149.447 104.087C152.857 105.915 118.386 110.688 101.525 109.036C84.665 107.385 85.4265 103.46 90.7284 101.935C96.0304 100.41 115.715 99.8924 115.715 99.8924C115.715 99.8924 110.692 93.7159 104.736 88.6954C97.5192 89.4331 91.8593 88.723 87.3757 93.0443C80.6417 99.5401 77.7777 105.706 87.3757 111.1Z" fill="#DBDBDB"/>
</g>
<path id="Vector_35" d="M66.7588 105.771C66.7588 105.771 62.0706 108.766 60.9341 110.07C59.7975 111.375 58.9451 113.153 57.4165 112.575C55.8879 111.997 55.4617 109.971 53.2227 109.228C50.9837 108.485 48.4265 106.63 47.7162 105.424C47.0059 104.219 46.8979 103.288 47.7162 103.498C48.5345 103.707 48.6766 104.257 49.313 104.494C49.9495 104.731 51.6202 104.769 53.433 105.353C55.2457 105.936 56.8085 106.041 57.4108 105.837C58.0132 105.628 62.8264 103.294 62.8264 103.294L66.7531 105.771H66.7588Z" fill="#F9C3A5"/>
<path id="Vector_36" opacity="0.68" d="M66.7588 105.771C66.7588 105.771 62.0706 108.766 60.9341 110.07C59.7975 111.375 58.9451 113.153 57.4165 112.575C55.8879 111.997 55.4617 109.971 53.2227 109.228C50.9837 108.485 48.4265 106.63 47.7162 105.424C47.0059 104.219 46.8979 103.288 47.7162 103.498C48.5345 103.707 48.6766 104.257 49.313 104.494C49.9495 104.731 51.6202 104.769 53.433 105.353C55.2457 105.936 56.8085 106.041 57.4108 105.837C58.0132 105.628 62.8264 103.294 62.8264 103.294L66.7531 105.771H66.7588Z" fill="#FFBE9A"/>
<path id="Vector_37" d="M70.8057 109.692C70.8057 109.692 66.1175 112.686 64.9809 113.991C63.8444 115.296 62.992 117.074 61.4634 116.496C59.9347 115.918 59.5085 113.892 57.2696 113.149C55.0306 112.405 52.4734 110.55 51.7631 109.345C51.0528 108.139 50.9448 107.209 51.7631 107.418C52.5814 107.627 52.7235 108.178 53.3599 108.414C53.9964 108.651 55.6671 108.69 57.4798 109.273C59.2926 109.857 60.8553 109.961 61.4577 109.758C62.0601 109.548 66.8733 107.214 66.8733 107.214L70.8 109.692H70.8057Z" fill="#F9C3A5"/>
<path id="Vector_38" d="M121.455 32.3137C121.455 32.3137 120.211 30.4916 123.052 28.185C125.893 25.8785 129.337 25.6032 131.224 26.1923C133.104 26.7758 134.133 28.8401 134.775 28.6365C135.417 28.4328 136.98 25.917 139.89 28.4658C142.799 31.0146 141.663 34.7304 139.89 35.2809C138.117 35.8314 137.582 36.4864 137.582 36.4864C137.582 36.4864 137.957 42.6464 131.428 43.4006C124.899 44.1603 121.455 32.3247 121.455 32.3247V32.3137Z" fill="#2F2159"/>
<path id="Vector_39" d="M133.775 48.0688C133.775 48.0688 132.826 46.8742 132.496 45.2227C132.167 43.5713 132.542 40.45 132.735 40.3124C132.923 40.1747 134.627 39.8059 135.093 37.9177C135.554 36.024 134.491 35.7488 133.531 36.4754C132.57 37.1966 132.36 37.4718 132.144 36.3709C131.928 35.2699 131.894 33.2771 129.235 31.9339C126.569 30.5907 124.865 30.3485 123.518 31.0751C122.171 31.8018 121.461 32.3137 121.461 32.3137C121.461 32.3137 120.466 40.9124 122.137 43.5327C123.808 46.1476 126.183 45.8393 126.183 45.8393L126.268 47.5568C126.268 47.5568 121.25 51.625 122.739 53.6838C124.228 55.7426 127.427 58.5336 130.377 54.9224C133.326 51.3112 133.786 48.0743 133.786 48.0743L133.775 48.0688Z" fill="#F9C3A5"/>
<path id="Vector_40" d="M110.158 69.4333L114.346 69.8131C114.346 69.8131 117.437 65.756 118.926 62.5191C119.182 61.9686 119.432 61.4236 119.682 60.9007C120.892 58.3024 121.949 56.1224 121.949 56.1224L116.653 53.6782C116.653 53.6782 116.267 54.7352 115.715 56.1995C114.692 58.9244 113.113 63.0421 112.465 64.3412C111.47 66.3395 110.158 69.4333 110.158 69.4333Z" fill="#F9C3A5"/>
<path id="Vector_41" d="M115.715 56.1995L118.574 60.4878C118.574 60.4878 119.011 60.675 119.682 60.9007C120.892 58.3024 121.949 56.1224 121.949 56.1224L116.653 53.6782C116.653 53.6782 116.267 54.7352 115.715 56.1995Z" fill="#F48E76"/>
<path id="Vector_42" d="M93.9965 85.436C93.9965 85.436 82.8472 86.2287 81.6368 86.5866C80.432 86.9499 61.0371 101.879 61.111 102.639C61.1849 103.399 64.3274 107.043 65.4526 106.971C66.5777 106.905 107.993 85.436 107.993 85.436H94.0022H93.9965Z" fill="#20193F"/>
<path id="Vector_43" d="M66.8786 109.08C68.0094 110.192 69.4926 111.139 70.2029 111.1C71.4758 111.028 90.3764 96.0331 91.3651 95.6863C92.3653 95.3395 105.362 98.0259 116.585 99.5397C127.808 101.054 136.332 96.1652 138.815 90.6603C141.304 85.1554 138.247 79.9973 138.247 79.9973C138.247 79.9973 135.974 79.3752 135.269 79.3752C135.116 79.3752 134.423 79.4853 133.422 79.6505C129.786 80.278 122.137 81.7203 122.137 81.7203L112.465 85.1554C112.465 85.1554 85.262 88.1831 84.4096 88.4583C83.5572 88.7336 65.7932 104.973 65.4409 106.492C65.2817 107.17 65.9637 108.177 66.8786 109.08Z" fill="#20193F"/>
<path id="Vector_44" d="M66.8786 109.08C68.0094 110.192 69.4926 111.139 70.2029 111.1C71.4759 111.028 90.3764 96.0331 91.3651 95.6863C92.3653 95.3395 105.362 98.0259 116.585 99.5397C127.808 101.054 136.332 96.1652 138.815 90.6603C141.304 85.1554 138.247 79.9973 138.247 79.9973C138.247 79.9973 135.974 79.3752 135.269 79.3752C135.116 79.3752 134.423 79.4853 133.422 79.6505C132.775 84.6434 130.308 92.7302 121.137 93.4843C107.777 94.5853 90.4332 91.6952 88.0238 92.6586C85.8132 93.5394 72.8511 107.109 66.8786 109.08Z" fill="#20193F"/>
<path id="Vector_45" d="M117.341 55.2255C117.199 56.0071 119.381 56.5576 119.381 56.5576C119.381 56.5576 117.557 59.3817 117.204 61.2919C117.176 61.4515 117.159 61.5946 117.153 61.7378C117.085 63.092 117.335 65.0352 117.352 67.061C117.369 67.8537 117.341 68.6574 117.25 69.4446C117.085 70.8374 116.903 73.4907 116.875 75.9349C116.846 78.4176 116.971 80.6801 117.437 81.1701C117.812 81.5664 119.193 81.7151 120.818 81.7481H120.83C123.16 81.7921 125.995 81.594 127.166 81.5114C129.155 81.3738 133.133 80.2177 135.196 80.4159C137.258 80.6196 139.816 82.194 139.173 79.3755C138.69 77.2451 138.804 76.4083 139.037 74.5257C139.111 73.9146 139.196 73.199 139.276 72.2907C139.423 70.6612 140.003 67.2702 140.623 63.9838C141.401 59.7945 142.225 55.7759 142.225 55.7759C142.225 55.7759 143.612 55.6053 143.293 54.7795C142.975 53.9538 141.128 51.4436 139.918 50.6509C138.713 49.8582 134.485 47.7938 133.775 48.0691C133.775 48.0691 132.354 52.3794 127.95 53.1611C123.546 53.9428 124.779 51.0968 125.438 49.9517C126.103 48.8012 126.291 47.3369 126.291 47.3369C126.291 47.3369 121.745 48.6196 120.563 49.1701C119.381 49.7205 115.92 53.8492 115.971 54.1245C116.017 54.3997 117.483 54.4438 117.341 55.2255Z" fill="#5B80FF"/>
<path id="Vector_46" d="M117.437 81.1696C117.812 81.566 119.193 81.7146 120.819 81.7477H120.83C126.558 80.4815 136.389 78.1364 137.469 76.7657C137.827 76.3033 138.389 75.4996 139.037 74.5252C139.111 73.9142 139.196 73.1985 139.276 72.2902C139.424 70.6608 140.003 67.2697 140.623 63.9833L134.105 59.3096C134.105 59.3096 133.491 59.9978 133.252 59.4913C133.019 58.9849 132.968 56.6453 132.968 56.6453C132.968 56.6453 132.451 60.9116 131.928 61.1868C131.405 61.4621 125.916 62.519 123.45 62.475C121.642 62.4364 118.665 61.6878 117.204 61.2914C117.176 61.4511 117.159 61.5942 117.153 61.7373C117.085 63.0915 117.335 65.0348 117.352 67.0606C119.807 67.6276 128.644 69.6974 128.803 70.4075C128.967 71.1287 119.273 74.9931 116.875 75.9345C116.846 78.4172 116.971 80.6797 117.437 81.1696Z" fill="#5B80FF"/>
<path id="Vector_47" d="M127.666 82.6615C127.666 82.6615 126.069 81.8908 119.818 82.0669C113.567 82.2431 114.448 86.2507 118.006 86.5755C121.569 86.9003 127.66 82.667 127.66 82.667L127.666 82.6615Z" fill="#7B869B"/>
<path id="Vector_48" d="M127.746 83.8671L121.137 86.8507V85.2323L127.194 82.6835C127.547 82.5349 127.956 82.7055 128.092 83.0523C128.211 83.3716 128.064 83.7239 127.746 83.8671Z" fill="#B4BBCC"/>
<path id="Vector_49" d="M122.12 85.7554L119.074 69.1416C118.983 68.6351 118.534 68.2553 118 68.2333L90.2117 67.1598C89.4843 67.1323 88.9217 67.7598 89.0468 68.4535L92.0927 84.9352C92.1836 85.4416 92.6325 85.816 93.161 85.8435L120.955 87.0435C121.682 87.0766 122.251 86.4435 122.126 85.7499L122.12 85.7554Z" fill="#B4BBCC"/>
<path id="Vector_50" d="M121.12 85.7554L118.074 69.1416C117.983 68.6351 117.534 68.2553 117 68.2333L89.2115 67.1598C88.4841 67.1323 87.9215 67.7598 88.0465 68.4535L91.0924 84.9352C91.1834 85.4416 91.6323 85.816 92.1608 85.8435L119.955 87.0435C120.682 87.0766 121.25 86.4435 121.125 85.7499L121.12 85.7554Z" fill="#E4EAEA"/>
<path id="Vector_51" d="M103.076 77.4205C102.792 78.1581 103.184 78.9839 103.946 79.2536C104.707 79.5289 105.56 79.149 105.839 78.4114C106.117 77.6737 105.731 76.848 104.969 76.5782C104.207 76.303 103.355 76.6828 103.076 77.4205Z" fill="white"/>
<path id="Vector_52" d="M142.231 55.776C142.231 55.776 141.736 60.4552 139.793 66.3289C137.849 72.2027 136.571 75.5497 135.673 76.1442C134.775 76.7387 121.142 80.416 121.142 80.416L120.335 76.0286C120.335 76.0286 130.746 72.566 130.939 72.0596C131.127 71.5531 134.11 59.3047 134.11 59.3047C134.11 59.3047 137.139 58.6166 138.372 57.6532C139.605 56.6898 139.747 55.3136 142.231 55.7705V55.776Z" fill="#F9C3A5"/>
<path id="Vector_53" d="M126.177 45.8336C126.177 45.8336 127.314 45.729 128.802 44.1491C130.291 42.5692 130.757 41.4297 130.757 41.4297C130.757 41.4297 128.058 50.3752 127.808 50.0669C127.558 49.7586 126.171 45.8336 126.171 45.8336H126.177Z" fill="#F48E76"/>
<path id="Vector_54" d="M182.174 110.731C188.516 111.557 193.63 111.607 201.069 109.905C202.904 109.487 204.291 108.645 205.314 107.56C208.445 104.252 208.201 98.659 206.985 95.8239C205.376 92.0641 199.978 89.218 195.477 87.473C193.846 86.8399 192.767 86.2234 192.045 85.6894C190.783 84.7536 190.647 84.082 190.647 84.082C189.942 82.9149 189.624 80.7845 189.311 79.1331C189.175 78.4504 189.05 77.8449 188.897 77.4265C188.374 76.0063 187.902 79.034 186.811 80.5478C185.726 82.0617 182.549 79.5404 181.89 79.5404C181.231 79.5404 181.839 80.5478 182.407 81.6048C182.975 82.6562 180.231 82.5186 180.231 83.2067C180.231 83.8948 182.822 84.3572 184.993 84.7205C185.101 84.7371 185.197 84.7536 185.3 84.7701C187.521 85.1334 187.192 86.8344 186.811 87.429C186.436 88.0235 185.726 88.2547 181.606 89.4933C181.282 89.5924 180.952 89.719 180.623 89.8731C180.606 89.8786 180.6 89.8841 180.6 89.8841C180.322 90.0108 180.043 90.1594 179.765 90.33C176.207 92.4219 172.786 97.2552 172.462 101.56C172.087 106.603 175.827 109.905 182.174 110.731Z" fill="#EFE3C2"/>
<path id="Vector_55" opacity="0.56" d="M180.6 89.8841C180.6 89.8841 184.68 89.9502 186.1 89.0804C187.521 88.2107 187.43 86.4656 188.089 87.3354C188.754 88.2106 193.113 91.1007 192.022 89.8841C190.931 88.6676 188.373 87.1592 188.942 86.7684C189.51 86.372 189.277 84.7205 192.402 87.5225C195.528 90.319 201.353 91.9705 199.79 91.1448C198.227 90.319 195.761 89.3116 194.295 88.0235C193.306 87.1592 191.988 86.5537 192.044 85.6894C190.783 84.7536 190.646 84.082 190.646 84.082C189.942 82.9149 189.624 80.7845 189.311 79.1331C189.163 80.5864 188.902 82.3039 188.476 82.4305C187.714 82.6562 183.214 80.3166 184.254 81.5112C185.299 82.7057 187.049 83.1627 186.1 83.3003C185.157 83.4379 181.509 82.2929 182.975 83.1186C183.543 83.4379 184.333 84.0599 184.992 84.7205C185.1 84.7371 185.197 84.7536 185.299 84.7701C187.521 85.1334 187.191 86.8344 186.811 87.429C186.436 88.0235 185.725 88.2547 181.605 89.4933C181.281 89.5924 180.952 89.719 180.622 89.8731C180.605 89.8786 180.6 89.8841 180.6 89.8841Z" fill="#D3AC89"/>
<path id="Vector_56" d="M191.363 83.1186C191.363 83.1186 190.607 82.2102 190.016 82.48C189.425 82.7497 185.59 84.9517 185.538 85.7774C185.493 86.6032 186.135 86.8894 187.067 86.7243C187.999 86.5591 191.931 84.0819 191.363 83.1186Z" fill="#4670FF"/>
<path id="Vector_57" opacity="0.56" d="M172.462 101.56C172.087 106.603 175.826 109.906 182.174 110.731C188.516 111.557 193.63 111.607 201.069 109.906C202.904 109.487 204.291 108.645 205.314 107.56C192.425 109.581 189.442 107.054 182.219 103.289C173.315 98.6425 179.764 90.3301 179.764 90.3301C176.207 92.4219 172.786 97.2553 172.462 101.56Z" fill="#D3AC89"/>
<path id="Vector_58" d="M186.817 95.5922C186.891 94.8271 187.192 94.216 187.709 93.7536C188.118 93.3958 188.681 93.1646 189.397 93.0655L189.368 92.493L190.096 92.46L190.124 93.0325C190.948 93.0765 191.579 93.2692 192.011 93.605C192.659 94.1059 193.005 94.783 193.045 95.6418C193.068 96.1207 192.977 96.5556 192.784 96.941C192.585 97.3263 192.295 97.6401 191.914 97.8658C191.391 98.1796 190.88 98.3887 190.374 98.5043L190.55 102.325C191.033 102.253 191.442 102 191.772 101.56C191.999 101.246 192.153 100.767 192.215 100.117L193.471 100.288C193.454 100.91 193.312 101.449 193.051 101.89C192.789 102.336 192.465 102.661 192.09 102.87C191.715 103.079 191.215 103.239 190.596 103.338L190.653 104.538L189.92 104.571L189.863 103.354C188.993 103.354 188.272 103.084 187.698 102.55C187.124 102.016 186.822 101.334 186.783 100.503C186.766 100.123 186.811 99.7705 186.93 99.4402C187.044 99.1099 187.22 98.8236 187.453 98.5759C187.686 98.3282 187.993 98.1135 188.368 97.9373C188.567 97.8438 188.976 97.7061 189.596 97.53L189.437 94.0674C189.039 94.1665 188.726 94.3426 188.505 94.6069C188.283 94.8656 188.147 95.2344 188.095 95.7079L186.805 95.5757L186.817 95.5922ZM188.357 99.4787C188.147 99.754 188.05 100.106 188.073 100.541C188.095 101.053 188.272 101.477 188.601 101.807C188.931 102.138 189.34 102.325 189.823 102.363L189.652 98.708C188.999 98.9447 188.561 99.2035 188.351 99.4732L188.357 99.4787ZM190.323 97.3593C190.88 97.1722 191.272 96.9354 191.494 96.6437C191.715 96.3574 191.818 96.0106 191.8 95.6033C191.783 95.1904 191.624 94.8381 191.335 94.5463C191.045 94.2546 190.658 94.0839 190.17 94.0344L190.323 97.3538V97.3593Z" fill="#4670FF"/>
</g>
</svg>
