<svg width="73" height="72" viewBox="0 0 73 72" fill="none" xmlns="http://www.w3.org/2000/svg">
<g id="man 1" clip-path="url(#clip0_848_10379)">
<path id="Vector" d="M36.5059 0.00390625C16.627 0.00390625 0.511841 16.119 0.511841 35.998C0.511841 48.2003 6.58429 58.9846 15.8714 65.493V65.4946C28.2351 74.1581 44.7635 74.1676 57.1405 65.4946V65.493C66.4276 58.9846 72.5 48.2003 72.5 35.998C72.5 16.1192 56.3849 0.00390625 36.5059 0.00390625Z" fill="#CBE3FA"/>
<path id="Vector_2" d="M52.2006 56.9531C45.9925 54.8183 46.092 54.8791 45.4687 54.5608C42.9521 53.2752 41.452 50.6587 41.452 48.1501C46.3686 46.1813 49.8454 41.3686 49.8485 35.7399V35.2232C51.7894 35.2232 53.4169 33.6532 53.4169 31.7169V19.1252C53.4169 13.1924 48.6074 8.38281 42.6745 8.38281H33.3859C28.9487 8.38281 25.0188 11.0917 23.4006 15.1271C21.3791 15.1271 19.75 16.7623 19.75 18.7684V31.8441C19.75 33.6772 21.2194 35.2232 23.1539 35.2232V35.7151C23.1586 41.3422 26.623 46.1689 31.5334 48.1454C31.5334 51.0441 29.6585 53.9059 26.6075 54.9595L20.8112 56.9531C17.8557 57.9693 15.8713 60.7496 15.8713 63.8758V65.4955C28.235 74.1591 44.7634 74.1686 57.1404 65.4955C57.1404 64.5479 57.1404 64.8192 57.1404 63.8758C57.1404 60.7496 55.156 57.9695 52.2006 56.9531Z" fill="#FFEBD2"/>
<path id="Vector_3" d="M57.1404 63.8758V65.4955C44.7771 74.1591 28.2483 74.1686 15.8713 65.4955C15.8713 64.5476 15.8713 64.8197 15.8713 63.8758C15.8713 60.7496 17.8557 57.9695 20.8112 56.9531C27.212 54.7521 26.9631 54.8647 27.5896 54.5391C31.0851 62.2778 41.9593 62.2778 45.4672 54.5623C45.4829 54.5467 45.7142 54.7218 46.4043 54.9595L52.2006 56.9531C55.1561 57.9694 57.1404 60.7496 57.1404 63.8758Z" fill="#80AAFF"/>
<path id="Vector_4" d="M53.4169 19.1252V31.7169C53.4169 33.6532 51.7894 35.2232 49.8485 35.2232V26.9756C49.8516 23.3948 46.9597 20.4874 43.3866 20.4843H29.6375C26.0645 20.4812 23.157 23.3778 23.1539 26.9586V35.2232C21.2196 35.2232 19.75 33.6772 19.75 31.8441C19.75 30.0133 19.75 20.1215 19.75 18.7684C19.75 16.7623 21.379 15.1271 23.4006 15.1271C25.0188 11.0917 28.9487 8.38281 33.3859 8.38281H42.6745C48.6073 8.38266 53.4169 13.1924 53.4169 19.1252Z" fill="#42434D"/>
<path id="Vector_5" d="M71.7072 9.48137C72.7545 10.5643 72.7545 12.2818 71.7072 13.3647L71.4745 13.6067C70.8756 14.2258 70.5948 15.0853 70.7158 15.9386L70.7639 16.2722C70.9734 17.7631 69.9649 19.1532 68.4802 19.4139L68.1497 19.4713C67.3011 19.6202 66.5688 20.1524 66.1654 20.9126L66.0087 21.2089C65.3012 22.5401 63.6675 23.0707 62.3146 22.4098L62.0136 22.2624C61.2395 21.8838 60.3334 21.8838 59.5592 22.2624L59.2582 22.4098C57.9053 23.0707 56.2716 22.5401 55.5642 21.2089L55.4075 20.9126C55.0041 20.1524 54.2718 19.6202 53.4232 19.4713L53.0927 19.4139C51.6079 19.1532 50.5995 17.7631 50.8089 16.2722L50.857 15.9386C50.978 15.0853 50.6972 14.2258 50.0984 13.6067L49.8656 13.3647C48.8184 12.2818 48.8184 10.5643 49.8656 9.48137L50.0984 9.23935C50.6972 8.62031 50.978 7.75924 50.857 6.90749L50.8089 6.57392C50.5995 5.08296 51.6079 3.69284 53.0927 3.43219L53.4232 3.37479C54.2718 3.22585 55.0041 2.69369 55.4075 1.93347L55.5642 1.63559C56.2716 0.305982 57.9053 -0.224621 59.2582 0.436306L59.5592 0.583695C60.3334 0.962254 61.2395 0.962254 62.0136 0.583695L62.3146 0.436306C63.6675 -0.224621 65.3012 0.305982 66.0087 1.63559L66.1654 1.93347C66.5688 2.69369 67.3011 3.22585 68.1497 3.37479L68.4802 3.43219C69.9649 3.69284 70.9734 5.08296 70.7639 6.57392L70.7158 6.90749C70.5948 7.75924 70.8756 8.62031 71.4745 9.23935L71.7072 9.48137Z" fill="#9CBCFF"/>
<path id="Vector_6" d="M34.8495 44.407C37.2591 45.7099 35.8623 49.3684 33.2078 48.6926C27.3893 47.2116 23.1564 41.9231 23.1539 35.7147C23.1539 35.6908 23.1589 26.927 23.169 26.6869C23.2939 23.7108 27.77 23.8418 27.784 26.8204C27.7908 28.2717 27.8085 30.1403 27.8082 32.6118C27.8077 37.8571 30.745 42.1877 34.8495 44.407Z" fill="#FFF3E4"/>
<path id="Vector_7" d="M43.0182 8.38658C45.0432 8.45019 44.982 11.4918 42.9561 11.5071C41.6341 11.517 40.031 11.5008 38.0403 11.4842C33.8344 11.4489 30.0843 13.9185 28.3265 17.6079C28.1574 17.9647 27.8207 18.2145 27.4313 18.2812C25.7092 18.5776 24.4044 20.0747 24.4044 21.8698V23.1451C23.624 24.2141 23.1555 25.5313 23.1539 26.9571V35.2217C21.2196 35.2217 19.75 33.6759 19.75 31.8426V18.7668C19.75 16.7608 21.379 15.1255 23.4006 15.1255C25.0188 11.0902 28.9487 8.38131 33.3859 8.38131C43.5502 8.38115 42.7727 8.37882 43.0182 8.38658Z" fill="#585966"/>
<path id="Vector_8" d="M40.93 51.4498C38.1574 52.4275 34.9926 52.4831 32.0741 51.4529C31.4561 51.2347 31.1178 50.5791 31.2867 49.9459C31.5447 48.9786 31.5188 48.2691 31.5333 48.1445C34.7072 49.4231 38.2829 49.418 41.4518 48.1492C41.4575 48.1951 41.4343 48.937 41.7092 49.9404C41.8822 50.5715 41.5474 51.2321 40.93 51.4498Z" fill="#FFDFBA"/>
<path id="Vector_9" d="M29.5694 57.4578C29.973 57.8696 29.8198 58.5581 29.2746 58.7457L25.4656 60.0562C22.5101 61.0725 20.5257 63.8527 20.5257 66.9789C20.5257 67.5706 19.8926 67.9436 19.3722 67.6614C18.1618 67.0051 16.9927 66.2817 15.8713 65.4955V63.8758C15.8713 60.7496 17.8577 57.9751 20.8112 56.9531C26.5886 54.9541 26.7783 54.9606 27.5896 54.5391C28.1047 55.6802 28.7805 56.6529 29.5694 57.4578Z" fill="#9CBCFF"/>
<path id="Vector_10" d="M71.7072 13.3644C71.6388 13.4704 70.4902 14.3472 70.7158 15.9383L70.7639 16.2718C70.9733 17.7628 69.9649 19.1529 68.4801 19.4136L68.1497 19.471C67.301 19.6199 66.5687 20.1521 66.1653 20.9123L66.0086 21.2086C65.3012 22.5398 63.6675 23.0704 62.3146 22.4095L62.0136 22.2621C61.2394 21.883 60.3334 21.883 59.5592 22.2621L59.2582 22.4095C57.9053 23.0704 56.2716 22.5398 55.5641 21.2086C55.4923 21.1203 55.0123 19.7499 53.4231 19.471C53.3831 19.4536 53.0489 19.4372 52.6274 19.2877C52.0572 19.0856 52.3389 18.2265 52.9214 18.3898C61.1154 20.687 69.0394 14.4898 68.9066 6.06565C68.8878 4.87242 70.6877 4.76971 70.7827 5.95922C70.7986 6.16014 70.7931 6.36586 70.7639 6.5736C70.7699 6.68345 70.3503 8.07713 71.4745 9.23903L71.7072 9.48106C72.7544 10.564 72.7544 12.2815 71.7072 13.3644Z" fill="#80AAFF"/>
<g id="Group">
<path id="Vector_11" d="M65.0565 16.1718H56.7297C56.0371 16.1718 55.39 15.7991 55.041 15.1992C54.695 14.5958 54.695 13.8503 55.0391 13.2503L59.2048 6.03739C59.5503 5.43606 60.1965 5.0625 60.8914 5.0625C61.5837 5.0625 62.2308 5.43511 62.5799 6.03495L66.743 13.2492C67.092 13.8491 67.092 14.5971 66.7418 15.1992C66.3985 15.7979 65.752 16.1718 65.0565 16.1718Z" fill="#FFED90"/>
<path id="Vector_12" d="M66.7417 15.1992C67.092 14.5971 67.092 13.8491 66.743 13.2492L62.5799 6.03495C62.2308 5.43515 61.5837 5.0625 60.8914 5.0625V16.1719H65.0564C65.752 16.1719 66.3984 15.7979 66.7417 15.1992Z" fill="#FFBE00"/>
<path id="Vector_13" d="M60.8913 13.8479C60.5488 13.8479 60.2711 13.5702 60.2711 13.2277V12.8956C60.2711 12.5531 60.5488 12.2754 60.8913 12.2754C61.2338 12.2754 61.5115 12.5531 61.5115 12.8956V13.2277C61.5115 13.5702 61.2338 13.8479 60.8913 13.8479Z" fill="#002F48"/>
<path id="Vector_14" d="M60.8913 11.2379C60.5488 11.2379 60.2711 10.9602 60.2711 10.6177V9.24128C60.2711 8.89877 60.5488 8.62109 60.8913 8.62109C61.2338 8.62109 61.5115 8.89877 61.5115 9.24128V10.6177C61.5115 10.9602 61.2338 11.2379 60.8913 11.2379Z" fill="#002F48"/>
<g id="Group_2">
<path id="Vector_15" d="M61.5114 13.2277V12.8956C61.5114 12.5531 61.2337 12.2754 60.8912 12.2754V13.8479C61.2337 13.8479 61.5114 13.5702 61.5114 13.2277Z" fill="#001824"/>
<path id="Vector_16" d="M61.5114 10.6177V9.24128C61.5114 8.89877 61.2337 8.62109 60.8912 8.62109V11.2379C61.2337 11.2379 61.5114 10.9602 61.5114 10.6177Z" fill="#001824"/>
</g>
</g>
</g>
<defs>
<clipPath id="clip0_848_10379">
<rect width="72" height="72" fill="white" transform="translate(0.5)"/>
</clipPath>
</defs>
</svg>
