<svg width="64" height="64" viewBox="0 0 64 64" fill="none" xmlns="http://www.w3.org/2000/svg">
<path d="M62.6134 0.481875C61.7686 0.10225 60.7812 0.252125 60.0879 0.864625L53.4989 6.69362L46.902 0.79475C46.0086 -0.00450003 44.6581 -0.00450003 43.7647 0.79475L37.1765 6.6865L30.5875 0.79475C29.6941 -0.00450003 28.3444 -0.00450003 27.451 0.79475L20.8541 6.69362L14.2651 0.864625C13.5726 0.252875 12.5844 0.103 11.7396 0.481875C10.8957 0.86225 10.353 1.7015 10.353 2.627V44.5094H2.353C1.05337 44.5092 0 45.5626 0 46.8623V52.5877C0 58.772 5.03137 63.8034 11.2156 63.8034V59.0975C7.62587 59.0975 4.70587 56.1768 4.70587 52.5877V49.2152H41.5686V52.5877C41.5686 58.772 46.6 63.8035 52.7842 63.8035C58.9685 63.8035 63.9999 58.7721 63.9999 52.5879V2.62688C64 1.70138 63.4572 0.86225 62.6134 0.481875ZM59.2941 52.5877C59.2941 56.1768 56.3734 59.0975 52.7844 59.0975C49.1954 59.0975 46.2746 56.1768 46.2746 52.5877V46.8623C46.2746 45.5626 45.2212 44.5093 43.9216 44.5093H15.0589V7.84962L19.3044 11.6058C20.1985 12.3964 21.5427 12.3924 22.4314 11.5971L29.0196 5.70537L35.6079 11.5964C36.5012 12.3956 37.8517 12.3956 38.7451 11.5964L45.3341 5.70462L51.9224 11.5964C52.8117 12.3916 54.1561 12.3948 55.0494 11.605L59.2941 7.84975V52.5877Z" fill="#C4C4C4"/>
</svg>
