<svg width="300" height="400" viewBox="0 0 300 400" fill="none" xmlns="http://www.w3.org/2000/svg">
<path d="M149.088 200.629L149.765 200.692L149.826 200" stroke="#DBDBDB" stroke-width="0.75" stroke-miterlimit="10"/>
<path d="M149.71 200.754L149.771 200.062L149.088 200" stroke="#DBDBDB" stroke-width="0.75" stroke-miterlimit="10"/>
<path d="M1.8237 365.138C1.8237 374.764 68.5757 382.569 150.912 382.569C233.248 382.569 300 374.764 300 365.138C300 355.512 233.248 347.707 150.912 347.707C68.5757 347.707 1.8237 355.512 1.8237 365.138Z" fill="#EFEFEF"/>
<path d="M149.826 200.055L149.143 200L149.088 200.685" stroke="#DBDBDB" stroke-width="0.75" stroke-miterlimit="10"/>
<path d="M170.28 201.339H129.21V199.761C129.21 198.789 129.931 198 130.82 198H168.668C169.557 198 170.278 198.789 170.278 199.761V201.339H170.28Z" fill="#A7A7A7"/>
<path d="M124.272 30.0679C125.061 28.2925 127.504 28.8571 127.563 30.8309C128.131 49.9074 131.055 99.8802 146.04 130.012C170.436 179.074 178.06 250.134 149.117 278.089C149.117 278.089 38.2996 223.47 124.272 30.0679Z" fill="#A8BBFF"/>
<path opacity="0.43" d="M122.098 56.2504C121.993 56.235 121.897 56.315 121.88 56.4289C121.799 56.9981 121.769 57.5058 121.719 58.0365L121.599 59.615L121.393 62.7718C121.266 64.8779 121.161 66.984 121.06 69.0902C120.87 73.3039 120.729 77.5207 120.622 81.7391C120.42 90.1758 120.42 98.6157 120.539 107.055C120.651 115.495 120.965 123.931 121.435 132.356L121.606 135.516L121.816 138.673C121.963 140.778 122.077 142.885 122.257 144.987L122.758 151.295L123.346 157.594C124.995 174.382 127.445 191.091 130.97 207.541C131.178 208.572 131.415 209.595 131.659 210.618L132.38 213.685L133.1 216.753C133.352 217.773 133.628 218.784 133.891 219.801C134.433 221.827 134.933 223.868 135.51 225.882L137.276 231.916C139.767 239.91 142.579 247.788 145.88 255.42C145.926 255.528 146.042 255.572 146.141 255.521C146.238 255.472 146.278 255.346 146.236 255.242V255.238C143.118 247.536 140.408 239.65 138.047 231.639L136.346 225.607C135.79 223.593 135.311 221.553 134.79 219.528C134.537 218.513 134.272 217.502 134.03 216.484L133.341 213.418L132.651 210.353C132.418 209.333 132.19 208.31 131.994 207.279L130.748 201.115C130.345 199.058 129.992 196.987 129.612 194.924C129.428 193.892 129.231 192.861 129.058 191.826L128.56 188.717L128.061 185.608C127.891 184.572 127.728 183.535 127.588 182.494C126.341 174.185 125.396 165.823 124.525 157.457C122.841 140.713 121.942 123.88 121.525 107.035C121.33 98.6126 121.285 90.1851 121.383 81.7576C121.428 77.5438 121.508 73.3316 121.636 69.1194C121.706 67.0133 121.781 64.9087 121.876 62.8041L122.035 59.6504L122.13 58.075C122.17 57.5566 122.202 57.012 122.258 56.5366L122.264 56.4889C122.278 56.372 122.202 56.2658 122.095 56.2504H122.098Z" fill="white"/>
<path d="M59.9929 88.1018C50.4595 117.627 1.38218 291.931 142.43 371.756C142.43 371.756 201.707 266.116 64.1206 87.2695C62.917 85.7049 60.6165 86.1726 59.9929 88.1018Z" fill="#E4EAFF"/>
<path opacity="0.45" d="M61.5718 85.6225C62.1223 95.6192 62.8611 105.588 63.6785 115.556C64.5001 125.522 65.427 135.475 66.4593 145.418C68.5238 165.302 70.9943 185.14 74.0223 204.886C77.0629 224.626 80.6302 244.287 85.175 263.706C87.4194 273.421 89.9853 283.055 92.8883 292.576C95.8026 302.09 99.0651 311.499 103.009 320.605C103.3 321.277 104.033 321.564 104.646 321.245C105.26 320.927 105.521 320.124 105.231 319.451L105.228 319.444L105.225 319.437C101.287 310.493 97.9977 301.195 95.0498 291.773C92.1131 282.344 89.5036 272.783 87.2129 263.125C82.574 243.824 78.8985 224.239 75.7483 204.561C72.6108 184.879 70.0266 165.085 67.8469 145.24C66.757 135.317 65.7725 125.379 64.8933 115.43C64.0183 105.482 63.2206 95.5192 62.6125 85.5548V85.5502C62.5928 85.2363 62.3442 84.9979 62.0577 85.0194C61.7726 85.041 61.5549 85.3102 61.5732 85.6225H61.5718Z" fill="white"/>
<path d="M85.3107 257.178L167.326 238.727L151.726 181.928L69.7034 200.386L85.3107 257.178Z" fill="#DBDBDB"/>
<path d="M121.125 182.571L150.108 176.047L151.726 181.928L121.077 188.825L121.125 182.571Z" fill="#DBDBDB"/>
<path d="M85.3718 257.164L167.387 238.713L161.873 183.187L79.8508 201.644L85.3718 257.164Z" fill="#EBEBEB"/>
<path d="M66.6392 372H231.23L225.163 256.666H60.5791L66.6392 372Z" fill="#2752E7"/>
<path d="M166.384 244.718H224.535L225.163 256.666H163.668L166.384 244.718Z" fill="#2752E7"/>
<path d="M251.314 292.357L181.132 366.846L86.812 275.511L138.923 220.207L174.963 218.429L251.314 292.357Z" fill="#4670FF"/>
<path opacity="0.6" d="M251.314 292.357L181.132 366.846L86.812 275.511L138.923 220.207L174.963 218.429L251.314 292.357Z" fill="white"/>
<path d="M138.923 220.207L174.962 218.429L156.891 237.613L138.923 220.207Z" fill="#4670FF"/>
<path opacity="0.4" d="M138.923 220.207L174.962 218.429L156.891 237.613L138.923 220.207Z" fill="#2752E7"/>
<path d="M111.911 285.909L150.933 244.499L148.51 242.152L109.488 283.563L111.911 285.909Z" fill="white"/>
<path d="M118.02 291.829L157.042 250.418L154.619 248.072L115.597 289.482L118.02 291.829Z" fill="white"/>
<path d="M124.133 297.746L163.155 256.335L160.732 253.989L121.71 295.399L124.133 297.746Z" fill="white"/>
<path d="M130.242 303.666L187.418 242.991L184.996 240.644L127.82 301.32L130.242 303.666Z" fill="white"/>
<path d="M136.356 309.59L193.532 248.915L191.109 246.569L133.933 307.244L136.356 309.59Z" fill="white"/>
<path d="M142.464 315.509L199.64 254.834L197.217 252.488L140.042 313.163L142.464 315.509Z" fill="white"/>
<path d="M148.58 321.422L205.756 260.747L203.333 258.4L146.157 319.076L148.58 321.422Z" fill="white"/>
<path d="M154.699 327.341L211.875 266.666L209.452 264.319L152.276 324.995L154.699 327.341Z" fill="white"/>
<path d="M160.807 333.26L217.983 272.585L215.56 270.239L158.384 330.914L160.807 333.26Z" fill="white"/>
<path d="M166.921 339.184L224.097 278.509L221.674 276.162L164.498 336.838L166.921 339.184Z" fill="white"/>
<path d="M173.029 345.103L230.205 284.428L227.782 282.081L170.606 342.757L173.029 345.103Z" fill="white"/>
<path d="M179.15 351.018L236.326 290.342L233.903 287.996L176.727 348.671L179.15 351.018Z" fill="white"/>
<path d="M69.601 318.252L170.083 306.235L162.085 238.111L61.5959 250.128L69.601 318.252Z" fill="#EBEBEB"/>
<path d="M73.2726 313.506L165.422 302.492L158.407 242.85L66.2639 253.87L73.2726 313.506Z" fill="white"/>
<path d="M76.8005 271.464C77.4557 277.075 82.4716 281.087 88.0062 280.43C93.5408 279.766 97.5057 274.681 96.8506 269.07C96.1955 263.46 91.1795 259.447 85.6449 260.104C80.1104 260.768 76.1454 265.853 76.8005 271.464Z" fill="#DBDBDB"/>
<path d="M101.894 310.179L165.368 302.59L128.557 262.775L101.894 310.179Z" fill="#EBEBEB"/>
<path d="M77.019 313.174L129.424 306.906L99.9149 281.641L77.019 313.174Z" fill="#DBDBDB"/>
<path d="M66.7688 372H231.353L244.046 263.438H79.4622L66.7688 372Z" fill="#4670FF"/>
<path d="M187.206 252.197H245.363L244.046 263.439H182.551L187.206 252.197Z" fill="#4670FF"/>
<path d="M152.968 327.515C147.638 327.515 143.304 323.122 143.304 317.719C143.304 312.316 147.638 307.923 152.968 307.923C158.297 307.923 162.631 312.316 162.631 317.719C162.631 323.122 158.297 327.515 152.968 327.515ZM152.968 310.69C149.146 310.69 146.034 313.845 146.034 317.719C146.034 321.593 149.146 324.748 152.968 324.748C156.789 324.748 159.901 321.593 159.901 317.719C159.901 313.845 156.789 310.69 152.968 310.69Z" fill="white"/>
<path d="M153.159 331.341C144.348 331.341 135.709 327.094 127.472 318.695L126.516 317.719L127.472 316.744C136.152 307.895 145.27 303.648 154.565 304.132C168.814 304.858 178.177 316.356 178.566 316.848L179.262 317.719L178.566 318.591C178.177 319.082 168.814 330.574 154.565 331.307C154.094 331.335 153.623 331.341 153.159 331.341ZM130.386 317.719C138.193 325.316 146.273 328.962 154.428 328.54C165.279 327.986 173.25 320.341 175.679 317.719C173.243 315.097 165.238 307.432 154.401 306.892C146.259 306.484 138.179 310.123 130.386 317.719Z" fill="white"/>
<path d="M171.039 297.445L132.97 336.037L134.9 337.994L172.969 299.401L171.039 297.445Z" fill="white"/>
<path d="M132.324 183.961L161.3 177.438L161.874 183.187L131.225 190.084L132.324 183.961Z" fill="#EBEBEB"/>
<path d="M123.479 225.332C120.825 225.927 118.184 224.225 117.597 221.534C117.01 218.843 118.689 216.166 121.343 215.571C123.998 214.976 126.639 216.678 127.226 219.369C127.813 222.06 126.134 224.737 123.479 225.332ZM121.644 216.947C119.74 217.376 118.532 219.3 118.955 221.23C119.378 223.16 121.275 224.385 123.179 223.956C125.083 223.527 126.291 221.603 125.868 219.673C125.445 217.743 123.548 216.519 121.644 216.947Z" fill="white"/>
<path d="M123.984 227.215C119.589 228.204 114.826 227.056 109.803 223.79L109.216 223.41L109.585 222.815C112.942 217.432 117.023 214.291 121.712 213.489C128.891 212.258 134.815 216.934 135.06 217.135L135.504 217.495L135.251 218.007C135.108 218.297 131.696 225.07 124.68 227.035C124.448 227.097 124.216 227.159 123.984 227.208V227.215ZM111.148 222.981C115.87 225.893 120.292 226.8 124.312 225.679C129.662 224.185 132.795 219.48 133.723 217.903C132.221 216.872 127.396 213.946 121.937 214.893C117.836 215.606 114.205 218.325 111.148 222.981Z" fill="white"/>
<path d="M129.204 208.32L114.442 231.819L115.617 232.577L130.379 209.078L129.204 208.32Z" fill="white"/>
<path d="M261.414 361.125L212.04 341.74L236.587 277.49L273.247 291.88L281.28 309.113L261.414 361.125Z" fill="white" stroke="#DBDBDB" stroke-width="0.75" stroke-miterlimit="10"/>
<path d="M273.247 291.879L281.28 309.113L268.566 304.125L273.247 291.879Z" fill="#DBDBDB"/>
<path d="M246.305 324.153C243.759 323.171 242.483 320.279 243.445 317.699C244.408 315.118 247.267 313.818 249.813 314.8C252.358 315.782 253.634 318.674 252.672 321.255C251.703 323.835 248.85 325.136 246.305 324.153ZM249.314 316.121C247.492 315.416 245.438 316.35 244.749 318.204C244.053 320.051 244.974 322.126 246.803 322.832C248.625 323.538 250.679 322.604 251.368 320.75C252.065 318.903 251.143 316.82 249.314 316.121Z" fill="#DBDBDB"/>
<path d="M245.711 326.015C241.507 324.396 238.143 320.777 235.713 315.257L235.433 314.613L236.068 314.323C241.794 311.694 246.905 311.348 251.252 313.285C257.92 316.253 260.329 323.462 260.431 323.766L260.609 324.313L260.117 324.603C259.844 324.762 253.32 328.526 246.393 326.257C246.168 326.181 245.936 326.104 245.718 326.015H245.711ZM237.283 315.326C239.651 320.39 242.851 323.614 246.816 324.908C252.092 326.637 257.265 324.458 258.889 323.649C258.2 321.947 255.75 316.82 250.672 314.572C246.857 312.877 242.353 313.133 237.276 315.319L237.283 315.326Z" fill="#DBDBDB"/>
<path d="M260.311 313.127L235.242 324.543L235.812 325.83L260.881 314.414L260.311 313.127Z" fill="#DBDBDB"/>
<path d="M44.2942 315.202H39.6104V370.684H44.2942V315.202Z" fill="#E4E4E4"/>
<path d="M63.5157 302.77H22.0112C19.2297 302.77 16.9749 305.24 16.9749 308.287V313.276C16.9749 316.323 19.2297 318.793 22.0112 318.793H63.5157C66.2972 318.793 68.5521 316.323 68.5521 313.276V308.287C68.5521 305.24 66.2972 302.77 63.5157 302.77Z" fill="#E4E4E4"/>
<path d="M135.304 362.385C137.404 361.268 153.496 354.992 157.516 348.29C157.323 348.131 157.091 348.019 156.82 347.983C152.274 347.383 143.193 346.788 135.148 349.928L130.883 353.929C130.883 353.929 129.448 357.705 132.254 362.311C132.957 362.723 134.044 363.054 135.306 362.383L135.304 362.385Z" fill="#BF9A79"/>
<path d="M157.516 348.289C153.496 354.992 137.404 361.267 135.305 362.384C134.043 363.055 132.958 362.723 132.253 362.312C132.258 362.32 132.261 362.327 132.267 362.336C132.977 363.496 134.341 363.941 135.528 363.427C140.054 361.469 151.596 356.181 157.578 350.761C158.339 350.071 158.21 348.861 157.517 348.289H157.516Z" fill="#20193F"/>
<path d="M134.748 368.244C136.848 367.128 152.94 360.852 156.96 354.149C156.768 353.991 156.536 353.879 156.265 353.843C151.719 353.243 142.637 352.648 134.593 355.788L130.327 359.789C130.327 359.789 128.892 363.565 131.698 368.171C132.402 368.583 133.489 368.914 134.75 368.243L134.748 368.244Z" fill="#BF9A79"/>
<path d="M156.961 354.15C152.942 360.853 136.849 367.129 134.75 368.245C133.488 368.916 132.403 368.584 131.698 368.173C131.703 368.181 131.706 368.189 131.712 368.198C132.422 369.358 133.786 369.802 134.973 369.289C139.5 367.33 151.041 362.043 157.023 356.623C157.784 355.932 157.655 354.723 156.963 354.15H156.961Z" fill="#20193F"/>
<path d="M136.476 349.986C102.259 303.203 55.6929 286.575 55.6929 286.575L56.7603 297.984L133.122 358.371C136.011 356.674 137.311 351.305 136.476 349.986Z" fill="#20193F"/>
<path d="M137.311 354.873C127.122 342.491 94.9459 309.301 65.583 297.515C63.1898 296.555 61.2432 294.593 60.1407 292.076L55.8388 282.252C55.8388 282.252 34.8675 276.869 21.9465 291.689C21.9465 291.689 22.7344 305.785 38.9629 310.939C54.3024 315.81 104.182 341.415 130.517 363.636C133.924 361.292 137.129 356.467 137.313 354.873H137.311Z" fill="#20193F"/>
<path d="M19.6658 291.503C19.6658 291.503 23.9438 293.553 31.2779 289.84C38.6119 286.126 58.5552 285.757 58.5552 285.757C58.5552 285.757 60.8472 261.543 65.9019 243.487C65.9019 243.487 78.0153 264.029 86.1415 267.568L89.7818 267.751V250.837C89.7818 250.837 86.6948 229.958 67.1701 214.366L61.0902 208.364C61.0902 208.364 39.713 203.643 25.1769 231.576C10.6394 259.509 19.6672 291.504 19.6672 291.504L19.6658 291.503Z" fill="#EFE3C2"/>
<path d="M91.0094 218.467C91.2131 217.293 91.2889 214.547 88.7047 211.201C85.2455 206.724 80.8088 209.007 80.8088 209.007C76.8778 211.42 75.2163 219.293 75.2163 219.293L79.3735 216.863C80.0027 218.866 86.1416 221.026 86.1416 221.026L86.1753 221.012C86.2343 225.367 86.1388 238.071 83.3186 246.907C82.2133 250.368 79.9662 256.799 87.3859 267.82L91.4743 267.637C91.4743 267.637 100.634 250.603 91.0094 218.467Z" fill="#F9C3A5"/>
<path d="M70.2304 192.648L58.8473 210.255C58.1072 211.4 58.2083 212.952 59.0833 213.975C60.6169 215.769 63.2039 218.295 65.9918 218.872C66.8569 219.05 67.7389 218.653 68.2192 217.844L74.2738 207.664C74.2738 207.664 75.4325 191.674 70.2318 192.648H70.2304Z" fill="#F9C3A5"/>
<path d="M87.5345 179.451C88.6932 180.069 89.8772 180.662 90.1932 181.958C90.3954 182.791 90.1426 183.681 90.2648 184.534C90.3926 185.423 90.9109 186.175 91.2971 186.971C92.0541 188.526 92.151 190.903 91.2774 192.455C90.776 193.346 89.5921 194.037 88.8351 194.658C87.9699 195.369 86.1174 196.001 85.484 196.861C86.2438 195.83 85.7523 192.506 85.6048 191.257C85.3394 189.008 85.0416 186.597 84.0094 184.589C82.9012 182.435 79.8213 180.562 77.8003 179.638C76.1851 178.9 74.3144 178.64 72.6895 179.349C73.7358 177.755 74.761 176.752 76.5096 176.439C79.2637 175.945 82.3732 175.532 84.7987 177.443C85.331 177.862 85.8057 178.365 86.3562 178.752C86.72 179.009 87.1258 179.231 87.5345 179.449V179.451Z" fill="white"/>
<path d="M89.3552 190.543C88.917 192.826 87.9058 195.205 86.9494 197.809C85.1545 202.697 83.347 207.58 81.5338 212.46L70.4077 207.195C71.6268 201.717 72.9456 196.266 74.1506 190.785C74.7924 187.867 76.0873 184.196 74.6562 181.322C73.8219 179.647 71.954 179.076 73.9483 177.738C75.4118 176.754 78.0269 177.019 79.6083 177.394C82.177 178.004 84.5084 179.545 86.4466 181.49C89.4957 184.547 89.9479 187.457 89.3538 190.546L89.3552 190.543Z" fill="#F9C3A5"/>
<path d="M77.0267 190.978C77.0042 191.018 76.9817 191.06 76.9592 191.102C76.4382 192.097 76.2345 193.517 75.9101 194.603C75.1573 197.115 74.4017 199.626 73.6518 202.138C73.6096 202.281 73.5843 202.426 73.5787 202.577C73.5422 203.5 73.6293 206.683 76.5969 206.386C79.2906 206.117 81.7512 205.917 83.2779 206.792C83.9633 207.184 84.2638 208.081 83.9717 208.866C83.2442 210.821 81.5307 215.196 79.5125 218.747C79.1024 219.469 78.2556 219.716 77.5646 219.333C75.4818 218.178 71.1504 215.604 68.1084 212.641C67.6969 212.24 67.5143 211.629 67.6379 211.041C68.2446 208.17 70.0578 199.44 70.2193 196.921C70.3836 194.355 65.7559 198.344 63.5158 198.132C62.6928 198.054 63.8304 191.66 63.0664 191.317C60.5721 190.194 61.867 185.965 63.5158 184.702C65.4834 183.194 67.857 184.642 67.8373 181.188C67.8275 179.445 69.3218 178.046 70.8836 177.713C72.4594 177.374 74.1883 177.88 75.75 177.957C77.4368 178.042 78.6769 178.849 79.924 180.096C80.3159 180.488 80.6937 180.926 80.8763 181.474C81.1375 182.257 80.9704 183.179 81.3355 183.911C81.747 184.735 82.7821 185.222 82.7863 186.16C82.7891 186.786 82.3074 187.275 81.8369 187.631C80.233 188.849 78.087 189.112 77.0253 190.98L77.0267 190.978Z" fill="white"/>
<path d="M69.5999 201.148C69.5999 201.148 72.302 194.877 70.3793 192.817C68.4552 190.757 65.055 190.925 64.9595 195.828C64.8388 201.928 69.6013 201.148 69.6013 201.148H69.5999Z" fill="#F9C3A5"/>
<path d="M42.9041 269.175C42.9041 269.175 48.1904 265.079 55.1088 269.383L52.3364 302.145C52.3364 302.145 55.7464 317.456 55.7464 318.2C55.7464 318.945 50.7212 329.508 50.7212 329.508C50.7212 329.508 50.0401 329.22 50.0036 326.803C49.9671 324.386 49.6834 325.997 49.6834 325.997H48.5682C48.5682 325.997 48.1076 324.35 49.3252 322.902C50.5429 321.456 50.9291 317.67 50.9291 317.67C50.9291 317.67 45.0515 310.15 47.1329 302.145L42.9041 269.175Z" fill="#F9C3A5"/>
<path d="M55.1102 269.824C55.0808 269.824 55.0513 269.821 55.0204 269.814C54.8027 269.76 54.6664 269.523 54.7156 269.284C54.7507 269.115 58.2366 252.209 59.6523 237.274C61.0441 222.602 55.6102 219.221 55.5555 219.189C55.3588 219.073 55.2858 218.804 55.3911 218.589C55.4965 218.373 55.7423 218.295 55.9389 218.409C56.1833 218.553 61.9036 222.108 60.4556 237.365C59.0343 252.354 55.5386 269.311 55.5035 269.48C55.4614 269.684 55.2942 269.824 55.1102 269.824Z" fill="#EFE3C2"/>
<path d="M42.9036 269.619C42.6831 269.619 42.5033 269.425 42.4991 269.182L42.0623 231.429C42.0595 231.184 42.2378 230.984 42.4612 230.981H42.4668C42.6873 230.981 42.867 231.175 42.8713 231.418L43.308 269.171C43.3108 269.415 43.1325 269.616 42.9092 269.619H42.9036Z" fill="#EFE3C2"/>
</svg>
