<svg width="24" height="24" viewBox="0 0 24 24" fill="none" xmlns="http://www.w3.org/2000/svg">
<g clip-path="url(#clip0_1708_57036)">
<path d="M18.5018 5.92386C16.5077 3.92968 13.2629 3.92968 11.2685 5.92386L5.0682 12.1241C3.64386 13.5486 3.64395 15.8664 5.06839 17.2908C5.78067 18.0031 6.71598 18.3592 7.65167 18.3591C8.58711 18.359 9.52292 18.003 10.2351 17.2908L15.9185 11.6072C16.3325 11.1932 16.5606 10.6428 16.5606 10.0573C16.5606 9.47174 16.3327 8.9213 15.9185 8.50718C15.0638 7.65252 13.673 7.65255 12.8185 8.50733L9.10176 12.224C8.81642 12.5093 8.81642 12.9719 9.1017 13.2573C9.38701 13.5427 9.84967 13.5426 10.135 13.2573L13.8518 9.54065C14.1367 9.25574 14.6002 9.25568 14.8851 9.54058C15.0231 9.67858 15.0992 9.86208 15.0992 10.0572C15.0992 10.2524 15.0232 10.4358 14.8851 10.5739L9.20173 16.2574C8.34701 17.112 6.95639 17.1121 6.10173 16.2575C5.24707 15.4027 5.24701 14.0121 6.10157 13.1573L12.3018 6.95721C13.7264 5.53271 16.0441 5.53271 17.4685 6.95721C18.1586 7.64721 18.5386 8.56468 18.5386 9.54052C18.5386 10.5164 18.1585 11.4338 17.4685 12.1239L11.2684 18.3242C10.983 18.6096 10.983 19.0722 11.2684 19.3576C11.4111 19.5003 11.5981 19.5716 11.7851 19.5716C11.9721 19.5716 12.1591 19.5002 12.3018 19.3576L18.5018 13.1573C19.4679 12.1912 20 10.9068 20 9.54055C20 8.17433 19.4679 6.88989 18.5018 5.92386Z" fill="#2752E7"/>
</g>
<defs>
<clipPath id="clip0_1708_57036">
<rect width="16" height="16" fill="white" transform="translate(4 4)"/>
</clipPath>
</defs>
</svg>
