<svg width="16" height="16" viewBox="0 0 16 16" fill="none" xmlns="http://www.w3.org/2000/svg">
<path d="M14.0352 11.33L13.1802 10.1C13.0635 9.9328 13.0006 9.73391 13.0002 9.53V6C13.0002 4.67392 12.4734 3.40215 11.5357 2.46447C10.598 1.52678 9.32624 1 8.00016 1C6.67408 1 5.40231 1.52678 4.46463 2.46447C3.52695 3.40215 3.00016 4.67392 3.00016 6V9.53C2.99968 9.73391 2.93687 9.9328 2.82016 10.1L1.96516 11.33C1.8357 11.4734 1.75057 11.6513 1.72006 11.8421C1.68956 12.0329 1.71498 12.2285 1.79326 12.4051C1.87154 12.5818 1.99932 12.732 2.16115 12.8375C2.32299 12.9431 2.51194 12.9995 2.70516 13H5.55016C5.66492 13.5651 5.97153 14.0732 6.41803 14.4382C6.86454 14.8031 7.42348 15.0025 8.00016 15.0025C8.57684 15.0025 9.13579 14.8031 9.58229 14.4382C10.0288 14.0732 10.3354 13.5651 10.4502 13H13.2952C13.4884 12.9995 13.6773 12.9431 13.8392 12.8375C14.001 12.732 14.1288 12.5818 14.2071 12.4051C14.2853 12.2285 14.3108 12.0329 14.2803 11.8421C14.2498 11.6513 14.1646 11.4734 14.0352 11.33ZM8.00016 14C7.69069 13.9991 7.38906 13.9026 7.13663 13.7235C6.8842 13.5445 6.69332 13.2918 6.59016 13H9.41016C9.307 13.2918 9.11613 13.5445 8.86369 13.7235C8.61126 13.9026 8.30963 13.9991 8.00016 14ZM2.70516 12C2.72776 11.979 2.74789 11.9555 2.76516 11.93L3.64016 10.67C3.87358 10.3356 3.9992 9.93782 4.00016 9.53V6C4.00016 4.93913 4.42159 3.92172 5.17173 3.17157C5.92188 2.42143 6.9393 2 8.00016 2C9.06103 2 10.0784 2.42143 10.8286 3.17157C11.5787 3.92172 12.0002 4.93913 12.0002 6V9.53C12.0011 9.93782 12.1267 10.3356 12.3602 10.67L13.2352 11.93C13.2524 11.9555 13.2726 11.979 13.2952 12H2.70516Z" fill="#B54708"/>
</svg>
