<svg width="79" height="80" viewBox="0 0 79 80" fill="none" xmlns="http://www.w3.org/2000/svg">
<g clip-path="url(#clip0_1563_51912)">
<path d="M67.1238 26.0327H50.9355V55.3731H77.4587V42.1671L74.3654 31.4762C73.4329 28.2522 70.48 26.0327 67.1238 26.0327Z" fill="#E80D8B"/>
<path d="M73.5864 42.0316L70.8296 32.5019C70.3544 30.8638 68.8306 29.7173 67.1239 29.7173H54.6201V42.0316H73.5864Z" fill="#84DBFF"/>
<path d="M73.5894 42.0268H54.6133V29.7124L73.5894 42.0268Z" fill="#CDD6E0"/>
<path d="M73.5864 42.0316L70.8296 32.5019C70.3544 30.8638 68.8306 29.7173 67.1239 29.7173H54.6201L73.5864 42.0316Z" fill="#F2F2F2"/>
<path d="M5.19939 11.3027H46.0358C48.7403 11.3027 50.9354 13.4961 50.9354 16.2023V55.3713H0.299805V16.2023C0.299805 13.4962 2.49314 11.3027 5.19939 11.3027Z" fill="#2752E7"/>
<path d="M33.4865 11.311V24.2573L31.5919 22.3628L29.6061 24.3488L27.6217 22.3628L25.6374 24.3488L23.6497 22.3628L21.6393 24.3488L19.6565 22.3628L17.7393 24.2802V11.311H33.4865Z" fill="#F2F2F2"/>
<path d="M78.7001 55.3695V60.906H0.306641V55.3695H8.48895C10.3998 51.9398 14.0745 49.6206 18.2881 49.6206C22.4854 49.6206 26.1601 51.9398 28.0873 55.3695H54.4145C56.3253 51.9398 59.9821 49.6206 64.1957 49.6206C68.4094 49.6206 72.0677 51.9398 73.9949 55.3695H78.7001Z" fill="#334A5E"/>
<path d="M72.0201 60.872C72.0201 65.1934 68.5169 68.6966 64.1955 68.6966C59.874 68.6966 56.374 65.1934 56.374 60.872C56.374 56.5506 59.8755 53.0474 64.1955 53.0474C68.5186 53.0474 72.0201 56.5506 72.0201 60.872Z" fill="#40596B"/>
<path d="M67.3406 60.8718C67.3406 62.608 65.9327 64.0141 64.1983 64.0141C62.4621 64.0141 61.0527 62.608 61.0527 60.8718C61.0527 59.1357 62.4606 57.7295 64.1983 57.7295C65.9327 57.728 67.3406 59.1358 67.3406 60.8718Z" fill="#ACB3BA"/>
<path d="M26.1063 60.872C26.1063 65.1934 22.6014 68.6966 18.2817 68.6966C13.9602 68.6966 10.457 65.1934 10.457 60.872C10.457 56.5506 13.9602 53.0474 18.2817 53.0474C22.6014 53.0474 26.1063 56.5506 26.1063 60.872Z" fill="#40596B"/>
<path d="M21.4239 60.8718C21.4239 62.608 20.0177 64.0141 18.2815 64.0141C16.5454 64.0141 15.1377 62.608 15.1377 60.8718C15.1377 59.1357 16.5456 57.7295 18.2815 57.7295C20.0175 57.7295 21.4239 59.1358 21.4239 60.8718Z" fill="#ACB3BA"/>
</g>
<defs>
<clipPath id="clip0_1563_51912">
<rect width="78.4" height="78.4" fill="white" transform="translate(0.299805 0.799805)"/>
</clipPath>
</defs>
</svg>
