<svg width="16" height="16" viewBox="0 0 16 16" fill="none" xmlns="http://www.w3.org/2000/svg">
<path d="M15.5155 7.86825L13.8977 5.629C13.6438 5.2775 13.2332 5.0675 12.7992 5.0675H10.3925V4.23875C10.3925 3.55575 9.83675 3 9.15375 3H2.40625C2.061 3 1.78125 3.27975 1.78125 3.625C1.78125 3.97025 2.061 4.25 2.40625 4.25L9.1425 4.23875V9.67425C9.1425 10.0195 9.42225 10.2992 9.7675 10.2992C10.1128 10.2992 10.3925 10.0195 10.3925 9.67425V6.3175H12.7992C12.833 6.3175 12.8647 6.33375 12.8845 6.361L14.5 8.5935L14.5115 10.8125H13.378C13.0573 10.52 12.6325 10.34 12.1652 10.34C11.1707 10.34 10.3617 11.149 10.3617 12.1435C10.3617 13.1383 11.1707 13.9473 12.1652 13.9473C13.16 13.9473 13.969 13.1383 13.969 12.1435C13.969 12.1163 13.966 12.0895 13.965 12.0625H14.5115C15.1943 12.0625 15.75 11.5068 15.75 10.824V8.5935C15.75 8.332 15.669 8.08125 15.5155 7.86825ZM12.1652 12.6975C11.86 12.6975 11.6117 12.4493 11.6117 12.1438C11.6117 11.8385 11.86 11.5903 12.1652 11.5903C12.4707 11.5903 12.719 11.8385 12.719 12.1438C12.719 12.449 12.4707 12.6975 12.1652 12.6975Z" fill="#0F9797"/>
<path d="M3.58475 10.3398C3.1175 10.3398 2.69275 10.5198 2.372 10.8123H0.625C0.27975 10.8123 0 11.0921 0 11.4373C0 11.7826 0.27975 12.0623 0.625 12.0623H1.78525C1.784 12.0893 1.78125 12.1161 1.78125 12.1433C1.78125 13.1381 2.59025 13.9471 3.58475 13.9471C4.57925 13.9471 5.38825 13.1381 5.38825 12.1433C5.38825 11.1488 4.579 10.3398 3.58475 10.3398ZM3.58475 12.6971C3.2795 12.6971 3.03125 12.4488 3.03125 12.1433C3.03125 11.8381 3.2795 11.5898 3.58475 11.5898C3.89 11.5898 4.13825 11.8381 4.13825 12.1433C4.13825 12.4486 3.89 12.6971 3.58475 12.6971Z" fill="#0F9797"/>
<path d="M9.17829 10.8125H6.57129C6.22604 10.8125 5.94629 11.0922 5.94629 11.4375C5.94629 11.7828 6.22604 12.0625 6.57129 12.0625H9.17829C9.52354 12.0625 9.80329 11.7828 9.80329 11.4375C9.80329 11.0922 9.52354 10.8125 9.17829 10.8125Z" fill="#0F9797"/>
<path d="M0.625 6.88672H5.23225C5.5775 6.88672 5.85725 6.60697 5.85725 6.26172C5.85725 5.91647 5.5775 5.63672 5.23225 5.63672H0.625C0.27975 5.63672 0 5.91647 0 6.26172C0 6.60697 0.27975 6.88672 0.625 6.88672Z" fill="#0F9797"/>
<path d="M1.75 8.75781C1.75 9.10281 2.02975 9.38281 2.375 9.38281H6.98225C7.3275 9.38281 7.60725 9.10281 7.60725 8.75781C7.60725 8.41256 7.3275 8.13281 6.98225 8.13281H2.375C2.02975 8.13281 1.75 8.41256 1.75 8.75781Z" fill="#0F9797"/>
</svg>
