<svg width="64" height="64" viewBox="0 0 64 64" fill="none" xmlns="http://www.w3.org/2000/svg">
<g opacity="0.5">
<path fill-rule="evenodd" clip-rule="evenodd" d="M57.2797 25.1558V37.0686C57.2797 37.0686 57.3303 48.8176 53.9965 54.4361C53.9123 54.5655 53.7703 54.6432 53.6175 54.6432C50.1561 54.646 29.6075 54.646 23.8624 54.646C23.7041 54.646 23.5576 54.5636 23.4753 54.428C23.3939 54.2932 23.3884 54.125 23.4617 53.9848C23.4653 53.9785 23.468 53.9712 23.4707 53.9649C25.5139 49.5384 26.2031 42.7513 26.4247 39.2809C26.441 39.0313 26.2511 38.8169 26.0023 38.8006C25.7536 38.7843 25.5383 38.9743 25.5221 39.223C25.3059 42.612 24.6493 49.2391 22.6576 53.5687C22.4405 53.9965 22.4586 54.4949 22.7019 54.8965C22.948 55.3026 23.3875 55.5504 23.8615 55.5504C29.6075 55.5504 50.157 55.5504 53.6175 55.5477C54.0815 55.5477 54.5129 55.3098 54.7616 54.9173C54.7634 54.9146 54.7662 54.911 54.768 54.9073C58.1986 49.1405 58.1841 37.0659 58.1841 37.0659V25.1558C58.1841 24.9062 57.9815 24.7036 57.7319 24.7036C57.4823 24.7036 57.2797 24.9062 57.2797 25.1558Z" fill="#CCCCCC"/>
<path fill-rule="evenodd" clip-rule="evenodd" d="M25.6235 12.0628V12.6678C25.6235 12.7004 25.6272 12.7321 25.6335 12.7628C25.6443 12.8162 25.6633 12.8605 25.6878 12.8994L25.6941 12.9111C25.7746 13.0369 25.9157 13.1201 26.0758 13.1201C26.0758 13.1201 26.528 13.083 26.528 12.6597V12.0628C26.528 11.8131 26.7306 11.6105 26.9802 11.6105H44.7141C44.9637 11.6105 45.1663 11.4079 45.1663 11.1583C45.1663 10.9087 44.9637 10.7061 44.7141 10.7061C44.7141 10.7061 30.7112 10.7061 26.9802 10.7061C26.2313 10.7061 25.6235 11.3139 25.6235 12.0628Z" fill="#CCCCCC"/>
<path fill-rule="evenodd" clip-rule="evenodd" d="M57.5654 23.0593C57.7445 23.1299 57.948 23.0792 58.0737 22.9345C58.1994 22.7889 58.2193 22.5809 58.1243 22.4135C55.5728 17.9536 52.0771 14.0834 47.6488 10.7957C47.4978 10.6835 47.2934 10.6763 47.1351 10.7776C46.9777 10.8789 46.8981 11.0679 46.937 11.2515C47.6036 14.4361 47.931 17.6588 47.6081 20.9537C47.5638 21.3689 47.7167 21.784 48.0215 22.0744C48.3272 22.3647 48.7496 22.4967 49.1656 22.4307C52.0662 21.983 54.8954 22.0047 57.5654 23.0593Z" fill="#2752E7"/>
<path fill-rule="evenodd" clip-rule="evenodd" d="M20.4174 15.8678C24.0497 14.6359 28.2301 15.4671 31.1235 18.3605C34.5234 21.7604 35.076 26.9366 32.7805 30.9136C32.7172 31.0239 32.7027 31.1551 32.7407 31.2763L34.1652 35.7923C34.1842 35.8538 34.168 35.9198 34.1227 35.965L34.0015 36.0862C33.9663 36.1206 33.9147 36.1333 33.8677 36.1188L29.3291 34.687C29.2079 34.649 29.0767 34.6635 28.9673 34.7268C24.9903 37.0223 19.8141 36.4706 16.4142 33.0707C12.355 29.0115 12.355 22.4197 16.4142 18.3605C16.5906 18.1841 16.5906 17.8974 16.4142 17.721C16.2369 17.5447 15.9511 17.5447 15.7738 17.721C11.3618 22.133 11.3618 29.2973 15.7738 33.7102C19.4206 37.3561 24.946 37.9892 29.2449 35.6087L33.5954 36.9816C33.9644 37.0974 34.3678 36.9988 34.641 36.7257L34.7622 36.6045C35.0462 36.3205 35.1484 35.9026 35.0272 35.5209L33.6624 31.1913C36.042 26.8932 35.4089 21.3669 31.763 17.721C28.6181 14.5762 24.075 13.6727 20.127 15.0113C19.891 15.0909 19.7634 15.3486 19.8439 15.5847C19.9244 15.8208 20.1813 15.9483 20.4174 15.8678Z" fill="#CCCCCC"/>
<path fill-rule="evenodd" clip-rule="evenodd" d="M21.8544 22.607C21.8345 21.745 22.1574 21.1155 22.6576 20.7465C23.4427 20.1676 24.6149 20.1921 25.2516 20.9093C25.5257 21.2177 25.6839 21.6537 25.6885 22.2054C25.6993 23.5286 25.0779 24.302 24.4711 25.1024C23.6534 26.1814 22.8367 27.2903 22.7354 29.1427C22.7082 29.641 23.0908 30.067 23.5892 30.0942C24.0876 30.1213 24.5145 29.7387 24.5416 29.2403C24.6185 27.8339 25.2914 27.0145 25.9128 26.195C26.7449 25.0979 27.5119 24.0035 27.4974 22.1909C27.4883 21.1255 27.1329 20.3033 26.6047 19.7082C25.3701 18.3189 23.1044 18.1688 21.584 19.2903C20.6723 19.9632 20.0093 21.0775 20.0464 22.6495C20.0582 23.1488 20.4724 23.5449 20.9717 23.5323C21.4709 23.5205 21.8662 23.1063 21.8544 22.607Z" fill="#2752E7"/>
<path d="M23.5539 33.4533C24.1683 33.4533 24.6664 32.9552 24.6664 32.3408C24.6664 31.7264 24.1683 31.2283 23.5539 31.2283C22.9395 31.2283 22.4414 31.7264 22.4414 32.3408C22.4414 32.9552 22.9395 33.4533 23.5539 33.4533Z" fill="#2752E7"/>
<path fill-rule="evenodd" clip-rule="evenodd" d="M12.7048 10.8752L16.3226 15.4265C16.6338 15.8172 17.2027 15.8823 17.5934 15.5721C17.9841 15.2619 18.0492 14.692 17.739 14.3013L14.1212 9.75004C13.81 9.35931 13.2411 9.29419 12.8504 9.60442C12.4596 9.91555 12.3945 10.4845 12.7048 10.8752Z" fill="#2752E7"/>
<path fill-rule="evenodd" clip-rule="evenodd" d="M3.01364 13.1391L12.4671 18.5659C12.8995 18.8146 13.453 18.6654 13.7017 18.2322C13.9504 17.7989 13.8003 17.2463 13.3671 16.9976L3.91449 11.5708C3.48125 11.322 2.92862 11.4713 2.6799 11.9045C2.43117 12.3378 2.5804 12.8904 3.01364 13.1391Z" fill="#2752E7"/>
<path fill-rule="evenodd" clip-rule="evenodd" d="M4.36833 23.2086H10.6996C11.1989 23.2086 11.6041 22.8034 11.6041 22.3041C11.6041 21.8049 11.1989 21.3997 10.6996 21.3997H4.36833C3.86907 21.3997 3.46387 21.8049 3.46387 22.3041C3.46387 22.8034 3.86907 23.2086 4.36833 23.2086Z" fill="#2752E7"/>
</g>
</svg>
