<svg width="12" height="14" viewBox="0 0 12 14" fill="none" xmlns="http://www.w3.org/2000/svg">
<path d="M9.5 4L11.2 1.73333C11.2743 1.63429 11.3195 1.51651 11.3306 1.3932C11.3418 1.2699 11.3183 1.14593 11.263 1.03519C11.2076 0.924454 11.1225 0.831323 11.0172 0.766233C10.9118 0.701143 10.7905 0.666667 10.6667 0.666667H2.66667C2.66667 0.489856 2.59643 0.320286 2.4714 0.195262C2.34638 0.0702379 2.17681 0 2 0C1.82319 0 1.65362 0.0702379 1.5286 0.195262C1.40357 0.320286 1.33333 0.489856 1.33333 0.666667V12H0.666667C0.489856 12 0.320287 12.0702 0.195262 12.1953C0.070238 12.3203 0 12.4899 0 12.6667C0 12.8435 0.070238 13.013 0.195262 13.1381C0.320287 13.2631 0.489856 13.3333 0.666667 13.3333H3.33333C3.51014 13.3333 3.67971 13.2631 3.80474 13.1381C3.92976 13.013 4 12.8435 4 12.6667C4 12.4899 3.92976 12.3203 3.80474 12.1953C3.67971 12.0702 3.51014 12 3.33333 12H2.66667V7.33333H10.6667C10.7905 7.33333 10.9118 7.29886 11.0172 7.23377C11.1225 7.16868 11.2076 7.07555 11.263 6.96481C11.3183 6.85407 11.3418 6.7301 11.3306 6.6068C11.3195 6.48349 11.2743 6.36571 11.2 6.26667L9.5 4ZM8.13333 4.4L9.33333 6H2.66667V2H9.33333L8.13333 3.6C8.04668 3.71535 7.99983 3.85573 7.99983 4C7.99983 4.14427 8.04668 4.28465 8.13333 4.4Z" fill="#0F9757"/>
</svg>
