<svg width="20" height="14" viewBox="0 0 20 14" fill="none" xmlns="http://www.w3.org/2000/svg">
<path fill-rule="evenodd" clip-rule="evenodd" d="M10.581 12.3741C10.5823 12.8747 10.5836 13.3754 10.5844 13.876V13.8764H11.9715C11.9737 13.5491 11.9759 13.2218 11.978 12.8944C11.9854 11.8008 11.9927 10.7069 11.9977 9.61311C11.9997 9.18598 11.9998 8.97565 12.0926 8.91997C12.183 8.86579 12.3611 8.95805 12.7144 9.1395C12.8886 9.22881 13.0653 9.31485 13.2459 9.38982C15.742 10.4227 18.618 9.24929 19.6228 6.79028C20.651 4.27309 19.513 1.43264 16.9907 0.382172C14.7316 -0.558907 12.7389 0.362507 11.1663 1.79277C11.0472 1.90093 11.0315 2.02056 11.1084 2.17788C11.3816 2.7363 11.6915 2.82152 12.159 2.43149C13.0624 1.67764 14.0664 1.12905 15.2612 1.18436C16.8185 1.25688 17.9915 2.03285 18.5593 3.51391C19.084 4.88231 18.9061 6.22326 17.9134 7.34993C16.8599 8.54502 15.5179 8.82771 14.0234 8.42457C13.0874 8.1722 12.3462 7.58755 11.6528 6.92343C11.0194 6.31682 10.4583 5.64407 9.89718 4.9714C9.32291 4.28293 8.74871 3.59454 8.09719 2.97721C7.35998 2.27867 6.55679 1.7055 5.54032 1.49778C3.62367 1.10652 1.84344 2.35037 1.45834 4.35994C1.12113 6.1196 2.40882 7.94522 4.22446 8.2906C5.66506 8.5651 6.76644 7.87967 7.81711 7.02176C8.15071 6.74931 8.0658 6.52971 7.81993 6.26627C7.80388 6.24908 7.78812 6.23189 7.77255 6.21493C7.56489 5.9886 7.39269 5.8009 7.05054 6.12943C6.54391 6.61616 5.94634 6.98038 5.24415 7.12091C3.97658 7.37492 2.75408 6.45883 2.60801 5.15189C2.45952 3.82365 3.42891 2.69984 4.7339 2.64003C5.76647 2.59291 6.53868 3.10258 7.24369 3.76424C7.88994 4.37071 8.4598 5.04784 9.02965 5.72496C9.41642 6.18454 9.80318 6.64411 10.2138 7.08158C10.481 7.36591 10.5828 7.6613 10.5808 8.0456C10.5736 9.48853 10.5773 10.9312 10.581 12.3741ZM8.53701 1.47812C7.46904 0.620618 6.31575 -0.0164648 4.80634 0.0310603C2.85991 0.0281924 1.11067 1.18969 0.368232 3.03825C-0.383859 4.90976 0.0277995 7.02586 1.49617 8.40081C3.78705 10.5456 6.69159 10.0671 8.86256 7.9698C8.96276 7.87311 8.97805 7.76536 8.9193 7.62852C8.65452 7.00988 8.31931 6.92302 7.80464 7.35116C6.88676 8.11484 5.88397 8.62532 4.64739 8.58066C2.87279 8.51675 1.29819 7.00291 1.20402 5.224C1.09578 3.1755 2.3887 1.50639 4.25706 1.24049C5.58418 1.05203 6.70286 1.5027 7.72496 2.30202C8.57406 2.96606 9.25733 3.78957 9.94029 4.61272C10.1144 4.82258 10.2885 5.03241 10.4653 5.23957C11.3277 6.24989 12.1985 7.24259 13.3856 7.88786C15.2036 8.87606 17.4036 8.19432 18.2522 6.36788C19.0896 4.5652 18.2812 2.42166 16.47 1.69649C14.8346 1.04179 13.4938 1.67723 12.2508 2.72156C11.9413 2.9813 11.9687 3.2009 12.2174 3.48605C12.4641 3.76916 12.6769 3.91173 13.0061 3.59503C13.396 3.22016 13.8532 2.9387 14.3654 2.76212C15.3179 2.43354 16.3674 2.71869 16.9319 3.45164C17.5227 4.21901 17.5762 5.33216 17.0611 6.13394C16.5215 6.97464 15.5505 7.34009 14.5385 7.09223C14.0431 6.97137 13.6194 6.71571 13.2137 6.41745C12.5882 5.95733 12.0897 5.3714 11.5914 4.7857C11.4752 4.64911 11.359 4.51253 11.2412 4.37756C11.0372 4.14387 10.8374 3.90628 10.6376 3.66871C9.98508 2.89294 9.33274 2.11733 8.53701 1.47812Z" fill="url(#paint0_linear_1060_58740)"/>
<defs>
<linearGradient id="paint0_linear_1060_58740" x1="0.0165323" y1="5.32929" x2="26.5968" y2="3.09682" gradientUnits="userSpaceOnUse">
<stop stop-color="#E80D8B"/>
<stop offset="0.45" stop-color="#E60E8B"/>
<stop offset="0.62" stop-color="#DF148E"/>
<stop offset="0.73" stop-color="#D31E93"/>
<stop offset="0.83" stop-color="#C22D9A"/>
<stop offset="0.91" stop-color="#AC40A4"/>
<stop offset="0.98" stop-color="#9257AF"/>
<stop offset="1" stop-color="#8761B4"/>
</linearGradient>
</defs>
</svg>
