<svg width="161" height="108" viewBox="0 0 161 108" fill="none" xmlns="http://www.w3.org/2000/svg">
<path d="M3.75438 104V99.807L0.359375 93.92H1.80838L4.38438 98.379L6.95338 93.92H8.40238L5.01438 99.807V104H3.75438ZM10.9773 104.21C10.226 104.21 9.57734 104.04 9.03134 103.699C8.49001 103.358 8.07234 102.887 7.77834 102.285C7.48434 101.683 7.33734 100.992 7.33734 100.213C7.33734 99.4197 7.48668 98.7243 7.78534 98.127C8.08401 97.5297 8.50634 97.0653 9.05234 96.734C9.59834 96.398 10.24 96.23 10.9773 96.23C11.7333 96.23 12.3843 96.4003 12.9303 96.741C13.4763 97.077 13.894 97.546 14.1833 98.148C14.4773 98.7453 14.6243 99.4337 14.6243 100.213C14.6243 101.002 14.4773 101.697 14.1833 102.299C13.8893 102.896 13.4693 103.365 12.9233 103.706C12.3773 104.042 11.7287 104.21 10.9773 104.21ZM10.9773 103.027C11.7613 103.027 12.3447 102.766 12.7273 102.243C13.11 101.72 13.3013 101.044 13.3013 100.213C13.3013 99.359 13.1077 98.68 12.7203 98.176C12.333 97.6673 11.752 97.413 10.9773 97.413C10.45 97.413 10.016 97.532 9.67534 97.77C9.33468 98.008 9.08034 98.337 8.91234 98.757C8.74434 99.177 8.66034 99.6623 8.66034 100.213C8.66034 101.062 8.85634 101.744 9.24834 102.257C9.64034 102.77 10.2167 103.027 10.9773 103.027ZM18.5355 104.196C18.0502 104.196 17.6325 104.119 17.2825 103.965C16.9372 103.811 16.6502 103.606 16.4215 103.349C16.1929 103.092 16.0132 102.808 15.8825 102.495C15.7519 102.182 15.6585 101.863 15.6025 101.536C15.5512 101.209 15.5255 100.904 15.5255 100.619V96.44H16.7855V100.227C16.7855 100.582 16.8182 100.925 16.8835 101.256C16.9489 101.587 17.0585 101.886 17.2125 102.152C17.3712 102.418 17.5812 102.628 17.8425 102.782C18.1085 102.936 18.4399 103.013 18.8365 103.013C19.1492 103.013 19.4339 102.959 19.6905 102.852C19.9472 102.745 20.1665 102.586 20.3485 102.376C20.5305 102.161 20.6705 101.891 20.7685 101.564C20.8665 101.237 20.9155 100.857 20.9155 100.423L21.7345 100.675C21.7345 101.403 21.6015 102.031 21.3355 102.558C21.0742 103.085 20.7032 103.491 20.2225 103.776C19.7465 104.056 19.1842 104.196 18.5355 104.196ZM21.0555 104V101.977H20.9155V96.44H22.1685V104H21.0555ZM23.6284 104V96.44H24.7414V98.267L24.5594 98.029C24.6481 97.7957 24.7624 97.581 24.9024 97.385C25.0471 97.189 25.2081 97.028 25.3854 96.902C25.5814 96.7433 25.8031 96.622 26.0504 96.538C26.2978 96.454 26.5498 96.405 26.8064 96.391C27.0631 96.3723 27.3034 96.3887 27.5274 96.44V97.609C27.2661 97.539 26.9791 97.5203 26.6664 97.553C26.3538 97.5857 26.0644 97.7 25.7984 97.896C25.5558 98.0687 25.3668 98.2787 25.2314 98.526C25.1008 98.7733 25.0098 99.0417 24.9584 99.331C24.9071 99.6157 24.8814 99.9073 24.8814 100.206V104H23.6284ZM33.8738 104.21C33.1225 104.21 32.4738 104.04 31.9278 103.699C31.3865 103.358 30.9688 102.887 30.6748 102.285C30.3808 101.683 30.2338 100.992 30.2338 100.213C30.2338 99.4197 30.3832 98.7243 30.6818 98.127C30.9805 97.5297 31.4028 97.0653 31.9488 96.734C32.4948 96.398 33.1365 96.23 33.8738 96.23C34.6298 96.23 35.2808 96.4003 35.8268 96.741C36.3728 97.077 36.7905 97.546 37.0798 98.148C37.3738 98.7453 37.5208 99.4337 37.5208 100.213C37.5208 101.002 37.3738 101.697 37.0798 102.299C36.7858 102.896 36.3658 103.365 35.8198 103.706C35.2738 104.042 34.6252 104.21 33.8738 104.21ZM33.8738 103.027C34.6578 103.027 35.2412 102.766 35.6238 102.243C36.0065 101.72 36.1978 101.044 36.1978 100.213C36.1978 99.359 36.0042 98.68 35.6168 98.176C35.2295 97.6673 34.6485 97.413 33.8738 97.413C33.3465 97.413 32.9125 97.532 32.5718 97.77C32.2312 98.008 31.9768 98.337 31.8088 98.757C31.6408 99.177 31.5568 99.6623 31.5568 100.213C31.5568 101.062 31.7528 101.744 32.1448 102.257C32.5368 102.77 33.1132 103.027 33.8738 103.027ZM38.562 104V96.44H39.675V98.267L39.493 98.029C39.5817 97.7957 39.696 97.581 39.836 97.385C39.9807 97.189 40.1417 97.028 40.319 96.902C40.515 96.7433 40.7367 96.622 40.984 96.538C41.2314 96.454 41.4834 96.405 41.74 96.391C41.9967 96.3723 42.237 96.3887 42.461 96.44V97.609C42.1997 97.539 41.9127 97.5203 41.6 97.553C41.2874 97.5857 40.998 97.7 40.732 97.896C40.4894 98.0687 40.3004 98.2787 40.165 98.526C40.0344 98.7733 39.9434 99.0417 39.892 99.331C39.8407 99.6157 39.815 99.9073 39.815 100.206V104H38.562ZM46.116 104.21C45.4113 104.21 44.807 104.035 44.303 103.685C43.799 103.33 43.4093 102.852 43.134 102.25C42.8633 101.648 42.728 100.969 42.728 100.213C42.728 99.457 42.8633 98.778 43.134 98.176C43.4093 97.574 43.799 97.1003 44.303 96.755C44.807 96.405 45.409 96.23 46.109 96.23C46.823 96.23 47.4226 96.4027 47.908 96.748C48.3933 97.0933 48.7596 97.567 49.007 98.169C49.259 98.771 49.385 99.4523 49.385 100.213C49.385 100.964 49.259 101.643 49.007 102.25C48.7596 102.852 48.3933 103.33 47.908 103.685C47.4226 104.035 46.8253 104.21 46.116 104.21ZM46.27 103.069C46.7786 103.069 47.1963 102.948 47.523 102.705C47.8496 102.458 48.09 102.119 48.244 101.69C48.4026 101.256 48.482 100.764 48.482 100.213C48.482 99.653 48.4026 99.1607 48.244 98.736C48.09 98.3067 47.852 97.973 47.53 97.735C47.208 97.4923 46.7996 97.371 46.305 97.371C45.7916 97.371 45.367 97.497 45.031 97.749C44.6996 98.001 44.4523 98.3417 44.289 98.771C44.1303 99.2003 44.051 99.681 44.051 100.213C44.051 100.75 44.1326 101.235 44.296 101.669C44.4593 102.098 44.7043 102.439 45.031 102.691C45.3623 102.943 45.7753 103.069 46.27 103.069ZM48.482 104V98.435H48.342V93.92H49.595V104H48.482ZM54.3322 104.21C53.5902 104.21 52.9415 104.047 52.3862 103.72C51.8355 103.389 51.4062 102.929 51.0982 102.341C50.7902 101.748 50.6362 101.058 50.6362 100.269C50.6362 99.443 50.7878 98.729 51.0912 98.127C51.3945 97.5203 51.8168 97.0537 52.3582 96.727C52.9042 96.3957 53.5435 96.23 54.2762 96.23C55.0368 96.23 55.6832 96.405 56.2152 96.755C56.7518 97.105 57.1532 97.6043 57.4192 98.253C57.6898 98.9017 57.8065 99.674 57.7692 100.57H56.5092V100.122C56.4952 99.1933 56.3062 98.5003 55.9422 98.043C55.5782 97.581 55.0368 97.35 54.3182 97.35C53.5482 97.35 52.9625 97.5973 52.5612 98.092C52.1598 98.5867 51.9592 99.296 51.9592 100.22C51.9592 101.111 52.1598 101.802 52.5612 102.292C52.9625 102.782 53.5342 103.027 54.2762 103.027C54.7755 103.027 55.2095 102.913 55.5782 102.684C55.9468 102.455 56.2362 102.126 56.4462 101.697L57.6432 102.11C57.3492 102.777 56.9058 103.295 56.3132 103.664C55.7252 104.028 55.0648 104.21 54.3322 104.21ZM51.5392 100.57V99.569H57.1252V100.57H51.5392ZM58.8277 104V96.44H59.9407V98.267L59.7587 98.029C59.8473 97.7957 59.9617 97.581 60.1017 97.385C60.2463 97.189 60.4073 97.028 60.5847 96.902C60.7807 96.7433 61.0023 96.622 61.2497 96.538C61.497 96.454 61.749 96.405 62.0057 96.391C62.2623 96.3723 62.5027 96.3887 62.7267 96.44V97.609C62.4653 97.539 62.1783 97.5203 61.8657 97.553C61.553 97.5857 61.2637 97.7 60.9977 97.896C60.755 98.0687 60.566 98.2787 60.4307 98.526C60.3 98.7733 60.209 99.0417 60.1577 99.331C60.1063 99.6157 60.0807 99.9073 60.0807 100.206V104H58.8277ZM65.993 104V93.71H67.239V104H65.993ZM68.9794 95.103V93.815H70.2254V95.103H68.9794ZM68.9794 104V96.44H70.2254V104H68.9794ZM74.6817 104.203C73.781 104.203 73.0414 104.007 72.4627 103.615C71.8887 103.218 71.5364 102.665 71.4057 101.956L72.6797 101.753C72.7824 102.164 73.018 102.49 73.3867 102.733C73.7554 102.971 74.2127 103.09 74.7587 103.09C75.2767 103.09 75.6827 102.983 75.9767 102.768C76.2707 102.553 76.4177 102.262 76.4177 101.893C76.4177 101.678 76.3687 101.506 76.2707 101.375C76.1727 101.24 75.9697 101.114 75.6617 100.997C75.3584 100.88 74.8987 100.74 74.2827 100.577C73.6154 100.4 73.0904 100.215 72.7077 100.024C72.325 99.8327 72.052 99.611 71.8887 99.359C71.7254 99.107 71.6437 98.8013 71.6437 98.442C71.6437 97.9987 71.765 97.6113 72.0077 97.28C72.2504 96.944 72.5887 96.685 73.0227 96.503C73.4614 96.321 73.97 96.23 74.5487 96.23C75.1227 96.23 75.636 96.321 76.0887 96.503C76.5414 96.685 76.9054 96.944 77.1807 97.28C77.4607 97.6113 77.6264 97.9987 77.6777 98.442L76.4037 98.673C76.343 98.267 76.147 97.9473 75.8157 97.714C75.489 97.4807 75.0667 97.357 74.5487 97.343C74.0587 97.3243 73.6597 97.4107 73.3517 97.602C73.0484 97.7933 72.8967 98.0523 72.8967 98.379C72.8967 98.561 72.9527 98.7173 73.0647 98.848C73.1814 98.9787 73.3937 99.1023 73.7017 99.219C74.0144 99.3357 74.467 99.4687 75.0597 99.618C75.727 99.786 76.252 99.9703 76.6347 100.171C77.022 100.367 77.2974 100.6 77.4607 100.871C77.624 101.137 77.7057 101.466 77.7057 101.858C77.7057 102.586 77.4374 103.16 76.9007 103.58C76.364 103.995 75.6244 104.203 74.6817 104.203ZM82.9705 104C82.5225 104.089 82.0792 104.124 81.6405 104.105C81.2065 104.091 80.8192 104.005 80.4785 103.846C80.1379 103.683 79.8789 103.431 79.7015 103.09C79.5522 102.791 79.4705 102.49 79.4565 102.187C79.4472 101.879 79.4425 101.531 79.4425 101.144V94.34H80.6885V101.088C80.6885 101.396 80.6909 101.66 80.6955 101.879C80.7049 102.098 80.7539 102.287 80.8425 102.446C81.0105 102.745 81.2765 102.92 81.6405 102.971C82.0092 103.022 82.4525 103.008 82.9705 102.929V104ZM77.9095 97.469V96.44H82.9705V97.469H77.9095ZM86.4481 95.103V93.815H87.6941V95.103H86.4481ZM86.4481 104V96.44H87.6941V104H86.4481ZM92.1505 104.203C91.2498 104.203 90.5101 104.007 89.9315 103.615C89.3575 103.218 89.0051 102.665 88.8745 101.956L90.1485 101.753C90.2511 102.164 90.4868 102.49 90.8555 102.733C91.2241 102.971 91.6815 103.09 92.2275 103.09C92.7455 103.09 93.1515 102.983 93.4455 102.768C93.7395 102.553 93.8865 102.262 93.8865 101.893C93.8865 101.678 93.8375 101.506 93.7395 101.375C93.6415 101.24 93.4385 101.114 93.1305 100.997C92.8271 100.88 92.3675 100.74 91.7515 100.577C91.0841 100.4 90.5591 100.215 90.1765 100.024C89.7938 99.8327 89.5208 99.611 89.3575 99.359C89.1941 99.107 89.1125 98.8013 89.1125 98.442C89.1125 97.9987 89.2338 97.6113 89.4765 97.28C89.7191 96.944 90.0575 96.685 90.4915 96.503C90.9301 96.321 91.4388 96.23 92.0175 96.23C92.5915 96.23 93.1048 96.321 93.5575 96.503C94.0101 96.685 94.3741 96.944 94.6495 97.28C94.9295 97.6113 95.0951 97.9987 95.1465 98.442L93.8725 98.673C93.8118 98.267 93.6158 97.9473 93.2845 97.714C92.9578 97.4807 92.5355 97.357 92.0175 97.343C91.5275 97.3243 91.1285 97.4107 90.8205 97.602C90.5171 97.7933 90.3655 98.0523 90.3655 98.379C90.3655 98.561 90.4215 98.7173 90.5335 98.848C90.6501 98.9787 90.8625 99.1023 91.1705 99.219C91.4831 99.3357 91.9358 99.4687 92.5285 99.618C93.1958 99.786 93.7208 99.9703 94.1035 100.171C94.4908 100.367 94.7661 100.6 94.9295 100.871C95.0928 101.137 95.1745 101.466 95.1745 101.858C95.1745 102.586 94.9061 103.16 94.3695 103.58C93.8328 103.995 93.0931 104.203 92.1505 104.203ZM101.377 104.203C100.476 104.203 99.7367 104.007 99.158 103.615C98.584 103.218 98.2317 102.665 98.101 101.956L99.375 101.753C99.4777 102.164 99.7133 102.49 100.082 102.733C100.451 102.971 100.908 103.09 101.454 103.09C101.972 103.09 102.378 102.983 102.672 102.768C102.966 102.553 103.113 102.262 103.113 101.893C103.113 101.678 103.064 101.506 102.966 101.375C102.868 101.24 102.665 101.114 102.357 100.997C102.054 100.88 101.594 100.74 100.978 100.577C100.311 100.4 99.7857 100.215 99.403 100.024C99.0203 99.8327 98.7473 99.611 98.584 99.359C98.4207 99.107 98.339 98.8013 98.339 98.442C98.339 97.9987 98.4603 97.6113 98.703 97.28C98.9457 96.944 99.284 96.685 99.718 96.503C100.157 96.321 100.665 96.23 101.244 96.23C101.818 96.23 102.331 96.321 102.784 96.503C103.237 96.685 103.601 96.944 103.876 97.28C104.156 97.6113 104.322 97.9987 104.373 98.442L103.099 98.673C103.038 98.267 102.842 97.9473 102.511 97.714C102.184 97.4807 101.762 97.357 101.244 97.343C100.754 97.3243 100.355 97.4107 100.047 97.602C99.7437 97.7933 99.592 98.0523 99.592 98.379C99.592 98.561 99.648 98.7173 99.76 98.848C99.8767 98.9787 100.089 99.1023 100.397 99.219C100.71 99.3357 101.162 99.4687 101.755 99.618C102.422 99.786 102.947 99.9703 103.33 100.171C103.717 100.367 103.993 100.6 104.156 100.871C104.319 101.137 104.401 101.466 104.401 101.858C104.401 102.586 104.133 103.16 103.596 103.58C103.059 103.995 102.32 104.203 101.377 104.203ZM109.666 104C109.218 104.089 108.775 104.124 108.336 104.105C107.902 104.091 107.515 104.005 107.174 103.846C106.833 103.683 106.574 103.431 106.397 103.09C106.248 102.791 106.166 102.49 106.152 102.187C106.143 101.879 106.138 101.531 106.138 101.144V94.34H107.384V101.088C107.384 101.396 107.386 101.66 107.391 101.879C107.4 102.098 107.449 102.287 107.538 102.446C107.706 102.745 107.972 102.92 108.336 102.971C108.705 103.022 109.148 103.008 109.666 102.929V104ZM104.605 97.469V96.44H109.666V97.469H104.605ZM110.841 95.103V93.815H112.087V95.103H110.841ZM110.841 104V96.44H112.087V104H110.841ZM113.827 104V93.71H115.073V104H113.827ZM116.813 104V93.71H118.059V104H116.813ZM125.238 104.21C124.496 104.21 123.848 104.047 123.292 103.72C122.742 103.389 122.312 102.929 122.004 102.341C121.696 101.748 121.542 101.058 121.542 100.269C121.542 99.443 121.694 98.729 121.997 98.127C122.301 97.5203 122.723 97.0537 123.264 96.727C123.81 96.3957 124.45 96.23 125.182 96.23C125.943 96.23 126.589 96.405 127.121 96.755C127.658 97.105 128.059 97.6043 128.325 98.253C128.596 98.9017 128.713 99.674 128.675 100.57H127.415V100.122C127.401 99.1933 127.212 98.5003 126.848 98.043C126.484 97.581 125.943 97.35 125.224 97.35C124.454 97.35 123.869 97.5973 123.467 98.092C123.066 98.5867 122.865 99.296 122.865 100.22C122.865 101.111 123.066 101.802 123.467 102.292C123.869 102.782 124.44 103.027 125.182 103.027C125.682 103.027 126.116 102.913 126.484 102.684C126.853 102.455 127.142 102.126 127.352 101.697L128.549 102.11C128.255 102.777 127.812 103.295 127.219 103.664C126.631 104.028 125.971 104.21 125.238 104.21ZM122.445 100.57V99.569H128.031V100.57H122.445ZM138.566 104L138.573 99.163C138.573 98.5983 138.421 98.1573 138.118 97.84C137.819 97.518 137.429 97.357 136.949 97.357C136.669 97.357 136.403 97.4223 136.151 97.553C135.899 97.679 135.693 97.8797 135.535 98.155C135.376 98.4257 135.297 98.7733 135.297 99.198L134.639 98.932C134.629 98.3953 134.739 97.9263 134.968 97.525C135.201 97.119 135.518 96.804 135.92 96.58C136.321 96.356 136.774 96.244 137.278 96.244C138.066 96.244 138.687 96.4843 139.14 96.965C139.592 97.441 139.819 98.0827 139.819 98.89L139.812 104H138.566ZM129.522 104V96.44H130.635V98.463H130.775V104H129.522ZM134.051 104L134.058 99.212C134.058 98.6333 133.908 98.1807 133.61 97.854C133.311 97.5227 132.914 97.357 132.42 97.357C131.93 97.357 131.533 97.525 131.23 97.861C130.926 98.197 130.775 98.6427 130.775 99.198L130.117 98.806C130.117 98.316 130.233 97.8773 130.467 97.49C130.7 97.1027 131.017 96.7993 131.419 96.58C131.82 96.356 132.275 96.244 132.784 96.244C133.292 96.244 133.736 96.3513 134.114 96.566C134.492 96.7807 134.783 97.0887 134.989 97.49C135.194 97.8867 135.297 98.3603 135.297 98.911L135.29 104H134.051ZM144.614 104.21C143.905 104.21 143.307 104.035 142.822 103.685C142.337 103.33 141.968 102.852 141.716 102.25C141.469 101.643 141.345 100.964 141.345 100.213C141.345 99.4523 141.469 98.771 141.716 98.169C141.968 97.567 142.337 97.0933 142.822 96.748C143.312 96.4027 143.912 96.23 144.621 96.23C145.321 96.23 145.923 96.405 146.427 96.755C146.936 97.1003 147.325 97.574 147.596 98.176C147.867 98.778 148.002 99.457 148.002 100.213C148.002 100.969 147.867 101.648 147.596 102.25C147.325 102.852 146.936 103.33 146.427 103.685C145.923 104.035 145.319 104.21 144.614 104.21ZM141.135 107.36V96.44H142.248V102.005H142.388V107.36H141.135ZM144.46 103.069C144.959 103.069 145.372 102.943 145.699 102.691C146.026 102.439 146.271 102.098 146.434 101.669C146.597 101.235 146.679 100.75 146.679 100.213C146.679 99.681 146.597 99.2003 146.434 98.771C146.275 98.3417 146.028 98.001 145.692 97.749C145.361 97.497 144.938 97.371 144.425 97.371C143.935 97.371 143.529 97.4923 143.207 97.735C142.885 97.973 142.645 98.3067 142.486 98.736C142.327 99.1607 142.248 99.653 142.248 100.213C142.248 100.764 142.325 101.256 142.479 101.69C142.638 102.119 142.88 102.458 143.207 102.705C143.534 102.948 143.951 103.069 144.46 103.069ZM153.258 104C152.81 104.089 152.366 104.124 151.928 104.105C151.494 104.091 151.106 104.005 150.766 103.846C150.425 103.683 150.166 103.431 149.989 103.09C149.839 102.791 149.758 102.49 149.744 102.187C149.734 101.879 149.73 101.531 149.73 101.144V94.34H150.976V101.088C150.976 101.396 150.978 101.66 150.983 101.879C150.992 102.098 151.041 102.287 151.13 102.446C151.298 102.745 151.564 102.92 151.928 102.971C152.296 103.022 152.74 103.008 153.258 102.929V104ZM148.197 97.469V96.44H153.258V97.469H148.197ZM155.137 107.36L156.6 103.384L156.621 104.56L153.317 96.44H154.626L157.216 102.971H156.768L159.197 96.44H160.464L156.348 107.36H155.137Z" fill="#C4C4C4"/>
<g clip-path="url(#clip0_1879_22770)">
<path d="M103.765 66.4854H57.1765V71.7795H103.765V66.4854Z" fill="#C4C4C4"/>
<path d="M88.8529 23.8677H72.5294C71.0674 23.8677 69.8823 25.0528 69.8823 26.5148C69.8823 27.9769 71.0674 29.162 72.5294 29.162H88.8529C90.315 29.162 91.5 27.9769 91.5 26.5148C91.5 25.0528 90.315 23.8677 88.8529 23.8677Z" fill="#C4C4C4"/>
<path d="M101.206 36.2206H72.5294C71.0674 36.2206 69.8823 37.4057 69.8823 38.8678C69.8823 40.3298 71.0674 41.5149 72.5294 41.5149H101.206C102.668 41.5149 103.853 40.3298 103.853 38.8678C103.853 37.4057 102.668 36.2206 101.206 36.2206Z" fill="#C4C4C4"/>
<path d="M115.44 0.542811C114.49 0.115733 113.379 0.284342 112.599 0.973405L105.186 7.53103L97.7648 0.894796C96.7597 -0.00436063 95.2404 -0.00436063 94.2353 0.894796L86.8236 7.52301L79.4109 0.894796C78.4059 -0.00436063 76.8874 -0.00436063 75.8824 0.894796L68.4609 7.53103L61.0483 0.973405C60.2692 0.285186 59.1574 0.116577 58.2071 0.542811C57.2577 0.970733 56.6471 1.91489 56.6471 2.95608V50.0737H47.6471C46.185 50.0736 45 51.2587 45 52.7207V59.1619C45 66.1192 50.6603 71.7795 57.6176 71.7795V66.4854C53.5791 66.4854 50.2941 63.1995 50.2941 59.1619V55.3679H91.7647V59.1619C91.7647 66.1192 97.425 71.7796 104.382 71.7796C111.34 71.7796 117 66.1193 117 59.1621V2.95594C117 1.91475 116.389 0.970733 115.44 0.542811ZM111.706 59.1619C111.706 63.1995 108.42 66.4854 104.382 66.4854C100.345 66.4854 97.059 63.1995 97.059 59.1619V52.7207C97.059 51.2587 95.8739 50.0736 94.4118 50.0736H61.9412V8.83153L66.7174 13.0572C67.7233 13.9466 69.2356 13.9421 70.2353 13.0475L77.6471 6.41925L85.0589 13.0466C86.0639 13.9458 87.5832 13.9458 88.5883 13.0466L96.0009 6.4184L103.413 13.0466C104.413 13.9413 105.926 13.9448 106.931 13.0563L111.706 8.83167V59.1619Z" fill="#C4C4C4"/>
</g>
<defs>
<clipPath id="clip0_1879_22770">
<rect width="72" height="72" fill="white" transform="translate(45)"/>
</clipPath>
</defs>
</svg>
