<svg width="16" height="16" viewBox="0 0 16 16" fill="none" xmlns="http://www.w3.org/2000/svg">
<path d="M13.4 15.8334H2.6C2.26667 15.8334 2 15.5668 2 15.2334V1.7001C2 1.36676 2.26667 1.1001 2.6 1.1001H13.4C13.7333 1.1001 14 1.36676 14 1.7001V15.2001C14 15.5668 13.7333 15.8334 13.4 15.8334ZM3.2 14.6001H12.7667V2.33343H3.2V14.6001Z" fill="#0F9757"/>
<path d="M5.19961 3.13341C4.86628 3.13341 4.59961 2.86675 4.59961 2.53341V0.766748C4.59961 0.433415 4.86628 0.166748 5.19961 0.166748C5.53294 0.166748 5.79961 0.433415 5.79961 0.766748V2.50008C5.79961 2.86675 5.53294 3.13341 5.19961 3.13341Z" fill="#0F9757"/>
<path d="M8.00039 3.13341C7.66706 3.13341 7.40039 2.86675 7.40039 2.53341V0.766748C7.40039 0.433415 7.66706 0.166748 8.00039 0.166748C8.33372 0.166748 8.60039 0.433415 8.60039 0.766748V2.50008C8.60039 2.86675 8.33372 3.13341 8.00039 3.13341Z" fill="#0F9757"/>
<path d="M10.7992 3.13341C10.4659 3.13341 10.1992 2.86675 10.1992 2.53341V0.766748C10.1992 0.433415 10.4659 0.166748 10.7992 0.166748C11.1326 0.166748 11.3992 0.433415 11.3992 0.766748V2.50008C11.4326 2.86675 11.1659 3.13341 10.7992 3.13341Z" fill="#0F9757"/>
<path d="M10.7996 7.23345H5.19961C4.86628 7.23345 4.59961 6.96678 4.59961 6.63345C4.59961 6.30011 4.86628 6.03345 5.19961 6.03345H10.8329C11.1663 6.03345 11.4329 6.30011 11.4329 6.63345C11.4329 6.96678 11.1663 7.23345 10.7996 7.23345Z" fill="#0F9757"/>
<path d="M10.7996 10.9334H5.19961C4.86628 10.9334 4.59961 10.6667 4.59961 10.3334C4.59961 10.0001 4.86628 9.7334 5.19961 9.7334H10.8329C11.1663 9.7334 11.4329 10.0001 11.4329 10.3334C11.4329 10.6334 11.1663 10.9334 10.7996 10.9334Z" fill="#0F9757"/>
</svg>
