<svg width="16" height="16" viewBox="0 0 16 16" fill="none" xmlns="http://www.w3.org/2000/svg">
<path d="M13.4 15.8349H2.6C2.26667 15.8349 2 15.5682 2 15.2349V1.70156C2 1.36823 2.26667 1.10156 2.6 1.10156H13.4C13.7333 1.10156 14 1.36823 14 1.70156V15.2016C14 15.5682 13.7333 15.8349 13.4 15.8349ZM3.2 14.6016H12.7667V2.3349H3.2V14.6016Z" fill="#545C6E"/>
<path d="M5.2001 3.13464C4.86676 3.13464 4.6001 2.86797 4.6001 2.53464V0.767969C4.6001 0.434635 4.86676 0.167969 5.2001 0.167969C5.53343 0.167969 5.8001 0.434635 5.8001 0.767969V2.5013C5.8001 2.86797 5.53343 3.13464 5.2001 3.13464Z" fill="#545C6E"/>
<path d="M7.9999 3.13464C7.66657 3.13464 7.3999 2.86797 7.3999 2.53464V0.767969C7.3999 0.434635 7.66657 0.167969 7.9999 0.167969C8.33324 0.167969 8.5999 0.434635 8.5999 0.767969V2.5013C8.5999 2.86797 8.33324 3.13464 7.9999 3.13464Z" fill="#545C6E"/>
<path d="M10.8002 3.13464C10.4669 3.13464 10.2002 2.86797 10.2002 2.53464V0.767969C10.2002 0.434635 10.4669 0.167969 10.8002 0.167969C11.1335 0.167969 11.4002 0.434635 11.4002 0.767969V2.5013C11.4335 2.86797 11.1669 3.13464 10.8002 3.13464Z" fill="#545C6E"/>
<path d="M10.8001 7.23516H5.2001C4.86676 7.23516 4.6001 6.96849 4.6001 6.63516C4.6001 6.30182 4.86676 6.03516 5.2001 6.03516H10.8334C11.1668 6.03516 11.4334 6.30182 11.4334 6.63516C11.4334 6.96849 11.1668 7.23516 10.8001 7.23516Z" fill="#545C6E"/>
<path d="M10.8001 10.9344H5.2001C4.86676 10.9344 4.6001 10.6677 4.6001 10.3344C4.6001 10.001 4.86676 9.73438 5.2001 9.73438H10.8334C11.1668 9.73438 11.4334 10.001 11.4334 10.3344C11.4334 10.6344 11.1668 10.9344 10.8001 10.9344Z" fill="#545C6E"/>
</svg>
