<svg width="16" height="16" viewBox="0 0 16 16" fill="none" xmlns="http://www.w3.org/2000/svg">
<path d="M15.6803 7.99995C15.6803 12.2347 12.235 15.6799 8.00031 15.6799C3.76559 15.6799 0.320312 12.2347 0.320312 7.99995C0.320312 7.73467 0.535032 7.51995 0.800312 7.51995C1.06559 7.51995 1.28031 7.73467 1.28031 7.99995C1.28031 11.7054 4.29487 14.7199 8.00031 14.7199C11.7058 14.7199 14.7203 11.7054 14.7203 7.99995C14.7203 4.29451 11.7058 1.27995 8.00031 1.27995C6.21423 1.27995 4.55615 1.97419 3.30879 3.19995H5.12031C5.38559 3.19995 5.60031 3.41467 5.60031 3.67995C5.60031 3.94523 5.38559 4.15995 5.12031 4.15995H2.24031C1.97503 4.15995 1.76031 3.94523 1.76031 3.67995V0.799946C1.76031 0.534666 1.97503 0.319946 2.24031 0.319946C2.50559 0.319946 2.72031 0.534666 2.72031 0.799946V2.43739C4.13647 1.08571 5.99727 0.319946 8.00031 0.319946C12.235 0.319946 15.6803 3.76523 15.6803 7.99995ZM12.3203 6.07995V10.3999C12.3203 10.6001 12.1962 10.7791 12.0091 10.8495L8.16911 12.2895C8.11471 12.3097 8.05743 12.3199 8.00031 12.3199C7.94319 12.3199 7.88591 12.3097 7.83151 12.2895L3.99151 10.8495C3.80447 10.7791 3.68031 10.6001 3.68031 10.3999V6.07995C3.68031 5.87979 3.80447 5.70075 3.99151 5.63035L7.83151 4.19035C7.94031 4.15003 8.06031 4.15003 8.16895 4.19035L12.009 5.63035C12.1962 5.70075 12.3203 5.87979 12.3203 6.07995ZM5.52719 6.07995L8.00031 7.00715L10.4734 6.07995L8.00031 5.15275L5.52719 6.07995ZM4.64031 10.0671L7.52031 11.1471V7.85275L4.64031 6.77275V10.0671ZM11.3603 10.0671V6.77275L8.48031 7.85275V11.1471L11.3603 10.0671Z" fill="#C01574"/>
</svg>
