<svg width="16" height="16" viewBox="0 0 16 16" fill="none" xmlns="http://www.w3.org/2000/svg">
<path d="M8.47156 2.86323C8.21123 2.60288 7.7891 2.60288 7.52876 2.86323L5.52876 4.86323C5.26841 5.12358 5.26841 5.54569 5.52876 5.80604C5.78911 6.06639 6.21122 6.06639 6.47157 5.80604L7.3335 4.94411V10.0013C7.3335 10.3695 7.63196 10.668 8.00016 10.668C8.36836 10.668 8.66683 10.3695 8.66683 10.0013V4.94411L9.52876 5.80604C9.7891 6.06639 10.2112 6.06639 10.4716 5.80604C10.7319 5.54569 10.7319 5.12358 10.4716 4.86323L8.47156 2.86323Z" fill="#EA9413"/>
<path d="M2.66667 9.33594C3.03485 9.33594 3.33333 9.6344 3.33333 10.0026V10.6693C3.33333 11.4344 3.90152 12.0026 4.66667 12.0026H11.3333C12.0985 12.0026 12.6667 11.4344 12.6667 10.6693V10.0026C12.6667 9.6344 12.9651 9.33594 13.3333 9.33594C13.7015 9.33594 14 9.6344 14 10.0026V10.6693C14 12.1708 12.8349 13.3359 11.3333 13.3359H4.66667C3.16515 13.3359 2 12.1708 2 10.6693V10.0026C2 9.6344 2.29848 9.33594 2.66667 9.33594Z" fill="#EA9413"/>
</svg>
