<svg width="16" height="16" viewBox="0 0 16 16" fill="none" xmlns="http://www.w3.org/2000/svg">
    <path d="M10.4003 6.3301L14.5239 6.61173L11.3247 9.42969C11.0453 9.67577 10.9258 10.0567 11.0144 10.4183L12.0549 14.6609L8.54569 12.3566L8.21637 12.8582L8.54569 12.3566C8.21248 12.1378 7.78114 12.1378 7.44793 12.3566L3.93874 14.6609L4.97926 10.4181C5.06788 10.0567 4.94856 9.67608 4.66954 9.42997L1.47453 6.61173L5.59343 6.33011C5.98194 6.30355 6.31968 6.05387 6.45902 5.69025L7.99681 1.6769L9.5346 5.69023C9.67394 6.05388 10.0117 6.30356 10.4003 6.3301ZM12.1761 15.1549C12.176 15.1548 12.176 15.1546 12.176 15.1545L12.1761 15.1549Z" stroke="#DCAC32" stroke-width="1.2"/>
</svg>