<svg width="16" height="16" viewBox="0 0 16 16" fill="none" xmlns="http://www.w3.org/2000/svg">
<path d="M8.66687 6.00036C8.66687 6.36855 8.36839 6.66703 8.0002 6.66703C7.63201 6.66703 7.33354 6.36855 7.33354 6.00036C7.33354 5.63217 7.63201 5.33369 8.0002 5.33369C8.36839 5.33369 8.66687 5.63217 8.66687 6.00036Z" fill="#F04C4B"/>
<path d="M8.0002 7.83369C8.27635 7.83369 8.5002 8.05755 8.5002 8.33369V11.667C8.5002 11.9432 8.27635 12.167 8.0002 12.167C7.72406 12.167 7.5002 11.9432 7.5002 11.667V8.33369C7.5002 8.05755 7.72406 7.83369 8.0002 7.83369Z" fill="#F04C4B"/>
<path fill-rule="evenodd" clip-rule="evenodd" d="M9.51377 2.66212C8.78579 1.59701 7.21459 1.597 6.48661 2.66211L6.19866 3.08341C4.39464 5.72289 2.84466 8.5273 1.56951 11.4591L1.50937 11.5974C1.05999 12.6305 1.7389 13.8037 2.8586 13.9288C6.27569 14.3107 9.72469 14.3107 13.1418 13.9288C14.2615 13.8037 14.9404 12.6305 14.491 11.5974L14.4309 11.4591C13.1557 8.5273 11.6057 5.72289 9.80172 3.08341L9.51377 2.66212ZM7.3122 3.22639C7.6431 2.74225 8.35728 2.74225 8.68818 3.22639L8.97613 3.64769C10.7445 6.23503 12.2639 8.98405 13.5139 11.8579L13.574 11.9962C13.7549 12.4122 13.4816 12.8846 13.0307 12.935C9.68744 13.3087 6.31294 13.3087 2.96967 12.935C2.51881 12.8846 2.24544 12.4122 2.42638 11.9962L2.48652 11.8579C3.73649 8.98406 5.25585 6.23503 7.02425 3.64768L7.3122 3.22639Z" fill="#F04C4B"/>
</svg>
