<svg width="188" height="36" viewBox="0 0 188 36" fill="none" xmlns="http://www.w3.org/2000/svg">
<path d="M60.9287 9.44982C59.6623 8.10027 57.9408 7.32141 56.1072 7.32141H43.5627C42.5487 7.32141 41.7603 8.18948 41.7603 9.24307C41.7603 10.2966 42.5487 11.1336 43.5627 11.1336H56.1072C57.8869 11.1336 59.3518 12.6899 59.3518 14.5804C59.3518 16.4709 57.8869 18.0003 56.1072 18.0003H43.5627C42.5487 18.0003 41.7603 18.8683 41.7603 19.9219V26.8198C41.7603 27.9002 42.5487 28.7372 43.5627 28.7372C44.5766 28.7372 45.3424 27.9002 45.3424 26.8198V21.8393H56.1072C57.9408 21.8393 59.6623 21.0605 60.9287 19.7109C62.2263 18.3302 62.9296 16.5303 62.9296 14.5818C62.9296 12.6332 62.2263 10.8334 60.9287 9.45265V9.44982Z" fill="#2752E7" fill-opacity="0.9"/>
<path d="M85.4278 7.32141C84.4138 7.32141 83.6254 8.18948 83.6254 9.24307V22.4086L69.0487 7.86095C68.5396 7.32141 67.7824 7.19963 67.1343 7.50126C66.4536 7.80289 66.0353 8.49111 66.0353 9.24307V26.8183C66.0353 27.8988 66.8507 28.7357 67.8377 28.7357C68.8247 28.7357 69.6131 27.8988 69.6131 26.8183V13.6486L84.1898 28.2274C84.5273 28.5559 84.9782 28.7357 85.4292 28.7357C85.6547 28.7357 85.9071 28.6777 86.1326 28.5871C86.7821 28.2854 87.2047 27.5972 87.2047 26.8183V9.24307C87.2047 8.18948 86.4162 7.32141 85.4292 7.32141H85.4278Z" fill="#2752E7" fill-opacity="0.9"/>
<path d="M108.517 22.917C107.22 24.2354 105.304 24.9279 102.961 24.9279H101.556C97.0137 24.9279 94.1704 22.2868 94.1704 18.03C94.1704 13.7732 97.0137 11.1322 101.556 11.1322H102.961C105.331 11.1322 107.247 11.8515 108.544 13.1699C109.252 13.9162 110.405 13.8893 111.081 13.1388C111.758 12.3868 111.758 11.1902 111.054 10.4383C109.08 8.40049 106.291 7.32001 102.961 7.32001H101.556C98.2262 7.32001 95.4368 8.40049 93.4628 10.4383C92.5339 11.4281 91.8008 12.5978 91.3229 13.9162C90.8407 15.1766 90.5883 16.5884 90.5883 18.0286C90.5883 19.4688 90.8407 20.8764 91.3229 22.1636C91.8008 23.4863 92.5354 24.656 93.4628 25.6147C95.4368 27.6524 98.2262 28.7329 101.556 28.7329H102.961C106.26 28.7329 109.026 27.685 110.996 25.6727C111.731 24.9264 111.731 23.7242 111.054 22.9722C110.378 22.1934 109.252 22.1934 108.517 22.9142V22.917Z" fill="#2752E7" fill-opacity="0.9"/>
<path d="M161.544 24.9292H159.458L156.584 21.6C157.769 21.2984 158.868 20.6413 159.743 19.7095C161.037 18.3288 161.744 16.5289 161.744 14.5804C161.744 12.6318 161.037 10.8319 159.743 9.45122C158.446 8.10167 156.751 7.32281 154.922 7.32281H142.35C141.363 7.32281 140.57 8.19089 140.57 9.24447C140.57 10.2981 141.363 11.135 142.35 11.135H154.922C156.697 11.135 158.162 12.6913 158.162 14.5818C158.162 16.4723 156.697 18.0017 154.922 18.0017H142.35C141.363 18.0017 140.57 18.8697 140.57 19.9233V26.8212C140.57 27.9016 141.363 28.7386 142.35 28.7386C143.337 28.7386 144.153 27.9016 144.153 26.8212V21.8407H151.876L157.345 28.141C157.683 28.5318 158.161 28.74 158.67 28.74H161.544C162.531 28.74 163.347 27.9031 163.347 26.8226C163.347 25.7421 162.531 24.9321 161.544 24.9321V24.9292Z" fill="#2752E7" fill-opacity="0.9"/>
<path d="M185.619 9.44982C184.349 8.10027 182.631 7.32141 180.798 7.32141H168.253C167.239 7.32141 166.451 8.18948 166.451 9.24307C166.451 10.2966 167.239 11.1336 168.253 11.1336H180.798C182.573 11.1336 184.042 12.6899 184.042 14.5804C184.042 16.4709 182.573 18.0003 180.798 18.0003H168.253C167.239 18.0003 166.451 18.8683 166.451 19.9219V26.8198C166.451 27.9002 167.239 28.7372 168.253 28.7372C169.267 28.7372 170.029 27.9002 170.029 26.8198V21.8393H180.798C182.631 21.8393 184.349 21.0605 185.619 19.7109C186.917 18.3302 187.62 16.5303 187.62 14.5818C187.62 12.6332 186.917 10.8334 185.619 9.45265V9.44982Z" fill="#2752E7" fill-opacity="0.9"/>
<path d="M125.798 7.32141C119.354 7.32141 114.127 12.1135 114.127 18.03C114.127 23.9465 119.354 28.7343 125.798 28.7343C132.242 28.7343 137.469 23.9422 137.469 18.03C137.469 12.1178 132.246 7.32141 125.798 7.32141ZM125.798 24.9293C121.649 24.9293 118.278 21.8379 118.278 18.0314C118.278 14.2249 121.649 11.1336 125.798 11.1336C129.948 11.1336 133.318 14.2207 133.318 18.0314C133.318 21.8421 129.952 24.9293 125.798 24.9293Z" fill="#2752E7" fill-opacity="0.9"/>
<path d="M33.5934 9C32.0126 6.26724 29.7324 3.98736 27 2.41128C24.354 0.87732 21.2792 0 18 0C14.7208 0 11.6456 0.87732 9 2.41128C6.26724 3.98736 3.98736 6.26724 2.41128 9C0.87732 11.6456 0 14.7208 0 18C0 21.2792 0.87732 24.3544 2.41128 27C3.98736 29.7328 6.26724 32.0126 9 33.5934C11.6456 35.1252 14.7208 36 18 36C21.2792 36 24.354 35.1252 27 33.5934C29.7328 32.0126 32.0126 29.7324 33.5934 27C35.1252 24.3544 36 21.2792 36 18C36 14.7208 35.1252 11.6456 33.5934 9ZM23.58 27.666C21.938 28.616 20.0333 29.16 18 29.16C15.9667 29.16 14.0616 28.6157 12.42 27.666C10.724 26.6879 9.31212 25.276 8.334 23.58C7.38396 21.938 6.84 20.0336 6.84 18C6.84 15.9664 7.38432 14.0616 8.334 12.42C9.31212 10.724 10.724 9.31212 12.42 8.334C14.062 7.38396 15.9664 6.84 18 6.84C20.0336 6.84 21.9384 7.38432 23.58 8.334C25.276 9.31212 26.6879 10.724 27.666 12.42C28.616 14.062 29.16 15.9664 29.16 18C29.16 20.0336 28.6157 21.9384 27.666 23.58C26.6879 25.276 25.276 26.6879 23.58 27.666Z" fill="url(#paint0_linear_66_189)"/>
<path d="M14.5428 23.9959C13.4917 23.3857 12.6168 22.5109 12.0119 21.4598C11.4196 20.4429 11.083 19.2602 11.083 18.0004H0.00256348C0.00256348 18.1353 0.00442718 18.2702 0.00815458 18.4055C0.00815458 18.4633 0.0100183 18.5207 0.011882 18.5766C0.0189641 18.807 0.0316372 19.0373 0.0476651 19.2658C0.0513925 19.3251 0.0547471 19.3847 0.0603382 19.444C0.069284 19.57 0.0819572 19.696 0.0946303 19.8219C0.10544 19.9334 0.118113 20.0452 0.130413 20.1548C0.141223 20.2431 0.152032 20.3311 0.164706 20.4176C0.19527 20.6442 0.229562 20.8693 0.267209 21.0945C0.278019 21.1537 0.288828 21.2115 0.299637 21.2708C0.341012 21.4993 0.387604 21.7281 0.438297 21.9548C0.454697 22.0267 0.470725 22.0972 0.488617 22.1691C0.488617 22.1743 0.490481 22.1818 0.494208 22.1888C0.517691 22.2932 0.542664 22.3957 0.569874 22.5001C0.598575 22.6063 0.625413 22.7125 0.654486 22.8169C0.670514 22.8743 0.686915 22.9321 0.702943 22.9899C0.70667 22.9988 0.710025 23.0096 0.711888 23.0204C0.74618 23.1319 0.778236 23.2437 0.812528 23.3533C0.84682 23.4632 0.882603 23.571 0.916896 23.6772C0.936651 23.7365 0.956406 23.7961 0.976161 23.8535L1.07345 24.129C1.0932 24.183 1.11482 24.2371 1.13458 24.2926C1.14725 24.3288 1.16179 24.3645 1.17595 24.4007C1.21024 24.4905 1.24453 24.5807 1.28032 24.6706C1.31647 24.7604 1.35226 24.8487 1.39028 24.9389C1.39736 24.9535 1.40295 24.9676 1.40817 24.984C1.4406 25.0578 1.47302 25.1316 1.50359 25.2036C1.77532 25.8208 2.07947 26.4202 2.41419 26.9998C2.47532 27.106 2.53832 27.2123 2.60131 27.3185C2.65685 27.4083 2.71127 27.4985 2.76867 27.5869C2.84247 27.7058 2.92 27.8243 2.99716 27.9413C3.06537 28.0439 3.13396 28.1467 3.20403 28.2474C3.31548 28.4076 3.43103 28.5679 3.5477 28.726C3.6051 28.8035 3.66287 28.8807 3.72065 28.9563C3.72251 28.9582 3.72438 28.96 3.72624 28.9615C3.78551 29.0391 3.84514 29.1162 3.90627 29.1919C3.9674 29.2694 4.02853 29.3447 4.08966 29.4204C4.10755 29.4401 4.12395 29.4599 4.13849 29.4796C4.16533 29.5121 4.19254 29.5426 4.21751 29.5751C4.30921 29.6832 4.40314 29.7909 4.49856 29.8971C4.52726 29.9314 4.56155 29.9657 4.59025 29.9996C4.63871 30.0518 4.68567 30.1059 4.73264 30.158C4.7632 30.1942 4.79749 30.2281 4.82992 30.2643C4.84446 30.2803 4.86049 30.2967 4.87652 30.3127C5.00809 30.4532 5.1393 30.5915 5.27423 30.7268C5.37151 30.8241 5.4688 30.9195 5.56944 31.015C5.64138 31.0836 5.71518 31.1518 5.78898 31.2185C5.87248 31.2953 5.95597 31.3717 6.03909 31.4466C6.03984 31.4473 6.04058 31.4481 6.04133 31.4488C6.04543 31.4526 6.04916 31.4563 6.05326 31.4596C6.10917 31.51 6.16471 31.5603 6.22248 31.6091C6.30337 31.6811 6.38649 31.7511 6.4711 31.8216C6.49085 31.8372 6.51061 31.8544 6.53036 31.8712C6.54714 31.8849 6.56354 31.8984 6.58068 31.9114C6.69959 32.0106 6.81998 32.106 6.94262 32.201C7.02909 32.2696 7.11557 32.336 7.20353 32.4008C7.21248 32.4079 7.22329 32.4154 7.23223 32.4224C7.2792 32.4567 7.32579 32.4925 7.37276 32.5268C7.41935 32.5611 7.46818 32.5969 7.51514 32.6293C7.55279 32.6561 7.59081 32.6834 7.62846 32.7102C7.68064 32.7478 7.73096 32.784 7.78315 32.8183C7.83347 32.8544 7.88565 32.8884 7.93783 32.9245C8.03847 32.9931 8.14135 33.0613 8.24572 33.128C8.2979 33.1623 8.35008 33.1948 8.40227 33.2287C8.49061 33.2846 8.58044 33.3386 8.66878 33.3942C8.77873 33.4609 8.89018 33.5272 9.00163 33.5902C9.01431 33.5973 9.02884 33.6048 9.04114 33.6137C9.16713 33.6857 9.29312 33.7557 9.42097 33.8262C9.44818 33.8407 9.47501 33.8549 9.50185 33.8694C9.58646 33.9145 9.67107 33.9592 9.75569 34.0043H9.75755C9.79371 34.0222 9.82949 34.0405 9.86564 34.0603C9.95361 34.1054 10.042 34.1486 10.1322 34.1918C10.1951 34.2224 10.26 34.253 10.323 34.2854C10.3931 34.3178 10.4635 34.3502 10.5336 34.3827C10.5876 34.4062 10.6417 34.4311 10.6957 34.4546C10.7677 34.487 10.8396 34.5195 10.9134 34.55C10.9619 34.5717 11.0122 34.5933 11.0629 34.613C11.0685 34.6149 11.0737 34.6168 11.0789 34.6182C11.1292 34.6399 11.1814 34.6615 11.2321 34.6831C11.2466 34.6883 11.2608 34.6958 11.2772 34.701C11.3186 34.717 11.36 34.7334 11.4013 34.7495C11.4681 34.7763 11.5344 34.8016 11.6011 34.8285C11.6712 34.8538 11.7416 34.8807 11.8117 34.906C11.8333 34.9131 11.8531 34.922 11.8729 34.9295C11.9396 34.953 12.0044 34.9764 12.0689 34.9981C12.0961 35.007 12.1211 35.016 12.1483 35.0249C12.2057 35.0465 12.2653 35.0663 12.3246 35.0842C12.4308 35.1203 12.5389 35.1561 12.6485 35.1885C12.6612 35.1923 12.672 35.1956 12.6843 35.1993C12.7797 35.2299 12.877 35.2586 12.9724 35.2858C12.9762 35.2877 12.978 35.2896 12.9814 35.2896C12.9922 35.2933 13.003 35.2948 13.0119 35.2985C13.0693 35.3145 13.1271 35.3309 13.1849 35.347C13.2893 35.3775 13.3955 35.4047 13.5017 35.4316C13.5163 35.4353 13.5323 35.4386 13.5487 35.4442C13.6367 35.4659 13.725 35.4875 13.8133 35.5072C13.8204 35.511 13.8275 35.5124 13.8331 35.5124C13.8674 35.5214 13.9013 35.5285 13.9356 35.5378C13.9732 35.5467 14.0094 35.5538 14.047 35.5631C14.1425 35.5848 14.236 35.6045 14.3314 35.6243C14.3818 35.6351 14.4321 35.6459 14.4828 35.6548C14.5871 35.6765 14.6934 35.6962 14.7977 35.7141C14.8212 35.7178 14.8462 35.723 14.8697 35.7268C15.0352 35.7573 15.2011 35.7827 15.3665 35.8058C15.4601 35.8203 15.5537 35.8345 15.6472 35.8453C15.7065 35.8524 15.7661 35.8613 15.8273 35.8669C15.9443 35.883 16.0613 35.8956 16.1802 35.9064C16.3044 35.9191 16.4303 35.9318 16.5582 35.9407C16.6175 35.9459 16.679 35.9497 16.7401 35.9534C16.7591 35.9549 16.7785 35.956 16.7975 35.9575V24.8126C15.9887 24.6706 15.2275 24.3888 14.542 23.9944L14.5428 23.9959Z" fill="url(#paint1_linear_66_189)"/>
<path d="M16.6164 0.0548005C16.3193 0.0764194 16.026 0.10512 15.7345 0.14314C15.7147 0.145004 15.6968 0.146867 15.6786 0.150222C15.5381 0.169977 15.3979 0.187869 15.2592 0.209488C15.1116 0.23297 14.9622 0.256453 14.8146 0.28329C14.667 0.310128 14.5194 0.337338 14.3736 0.367902C14.2279 0.398467 14.0821 0.429032 13.936 0.463324C13.6464 0.530044 13.3583 0.603847 13.0739 0.684732C12.9497 0.720887 12.8238 0.75667 12.7011 0.79469C12.6918 0.797672 12.6825 0.800654 12.6732 0.803263C12.6646 0.806245 12.6564 0.809227 12.6486 0.812582C12.5856 0.830473 12.5244 0.850228 12.4615 0.871847C12.4488 0.873711 12.4361 0.878929 12.4238 0.882657C12.3735 0.898685 12.3247 0.915085 12.2743 0.932977C12.2583 0.938195 12.2419 0.943786 12.2274 0.947513C12.2184 0.951241 12.2095 0.954596 12.2005 0.956459C12.1826 0.963541 12.1648 0.969132 12.1484 0.974351C12.035 1.01386 11.9232 1.05337 11.8118 1.09512C11.675 1.14544 11.5382 1.19762 11.4014 1.25167C11.2881 1.29491 11.1748 1.3415 11.0629 1.38847C10.9746 1.42611 10.8866 1.46413 10.7983 1.50178C10.7804 1.50886 10.7621 1.51632 10.7461 1.52526C10.7103 1.54054 10.6749 1.5562 10.6395 1.57223C10.6041 1.58825 10.5691 1.60428 10.5336 1.62068C10.4453 1.66019 10.3588 1.70157 10.2709 1.74294C10.1844 1.78432 10.0998 1.82569 10.0133 1.86893C9.92682 1.91217 9.84221 1.9554 9.7576 1.99864C9.67112 2.04374 9.58651 2.08698 9.5019 2.13357C9.42288 2.17495 9.34348 2.22005 9.26409 2.26329C9.25328 2.27037 9.24247 2.27596 9.23166 2.28118C9.15413 2.32442 9.07697 2.36765 9.00131 2.41276C8.91669 2.46121 8.83022 2.5119 8.74561 2.56222C8.66099 2.61254 8.57825 2.66473 8.49363 2.71691C8.32627 2.82128 8.16264 2.92751 7.99864 3.03747C7.99342 3.0412 7.98969 3.04455 7.9841 3.04641C7.93005 3.08406 7.87414 3.12022 7.82047 3.15786C7.71796 3.22794 7.61322 3.30025 7.51258 3.37219C7.41716 3.44077 7.32547 3.50898 7.23154 3.57906C7.22632 3.58279 7.22073 3.58614 7.21551 3.59173C7.17041 3.62603 7.12381 3.66032 7.07871 3.69424C7.06604 3.70318 7.05337 3.71399 7.04107 3.72294H7.0392C7.00677 3.74978 6.97434 3.77512 6.94192 3.80047C6.92402 3.81501 6.90613 3.82731 6.88787 3.84184C6.7835 3.92273 6.681 4.00548 6.57999 4.0886C6.57626 4.09232 6.5729 4.09381 6.57104 4.09568C6.56396 4.10276 6.5565 4.10835 6.55128 4.11171C6.54048 4.12065 6.52967 4.1296 6.52072 4.13854C6.4704 4.17992 6.42008 4.22129 6.36939 4.26453C6.3638 4.26826 6.35858 4.27161 6.35299 4.2772H6.35112C6.3295 4.29696 6.30789 4.31671 6.28627 4.33498C6.26465 4.35287 6.24303 4.37262 6.22141 4.39275L6.1081 4.49004C6.0451 4.54595 5.98584 4.6 5.92434 4.65553C5.90085 4.67529 5.87774 4.69504 5.85612 4.71666C5.80208 4.76512 5.74803 4.81581 5.69585 4.86427H5.69398C5.65596 4.90042 5.61832 4.93621 5.58253 4.97236C5.47816 5.07151 5.37566 5.17029 5.27279 5.27279V5.27466C5.24595 5.30149 5.21874 5.3287 5.1919 5.3574C5.1181 5.43307 5.0443 5.50874 4.97049 5.58403C4.88774 5.67051 4.805 5.75847 4.72374 5.84868C4.69317 5.87924 4.66447 5.91167 4.63726 5.9441C4.55265 6.03579 4.47177 6.12935 4.39051 6.22291C4.30962 6.31646 4.22837 6.41002 4.14935 6.50544C4.13667 6.51998 4.124 6.53601 4.10984 6.55241C4.02 6.66386 3.9298 6.77568 3.83997 6.88899C3.82208 6.91248 3.80232 6.93745 3.78257 6.9628C3.64205 7.14283 3.50525 7.32622 3.37218 7.51371C3.35243 7.54241 3.33081 7.57148 3.30919 7.60018C3.29652 7.61994 3.28235 7.64156 3.26595 7.66131C3.25328 7.68107 3.23911 7.70082 3.22644 7.72058C3.21041 7.7422 3.19588 7.76382 3.18134 7.78357C3.10045 7.89875 3.02292 8.01765 2.94577 8.13618C2.86824 8.25322 2.79108 8.37362 2.71728 8.49252C2.66509 8.57714 2.61291 8.65988 2.56259 8.7445C2.51227 8.82911 2.46158 8.91558 2.41312 9.0002C2.26924 9.24844 2.13245 9.50041 1.99901 9.75425C1.99901 9.75611 1.99714 9.75611 1.99714 9.75611C1.95577 9.84072 1.91253 9.9272 1.86929 10.0118C1.74144 10.2694 1.61918 10.5322 1.50214 10.7964C1.46599 10.8792 1.4302 10.9638 1.39405 11.0465C1.39219 11.0518 1.39032 11.0555 1.38846 11.0611C1.34187 11.1744 1.2949 11.2877 1.2498 11.4014C1.22259 11.4715 1.19575 11.54 1.1704 11.6101C1.1596 11.637 1.15065 11.6623 1.13984 11.6877C1.12903 11.7164 1.11822 11.7454 1.10741 11.7723C1.10182 11.7849 1.09847 11.7991 1.09287 11.8118C1.05336 11.9232 1.01385 12.035 0.97397 12.1465C0.948624 12.2203 0.923651 12.2941 0.900168 12.3679C0.867739 12.4685 0.835311 12.5714 0.802883 12.6721C0.770454 12.7746 0.73989 12.8774 0.709325 12.9799C0.694788 13.034 0.67876 13.088 0.664223 13.1421C0.629931 13.261 0.599366 13.3814 0.566938 13.5022C0.538237 13.6121 0.511027 13.7217 0.486053 13.8317C0.471517 13.8946 0.457352 13.9558 0.442816 14.0169C0.419333 14.1161 0.397714 14.2148 0.377959 14.3158C0.349258 14.4545 0.322048 14.5947 0.29521 14.7352C0.284401 14.793 0.275455 14.8485 0.264646 14.9063C0.226999 15.1314 0.192707 15.3562 0.162142 15.5832C0.149469 15.6659 0.138659 15.7487 0.129714 15.8333C0.115177 15.9484 0.102876 16.0636 0.0920669 16.1788C0.07753 16.3067 0.0667205 16.4364 0.0577748 16.5657C0.0521837 16.6198 0.048829 16.6719 0.0451016 16.726C0.0290737 16.9582 0.0164006 17.1904 0.00931851 17.4245C0.00745481 17.4804 0.00559111 17.5378 0.00559111 17.5956C0.0018637 17.7305 0 17.8655 0 18.0008H11.0831C11.0831 16.7409 11.4196 15.5601 12.0119 14.5414C12.6165 13.4902 13.4917 12.6154 14.5428 12.0104C15.2283 11.6124 15.9891 11.3298 16.7983 11.1871V0.0413818C16.7375 0.045482 16.6771 0.0499549 16.6164 0.0548005Z" fill="url(#paint2_linear_66_189)"/>
<path d="M33.5917 27.0002L27.6681 23.5803L23.9962 21.4598C23.386 22.5109 22.5112 23.3857 21.4619 23.9959C20.4432 24.5807 19.2605 24.9192 18.0025 24.9192C17.5918 24.9192 17.1896 24.8827 16.7982 24.8141V35.959C17.0043 35.9743 17.2116 35.984 17.4192 35.9892C17.4785 35.9929 17.5381 35.9944 17.5992 35.9944C17.7323 35.9981 17.8657 36 17.9988 36H18.0022C18.139 36 18.2739 35.9981 18.4088 35.9944C18.4629 35.9944 18.5169 35.9925 18.571 35.9907C18.8606 35.9817 19.1469 35.9653 19.4313 35.9437C19.5625 35.9329 19.6922 35.9221 19.8219 35.9076H19.8238C19.8293 35.9076 19.8346 35.9076 19.8398 35.9057C19.955 35.8949 20.0686 35.8822 20.182 35.8681C20.2069 35.8643 20.2323 35.8628 20.2576 35.8591C20.3117 35.852 20.3657 35.8446 20.4198 35.8375C20.479 35.8304 20.5387 35.8215 20.5979 35.8121C20.7347 35.7943 20.8715 35.7726 21.0083 35.7492C21.0262 35.7473 21.0426 35.7436 21.0605 35.7402C21.1019 35.7346 21.1451 35.7257 21.1865 35.7186C21.3233 35.6951 21.4582 35.6683 21.5931 35.6411C21.6058 35.6392 21.6185 35.6355 21.6308 35.634C21.7605 35.6071 21.8884 35.5781 22.0158 35.5494C22.0319 35.5456 22.0483 35.5423 22.0643 35.5386C22.0803 35.5348 22.0949 35.5315 22.1109 35.5277C22.1306 35.524 22.1504 35.5188 22.1702 35.5132C22.2656 35.4916 22.361 35.4681 22.4546 35.4446C22.4691 35.4394 22.4833 35.4357 22.4978 35.4319C22.5157 35.4282 22.5354 35.423 22.5533 35.4174C22.6018 35.4047 22.6506 35.3906 22.6991 35.3779C22.7334 35.369 22.7677 35.3581 22.7997 35.3511C22.834 35.3421 22.8679 35.3332 22.9022 35.3224C22.9149 35.3205 22.9257 35.3186 22.938 35.3134C22.9633 35.3063 22.9883 35.2989 23.0137 35.2918C23.0983 35.2683 23.181 35.2433 23.2656 35.2161C23.291 35.2091 23.3141 35.2016 23.3394 35.1926C23.3789 35.1818 23.417 35.1692 23.4565 35.1565C23.4744 35.1509 23.4926 35.1457 23.5105 35.1386C23.5862 35.1151 23.6619 35.0901 23.7372 35.0648C23.748 35.0611 23.7606 35.0577 23.7714 35.054C23.8001 35.045 23.8274 35.0361 23.8542 35.0253C23.9459 34.9947 24.038 34.9623 24.1296 34.9299C24.1349 34.928 24.1405 34.9261 24.1457 34.9228C24.2303 34.8922 24.3168 34.8617 24.4014 34.8292C24.502 34.7897 24.603 34.7502 24.7037 34.7103C24.8043 34.6689 24.9053 34.6276 25.0041 34.5843C25.139 34.5284 25.2725 34.4692 25.4055 34.4099C25.4272 34.4009 25.4469 34.392 25.4685 34.3831C25.58 34.3309 25.6918 34.2787 25.8014 34.2246C25.933 34.1616 26.0623 34.0968 26.192 34.0301C26.2099 34.023 26.2278 34.014 26.2442 34.0047C26.2908 33.9812 26.3378 33.9563 26.3847 33.9291C26.4496 33.8966 26.5144 33.8623 26.5774 33.8266C26.6404 33.7923 26.7053 33.7565 26.7683 33.7222C26.8313 33.686 26.8943 33.6502 26.9573 33.6141C26.9718 33.607 26.986 33.5996 27.0005 33.5906C27.0184 33.5798 27.0366 33.569 27.0527 33.5582C27.0691 33.5474 27.087 33.5366 27.1049 33.5276C27.1824 33.4825 27.2595 33.4359 27.3371 33.389C27.4504 33.3204 27.5641 33.2503 27.6774 33.1784C27.6863 33.1731 27.6934 33.1694 27.7009 33.1638C27.708 33.1601 27.7135 33.1567 27.7188 33.153C27.7314 33.1441 27.7441 33.1351 27.7564 33.1277C27.8589 33.0609 27.9618 32.9927 28.0624 32.9242C28.0736 32.9167 28.0844 32.9085 28.0956 32.901C28.1411 32.8705 28.1866 32.8392 28.2317 32.8082C28.2723 32.7803 28.3133 32.7516 28.3539 32.7229C28.3714 32.7106 28.389 32.6986 28.4061 32.6863C28.4102 32.6834 28.4143 32.6808 28.4184 32.6778C28.4419 32.6617 28.465 32.6453 28.4866 32.6293C28.591 32.5536 28.6972 32.4746 28.8016 32.3971C28.9041 32.3196 29.007 32.2424 29.1076 32.163L29.1113 32.1593C29.212 32.0803 29.313 31.999 29.4136 31.9163C29.4263 31.9073 29.4371 31.8984 29.4479 31.8894C29.4569 31.8823 29.4658 31.8749 29.4733 31.8678C29.682 31.6949 29.8874 31.5167 30.0886 31.3352C30.0942 31.3314 30.0976 31.3281 30.1013 31.3225C30.2076 31.2252 30.3119 31.1279 30.4163 31.0291C30.5207 30.9285 30.6232 30.8294 30.7257 30.7268H30.7275C30.7976 30.6568 30.8662 30.5882 30.9348 30.5181C30.9653 30.4838 30.9978 30.4514 31.0283 30.4175C31.0641 30.3813 31.1003 30.3437 31.1364 30.306V30.3042C31.1506 30.2896 31.1633 30.2755 31.1759 30.2609C31.2263 30.2087 31.2732 30.1566 31.3217 30.1025C31.3269 30.0988 31.3306 30.0954 31.3362 30.0898V30.088C31.5215 29.8845 31.7015 29.6757 31.8778 29.4633C31.8815 29.4595 31.8849 29.4543 31.8886 29.4487C31.8976 29.4398 31.9046 29.429 31.9121 29.42C31.9948 29.3194 32.0776 29.2165 32.1588 29.1121C32.2002 29.0618 32.2397 29.0115 32.2796 28.9593C32.3389 28.8818 32.3985 28.8028 32.4578 28.7252C32.5316 28.6246 32.6054 28.5217 32.6773 28.4192C32.7187 28.3614 32.7601 28.304 32.8015 28.2463C32.8447 28.1851 32.8861 28.124 32.9237 28.0625C32.9319 28.0521 32.9394 28.042 32.9472 28.0316C32.9599 28.0126 32.9725 27.9935 32.9852 27.9745C32.9923 27.9656 32.9979 27.9548 33.005 27.944C33.0408 27.8899 33.0769 27.834 33.1131 27.7785C33.131 27.7531 33.1474 27.7263 33.1634 27.7009C33.2174 27.6163 33.2715 27.5317 33.3218 27.4471C33.3613 27.3841 33.4008 27.3174 33.4407 27.2525C33.4515 27.2365 33.4623 27.2201 33.4694 27.2041C33.4836 27.1843 33.4944 27.1646 33.5052 27.1448C33.5357 27.0964 33.5626 27.0475 33.5917 26.9991H33.5898L33.5917 27.0002Z" fill="url(#paint3_linear_66_189)"/>
<path d="M33.5519 8.92862C33.5373 8.90514 33.5231 8.88166 33.5086 8.85855C33.478 8.8045 33.4456 8.75045 33.4113 8.6964C33.3897 8.66211 33.3681 8.62633 33.3465 8.59017C33.2891 8.49289 33.2276 8.3956 33.1646 8.30055C33.1485 8.27521 33.134 8.25023 33.1161 8.22675C33.0893 8.18165 33.0602 8.13692 33.0315 8.09368C32.9775 8.01093 32.9234 7.93005 32.866 7.84879C32.8463 7.81636 32.8246 7.7858 32.803 7.75337C32.6897 7.59309 32.576 7.43282 32.4593 7.2744C32.4001 7.19687 32.3404 7.11785 32.2812 7.04032C32.2145 6.95384 32.1481 6.86923 32.0814 6.78462C32.0184 6.70709 31.9554 6.62993 31.8905 6.5524C31.8365 6.48568 31.7825 6.41933 31.7265 6.35261C31.6941 6.31497 31.6617 6.27881 31.6278 6.24116C31.5953 6.20501 31.5629 6.16736 31.5305 6.13121C31.4872 6.08275 31.4459 6.03578 31.4026 5.98733C31.302 5.87588 31.1991 5.76406 31.0966 5.65447C31.0411 5.5967 30.9867 5.53929 30.9311 5.48152C30.8808 5.4312 30.8338 5.38088 30.7854 5.33019C30.7675 5.31043 30.7477 5.29068 30.7295 5.27241C30.6862 5.22917 30.6415 5.1878 30.5983 5.14456L30.5945 5.14083C30.5874 5.13562 30.5819 5.12816 30.5748 5.12108C30.564 5.11213 30.5513 5.09946 30.539 5.08865C30.5174 5.0689 30.4976 5.04728 30.476 5.02566C30.4309 4.98242 30.3862 4.93918 30.3411 4.89781C30.3303 4.88514 30.3176 4.87433 30.3068 4.86352C30.2565 4.81655 30.2061 4.76809 30.1536 4.72299C30.1372 4.70696 30.1193 4.69243 30.1033 4.67789C30.0995 4.67267 30.0962 4.66895 30.0906 4.66522C30.0186 4.5985 29.9448 4.53364 29.871 4.46916C29.8386 4.44046 29.8062 4.41138 29.7719 4.38268C29.7324 4.34652 29.691 4.31261 29.6496 4.27645C29.5833 4.22054 29.5166 4.165 29.4498 4.11095C29.4409 4.10387 29.432 4.09642 29.423 4.08747C29.3764 4.04982 29.3294 4.0118 29.2825 3.97602C29.2269 3.92906 29.171 3.88619 29.1133 3.84109C29.0629 3.80158 29.0122 3.76207 28.9619 3.72218C28.8989 3.67373 28.8341 3.6249 28.7692 3.57831C28.6757 3.50823 28.5821 3.43965 28.4885 3.37144C28.4598 3.34982 28.4311 3.33006 28.4021 3.31031C28.3033 3.24023 28.2023 3.16978 28.1016 3.10157C28.089 3.09263 28.0763 3.08368 28.064 3.07623C27.9973 3.03112 27.9291 2.98453 27.8605 2.94129C27.8262 2.91781 27.7923 2.89619 27.758 2.87457C27.749 2.86749 27.7401 2.8619 27.7293 2.85482L27.6268 2.78996C27.5295 2.72883 27.4322 2.6677 27.3334 2.60806C27.2235 2.54134 27.1139 2.475 27.0021 2.412C26.7177 2.24837 26.4299 2.09145 26.1362 1.94235C26.0497 1.89725 25.9614 1.85401 25.8715 1.81077C25.706 1.72989 25.5405 1.65049 25.3713 1.57483C25.2506 1.52078 25.1283 1.4686 25.006 1.41641C24.8044 1.32994 24.6009 1.24719 24.3959 1.16966C24.189 1.09064 23.9817 1.01684 23.773 0.946388C23.656 0.906877 23.5389 0.868858 23.4219 0.833075C23.3175 0.800646 23.2132 0.768218 23.1088 0.737653C23.0726 0.726844 23.0368 0.716034 23.0007 0.705225L22.9034 0.678387C22.8009 0.647823 22.6962 0.620613 22.5918 0.593775C22.5128 0.572156 22.4334 0.552401 22.3525 0.532646C22.329 0.527055 22.304 0.519973 22.2806 0.514754C22.2429 0.505809 22.2068 0.494999 22.1691 0.486053C22.1348 0.477108 22.099 0.470026 22.0647 0.462571C22.0036 0.446543 21.944 0.43387 21.8828 0.419333C21.7982 0.401441 21.7136 0.383177 21.6271 0.367149C21.4814 0.336585 21.3338 0.309374 21.1862 0.282537C20.891 0.22849 20.5939 0.183388 20.2935 0.145741C20.2935 0.145741 20.2916 0.143878 20.2898 0.145741C19.9912 0.106231 19.6885 0.0756663 19.3844 0.0540473C19.0802 0.028701 18.7742 0.0145369 18.4644 0.00708207C18.3112 0.0018637 18.1566 0 18.0019 0C17.8472 0 17.6906 0.0018637 17.5356 0.00708207C17.2877 0.0126732 17.0421 0.0234826 16.7975 0.040256V11.1867C17.1889 11.1177 17.5911 11.0812 18.0019 11.0812C19.2602 11.0812 20.4426 11.4196 21.4613 12.0101C22.5105 12.615 23.3854 13.4895 23.9955 14.541L27.6655 12.4205C27.6547 12.4026 27.6439 12.3843 27.6331 12.3664C27.6204 12.3467 27.6096 12.3288 27.597 12.3086C27.6096 12.3265 27.6204 12.3463 27.6331 12.3645C27.6458 12.3824 27.6566 12.4007 27.6674 12.4205L33.591 9.00242L33.5929 9.00056C33.5783 8.97708 33.5641 8.9521 33.5515 8.92862H33.5519Z" fill="url(#paint4_linear_66_189)"/>
<defs>
<linearGradient id="paint0_linear_66_189" x1="0" y1="18" x2="36" y2="18" gradientUnits="userSpaceOnUse">
<stop stop-color="#2752E7"/>
<stop offset="0.723958" stop-color="#8CB5FD"/>
<stop offset="1" stop-color="#2752E7"/>
</linearGradient>
<linearGradient id="paint1_linear_66_189" x1="6.70929" y1="21.768" x2="16.8105" y2="25.7004" gradientUnits="userSpaceOnUse">
<stop offset="0.226477" stop-color="#4280FF"/>
<stop offset="1" stop-color="#FA5E5C"/>
</linearGradient>
<linearGradient id="paint2_linear_66_189" x1="21.888" y1="4.53601" x2="4.392" y2="18.576" gradientUnits="userSpaceOnUse">
<stop offset="0.357219" stop-color="#ADDDFF"/>
<stop offset="0.598958" stop-color="#73A1FF"/>
<stop offset="0.750971" stop-color="#4280FF"/>
</linearGradient>
<linearGradient id="paint3_linear_66_189" x1="18.9191" y1="27.7885" x2="31.4432" y2="26.8194" gradientUnits="userSpaceOnUse">
<stop stop-color="#FA5E5C"/>
<stop offset="0.0001" stop-color="#FA5E5C"/>
<stop offset="0.354167" stop-color="#EB8981"/>
<stop offset="0.786458" stop-color="#FFB0AA"/>
</linearGradient>
<linearGradient id="paint4_linear_66_189" x1="31.5178" y1="7.26918" x2="17.2418" y2="7.26918" gradientUnits="userSpaceOnUse">
<stop offset="0.249284" stop-color="#95FFFF"/>
<stop offset="1" stop-color="#ADDDFF"/>
</linearGradient>
</defs>
</svg>
