<svg width="36" height="36" viewBox="0 0 36 36" fill="none" xmlns="http://www.w3.org/2000/svg">
    <path d="M33.593 9A18.05 18.05 0 0 0 27 2.411 17.889 17.889 0 0 0 18 0c-3.28 0-6.354.877-9 2.411A17.999 17.999 0 0 0 2.411 9 17.888 17.888 0 0 0 0 18c0 3.28.877 6.354 2.411 9A18.047 18.047 0 0 0 9 33.593 17.906 17.906 0 0 0 18 36c3.28 0 6.354-.875 9-2.407A18.098 18.098 0 0 0 33.593 27 17.906 17.906 0 0 0 36 18c0-3.28-.875-6.354-2.407-9zM23.58 27.666A11.105 11.105 0 0 1 18 29.16 11.153 11.153 0 0 1 6.84 18 11.154 11.154 0 0 1 18 6.84 11.153 11.153 0 0 1 29.16 18a11.153 11.153 0 0 1-5.58 9.666z" fill="url(#5ie06aw11a)"/>
    <path d="M14.543 23.996a6.94 6.94 0 0 1-2.531-2.536 6.851 6.851 0 0 1-.929-3.46H.003a14.71 14.71 0 0 0 .009.577c.007.23.02.46.036.689.003.06.007.119.012.178.01.126.022.252.035.378.01.111.023.223.035.333.011.088.022.176.035.263.03.226.065.451.102.677l.033.176c.041.228.088.457.138.684l.05.214a9.504 9.504 0 0 0 .081.331c.03.106.056.213.085.317l.049.173c.004.009.007.02.009.03.034.112.066.224.1.333l.105.324.06.177.096.275c.02.054.042.108.062.164.012.036.027.072.041.108l.104.27A17.753 17.753 0 0 0 2.414 27l.187.319c.056.09.11.18.168.268a15.607 15.607 0 0 0 .435.66 20.953 20.953 0 0 0 .522.715l.18.23c.061.078.123.153.184.229a.76.76 0 0 1 .048.059c.027.032.055.063.08.095.091.108.185.216.28.322.03.035.064.069.092.103.049.052.096.106.143.158.03.036.064.07.097.106a18.036 18.036 0 0 0 .74.75 33.277 33.277 0 0 0 .47.432l.001.003.012.01c.056.051.112.101.17.15.08.072.163.142.248.213.02.015.04.033.06.05l.05.04c.119.099.239.194.362.29.086.068.173.134.26.199l.03.022.14.104c.046.034.095.07.142.102l.113.081c.053.038.103.074.155.108.05.037.103.07.155.107.1.068.203.136.308.203l.156.1c.089.057.178.11.267.166.11.067.221.133.333.196.012.007.027.015.04.024.125.072.251.142.379.212l.08.044.255.135h.002c.036.017.071.036.108.055.088.045.176.089.266.132.063.03.128.061.191.093l.21.098c.055.023.109.048.163.072a7.649 7.649 0 0 0 .367.158l.016.005.153.065c.015.005.029.013.045.018l.124.049.2.079.21.077c.022.007.042.016.062.024.067.023.131.047.196.068l.08.027c.057.022.116.041.176.06a8.638 8.638 0 0 0 .36.114c.095.031.192.06.287.087.004.002.006.004.01.004.01.003.021.005.03.009l.173.048c.104.03.21.058.317.085l.047.012a13.546 13.546 0 0 0 .284.069l.103.025.111.025c.095.022.189.042.284.061a9.412 9.412 0 0 0 .466.09c.024.004.05.01.073.013.165.03.331.056.497.079.093.015.187.029.28.04.06.007.12.016.18.021.117.016.234.029.353.04.124.012.25.025.378.034.06.005.121.009.182.012l.058.005V24.813a6.922 6.922 0 0 1-2.256-.819v.002z" fill="url(#54ed7wmw5b)"/>
    <path d="M16.616.055a15.518 15.518 0 0 0-.937.095c-.14.02-.281.038-.42.06-.147.023-.297.046-.444.073a16.81 16.81 0 0 0-.441.085c-.146.03-.292.06-.438.095-.29.067-.578.14-.862.222-.124.036-.25.072-.373.11a3.584 3.584 0 0 0-.24.077c-.012.002-.025.007-.037.01l-.15.05c-.016.006-.032.012-.047.015a.152.152 0 0 1-.027.01l-.052.017-.336.121a18.454 18.454 0 0 0-.75.293l-.264.114a5.395 5.395 0 0 0-.265.119l-.262.122a16.317 16.317 0 0 0-.513.256c-.087.045-.171.088-.256.134-.08.042-.159.087-.238.13a18.153 18.153 0 0 0-.518.299c-.085.05-.168.103-.252.155-.168.104-.331.21-.495.32l-.015.01-.164.11a18.079 18.079 0 0 0-.588.422c-.006.004-.011.007-.016.013l-.137.102-.038.029H7.04c-.032.027-.065.052-.097.077l-.054.042c-.104.08-.207.163-.308.246l-.009.008a.124.124 0 0 1-.02.016l-.03.026-.152.126-.016.013h-.002a2.26 2.26 0 0 1-.065.058 1.503 1.503 0 0 0-.065.058l-.113.097-.184.165c-.023.02-.046.04-.068.062-.054.048-.108.099-.16.147h-.002a5.175 5.175 0 0 0-.111.108c-.105.1-.207.198-.31.3v.003l-.081.082-.222.227a12.011 12.011 0 0 0-.333.36c-.084.092-.165.185-.246.279-.081.093-.163.187-.242.282l-.04.047-.269.337-.057.074a15.1 15.1 0 0 0-.517.698l-.04.06-.045.062c-.08.116-.158.235-.235.353-.078.117-.155.238-.229.356-.052.085-.104.168-.154.252L2.413 9c-.144.248-.28.5-.414.754 0 .002-.002.002-.002.002a19.806 19.806 0 0 0-.495 1.04l-.108.25-.006.015-.138.34-.08.209-.03.078-.033.084-.014.04-.119.334-.074.222-.097.304c-.033.102-.063.205-.094.308l-.045.162c-.034.119-.065.24-.097.36-.029.11-.056.22-.08.33l-.044.185a27.745 27.745 0 0 0-.148.718l-.03.171a21.487 21.487 0 0 0-.173 1.273 8.807 8.807 0 0 0-.034.387A18.057 18.057 0 0 0 0 18h11.083c0-1.26.337-2.441.929-3.46a6.884 6.884 0 0 1 2.53-2.53 6.861 6.861 0 0 1 2.256-.824V.04l-.182.014z" fill="url(#7gae7iis3c)"/>
    <path d="m33.592 27-5.924-3.42-3.672-2.12a7.002 7.002 0 0 1-2.534 2.536 6.933 6.933 0 0 1-4.664.818v11.145a12.683 12.683 0 0 0 .801.035c.133.004.267.006.4.006h.003c.137 0 .272-.002.407-.006l.162-.003a19.088 19.088 0 0 0 1.25-.084h.003l.016-.001c.115-.011.229-.024.342-.038.025-.004.05-.005.076-.009l.162-.022c.059-.007.119-.016.178-.025.137-.018.274-.04.41-.063.018-.002.035-.006.053-.009.04-.005.084-.014.125-.022.137-.023.272-.05.407-.077.013-.002.026-.006.038-.007.13-.027.257-.056.385-.085l.048-.01.047-.011a13.137 13.137 0 0 0 .442-.11l.146-.04c.034-.01.069-.02.1-.027.035-.009.069-.018.103-.029a.138.138 0 0 0 .036-.009l.076-.021a6.335 6.335 0 0 0 .325-.1c.04-.01.078-.023.117-.036.018-.005.037-.01.055-.017l.226-.074.034-.011a15.49 15.49 0 0 0 .358-.124l.017-.007c.084-.03.17-.061.255-.094l.303-.119c.1-.041.201-.083.3-.126.135-.056.268-.115.401-.174l.063-.027c.112-.052.224-.104.333-.158a15.264 15.264 0 0 0 .776-.398l.191-.105.19-.108a.483.483 0 0 0 .043-.023l.052-.033a15.435 15.435 0 0 0 .625-.38l.023-.014a17.09 17.09 0 0 0 .361-.24l.034-.023.136-.093.122-.085.052-.037.012-.008a2.12 2.12 0 0 0 .069-.049c.104-.075.21-.154.315-.232.102-.078.205-.155.306-.234l.003-.004c.101-.079.202-.16.303-.243l.034-.027a23.85 23.85 0 0 0 1.278-1.163h.002l.207-.208c.03-.034.063-.067.093-.1l.108-.112v-.002a5.76 5.76 0 0 0 .185-.202.105.105 0 0 0 .015-.012v-.002c.186-.204.366-.412.542-.625l.01-.014c.01-.01.017-.02.024-.029.083-.1.166-.204.247-.308.041-.05.08-.1.12-.153l.179-.234c.074-.1.147-.203.22-.306.04-.058.082-.115.123-.173.044-.06.085-.122.123-.184l.023-.03.038-.058.02-.03.108-.166c.018-.025.034-.052.05-.077.054-.085.109-.17.159-.254.04-.063.079-.13.119-.194a.338.338 0 0 0 .028-.049c.015-.02.025-.04.036-.06.03-.048.058-.096.087-.145h-.002l.002.001z" fill="url(#1y54jvexcd)"/>
    <path d="m33.552 8.929-.043-.07a3.757 3.757 0 0 0-.098-.163 5.3 5.3 0 0 1-.065-.106 6.578 6.578 0 0 0-.181-.29c-.017-.025-.031-.05-.049-.073a7.988 7.988 0 0 0-.25-.378c-.02-.033-.041-.063-.063-.096-.113-.16-.227-.32-.344-.479l-.178-.234a30.486 30.486 0 0 0-.2-.255 20.524 20.524 0 0 0-.19-.233 6.618 6.618 0 0 0-.263-.311l-.098-.11-.127-.144-.306-.333-.166-.172c-.05-.05-.097-.101-.146-.152l-.055-.058-.132-.127-.003-.004c-.008-.005-.013-.013-.02-.02l-.036-.032c-.022-.02-.041-.042-.063-.063-.045-.044-.09-.087-.135-.128-.01-.013-.023-.024-.034-.034-.05-.047-.1-.096-.153-.141-.017-.016-.035-.03-.05-.045a10.067 10.067 0 0 0-.232-.209l-.1-.086-.122-.107a12.811 12.811 0 0 0-.227-.189l-.14-.111c-.056-.047-.112-.09-.17-.135l-.151-.119a25.903 25.903 0 0 0-.56-.412 17.034 17.034 0 0 0-.338-.234c-.067-.045-.135-.091-.204-.135a3.199 3.199 0 0 0-.102-.066c-.009-.008-.018-.013-.029-.02l-.102-.065c-.098-.061-.195-.122-.294-.182a18.802 18.802 0 0 0-1.962-1.033c-.12-.054-.243-.106-.365-.159a15.099 15.099 0 0 0-1.233-.47c-.117-.04-.234-.077-.351-.113-.105-.032-.209-.065-.313-.095L23 .705l-.098-.027a8.49 8.49 0 0 0-.311-.084 8.933 8.933 0 0 0-.24-.061l-.071-.018-.112-.029c-.034-.009-.07-.016-.104-.023-.061-.016-.121-.03-.182-.044-.085-.018-.17-.036-.256-.052a15.997 15.997 0 0 0-1.334-.221s-.001-.002-.003 0c-.299-.04-.601-.07-.906-.092-.304-.025-.61-.04-.92-.047a13.61 13.61 0 0 0-.928 0c-.248.006-.494.016-.739.033v11.147a6.88 6.88 0 0 1 4.664.823 6.945 6.945 0 0 1 2.535 2.531l3.67-2.12-.033-.055-.036-.057c.013.018.023.037.036.056a.55.55 0 0 1 .034.056l5.924-3.419.002-.001a1.395 1.395 0 0 1-.042-.072z" fill="url(#jdwzpah9ke)"/>
    <defs>
        <linearGradient id="5ie06aw11a" x1="0" y1="18" x2="36" y2="18" gradientUnits="userSpaceOnUse">
            <stop stop-color="#2752E7"/>
            <stop offset=".724" stop-color="#8CB5FD"/>
            <stop offset="1" stop-color="#2752E7"/>
        </linearGradient>
        <linearGradient id="54ed7wmw5b" x1="6.709" y1="21.768" x2="16.811" y2="25.701" gradientUnits="userSpaceOnUse">
            <stop offset=".226" stop-color="#4280FF"/>
            <stop offset="1" stop-color="#FA5E5C"/>
        </linearGradient>
        <linearGradient id="7gae7iis3c" x1="21.888" y1="4.536" x2="4.392" y2="18.576" gradientUnits="userSpaceOnUse">
            <stop offset=".357" stop-color="#ADDDFF"/>
            <stop offset=".599" stop-color="#73A1FF"/>
            <stop offset=".751" stop-color="#4280FF"/>
        </linearGradient>
        <linearGradient id="1y54jvexcd" x1="18.919" y1="27.788" x2="31.443" y2="26.819" gradientUnits="userSpaceOnUse">
            <stop stop-color="#FA5E5C"/>
            <stop offset="0" stop-color="#FA5E5C"/>
            <stop offset=".354" stop-color="#EB8981"/>
            <stop offset=".786" stop-color="#FFB0AA"/>
        </linearGradient>
        <linearGradient id="jdwzpah9ke" x1="31.518" y1="7.269" x2="17.242" y2="7.269" gradientUnits="userSpaceOnUse">
            <stop offset=".249" stop-color="#95FFFF"/>
            <stop offset="1" stop-color="#ADDDFF"/>
        </linearGradient>
    </defs>
</svg>
