<svg width="20" height="20" viewBox="0 0 20 20" fill="none" xmlns="http://www.w3.org/2000/svg">
<path d="M3.33329 6.66672C3.33329 2.98479 6.31807 0 10 0C13.6819 0 16.6667 2.98479 16.6667 6.66671V8.70111C16.6667 8.89373 16.6667 8.99004 16.6689 9.08474C16.7002 10.4059 17.0583 11.6987 17.7112 12.8477C17.758 12.93 17.8076 13.0126 17.9067 13.1778L18.5216 14.2027C19.0193 15.0322 19.2681 15.4469 19.2265 15.7879C19.1943 16.0519 19.0582 16.2922 18.8485 16.4556C18.5774 16.6668 18.0938 16.6668 17.1264 16.6668H2.87362C1.90626 16.6668 1.42259 16.6668 1.15156 16.4556C0.941797 16.2922 0.805767 16.0519 0.773542 15.788C0.731905 15.4469 0.98075 15.0322 1.47844 14.2027L2.09335 13.1778C2.19245 13.0126 2.24201 12.93 2.28881 12.8477C2.94167 11.6987 3.29975 10.4059 3.33104 9.08479C3.33329 8.99008 3.33329 8.89377 3.33329 8.70115V6.66672Z" fill="#7E7E7E"/>
<path d="M12.6278 17.7778C12.7107 17.7778 12.7785 17.845 12.7715 17.9276C12.7264 18.4622 12.4408 18.9678 11.9642 19.3491C11.4433 19.7659 10.7368 20 10 20C9.26332 20 8.55678 19.7659 8.03584 19.3491C7.55922 18.9678 7.27369 18.4622 7.22856 17.9276C7.22159 17.845 7.2894 17.7778 7.37224 17.7778L10 17.7778L12.6278 17.7778Z" fill="#7E7E7E"/>
</svg>
