<svg width="36" height="36" viewBox="0 0 36 36" fill="none" xmlns="http://www.w3.org/2000/svg">
<circle cx="18" cy="18" r="18" fill="#F6F6F6"/>
<g clip-path="url(#clip0_7097_30)">
<path d="M21.9041 9.15063C21.7989 8.42802 21.1688 7.88306 20.4386 7.88306H15.5617C14.8314 7.88306 14.2014 8.42802 14.0961 9.15067L13.8389 10.9172H15.0613L15.2931 9.32497C15.3124 9.19255 15.4279 9.09271 15.5617 9.09271H20.4386C20.5724 9.09271 20.6879 9.19259 20.7071 9.32497L20.9389 10.9172H22.1614L21.9041 9.15063Z" fill="#7E7E7E"/>
<path d="M25.83 19.7268H20.5934V20.4329C20.5934 20.6563 20.4702 20.8614 20.2732 20.9666L18.2846 22.027C18.1957 22.0745 18.0979 22.0982 18 22.0982C17.9022 22.0982 17.8043 22.0745 17.7154 22.027L15.7268 20.9666C15.5297 20.8614 15.4066 20.6563 15.4066 20.4329V19.7268H10.17C9.34449 19.7268 8.58754 19.4289 8 18.9355V25.3746C8 25.7839 8.33301 26.117 8.74234 26.117H27.2577C27.667 26.117 28 25.7839 28 25.3746V18.9355C27.4124 19.4289 26.6555 19.7268 25.83 19.7268Z" fill="#7E7E7E"/>
<path d="M27.2577 12.1268H8.74234C8.33301 12.1268 8 12.4599 8 12.8692V16.3472C8 17.5437 8.97344 18.5171 10.17 18.5171H15.4066V17.4577C15.4066 17.1236 15.6775 16.8528 16.0115 16.8528H19.9886C20.3226 16.8528 20.5934 17.1236 20.5934 17.4577V18.5171H25.83C27.0266 18.5171 28 17.5437 28 16.3472V12.8692C28 12.4599 27.667 12.1268 27.2577 12.1268Z" fill="#7E7E7E"/>
<path d="M16.6162 18.0625V20.07L17.9999 20.8079L19.3836 20.07V18.0625H16.6162Z" fill="#7E7E7E"/>
</g>
<defs>
<clipPath id="clip0_7097_30">
<rect width="20" height="20" fill="white" transform="translate(8 7)"/>
</clipPath>
</defs>
</svg>
