<svg width="148" height="36" viewBox="0 0 148 36" fill="none" xmlns="http://www.w3.org/2000/svg">
<path fill-rule="evenodd" clip-rule="evenodd" d="M26.3165 30.4371C26.3195 31.5876 26.3224 32.7382 26.3243 33.8888V33.8897H29.512C29.5169 33.1375 29.5219 32.3853 29.527 31.633C29.5438 29.1196 29.5607 26.6059 29.5721 24.0921C29.5768 23.1105 29.577 22.6271 29.7903 22.4992C29.9979 22.3747 30.4073 22.5867 31.2191 23.0037C31.6195 23.2089 32.0255 23.4066 32.4407 23.5789C38.1771 25.9526 44.7864 23.256 47.0956 17.6049C49.4584 11.8201 46.8431 5.29238 41.0466 2.87828C35.855 0.715565 31.2755 2.83308 27.6615 6.11999C27.3878 6.36856 27.3517 6.64349 27.5284 7.00504C28.1563 8.28836 28.8684 8.4842 29.9429 7.58785C32.019 5.85542 34.3263 4.5947 37.072 4.72181C40.6508 4.88846 43.3466 6.67173 44.6514 10.0754C45.8573 13.2201 45.4486 16.3018 43.1671 18.891C40.7461 21.6375 37.662 22.2871 34.2274 21.3607C32.0764 20.7807 30.3729 19.4371 28.7796 17.9109C27.324 16.5168 26.0344 14.9708 24.7449 13.4249C23.4252 11.8427 22.1056 10.2607 20.6083 8.84198C18.9141 7.23666 17.0683 5.91945 14.7323 5.44209C10.3276 4.54292 6.23645 7.40143 5.35144 12.0197C4.57648 16.0636 7.53575 20.2591 11.7083 21.0528C15.019 21.6836 17.5501 20.1084 19.9647 18.1368C20.7313 17.5107 20.5362 17.0061 19.9711 16.4006C19.9342 16.3611 19.898 16.3216 19.8623 16.2827C19.385 15.7625 18.9893 15.3312 18.203 16.0862C17.0387 17.2047 15.6654 18.0417 14.0517 18.3647C11.1387 18.9484 8.3292 16.8432 7.99351 13.8397C7.65227 10.7872 9.88004 8.20456 12.8791 8.06709C15.252 7.95882 17.0267 9.13009 18.6469 10.6507C20.132 12.0444 21.4416 13.6005 22.7512 15.1566C23.6401 16.2128 24.5289 17.269 25.4726 18.2743C26.0866 18.9277 26.3206 19.6066 26.316 20.4897C26.2995 23.8058 26.308 27.1213 26.3165 30.4371ZM21.6191 5.39689C19.1647 3.42625 16.5143 1.96216 13.0455 2.07138C8.57242 2.06479 4.55244 4.73405 2.84624 8.98227C1.11785 13.2832 2.06389 18.1463 5.43837 21.3061C10.7031 26.235 17.3781 25.1353 22.3672 20.3156C22.5975 20.0934 22.6326 19.8457 22.4976 19.5313C21.8891 18.1095 21.1188 17.9099 19.936 18.8938C17.8266 20.6489 15.5221 21.822 12.6802 21.7194C8.60201 21.5725 4.98339 18.0935 4.76699 14.0054C4.51823 9.29768 7.48951 5.46186 11.7832 4.8508C14.8331 4.41769 17.404 5.45338 19.7529 7.29032C21.7042 8.81636 23.2744 10.7089 24.844 12.6006C25.2441 13.0829 25.6442 13.5651 26.0506 14.0412C28.0324 16.363 30.0336 18.6443 32.7616 20.1273C36.9397 22.3982 41.9955 20.8315 43.9458 16.6341C45.8703 12.4914 44.0124 7.56525 39.85 5.89873C36.0917 4.39415 33.0104 5.85448 30.1538 8.25446C29.4426 8.85139 29.5055 9.35606 30.077 10.0114C30.6439 10.662 31.1331 10.9896 31.8896 10.2618C32.7857 9.40031 33.8362 8.75347 35.0134 8.34767C37.2024 7.59256 39.6142 8.24787 40.9116 9.93228C42.2692 11.6958 42.3922 14.2539 41.2085 16.0965C39.9684 18.0286 37.7369 18.8684 35.4111 18.2988C34.2727 18.021 33.2989 17.4335 32.3668 16.7481C30.9292 15.6907 29.7836 14.3441 28.6384 12.9981C28.3713 12.6842 28.1043 12.3703 27.8335 12.0602C27.3648 11.5231 26.9056 10.9771 26.4464 10.4311C24.9469 8.64831 23.4478 6.86589 21.6191 5.39689Z" fill="url(#paint0_linear_6949_44193)"/>
<path d="M66.7377 13.062V24.5704H63.6786V13.062C63.6786 8.51908 61.7661 6.52961 58.4518 6.52961C55.1374 6.52961 53.0123 8.73563 53.0123 13.3219V24.5704H49.9531V3.71724H53.0123V6.13981C54.4568 4.45258 56.4543 3.41406 58.9613 3.41406C62.9979 3.41406 66.7377 5.40447 66.7377 13.062Z" fill="url(#paint1_linear_6949_44193)"/>
<path d="M85.944 18.731L88.6212 20.0717C86.9215 23.0141 83.9049 24.8736 80.2077 24.8736C74.3437 24.8736 70.3496 20.1141 70.3496 14.1871C70.3496 8.26016 74.3437 3.41406 80.1651 3.41406C83.9049 3.41406 86.9215 5.36116 88.6212 8.30253L85.944 9.59996C84.7113 7.69618 82.7147 6.44205 80.1651 6.44205C76.0009 6.44205 73.4513 9.90314 73.4513 14.1862C73.4513 18.4692 76.0009 21.8437 80.2077 21.8437C82.7147 21.8437 84.7122 20.6753 85.944 18.7291V18.731Z" fill="url(#paint2_linear_6949_44193)"/>
<path d="M110.165 14.1871C110.165 20.1574 106.043 24.916 100.179 24.916C94.3149 24.916 90.3208 20.1565 90.3208 14.1871C90.3208 8.21779 94.3574 3.41406 100.179 3.41406C106 3.41406 110.165 8.2159 110.165 14.1871ZM107.063 14.1871C107.063 9.90408 104.386 6.44299 100.179 6.44299C95.9721 6.44299 93.4225 9.90408 93.4225 14.1871C93.4225 18.4702 95.9721 21.8447 100.179 21.8447C104.386 21.8447 107.063 18.4702 107.063 14.1871Z" fill="url(#paint3_linear_6949_44193)"/>
<path d="M124.315 3.50163L123.72 6.65954C123.295 6.57292 122.828 6.52961 122.318 6.52961C119.174 6.52961 116.879 8.73563 116.879 13.3219V24.5704H113.777V3.71724H116.879V6.13981C118.28 4.45258 120.321 3.41406 122.785 3.41406C123.295 3.41406 123.805 3.45737 124.315 3.50068V3.50163Z" fill="url(#paint4_linear_6949_44193)"/>
<path d="M146.496 14.1862C146.496 20.1565 142.757 24.915 136.893 24.915C134.003 24.915 131.708 23.7033 130.136 21.7571V34.0009H127.077V3.7163H130.136V6.57198C131.708 4.62488 134.004 3.41406 136.893 3.41406C142.757 3.41406 146.496 8.2159 146.496 14.1871V14.1862ZM143.395 14.1862C143.395 9.90314 141.1 6.44205 136.894 6.44205C132.687 6.44205 130.307 9.90314 130.307 14.1862C130.307 18.4692 132.729 21.8437 136.894 21.8437C141.058 21.8437 143.395 18.4692 143.395 14.1862Z" fill="url(#paint5_linear_6949_44193)"/>
<defs>
<linearGradient id="paint0_linear_6949_44193" x1="2.03799" y1="14.2474" x2="63.1227" y2="9.11686" gradientUnits="userSpaceOnUse">
<stop stop-color="#E80D8B"/>
<stop offset="0.45" stop-color="#E60E8B"/>
<stop offset="0.62" stop-color="#DF148E"/>
<stop offset="0.73" stop-color="#D31E93"/>
<stop offset="0.83" stop-color="#C22D9A"/>
<stop offset="0.91" stop-color="#AC40A4"/>
<stop offset="0.98" stop-color="#9257AF"/>
<stop offset="1" stop-color="#8761B4"/>
</linearGradient>
<linearGradient id="paint1_linear_6949_44193" x1="48.7907" y1="21.4012" x2="73.7762" y2="3.09216" gradientUnits="userSpaceOnUse">
<stop offset="0.13" stop-color="#E80D8B"/>
<stop offset="0.41" stop-color="#AA43A5"/>
<stop offset="0.55" stop-color="#8760B3"/>
<stop offset="0.67" stop-color="#6E76BE"/>
<stop offset="0.75" stop-color="#657FC2"/>
</linearGradient>
<linearGradient id="paint2_linear_6949_44193" x1="71.6387" y1="21.275" x2="88.6475" y2="7.69034" gradientUnits="userSpaceOnUse">
<stop offset="0.08" stop-color="#8761B4"/>
<stop offset="0.42" stop-color="#5B87C6"/>
<stop offset="0.61" stop-color="#4A97CE"/>
<stop offset="0.83" stop-color="#38A6D5"/>
<stop offset="1" stop-color="#31ACD9"/>
</linearGradient>
<linearGradient id="paint3_linear_6949_44193" x1="100.243" y1="28.4015" x2="100.243" y2="8.19802" gradientUnits="userSpaceOnUse">
<stop stop-color="#8562B4"/>
<stop offset="0.11" stop-color="#667DC1"/>
<stop offset="0.23" stop-color="#4F91CC"/>
<stop offset="0.35" stop-color="#3EA0D3"/>
<stop offset="0.48" stop-color="#34A9D7"/>
<stop offset="0.65" stop-color="#31ACD9"/>
</linearGradient>
<linearGradient id="paint4_linear_6949_44193" x1="118.844" y1="27.1201" x2="118.94" y2="16.3113" gradientUnits="userSpaceOnUse">
<stop stop-color="#8761B4"/>
<stop offset="0.07" stop-color="#7372BC"/>
<stop offset="0.18" stop-color="#5B87C6"/>
<stop offset="0.3" stop-color="#4897CF"/>
<stop offset="0.44" stop-color="#3AA3D4"/>
<stop offset="0.63" stop-color="#33AAD8"/>
<stop offset="0.99" stop-color="#31ACD9"/>
</linearGradient>
<linearGradient id="paint5_linear_6949_44193" x1="137.262" y1="35.2635" x2="136.403" y2="15.5113" gradientUnits="userSpaceOnUse">
<stop stop-color="#8761B4"/>
<stop offset="0.06" stop-color="#7570BB"/>
<stop offset="0.18" stop-color="#5C85C6"/>
<stop offset="0.31" stop-color="#4996CE"/>
<stop offset="0.46" stop-color="#3BA2D4"/>
<stop offset="0.65" stop-color="#33A9D7"/>
<stop offset="0.99" stop-color="#31ACD9"/>
</linearGradient>
</defs>
</svg>
