<svg width="230" height="36" viewBox="0 0 230 36" fill="none" xmlns="http://www.w3.org/2000/svg">
<path fill-rule="evenodd" clip-rule="evenodd" d="M26.3165 30.4371C26.3195 31.5876 26.3224 32.7382 26.3243 33.8888V33.8897H29.512C29.5169 33.1375 29.5219 32.3853 29.527 31.633C29.5438 29.1196 29.5607 26.6059 29.5721 24.0921C29.5768 23.1105 29.577 22.6271 29.7903 22.4992C29.9979 22.3747 30.4073 22.5867 31.2191 23.0037C31.6195 23.2089 32.0255 23.4066 32.4407 23.5789C38.1771 25.9526 44.7864 23.256 47.0956 17.6049C49.4584 11.8201 46.8431 5.29238 41.0466 2.87828C35.855 0.715565 31.2755 2.83308 27.6615 6.11999C27.3878 6.36856 27.3517 6.64349 27.5284 7.00504C28.1563 8.28836 28.8684 8.4842 29.9429 7.58785C32.019 5.85542 34.3263 4.5947 37.072 4.72181C40.6508 4.88846 43.3466 6.67173 44.6514 10.0754C45.8573 13.2201 45.4486 16.3018 43.1671 18.891C40.7461 21.6375 37.662 22.2871 34.2274 21.3607C32.0764 20.7807 30.3729 19.4371 28.7796 17.9109C27.324 16.5168 26.0344 14.9708 24.7449 13.4249C23.4252 11.8427 22.1056 10.2607 20.6083 8.84198C18.9141 7.23666 17.0683 5.91945 14.7323 5.44209C10.3276 4.54292 6.23645 7.40143 5.35144 12.0197C4.57648 16.0636 7.53575 20.2591 11.7083 21.0528C15.019 21.6836 17.5501 20.1084 19.9647 18.1368C20.7313 17.5107 20.5362 17.0061 19.9711 16.4006C19.9342 16.3611 19.898 16.3216 19.8623 16.2827C19.385 15.7625 18.9893 15.3312 18.203 16.0862C17.0387 17.2047 15.6654 18.0417 14.0517 18.3647C11.1387 18.9484 8.3292 16.8432 7.99351 13.8397C7.65227 10.7872 9.88004 8.20456 12.8791 8.06709C15.252 7.95882 17.0267 9.13009 18.6469 10.6507C20.132 12.0444 21.4416 13.6005 22.7512 15.1566C23.6401 16.2128 24.5289 17.269 25.4726 18.2743C26.0866 18.9277 26.3206 19.6066 26.316 20.4897C26.2995 23.8058 26.308 27.1213 26.3165 30.4371ZM21.6191 5.39689C19.1647 3.42625 16.5143 1.96216 13.0455 2.07138C8.57242 2.06479 4.55244 4.73405 2.84624 8.98227C1.11785 13.2832 2.06389 18.1463 5.43837 21.3061C10.7031 26.235 17.3781 25.1353 22.3672 20.3156C22.5975 20.0934 22.6326 19.8457 22.4976 19.5313C21.8891 18.1095 21.1188 17.9099 19.936 18.8938C17.8266 20.6489 15.5221 21.822 12.6802 21.7194C8.60201 21.5725 4.98339 18.0935 4.76699 14.0054C4.51823 9.29768 7.48951 5.46186 11.7832 4.8508C14.8331 4.41769 17.404 5.45338 19.7529 7.29032C21.7042 8.81636 23.2744 10.7089 24.844 12.6006C25.2441 13.0829 25.6442 13.5651 26.0506 14.0412C28.0324 16.363 30.0336 18.6443 32.7616 20.1273C36.9397 22.3982 41.9955 20.8315 43.9458 16.6341C45.8703 12.4914 44.0124 7.56525 39.85 5.89873C36.0917 4.39415 33.0104 5.85448 30.1538 8.25446C29.4426 8.85139 29.5055 9.35606 30.077 10.0114C30.6439 10.662 31.1331 10.9896 31.8896 10.2618C32.7857 9.40031 33.8362 8.75347 35.0134 8.34767C37.2024 7.59256 39.6142 8.24787 40.9116 9.93228C42.2692 11.6958 42.3922 14.2539 41.2085 16.0965C39.9684 18.0286 37.7369 18.8684 35.4111 18.2988C34.2727 18.021 33.2989 17.4335 32.3668 16.7481C30.9292 15.6907 29.7836 14.3441 28.6384 12.9981C28.3713 12.6842 28.1043 12.3703 27.8335 12.0602C27.3648 11.5231 26.9056 10.9771 26.4464 10.4311C24.9469 8.64831 23.4478 6.86589 21.6191 5.39689Z" fill="url(#paint0_linear_6949_44183)"/>
<path d="M66.7377 13.062V24.5704H63.6786V13.062C63.6786 8.51908 61.7661 6.52961 58.4518 6.52961C55.1374 6.52961 53.0123 8.73563 53.0123 13.3219V24.5704H49.9531V3.71724H53.0123V6.13981C54.4568 4.45258 56.4543 3.41406 58.9613 3.41406C62.9979 3.41406 66.7377 5.40447 66.7377 13.062Z" fill="url(#paint1_linear_6949_44183)"/>
<path d="M85.944 18.731L88.6212 20.0717C86.9215 23.0141 83.9049 24.8736 80.2077 24.8736C74.3437 24.8736 70.3496 20.1141 70.3496 14.1871C70.3496 8.26016 74.3437 3.41406 80.1651 3.41406C83.9049 3.41406 86.9215 5.36116 88.6212 8.30253L85.944 9.59996C84.7113 7.69618 82.7147 6.44205 80.1651 6.44205C76.0009 6.44205 73.4513 9.90314 73.4513 14.1862C73.4513 18.4692 76.0009 21.8437 80.2077 21.8437C82.7147 21.8437 84.7122 20.6753 85.944 18.7291V18.731Z" fill="url(#paint2_linear_6949_44183)"/>
<path d="M110.165 14.1871C110.165 20.1574 106.043 24.916 100.179 24.916C94.3149 24.916 90.3208 20.1565 90.3208 14.1871C90.3208 8.21779 94.3574 3.41406 100.179 3.41406C106 3.41406 110.165 8.2159 110.165 14.1871ZM107.063 14.1871C107.063 9.90408 104.386 6.44299 100.179 6.44299C95.9721 6.44299 93.4225 9.90408 93.4225 14.1871C93.4225 18.4702 95.9721 21.8447 100.179 21.8447C104.386 21.8447 107.063 18.4702 107.063 14.1871Z" fill="url(#paint3_linear_6949_44183)"/>
<path d="M124.315 3.50163L123.72 6.65954C123.295 6.57292 122.828 6.52961 122.318 6.52961C119.174 6.52961 116.879 8.73563 116.879 13.3219V24.5704H113.777V3.71724H116.879V6.13981C118.28 4.45258 120.321 3.41406 122.785 3.41406C123.295 3.41406 123.805 3.45737 124.315 3.50068V3.50163Z" fill="url(#paint4_linear_6949_44183)"/>
<path d="M146.496 14.1862C146.496 20.1565 142.757 24.915 136.893 24.915C134.003 24.915 131.708 23.7033 130.136 21.7571V34.0009H127.077V3.7163H130.136V6.57198C131.708 4.62488 134.004 3.41406 136.893 3.41406C142.757 3.41406 146.496 8.2159 146.496 14.1871V14.1862ZM143.395 14.1862C143.395 9.90314 141.1 6.44205 136.894 6.44205C132.687 6.44205 130.307 9.90314 130.307 14.1862C130.307 18.4692 132.729 21.8437 136.894 21.8437C141.058 21.8437 143.395 18.4692 143.395 14.1862Z" fill="url(#paint5_linear_6949_44183)"/>
<path d="M152.584 24.124L149.68 21.22L152.584 18.316L153.592 19.324L151.624 21.22L153.592 23.116L152.584 24.124ZM156.334 25V16.36H161.614V17.992H157.966V19.864H160.894V21.496H157.966V25H156.334ZM166.166 25.18C165.302 25.18 164.556 24.992 163.928 24.616C163.304 24.24 162.822 23.714 162.482 23.038C162.146 22.362 161.978 21.576 161.978 20.68C161.978 19.784 162.146 18.998 162.482 18.322C162.822 17.646 163.304 17.12 163.928 16.744C164.556 16.368 165.302 16.18 166.166 16.18C167.03 16.18 167.774 16.368 168.398 16.744C169.026 17.12 169.508 17.646 169.844 18.322C170.184 18.998 170.354 19.784 170.354 20.68C170.354 21.576 170.184 22.362 169.844 23.038C169.508 23.714 169.026 24.24 168.398 24.616C167.774 24.992 167.03 25.18 166.166 25.18ZM166.166 23.644C166.714 23.652 167.17 23.534 167.534 23.29C167.898 23.046 168.17 22.7 168.35 22.252C168.534 21.804 168.626 21.28 168.626 20.68C168.626 20.08 168.534 19.56 168.35 19.12C168.17 18.68 167.898 18.338 167.534 18.094C167.17 17.85 166.714 17.724 166.166 17.716C165.618 17.708 165.162 17.826 164.798 18.07C164.434 18.314 164.16 18.66 163.976 19.108C163.796 19.556 163.706 20.08 163.706 20.68C163.706 21.28 163.796 21.8 163.976 22.24C164.16 22.68 164.434 23.022 164.798 23.266C165.162 23.51 165.618 23.636 166.166 23.644ZM171.311 25V16.36H174.959C175.043 16.36 175.155 16.364 175.295 16.372C175.439 16.376 175.567 16.388 175.679 16.408C176.195 16.488 176.617 16.658 176.945 16.918C177.277 17.178 177.521 17.506 177.677 17.902C177.833 18.294 177.911 18.732 177.911 19.216C177.911 19.94 177.731 20.56 177.371 21.076C177.011 21.588 176.447 21.904 175.679 22.024L174.959 22.072H172.943V25H171.311ZM176.183 25L174.479 21.484L176.159 21.16L178.031 25H176.183ZM172.943 20.548H174.887C174.971 20.548 175.063 20.544 175.163 20.536C175.263 20.528 175.355 20.512 175.439 20.488C175.659 20.428 175.829 20.328 175.949 20.188C176.069 20.044 176.151 19.886 176.195 19.714C176.243 19.538 176.267 19.372 176.267 19.216C176.267 19.06 176.243 18.896 176.195 18.724C176.151 18.548 176.069 18.39 175.949 18.25C175.829 18.106 175.659 18.004 175.439 17.944C175.355 17.92 175.263 17.904 175.163 17.896C175.063 17.888 174.971 17.884 174.887 17.884H172.943V20.548ZM184.537 25.18C183.897 25.18 183.319 25.068 182.803 24.844C182.291 24.616 181.869 24.292 181.537 23.872C181.209 23.448 181.001 22.944 180.913 22.36L182.617 22.108C182.737 22.604 182.985 22.986 183.361 23.254C183.737 23.522 184.165 23.656 184.645 23.656C184.913 23.656 185.173 23.614 185.425 23.53C185.677 23.446 185.883 23.322 186.043 23.158C186.207 22.994 186.289 22.792 186.289 22.552C186.289 22.464 186.275 22.38 186.247 22.3C186.223 22.216 186.181 22.138 186.121 22.066C186.061 21.994 185.975 21.926 185.863 21.862C185.755 21.798 185.617 21.74 185.449 21.688L183.205 21.028C183.037 20.98 182.841 20.912 182.617 20.824C182.397 20.736 182.183 20.61 181.975 20.446C181.767 20.282 181.593 20.066 181.453 19.798C181.317 19.526 181.249 19.184 181.249 18.772C181.249 18.192 181.395 17.71 181.687 17.326C181.979 16.942 182.369 16.656 182.857 16.468C183.345 16.28 183.885 16.188 184.477 16.192C185.073 16.2 185.605 16.302 186.073 16.498C186.541 16.694 186.933 16.98 187.249 17.356C187.565 17.728 187.793 18.184 187.933 18.724L186.169 19.024C186.105 18.744 185.987 18.508 185.815 18.316C185.643 18.124 185.437 17.978 185.197 17.878C184.961 17.778 184.713 17.724 184.453 17.716C184.197 17.708 183.955 17.744 183.727 17.824C183.503 17.9 183.319 18.012 183.175 18.16C183.035 18.308 182.965 18.484 182.965 18.688C182.965 18.876 183.023 19.03 183.139 19.15C183.255 19.266 183.401 19.36 183.577 19.432C183.753 19.504 183.933 19.564 184.117 19.612L185.617 20.02C185.841 20.08 186.089 20.16 186.361 20.26C186.633 20.356 186.893 20.492 187.141 20.668C187.393 20.84 187.599 21.068 187.759 21.352C187.923 21.636 188.005 21.996 188.005 22.432C188.005 22.896 187.907 23.302 187.711 23.65C187.519 23.994 187.259 24.28 186.931 24.508C186.603 24.732 186.231 24.9 185.815 25.012C185.403 25.124 184.977 25.18 184.537 25.18ZM189.084 25V16.36H194.724V17.884H190.716V19.732H194.004V21.256H190.716V23.476H194.724V25H189.084ZM196.042 25V16.36H197.674V23.476H201.394V25H196.042ZM202.294 25V16.36H203.926V23.476H207.646V25H202.294ZM208.426 25V16.36H214.066V17.884H210.058V19.732H213.346V21.256H210.058V23.476H214.066V25H208.426ZM215.264 25V16.36H218.912C218.996 16.36 219.108 16.364 219.248 16.372C219.392 16.376 219.52 16.388 219.632 16.408C220.148 16.488 220.57 16.658 220.898 16.918C221.23 17.178 221.474 17.506 221.63 17.902C221.786 18.294 221.864 18.732 221.864 19.216C221.864 19.94 221.684 20.56 221.324 21.076C220.964 21.588 220.4 21.904 219.632 22.024L218.912 22.072H216.896V25H215.264ZM220.136 25L218.432 21.484L220.112 21.16L221.984 25H220.136ZM216.896 20.548H218.84C218.924 20.548 219.016 20.544 219.116 20.536C219.216 20.528 219.308 20.512 219.392 20.488C219.612 20.428 219.782 20.328 219.902 20.188C220.022 20.044 220.104 19.886 220.148 19.714C220.196 19.538 220.22 19.372 220.22 19.216C220.22 19.06 220.196 18.896 220.148 18.724C220.104 18.548 220.022 18.39 219.902 18.25C219.782 18.106 219.612 18.004 219.392 17.944C219.308 17.92 219.216 17.904 219.116 17.896C219.016 17.888 218.924 17.884 218.84 17.884H216.896V20.548ZM225.379 24.124L224.371 23.116L226.339 21.22L224.371 19.324L225.379 18.316L228.283 21.22L225.379 24.124Z" fill="#33AAD7"/>
<defs>
<linearGradient id="paint0_linear_6949_44183" x1="2.03799" y1="14.2474" x2="63.1227" y2="9.11686" gradientUnits="userSpaceOnUse">
<stop stop-color="#E80D8B"/>
<stop offset="0.45" stop-color="#E60E8B"/>
<stop offset="0.62" stop-color="#DF148E"/>
<stop offset="0.73" stop-color="#D31E93"/>
<stop offset="0.83" stop-color="#C22D9A"/>
<stop offset="0.91" stop-color="#AC40A4"/>
<stop offset="0.98" stop-color="#9257AF"/>
<stop offset="1" stop-color="#8761B4"/>
</linearGradient>
<linearGradient id="paint1_linear_6949_44183" x1="48.7907" y1="21.4012" x2="73.7762" y2="3.09216" gradientUnits="userSpaceOnUse">
<stop offset="0.13" stop-color="#E80D8B"/>
<stop offset="0.41" stop-color="#AA43A5"/>
<stop offset="0.55" stop-color="#8760B3"/>
<stop offset="0.67" stop-color="#6E76BE"/>
<stop offset="0.75" stop-color="#657FC2"/>
</linearGradient>
<linearGradient id="paint2_linear_6949_44183" x1="71.6387" y1="21.275" x2="88.6475" y2="7.69034" gradientUnits="userSpaceOnUse">
<stop offset="0.08" stop-color="#8761B4"/>
<stop offset="0.42" stop-color="#5B87C6"/>
<stop offset="0.61" stop-color="#4A97CE"/>
<stop offset="0.83" stop-color="#38A6D5"/>
<stop offset="1" stop-color="#31ACD9"/>
</linearGradient>
<linearGradient id="paint3_linear_6949_44183" x1="100.243" y1="28.4015" x2="100.243" y2="8.19802" gradientUnits="userSpaceOnUse">
<stop stop-color="#8562B4"/>
<stop offset="0.11" stop-color="#667DC1"/>
<stop offset="0.23" stop-color="#4F91CC"/>
<stop offset="0.35" stop-color="#3EA0D3"/>
<stop offset="0.48" stop-color="#34A9D7"/>
<stop offset="0.65" stop-color="#31ACD9"/>
</linearGradient>
<linearGradient id="paint4_linear_6949_44183" x1="118.844" y1="27.1201" x2="118.94" y2="16.3113" gradientUnits="userSpaceOnUse">
<stop stop-color="#8761B4"/>
<stop offset="0.07" stop-color="#7372BC"/>
<stop offset="0.18" stop-color="#5B87C6"/>
<stop offset="0.3" stop-color="#4897CF"/>
<stop offset="0.44" stop-color="#3AA3D4"/>
<stop offset="0.63" stop-color="#33AAD8"/>
<stop offset="0.99" stop-color="#31ACD9"/>
</linearGradient>
<linearGradient id="paint5_linear_6949_44183" x1="137.262" y1="35.2635" x2="136.403" y2="15.5113" gradientUnits="userSpaceOnUse">
<stop stop-color="#8761B4"/>
<stop offset="0.06" stop-color="#7570BB"/>
<stop offset="0.18" stop-color="#5C85C6"/>
<stop offset="0.31" stop-color="#4996CE"/>
<stop offset="0.46" stop-color="#3BA2D4"/>
<stop offset="0.65" stop-color="#33A9D7"/>
<stop offset="0.99" stop-color="#31ACD9"/>
</linearGradient>
</defs>
</svg>
