<svg width="230" height="36" viewBox="0 0 230 36" fill="none" xmlns="http://www.w3.org/2000/svg">
<path fill-rule="evenodd" clip-rule="evenodd" d="M26.3165 30.4371C26.3195 31.5876 26.3224 32.7382 26.3243 33.8888V33.8897H29.512C29.5169 33.1375 29.5219 32.3853 29.527 31.633C29.5438 29.1196 29.5607 26.6059 29.5721 24.0921C29.5768 23.1105 29.577 22.6271 29.7903 22.4992C29.9979 22.3747 30.4073 22.5867 31.2191 23.0037C31.6195 23.2089 32.0255 23.4066 32.4407 23.5789C38.1771 25.9526 44.7864 23.256 47.0956 17.6049C49.4584 11.8201 46.8431 5.29238 41.0466 2.87828C35.855 0.715565 31.2755 2.83308 27.6615 6.11999C27.3878 6.36856 27.3517 6.64349 27.5284 7.00504C28.1563 8.28836 28.8684 8.4842 29.9429 7.58785C32.019 5.85542 34.3263 4.5947 37.072 4.72181C40.6508 4.88846 43.3466 6.67173 44.6514 10.0754C45.8573 13.2201 45.4486 16.3018 43.1671 18.891C40.7461 21.6375 37.662 22.2871 34.2274 21.3607C32.0764 20.7807 30.3729 19.4371 28.7796 17.9109C27.324 16.5168 26.0344 14.9708 24.7449 13.4249C23.4252 11.8427 22.1056 10.2607 20.6083 8.84198C18.9141 7.23666 17.0683 5.91945 14.7323 5.44209C10.3276 4.54292 6.23645 7.40143 5.35144 12.0197C4.57648 16.0636 7.53575 20.2591 11.7083 21.0528C15.019 21.6836 17.5501 20.1084 19.9647 18.1368C20.7313 17.5107 20.5362 17.0061 19.9711 16.4006C19.9342 16.3611 19.898 16.3216 19.8623 16.2827C19.385 15.7625 18.9893 15.3312 18.203 16.0862C17.0387 17.2047 15.6654 18.0417 14.0517 18.3647C11.1387 18.9484 8.3292 16.8432 7.99351 13.8397C7.65227 10.7872 9.88004 8.20456 12.8791 8.06709C15.252 7.95882 17.0267 9.13009 18.6469 10.6507C20.132 12.0444 21.4416 13.6005 22.7512 15.1566C23.6401 16.2128 24.5289 17.269 25.4726 18.2743C26.0866 18.9277 26.3206 19.6066 26.316 20.4897C26.2995 23.8058 26.308 27.1213 26.3165 30.4371ZM21.6191 5.39689C19.1647 3.42625 16.5143 1.96216 13.0455 2.07138C8.57242 2.06479 4.55244 4.73405 2.84624 8.98227C1.11785 13.2832 2.06389 18.1463 5.43837 21.3061C10.7031 26.235 17.3781 25.1353 22.3672 20.3156C22.5975 20.0934 22.6326 19.8457 22.4976 19.5313C21.8891 18.1095 21.1188 17.9099 19.936 18.8938C17.8266 20.6489 15.5221 21.822 12.6802 21.7194C8.60201 21.5725 4.98339 18.0935 4.76699 14.0054C4.51823 9.29768 7.48951 5.46186 11.7832 4.8508C14.8331 4.41769 17.404 5.45338 19.7529 7.29032C21.7042 8.81636 23.2744 10.7089 24.844 12.6006C25.2441 13.0829 25.6442 13.5651 26.0506 14.0412C28.0324 16.363 30.0336 18.6443 32.7616 20.1273C36.9397 22.3982 41.9955 20.8315 43.9458 16.6341C45.8703 12.4914 44.0124 7.56525 39.85 5.89873C36.0917 4.39415 33.0104 5.85448 30.1538 8.25446C29.4426 8.85139 29.5055 9.35606 30.077 10.0114C30.6439 10.662 31.1331 10.9896 31.8896 10.2618C32.7857 9.40031 33.8362 8.75347 35.0134 8.34767C37.2024 7.59256 39.6142 8.24787 40.9116 9.93228C42.2692 11.6958 42.3922 14.2539 41.2085 16.0965C39.9684 18.0286 37.7369 18.8684 35.4111 18.2988C34.2727 18.021 33.2989 17.4335 32.3668 16.7481C30.9292 15.6907 29.7836 14.3441 28.6384 12.9981C28.3713 12.6842 28.1043 12.3703 27.8335 12.0602C27.3648 11.5231 26.9056 10.9771 26.4464 10.4311C24.9469 8.64831 23.4478 6.86589 21.6191 5.39689Z" fill="white"/>
<path d="M66.7377 13.062V24.5704H63.6786V13.062C63.6786 8.51908 61.7661 6.52961 58.4518 6.52961C55.1374 6.52961 53.0123 8.73563 53.0123 13.3219V24.5704H49.9531V3.71724H53.0123V6.13981C54.4568 4.45258 56.4543 3.41406 58.9613 3.41406C62.9979 3.41406 66.7377 5.40447 66.7377 13.062Z" fill="white"/>
<path d="M85.944 18.731L88.6212 20.0717C86.9215 23.0141 83.9049 24.8736 80.2077 24.8736C74.3437 24.8736 70.3496 20.1141 70.3496 14.1871C70.3496 8.26016 74.3437 3.41406 80.1651 3.41406C83.9049 3.41406 86.9215 5.36116 88.6212 8.30253L85.944 9.59996C84.7113 7.69618 82.7147 6.44205 80.1651 6.44205C76.0009 6.44205 73.4513 9.90314 73.4513 14.1862C73.4513 18.4692 76.0009 21.8437 80.2077 21.8437C82.7147 21.8437 84.7122 20.6753 85.944 18.7291V18.731Z" fill="white"/>
<path d="M110.165 14.1871C110.165 20.1574 106.043 24.916 100.179 24.916C94.3149 24.916 90.3208 20.1565 90.3208 14.1871C90.3208 8.21779 94.3574 3.41406 100.179 3.41406C106 3.41406 110.165 8.2159 110.165 14.1871ZM107.063 14.1871C107.063 9.90408 104.386 6.44299 100.179 6.44299C95.9721 6.44299 93.4225 9.90408 93.4225 14.1871C93.4225 18.4702 95.9721 21.8447 100.179 21.8447C104.386 21.8447 107.063 18.4702 107.063 14.1871Z" fill="white"/>
<path d="M124.315 3.50163L123.72 6.65954C123.295 6.57292 122.828 6.52961 122.318 6.52961C119.174 6.52961 116.879 8.73563 116.879 13.3219V24.5704H113.777V3.71724H116.879V6.13981C118.28 4.45258 120.321 3.41406 122.785 3.41406C123.295 3.41406 123.805 3.45737 124.315 3.50068V3.50163Z" fill="white"/>
<path d="M146.496 14.1862C146.496 20.1565 142.757 24.915 136.893 24.915C134.003 24.915 131.708 23.7033 130.136 21.7571V34.0009H127.077V3.7163H130.136V6.57198C131.708 4.62488 134.004 3.41406 136.893 3.41406C142.757 3.41406 146.496 8.2159 146.496 14.1871V14.1862ZM143.395 14.1862C143.395 9.90314 141.1 6.44205 136.894 6.44205C132.687 6.44205 130.307 9.90314 130.307 14.1862C130.307 18.4692 132.729 21.8437 136.894 21.8437C141.058 21.8437 143.395 18.4692 143.395 14.1862Z" fill="white"/>
<path d="M152.662 22.282L150 19.62L152.662 16.958L153.586 17.882L151.782 19.62L153.586 21.358L152.662 22.282Z" fill="white"/>
<path d="M156.1 23.085V15.165H160.94V16.661H157.596V18.377H160.28V19.873H157.596V23.085H156.1Z" fill="white"/>
<path d="M165.112 23.25C164.32 23.25 163.636 23.0777 163.06 22.733C162.488 22.3883 162.047 21.9062 161.735 21.2865C161.427 20.6668 161.273 19.9463 161.273 19.125C161.273 18.3037 161.427 17.5832 161.735 16.9635C162.047 16.3438 162.488 15.8617 163.06 15.517C163.636 15.1723 164.32 15 165.112 15C165.904 15 166.586 15.1723 167.158 15.517C167.734 15.8617 168.175 16.3438 168.483 16.9635C168.795 17.5832 168.951 18.3037 168.951 19.125C168.951 19.9463 168.795 20.6668 168.483 21.2865C168.175 21.9062 167.734 22.3883 167.158 22.733C166.586 23.0777 165.904 23.25 165.112 23.25ZM165.112 21.842C165.614 21.8493 166.032 21.7412 166.366 21.5175C166.7 21.2938 166.949 20.9767 167.114 20.566C167.283 20.1553 167.367 19.675 167.367 19.125C167.367 18.575 167.283 18.0983 167.114 17.695C166.949 17.2917 166.7 16.9782 166.366 16.7545C166.032 16.5308 165.614 16.4153 165.112 16.408C164.61 16.4007 164.192 16.5088 163.858 16.7325C163.524 16.9562 163.273 17.2733 163.104 17.684C162.939 18.0947 162.857 18.575 162.857 19.125C162.857 19.675 162.939 20.1517 163.104 20.555C163.273 20.9583 163.524 21.2718 163.858 21.4955C164.192 21.7192 164.61 21.8347 165.112 21.842Z" fill="white"/>
<path d="M169.829 23.085V15.165H173.173C173.25 15.165 173.352 15.1687 173.481 15.176C173.613 15.1797 173.73 15.1907 173.833 15.209C174.306 15.2823 174.693 15.4382 174.993 15.6765C175.298 15.9148 175.521 16.2155 175.664 16.5785C175.807 16.9378 175.879 17.3393 175.879 17.783C175.879 18.4467 175.714 19.015 175.384 19.488C175.054 19.9573 174.537 20.247 173.833 20.357L173.173 20.401H171.325V23.085H169.829ZM174.295 23.085L172.733 19.862L174.273 19.565L175.989 23.085H174.295ZM171.325 19.004H173.107C173.184 19.004 173.268 19.0003 173.36 18.993C173.451 18.9857 173.536 18.971 173.613 18.949C173.814 18.894 173.97 18.8023 174.08 18.674C174.19 18.542 174.265 18.3972 174.306 18.2395C174.35 18.0782 174.372 17.926 174.372 17.783C174.372 17.64 174.35 17.4897 174.306 17.332C174.265 17.1707 174.19 17.0258 174.08 16.8975C173.97 16.7655 173.814 16.672 173.613 16.617C173.536 16.595 173.451 16.5803 173.36 16.573C173.268 16.5657 173.184 16.562 173.107 16.562H171.325V19.004Z" fill="white"/>
<path d="M181.952 23.25C181.365 23.25 180.836 23.1473 180.363 22.942C179.893 22.733 179.506 22.436 179.202 22.051C178.901 21.6623 178.711 21.2003 178.63 20.665L180.192 20.434C180.302 20.8887 180.529 21.2388 180.874 21.4845C181.219 21.7302 181.611 21.853 182.051 21.853C182.297 21.853 182.535 21.8145 182.766 21.7375C182.997 21.6605 183.186 21.5468 183.333 21.3965C183.483 21.2462 183.558 21.061 183.558 20.841C183.558 20.7603 183.545 20.6833 183.52 20.61C183.498 20.533 183.459 20.4615 183.404 20.3955C183.349 20.3295 183.27 20.2672 183.168 20.2085C183.069 20.1498 182.942 20.0967 182.788 20.049L180.731 19.444C180.577 19.4 180.397 19.3377 180.192 19.257C179.99 19.1763 179.794 19.0608 179.604 18.9105C179.413 18.7602 179.253 18.5622 179.125 18.3165C179 18.0672 178.938 17.7537 178.938 17.376C178.938 16.8443 179.072 16.4025 179.34 16.0505C179.607 15.6985 179.965 15.4363 180.412 15.264C180.859 15.0917 181.354 15.0073 181.897 15.011C182.443 15.0183 182.931 15.1118 183.36 15.2915C183.789 15.4712 184.148 15.7333 184.438 16.078C184.728 16.419 184.937 16.837 185.065 17.332L183.448 17.607C183.389 17.3503 183.281 17.134 183.124 16.958C182.966 16.782 182.777 16.6482 182.557 16.5565C182.341 16.4648 182.113 16.4153 181.875 16.408C181.64 16.4007 181.419 16.4337 181.21 16.507C181.004 16.5767 180.836 16.6793 180.704 16.815C180.575 16.9507 180.511 17.112 180.511 17.299C180.511 17.4713 180.564 17.6125 180.671 17.7225C180.777 17.8288 180.911 17.915 181.072 17.981C181.233 18.047 181.398 18.102 181.567 18.146L182.942 18.52C183.147 18.575 183.375 18.6483 183.624 18.74C183.873 18.828 184.112 18.9527 184.339 19.114C184.57 19.2717 184.759 19.4807 184.906 19.741C185.056 20.0013 185.131 20.3313 185.131 20.731C185.131 21.1563 185.041 21.5285 184.862 21.8475C184.686 22.1628 184.447 22.425 184.147 22.634C183.846 22.8393 183.505 22.9933 183.124 23.096C182.746 23.1987 182.355 23.25 181.952 23.25Z" fill="white"/>
<path d="M186.12 23.085V15.165H191.29V16.562H187.616V18.256H190.63V19.653H187.616V21.688H191.29V23.085H186.12Z" fill="white"/>
<path d="M192.498 23.085V15.165H193.994V21.688H197.404V23.085H192.498Z" fill="white"/>
<path d="M198.229 23.085V15.165H199.725V21.688H203.135V23.085H198.229Z" fill="white"/>
<path d="M203.851 23.085V15.165H209.021V16.562H205.347V18.256H208.361V19.653H205.347V21.688H209.021V23.085H203.851Z" fill="white"/>
<path d="M210.119 23.085V15.165H213.463C213.54 15.165 213.643 15.1687 213.771 15.176C213.903 15.1797 214.02 15.1907 214.123 15.209C214.596 15.2823 214.983 15.4382 215.283 15.6765C215.588 15.9148 215.811 16.2155 215.954 16.5785C216.097 16.9378 216.169 17.3393 216.169 17.783C216.169 18.4467 216.004 19.015 215.674 19.488C215.344 19.9573 214.827 20.247 214.123 20.357L213.463 20.401H211.615V23.085H210.119ZM214.585 23.085L213.023 19.862L214.563 19.565L216.279 23.085H214.585ZM211.615 19.004H213.397C213.474 19.004 213.558 19.0003 213.65 18.993C213.742 18.9857 213.826 18.971 213.903 18.949C214.105 18.894 214.26 18.8023 214.37 18.674C214.48 18.542 214.556 18.3972 214.596 18.2395C214.64 18.0782 214.662 17.926 214.662 17.783C214.662 17.64 214.64 17.4897 214.596 17.332C214.556 17.1707 214.48 17.0258 214.37 16.8975C214.26 16.7655 214.105 16.672 213.903 16.617C213.826 16.595 213.742 16.5803 213.65 16.573C213.558 16.5657 213.474 16.562 213.397 16.562H211.615V19.004Z" fill="white"/>
<path d="M219.391 22.282L218.467 21.358L220.271 19.62L218.467 17.882L219.391 16.958L222.053 19.62L219.391 22.282Z" fill="white"/>
</svg>
