<svg width="154" height="14" viewBox="0 0 154 14" fill="none" xmlns="http://www.w3.org/2000/svg">
<path d="M2.42717 8.70444H5.60662V10.4219H0V1.28809H2.42717V8.70444Z" fill="black"/>
<path d="M10.3696 10.526C9.59367 10.526 8.89343 10.3742 8.2689 10.0706C7.65382 9.76703 7.1665 9.33333 6.80692 8.76951C6.4568 8.20569 6.28174 7.54646 6.28174 6.79182C6.28174 6.04584 6.46153 5.39095 6.82111 4.82713C7.18069 4.25464 7.67275 3.8166 8.29728 3.51301C8.92182 3.20941 9.62205 3.05762 10.398 3.05762C11.1739 3.05762 11.8742 3.20941 12.4987 3.51301C13.1232 3.8166 13.6153 4.25464 13.9749 4.82713C14.3345 5.39095 14.5142 6.04584 14.5142 6.79182C14.5142 7.53779 14.3297 8.19702 13.9607 8.76951C13.6011 9.33333 13.1043 9.76703 12.4703 10.0706C11.8458 10.3742 11.1455 10.526 10.3696 10.526ZM10.3696 8.60036C10.8333 8.60036 11.226 8.44423 11.5477 8.13196C11.8789 7.8197 12.0445 7.37298 12.0445 6.79182C12.0445 6.21065 11.8836 5.76394 11.5619 5.45167C11.2496 5.1394 10.8617 4.98327 10.398 4.98327C9.92486 4.98327 9.53216 5.1394 9.21989 5.45167C8.90762 5.75526 8.75149 6.20198 8.75149 6.79182C8.75149 7.37298 8.90289 7.8197 9.2057 8.13196C9.51797 8.44423 9.90593 8.60036 10.3696 8.60036Z" fill="black"/>
<path d="M18.8111 3.05762C19.3693 3.05762 19.8567 3.16171 20.273 3.36988C20.6989 3.57806 21.0253 3.8513 21.2524 4.18959V3.16171H23.6796V10.4089C23.6796 11.0768 23.5329 11.6797 23.2396 12.2175C22.9557 12.7639 22.5157 13.1976 21.9195 13.5186C21.3328 13.8395 20.5995 14 19.7195 14C18.5461 14 17.5951 13.7441 16.8665 13.2323C16.1379 12.7292 15.7215 12.044 15.6174 11.1766H18.0162C18.0919 11.4541 18.2717 11.671 18.5556 11.8271C18.8394 11.9919 19.1896 12.0743 19.6059 12.0743C20.1074 12.0743 20.5049 11.9399 20.7982 11.671C21.101 11.4108 21.2524 10.9901 21.2524 10.4089V9.38103C21.0159 9.71932 20.6894 9.99689 20.273 10.2137C19.8567 10.4219 19.3693 10.526 18.8111 10.526C18.1581 10.526 17.5667 10.3742 17.0368 10.0706C16.5069 9.75836 16.0858 9.32031 15.7735 8.7565C15.4707 8.18401 15.3193 7.52478 15.3193 6.7788C15.3193 6.03283 15.4707 5.37794 15.7735 4.81412C16.0858 4.25031 16.5069 3.8166 17.0368 3.51301C17.5667 3.20941 18.1581 3.05762 18.8111 3.05762ZM21.2524 6.79182C21.2524 6.23667 21.0821 5.79863 20.7414 5.47769C20.4102 5.15675 20.0033 4.99628 19.5208 4.99628C19.0382 4.99628 18.6265 5.15675 18.2859 5.47769C17.9547 5.78996 17.7891 6.22366 17.7891 6.7788C17.7891 7.33395 17.9547 7.77633 18.2859 8.10594C18.6265 8.42688 19.0382 8.58735 19.5208 8.58735C20.0033 8.58735 20.4102 8.42688 20.7414 8.10594C21.0821 7.785 21.2524 7.34696 21.2524 6.79182Z" fill="black"/>
<path d="M29.6641 2.40706C29.2383 2.40706 28.8882 2.2943 28.6137 2.06877C28.3488 1.83457 28.2163 1.54833 28.2163 1.21004C28.2163 0.863073 28.3488 0.576828 28.6137 0.351302C28.8882 0.117101 29.2383 0 29.6641 0C30.0805 0 30.4211 0.117101 30.6861 0.351302C30.9605 0.576828 31.0977 0.863073 31.0977 1.21004C31.0977 1.54833 30.9605 1.83457 30.6861 2.06877C30.4211 2.2943 30.0805 2.40706 29.6641 2.40706ZM30.8706 3.16171V10.4219H28.4434V3.16171H30.8706Z" fill="black"/>
<path d="M37.4553 3.08374C38.3827 3.08374 39.1208 3.36131 39.6696 3.91645C40.2279 4.46292 40.5071 5.21757 40.5071 6.18039V10.422H38.0941V6.47965C38.0941 5.9939 37.9569 5.61658 37.6825 5.34768C37.408 5.07878 37.039 4.94433 36.5753 4.94433C36.1117 4.94433 35.7426 5.07878 35.4682 5.34768C35.1938 5.61658 35.0566 5.9939 35.0566 6.47965V10.422H32.6294V3.16181H35.0566V4.12463C35.3026 3.80369 35.6338 3.55214 36.0501 3.36999C36.4665 3.17916 36.9349 3.08374 37.4553 3.08374Z" fill="black"/>
<path d="M56.571 3.16162L54.4278 10.4218H51.7451L50.496 5.7118L49.2044 10.4218H46.5359L44.3784 3.16162H46.8056L47.9269 8.35307L49.2611 3.16162H51.8303L53.1787 8.32704L54.2858 3.16162H56.571Z" fill="black"/>
<path d="M58.7173 2.40706C58.2915 2.40706 57.9414 2.2943 57.667 2.06877C57.402 1.83457 57.2695 1.54833 57.2695 1.21004C57.2695 0.863073 57.402 0.576828 57.667 0.351302C57.9414 0.117101 58.2915 0 58.7173 0C59.1337 0 59.4743 0.117101 59.7393 0.351302C60.0137 0.576828 60.1509 0.863073 60.1509 1.21004C60.1509 1.54833 60.0137 1.83457 59.7393 2.06877C59.4743 2.2943 59.1337 2.40706 58.7173 2.40706ZM59.9238 3.16171V10.4219H57.4966V3.16171H59.9238Z" fill="black"/>
<path d="M66.0972 8.53521V10.4218H64.8622C63.9822 10.4218 63.2962 10.2267 62.8041 9.83632C62.3121 9.43732 62.066 8.79109 62.066 7.89766V5.00919H61.1008V3.16161H62.066V1.39209H64.4932V3.16161H66.083V5.00919H64.4932V7.92369C64.4932 8.14054 64.55 8.29667 64.6635 8.39209C64.7771 8.4875 64.9663 8.53521 65.2313 8.53521H66.0972Z" fill="black"/>
<path d="M72.3173 3.08366C73.2257 3.08366 73.9543 3.36123 74.5031 3.91638C75.052 4.46284 75.3264 5.21749 75.3264 6.18032V10.4219H72.9134V6.47957C72.9134 5.99382 72.7762 5.6165 72.5018 5.3476C72.2274 5.0787 71.8583 4.94426 71.3947 4.94426C70.931 4.94426 70.5619 5.0787 70.2875 5.3476C70.0131 5.6165 69.8759 5.99382 69.8759 6.47957V10.4219H67.4487V0.793701H69.8759V4.13756C70.1219 3.81662 70.4579 3.56074 70.8837 3.36991C71.3095 3.17908 71.7874 3.08366 72.3173 3.08366Z" fill="black"/>
<path d="M84.4334 10.6109C86.7045 10.6109 88.086 9.52292 88.086 7.79728C88.086 6.61565 87.2982 5.8091 85.6714 5.48086L84.0754 5.15254C83.4714 5.02128 83.1544 4.8431 83.1544 4.51486C83.1544 4.18661 83.4509 3.98024 84.1771 3.98024C85.0193 4.0072 85.8236 4.30617 86.449 4.8243L87.7887 3.02371C86.7344 2.34749 85.4625 2.01708 84.1771 2.08582C82.0496 2.08582 80.6168 3.0237 80.6168 4.68364C80.6034 5.2729 80.8305 5.84553 81.2548 6.28835C81.6798 6.73116 82.2696 7.01191 82.9091 7.07516L84.4949 7.42219C85.2827 7.58158 85.5177 7.79728 85.5177 8.07868C85.5177 8.36001 85.2007 8.63201 84.4949 8.63201C83.4942 8.61402 82.5298 8.2831 81.7626 7.69413L80.3408 9.43856C81.5118 10.2593 82.9612 10.6745 84.4334 10.6109Z" fill="#F4333D"/>
<path d="M90.7348 4.85153C91.0431 4.85153 91.3444 4.76768 91.5999 4.61068C91.8561 4.4536 92.0556 4.23039 92.1724 3.96937C92.2898 3.70835 92.3206 3.42124 92.2591 3.14446C92.1984 2.86769 92.0493 2.61368 91.8309 2.41468C91.6125 2.21576 91.3341 2.08073 91.0321 2.02674C90.7301 1.97281 90.417 2.00238 90.1332 2.11174C89.8485 2.22103 89.6064 2.40522 89.4369 2.64086C89.2673 2.87658 89.1782 3.15307 89.1798 3.43541C89.1774 3.62291 89.2153 3.80897 89.2926 3.98253C89.3698 4.15615 89.485 4.31366 89.6301 4.4458C89.7751 4.57793 89.9478 4.68195 90.1371 4.7517C90.3271 4.82138 90.5306 4.85536 90.7348 4.85153Z" fill="black"/>
<path d="M89.0583 10.4221H92.4137L91.7079 5.32959C91.0739 5.47965 90.4084 5.47965 89.7744 5.32959L89.0583 10.4221Z" fill="black"/>
<path d="M93.9885 10.4213H96.7098V6.01339C96.7098 4.93491 97.2823 4.26903 98.3879 4.26903C99.4926 4.26903 99.9942 4.82236 99.9942 6.01339V10.4213H102.674V5.39442C102.674 3.19987 101.477 2.07448 99.4311 2.07448C98.8981 2.05323 98.3682 2.15761 97.8919 2.37757C97.4156 2.5976 97.0087 2.92591 96.7098 3.33121V2.806C96.7177 2.72909 96.7067 2.65145 96.6783 2.57881C96.6499 2.50609 96.6042 2.44002 96.5442 2.38545C96.4851 2.3308 96.4125 2.28887 96.3337 2.26271C96.254 2.23647 96.1697 2.22664 96.0853 2.23387H94.0398L93.9885 10.4213Z" fill="#F4333D"/>
<path d="M111.442 2.23486C111.358 2.22763 111.273 2.23746 111.194 2.2637C111.115 2.28987 111.043 2.33179 110.983 2.38644C110.923 2.44101 110.877 2.50708 110.849 2.5798C110.821 2.65245 110.81 2.73008 110.818 2.80699V3.30401C110.52 2.90211 110.114 2.5777 109.639 2.36237C109.164 2.14711 108.636 2.04822 108.107 2.07547C107.005 2.17262 105.983 2.6424 105.239 3.39321C104.495 4.14403 104.083 5.12196 104.083 6.13632C104.083 7.15069 104.495 8.12862 105.239 8.87943C105.983 9.63025 107.005 10.1 108.107 10.1972C108.618 10.2267 109.131 10.1453 109.602 9.95965C110.072 9.77388 110.49 9.48901 110.818 9.12802V9.67203C110.818 9.92893 110.762 10.1832 110.65 10.4192C110.539 10.655 110.377 10.8675 110.173 11.0433C109.968 11.2192 109.726 11.3547 109.463 11.4415C109.199 11.5282 108.919 11.5644 108.639 11.5477C107.634 11.5656 106.66 11.23 105.917 10.6098L104.515 12.4855C105.709 13.3128 107.185 13.7249 108.68 13.6485C111.36 13.6485 113.54 12.4199 113.54 9.33439V2.23486H111.442ZM108.823 8.03075C108.418 8.03075 108.023 7.9208 107.686 7.71465C107.349 7.50857 107.087 7.2156 106.932 6.8729C106.778 6.53013 106.737 6.15302 106.816 5.78914C106.895 5.42534 107.09 5.0911 107.376 4.82878C107.662 4.56646 108.027 4.38784 108.424 4.31541C108.821 4.24306 109.232 4.28021 109.606 4.42218C109.98 4.56414 110.299 4.80456 110.524 5.113C110.749 5.42143 110.869 5.78408 110.869 6.15512C110.869 6.65258 110.654 7.12965 110.27 7.48139C109.886 7.83319 109.366 8.03075 108.823 8.03075Z" fill="#F4333D"/>
<path d="M121.03 2.07478C120.485 2.05266 119.941 2.15299 119.447 2.3671C118.953 2.5812 118.524 2.90258 118.196 3.30339V2.8063C118.204 2.72938 118.193 2.65183 118.165 2.57911C118.136 2.50639 118.091 2.44039 118.031 2.38575C117.972 2.3311 117.899 2.28917 117.82 2.26301C117.741 2.23684 117.656 2.22701 117.573 2.23424H115.526V13.4227H118.196V9.52128C118.552 9.88299 118.99 10.1681 119.48 10.3562C119.971 10.5442 120.5 10.6306 121.03 10.6092C121.616 10.5955 122.192 10.4728 122.724 10.2487C123.256 10.0245 123.732 9.70358 124.125 9.30536C124.517 8.90708 124.816 8.43983 125.006 7.93204C125.195 7.42424 125.27 6.88645 125.225 6.35133C125.273 5.81483 125.2 5.27502 125.013 4.76498C124.824 4.25494 124.525 3.78538 124.133 3.38508C123.74 2.98477 123.262 2.66209 122.729 2.43685C122.195 2.21154 121.617 2.0883 121.03 2.07478ZM120.314 8.424C119.857 8.44084 119.404 8.33184 119.016 8.11108C118.627 7.89033 118.319 7.56787 118.132 7.1852C117.944 6.8026 117.886 6.37728 117.965 5.9641C118.043 5.55092 118.255 5.16876 118.573 4.86683C118.89 4.5649 119.299 4.35701 119.747 4.26991C120.194 4.18288 120.66 4.22053 121.083 4.37826C121.508 4.53591 121.87 4.80633 122.125 5.15459C122.38 5.50293 122.515 5.91321 122.514 6.33261C122.53 6.60461 122.484 6.87669 122.38 7.13185C122.276 7.38701 122.116 7.61991 121.909 7.81602C121.703 8.01213 121.455 8.16725 121.18 8.27184C120.906 8.37644 120.611 8.42819 120.314 8.424Z" fill="#F4333D"/>
<path d="M134.075 2.23463C133.99 2.2274 133.906 2.23716 133.826 2.2634C133.747 2.28957 133.675 2.33149 133.616 2.38614C133.556 2.44078 133.51 2.50678 133.482 2.5795C133.453 2.65222 133.442 2.72978 133.45 2.80669V3.30378C133.118 2.89617 132.68 2.57061 132.176 2.35614C131.673 2.14175 131.119 2.04517 130.565 2.07517C129.98 2.08891 129.404 2.2115 128.872 2.43565C128.34 2.65981 127.863 2.98075 127.471 3.37903C127.078 3.77725 126.779 4.24449 126.59 4.75236C126.4 5.26016 126.325 5.79795 126.37 6.333C126.325 6.86804 126.4 7.40584 126.59 7.91363C126.779 8.4215 127.078 8.88868 127.471 9.28696C127.863 9.68525 128.34 10.0062 128.872 10.2303C129.404 10.4545 129.98 10.5771 130.565 10.5908C131.119 10.6183 131.672 10.5206 132.175 10.3064C132.678 10.0922 133.116 9.76794 133.45 9.36221V10.422H136.13V2.23463H134.075ZM131.281 8.42439C130.701 8.38883 130.158 8.15246 129.76 7.76328C129.364 7.37411 129.142 6.86118 129.142 6.3283C129.142 5.79542 129.364 5.28249 129.76 4.89331C130.158 4.50414 130.701 4.26784 131.281 4.2322C131.861 4.26784 132.404 4.50414 132.802 4.89331C133.199 5.28249 133.42 5.79542 133.42 6.3283C133.42 6.86118 133.199 7.37411 132.802 7.76328C132.404 8.15246 131.861 8.38883 131.281 8.42439Z" fill="#F4333D"/>
<path d="M141.554 10.6099C143.825 10.6099 145.207 9.52201 145.207 7.79637C145.207 6.61467 144.419 5.80812 142.792 5.47988L141.206 5.15164C140.592 5.0203 140.275 4.84212 140.275 4.51388C140.275 4.18563 140.572 3.97934 141.299 3.97934C142.14 4.00622 142.945 4.30519 143.57 4.8234L144.91 3.02273C143.855 2.34651 142.583 2.0161 141.299 2.08484C139.17 2.08484 137.738 3.02273 137.738 4.68273C137.724 5.27192 137.952 5.84456 138.376 6.28737C138.8 6.73018 139.39 7.01093 140.03 7.07418L141.616 7.42122C142.403 7.5806 142.638 7.79637 142.638 8.0777C142.638 8.35903 142.311 8.63104 141.616 8.63104C140.615 8.61304 139.651 8.28212 138.884 7.69315L137.543 9.49382C138.717 10.308 140.166 10.7164 141.636 10.6474L141.554 10.6099Z" fill="#F4333D"/>
<path d="M150.024 10.6107C152.296 10.6107 153.676 9.52274 153.676 7.7971C153.676 6.6154 152.889 5.80885 151.262 5.48061L149.666 5.15236C149.063 5.0211 148.745 4.84292 148.745 4.51467C148.745 4.18643 149.042 3.98006 149.768 3.98006C150.607 4.00594 151.409 4.30519 152.029 4.82412L153.37 3.02345C152.32 2.34528 151.05 2.01458 149.768 2.08563C147.64 2.08563 146.208 3.02345 146.208 4.68346C146.194 5.27272 146.422 5.84535 146.846 6.28816C147.27 6.7309 147.86 7.01173 148.499 7.07498L150.085 7.42194C150.873 7.5814 151.108 7.7971 151.108 8.0785C151.108 8.35983 150.791 8.63176 150.085 8.63176C149.085 8.61383 148.121 8.28292 147.354 7.69395L146.013 9.49462C147.187 10.3088 148.636 10.7172 150.106 10.6482L150.024 10.6107Z" fill="#F4333D"/>
</svg>
