<svg width="430" height="176" viewBox="0 0 430 176" fill="none" xmlns="http://www.w3.org/2000/svg">
<g clip-path="url(#clip0_3873_35516)">
<path d="M293.016 133.821H149.095C148.389 133.821 147.801 133.234 147.801 132.529V46.0561C147.801 41.474 151.446 37.8318 156.032 37.8318H286.196C290.782 37.8318 294.427 41.474 294.427 46.0561V132.411C294.309 133.234 293.722 133.821 293.016 133.821Z" fill="#D9D9D9"/>
<path d="M258.329 27.2577C258.682 25.9653 259.505 24.9079 260.563 24.2029C261.504 23.6155 262.562 23.3805 263.62 23.498C263.856 23.498 264.091 23.6155 264.326 23.6155C267.03 24.3204 268.676 27.0227 267.971 29.725C267.265 32.4272 264.561 34.0721 261.857 33.3672C259.27 32.6622 257.741 29.9599 258.329 27.2577Z" fill="#D9D9D9"/>
<path d="M234.695 25.1429V31.6048C234.695 31.8398 234.813 31.9573 235.048 32.0748L240.104 33.8371C240.692 36.4219 241.75 38.7717 243.043 40.8865L240.692 45.7036C240.574 45.8211 240.692 46.0561 240.809 46.1736L245.395 50.7557C245.513 50.8732 245.748 50.8732 245.865 50.8732L250.686 48.5234C252.803 49.8158 255.155 50.8732 257.741 51.4606L259.505 56.5127C259.623 56.7477 259.74 56.8652 259.975 56.8652H266.442C266.678 56.8652 266.795 56.7477 266.913 56.5127L268.677 51.4606C271.263 50.8732 273.615 49.8158 275.731 48.5234L280.552 50.8732C280.67 50.9907 280.905 50.8732 281.023 50.7557L285.608 46.1736C285.726 46.0561 285.726 45.8211 285.726 45.7036L283.374 40.8865C284.668 38.7717 285.726 36.4219 286.314 33.8371L291.37 32.0748C291.605 31.9573 291.723 31.8398 291.723 31.6048V25.1429C291.723 24.9079 291.605 24.7904 291.37 24.6729L286.314 22.9105C285.726 20.3258 284.668 17.976 283.374 15.8611L285.726 11.0441C285.844 10.9266 285.726 10.6916 285.608 10.5741L281.023 6.10948C280.905 5.99199 280.67 5.99199 280.552 5.99199L275.731 8.34179C273.615 7.0494 271.263 5.99199 268.677 5.40454L266.913 0.35247C266.795 0.11749 266.678 0 266.442 0H259.975C259.74 0 259.623 0.11749 259.505 0.35247L257.741 5.40454C255.155 5.99199 252.803 7.0494 250.686 8.34179L245.865 5.99199C245.748 5.8745 245.513 5.99199 245.395 6.10948L240.809 10.5741C240.692 10.6916 240.692 10.9266 240.692 11.0441L243.043 15.8611C241.75 17.976 240.692 20.3258 240.104 22.9105L235.048 24.6729C234.813 24.7904 234.695 25.0254 234.695 25.1429ZM251.745 17.036C254.802 13.9813 258.8 12.3364 263.033 12.3364C271.851 12.3364 279.024 19.5033 279.024 28.3151C279.024 28.9025 279.024 29.3725 278.906 29.9599C278.671 32.3097 277.966 34.5421 276.672 36.5394C276.555 36.7744 276.319 36.7744 276.202 36.6569C276.084 36.5394 275.967 36.4219 275.967 36.3044V36.1869C277.142 34.3071 277.848 32.0748 278.083 29.9599C278.083 29.49 278.201 28.9025 278.201 28.4326C278.201 19.9733 271.381 13.1589 262.915 13.1589C258.8 13.1589 255.037 14.6862 252.097 17.6235C249.628 20.0908 248.1 23.3805 247.747 26.7877C247.747 27.2577 247.629 27.8451 247.629 28.3151C247.629 31.3698 248.452 34.0721 249.981 36.5394C252.685 40.769 257.506 43.5888 262.915 43.5888C263.973 43.5888 265.149 43.4713 266.207 43.2363C266.442 43.2363 266.56 43.3538 266.678 43.4713V43.5888C266.678 43.7063 266.56 43.9413 266.325 43.9413C266.207 43.9413 266.207 43.9413 266.09 43.9413H265.972C265.149 44.0588 264.326 44.1762 263.385 44.1762C263.268 44.1762 263.033 44.1762 262.915 44.1762C262.327 44.1762 261.857 44.1762 261.269 44.0587C257.624 43.7063 254.214 42.0614 251.627 39.4766C248.57 36.4219 246.924 32.4272 246.924 28.1976C246.924 27.6101 246.924 27.1402 247.041 26.5527C247.512 23.028 249.158 19.6208 251.745 17.036ZM262.562 34.8945C262.209 34.8945 261.974 34.777 261.622 34.777C258.094 33.8371 255.978 30.3124 256.918 26.9052C257.389 25.2603 258.447 23.8505 259.858 22.9105C261.386 21.9706 263.15 21.7356 264.796 22.2056C268.324 23.1455 270.44 26.6702 269.5 30.0774C268.677 33.2497 265.737 35.247 262.562 34.8945Z" fill="#D9D9D9"/>
<path d="M287.137 53.223V57.5701C287.137 57.6876 287.255 57.8051 287.372 57.8051L290.782 58.98C291.135 60.6248 291.84 62.2697 292.781 63.6796L291.252 66.9693C291.252 67.0868 291.252 67.2043 291.252 67.3218L294.31 70.3765C294.427 70.494 294.545 70.494 294.662 70.3765L297.955 68.8491C299.366 69.7891 301.012 70.3765 302.658 70.8465L303.834 74.2537C303.834 74.3712 303.951 74.4887 304.069 74.4887H308.419C308.537 74.4887 308.655 74.3712 308.655 74.2537L309.83 70.8465C311.477 70.494 313.123 69.7891 314.534 68.8491L317.826 70.3765C317.944 70.3765 318.061 70.3765 318.179 70.3765L321.236 67.3218C321.354 67.2043 321.354 67.0868 321.236 66.9693L319.707 63.6796C320.648 62.2697 321.236 60.6248 321.706 58.98L325.116 57.8051C325.234 57.8051 325.351 57.6876 325.351 57.5701V53.223C325.351 53.1055 325.234 52.988 325.116 52.988L321.706 51.8131C321.354 50.1682 320.648 48.5234 319.707 47.1135L321.236 43.8238C321.236 43.7063 321.236 43.5888 321.236 43.4713L318.179 40.4166C318.061 40.2991 317.944 40.2991 317.826 40.4166L314.534 41.9439C313.123 41.004 311.477 40.4166 309.83 39.9466L308.655 36.5394C308.655 36.4219 308.537 36.3044 308.419 36.3044H304.069C303.951 36.3044 303.834 36.4219 303.834 36.5394L302.658 39.9466C301.012 40.2991 299.366 41.004 297.955 41.9439L294.662 40.4166C294.545 40.4166 294.427 40.4166 294.31 40.4166L291.252 43.4713C291.135 43.5888 291.135 43.7063 291.252 43.8238L292.781 47.1135C291.84 48.5234 291.252 50.1682 290.782 51.8131L287.372 52.988C287.255 52.988 287.137 53.1055 287.137 53.223ZM298.307 47.466C300.424 45.3511 303.128 44.1762 306.185 44.1762C309.125 44.1762 311.947 45.3511 313.946 47.466C316.062 49.5808 317.238 52.2831 317.238 55.3378C317.238 55.6903 317.238 56.0427 317.238 56.5127C317.121 58.1576 316.533 59.6849 315.71 61.0948C315.592 61.3298 315.239 61.4473 314.886 61.3298C314.651 61.2123 314.534 60.9773 314.651 60.7423C314.651 60.6248 314.651 60.6248 314.769 60.5074C315.474 59.215 315.945 57.9226 316.18 56.3952C316.18 56.0427 316.18 55.6903 316.18 55.3378C316.18 52.753 315.122 50.1682 313.24 48.4059C311.359 46.526 308.89 45.4686 306.303 45.4686C303.716 45.4686 301.129 46.526 299.366 48.4059C297.719 50.0507 296.779 52.1656 296.544 54.3979C296.544 54.7503 296.544 55.1028 296.544 55.4553C296.544 58.0401 297.602 60.6248 299.483 62.3872C300.071 62.9746 300.894 63.4446 301.6 63.9146C303.011 64.737 304.657 65.0895 306.303 65.0895H305.833V65.3244C307.008 65.3244 307.596 65.3244 308.184 65.0895C308.537 64.972 309.007 65.207 309.007 65.5594C309.007 65.6769 309.125 65.6769 309.125 65.7944C309.125 66.0294 309.007 66.2644 308.655 66.2644C308.655 66.2644 308.655 66.2644 308.537 66.2644C307.832 66.3819 307.008 66.4993 306.303 66.4993C305.95 66.4993 305.597 66.4993 305.127 66.4993C299.601 65.9119 295.25 61.2123 295.25 55.4553C295.25 55.1028 295.25 54.7503 295.368 54.2804C295.368 51.6956 296.544 49.3458 298.307 47.466ZM308.419 59.215C307.596 59.6849 306.656 59.9199 305.715 59.8024C305.48 59.8024 305.245 59.6849 305.01 59.6849C303.834 59.4499 302.893 58.6275 302.305 57.6876C301.717 56.6302 301.482 55.4553 301.835 54.2804C302.423 51.9306 304.892 50.5207 307.244 51.1082C309.595 51.6956 311.006 54.1629 310.418 56.5127C310.183 57.5701 309.478 58.6275 308.419 59.215Z" fill="#D9D9D9"/>
<path d="M303.363 57.1001C302.893 56.3952 302.775 55.4553 303.011 54.6328C303.363 52.988 304.892 52.0481 306.538 52.1656C306.656 52.1656 306.891 52.1656 307.008 52.283C308.772 52.753 309.83 54.5154 309.36 56.2777C309.125 57.1001 308.655 57.8051 307.832 58.275C307.126 58.745 306.185 58.8625 305.362 58.6275C304.539 58.275 303.834 57.8051 303.363 57.1001Z" fill="#D9D9D9"/>
<path d="M149.095 137.816C146.155 137.816 143.333 135.466 143.333 132.529V46.0561C143.333 39.2416 149.212 34.3071 156.032 34.3071H286.196C293.016 34.3071 298.542 39.2416 298.542 46.0561V132.411C298.542 135.348 296.073 137.698 293.134 137.698H149.095V137.816Z" fill="white"/>
<path d="M134.632 30.6649H108.999C108.294 30.6649 107.706 30.0774 107.706 29.3725V15.5087C107.706 14.8037 108.294 14.2163 108.999 14.2163H134.632C135.338 14.2163 135.926 14.8037 135.926 15.5087V29.49C135.926 30.0774 135.338 30.6649 134.632 30.6649ZM108.999 14.8037C108.646 14.8037 108.294 15.1562 108.294 15.5087V29.49C108.294 29.8425 108.646 30.1949 108.999 30.1949H134.632C134.985 30.1949 135.338 29.8425 135.338 29.49V15.5087C135.338 15.1562 134.985 14.8037 134.632 14.8037H108.999Z" fill="#D9D9D9"/>
<path d="M135.69 20.0908H108.059C107.941 20.0908 107.823 19.9733 107.823 19.8558V17.6235C107.823 17.506 107.941 17.3885 108.059 17.3885H135.69C135.808 17.3885 135.926 17.506 135.926 17.6235V19.7383C135.926 19.9733 135.808 20.0908 135.69 20.0908ZM108.294 19.5033H135.338V17.8585H108.294V19.5033Z" fill="#D9D9D9"/>
<path d="M128.283 27.1402C127.225 27.1402 126.284 26.2003 126.284 25.1429C126.284 24.0854 127.225 23.1455 128.283 23.1455C128.753 23.1455 129.223 23.3805 129.694 23.733C129.694 23.733 129.811 23.8505 129.811 23.968C129.811 24.0854 129.811 24.0854 129.694 24.2029C129.459 24.4379 129.223 24.7904 129.223 25.2603C129.223 25.6128 129.341 25.9653 129.694 26.3178C129.694 26.3178 129.811 26.4352 129.811 26.5527C129.811 26.6702 129.811 26.6702 129.694 26.7877C129.223 27.0227 128.753 27.1402 128.283 27.1402ZM128.283 23.733C127.46 23.733 126.872 24.3204 126.872 25.1429C126.872 25.9653 127.46 26.5527 128.283 26.5527C128.518 26.5527 128.871 26.4352 129.106 26.3178C128.871 25.9653 128.753 25.6128 128.753 25.1429C128.753 24.6729 128.871 24.3204 129.106 23.968C128.871 23.8505 128.518 23.733 128.283 23.733Z" fill="#D9D9D9"/>
<path d="M130.634 27.1402C129.576 27.1402 128.635 26.2003 128.635 25.1429C128.635 24.0854 129.459 23.1455 130.634 23.1455C131.693 23.1455 132.633 23.968 132.633 25.1429C132.516 26.3178 131.693 27.1402 130.634 27.1402ZM130.634 23.733C129.811 23.733 129.223 24.3204 129.223 25.1429C129.223 25.9653 129.811 26.5527 130.634 26.5527C131.457 26.5527 132.045 25.9653 132.045 25.1429C132.045 24.4379 131.34 23.733 130.634 23.733Z" fill="#D9D9D9"/>
<path d="M120.993 23.2634H109.587C109.47 23.2634 109.352 23.1458 109.352 23.0282C109.352 22.9106 109.47 22.7931 109.587 22.7931H120.993C121.11 22.7931 121.228 22.9106 121.228 23.0282C121.228 23.1458 121.11 23.2634 120.993 23.2634Z" fill="#D9D9D9"/>
<path d="M120.993 26.4356H109.587C109.47 26.4356 109.352 26.318 109.352 26.2005C109.352 26.0829 109.47 25.9653 109.587 25.9653H120.993C121.11 25.9653 121.228 26.0829 121.228 26.2005C121.228 26.318 121.11 26.4356 120.993 26.4356Z" fill="#D9D9D9"/>
<path d="M111.351 16.3315H109.94C109.822 16.3315 109.705 16.2139 109.705 16.0963C109.705 15.9787 109.822 15.8611 109.94 15.8611H111.351C111.468 15.8611 111.586 15.9787 111.586 16.0963C111.704 16.2139 111.586 16.3315 111.351 16.3315Z" fill="#D9D9D9"/>
<path d="M114.408 16.3315H112.879C112.762 16.3315 112.644 16.2139 112.644 16.0963C112.644 15.9787 112.762 15.8611 112.879 15.8611H114.29C114.408 15.8611 114.526 15.9787 114.526 16.0963C114.643 16.2139 114.526 16.3315 114.408 16.3315Z" fill="#D9D9D9"/>
<path d="M117.348 16.3315H115.937C115.819 16.3315 115.701 16.2139 115.701 16.0963C115.701 15.9787 115.819 15.8611 115.937 15.8611H117.348C117.465 15.8611 117.583 15.9787 117.583 16.0963C117.583 16.2139 117.465 16.3315 117.348 16.3315Z" fill="#D9D9D9"/>
<path d="M108.059 26.5527H104.884C104.178 26.5527 103.59 25.9653 103.59 25.2604V11.3965C103.59 10.6916 104.178 10.1041 104.884 10.1041H130.517C131.222 10.1041 131.81 10.6916 131.81 11.3965V14.5688C131.81 14.6863 131.693 14.8037 131.575 14.8037H108.999C108.646 14.8037 108.294 15.1562 108.294 15.5087V26.3178C108.294 26.4353 108.176 26.5527 108.059 26.5527ZM104.884 10.6916C104.531 10.6916 104.178 11.0441 104.178 11.3965V25.3778C104.178 25.7303 104.531 26.0828 104.884 26.0828H107.823V15.5087C107.823 14.8037 108.411 14.2163 109.117 14.2163H131.34V11.3965C131.34 11.0441 130.987 10.6916 130.634 10.6916H104.884Z" fill="#D9D9D9"/>
<path d="M2.58682 78.1308C1.17583 78.1308 0 76.9559 0 75.5461C0 74.1362 1.17583 72.9613 2.58682 72.9613C3.99781 72.9613 5.17364 74.1362 5.17364 75.5461C5.17364 76.9559 3.99781 78.1308 2.58682 78.1308ZM2.58682 73.9012C1.64616 73.9012 0.940661 74.6061 0.940661 75.5461C0.940661 76.486 1.64616 77.1909 2.58682 77.1909C3.52748 77.1909 4.23298 76.486 4.23298 75.5461C4.11539 74.6061 3.4099 73.9012 2.58682 73.9012Z" fill="#D9D9D9"/>
<path d="M107.118 112.203C105.707 112.203 104.531 111.028 104.531 109.618C104.531 108.208 105.707 107.033 107.118 107.033C108.529 107.033 109.705 108.208 109.705 109.618C109.587 111.028 108.529 112.203 107.118 112.203ZM107.118 108.091C106.177 108.091 105.472 108.796 105.472 109.736C105.472 110.676 106.177 111.381 107.118 111.381C108.058 111.381 108.764 110.676 108.764 109.736C108.646 108.796 107.941 108.091 107.118 108.091Z" fill="#D9D9D9"/>
<path d="M79.6035 137.816C79.3683 137.816 79.1332 137.581 79.1332 137.346V130.884C79.1332 130.649 79.3683 130.414 79.6035 130.414C79.8387 130.414 80.0738 130.649 80.0738 130.884V137.346C80.0738 137.581 79.8387 137.816 79.6035 137.816Z" fill="#D9D9D9"/>
<path d="M82.7782 134.527H76.4288C76.1936 134.527 75.9584 134.292 75.9584 134.056C75.9584 133.821 76.1936 133.586 76.4288 133.586H82.8958C83.131 133.586 83.3661 133.821 83.3661 134.056C83.2486 134.409 83.131 134.527 82.7782 134.527Z" fill="#D9D9D9"/>
<path d="M65.2584 44.2937C65.0232 44.2937 64.788 44.0587 64.788 43.8238V37.3618C64.788 37.1268 65.0232 36.8919 65.2584 36.8919C65.4935 36.8919 65.7287 37.1268 65.7287 37.3618V43.8238C65.7287 44.1762 65.4935 44.2937 65.2584 44.2937Z" fill="#D9D9D9"/>
<path d="M68.4331 41.1222H61.9661C61.7309 41.1222 61.4957 40.8871 61.4957 40.6519C61.4957 40.4167 61.7309 40.1816 61.9661 40.1816H68.4331C68.6683 40.1816 68.9034 40.4167 68.9034 40.6519C68.9034 40.8871 68.6683 41.1222 68.4331 41.1222Z" fill="#D9D9D9"/>
<path d="M43.9759 8.81175C43.7408 8.81175 43.5056 8.57677 43.5056 8.34179V1.87984C43.5056 1.64486 43.7408 1.40988 43.9759 1.40988C44.2111 1.40988 44.4463 1.64486 44.4463 1.87984V8.34179C44.4463 8.57677 44.2111 8.81175 43.9759 8.81175Z" fill="#D9D9D9"/>
<path d="M47.1507 5.64026H40.6836C40.4485 5.64026 40.2133 5.4051 40.2133 5.16993C40.2133 4.93477 40.4485 4.6996 40.6836 4.6996H47.1507C47.3859 4.6996 47.621 4.93477 47.621 5.16993C47.621 5.4051 47.3859 5.64026 47.1507 5.64026Z" fill="#D9D9D9"/>
<path d="M81.2497 113.613H17.0495C15.6385 113.613 14.5803 112.438 14.5803 111.146C14.5803 109.853 15.7561 108.678 17.0495 108.678H81.3673C82.7783 108.678 83.8365 109.853 83.8365 111.146C83.8365 112.438 82.6607 113.613 81.2497 113.613ZM17.0495 109.618C16.2264 109.618 15.5209 110.323 15.5209 111.146C15.5209 111.968 16.2264 112.673 17.0495 112.673H81.3673C82.1903 112.673 82.8958 111.968 82.8958 111.146C82.8958 110.323 82.1903 109.618 81.3673 109.618H17.0495Z" fill="#D9D9D9"/>
<path d="M110.175 75.5461H86.3057C85.7178 75.5461 85.2474 75.0761 85.2474 74.4887C85.2474 73.9012 85.7178 73.4313 86.3057 73.4313H110.057C110.645 73.4313 111.116 73.9012 111.116 74.4887C111.116 75.0761 110.645 75.5461 110.175 75.5461Z" fill="#D9D9D9"/>
<path d="M57.3803 95.2844H39.2726C38.6847 95.2844 38.2144 94.8144 38.2144 94.227C38.2144 93.6395 38.6847 93.1696 39.2726 93.1696H57.4979C58.0858 93.1696 58.5562 93.6395 58.5562 94.227C58.4386 94.8144 57.9682 95.2844 57.3803 95.2844Z" fill="#D9D9D9"/>
<path d="M48.0913 82.7129C47.9738 82.7129 47.7386 82.5955 47.7386 82.3605V75.6635C47.7386 75.5461 47.8562 75.3111 48.0913 75.3111H54.7936C54.9111 75.3111 54.9111 75.3111 55.0287 75.4286C55.1463 75.5461 55.1463 75.781 55.0287 75.8985L48.3265 82.5955C48.3265 82.7129 48.2089 82.7129 48.0913 82.7129ZM48.4441 76.016V81.773L54.0881 76.016H48.4441Z" fill="#D9D9D9"/>
<path d="M48.0914 82.713H27.9847C27.8671 82.713 27.632 82.5955 27.632 82.3605V45.9386C27.632 45.8211 27.7495 45.5861 27.9847 45.5861H54.7936C54.9112 45.5861 55.1463 45.7036 55.1463 45.9386V75.6636C55.1463 75.7811 55.0287 76.016 54.7936 76.016H48.3265V82.478C48.4441 82.5955 48.3265 82.713 48.0914 82.713ZM28.3375 82.1255H47.8562V75.6636C47.8562 75.5461 47.9738 75.3111 48.2089 75.3111H54.676V46.1736H28.3375V82.1255ZM35.51 75.6636C35.0397 75.6636 34.5693 75.4286 34.3342 74.9586L33.3935 73.3138C33.1583 72.9613 33.1583 72.6088 33.2759 72.2564C33.3935 71.9039 33.6287 71.5514 33.8638 71.4339L45.1518 64.6195C45.1518 64.6195 45.2694 64.6195 45.387 64.6195L48.5617 64.972C48.6793 64.972 48.6793 65.0895 48.7969 65.0895C48.7969 65.207 48.9144 65.207 48.7969 65.3244L47.7386 68.4967C47.7386 68.6142 47.621 68.6142 47.621 68.6142L37.3913 74.8411L36.4507 75.4286C35.9803 75.6636 35.7452 75.6636 35.51 75.6636ZM45.2694 65.3244L34.099 72.0214C33.8638 72.1389 33.7463 72.2564 33.7463 72.4913C33.7463 72.7263 33.7463 72.9613 33.8638 73.0788L34.8045 74.7236C35.0397 75.0761 35.51 75.1936 35.8628 74.9586L36.8034 74.3712L46.9155 68.2617L47.8562 65.5594L45.2694 65.3244Z" fill="#D9D9D9"/>
<path d="M47.2683 68.7316C47.1507 68.7316 47.0331 68.7316 47.0331 68.6141L44.9166 65.2069C44.799 65.0894 44.799 64.972 44.9166 64.8545C45.0342 64.737 45.0342 64.737 45.1518 64.737L48.3265 65.0894C48.4441 65.0894 48.4441 65.2069 48.5617 65.2069C48.5617 65.3244 48.6793 65.3244 48.5617 65.4419L47.5034 68.6141C47.5034 68.6141 47.3859 68.7316 47.2683 68.7316ZM45.7397 65.3244L47.1507 67.6742L47.8562 65.5594L45.7397 65.3244Z" fill="#D9D9D9"/>
<path d="M37.0386 74.9586C36.921 74.9586 36.8034 74.9586 36.8034 74.8411L35.7452 73.0788C35.7452 72.9613 35.7452 72.8438 35.7452 72.7263L35.8628 72.6088L46.0925 66.3818C46.21 66.3818 46.21 66.3818 46.3276 66.3818C46.4452 66.3818 46.4452 66.4993 46.5628 66.4993L47.621 68.2617C47.7386 68.3792 47.621 68.6141 47.5035 68.7316L37.2738 74.9586C37.1562 74.9586 37.0386 74.9586 37.0386 74.9586ZM36.3331 73.0788L37.0386 74.2537L46.798 68.3792L46.0925 67.2043L36.3331 73.0788Z" fill="#D9D9D9"/>
<path d="M35.9804 73.1963C35.8628 73.1963 35.7452 73.1963 35.7452 73.0788L34.687 71.3164C34.687 71.1989 34.687 71.1989 34.687 71.0814C34.687 70.964 34.8045 70.964 34.8045 70.8465L45.0342 64.6195C45.1518 64.502 45.387 64.6195 45.5046 64.737L46.5628 66.4993C46.5628 66.6168 46.5628 66.6168 46.5628 66.7343C46.5628 66.8518 46.4452 66.8518 46.4452 66.9693L36.2155 73.1963C36.0979 73.1963 35.9804 73.1963 35.9804 73.1963ZM35.2749 71.3164L35.9804 72.4913L45.7397 66.6168L45.0342 65.4419L35.2749 71.3164Z" fill="#D9D9D9"/>
<path d="M35.51 75.6636C35.0396 75.6636 34.5693 75.4286 34.3342 74.9586L33.3935 73.3138C33.1583 72.9613 33.1583 72.6088 33.2759 72.2563C33.3935 71.9039 33.6287 71.5514 33.8638 71.4339L34.8045 70.8465C34.9221 70.729 35.0396 70.8465 35.1572 70.8465L37.2737 74.2537C37.3913 74.3712 37.2737 74.6061 37.1561 74.7236L36.2155 75.3111C35.9803 75.6635 35.7451 75.6636 35.51 75.6636ZM34.8045 71.6689L34.099 72.0214C33.8638 72.1389 33.7462 72.2563 33.7462 72.4913C33.7462 72.7263 33.7462 72.9613 33.8638 73.0788L34.8045 74.7236C35.0396 75.0761 35.51 75.1936 35.8627 74.9586L36.5682 74.4887L35.7451 73.1963L34.8045 71.6689Z" fill="#D9D9D9"/>
<path d="M48.0914 82.713H27.9847C27.8671 82.713 27.632 82.5955 27.632 82.3605V45.9386C27.632 45.8211 27.7495 45.5861 27.9847 45.5861H54.7936C54.9112 45.5861 55.1463 45.7036 55.1463 45.9386V75.6636C55.1463 75.7811 55.0287 76.016 54.7936 76.016H48.3265V82.478C48.4441 82.5955 48.3265 82.713 48.0914 82.713ZM28.3375 82.1255H47.8562V75.6636C47.8562 75.5461 47.9738 75.3111 48.2089 75.3111H54.676V46.1736H28.3375V82.1255Z" fill="#D9D9D9"/>
<path d="M48.0914 82.713C47.9738 82.713 47.9738 82.713 47.8562 82.5955C47.7386 82.478 47.7386 82.243 47.8562 82.1255L54.5584 75.4286C54.676 75.3111 54.9112 75.3111 55.0287 75.4286C55.1463 75.5461 55.1463 75.781 55.0287 75.8985L48.3265 82.5955C48.3265 82.713 48.2089 82.713 48.0914 82.713Z" fill="#D9D9D9"/>
<path d="M50.3254 52.8711H32.2177C32.1001 52.8711 31.8649 52.7535 31.8649 52.5183C31.8649 52.4007 31.9825 52.1656 32.2177 52.1656H50.3254C50.443 52.1656 50.6782 52.2831 50.6782 52.5183C50.5606 52.7535 50.443 52.8711 50.3254 52.8711Z" fill="#D9D9D9"/>
<path d="M50.3254 57.8056H32.2177C32.1001 57.8056 31.8649 57.688 31.8649 57.4529C31.8649 57.2177 31.9825 57.1001 32.2177 57.1001H50.3254C50.443 57.1001 50.6782 57.2177 50.6782 57.4529C50.6782 57.688 50.443 57.8056 50.3254 57.8056Z" fill="#D9D9D9"/>
<path d="M50.3254 62.6227H32.2177C32.1001 62.6227 31.8649 62.5051 31.8649 62.27C31.8649 62.0348 31.9825 61.9172 32.2177 61.9172H50.3254C50.443 61.9172 50.6782 62.0348 50.6782 62.27C50.6782 62.5051 50.443 62.6227 50.3254 62.6227Z" fill="#D9D9D9"/>
<path d="M35.51 75.6636C35.0396 75.6636 34.5693 75.4286 34.3342 74.9586L33.3935 73.3138C33.1583 72.9613 33.1583 72.6088 33.2759 72.2563C33.3935 71.9039 33.6287 71.5514 33.8638 71.4339L45.1518 64.6195C45.1518 64.6195 45.2693 64.6195 45.3869 64.6195L48.5617 64.972C48.6792 64.972 48.6792 65.0895 48.7968 65.0895C48.7968 65.2069 48.9144 65.2069 48.7968 65.3244L47.7386 68.4967C47.7386 68.6142 47.621 68.6142 47.621 68.6142L37.3913 74.8411L36.4506 75.4286C35.9803 75.6635 35.7451 75.6636 35.51 75.6636ZM45.2693 65.3244L34.099 72.0214C33.8638 72.1389 33.7462 72.2563 33.7462 72.4913C33.7462 72.7263 33.7462 72.9613 33.8638 73.0788L34.8045 74.7236C35.0396 75.0761 35.51 75.1936 35.8627 74.9586L36.8034 74.3712L46.9155 68.2617L47.8562 65.5594L45.2693 65.3244Z" fill="#D9D9D9"/>
<path d="M37.0386 74.9586C36.921 74.9586 36.921 74.9586 36.8034 74.8411C36.8034 74.8411 36.8034 74.8411 36.6858 74.7236L34.5693 71.3164C34.4518 71.1989 34.5693 70.964 34.6869 70.8465C34.8045 70.729 35.0397 70.8465 35.1572 70.964L37.2737 74.3712C37.2737 74.3712 37.3913 74.4887 37.3913 74.6061C37.2737 74.8411 37.1562 74.9586 37.0386 74.9586Z" fill="#D9D9D9"/>
<path d="M47.2683 68.7316C47.1507 68.7316 47.0331 68.7316 47.0331 68.6141L44.9166 65.2069C44.799 65.0894 44.9166 64.8545 45.0342 64.737C45.1518 64.6195 45.387 64.737 45.5045 64.8545L47.621 68.2617C47.7386 68.3792 47.621 68.6141 47.5034 68.7316C47.3859 68.7316 47.3859 68.7316 47.2683 68.7316Z" fill="#D9D9D9"/>
<path d="M35.9803 73.1963C35.8628 73.1963 35.7452 73.1963 35.7452 73.0788C35.6276 72.9613 35.7452 72.7263 35.8628 72.6088L46.0925 66.3818C46.21 66.2644 46.4452 66.3818 46.5628 66.4993C46.6804 66.6168 46.5628 66.8518 46.4452 66.9693L36.2155 73.1963C36.0979 73.1963 35.9803 73.1963 35.9803 73.1963Z" fill="#D9D9D9"/>
<path d="M321.354 91.5247C319.943 91.5247 318.767 90.3498 318.767 88.9399C318.767 87.53 319.943 86.3551 321.354 86.3551C322.765 86.3551 323.94 87.53 323.94 88.9399C323.94 90.3498 322.765 91.5247 321.354 91.5247ZM321.354 87.4125C320.413 87.4125 319.707 88.1175 319.707 89.0574C319.707 89.9973 320.413 90.7023 321.354 90.7023C322.294 90.7023 323 89.9973 323 89.0574C323 88.1175 322.294 87.4125 321.354 87.4125Z" fill="#D9D9D9"/>
<path d="M425.885 125.597C424.474 125.597 423.298 124.422 423.298 123.012C423.298 121.602 424.474 120.427 425.885 120.427C427.296 120.427 428.471 121.602 428.471 123.012C428.471 124.539 427.296 125.597 425.885 125.597ZM425.885 121.485C424.944 121.485 424.238 122.19 424.238 123.13C424.238 124.069 424.944 124.774 425.885 124.774C426.825 124.774 427.531 124.069 427.531 123.13C427.531 122.19 426.825 121.485 425.885 121.485Z" fill="#D9D9D9"/>
<path d="M398.37 151.21C398.135 151.21 397.9 150.975 397.9 150.74V144.278C397.9 144.043 398.135 143.808 398.37 143.808C398.605 143.808 398.841 144.043 398.841 144.278V150.74C398.841 150.975 398.723 151.21 398.37 151.21Z" fill="#D9D9D9"/>
<path d="M401.663 148.038H395.196C394.96 148.038 394.725 147.803 394.725 147.568C394.725 147.333 394.96 147.097 395.196 147.097H401.663C401.898 147.097 402.133 147.333 402.133 147.568C402.133 147.803 401.898 148.038 401.663 148.038Z" fill="#D9D9D9"/>
<path d="M384.025 57.8051C383.79 57.8051 383.555 57.5701 383.555 57.3351V50.8732C383.555 50.6382 383.79 50.4032 384.025 50.4032C384.26 50.4032 384.496 50.6382 384.496 50.8732V57.3351C384.496 57.5701 384.26 57.8051 384.025 57.8051Z" fill="#D9D9D9"/>
<path d="M387.2 54.5161H380.733C380.498 54.5161 380.263 54.2809 380.263 54.0458C380.263 53.8106 380.498 53.5754 380.733 53.5754H387.2C387.435 53.5754 387.67 53.8106 387.67 54.0458C387.67 54.2809 387.553 54.5161 387.2 54.5161Z" fill="#D9D9D9"/>
<path d="M362.743 22.2056C362.508 22.2056 362.272 21.9706 362.272 21.7356V15.2737C362.272 15.0387 362.508 14.8037 362.743 14.8037C362.978 14.8037 363.213 15.0387 363.213 15.2737V21.7356C363.213 22.0881 362.978 22.2056 362.743 22.2056Z" fill="#D9D9D9"/>
<path d="M366.035 19.0341H359.568C359.333 19.0341 359.098 18.799 359.098 18.5638C359.098 18.3286 359.333 18.0935 359.568 18.0935H366.035C366.27 18.0935 366.505 18.3286 366.505 18.5638C366.388 18.799 366.27 19.0341 366.035 19.0341Z" fill="#D9D9D9"/>
<path d="M400.134 127.124H335.816C334.405 127.124 333.347 125.949 333.347 124.657C333.347 123.364 334.523 122.19 335.816 122.19H400.134C401.545 122.19 402.603 123.364 402.603 124.657C402.603 125.949 401.427 127.124 400.134 127.124ZM335.816 123.012C334.993 123.012 334.288 123.717 334.288 124.539C334.288 125.362 334.993 126.067 335.816 126.067H400.134C400.957 126.067 401.663 125.362 401.663 124.539C401.663 123.717 400.957 123.012 400.134 123.012H335.816Z" fill="#D9D9D9"/>
<path d="M428.942 88.9399H405.19C404.602 88.9399 404.132 88.47 404.132 87.8825C404.132 87.2951 404.602 86.8251 405.19 86.8251H428.942C429.53 86.8251 430 87.2951 430 87.8825C430 88.5875 429.53 88.9399 428.942 88.9399Z" fill="#D9D9D9"/>
<path d="M376.265 108.678H358.039C357.451 108.678 356.981 108.208 356.981 107.621C356.981 107.033 357.451 106.563 358.039 106.563H376.265C376.853 106.563 377.323 107.033 377.323 107.621C377.205 108.208 376.735 108.678 376.265 108.678Z" fill="#D9D9D9"/>
<path d="M367.211 176H337.815C336.992 176 336.404 175.413 336.404 174.59V154.734C336.404 153.912 336.992 153.324 337.815 153.324H367.211C368.034 153.324 368.622 153.912 368.622 154.734V174.59C368.622 175.295 367.916 176 367.211 176ZM337.815 153.912C337.345 153.912 336.992 154.264 336.992 154.734V174.59C336.992 175.06 337.345 175.413 337.815 175.413H367.211C367.681 175.413 368.034 175.06 368.034 174.59V154.734C368.034 154.264 367.681 153.912 367.211 153.912H337.815Z" fill="#D9D9D9"/>
<path d="M368.269 157.907H336.639C336.522 157.907 336.404 157.789 336.404 157.672C336.404 157.554 336.522 157.437 336.639 157.437H368.269C368.387 157.437 368.504 157.554 368.504 157.672C368.622 157.789 368.504 157.907 368.269 157.907Z" fill="#D9D9D9"/>
<path d="M339.579 156.732H337.933C337.815 156.732 337.698 156.614 337.698 156.497V154.852C337.698 154.734 337.815 154.617 337.933 154.617H339.579C339.696 154.617 339.814 154.734 339.814 154.852V156.497C339.932 156.614 339.814 156.732 339.579 156.732ZM338.168 156.262H339.344V155.087H338.168V156.262Z" fill="#D9D9D9"/>
<path d="M342.871 156.732H341.225C341.107 156.732 340.99 156.614 340.99 156.497V154.852C340.99 154.734 341.107 154.617 341.225 154.617H342.871C342.989 154.617 343.106 154.734 343.106 154.852V156.497C343.106 156.614 342.989 156.732 342.871 156.732ZM341.46 156.262H342.636V155.087H341.46V156.262Z" fill="#D9D9D9"/>
<path d="M346.163 156.732H344.517C344.4 156.732 344.282 156.614 344.282 156.497V154.852C344.282 154.734 344.4 154.617 344.517 154.617H346.163C346.281 154.617 346.399 154.734 346.399 154.852V156.497C346.399 156.614 346.281 156.732 346.163 156.732ZM344.753 156.262H345.928V155.087H344.753V156.262Z" fill="#D9D9D9"/>
<path d="M348.398 172.358C348.28 172.358 348.28 172.358 348.28 172.24L341.578 166.718C341.46 166.718 341.46 166.601 341.46 166.483C341.46 166.366 341.46 166.366 341.578 166.248L347.81 161.079C347.927 160.961 348.045 160.961 348.162 161.079C348.28 161.196 348.28 161.314 348.162 161.431L342.166 166.483L348.515 171.77C348.633 171.888 348.633 172.005 348.515 172.123C348.515 172.24 348.398 172.358 348.398 172.358Z" fill="#D9D9D9"/>
<path d="M356.511 172.358C356.393 172.358 356.393 172.358 356.276 172.24C356.158 172.123 356.158 172.005 356.276 171.888L362.625 166.601L356.628 161.549C356.511 161.431 356.511 161.314 356.628 161.196C356.746 161.079 356.864 161.079 356.981 161.196L363.213 166.366C363.331 166.366 363.331 166.483 363.331 166.601C363.331 166.718 363.331 166.718 363.213 166.836L356.628 172.358C356.628 172.358 356.628 172.358 356.511 172.358Z" fill="#D9D9D9"/>
<path d="M349.103 173.533H348.985C348.868 173.415 348.75 173.298 348.868 173.18L355.453 160.021C355.57 159.904 355.688 159.786 355.805 159.904C355.923 160.021 356.04 160.139 355.923 160.256L349.338 173.415C349.338 173.415 349.221 173.533 349.103 173.533Z" fill="#D9D9D9"/>
<path d="M286.079 37.9492H155.915C151.329 37.9492 147.919 41.5914 147.919 46.1735V132.529C147.919 133.234 148.272 134.291 148.977 134.291H292.898C293.604 134.291 294.78 133.234 294.78 132.529V46.0561C294.897 41.5914 290.664 37.9492 286.079 37.9492ZM291.37 131.941H150.271V46.1735C150.271 43.1188 152.857 41.4739 155.915 41.4739H286.079C289.136 41.4739 291.37 43.1188 291.37 46.1735V131.941Z" fill="#D9D9D9"/>
<path d="M284.197 125.009H157.914C157.208 125.009 156.62 124.422 156.62 123.717V48.0534C156.62 47.3485 157.208 46.761 157.914 46.761H284.08C284.785 46.761 285.373 47.3485 285.373 48.0534V123.599C285.491 124.304 284.903 125.009 284.197 125.009Z" fill="#D9D9D9"/>
<path d="M293.016 146.98H149.095C143.568 146.98 139.1 143.455 139.1 138.991V132.411C139.1 131.706 139.688 131.119 140.394 131.119H301.717C302.423 131.119 303.011 131.706 303.011 132.411V138.991C303.011 143.455 298.543 146.98 293.016 146.98ZM141.687 133.821V139.108C141.687 141.928 145.097 144.395 148.977 144.395H292.899C296.896 144.395 300.189 141.928 300.189 139.108V133.821H141.687Z" fill="#D9D9D9"/>
<path d="M221.056 143.338C218.704 143.338 216.823 141.458 216.823 139.108C216.823 136.758 218.704 134.879 221.056 134.879C223.407 134.879 225.289 136.758 225.289 139.108C225.289 141.458 223.407 143.338 221.056 143.338ZM221.056 137.581C220.232 137.581 219.527 138.286 219.527 139.108C219.527 139.931 220.232 140.636 221.056 140.636C221.879 140.636 222.584 139.931 222.584 139.108C222.584 138.168 221.879 137.581 221.056 137.581Z" fill="#D9D9D9"/>
<path d="M168.107 115.531C168.203 107.982 162.156 101.784 154.601 101.688C147.046 101.592 140.843 107.634 140.747 115.183C140.651 122.733 146.698 128.931 154.253 129.027C161.809 129.123 168.011 123.08 168.107 115.531Z" fill="#D9D9D9"/>
<path d="M166.151 103.923C159.802 97.4703 149.514 97.3609 142.947 103.595C136.489 109.938 136.38 120.219 142.618 126.78C148.967 133.233 159.255 133.342 165.822 127.109C172.28 120.765 172.389 110.485 166.151 103.923ZM144.588 124.921C139.335 119.453 139.444 110.813 144.807 105.563C150.28 100.314 158.927 100.423 164.181 105.782C169.434 111.25 169.325 119.89 163.962 125.14C158.598 130.499 149.842 130.39 144.588 124.921Z" fill="#BFBFBF"/>
<path d="M123.136 145.81C121.604 144.279 121.604 141.654 123.245 140.123L135.066 128.64L140.648 134.327L128.827 145.81C127.295 147.451 124.778 147.341 123.136 145.81Z" fill="#BFBFBF"/>
<path d="M138.46 133.669L135.723 130.826C134.519 129.623 134.629 127.763 135.723 126.56L136.708 125.576C137.912 124.373 139.773 124.482 140.977 125.576L143.713 128.42C144.917 129.623 144.808 131.482 143.713 132.685L142.728 133.669C141.524 134.872 139.664 134.763 138.46 133.669Z" fill="#BFBFBF"/>
</g>
<defs>
<clipPath id="clip0_3873_35516">
<rect width="430" height="176" fill="white"/>
</clipPath>
</defs>
</svg>
