<svg width="38" height="28" viewBox="0 0 38 28" fill="none" xmlns="http://www.w3.org/2000/svg">
<rect x="0.5" y="0.5" width="37" height="27" rx="1.5" fill="white" stroke="#EAEAEA"/>
<g clip-path="url(#clip0_1880_24430)">
<path d="M9.9081 5.00803C8.39003 5.00803 7.00295 6.37729 7.00295 7.91299C7.00295 8.75829 7.0023 12.1038 7.00164 15.4294C7.27961 15.6043 8.61812 16.0337 9.15634 16.0717C10.3351 16.1551 11.066 15.7653 11.1791 14.783L11.1731 11.1346H13.7806V14.6997C13.6436 16.7416 11.8521 17.1576 9.12525 17.0201C8.41948 16.9845 7.45992 16.8025 7.00131 16.6831C7.00066 20.0115 7 22.992 7 22.992C7 22.992 10.4041 22.992 11.5378 22.992C12.7761 22.992 14.3879 21.8349 14.3879 20.0754C14.3879 17.1227 14.3879 5.00803 14.3879 5.00803C14.3879 5.00803 11.066 5.00803 9.9081 5.00803Z" fill="url(#paint0_linear_1880_24430)"/>
<path d="M18.2337 5.00803C16.7157 5.00803 15.3286 6.37729 15.3286 7.91299C15.3286 8.44853 15.3284 9.9877 15.328 11.8894C16.2389 11.178 17.707 10.8291 19.5752 10.973C20.6381 11.0549 21.4246 11.2032 21.8532 11.3302V12.5922C21.3807 12.3565 20.4483 12.0054 19.6704 11.9493C17.9083 11.8223 16.9835 12.6481 16.9835 13.9827C16.9835 15.1839 17.698 16.2118 19.6625 16.0749C20.3105 16.0297 21.3889 15.6522 21.8478 15.4339L21.8532 16.6583C21.4583 16.7828 20.2295 17.0503 19.0731 17.0598C17.3321 17.074 16.1037 16.7042 15.3271 16.1042C15.3264 19.6578 15.3257 22.992 15.3257 22.992C15.3257 22.992 18.7298 22.992 19.8634 22.992C21.1017 22.992 22.7135 21.8349 22.7135 20.0754C22.7135 17.1227 22.7135 5.00803 22.7135 5.00803C22.7135 5.00803 19.3917 5.00803 18.2337 5.00803Z" fill="url(#paint1_linear_1880_24430)"/>
<path d="M26.8449 14.3655C26.3479 14.3701 25.264 14.3605 25.0679 14.3652L25.0649 15.9542L26.8419 15.96C27.1873 15.96 27.6218 15.6641 27.6218 15.1487C27.6218 14.6927 27.2468 14.3617 26.8449 14.3655Z" fill="url(#paint2_linear_1880_24430)"/>
<path d="M27.4056 12.7707C27.4056 12.3147 27.0629 12.0071 26.6987 12.0156C26.1868 12.0275 25.2634 12.0029 25.0616 12.0208L25.0557 13.4674L26.7344 13.4793C27.0137 13.4736 27.4056 13.2178 27.4056 12.7707Z" fill="url(#paint3_linear_1880_24430)"/>
<path d="M26.5204 5.00801C25.0023 5.00801 23.6152 6.37728 23.6152 7.91297C23.6152 8.37308 23.615 9.57469 23.6147 11.1099H27.9283C28.7866 11.1099 29.7974 11.4771 29.7974 12.5207C29.7974 13.0804 29.4995 13.7144 28.4254 13.9198V13.9436C29.0525 13.9436 30.1399 14.3107 30.1399 15.418C30.1399 16.561 28.9652 16.8785 28.3361 16.8785L23.6136 16.8832C23.613 20.1299 23.6123 22.9919 23.6123 22.9919C23.6123 22.9919 27.0164 22.9919 28.1501 22.9919C29.3884 22.9919 31.0002 21.8349 31.0002 20.0754C31.0002 17.1226 31.0002 5.00797 31.0002 5.00797C31.0002 5.00797 27.6782 5.00801 26.5204 5.00801Z" fill="url(#paint4_linear_1880_24430)"/>
</g>
<defs>
<linearGradient id="paint0_linear_1880_24430" x1="7" y1="14" x2="14.3878" y2="14" gradientUnits="userSpaceOnUse">
<stop stop-color="#2B327B"/>
<stop offset="1" stop-color="#0078C0"/>
</linearGradient>
<linearGradient id="paint1_linear_1880_24430" x1="15.3257" y1="14" x2="22.7135" y2="14" gradientUnits="userSpaceOnUse">
<stop stop-color="#872D34"/>
<stop offset="1" stop-color="#FF1146"/>
</linearGradient>
<linearGradient id="paint2_linear_1880_24430" x1="25.065" y1="15.1619" x2="27.6218" y2="15.1619" gradientUnits="userSpaceOnUse">
<stop stop-color="#008144"/>
<stop offset="1" stop-color="#00BB36"/>
</linearGradient>
<linearGradient id="paint3_linear_1880_24430" x1="25.0556" y1="12.7467" x2="27.4056" y2="12.7467" gradientUnits="userSpaceOnUse">
<stop stop-color="#008144"/>
<stop offset="1" stop-color="#00BB36"/>
</linearGradient>
<linearGradient id="paint4_linear_1880_24430" x1="23.6123" y1="14" x2="31.0001" y2="14" gradientUnits="userSpaceOnUse">
<stop stop-color="#008144"/>
<stop offset="1" stop-color="#00BB36"/>
</linearGradient>
<clipPath id="clip0_1880_24430">
<rect width="24" height="24" fill="white" transform="translate(7 2)"/>
</clipPath>
</defs>
</svg>
