<svg width="34" height="24" viewBox="0 0 34 24" fill="none" xmlns="http://www.w3.org/2000/svg">
<path d="M20.4248 5.71039H13.4248V18.2896H20.4248V5.71039Z" fill="#FF5F00"/>
<path d="M13.8692 12C13.8681 10.7885 14.1426 9.59268 14.672 8.503C15.2014 7.41331 15.9717 6.45835 16.9247 5.7104C15.7445 4.78277 14.3272 4.20588 12.8347 4.04569C11.3422 3.8855 9.83468 4.14845 8.48454 4.8045C7.1344 5.46056 5.99607 6.48325 5.19968 7.75566C4.40328 9.02808 3.98096 10.4989 3.98096 12C3.98096 13.5011 4.40328 14.9719 5.19968 16.2443C5.99607 17.5167 7.1344 18.5394 8.48454 19.1955C9.83468 19.8515 11.3422 20.1145 12.8347 19.9543C14.3272 19.7941 15.7445 19.2172 16.9247 18.2896C15.9717 17.5416 15.2014 16.5867 14.672 15.497C14.1426 14.4073 13.8681 13.2115 13.8692 12Z" fill="#EB001B"/>
<path d="M29.8682 12C29.8682 13.5011 29.4459 14.9719 28.6496 16.2443C27.8532 17.5167 26.7149 18.5394 25.3648 19.1954C24.0147 19.8515 22.5073 20.1145 21.0148 19.9543C19.5223 19.7941 18.1049 19.2172 16.9248 18.2896C17.877 17.5409 18.6467 16.5857 19.176 15.4962C19.7053 14.4067 19.9803 13.2113 19.9803 12C19.9803 10.7887 19.7053 9.59325 19.176 8.50374C18.6467 7.41422 17.877 6.45911 16.9248 5.7104C18.1049 4.78276 19.5223 4.20588 21.0148 4.04569C22.5073 3.8855 24.0147 4.14846 25.3648 4.80452C26.7149 5.46059 27.8532 6.48327 28.6496 7.75569C29.4459 9.02811 29.8682 10.4989 29.8682 12Z" fill="#F79E1B"/>
<path d="M29.105 16.9572V16.6997H29.2088V16.6472H28.9443V16.6997H29.0482V16.9572H29.105ZM29.6184 16.9572V16.6467H29.5373L29.4441 16.8603L29.3508 16.6467H29.2697V16.9572H29.327V16.723L29.4144 16.925H29.4738L29.5612 16.7225V16.9572H29.6184Z" fill="#F79E1B"/>
</svg>
