<svg width="38" height="28" viewBox="0 0 38 28" fill="none" xmlns="http://www.w3.org/2000/svg">
<rect x="0.5" y="0.5" width="37" height="27" rx="1.5" fill="white" stroke="#EAEAEA"/>
<path d="M15.6314 9.63743L11.9662 18.3834H9.57395L7.77156 11.4043C7.6606 10.9739 7.56577 10.8173 7.23305 10.6345C6.68804 10.3399 5.79155 10.0635 5 9.89134L5.0554 9.63748H8.90425C9.39512 9.63748 9.83645 9.96489 9.94741 10.5293L10.9005 15.5913L13.2544 9.63748H15.6314V9.63743ZM25.0019 15.5266C25.0125 13.2196 21.8096 13.094 21.8326 12.0619C21.8389 11.7468 22.1375 11.4135 22.7914 11.3293C23.1162 11.2861 24.0098 11.2544 25.0227 11.7194L25.4197 9.86564C24.8747 9.66783 24.1742 9.47839 23.3036 9.47839C21.0675 9.47839 19.4933 10.6678 19.48 12.3696C19.4653 13.6281 20.6031 14.3304 21.4613 14.7495C22.3426 15.1784 22.6372 15.4522 22.6341 15.8368C22.6284 16.4238 21.931 16.6804 21.2805 16.6919C20.1427 16.7096 19.4828 16.3844 18.9558 16.139L18.5462 18.0565C19.0741 18.2989 20.0515 18.5093 21.063 18.5217C23.4396 18.5216 24.9944 17.3449 25.0019 15.5266ZM30.907 18.3834H33L31.1737 9.63748H29.2415C28.8074 9.63748 28.4414 9.89068 28.2783 10.2786L24.8854 18.3834H27.2602L27.7316 17.0773H30.6345L30.907 18.3834ZM28.3824 15.2847L29.5738 12.0007L30.2592 15.2847H28.3824ZM18.8646 9.63743L16.9927 18.3834H14.7298L16.6022 9.63743H18.8646Z" fill="#153BC3"/>
</svg>
