<svg width="80" height="80" viewBox="0 0 80 80" fill="none" xmlns="http://www.w3.org/2000/svg">
    <path d="M46.766.598 32.038.833c-17.32 3.664-30.32 19.038-30.32 37.45 0 21.142 17.14 38.28 38.282 38.28 21.142 0 38.28-17.139 38.28-38.28 0-18.834-13.6-34.49-31.514-37.685z" fill="#746BF9"/>
    <path d="M13.303 59.922v15.354a4.737 4.737 0 0 0 4.723 4.723h43.948a4.737 4.737 0 0 0 4.723-4.723V59.922H13.303z" fill="#5F5F9B"/>
    <path d="m25.91 75.618-.567-15.696h-12.04v15.354a4.737 4.737 0 0 0 4.723 4.723h7.884c-2.29-2.29 0-4.38 0-4.38z" fill="#47477F"/>
    <path d="M62.317 59.922H17.684V74.26c0 .75.608 1.358 1.358 1.358h41.916c.75 0 1.359-.608 1.359-1.358V59.922z" fill="#3B3868"/>
    <path d="M23.945 73.653V65.41c0-.655.326-1.236.822-1.593v-3.894h-7.083V74.26c0 .75.608 1.358 1.358 1.358h6.868a1.97 1.97 0 0 1-1.965-1.965z" fill="#2D2D59"/>
    <path d="M42.531 32.554a1.978 1.978 0 0 1-1.972-1.972 1.978 1.978 0 0 1-1.972 1.972 1.979 1.979 0 0 1-1.97-1.862v-.156c0 1.023-.76 1.91-1.778 2.009a1.977 1.977 0 0 1-2.166-1.963V11.176h13.41v1.487c0 .692.255 1.356.703 1.882a6.92 6.92 0 0 1 1.659 4.498v11.539a1.977 1.977 0 0 1-2.166 1.963c-1.018-.1-1.779-.986-1.779-2.009v.156a1.978 1.978 0 0 1-1.969 1.862z" fill="#FCAD6D"/>
    <path d="M55.473 37.803a1.184 1.184 0 0 1-1.169-1.01 12.204 12.204 0 0 0-4.43-7.714 5.44 5.44 0 0 0-.97-.623 1.184 1.184 0 0 1 1.064-2.115c.498.251.966.552 1.391.895a14.565 14.565 0 0 1 5.287 9.208 1.184 1.184 0 0 1-1.173 1.359z" fill="#E9EFFF"/>
    <path d="M53.974 29.974a14.709 14.709 0 0 0-2.615-2.738 7.826 7.826 0 0 0-1.392-.895 1.184 1.184 0 0 0-1.064 2.115c.348.175.675.385.97.623.88.71 1.649 1.53 2.293 2.43a1.407 1.407 0 0 1 1.808-1.535zM24.527 37.803a1.183 1.183 0 0 1-1.172-1.358 14.564 14.564 0 0 1 5.286-9.209 7.797 7.797 0 0 1 1.392-.895 1.183 1.183 0 1 1 1.063 2.115 5.443 5.443 0 0 0-.97.623 12.204 12.204 0 0 0-4.43 7.715 1.184 1.184 0 0 1-1.17 1.009z" fill="#BEC9F7"/>
    <path d="M48.52 27.875H31.478a1.946 1.946 0 0 1-1.939-1.785h-.008V29c0 1.075.872 1.947 1.947 1.947H48.52A1.947 1.947 0 0 0 50.468 29v-2.91h-.008a1.946 1.946 0 0 1-1.939 1.785z" fill="#47477F"/>
    <path d="M48.52 28.035H31.478a1.947 1.947 0 1 1 0-3.894H48.52a1.947 1.947 0 0 1 0 3.894z" fill="#5F5F9B"/>
    <path d="M38.587 32.724a1.978 1.978 0 0 0 1.972-1.973V25.2a1.978 1.978 0 0 0-1.972-1.972 1.978 1.978 0 0 0-1.973 1.972v5.552c0 1.085.888 1.973 1.973 1.973zM42.532 32.724a1.978 1.978 0 0 0 1.972-1.973V25.2a1.978 1.978 0 0 0-1.972-1.972 1.978 1.978 0 0 0-1.972 1.972v5.552c0 1.085.887 1.973 1.972 1.973z" fill="#FCAD6D"/>
    <path d="M34.645 32.724a1.978 1.978 0 0 0 1.972-1.973V25.2a1.978 1.978 0 0 0-1.972-1.972 1.978 1.978 0 0 0-1.972 1.972v5.552c0 1.085.887 1.973 1.972 1.973z" fill="#FCAD6D"/>
    <path d="M32.673 25.199v3.206a2.128 2.128 0 0 1 1.972-1.345c.893 0 1.661.56 1.972 1.345v-3.206a1.978 1.978 0 0 0-1.972-1.972 1.978 1.978 0 0 0-1.972 1.972z" fill="#FD995B"/>
    <path d="M46.473 32.724a1.978 1.978 0 0 0 1.973-1.973V25.2a1.978 1.978 0 0 0-1.973-1.972 1.978 1.978 0 0 0-1.972 1.972v5.552c0 1.085.888 1.973 1.972 1.973z" fill="#FCAD6D"/>
    <path d="M36.614 25.199v3.206a2.128 2.128 0 0 1 1.973-1.345c.892 0 1.66.56 1.972 1.345v-3.206a1.978 1.978 0 0 0-1.972-1.972 1.978 1.978 0 0 0-1.973 1.972zM40.56 25.199v3.206a2.128 2.128 0 0 1 1.972-1.345c.893 0 1.66.56 1.972 1.345v-3.206a1.978 1.978 0 0 0-1.972-1.972 1.978 1.978 0 0 0-1.972 1.972z" fill="#FD995B"/>
    <path d="M44.501 25.199v3.206a2.128 2.128 0 0 1 1.972-1.345c.893 0 1.661.56 1.973 1.345v-3.206a1.978 1.978 0 0 0-1.973-1.972 1.978 1.978 0 0 0-1.972 1.972z" fill="#FD995B"/>
    <path d="m36.638 27.32-5.632-1.748a2.118 2.118 0 0 1-1.355-1.276c-.618-1.642-1.212-5.202 2.143-10.108a4.542 4.542 0 0 0 .797-2.562v-.45h5.77v3.863c0 5.545-4.455 7.089-4.455 7.089 4.657.879 4.625 3.243 4.36 4.29a1.29 1.29 0 0 1-1.628.903z" fill="#FCAD6D"/>
    <path d="m31.929 25.857 2.253.7c1.272-2.195 3.138-1.169 4.14-.358.201-1.129-.054-3.248-4.408-4.07l-.608.21c1.5 2.664-1.377 3.518-1.377 3.518z" fill="#FD995B"/>
    <path d="M38.274 26.42c.02-.077.037-.16.052-.25-.986-.823-2.898-1.934-4.176.377l2.495.775a1.29 1.29 0 0 0 1.629-.902z" fill="#FCD7C3"/>
    <path d="M38.107 17.14a.64.64 0 0 0-.76.418c-.977 2.977-3.508 3.915-3.645 3.964a.643.643 0 0 0 .422 1.215c.051-.018 1.263-.446 2.465-1.611a7.78 7.78 0 0 0 1.974-3.163.641.641 0 0 0-.456-.823zM43.214 13.675c-1.718.009-2.706.525-3.254 1.006a1.285 1.285 0 0 1-1.532.13c-1.381-.865-4.19-1.913-7.35.928-.133.12-.3.252-.431.356.318-.61.696-1.246 1.148-1.907a4.542 4.542 0 0 0 .797-2.562v-.45h13.491v1.487c0 .692.255 1.356.704 1.882a6.94 6.94 0 0 1 1.013 1.58c-.603-.806-2.14-2.463-4.586-2.45z" fill="#FD995B"/>
    <path d="M46.767.596A38.51 38.51 0 0 0 40 0c-2.73 0-5.393.288-7.962.832v4.747h14.729V.596z" fill="#47477F"/>
    <path d="M46.738 4.855H32.066a.725.725 0 0 0-.722.723v5.071c0 .398.325.723.722.723h14.672a.725.725 0 0 0 .723-.723V5.58a.725.725 0 0 0-.723-.724z" fill="#E9EFFF"/>
    <path d="M39.402 10.65V5.577c0-.397.325-.723.723-.723h-8.059a.725.725 0 0 0-.722.723v5.071c0 .398.325.723.722.723h8.059a.725.725 0 0 1-.723-.723z" fill="#BEC8F7"/>
    <path d="M66.721 60.085H13.278c-.776 0-1.41-.634-1.41-1.41v-18.62a3.447 3.447 0 0 1 3.437-3.438h49.388a3.447 3.447 0 0 1 3.438 3.438v18.62c0 .776-.635 1.41-1.41 1.41z" fill="#47477F"/>
    <path d="M24.766 46.723a1.963 1.963 0 0 1-1.425-1.881v-6.268c0-1.076.88-1.957 1.956-1.957h-9.992a3.447 3.447 0 0 0-3.437 3.437v18.621c0 .775.634 1.41 1.41 1.41h11.488V46.723z" fill="#3B3868"/>
    <path d="M22.206 55.996V62a2.001 2.001 0 1 0 4.002 0v-6.003h-4.002z" fill="#7272AF"/>
    <path d="M26.208 52.05h-4.002v-5.218c0-.252.204-.457.457-.457h3.089c.252 0 .456.205.456.457v5.218z" fill="#5F5F9B"/>
    <path d="M53.791 55.996V62a2.001 2.001 0 0 0 4.002 0v-6.003h-4.002z" fill="#7272AF"/>
    <path d="M22.206 55.996v5.335a2.001 2.001 0 1 1 4.002 0v-5.335h-4.002zM53.792 55.996v5.335a2.001 2.001 0 1 1 4.002 0v-5.335h-4.002zM57.794 52.05h-4.002v-5.218c0-.252.204-.457.457-.457h3.089c.252 0 .456.205.456.457v5.218z" fill="#5F5F9B"/>
    <path d="M29.96 41.34h20.08c.769 0 1.398-.628 1.398-1.397v-3.326H28.561v3.326c0 .769.63 1.398 1.398 1.398z" fill="#3B3868"/>
    <path d="M44.708 36.617v3.326c0 .769-.629 1.398-1.398 1.398h6.73c.769 0 1.398-.629 1.398-1.398v-3.326h-6.73z" fill="#2D2D59"/>
    <path d="M50.512 54.025a3.161 3.161 0 0 1 3.157-3.158h4.246a3.161 3.161 0 0 1 3.158 3.158 3.161 3.161 0 0 1-3.158 3.157h-4.246a3.161 3.161 0 0 1-3.157-3.157zm3.157-.79a.801.801 0 0 0-.79.79c0 .428.362.79.79.79h4.246c.428 0 .79-.362.79-.79a.801.801 0 0 0-.79-.79h-4.246z" fill="#BEC8F7"/>
    <path d="M55.886 54.815h1.99c.37 0 .713-.238.806-.597.13-.507-.274-.984-.766-.984h-2.03a1.184 1.184 0 1 1 0-2.367h1.952c1.71 0 3.169 1.327 3.233 3.036a3.161 3.161 0 0 1-3.155 3.28h-2.03a1.184 1.184 0 0 1 0-2.368z" fill="#E9EFFF"/>
    <path d="M18.927 54.025a3.161 3.161 0 0 1 3.157-3.158h4.246a3.161 3.161 0 0 1 3.158 3.158 3.161 3.161 0 0 1-3.158 3.157h-4.246a3.161 3.161 0 0 1-3.157-3.157zm3.158-.79a.801.801 0 0 0-.79.79c0 .428.361.79.79.79h4.245c.429 0 .79-.362.79-.79a.801.801 0 0 0-.79-.79h-4.245z" fill="#BEC8F7"/>
    <path d="M24.3 54.815h1.99c.37 0 .713-.238.806-.597.13-.507-.274-.984-.766-.984H24.3a1.184 1.184 0 1 1 0-2.367h1.952c1.71 0 3.169 1.327 3.233 3.036a3.161 3.161 0 0 1-3.155 3.28H24.3a1.184 1.184 0 1 1 0-2.368z" fill="#E9EFFF"/>
</svg>
