<svg width="544" height="148" viewBox="0 0 544 148" fill="none" xmlns="http://www.w3.org/2000/svg">
    <g clip-path="url(#7bimi1r22a)">
        <path fill-rule="evenodd" clip-rule="evenodd" d="M79.138 129.43c3.19-2.658-1.595-4.386-4.784-3.522-5.715 1.595-3.19 8.771 1.262 10.233 2.725.93 5.117 0 6.91-1.595.2-.199 2.193-2.459 1.064-2.724-.731-.2-1.595 1.794-1.86 2.06-1.596 1.461-5.117 1.86-6.712.132-1.528-1.661-1.462-7.043 2.724-6.378 1.064.199.731 2.325 1.396 1.794z" fill="#77B8D8"/>
        <path fill-rule="evenodd" clip-rule="evenodd" d="M121.132 138.267c-1.262-.797-3.588 2.392-3.056 3.655 1.395 3.123 4.85 5.98 8.571 7.707.598.266 4.585 1.529 5.25 1.263.133-.067.066-1.528 0-1.595-2.725-2.126-6.113-2.06-8.173-5.116-1.196-1.861-.532-4.519-2.592-5.914z" fill="#F48184"/>
        <path fill-rule="evenodd" clip-rule="evenodd" d="M160.602 144.379c3.588-.996 1.262-4.385-2.193-4.053-8.638.93-4.851 7.575.465 9.701 6.844 2.725 14.685-5.116 10.366-9.767-.665-.731-1.595-1.595-2.791-1.794-.664-.133-2.525-.665-2.126-.2.465.465 1.594.598 2.06 1.064 2.392 2.392 1.196 9.036-3.456 9.435-3.521.332-10.1-3.92-5.249-6.047.93-.332 1.462 2.127 2.924 1.661z" fill="#fff"/>
        <path fill-rule="evenodd" clip-rule="evenodd" d="M363.597 38.663c5.582.465 8.373-9.635 1.595-10.3-3.92-.398-7.641 4.851-3.655 6.313 1.329.531 4.718-1.33 3.456-2.26-.399-.265-1.994 1.861-2.658-.265-.465-1.396 2.259-3.256 3.787-2.06 2.06 1.595.067 4.983-1.462 6.246-.664.598-2.126 2.26-1.063 2.326z" fill="#EA6F68"/>
        <path fill-rule="evenodd" clip-rule="evenodd" d="M395.558 42.715c2.525-2.126-1.262-3.521-3.787-2.79-4.519 1.262-2.525 6.977.996 8.106 2.193.731 4.054 0 5.449-1.262.133-.133 1.728-1.927.797-2.127-.598-.132-1.262 1.462-1.462 1.662-1.262 1.13-4.053 1.462-5.315.133-1.263-1.33-1.196-5.582 2.126-5.05.864.066.664 1.794 1.196 1.328zM402.601 70.159c.067-.997 2.26-1.196 3.589-1.13v2.924c0 1.86 1.063 5.05-1.662 5.581-.265.067-1.063.465-1.329.399-.73-.266.067-1.262.133-1.927.266-1.794-.93-3.987-.731-5.847z" fill="#FFE297"/>
        <path fill-rule="evenodd" clip-rule="evenodd" d="M434.895 32.483c-.997-.664-2.858 1.928-2.392 2.924 1.063 2.459 3.853 4.718 6.777 6.113.465.2 3.655 1.196 4.12.997.133-.066.066-1.196 0-1.263-2.193-1.66-4.851-1.594-6.446-4.053-.996-1.528-.465-3.588-2.059-4.718z" fill="#F48184"/>
        <path fill-rule="evenodd" clip-rule="evenodd" d="M467.254 42.052c-1.329-.133-.996 1.13-1.661 1.927-.664.797-2.924 1.594-3.322 2.126-.266.399 1.063 1.595 1.462 1.661.265.067 1.794-.997 1.993-1.13 1.462-1.063 4.585-4.319 1.528-4.584z" fill="#CBE37C"/>
        <path fill-rule="evenodd" clip-rule="evenodd" d="M364.261 66.77c.067-.531-.066-1.462.599-1.462 2.524-.066 3.123 1.13 3.123 2.392 0 .798-1.994 1.662-2.991 1.13-.664-.332-.731-1.528-.731-2.06zM420.609 14.94c-.133-.597 1.993-.93 2.657-1.195.532-.2 1.329-1.063 1.462-.665.266.598-.332 1.662-.266 2.393.067.93.466 1.926.931 2.79.133.266.863.864.664 1.13-.332.465-1.329.465-1.86.664-.2.067-.798.399-.997.266-.465-.2-.532-1.196-.665-1.462-.73-1.262-1.661-2.525-1.926-3.92z" fill="#fff"/>
        <path fill-rule="evenodd" clip-rule="evenodd" d="M452.171 71.554c-1.994 2.126 1.927 3.72 4.252 2.126 5.781-3.987-1.328-7.442-6.578-6.977-6.777.598-7.575 9.37-1.329 11.163.931.266 2.259.598 3.19.266.598-.2 2.259-.465 1.661-.664-.665-.2-1.528.199-2.193 0-3.322-.864-6.711-6.18-3.522-8.306 2.393-1.529 10.034-.93 7.775 2.458-.465.665-2.392-.93-3.256-.066z" fill="#77B8D8"/>
        <path fill-rule="evenodd" clip-rule="evenodd" d="M519.615 109.162c-1.595.266-3.788 1.861-5.25 2.393-.398.132-1.196.066-1.262.398 0 .2 1.727.665 1.727.731 1.329.532 2.393 1.329 3.323 2.193 1.727 1.661 1.927 3.123.598 4.983-.133.2-.93.598-.997.731-.133.465 1.263.598 1.462.665 1.329.266 3.389.266 4.452-.532.664-.465-.067-2.857-.133-3.389-.066-1.86-.93-8.638-3.92-8.173z" fill="#FFE297"/>
        <path fill-rule="evenodd" clip-rule="evenodd" d="M411.771 157.934c-4.518 2.592-13.821-4.983-8.372-8.239 3.123-1.86 9.834 1.13 7.442 3.987-.798.93-4.984.731-4.585-.598.133-.399 2.99.797 2.126-1.263-.531-1.329-4.119-1.927-4.651-.199-.731 2.193 3.322 4.386 5.515 4.784.997.2 3.389 1.063 2.525 1.528z" fill="#EA6F68"/>
        <path fill-rule="evenodd" clip-rule="evenodd" d="M415.824 103.648c-3.654-.798-1.262-3.522 1.396-3.92 4.784-.732 6.91 4.983 4.651 7.375-1.395 1.462-3.455 1.594-5.581 1.063-.266-.067-2.791-.997-2.193-1.528.398-.333 2.06.731 2.392.797 1.86.465 4.518-.332 4.651-1.993.133-1.662-2.791-5.316-5.316-3.522-.598.531.731 1.927 0 1.728z" fill="#FFE297"/>
        <path fill-rule="evenodd" clip-rule="evenodd" d="M405.857 123.914c.399-.93 3.788.532 4.054 1.529.73 2.591-.067 5.648-1.728 7.973-.266.399-2.326 2.525-2.857 2.525-.133 0-.864-.996-.864-1.063.731-2.326 3.123-3.322 2.791-6.113-.2-1.661-2.06-3.256-1.396-4.851z" fill="#F48184"/>
        <path fill-rule="evenodd" clip-rule="evenodd" d="M434.695 130.758c-2.259.2-1.329 2.193.864 2.193 1.595 0 1.329-2.458-.864-2.193z" fill="#F9EAC3"/>
        <path fill-rule="evenodd" clip-rule="evenodd" d="M487.454 136.738c-.398-.399-.93-1.262-1.462-.997-2.259.997-1.927 2.259-1.063 3.323.532.731 2.857.598 3.323-.2.332-.598-.399-1.727-.798-2.126zM371.305 126.771c-2.99.466-3.256-2.591-.664-3.455 6.445-2.126 7.442 3.655 4.917 6.778-3.256 3.987-12.825 1.129-12.359-3.389.066-.731.199-1.595.93-2.126.398-.266 1.395-1.263 1.329-.798-.067.465-.731.864-.864 1.396-.332 2.392 4.053 6.512 7.442 5.315 2.525-.863 4.784-5.847.332-5.78-.797.066.2 1.86-1.063 2.059z" fill="#fff"/>
        <path fill-rule="evenodd" clip-rule="evenodd" d="M329.31 17.4c-4.518.93-2.724 9.368 2.791 8.305 3.19-.598 3.987-5.448.332-5.714-1.196-.067-3.123 2.126-1.794 2.591.399.133.798-1.86 2.127-.399.863.93-.466 2.99-2.127 2.459-2.192-.73-2.06-3.854-1.262-5.183.266-.598.797-2.259-.067-2.06z" fill="#EA6F68"/>
        <path fill-rule="evenodd" clip-rule="evenodd" d="M214.357 111.09c-1.129 2.193 2.326 2.392 4.054 1.263 2.99-1.994-.731-5.981-3.921-6.047-1.927-.067-3.123.93-3.721 2.259-.066.133-.598 1.861.2 1.861.531 0 .398-1.396.531-1.595.532-1.196 2.592-2.06 4.053-1.329 1.462.731 3.057 4.053.333 4.452-.798.066-1.263-1.263-1.529-.864zM145.585 124.844c.332.798-1.263 1.462-2.326 1.728l-1.13-2.259c-.73-1.462-2.79-3.655-.93-4.718.2-.066.665-.598.864-.598.664.067.465.997.598 1.528.532 1.462 2.326 2.858 2.924 4.319z" fill="#FFE297"/>
        <path fill-rule="evenodd" clip-rule="evenodd" d="M199.872 87.235c.997.266 1.462-2.126.731-2.79-1.794-1.662-4.851-2.792-7.642-3.19-.465-.067-3.256-.133-3.588.133-.066.066.399.93.465.996 2.326.798 4.386.133 6.579 1.662 1.328.93 1.727 2.724 3.455 3.189z" fill="#F48184"/>
        <path fill-rule="evenodd" clip-rule="evenodd" d="M154.489 93.481c.133.4.598 1.13.133 1.263-1.927.598-2.858-.133-3.389-1.13-.332-.598.93-1.727 1.86-1.594.665.133 1.196.996 1.396 1.461z" fill="#fff"/>
        <path fill-rule="evenodd" clip-rule="evenodd" d="M168.243 62.517c.332.465-1.196 1.196-1.595 1.528-.332.266-.598 1.13-.93.864-.465-.399-.398-1.396-.731-1.927-.398-.73-1.129-1.395-1.794-1.927-.199-.133-.996-.465-.93-.73.066-.4.864-.665 1.196-.931.133-.067.465-.465.664-.465.399 0 .864.863 1.064.996 1.063.864 2.259 1.595 3.056 2.592z" fill="#77B8D8"/>
        <path fill-rule="evenodd" clip-rule="evenodd" d="M116.348 101.521c.731-2.126-2.924-2.459-4.12-.664-2.923 4.452 3.921 5.515 7.841 3.92 5.05-2.06 2.193-8.97-3.322-8.97-.864 0-1.994.066-2.592.531-.398.266-1.594.93-1.063.864.598 0 1.13-.465 1.728-.532 2.923-.133 7.641 3.256 5.98 5.582-1.262 1.728-7.376 2.99-6.977-.133.133-.531 2.259.266 2.525-.598z" fill="#fff"/>
        <path fill-rule="evenodd" clip-rule="evenodd" d="M218.676 51.221c-.598-.598-2.458.997-2.325 1.794.266 1.927 1.794 3.854 3.588 5.25.266.199 2.326 1.328 2.791 1.262.066 0 .332-.864.265-.93-1.196-1.462-3.123-1.794-3.787-3.721-.465-1.196.399-2.658-.532-3.655zM156.15 20.323c.664-1.13 3.388-.664 4.85-.133 0 0-1.594 3.256-1.727 3.456-1.13 2.259-1.661 6.312-5.25 6.046-.332 0-1.594.2-1.794 0-.731-.598.864-1.461 1.329-2.192 1.462-2.06 1.329-5.05 2.592-7.177z" fill="#77B8D8"/>
        <path fill-rule="evenodd" clip-rule="evenodd" d="M79.403 66.504c-1.461-.598-1.794.996-3.056 1.66-1.263.665-4.386.865-5.183 1.396-.598.399.399 2.26.797 2.459.333.133 2.791-.598 2.99-.665 2.26-.73 7.908-3.455 4.453-4.85z" fill="#CBE37C"/>
        <path fill-rule="evenodd" clip-rule="evenodd" d="M131.697 49.958c2.99-2.923 5.648 1.33 3.19 2.658-2.06 1.063-4.186-1.727-3.19-2.658z" fill="#77B8D8"/>
        <path fill-rule="evenodd" clip-rule="evenodd" d="M104.52 32.018c.2-.797 2.924-.399 3.788-.465.731-.066 2.126-.797 2.126-.266-.066.864-1.395 1.86-1.727 2.724-.465 1.13-.532 2.393-.532 3.589 0 .332.465 1.329.067 1.594-.598.465-1.861.133-2.592.133-.266 0-1.129.133-1.395 0-.399-.332.133-1.594.133-1.993 0-1.794-.333-3.588.132-5.316zM219.872 12.748c-3.588 1.794.067 5.05 3.721 3.987 9.17-2.724 2.858-9.302-3.654-10.565-8.373-1.595-14.419 8.439-8.173 12.691.996.665 2.325 1.462 3.654 1.396.798 0 2.99.2 2.392-.2-.664-.398-1.927-.332-2.591-.73-3.389-2.127-4.319-9.635.664-11.03 3.722-.997 12.36 2.325 7.775 5.581-.93.73-2.326-1.86-3.788-1.13z" fill="#fff"/>
        <path fill-rule="evenodd" clip-rule="evenodd" d="M278.412 47.035c-1.462-.797-2.791-3.19-3.987-4.186-.332-.266-1.196-.465-.996-.864.066-.199 2.126-.133 2.192-.133a15.395 15.395 0 0 0 4.652-1.13c2.724-1.129 3.787-2.524 3.521-4.85 0-.266-.598-.93-.531-1.063.133-.531 1.595-.2 1.927-.133 1.528.2 3.588.864 4.186 2.06.399.731-1.728 2.924-2.126 3.389-1.263 1.794-6.047 8.439-8.838 6.91z" fill="#77B8D8"/>
        <path fill-rule="evenodd" clip-rule="evenodd" d="M277.349 16.27c-4.186-.398-3.389 3.19-.864 4.452 4.452 2.392 9.967-2.724 9.103-5.98-.531-1.993-2.591-2.79-5.05-2.99-.265 0-3.455.066-3.123.797.2.532 2.525-.066 2.924 0 2.193.133 4.386 1.927 3.588 3.655-.797 1.727-5.913 4.452-7.442 1.794-.465-.731 1.728-1.661.864-1.728z" fill="#FFE297"/>
        <path fill-rule="evenodd" clip-rule="evenodd" d="M267.382 98.132c.731.997 1.993-.066 3.322-.066 1.396 0 3.788 1.063 4.718.93.665-.066 1.196-1.794.997-2.126-.133-.266-2.392-.598-2.658-.665-2.126-.265-8.04-.398-6.379 1.927z" fill="#E4F2B5"/>
        <path fill-rule="evenodd" clip-rule="evenodd" d="M254.093 26.303c-2.127-.996-.067-2.724 2.192-1.993 1.529.532-.133 2.924-2.192 1.994z" fill="#FFE297"/>
        <path fill-rule="evenodd" clip-rule="evenodd" d="M492.039 92.484c-1.395.665.2 1.728.332 2.858.133 1.196-1.329 3.322-1.063 4.12.133.597 2.725.929 3.19.73.332-.133.797-2.126.797-2.325.266-1.795.067-6.911-3.256-5.383z" fill="#77B8D8"/>
        <path fill-rule="evenodd" clip-rule="evenodd" d="M235.886 56.139s-.199-2.459-1.395-3.854c-1.196-1.396-3.256-1.728-3.256-1.728s1.727-.266 2.924-1.661c1.196-1.33 1.727-3.788 1.727-3.788s.266 2.592 1.396 3.987c1.129 1.396 3.123 1.595 3.123 1.595s-2.06.2-3.19 1.528c-1.196 1.396-1.329 3.92-1.329 3.92zM264.392 83.382s-.266-3.19-1.794-4.984-4.186-2.193-4.186-2.193 2.259-.332 3.787-2.126c1.528-1.727 2.259-4.85 2.259-4.85s.333 3.322 1.794 5.116c1.462 1.794 3.987 1.993 3.987 1.993s-2.658.2-4.12 1.994c-1.461 1.794-1.727 5.05-1.727 5.05zM217.48 38.73s-.132-1.662-.93-2.592c-.797-.93-2.193-1.13-2.193-1.13s1.196-.2 1.994-1.13c.797-.93 1.196-2.524 1.196-2.524s.199 1.727.93 2.657c.731.93 2.06 1.063 2.06 1.063s-1.395.133-2.126 1.064c-.798.864-.931 2.591-.931 2.591z" fill="#fff"/>
        <path fill-rule="evenodd" clip-rule="evenodd" d="M276.884 128.566c.664-1.13 3.389-.665 4.85-.133 0 0-1.594 3.256-1.727 3.455-1.13 2.259-1.661 6.312-5.249 6.047-.333 0-1.595.199-1.795 0-.73-.598.864-1.462 1.329-2.193 1.396-2.06 1.263-5.05 2.592-7.176z" fill="#77B8D8"/>
        <path fill-rule="evenodd" clip-rule="evenodd" d="M225.188 140.26c.2-.797 2.924-.398 3.788-.465.731-.066 2.126-.797 2.126-.266-.066.864-1.395 1.861-1.728 2.725-.465 1.129-.531 2.392-.531 3.588 0 .332.465 1.329.066 1.595-.598.465-1.86.132-2.591.132-.266 0-1.13.133-1.396 0-.398-.332.133-1.594.133-1.993 0-1.794-.332-3.588.133-5.316z" fill="#fff"/>
        <path fill-rule="evenodd" clip-rule="evenodd" d="M330.175 121.323c-2.725-3.721-9.635 1.395-6.446 5.98 1.861 2.658 6.645 1.395 5.382-2.06-.398-1.13-3.189-1.993-3.056-.598.066.465 2.06-.066 1.262 1.794-.531 1.196-2.923.797-3.123-.93-.199-2.326 2.658-3.455 4.186-3.323.599.133 2.326-.132 1.795-.863z" fill="#EA6F68"/>
        <path fill-rule="evenodd" clip-rule="evenodd" d="M282.2 87.236c.132-1.662 1.727-3.854 2.192-5.383.133-.398-.066-1.262.333-1.262.199 0 .996 1.927.996 1.927.798 1.462 1.794 2.658 2.924 3.787 2.126 1.994 3.854 2.392 5.847 1.196.2-.133.598-.93.798-.93.531-.133.863 1.395.93 1.661.465 1.462.664 3.655-.133 4.718-.532.664-3.389-.399-3.987-.532-2.126-.398-10.166-2.06-9.9-5.183z" fill="#77B8D8"/>
        <path fill-rule="evenodd" clip-rule="evenodd" d="M309.775 73.547c-1.329-3.987-4.253-1.727-4.452 1.063-.332 5.05 6.578 7.974 9.17 5.781 1.595-1.329 1.462-3.522.664-5.847-.066-.266-1.462-3.123-2.06-2.525-.398.398 1.064 2.259 1.263 2.658.731 2.06.066 4.784-1.861 4.784-1.86 0-6.511-3.588-4.717-6.047.531-.664 2.259.93 1.993.133z" fill="#FFE297"/>
        <path fill-rule="evenodd" clip-rule="evenodd" d="M393.498 67.235c-4.518.93-2.724 9.37 2.791 8.306 3.189-.598 3.987-5.448.332-5.714-1.196-.067-3.123 2.126-1.794 2.591.399.133.797-1.86 2.126-.399.864.93-.465 2.99-2.126 2.459-2.193-.731-2.06-3.854-1.262-5.183.265-.598.797-2.26-.067-2.06z" fill="#EA6F68"/>
        <path fill-rule="evenodd" clip-rule="evenodd" d="M342.6 96.87c-1.462-.797-2.791-3.19-3.987-4.186-.332-.266-1.196-.465-.997-.864.067-.199 2.127-.133 2.193-.133a15.385 15.385 0 0 0 4.651-1.13c2.725-1.129 3.788-2.524 3.522-4.85 0-.266-.598-.93-.531-1.063.132-.532 1.594-.2 1.927-.133 1.528.2 3.588.864 4.186 2.06.398.73-1.728 2.924-2.127 3.389-1.262 1.727-6.113 8.439-8.837 6.91z" fill="#77B8D8"/>
        <path fill-rule="evenodd" clip-rule="evenodd" d="M341.537 66.105c-4.186-.398-3.389 3.19-.864 4.452 4.452 2.392 9.967-2.724 9.103-5.98-.531-1.993-2.591-2.79-5.05-2.99-.266 0-3.455.066-3.123.797.2.532 2.525-.066 2.924 0 2.193.133 4.385 1.927 3.588 3.655-.797 1.727-5.914 4.452-7.442 1.794-.465-.731 1.661-1.661.864-1.728z" fill="#FFE297"/>
        <path fill-rule="evenodd" clip-rule="evenodd" d="M119.006 85.375c-4.518.93-2.724 9.369 2.791 8.306 3.189-.598 3.987-5.449.332-5.715-1.196-.066-3.123 2.127-1.794 2.592.399.133.797-1.86 2.126-.399.864.93-.465 2.99-2.126 2.459-2.193-.731-2.06-3.854-1.263-5.183.333-.598.798-2.26-.066-2.06z" fill="#EA6F68"/>
        <path fill-rule="evenodd" clip-rule="evenodd" d="M48.705 128.964c-1.462-.797-2.79-3.189-3.987-4.186-.332-.266-1.196-.465-.996-.864.066-.199 2.126-.133 2.192-.133a15.398 15.398 0 0 0 4.652-1.129c2.724-1.13 3.787-2.525 3.521-4.851 0-.266-.598-.93-.531-1.063.133-.532 1.595-.2 1.927-.133 1.528.199 3.588.864 4.186 2.06.399.731-1.728 2.923-2.126 3.389-1.263 1.727-6.047 8.372-8.838 6.91z" fill="#77B8D8"/>
        <path fill-rule="evenodd" clip-rule="evenodd" d="M47.642 98.133c-4.186-.399-3.389 3.189-.864 4.452 4.452 2.392 9.967-2.725 9.103-5.98-.531-1.994-2.591-2.791-5.05-2.99-.265 0-3.455.066-3.123.797.2.531 2.525-.067 2.924 0 2.193.132 4.386 1.927 3.588 3.654-.797 1.728-5.913 4.452-7.442 1.794-.465-.664 1.728-1.594.864-1.727z" fill="#FFE297"/>
        <circle cx="272" cy="88" r="36" fill="#FFDF6C"/>
        <g clip-path="url(#9h09ac9pxb)">
            <path d="M292.306 74.65h-2.736v28.7h2.736a2.362 2.362 0 0 0 .694-1.676V76.326c0-.654-.265-1.247-.694-1.676z" fill="#4FDBFF"/>
            <path d="M290.265 76.326c0-.654-.266-1.247-.695-1.676h-35.721a2.363 2.363 0 0 0-.694 1.676v25.348c0 .655.265 1.247.694 1.676h35.721a2.362 2.362 0 0 0 .695-1.676V76.326z" fill="#8AE7FF"/>
            <path d="m290.265 101.309-2.371 2.735h2.735c.655 0 1.248-.265 1.677-.694l-2.041-2.041z" fill="#14CFFF"/>
            <path d="M290.265 101.674v-.365l-17.188-17.187-19.228 19.228a2.364 2.364 0 0 0 1.676.695h32.369a2.372 2.372 0 0 0 2.371-2.371z" fill="#4FDBFF"/>
            <path d="M290.629 73.956h-2.735l2.371 2.735 2.041-2.041a2.364 2.364 0 0 0-1.677-.694z" fill="#8AE7FF"/>
            <path d="M287.894 73.956h-32.369c-.654 0-1.247.265-1.676.694l15.843 15.843a4.787 4.787 0 0 0 6.77 0l13.803-13.802v-.365c0-1.309-1.062-2.37-2.371-2.37z" fill="#C4F3FF"/>
            <path d="M258.625 89.684h-10.941a.684.684 0 1 1 0-1.368h10.941a.684.684 0 1 1 0 1.368z" fill="#3A6FD8"/>
            <path d="M255.89 84.213h-8.206a.684.684 0 1 1 0-1.368h8.206a.684.684 0 1 1 0 1.368zM255.89 95.154h-8.206a.684.684 0 1 1 0-1.367h8.206a.684.684 0 1 1 0 1.367z" fill="#3B88F5"/>
        </g>
    </g>
    <defs>
        <clipPath id="7bimi1r22a">
            <path fill="#fff" d="M0 0h544v148H0z"/>
        </clipPath>
        <clipPath id="9h09ac9pxb">
            <path fill="#fff" transform="translate(247 66)" d="M0 0h46v46H0z"/>
        </clipPath>
    </defs>
</svg>
