<svg width="375" height="375" viewBox="0 0 375 375" fill="none" xmlns="http://www.w3.org/2000/svg">
<path d="M153.063 21.47C145.522 23.8196 112.073 34.7411 78.6713 63.7212C70.58 70.7442 37.8735 99.1204 23.9006 137.275C0.115883 202.213 28.5759 301.011 110.554 340.714C206.038 386.96 326.653 330.037 354.162 253.86C366.364 220.074 366.912 164.046 336.177 127.101C311.441 97.3683 269.141 83.2399 270.782 55.1161C271.57 41.5702 281.79 37.8257 278.956 29.2943C272.231 9.06153 206.342 4.86235 153.063 21.47Z" fill="#A6C0FB"/>
<path d="M168.283 51.2084L76.0108 48.0283C73.7343 48.0283 68.5033 49.2784 61.9253 53.0146L57.5038 55.9184C55.5344 57.2119 54.5211 59.5235 54.8316 62.0154L56.3702 74.3839H185.832L184.294 62.0154C183.983 59.5235 182.396 57.2119 180.107 55.9184L174.962 53.0146C172.869 51.8327 170.559 51.2084 168.283 51.2084Z" fill="#0A428D"/>
<path d="M217.735 293.32L190.249 72.3334C189.565 66.8242 184.543 62.3594 179.035 62.3594L57.9181 73.8764L55.9569 64.3069L42.2671 76.4507C41.731 76.8245 41.2432 77.2573 40.8109 77.7427C39.2011 79.5499 38.3755 82.0648 38.7215 84.8437L63.7056 293.32C64.3908 298.829 69.4117 303.294 74.9195 303.294H209.003C214.509 303.294 218.42 298.829 217.735 293.32Z" fill="#0A428D"/>
<path d="M177.04 48.7065H76.9135C74.637 48.7065 72.4823 49.3318 70.6834 50.5118L66.262 53.417C64.2925 54.7105 63.2793 57.0201 63.5892 59.5125L65.1284 71.881H194.593L193.052 59.5125C192.744 57.0201 191.156 54.7105 188.865 53.417L183.719 50.5118C181.626 49.3318 179.316 48.7065 177.04 48.7065Z" fill="#FEFFFF"/>
<path d="M65.6807 71.2555H193.883L192.431 59.5903C192.147 57.3065 190.662 55.1513 188.556 53.9602L183.413 51.0565C181.413 49.9277 179.209 49.3312 177.041 49.3312H76.9136C74.7599 49.3312 72.7237 49.9209 71.0272 51.0365L66.6052 53.9393C64.8229 55.1099 63.9276 57.1647 64.2098 59.4348L65.6807 71.2555ZM194.591 72.5086H65.1275C64.8122 72.5086 64.5466 72.2732 64.5076 71.9598L62.9685 59.5903C62.6312 56.8766 63.7614 54.3101 65.9185 52.8924L70.3405 49.9896C72.2417 48.741 74.5148 48.0806 76.9136 48.0806H177.041C179.424 48.0806 181.841 48.7322 184.028 49.9667L189.172 52.8714C191.654 54.2731 193.336 56.726 193.675 59.4348L195.213 71.8038C195.236 71.9827 195.179 72.1606 195.062 72.2961C194.941 72.4311 194.77 72.5086 194.591 72.5086Z" fill="#0A428D"/>
<path d="M195.717 62.3594H61.6339C56.1256 62.3594 52.2164 66.8242 52.9017 72.3334L80.3879 293.32C81.0732 298.829 86.0936 303.294 91.6014 303.294H225.685C231.194 303.294 235.103 298.829 234.418 293.32L206.931 72.3334C206.248 66.8242 201.227 62.3594 195.717 62.3594Z" fill="#FEFFFF"/>
<path d="M61.6336 62.9845C59.1666 62.9845 56.9661 63.9383 55.4382 65.667C53.8922 67.4181 53.2119 69.7565 53.5228 72.2562L81.0091 293.243C81.6553 298.44 86.4067 302.669 91.6016 302.669H225.685C228.154 302.669 230.353 301.715 231.882 299.986C233.428 298.235 234.106 295.895 233.798 293.398L206.313 72.4102C205.665 67.2124 200.913 62.9845 195.718 62.9845H61.6336ZM225.685 303.92H91.6016C85.7975 303.92 80.489 299.2 79.7672 293.398L52.281 72.4102C51.9247 69.5518 52.7133 66.8625 54.5005 64.8394C56.2696 62.8373 58.8025 61.7334 61.6336 61.7334H195.718C201.52 61.7334 206.832 66.4536 207.552 72.2562L235.04 293.243C235.395 296.103 234.606 298.791 232.82 300.814C231.05 302.816 228.517 303.92 225.685 303.92Z" fill="#0A428D"/>
<path d="M116.621 223.581H96.6889C92.4946 223.581 88.6716 220.182 88.1506 215.988L87.6535 211.998C87.132 207.803 90.1089 204.404 94.3032 204.404H114.236C118.43 204.404 122.252 207.803 122.774 211.998L123.271 215.988C123.793 220.182 120.815 223.581 116.621 223.581Z" fill="#E12599"/>
<path d="M94.303 205.027C92.4671 205.027 90.8315 205.737 89.6964 207.02C88.5482 208.32 88.0432 210.06 88.2743 211.92L88.7704 215.91C89.2544 219.795 92.8058 222.956 96.6887 222.956H116.621C118.457 222.956 120.092 222.248 121.227 220.964C122.376 219.665 122.881 217.923 122.65 216.065L122.153 212.075C121.67 208.188 118.118 205.027 114.236 205.027H94.303ZM116.621 224.207H96.6887C92.1961 224.207 88.0876 220.555 87.5291 216.065L87.0329 212.075C86.7571 209.854 87.3697 207.765 88.7597 206.192C90.135 204.634 92.104 203.778 94.303 203.778H114.236C118.728 203.778 122.836 207.431 123.395 211.92L123.891 215.91C124.168 218.129 123.554 220.221 122.165 221.793C120.789 223.349 118.821 224.207 116.621 224.207Z" fill="#0A428D"/>
<path d="M120.124 251.751H100.192C95.998 251.751 92.1751 248.351 91.6531 244.156L91.1569 240.166C90.6355 235.971 93.6123 232.572 97.8066 232.572H117.739C121.933 232.572 125.756 235.971 126.278 240.166L126.774 244.156C127.295 248.351 124.319 251.751 120.124 251.751Z" fill="#E12599"/>
<path d="M97.8066 233.198C95.9707 233.198 94.335 233.905 93.2 235.19C92.0517 236.491 91.5468 238.23 91.7778 240.088L92.2744 244.079C92.7579 247.966 96.3099 251.126 100.192 251.126H120.124C121.96 251.126 123.596 250.417 124.731 249.134C125.879 247.833 126.384 246.092 126.153 244.234L125.657 240.243C125.173 236.358 121.621 233.198 117.74 233.198H97.8066ZM120.124 252.378H100.192C95.6997 252.378 91.5911 248.724 91.0331 244.234L90.536 240.243C90.2596 238.024 90.8732 235.935 92.2622 234.36C93.6381 232.805 95.6066 231.946 97.8066 231.946H117.74C122.231 231.946 126.34 235.599 126.898 240.088L127.395 244.079C127.671 246.3 127.058 248.389 125.669 249.962C124.293 251.519 122.323 252.378 120.124 252.378Z" fill="#0A428D"/>
<path d="M123.629 279.92H103.696C99.502 279.92 95.6795 276.519 95.1576 272.327L94.6609 268.334C94.139 264.142 97.1163 260.741 101.311 260.741H121.243C125.437 260.741 129.26 264.142 129.781 268.334L130.278 272.327C130.799 276.519 127.823 279.92 123.629 279.92Z" fill="#E12599"/>
<path d="M101.31 261.366C99.4745 261.366 97.8389 262.073 96.7043 263.359C95.5561 264.659 95.0502 266.398 95.2822 268.258L95.7783 272.249C96.2618 276.134 99.8128 279.295 103.696 279.295H123.629C125.464 279.295 127.1 278.587 128.235 277.302C129.383 276.001 129.888 274.262 129.657 272.404L129.161 268.413C128.677 264.527 125.125 261.366 121.242 261.366H101.31ZM123.629 280.545H103.696C99.2036 280.545 95.095 276.892 94.537 272.404L94.0399 268.413C93.7635 266.192 94.3776 264.103 95.7661 262.53C97.142 260.973 99.1105 260.115 101.31 260.115H121.242C125.735 260.115 129.844 263.769 130.402 268.258L130.898 272.249C131.175 274.468 130.561 276.557 129.172 278.13C127.797 279.688 125.828 280.545 123.629 280.545Z" fill="#0A428D"/>
<path d="M158.695 223.581H138.763C134.568 223.581 130.745 220.182 130.224 215.988L129.727 211.998C129.206 207.803 132.183 204.404 136.377 204.404H156.309C160.504 204.404 164.326 207.803 164.848 211.998L165.345 215.988C165.867 220.182 162.89 223.581 158.695 223.581Z" fill="#E12599"/>
<path d="M136.377 205.027C134.542 205.027 132.905 205.737 131.771 207.02C130.622 208.32 130.117 210.06 130.348 211.92L130.844 215.91C131.328 219.795 134.88 222.956 138.762 222.956H158.694C160.53 222.956 162.167 222.248 163.302 220.964C164.449 219.665 164.956 217.923 164.723 216.065L164.228 212.075C163.744 208.188 160.191 205.027 156.309 205.027H136.377ZM158.694 224.207H138.762C134.27 224.207 130.161 220.555 129.603 216.065L129.107 212.075C128.831 209.854 129.443 207.765 130.833 206.192C132.209 204.634 134.178 203.778 136.377 203.778H156.309C160.802 203.778 164.91 207.431 165.469 211.92L165.965 215.91C166.24 218.129 165.628 220.221 164.239 221.793C162.863 223.349 160.895 224.207 158.694 224.207Z" fill="#0A428D"/>
<path d="M162.199 251.751H142.266C138.072 251.751 134.25 248.351 133.727 244.156L133.231 240.166C132.71 235.971 135.686 232.572 139.881 232.572H159.814C164.007 232.572 167.831 235.971 168.352 240.166L168.848 244.156C169.37 248.351 166.392 251.751 162.199 251.751Z" fill="#E12599"/>
<path d="M139.88 233.198C138.044 233.198 136.409 233.905 135.275 235.19C134.126 236.489 133.621 238.23 133.852 240.088L134.348 244.079C134.832 247.966 138.383 251.126 142.266 251.126H162.199C164.035 251.126 165.67 250.417 166.804 249.134C167.953 247.833 168.458 246.094 168.227 244.234L167.731 240.243C167.246 236.358 163.697 233.198 159.813 233.198H139.88ZM162.199 252.378H142.266C137.773 252.378 133.665 248.724 133.107 244.234L132.611 240.243C132.334 238.024 132.947 235.935 134.337 234.36C135.712 232.805 137.681 231.946 139.88 231.946H159.813C164.305 231.946 168.414 235.599 168.973 240.088L169.467 244.079C169.746 246.3 169.131 248.389 167.741 249.962C166.365 251.519 164.398 252.378 162.199 252.378Z" fill="#0A428D"/>
<path d="M165.702 279.92H145.77C141.576 279.92 137.753 276.519 137.231 272.327L136.734 268.334C136.213 264.142 139.19 260.741 143.384 260.741H163.316C167.511 260.741 171.333 264.142 171.855 268.334L172.353 272.327C172.874 276.519 169.897 279.92 165.702 279.92Z" fill="#E12599"/>
<path d="M143.384 261.366C141.549 261.366 139.912 262.073 138.778 263.359C137.63 264.659 137.124 266.398 137.356 268.258L137.852 272.249C138.335 276.134 141.887 279.295 145.77 279.295H165.702C167.538 279.295 169.173 278.587 170.309 277.302C171.456 276.001 171.963 274.262 171.73 272.404L171.235 268.413C170.751 264.527 167.199 261.366 163.316 261.366H143.384ZM165.702 280.545H145.77C141.277 280.545 137.169 276.892 136.61 272.404L136.113 268.413C135.838 266.192 136.451 264.103 137.84 262.53C139.216 260.973 141.184 260.115 143.384 260.115H163.316C167.81 260.115 171.917 263.769 172.475 268.258L172.973 272.249C173.248 274.468 172.636 276.557 171.246 278.13C169.871 279.688 167.903 280.545 165.702 280.545Z" fill="#0A428D"/>
<path d="M200.768 223.581H180.836C176.642 223.581 172.819 220.182 172.298 215.988L171.8 211.998C171.279 207.803 174.256 204.404 178.451 204.404H198.383C202.577 204.404 206.4 207.803 206.922 211.998L207.419 215.988C207.94 220.182 204.963 223.581 200.768 223.581Z" fill="#E12599"/>
<path d="M178.451 205.027C176.616 205.027 174.98 205.737 173.844 207.02C172.697 208.32 172.192 210.062 172.423 211.92L172.919 215.91C173.402 219.795 176.954 222.956 180.836 222.956H200.768C202.604 222.956 204.239 222.248 205.375 220.964C206.522 219.665 207.029 217.923 206.797 216.065L206.301 212.075C205.818 208.188 202.265 205.027 198.383 205.027H178.451ZM200.768 224.207H180.836C176.345 224.207 172.235 220.555 171.678 216.065L171.18 212.075C170.905 209.854 171.517 207.765 172.906 206.192C174.283 204.634 176.252 203.778 178.451 203.778H198.383C202.876 203.778 206.984 207.431 207.544 211.92L208.039 215.91C208.314 218.129 207.702 220.221 206.313 221.793C204.937 223.349 202.969 224.207 200.768 224.207Z" fill="#0A428D"/>
<path d="M204.273 251.751H184.339C180.147 251.751 176.322 248.351 175.8 244.156L175.305 240.166C174.783 235.971 177.761 232.572 181.953 232.572H201.887C206.08 232.572 209.904 235.971 210.426 240.166L210.922 244.156C211.443 248.351 208.466 251.751 204.273 251.751Z" fill="#E12599"/>
<path d="M181.953 233.198C180.118 233.198 178.483 233.905 177.348 235.19C176.2 236.491 175.694 238.23 175.925 240.088L176.422 244.079C176.906 247.966 180.456 251.126 184.339 251.126H204.273C206.109 251.126 207.743 250.417 208.877 249.134C210.027 247.833 210.532 246.094 210.301 244.234L209.804 240.243C209.32 236.358 205.77 233.198 201.887 233.198H181.953ZM204.273 252.378H184.339C179.847 252.378 175.738 248.724 175.181 244.234L174.685 240.243C174.407 238.024 175.022 235.935 176.411 234.36C177.785 232.805 179.755 231.946 181.953 231.946H201.887C206.379 231.946 210.488 235.599 211.046 240.088L211.543 244.079C211.82 246.3 211.205 248.389 209.816 249.962C208.441 251.519 206.471 252.378 204.273 252.378Z" fill="#0A428D"/>
<path d="M207.776 279.92H187.844C183.649 279.92 179.827 276.519 179.305 272.327L178.808 268.334C178.286 264.142 181.264 260.741 185.458 260.741H205.39C209.585 260.741 213.407 264.142 213.929 268.334L214.426 272.327C214.948 276.519 211.97 279.92 207.776 279.92Z" fill="#E12599"/>
<path d="M185.458 261.366C183.623 261.366 181.986 262.073 180.852 263.359C179.704 264.659 179.198 266.398 179.43 268.258L179.925 272.249C180.409 276.134 183.961 279.295 187.844 279.295H207.776C209.612 279.295 211.248 278.587 212.382 277.302C213.53 276.001 214.036 274.262 213.805 272.404L213.309 268.413C212.825 264.527 209.273 261.366 205.39 261.366H185.458ZM207.776 280.545H187.844C183.351 280.545 179.243 276.892 178.685 272.404L178.188 268.413C177.912 266.192 178.524 264.103 179.914 262.53C181.291 260.973 183.259 260.115 185.458 260.115H205.39C209.884 260.115 213.992 263.769 214.549 268.258L215.047 272.249C215.322 274.468 214.71 276.557 213.32 278.13C211.945 279.688 209.977 280.545 207.776 280.545Z" fill="#0A428D"/>
<path d="M194.377 189.636H94.6364C89.2436 189.636 84.329 185.264 83.6579 179.872L72.7159 91.9027C72.0453 86.5104 75.8731 82.1382 81.2658 82.1382H181.007C186.399 82.1382 191.313 86.5104 191.984 91.9027L202.926 179.872C203.596 185.264 199.769 189.636 194.377 189.636Z" fill="white"/>
<path d="M123.191 82.1382L78.9268 141.834L82.3769 169.568L147.207 82.1382H123.191Z" fill="#99B9FF"/>
<path d="M160.16 82.1382L84.7437 183.846C86.4504 187.229 90.0131 189.636 93.8473 189.636H97.3285L175.706 82.1382H160.16Z" fill="#99B9FF"/>
<path d="M81.2657 82.7628C78.8532 82.7628 76.7024 83.6956 75.2091 85.3849C73.6978 87.095 73.033 89.3842 73.3366 91.8255L84.2786 179.795C84.9107 184.877 89.5568 189.012 94.6362 189.012H194.377C196.788 189.012 198.937 188.079 200.434 186.389C201.945 184.677 202.611 182.39 202.304 179.949L191.363 91.979C190.731 86.8981 186.084 82.7628 181.007 82.7628H81.2657ZM194.377 190.262H94.6362C88.9476 190.262 83.7439 185.636 83.0373 179.949L72.0953 91.979C71.7459 89.1761 72.5193 86.5399 74.2714 84.5563C76.006 82.5947 78.4901 81.5127 81.2657 81.5127H181.007C186.694 81.5127 191.896 86.1383 192.606 91.8255L203.547 179.795C203.894 182.598 203.123 185.234 201.372 187.216C199.637 189.18 197.152 190.262 194.377 190.262Z" fill="#0A428D"/>
<path d="M126.319 297.389C126.319 321.627 106.67 341.277 82.4322 341.277C58.1943 341.277 38.5444 321.627 38.5444 297.389C38.5444 273.151 58.1943 253.502 82.4322 253.502C106.67 253.502 126.319 273.151 126.319 297.389Z" fill="#0A428D"/>
<path d="M126.892 296.086C126.892 319.604 107.827 338.67 84.3082 338.67C60.7896 338.67 41.7241 319.604 41.7241 296.086C41.7241 272.568 60.7896 253.502 84.3082 253.502C107.827 253.502 126.892 272.568 126.892 296.086Z" fill="#E12599"/>
<path d="M84.308 254.128C61.172 254.128 42.3497 272.95 42.3497 296.086C42.3497 319.223 61.172 338.045 84.308 338.045C107.444 338.045 126.267 319.223 126.267 296.086C126.267 272.95 107.444 254.128 84.308 254.128ZM84.308 339.297C60.4823 339.297 41.0986 319.912 41.0986 296.086C41.0986 272.261 60.4823 252.877 84.308 252.877C108.134 252.877 127.518 272.261 127.518 296.086C127.518 319.912 108.134 339.297 84.308 339.297Z" fill="#0A428D"/>
<path d="M120.045 296.086C120.045 315.824 104.046 331.824 84.3082 331.824C64.5722 331.824 48.5718 315.824 48.5718 296.086C48.5718 276.349 64.5722 260.349 84.3082 260.349C104.046 260.349 120.045 276.349 120.045 296.086Z" fill="#FFF4E3"/>
<path d="M90.7798 276.41L88.8589 279.572C87.0619 278.543 85.2839 277.481 83.4559 276.513C83.0959 276.322 82.4054 276.303 82.1019 276.525C76.2222 280.828 69.7071 283.075 62.3766 282.78C62.2568 282.775 62.1357 282.804 61.9639 282.823C61.9153 282.953 61.8155 283.096 61.8132 283.24C61.6767 291.744 62.5546 300.065 66.4577 307.797C69.7652 314.348 74.857 318.994 81.6416 321.802C82.4545 322.139 83.1482 322.137 83.9605 321.788C93.1233 317.847 98.8913 310.941 101.778 301.497C101.885 301.149 101.99 300.8 102.112 300.4C102.702 300.353 103.308 300.315 103.91 300.252C104.47 300.194 105.026 300.108 105.727 300.016C104.948 303.302 103.822 306.317 102.35 309.206C98.2926 317.17 91.999 322.677 83.7612 326.004C83.1971 326.232 82.3852 326.222 81.8134 326.001C70.8599 321.749 64.1279 313.65 60.7253 302.601C58.4618 295.252 57.93 287.677 58.0487 280.036C58.0505 279.92 58.095 279.805 58.1296 279.647C60.0747 279.546 62.0125 279.477 63.9449 279.337C70.4903 278.863 76.3562 276.535 81.6067 272.661C82.4833 272.014 83.0475 272.015 83.9422 272.557C86.1591 273.899 88.4563 275.112 90.7798 276.41Z" fill="#1D93B8"/>
<path d="M86.9799 297.473C86.8593 297.465 86.7385 297.46 86.5913 297.453C86.5835 297.313 86.5737 297.193 86.5703 297.073C86.5364 295.882 86.5494 294.687 86.4584 293.501C86.3514 292.103 84.9783 290.786 83.5835 290.716C82.5296 290.664 81.4713 290.702 80.4154 290.689C78.8874 290.67 77.223 292.109 77.2262 293.982C77.2275 294.634 77.2069 295.286 77.2013 295.938C77.1969 296.44 77.2005 296.941 77.2005 297.441C76.8827 297.472 76.6473 297.484 76.416 297.521C75.8159 297.618 75.1274 298.303 75.1238 298.869C75.1081 301.33 75.1066 303.792 75.1196 306.254C75.1242 306.941 75.8785 307.639 76.5697 307.64C80.0891 307.646 83.6083 307.646 87.1275 307.639C87.9148 307.637 88.6205 306.963 88.6283 306.168C88.6509 303.83 88.6538 301.492 88.6371 299.153C88.6295 298.179 87.9592 297.542 86.9799 297.473ZM82.8946 302.117C82.6492 302.368 82.5754 302.621 82.5809 302.953C82.5917 303.616 82.5824 304.279 82.553 304.942C82.5353 305.349 82.437 305.416 82.0256 305.424C81.2254 305.441 81.185 305.404 81.1711 304.611C81.166 304.319 81.1703 304.027 81.1703 303.734H81.1622C81.1622 303.543 81.157 303.352 81.1633 303.161C81.177 302.747 81.1497 302.398 80.801 302.05C80.2433 301.493 80.3617 300.619 80.9532 300.097C81.5036 299.612 82.3502 299.643 82.8845 300.168C83.4075 300.682 83.4336 301.566 82.8946 302.117ZM84.2657 297.447H79.4141C79.4569 296.212 79.4714 295.002 79.5532 293.796C79.5886 293.273 79.9548 292.967 80.4908 292.957C81.4561 292.94 82.4231 292.961 83.3886 292.997C83.8111 293.012 84.1069 293.288 84.1757 293.703C84.2361 294.067 84.2566 294.44 84.2624 294.809C84.2739 295.674 84.2657 296.538 84.2657 297.447Z" fill="#E12599"/>
<mask id="mask0_188_40224" style="mask-type:luminance" maskUnits="userSpaceOnUse" x="89" y="275" width="23" height="22">
<path d="M89.7891 275.431H111.087V296.737H89.7891V275.431Z" fill="white"/>
</mask>
<g mask="url(#mask0_188_40224)">
<path d="M100.445 275.451C94.5673 275.451 89.8027 280.215 89.8027 286.092C89.8027 291.969 94.5673 296.733 100.445 296.733C106.323 296.733 111.087 291.969 111.087 286.092C111.087 280.215 106.322 275.451 100.445 275.451ZM106.56 283.407C106.478 283.517 106.379 283.615 106.281 283.713C104.123 285.873 101.963 288.032 99.8026 290.192C99.0435 290.95 98.415 290.952 97.6612 290.199C96.5927 289.132 95.525 288.065 94.4581 286.997C94.1029 286.641 93.9763 286.216 94.116 285.731C94.2527 285.257 94.584 284.97 95.0606 284.87C95.5312 284.77 95.9162 284.951 96.2458 285.281C96.9779 286.015 97.7118 286.748 98.4474 287.48C98.536 287.568 98.6283 287.652 98.7793 287.796C98.8649 287.678 98.9273 287.564 99.0155 287.476C100.871 285.616 102.728 283.757 104.587 281.899C104.847 281.638 105.13 281.436 105.514 281.423C106.035 281.405 106.437 281.613 106.677 282.077C106.916 282.539 106.872 282.989 106.56 283.407Z" fill="#E12599"/>
</g>
<path d="M114.353 316.069C114.237 316.069 114.119 316.037 114.014 315.971C113.723 315.782 113.64 315.396 113.828 315.105C115.649 312.285 117.052 309.226 117.997 306.014C118.094 305.683 118.442 305.495 118.774 305.591C119.105 305.687 119.294 306.037 119.197 306.368C118.218 309.693 116.766 312.861 114.879 315.784C114.76 315.969 114.558 316.069 114.353 316.069Z" fill="#0A428D"/>
<path d="M116.476 281.124C116.244 281.124 116.02 280.996 115.913 280.772C109.985 268.561 97.8746 260.975 84.3081 260.975C73.1649 260.975 62.5723 266.347 55.9738 275.347C55.7696 275.625 55.3778 275.686 55.0995 275.481C54.8212 275.278 54.7603 274.886 54.965 274.607C61.7984 265.289 72.7677 259.723 84.3081 259.723C91.2658 259.723 98.0276 261.695 103.863 265.424C109.544 269.054 114.1 274.174 117.038 280.226C117.19 280.536 117.059 280.91 116.748 281.061C116.661 281.105 116.568 281.124 116.476 281.124Z" fill="#0A428D"/>
<path d="M84.3081 332.449C64.2581 332.449 47.9463 316.137 47.9463 296.086C47.9463 289.859 49.5478 283.714 52.5783 278.313C52.7474 278.013 53.1275 277.905 53.4297 278.075C53.7309 278.243 53.8381 278.625 53.669 278.928C50.7433 284.139 49.1969 290.073 49.1969 296.086C49.1969 315.448 64.9482 331.198 84.3081 331.198C84.6541 331.198 84.9343 331.477 84.9343 331.823C84.9343 332.168 84.6541 332.449 84.3081 332.449Z" fill="#0A428D"/>
<path d="M205.926 58.4542C205.823 58.4542 205.718 58.4284 205.621 58.3758C205.32 58.2066 205.213 57.8255 205.38 57.5229L219.145 32.9175C219.314 32.6153 219.693 32.5076 219.996 32.6767C220.295 32.8458 220.404 33.2245 220.235 33.5272L206.473 58.135C206.359 58.3397 206.144 58.4542 205.926 58.4542Z" fill="#0A428D"/>
<path d="M211.237 61.978C211.056 61.978 210.876 61.9009 210.754 61.7484C210.535 61.4818 210.573 61.0875 210.84 60.8687L224.592 49.5997C224.859 49.3814 225.255 49.4194 225.474 49.686C225.69 49.955 225.654 50.3493 225.385 50.5676L211.635 61.8366C211.516 61.9326 211.378 61.978 211.237 61.978Z" fill="#0A428D"/>
<path d="M213.016 66.7961C212.722 66.7961 212.457 66.5884 212.402 66.2887C212.338 65.9485 212.56 65.622 212.9 65.5577L237.09 60.9691C237.43 60.9047 237.756 61.1279 237.82 61.4676C237.885 61.8059 237.661 62.1344 237.322 62.1987L213.132 66.7849C213.092 66.7936 213.053 66.7961 213.016 66.7961Z" fill="#0A428D"/>
<path d="M194.697 72.9443C194.351 72.9443 194.07 72.666 194.07 72.3195V69.0999C194.07 68.7568 194.351 68.4761 194.697 68.4761C195.043 68.4761 195.323 68.7568 195.323 69.0999V72.3195C195.323 72.666 195.043 72.9443 194.697 72.9443Z" fill="#0A428D"/>
<path d="M194.697 80.4414C194.352 80.4414 194.07 80.1621 194.07 79.817V76.5984C194.07 76.2514 194.352 75.9722 194.697 75.9722C195.044 75.9722 195.322 76.2514 195.322 76.5984V79.817C195.322 80.1621 195.044 80.4414 194.697 80.4414Z" fill="#0A428D"/>
<path d="M192.557 75.086H189.339C188.993 75.086 188.714 74.8043 188.714 74.4598C188.714 74.1147 188.993 73.834 189.339 73.834H192.557C192.901 73.834 193.183 74.1147 193.183 74.4598C193.183 74.8043 192.901 75.086 192.557 75.086Z" fill="#0A428D"/>
<path d="M200.054 75.086H196.836C196.489 75.086 196.211 74.8043 196.211 74.4598C196.211 74.1147 196.489 73.834 196.836 73.834H200.054C200.401 73.834 200.679 74.1147 200.679 74.4598C200.679 74.8043 200.401 75.086 200.054 75.086Z" fill="#0A428D"/>
<path d="M119.517 101.056C119.436 101.056 119.354 101.031 119.283 100.983C119.092 100.854 119.042 100.593 119.172 100.404C120.112 99.0189 121.156 97.6747 122.27 96.409C122.423 96.2355 122.686 96.2194 122.859 96.373C123.032 96.5245 123.048 96.7887 122.896 96.9602C121.804 98.2006 120.783 99.5165 119.862 100.872C119.781 100.991 119.65 101.056 119.517 101.056ZM222.739 102.93C222.524 102.93 222.341 102.765 222.323 102.546C222.305 102.317 222.477 102.116 222.707 102.098C224.501 101.957 226.165 101.952 227.773 102.084C228.002 102.104 228.174 102.305 228.155 102.534C228.135 102.765 227.935 102.932 227.705 102.916C226.139 102.789 224.52 102.793 222.771 102.93C222.758 102.93 222.751 102.93 222.739 102.93ZM212.945 104.851C212.77 104.851 212.607 104.742 212.547 104.567C212.475 104.347 212.593 104.112 212.812 104.039C214.42 103.502 216.065 103.071 217.702 102.761C217.928 102.719 218.146 102.868 218.188 103.093C218.232 103.32 218.083 103.537 217.856 103.581C216.257 103.883 214.647 104.304 213.076 104.829C213.033 104.845 212.989 104.851 212.945 104.851ZM237.225 105.821C237.153 105.821 237.08 105.801 237.014 105.761C235.636 104.939 234.127 104.28 232.533 103.804C232.312 103.738 232.187 103.506 232.252 103.285C232.32 103.064 232.551 102.938 232.771 103.004C234.434 103.502 236.005 104.186 237.44 105.044C237.637 105.164 237.703 105.419 237.583 105.617C237.506 105.747 237.368 105.821 237.225 105.821ZM203.93 109.145C203.79 109.145 203.652 109.075 203.575 108.946C203.454 108.751 203.515 108.494 203.711 108.373C205.186 107.463 206.675 106.644 208.134 105.944C208.341 105.843 208.592 105.932 208.691 106.139C208.793 106.346 208.704 106.595 208.493 106.694C207.061 107.385 205.6 108.188 204.149 109.081C204.081 109.125 204.006 109.145 203.93 109.145ZM115.031 109.971C114.986 109.971 114.939 109.963 114.894 109.948C114.677 109.872 114.561 109.634 114.637 109.418C115.185 107.835 115.848 106.269 116.608 104.762C116.712 104.555 116.962 104.471 117.168 104.576C117.374 104.68 117.456 104.931 117.353 105.136C116.61 106.611 115.961 108.143 115.425 109.69C115.365 109.862 115.204 109.971 115.031 109.971ZM244.216 112.847C244.073 112.847 243.937 112.775 243.858 112.649C242.984 111.221 241.97 109.922 240.848 108.783C240.688 108.619 240.69 108.354 240.853 108.194C241.017 108.032 241.282 108.034 241.445 108.198C242.609 109.379 243.66 110.732 244.568 112.211C244.69 112.408 244.63 112.664 244.433 112.786C244.365 112.827 244.289 112.847 244.216 112.847ZM195.87 115.061C195.75 115.061 195.633 115.011 195.549 114.912C195.402 114.737 195.426 114.474 195.601 114.325C196.938 113.198 198.266 112.147 199.544 111.204C199.73 111.064 199.99 111.104 200.127 111.289C200.265 111.474 200.225 111.737 200.04 111.872C198.776 112.808 197.462 113.847 196.139 114.964C196.061 115.03 195.965 115.061 195.87 115.061ZM113.099 119.759C113.092 119.759 113.085 119.759 113.078 119.759C112.847 119.747 112.671 119.55 112.683 119.321C112.769 117.653 112.98 115.965 113.31 114.299C113.355 114.074 113.573 113.925 113.801 113.972C114.027 114.016 114.174 114.235 114.129 114.462C113.806 116.086 113.6 117.736 113.516 119.363C113.504 119.586 113.32 119.759 113.099 119.759ZM188.498 121.831C188.391 121.831 188.283 121.789 188.202 121.706C188.04 121.541 188.042 121.276 188.208 121.115C189.499 119.847 190.688 118.714 191.837 117.653C192.008 117.496 192.273 117.507 192.428 117.675C192.583 117.844 192.573 118.109 192.403 118.264C191.259 119.321 190.077 120.448 188.791 121.712C188.712 121.791 188.603 121.831 188.498 121.831ZM247.676 122.176C247.474 122.176 247.299 122.033 247.264 121.829C246.977 120.193 246.549 118.592 245.991 117.073C245.912 116.857 246.023 116.618 246.24 116.538C246.455 116.458 246.696 116.57 246.775 116.787C247.349 118.351 247.789 120 248.086 121.686C248.126 121.913 247.974 122.13 247.747 122.17C247.721 122.173 247.697 122.176 247.676 122.176ZM181.474 128.96C181.368 128.96 181.265 128.922 181.183 128.842C181.018 128.683 181.014 128.419 181.173 128.253C182.349 127.037 183.511 125.838 184.664 124.664C184.827 124.499 185.09 124.497 185.256 124.658C185.419 124.819 185.422 125.083 185.259 125.247C184.106 126.422 182.946 127.62 181.772 128.834C181.692 128.918 181.581 128.96 181.474 128.96ZM114.111 129.676C113.927 129.676 113.758 129.555 113.709 129.368C113.276 127.755 112.971 126.078 112.801 124.383C112.778 124.154 112.945 123.949 113.174 123.925C113.407 123.907 113.608 124.071 113.631 124.299C113.796 125.95 114.094 127.582 114.514 129.151C114.574 129.374 114.442 129.603 114.219 129.663C114.183 129.672 114.146 129.676 114.111 129.676ZM247.689 132.136C247.668 132.136 247.642 132.135 247.618 132.13C247.391 132.09 247.239 131.874 247.279 131.647C247.554 130.069 247.694 128.44 247.694 126.806V126.739C247.694 126.507 247.88 126.32 248.111 126.32C248.343 126.32 248.53 126.507 248.53 126.739V126.802C248.53 128.488 248.386 130.164 248.101 131.79C248.066 131.993 247.891 132.136 247.689 132.136ZM174.619 136.247C174.518 136.247 174.415 136.21 174.337 136.134C174.167 135.978 174.158 135.714 174.315 135.545C174.769 135.057 175.237 134.551 175.726 134.02C176.347 133.345 177.002 132.632 177.714 131.875C177.869 131.706 178.133 131.697 178.303 131.854C178.469 132.011 178.479 132.276 178.323 132.445C177.616 133.202 176.961 133.912 176.338 134.585C175.848 135.117 175.382 135.626 174.927 136.114C174.842 136.201 174.731 136.247 174.619 136.247ZM118.306 138.707C118.174 138.707 118.046 138.646 117.965 138.531C117.766 138.248 117.572 137.961 117.381 137.668C116.654 136.547 115.998 135.36 115.431 134.135C115.334 133.926 115.426 133.677 115.635 133.582C115.844 133.485 116.091 133.576 116.189 133.785C116.738 134.973 117.375 136.128 118.081 137.215C118.265 137.497 118.454 137.778 118.646 138.051C118.779 138.238 118.733 138.498 118.545 138.63C118.473 138.684 118.388 138.707 118.306 138.707ZM244.15 141.431C244.077 141.431 243.998 141.411 243.931 141.369C243.736 141.246 243.677 140.989 243.798 140.793C244.673 139.394 245.408 137.914 245.985 136.392C246.067 136.178 246.31 136.068 246.523 136.152C246.738 136.232 246.847 136.474 246.766 136.689C246.169 138.262 245.408 139.791 244.507 141.236C244.427 141.361 244.292 141.431 244.15 141.431ZM167.238 142.966C167.106 142.966 166.98 142.904 166.898 142.789C166.765 142.601 166.808 142.34 166.996 142.207C168.363 141.234 169.58 140.241 170.826 139.084C170.995 138.927 171.259 138.937 171.415 139.104C171.572 139.273 171.562 139.537 171.393 139.695C170.121 140.878 168.877 141.891 167.48 142.888C167.406 142.938 167.322 142.966 167.238 142.966ZM125.399 145.689C125.317 145.689 125.235 145.665 125.163 145.615C123.752 144.644 122.435 143.559 121.248 142.394C121.083 142.233 121.081 141.968 121.242 141.803C121.403 141.64 121.667 141.638 121.832 141.799C122.985 142.93 124.265 143.983 125.636 144.929C125.826 145.059 125.873 145.321 125.742 145.51C125.662 145.627 125.531 145.689 125.399 145.689ZM158.652 148.096C158.499 148.096 158.352 148.01 158.279 147.863C158.177 147.657 158.263 147.407 158.468 147.305C159.824 146.636 161.204 145.87 162.815 144.896C163.012 144.777 163.269 144.841 163.389 145.036C163.508 145.233 163.444 145.49 163.247 145.61C161.615 146.598 160.215 147.373 158.838 148.051C158.778 148.082 158.717 148.096 158.652 148.096ZM237.452 148.802C237.326 148.802 237.205 148.746 237.123 148.641C236.98 148.46 237.014 148.197 237.195 148.056C238.502 147.036 239.721 145.912 240.818 144.712C240.973 144.543 241.236 144.53 241.408 144.686C241.577 144.841 241.59 145.105 241.433 145.275C240.307 146.509 239.05 147.665 237.706 148.715C237.631 148.775 237.541 148.802 237.452 148.802ZM134.379 150.04C134.337 150.04 134.294 150.034 134.252 150.022C132.62 149.496 131.037 148.868 129.548 148.151C129.34 148.051 129.253 147.803 129.353 147.594C129.453 147.389 129.702 147.299 129.909 147.399C131.364 148.1 132.911 148.715 134.507 149.228C134.726 149.298 134.846 149.533 134.776 149.751C134.72 149.929 134.555 150.04 134.379 150.04ZM149.2 151.276C149 151.276 148.824 151.135 148.79 150.93C148.748 150.703 148.901 150.488 149.128 150.448C150.71 150.171 152.317 149.758 153.905 149.215C154.122 149.141 154.361 149.256 154.435 149.475C154.511 149.692 154.393 149.929 154.176 150.005C152.548 150.56 150.897 150.988 149.272 151.27C149.247 151.275 149.222 151.276 149.2 151.276ZM144.09 151.722C143.563 151.722 143.03 151.708 142.51 151.681C142.279 151.668 141.039 151.593 139.163 151.25C138.936 151.209 138.785 150.992 138.827 150.766C138.868 150.54 139.084 150.391 139.311 150.431C141.139 150.763 142.332 150.837 142.553 150.849C143.06 150.875 143.578 150.886 144.09 150.886H144.217C144.219 150.886 144.221 150.886 144.221 150.886C144.45 150.886 144.637 151.073 144.639 151.301C144.64 151.531 144.455 151.718 144.224 151.721L144.09 151.722Z" fill="#0A428D"/>
<path d="M46.3887 264.141C46.3336 264.141 46.2766 264.133 46.2215 264.118C44.4943 263.638 43.4035 262.839 42.9781 261.74C42.6657 260.935 42.846 260.279 42.9898 259.753C43.1028 259.346 43.1998 258.992 43.1028 258.555C42.9274 257.765 42.2953 257.411 41.2791 256.903C40.3463 256.433 39.2892 255.905 38.8067 254.721C38.2189 253.279 38.9568 252.033 39.6079 250.934C40.1752 249.977 40.7113 249.073 40.4359 248.087C40.1211 246.96 38.9324 246.427 37.6735 245.861C36.2689 245.232 34.6777 244.517 34.2225 242.81C33.8418 241.381 34.4929 240.198 35.0676 239.155C35.5466 238.285 35.9604 237.535 35.6914 236.827C35.2971 235.787 33.6196 235.099 30.8391 234.836C30.495 234.804 30.2436 234.498 30.2757 234.154C30.3084 233.81 30.6169 233.557 30.9576 233.59C34.3384 233.913 36.2694 234.825 36.8611 236.384C37.3353 237.631 36.7124 238.761 36.1632 239.757C35.6573 240.676 35.1796 241.543 35.4316 242.489C35.7328 243.621 36.9239 244.155 38.1853 244.72C39.5845 245.347 41.1689 246.058 41.6407 247.75C42.0594 249.25 41.3293 250.485 40.6845 251.572C40.1094 252.544 39.6123 253.381 39.9661 254.249C40.2702 254.998 41.0325 255.379 41.8401 255.784C42.8577 256.294 44.0113 256.872 44.3242 258.285C44.4884 259.024 44.3266 259.612 44.1975 260.084C44.0727 260.54 43.9816 260.869 44.1448 261.29C44.4197 261.999 45.2302 262.546 46.5559 262.913C46.8887 263.005 47.0837 263.351 46.9906 263.684C46.9141 263.959 46.6631 264.141 46.3887 264.141Z" fill="#0A428D"/>
<path d="M38.2889 154.81C37.8746 154.81 37.474 154.943 37.1363 155.198C36.7259 155.506 36.4598 155.956 36.3882 156.464C36.316 156.975 36.4467 157.482 36.7561 157.892C37.0646 158.302 37.515 158.569 38.0248 158.64C38.5341 158.712 39.04 158.582 39.4503 158.272C39.8612 157.964 40.1268 157.512 40.1984 157.003C40.2711 156.494 40.1404 155.988 39.831 155.578C39.522 155.168 39.0716 154.901 38.5628 154.829C38.4712 154.816 38.3801 154.81 38.2889 154.81ZM38.3006 159.91C38.151 159.91 38.0004 159.899 37.8498 159.879C37.0101 159.76 36.2663 159.321 35.756 158.644C35.2458 157.965 35.0313 157.13 35.1493 156.291C35.2682 155.451 35.7068 154.707 36.3838 154.198C37.0627 153.688 37.899 153.472 38.7378 153.591C39.5775 153.708 40.3203 154.147 40.8306 154.826C41.3408 155.502 41.5567 156.338 41.4378 157.179C41.3189 158.018 40.8808 158.762 40.2028 159.271C39.6467 159.69 38.9844 159.91 38.3006 159.91Z" fill="#0A428D"/>
<path d="M341.972 228.016C341.918 228.016 341.862 228.01 341.806 227.995C341.473 227.902 341.279 227.558 341.369 227.226C345.201 213.312 347.144 198.87 347.144 184.299C347.144 161.669 342.55 139.787 333.492 119.261C333.353 118.945 333.496 118.576 333.812 118.437C334.128 118.296 334.497 118.44 334.638 118.755C343.767 139.442 348.396 161.494 348.396 184.299C348.396 198.982 346.437 213.535 342.577 227.557C342.499 227.834 342.249 228.016 341.972 228.016Z" fill="#0A428D"/>
<path d="M31.7282 229.879C31.4568 229.879 31.2063 229.701 31.1273 229.427C26.9159 214.827 24.7808 199.644 24.7808 184.3C24.7808 183.954 25.0605 183.674 25.4061 183.674C25.7516 183.674 26.0314 183.954 26.0314 184.3C26.0314 199.527 28.1509 214.593 32.3301 229.08C32.4257 229.411 32.2341 229.759 31.9017 229.853C31.8442 229.87 31.7862 229.879 31.7282 229.879Z" fill="#0A428D"/>
<path d="M49.27 254.002C49.0375 254.002 48.8138 253.873 48.7061 253.648C38.6516 232.822 33.5537 210.442 33.5537 187.131C33.5537 179.043 34.1892 170.924 35.4432 162.998C35.4973 162.655 35.8175 162.423 36.1587 162.478C36.4999 162.53 36.7323 162.852 36.6787 163.192C35.435 171.054 34.8043 179.109 34.8043 187.131C34.8043 210.251 39.8603 232.449 49.8329 253.105C49.9835 253.415 49.8529 253.79 49.5419 253.939C49.4542 253.982 49.3611 254.002 49.27 254.002Z" fill="#0A428D"/>
<path d="M337.081 207.224C337.051 207.224 337.023 207.222 336.995 207.218C336.653 207.171 336.413 206.855 336.461 206.513C337.415 199.602 337.901 192.534 337.901 185.505C337.901 168.575 335.137 151.947 329.686 136.088C329.574 135.763 329.747 135.407 330.075 135.292C330.402 135.184 330.756 135.354 330.87 135.681C336.366 151.671 339.151 168.434 339.151 185.505C339.151 192.59 338.663 199.715 337.699 206.683C337.657 206.997 337.388 207.224 337.081 207.224Z" fill="#0A428D"/>
<path d="M320.055 214H168.19C161.595 214 156.247 219.345 156.247 225.941V318.001C156.247 324.597 161.595 329.943 168.19 329.943H320.055C326.652 329.943 331.997 324.597 331.997 318.001V225.941C331.997 219.345 326.652 214 320.055 214Z" fill="#0A428D"/>
<path d="M168.19 214.625C161.95 214.625 156.872 219.701 156.872 225.941V318.001C156.872 324.242 161.95 329.317 168.19 329.317H320.055C326.295 329.317 331.372 324.242 331.372 318.001V225.941C331.372 219.701 326.295 214.625 320.055 214.625H168.19ZM320.055 330.569H168.19C161.26 330.569 155.621 324.931 155.621 318.001V225.941C155.621 219.011 161.26 213.375 168.19 213.375H320.055C326.986 213.375 332.622 219.011 332.622 225.941V318.001C332.622 324.931 326.986 330.569 320.055 330.569Z" fill="#0A428D"/>
<path d="M331.997 267.257H156.247V245.192H331.997V267.257Z" fill="black"/>
<path d="M318.6 291.47H275.229V277.413H318.6V291.47Z" fill="#EC4C60"/>
</svg>
