<svg width="851" height="601" viewBox="0 0 851 601" fill="none" xmlns="http://www.w3.org/2000/svg">
<path d="M250.585 34.4738C238.477 38.2465 184.769 55.7827 131.137 102.315C118.145 113.591 65.6297 159.154 43.1939 220.417C5.0038 324.686 50.7009 483.321 182.329 547.071C335.645 621.327 529.312 529.928 573.481 407.613C593.074 353.364 593.954 263.402 544.603 204.081C504.886 156.341 436.967 133.655 439.602 88.4981C440.867 66.7478 457.277 60.7355 452.726 47.0369C441.928 14.55 336.133 7.80754 250.585 34.4738Z" fill="#A6C0FB"/>
<path d="M275.023 82.2233L126.865 77.1172C123.21 77.1172 114.811 79.1244 104.249 85.1235L97.1494 89.7859C93.9871 91.8628 92.3602 95.5745 92.8587 99.5757L95.3292 119.435H303.202L300.731 99.5757C300.232 95.5745 297.684 91.8628 294.008 89.7859L285.747 85.1235C282.387 83.2258 278.678 82.2233 275.023 82.2233Z" fill="#0A428D"/>
<path d="M354.426 470.972L310.292 116.143C309.194 107.297 301.132 100.128 292.287 100.128L97.8145 118.62L94.6655 103.255L72.6844 122.754C71.8236 123.354 71.0403 124.049 70.3462 124.828C67.7614 127.73 66.4358 131.768 66.9914 136.23L107.107 470.972C108.208 479.818 116.269 486.986 125.113 486.986H340.405C349.247 486.986 355.526 479.818 354.426 470.972Z" fill="#0A428D"/>
<path d="M289.085 78.2061H128.315C124.66 78.2061 121.2 79.2101 118.312 81.1046L111.212 85.7694C108.05 87.8463 106.423 91.5548 106.921 95.5568L109.392 115.416H317.269L314.795 95.5568C314.3 91.5548 311.75 87.8463 308.071 85.7694L299.808 81.1046C296.448 79.2101 292.739 78.2061 289.085 78.2061Z" fill="#FEFFFF"/>
<path d="M110.279 114.412H316.128L313.796 95.6819C313.341 92.0149 310.956 88.5544 307.575 86.6419L299.318 81.9794C296.105 80.167 292.567 79.2092 289.085 79.2092H128.315C124.857 79.2092 121.588 80.1561 118.864 81.9474L111.763 86.6082C108.902 88.4879 107.464 91.7872 107.917 95.4323L110.279 114.412ZM317.266 116.424H109.391C108.884 116.424 108.458 116.046 108.395 115.543L105.924 95.6819C105.383 91.3247 107.197 87.2038 110.661 84.9273L117.761 80.2664C120.814 78.2615 124.463 77.2012 128.315 77.2012H289.085C292.912 77.2012 296.792 78.2474 300.304 80.2296L308.564 84.8937C312.549 87.1443 315.25 91.0829 315.794 95.4323L318.264 115.293C318.301 115.58 318.209 115.866 318.021 116.083C317.827 116.3 317.552 116.424 317.266 116.424Z" fill="#0A428D"/>
<path d="M319.074 100.128H103.781C94.937 100.128 88.6601 107.297 89.7604 116.143L133.894 470.972C134.994 479.818 143.055 486.986 151.899 486.986H367.192C376.038 486.986 382.314 479.818 381.213 470.972L337.08 116.143C335.982 107.297 327.92 100.128 319.074 100.128Z" fill="#FEFFFF"/>
<path d="M103.781 101.132C99.8197 101.132 96.2865 102.663 93.8332 105.439C91.3509 108.251 90.2585 112.005 90.7577 116.019L134.891 470.849C135.929 479.193 143.558 485.983 151.899 485.983H367.192C371.156 485.983 374.687 484.453 377.142 481.676C379.624 478.864 380.713 475.107 380.218 471.098L336.086 116.266C335.046 107.92 327.416 101.132 319.074 101.132H103.781ZM367.192 487.992H151.899C142.58 487.992 134.056 480.413 132.897 471.098L88.7638 116.266C88.1918 111.677 89.4579 107.359 92.3275 104.11C95.1682 100.896 99.2351 99.123 103.781 99.123H319.074C328.391 99.123 336.92 106.702 338.077 116.019L382.213 470.849C382.782 475.441 381.516 479.757 378.648 483.005C375.805 486.22 371.739 487.992 367.192 487.992Z" fill="#0A428D"/>
<path d="M192.071 358.996H160.067C153.333 358.996 147.194 353.538 146.358 346.804L145.56 340.397C144.722 333.661 149.502 328.203 156.237 328.203H188.241C194.975 328.203 201.114 333.661 201.952 340.397L202.748 346.804C203.587 353.538 198.806 358.996 192.071 358.996Z" fill="#E12599"/>
<path d="M156.237 329.205C153.289 329.205 150.662 330.344 148.84 332.404C146.996 334.492 146.186 337.286 146.556 340.272L147.353 346.679C148.13 352.917 153.833 357.992 160.067 357.992H192.071C195.019 357.992 197.645 356.856 199.468 354.793C201.312 352.707 202.123 349.911 201.751 346.928L200.954 340.521C200.179 334.28 194.476 329.205 188.241 329.205H156.237ZM192.071 360.001H160.067C152.854 360.001 146.257 354.137 145.36 346.928L144.563 340.521C144.12 336.955 145.104 333.6 147.336 331.075C149.544 328.573 152.706 327.199 156.237 327.199H188.241C195.454 327.199 202.051 333.064 202.949 340.272L203.745 346.679C204.189 350.242 203.204 353.6 200.974 356.125C198.764 358.623 195.604 360.001 192.071 360.001Z" fill="#0A428D"/>
<path d="M197.697 404.228H165.693C158.959 404.228 152.82 398.768 151.982 392.032L151.186 385.625C150.348 378.889 155.128 373.433 161.863 373.433H193.867C200.601 373.433 206.74 378.889 207.578 385.625L208.374 392.032C209.212 398.768 204.432 404.228 197.697 404.228Z" fill="#E12599"/>
<path d="M161.863 374.436C158.915 374.436 156.288 375.571 154.466 377.635C152.622 379.723 151.812 382.517 152.182 385.5L152.98 391.908C153.756 398.148 159.459 403.223 165.692 403.223H197.697C200.645 403.223 203.271 402.085 205.094 400.024C206.938 397.935 207.748 395.14 207.377 392.156L206.581 385.749C205.804 379.511 200.101 374.436 193.868 374.436H161.863ZM197.697 405.233H165.692C158.48 405.233 151.883 399.365 150.987 392.156L150.189 385.749C149.745 382.186 150.73 378.832 152.96 376.303C155.169 373.805 158.33 372.427 161.863 372.427H193.868C201.08 372.427 207.677 378.291 208.574 385.5L209.371 391.908C209.815 395.474 208.83 398.828 206.6 401.354C204.39 403.854 201.228 405.233 197.697 405.233Z" fill="#0A428D"/>
<path d="M203.324 449.457H171.318C164.584 449.457 158.447 443.996 157.609 437.264L156.811 430.854C155.973 424.122 160.754 418.661 167.488 418.661H199.492C206.227 418.661 212.365 424.122 213.203 430.854L214 437.264C214.837 443.996 210.058 449.457 203.324 449.457Z" fill="#E12599"/>
<path d="M167.489 419.666C164.541 419.666 161.914 420.801 160.093 422.865C158.249 424.953 157.437 427.745 157.809 430.732L158.606 437.139C159.382 443.377 165.084 448.453 171.318 448.453H203.324C206.271 448.453 208.897 447.317 210.72 445.253C212.564 443.164 213.374 440.372 213.003 437.388L212.207 430.981C211.43 424.741 205.727 419.666 199.493 419.666H167.489ZM203.324 450.461H171.318C164.106 450.461 157.509 444.595 156.613 437.388L155.814 430.981C155.371 427.415 156.357 424.06 158.586 421.535C160.795 419.034 163.956 417.656 167.489 417.656H199.493C206.706 417.656 213.303 423.523 214.2 430.732L214.996 437.139C215.44 440.703 214.456 444.057 212.225 446.583C210.016 449.084 206.855 450.461 203.324 450.461Z" fill="#0A428D"/>
<path d="M259.627 358.996H227.623C220.889 358.996 214.75 353.538 213.914 346.804L213.116 340.397C212.278 333.661 217.058 328.203 223.793 328.203H255.797C262.532 328.203 268.67 333.661 269.508 340.397L270.305 346.804C271.144 353.538 266.364 358.996 259.627 358.996Z" fill="#E12599"/>
<path d="M223.793 329.205C220.846 329.205 218.219 330.344 216.398 332.404C214.552 334.492 213.742 337.286 214.113 340.272L214.909 346.679C215.686 352.917 221.389 357.992 227.623 357.992H259.627C262.575 357.992 265.204 356.856 267.025 354.793C268.868 352.707 269.681 349.911 269.308 346.928L268.512 340.521C267.735 334.28 262.031 329.205 255.797 329.205H223.793ZM259.627 360.001H227.623C220.41 360.001 213.813 354.137 212.916 346.928L212.119 340.521C211.677 336.955 212.66 333.6 214.892 331.075C217.1 328.573 220.262 327.199 223.793 327.199H255.797C263.011 327.199 269.607 333.064 270.506 340.272L271.302 346.679C271.744 350.242 270.761 353.6 268.53 356.125C266.321 358.623 263.161 360.001 259.627 360.001Z" fill="#0A428D"/>
<path d="M265.255 404.228H233.248C226.515 404.228 220.377 398.768 219.538 392.032L218.742 385.625C217.905 378.889 222.684 373.433 229.419 373.433H261.424C268.157 373.433 274.296 378.889 275.135 385.625L275.93 392.032C276.768 398.768 271.987 404.228 265.255 404.228Z" fill="#E12599"/>
<path d="M229.419 374.436C226.471 374.436 223.845 375.571 222.024 377.635C220.179 379.721 219.368 382.517 219.739 385.5L220.536 391.908C221.312 398.148 227.014 403.223 233.249 403.223H265.255C268.203 403.223 270.828 402.085 272.649 400.024C274.495 397.935 275.304 395.143 274.934 392.156L274.137 385.749C273.359 379.511 267.66 374.436 261.424 374.436H229.419ZM265.255 405.233H233.249C226.036 405.233 219.439 399.365 218.543 392.156L217.746 385.749C217.303 382.186 218.286 378.832 220.518 376.303C222.726 373.805 225.888 372.427 229.419 372.427H261.424C268.636 372.427 275.235 378.291 276.131 385.5L276.925 391.908C277.373 395.474 276.386 398.828 274.154 401.354C271.944 403.854 268.785 405.233 265.255 405.233Z" fill="#0A428D"/>
<path d="M270.88 449.457H238.875C232.141 449.457 226.003 443.996 225.165 437.264L224.367 430.854C223.531 424.122 228.31 418.661 235.045 418.661H267.049C273.785 418.661 279.922 424.122 280.76 430.854L281.558 437.264C282.395 443.996 277.615 449.457 270.88 449.457Z" fill="#E12599"/>
<path d="M235.044 419.666C232.098 419.666 229.47 420.801 227.649 422.865C225.805 424.953 224.993 427.745 225.365 430.732L226.162 437.139C226.937 443.377 232.641 448.453 238.875 448.453H270.88C273.827 448.453 276.452 447.317 278.277 445.253C280.119 443.164 280.933 440.372 280.559 437.388L279.763 430.981C278.987 424.741 273.283 419.666 267.048 419.666H235.044ZM270.88 450.461H238.875C231.661 450.461 225.065 444.595 224.167 437.388L223.37 430.981C222.927 427.415 223.913 424.06 226.143 421.535C228.351 419.034 231.512 417.656 235.044 417.656H267.048C274.264 417.656 280.859 423.523 281.754 430.732L282.554 437.139C282.996 440.703 282.013 444.057 279.781 446.583C277.573 449.084 274.413 450.461 270.88 450.461Z" fill="#0A428D"/>
<path d="M327.184 358.996H295.18C288.445 358.996 282.307 353.538 281.47 346.804L280.671 340.397C279.834 333.661 284.615 328.203 291.349 328.203H323.353C330.089 328.203 336.226 333.661 337.064 340.397L337.862 346.804C338.699 353.538 333.919 358.996 327.184 358.996Z" fill="#E12599"/>
<path d="M291.349 329.205C288.403 329.205 285.776 330.344 283.952 332.404C282.11 334.492 281.299 337.288 281.67 340.272L282.468 346.679C283.243 352.917 288.946 357.992 295.18 357.992H327.184C330.131 357.992 332.756 356.856 334.581 354.793C336.422 352.707 337.237 349.911 336.864 346.928L336.068 340.521C335.292 334.28 329.588 329.205 323.353 329.205H291.349ZM327.184 360.001H295.18C287.968 360.001 281.369 354.137 280.474 346.928L279.676 340.521C279.233 336.955 280.216 333.6 282.447 331.075C284.657 328.573 287.819 327.199 291.349 327.199H323.353C330.568 327.199 337.163 333.064 338.063 340.272L338.858 346.679C339.3 350.242 338.317 353.6 336.086 356.125C333.877 358.623 330.717 360.001 327.184 360.001Z" fill="#0A428D"/>
<path d="M332.811 404.228H300.805C294.073 404.228 287.932 398.768 287.094 392.032L286.299 385.625C285.461 378.889 290.242 373.433 296.973 373.433H328.981C335.713 373.433 341.853 378.889 342.692 385.625L343.487 392.032C344.324 398.768 339.544 404.228 332.811 404.228Z" fill="#E12599"/>
<path d="M296.973 374.436C294.026 374.436 291.401 375.571 289.58 377.635C287.735 379.723 286.924 382.517 287.294 385.5L288.093 391.908C288.87 398.148 294.57 403.223 300.805 403.223H332.811C335.759 403.223 338.384 402.085 340.205 400.024C342.051 397.935 342.861 395.143 342.49 392.156L341.693 385.749C340.915 379.511 335.216 374.436 328.98 374.436H296.973ZM332.811 405.233H300.805C293.592 405.233 286.994 399.365 286.099 392.156L285.303 385.749C284.857 382.186 285.844 378.832 288.074 376.303C290.281 373.805 293.444 372.427 296.973 372.427H328.98C336.192 372.427 342.791 378.291 343.687 385.5L344.485 391.908C344.929 395.474 343.942 398.828 341.711 401.354C339.504 403.854 336.341 405.233 332.811 405.233Z" fill="#0A428D"/>
<path d="M338.436 449.457H306.431C299.696 449.457 293.559 443.996 292.722 437.264L291.923 430.854C291.085 424.122 295.866 418.661 302.601 418.661H334.605C341.341 418.661 347.478 424.122 348.316 430.854L349.114 437.264C349.951 443.996 345.171 449.457 338.436 449.457Z" fill="#E12599"/>
<path d="M302.6 419.666C299.654 419.666 297.026 420.801 295.205 422.865C293.362 424.953 292.549 427.745 292.922 430.732L293.716 437.139C294.494 443.377 300.197 448.453 306.431 448.453H338.436C341.383 448.453 344.011 447.317 345.832 445.253C347.675 443.164 348.488 440.372 348.115 437.388L347.32 430.981C346.543 424.741 340.839 419.666 334.604 419.666H302.6ZM338.436 450.461H306.431C299.217 450.461 292.621 444.595 291.725 437.388L290.928 430.981C290.484 427.415 291.467 424.06 293.699 421.535C295.909 419.034 299.069 417.656 302.6 417.656H334.604C341.82 417.656 348.416 423.523 349.31 430.732L350.11 437.139C350.552 440.703 349.569 444.057 347.337 446.583C345.129 449.084 341.969 450.461 338.436 450.461Z" fill="#0A428D"/>
<path d="M316.921 304.491H156.772C148.113 304.491 140.222 297.471 139.144 288.813L121.575 147.564C120.498 138.906 126.644 131.886 135.303 131.886H295.453C304.111 131.886 312.001 138.906 313.08 147.564L330.649 288.813C331.725 297.471 325.579 304.491 316.921 304.491Z" fill="white"/>
<path d="M202.62 131.886L131.547 227.737L137.087 272.269L241.183 131.886H202.62Z" fill="#99B9FF"/>
<path d="M261.981 131.886L140.888 295.193C143.628 300.626 149.349 304.491 155.505 304.491H161.095L286.942 131.886H261.981Z" fill="#99B9FF"/>
<path d="M135.304 132.889C131.43 132.889 127.977 134.387 125.579 137.099C123.152 139.845 122.085 143.521 122.572 147.441L140.141 288.691C141.156 296.85 148.616 303.489 156.772 303.489H316.921C320.794 303.489 324.245 301.991 326.647 299.278C329.073 296.529 330.143 292.857 329.65 288.938L312.082 147.687C311.067 139.529 303.606 132.889 295.454 132.889H135.304ZM316.921 305.497H156.772C147.638 305.497 139.283 298.069 138.148 288.938L120.579 147.687C120.018 143.187 121.26 138.954 124.073 135.769C126.858 132.619 130.847 130.882 135.304 130.882H295.454C304.585 130.882 312.938 138.309 314.078 147.441L331.646 288.691C332.203 293.191 330.964 297.424 328.154 300.605C325.368 303.759 321.378 305.497 316.921 305.497Z" fill="#0A428D"/>
<path d="M207.644 477.505C207.644 516.423 176.094 547.975 137.176 547.975C98.2585 547.975 66.7075 516.423 66.7075 477.505C66.7075 438.587 98.2585 407.038 137.176 407.038C176.094 407.038 207.644 438.587 207.644 477.505Z" fill="#0A428D"/>
<path d="M208.563 475.414C208.563 513.176 177.952 543.789 140.188 543.789C102.425 543.789 71.8125 513.176 71.8125 475.414C71.8125 437.652 102.425 407.038 140.188 407.038C177.952 407.038 208.563 437.652 208.563 475.414Z" fill="#E12599"/>
<path d="M140.188 408.043C103.04 408.043 72.8174 438.265 72.8174 475.414C72.8174 512.563 103.04 542.785 140.188 542.785C177.337 542.785 207.56 512.563 207.56 475.414C207.56 438.265 177.337 408.043 140.188 408.043ZM140.188 544.795C101.932 544.795 70.8086 513.67 70.8086 475.414C70.8086 437.158 101.932 406.034 140.188 406.034C178.445 406.034 209.568 437.158 209.568 475.414C209.568 513.67 178.445 544.795 140.188 544.795Z" fill="#0A428D"/>
<path d="M197.57 475.414C197.57 507.105 171.88 532.796 140.188 532.796C108.499 532.796 82.8076 507.105 82.8076 475.414C82.8076 443.723 108.499 418.032 140.188 418.032C171.88 418.032 197.57 443.723 197.57 475.414Z" fill="#FFF4E3"/>
<path d="M150.58 443.82L147.496 448.898C144.61 447.245 141.755 445.54 138.82 443.986C138.242 443.68 137.133 443.648 136.646 444.006C127.205 450.914 116.744 454.522 104.974 454.048C104.782 454.041 104.587 454.087 104.311 454.118C104.233 454.327 104.073 454.556 104.069 454.788C103.85 468.442 105.26 481.803 111.527 494.217C116.838 504.737 125.013 512.196 135.907 516.705C137.212 517.246 138.326 517.243 139.63 516.682C154.343 510.354 163.604 499.265 168.239 484.102C168.41 483.543 168.58 482.983 168.776 482.341C169.724 482.265 170.695 482.204 171.663 482.103C172.561 482.009 173.454 481.872 174.58 481.724C173.329 487 171.521 491.841 169.158 496.48C162.643 509.268 152.537 518.109 139.31 523.452C138.405 523.818 137.101 523.802 136.183 523.446C118.595 516.62 107.786 503.615 102.323 485.874C98.6882 474.074 97.8343 461.912 98.0249 449.642C98.0277 449.456 98.0993 449.272 98.1548 449.019C101.278 448.855 104.389 448.746 107.492 448.521C118.002 447.759 127.421 444.022 135.851 437.801C137.259 436.761 138.164 436.764 139.601 437.633C143.161 439.788 146.849 441.736 150.58 443.82Z" fill="#1D93B8"/>
<path d="M144.479 477.641C144.285 477.628 144.091 477.621 143.855 477.609C143.842 477.385 143.826 477.192 143.821 476.998C143.767 475.086 143.787 473.168 143.641 471.263C143.469 469.019 141.265 466.904 139.025 466.792C137.333 466.708 135.634 466.769 133.938 466.748C131.485 466.718 128.812 469.029 128.817 472.036C128.82 473.083 128.786 474.13 128.777 475.177C128.77 475.983 128.776 476.788 128.776 477.59C128.266 477.64 127.888 477.659 127.517 477.718C126.553 477.874 125.447 478.974 125.442 479.883C125.416 483.835 125.414 487.787 125.435 491.74C125.442 492.844 126.654 493.965 127.763 493.967C133.414 493.976 139.065 493.975 144.716 493.964C145.98 493.961 147.113 492.879 147.125 491.602C147.162 487.848 147.166 484.094 147.139 480.339C147.127 478.775 146.051 477.751 144.479 477.641ZM137.919 485.098C137.525 485.501 137.406 485.907 137.415 486.44C137.433 487.505 137.418 488.569 137.37 489.634C137.342 490.287 137.184 490.395 136.524 490.409C135.239 490.435 135.174 490.376 135.152 489.103C135.143 488.634 135.15 488.164 135.15 487.695H135.137C135.137 487.388 135.129 487.081 135.139 486.774C135.161 486.109 135.117 485.55 134.557 484.99C133.662 484.095 133.852 482.692 134.802 481.855C135.685 481.075 137.045 481.125 137.903 481.968C138.743 482.793 138.784 484.214 137.919 485.098ZM140.12 477.6H132.33C132.399 475.617 132.422 473.674 132.554 471.737C132.611 470.898 133.199 470.406 134.059 470.391C135.609 470.364 137.162 470.397 138.712 470.454C139.391 470.478 139.865 470.922 139.976 471.588C140.073 472.172 140.106 472.771 140.115 473.364C140.134 474.753 140.12 476.14 140.12 477.6Z" fill="#E12599"/>
<mask id="mask0_81_4690" style="mask-type:luminance" maskUnits="userSpaceOnUse" x="148" y="442" width="36" height="35">
<path d="M148.989 442.248H183.186V476.458H148.989V442.248Z" fill="white"/>
</mask>
<g mask="url(#mask0_81_4690)">
<path d="M166.099 442.28C156.661 442.28 149.011 449.93 149.011 459.367C149.011 468.803 156.661 476.453 166.099 476.453C175.536 476.453 183.186 468.803 183.186 459.367C183.186 449.93 175.536 442.28 166.099 442.28ZM175.918 455.055C175.786 455.232 175.626 455.39 175.469 455.546C172.004 459.015 168.536 462.482 165.067 465.949C163.848 467.167 162.839 467.171 161.629 465.961C159.913 464.248 158.199 462.534 156.486 460.82C155.915 460.248 155.712 459.565 155.936 458.787C156.156 458.026 156.688 457.566 157.453 457.404C158.209 457.244 158.827 457.534 159.356 458.064C160.532 459.243 161.71 460.42 162.891 461.595C163.033 461.736 163.182 461.872 163.424 462.102C163.562 461.914 163.662 461.731 163.803 461.589C166.783 458.602 169.765 455.617 172.749 452.634C173.167 452.215 173.621 451.891 174.238 451.87C175.074 451.841 175.719 452.175 176.105 452.92C176.488 453.661 176.419 454.385 175.918 455.055Z" fill="#E12599"/>
</g>
<path d="M188.43 507.5C188.243 507.5 188.055 507.449 187.886 507.343C187.419 507.039 187.285 506.42 187.587 505.952C190.511 501.425 192.764 496.513 194.281 491.356C194.437 490.824 194.996 490.521 195.528 490.676C196.06 490.83 196.364 491.392 196.207 491.924C194.636 497.262 192.304 502.349 189.275 507.042C189.083 507.339 188.759 507.5 188.43 507.5Z" fill="#0A428D"/>
<path d="M191.838 451.39C191.466 451.39 191.107 451.184 190.934 450.825C181.416 431.217 161.971 419.037 140.188 419.037C122.296 419.037 105.288 427.663 94.6929 442.114C94.3651 442.56 93.7359 442.657 93.2891 442.33C92.8422 442.002 92.7444 441.374 93.0731 440.926C104.045 425.964 121.658 417.027 140.188 417.027C151.36 417.027 162.217 420.194 171.587 426.182C180.708 432.009 188.024 440.23 192.741 449.949C192.985 450.445 192.776 451.046 192.276 451.289C192.136 451.359 191.986 451.39 191.838 451.39Z" fill="#0A428D"/>
<path d="M140.188 533.801C107.995 533.801 81.8037 507.609 81.8037 475.414C81.8037 465.416 84.3752 455.549 89.2411 446.876C89.5126 446.394 90.123 446.221 90.6082 446.494C91.0918 446.764 91.264 447.377 90.9924 447.863C86.2948 456.231 83.8117 465.759 83.8117 475.414C83.8117 506.502 109.103 531.791 140.188 531.791C140.744 531.791 141.194 532.24 141.194 532.796C141.194 533.348 140.744 533.801 140.188 533.801Z" fill="#0A428D"/>
<path d="M335.464 93.8573C335.299 93.8573 335.131 93.8158 334.975 93.7313C334.493 93.4598 334.32 92.8478 334.588 92.3618L356.69 52.8539C356.961 52.3687 357.57 52.1958 358.056 52.4673C358.537 52.7389 358.713 53.3469 358.441 53.8329L336.343 93.3447C336.16 93.6734 335.815 93.8573 335.464 93.8573Z" fill="#0A428D"/>
<path d="M343.992 99.5159C343.703 99.5159 343.413 99.3922 343.217 99.1473C342.865 98.7192 342.927 98.0861 343.355 97.7348L365.436 79.6406C365.864 79.29 366.501 79.3511 366.852 79.7791C367.199 80.2111 367.141 80.8442 366.709 81.1948L344.632 99.2889C344.441 99.4431 344.218 99.5159 343.992 99.5159Z" fill="#0A428D"/>
<path d="M346.848 107.252C346.376 107.252 345.951 106.918 345.862 106.437C345.76 105.891 346.117 105.367 346.663 105.263L385.504 97.8957C386.049 97.7924 386.573 98.1508 386.676 98.6962C386.78 99.2393 386.421 99.7667 385.876 99.87L347.035 107.234C346.971 107.248 346.909 107.252 346.848 107.252Z" fill="#0A428D"/>
<path d="M317.435 117.124C316.88 117.124 316.429 116.677 316.429 116.12V110.951C316.429 110.4 316.88 109.949 317.435 109.949C317.99 109.949 318.441 110.4 318.441 110.951V116.12C318.441 116.677 317.99 117.124 317.435 117.124Z" fill="#0A428D"/>
<path d="M317.435 129.161C316.881 129.161 316.429 128.713 316.429 128.159V122.991C316.429 122.434 316.881 121.985 317.435 121.985C317.992 121.985 318.44 122.434 318.44 122.991V128.159C318.44 128.713 317.992 129.161 317.435 129.161Z" fill="#0A428D"/>
<path d="M313.999 120.562H308.832C308.277 120.562 307.828 120.11 307.828 119.557C307.828 119.003 308.277 118.552 308.832 118.552H313.999C314.552 118.552 315.004 119.003 315.004 119.557C315.004 120.11 314.552 120.562 313.999 120.562Z" fill="#0A428D"/>
<path d="M326.037 120.562H320.87C320.313 120.562 319.866 120.11 319.866 119.557C319.866 119.003 320.313 118.552 320.87 118.552H326.037C326.594 118.552 327.041 119.003 327.041 119.557C327.041 120.11 326.594 120.562 326.037 120.562Z" fill="#0A428D"/>
<path d="M196.722 162.26C196.591 162.26 196.461 162.221 196.346 162.144C196.04 161.936 195.959 161.518 196.168 161.214C197.678 158.99 199.353 156.832 201.143 154.799C201.388 154.521 201.81 154.495 202.088 154.741C202.365 154.985 202.392 155.409 202.148 155.684C200.394 157.676 198.755 159.789 197.275 161.966C197.146 162.157 196.935 162.26 196.722 162.26ZM362.462 165.27C362.116 165.27 361.822 165.005 361.794 164.654C361.765 164.286 362.04 163.962 362.41 163.934C365.29 163.708 367.963 163.7 370.545 163.911C370.912 163.944 371.187 164.266 371.159 164.634C371.126 165.005 370.804 165.274 370.435 165.248C367.921 165.044 365.321 165.05 362.513 165.27C362.493 165.27 362.481 165.27 362.462 165.27ZM346.736 168.354C346.455 168.354 346.193 168.179 346.096 167.898C345.981 167.546 346.17 167.168 346.522 167.051C349.105 166.188 351.745 165.497 354.374 164.998C354.737 164.931 355.087 165.171 355.155 165.532C355.225 165.896 354.986 166.245 354.622 166.315C352.054 166.801 349.469 167.476 346.946 168.32C346.877 168.345 346.806 168.354 346.736 168.354ZM385.721 169.911C385.606 169.911 385.488 169.879 385.382 169.815C383.169 168.496 380.747 167.438 378.187 166.673C377.833 166.567 377.631 166.194 377.737 165.84C377.845 165.485 378.216 165.283 378.57 165.389C381.239 166.188 383.762 167.287 386.066 168.665C386.382 168.857 386.488 169.266 386.296 169.585C386.172 169.792 385.951 169.911 385.721 169.911ZM332.26 175.249C332.036 175.249 331.815 175.137 331.69 174.93C331.496 174.616 331.595 174.204 331.909 174.009C334.277 172.548 336.668 171.234 339.011 170.109C339.343 169.946 339.746 170.09 339.905 170.423C340.068 170.755 339.925 171.155 339.588 171.314C337.288 172.423 334.942 173.712 332.612 175.147C332.503 175.217 332.382 175.249 332.26 175.249ZM189.519 176.575C189.447 176.575 189.372 176.562 189.3 176.538C188.95 176.416 188.765 176.035 188.886 175.687C189.767 173.146 190.831 170.63 192.052 168.211C192.218 167.879 192.619 167.744 192.951 167.913C193.281 168.08 193.414 168.482 193.248 168.812C192.054 171.18 191.013 173.641 190.151 176.125C190.055 176.4 189.797 176.575 189.519 176.575ZM396.946 181.193C396.716 181.193 396.498 181.078 396.371 180.875C394.968 178.583 393.34 176.496 391.538 174.668C391.282 174.405 391.285 173.98 391.547 173.721C391.809 173.462 392.235 173.466 392.497 173.728C394.367 175.625 396.054 177.797 397.511 180.171C397.707 180.488 397.611 180.9 397.294 181.095C397.185 181.161 397.064 181.193 396.946 181.193ZM319.318 184.748C319.127 184.748 318.938 184.669 318.804 184.509C318.567 184.228 318.606 183.805 318.887 183.566C321.034 181.757 323.167 180.069 325.218 178.555C325.516 178.33 325.934 178.394 326.155 178.692C326.375 178.988 326.311 179.411 326.015 179.627C323.985 181.13 321.875 182.799 319.75 184.592C319.626 184.698 319.472 184.748 319.318 184.748ZM186.418 192.291C186.406 192.291 186.395 192.291 186.383 192.291C186.013 192.273 185.73 191.956 185.748 191.588C185.887 188.91 186.227 186.199 186.756 183.525C186.828 183.163 187.178 182.924 187.544 182.999C187.907 183.071 188.142 183.421 188.07 183.787C187.552 186.394 187.221 189.044 187.086 191.656C187.067 192.014 186.772 192.291 186.418 192.291ZM307.482 195.618C307.31 195.618 307.137 195.552 307.006 195.418C306.747 195.152 306.751 194.727 307.016 194.469C309.09 192.432 310.999 190.614 312.843 188.91C313.117 188.657 313.543 188.676 313.792 188.945C314.041 189.217 314.026 189.642 313.753 189.891C311.915 191.588 310.017 193.397 307.953 195.427C307.825 195.554 307.651 195.618 307.482 195.618ZM402.501 196.172C402.178 196.172 401.897 195.942 401.84 195.616C401.379 192.989 400.692 190.418 399.797 187.979C399.669 187.631 399.848 187.248 400.197 187.12C400.542 186.991 400.928 187.17 401.056 187.519C401.976 190.031 402.683 192.678 403.159 195.386C403.224 195.75 402.98 196.099 402.616 196.163C402.575 196.168 402.536 196.172 402.501 196.172ZM296.203 207.064C296.034 207.064 295.868 207.004 295.736 206.876C295.472 206.62 295.465 206.196 295.72 205.93C297.609 203.977 299.475 202.053 301.326 200.168C301.588 199.902 302.011 199.899 302.276 200.157C302.538 200.417 302.544 200.841 302.281 201.103C300.431 202.99 298.568 204.914 296.682 206.863C296.554 206.997 296.376 207.064 296.203 207.064ZM188.041 208.215C187.746 208.215 187.475 208.02 187.396 207.72C186.702 205.131 186.211 202.437 185.939 199.716C185.902 199.349 186.169 199.02 186.537 198.981C186.912 198.953 187.235 199.215 187.271 199.582C187.537 202.232 188.015 204.853 188.689 207.372C188.785 207.73 188.573 208.097 188.216 208.194C188.158 208.209 188.098 208.215 188.041 208.215ZM402.523 212.165C402.489 212.165 402.447 212.163 402.408 212.156C402.044 212.092 401.801 211.744 401.865 211.379C402.306 208.846 402.53 206.23 402.53 203.606V203.498C402.53 203.127 402.83 202.826 403.201 202.826C403.573 202.826 403.872 203.127 403.872 203.498V203.6C403.872 206.307 403.642 208.998 403.184 211.61C403.127 211.935 402.846 212.165 402.523 212.165ZM285.198 218.766C285.036 218.766 284.87 218.706 284.744 218.584C284.472 218.334 284.456 217.91 284.709 217.638C285.439 216.854 286.189 216.043 286.975 215.19C287.972 214.106 289.024 212.962 290.166 211.746C290.415 211.475 290.839 211.46 291.112 211.712C291.38 211.965 291.395 212.39 291.144 212.66C290.009 213.876 288.958 215.017 287.957 216.097C287.17 216.95 286.422 217.769 285.691 218.552C285.556 218.692 285.377 218.766 285.198 218.766ZM194.778 222.716C194.566 222.716 194.36 222.618 194.23 222.432C193.91 221.979 193.599 221.517 193.293 221.048C192.125 219.248 191.072 217.341 190.161 215.375C190.006 215.039 190.153 214.64 190.489 214.487C190.824 214.33 191.222 214.478 191.378 214.813C192.26 216.72 193.282 218.575 194.416 220.319C194.712 220.773 195.015 221.224 195.324 221.662C195.537 221.963 195.464 222.381 195.162 222.592C195.045 222.679 194.91 222.716 194.778 222.716ZM396.84 227.089C396.723 227.089 396.597 227.057 396.489 226.991C396.176 226.792 396.08 226.38 396.275 226.066C397.681 223.819 398.86 221.442 399.787 218.999C399.918 218.654 400.308 218.479 400.651 218.613C400.996 218.741 401.171 219.131 401.041 219.476C400.082 222 398.86 224.456 397.413 226.776C397.285 226.977 397.068 227.089 396.84 227.089ZM273.346 229.554C273.134 229.554 272.931 229.455 272.8 229.269C272.586 228.968 272.656 228.549 272.957 228.335C275.153 226.772 277.106 225.178 279.106 223.321C279.378 223.068 279.803 223.084 280.052 223.353C280.304 223.625 280.289 224.049 280.018 224.302C277.975 226.201 275.977 227.828 273.734 229.428C273.615 229.509 273.481 229.554 273.346 229.554ZM206.167 233.926C206.035 233.926 205.904 233.888 205.787 233.808C203.522 232.248 201.407 230.506 199.501 228.636C199.237 228.376 199.233 227.952 199.492 227.686C199.75 227.425 200.175 227.421 200.439 227.681C202.29 229.496 204.346 231.187 206.547 232.706C206.852 232.915 206.928 233.335 206.718 233.638C206.589 233.827 206.379 233.926 206.167 233.926ZM259.56 237.791C259.315 237.791 259.077 237.654 258.96 237.417C258.797 237.086 258.934 236.685 259.264 236.521C261.441 235.448 263.658 234.217 266.244 232.653C266.56 232.462 266.973 232.565 267.165 232.878C267.357 233.194 267.254 233.606 266.937 233.799C264.317 235.387 262.07 236.63 259.858 237.719C259.762 237.768 259.664 237.791 259.56 237.791ZM386.085 238.925C385.884 238.925 385.689 238.835 385.557 238.665C385.327 238.375 385.382 237.953 385.673 237.726C387.772 236.089 389.728 234.284 391.491 232.357C391.74 232.086 392.161 232.065 392.437 232.315C392.708 232.565 392.73 232.989 392.478 233.262C390.669 235.243 388.652 237.1 386.494 238.784C386.373 238.881 386.228 238.925 386.085 238.925ZM220.585 240.913C220.518 240.913 220.449 240.903 220.382 240.884C217.761 240.04 215.219 239.031 212.828 237.88C212.495 237.719 212.354 237.32 212.515 236.985C212.676 236.656 213.075 236.511 213.409 236.672C215.744 237.797 218.228 238.784 220.79 239.608C221.142 239.721 221.336 240.098 221.223 240.449C221.132 240.734 220.869 240.913 220.585 240.913ZM244.383 242.898C244.061 242.898 243.779 242.671 243.724 242.341C243.657 241.977 243.902 241.632 244.268 241.568C246.807 241.123 249.387 240.46 251.937 239.587C252.286 239.468 252.669 239.654 252.788 240.006C252.91 240.354 252.722 240.734 252.373 240.856C249.759 241.747 247.108 242.435 244.498 242.888C244.459 242.895 244.418 242.898 244.383 242.898ZM236.178 243.614C235.332 243.614 234.476 243.591 233.641 243.547C233.27 243.527 231.279 243.406 228.266 242.856C227.902 242.79 227.66 242.441 227.727 242.079C227.793 241.715 228.139 241.476 228.505 241.54C231.439 242.074 233.355 242.192 233.71 242.211C234.524 242.253 235.355 242.271 236.178 242.271H236.382C236.384 242.271 236.388 242.271 236.388 242.271C236.755 242.271 237.056 242.571 237.059 242.937C237.061 243.307 236.764 243.607 236.394 243.611L236.178 243.614Z" fill="#0A428D"/>
<path d="M79.3027 424.122C79.2142 424.122 79.1227 424.109 79.0343 424.085C76.2609 423.314 74.5095 422.031 73.8264 420.266C73.3248 418.974 73.6143 417.921 73.8452 417.076C74.0267 416.421 74.1824 415.853 74.0267 415.152C73.745 413.883 72.73 413.315 71.0984 412.499C69.6006 411.746 67.9032 410.897 67.1285 408.996C66.1848 406.681 67.3695 404.681 68.415 402.916C69.3259 401.378 70.1867 399.927 69.7446 398.344C69.2391 396.534 67.3304 395.678 65.3091 394.77C63.0538 393.759 60.4987 392.612 59.7678 389.872C59.1567 387.576 60.2021 385.677 61.1248 384.002C61.894 382.605 62.5584 381.401 62.1264 380.264C61.4934 378.595 58.7998 377.49 54.3354 377.068C53.7829 377.017 53.3791 376.525 53.4307 375.973C53.4832 375.419 53.9785 375.013 54.5255 375.067C59.9541 375.585 63.0545 377.05 64.0046 379.552C64.766 381.555 63.7659 383.369 62.884 384.969C62.0717 386.444 61.3048 387.837 61.7093 389.355C62.193 391.174 64.1055 392.03 66.1308 392.937C68.3775 393.945 70.9215 395.087 71.6791 397.803C72.3513 400.212 71.179 402.194 70.1437 403.94C69.2203 405.5 68.4221 406.844 68.9902 408.237C69.4785 409.44 70.7024 410.053 71.9991 410.702C73.6331 411.522 75.4854 412.45 75.9878 414.718C76.2515 415.905 75.9917 416.849 75.7843 417.608C75.584 418.339 75.4377 418.867 75.6998 419.544C76.1412 420.682 77.4426 421.56 79.5711 422.149C80.1056 422.297 80.4186 422.853 80.2691 423.387C80.1463 423.83 79.7433 424.122 79.3027 424.122Z" fill="#0A428D"/>
<path d="M66.2975 248.572C65.6323 248.572 64.9891 248.786 64.4468 249.195C63.7879 249.69 63.3606 250.413 63.2455 251.228C63.1297 252.049 63.3395 252.862 63.8364 253.52C64.3317 254.179 65.0548 254.607 65.8734 254.722C66.6911 254.837 67.5034 254.628 68.1623 254.13C68.822 253.636 69.2485 252.91 69.3635 252.093C69.4801 251.276 69.2704 250.463 68.7735 249.805C68.2774 249.146 67.5543 248.718 66.7373 248.603C66.5902 248.581 66.4438 248.572 66.2975 248.572ZM66.3163 256.761C66.076 256.761 65.8342 256.743 65.5924 256.71C64.2441 256.52 63.0499 255.815 62.2306 254.728C61.4112 253.638 61.0669 252.298 61.2563 250.949C61.4472 249.601 62.1515 248.406 63.2385 247.589C64.3286 246.77 65.6715 246.424 67.0182 246.615C68.3666 246.803 69.5592 247.508 70.3785 248.597C71.1978 249.683 71.5445 251.025 71.3536 252.376C71.1626 253.723 70.4591 254.917 69.3706 255.735C68.4777 256.407 67.4142 256.761 66.3163 256.761Z" fill="#0A428D"/>
<path d="M553.909 366.115C553.822 366.115 553.732 366.106 553.643 366.082C553.108 365.933 552.796 365.38 552.941 364.847C559.093 342.506 562.214 319.318 562.214 295.921C562.214 259.586 554.837 224.45 540.292 191.493C540.069 190.985 540.299 190.392 540.807 190.169C541.314 189.942 541.907 190.174 542.134 190.68C556.791 223.896 564.223 259.305 564.223 295.921C564.223 319.497 561.078 342.865 554.88 365.378C554.755 365.824 554.353 366.115 553.909 366.115Z" fill="#0A428D"/>
<path d="M55.7627 369.107C55.3268 369.107 54.9246 368.821 54.7978 368.382C48.0358 344.939 44.6074 320.561 44.6074 295.923C44.6074 295.368 45.0566 294.918 45.6114 294.918C46.1663 294.918 46.6155 295.368 46.6155 295.923C46.6155 320.372 50.0188 344.563 56.7292 367.825C56.8825 368.357 56.575 368.915 56.0413 369.066C55.9489 369.094 55.8558 369.107 55.7627 369.107Z" fill="#0A428D"/>
<path d="M83.9288 407.84C83.5555 407.84 83.1963 407.634 83.0234 407.272C66.8793 373.833 58.6938 337.898 58.6938 300.469C58.6938 287.482 59.7143 274.445 61.7278 261.719C61.8147 261.169 62.3288 260.796 62.8766 260.884C63.4244 260.968 63.7977 261.485 63.7116 262.03C61.7145 274.655 60.7019 287.588 60.7019 300.469C60.7019 337.591 68.8201 373.234 84.8327 406.4C85.0745 406.899 84.8647 407.5 84.3655 407.739C84.2246 407.809 84.0751 407.84 83.9288 407.84Z" fill="#0A428D"/>
<path d="M546.055 332.73C546.008 332.73 545.962 332.728 545.917 332.721C545.368 332.646 544.984 332.138 545.06 331.589C546.592 320.492 547.373 309.144 547.373 297.857C547.373 270.673 542.934 243.975 534.181 218.51C534.002 217.988 534.28 217.417 534.807 217.233C535.332 217.059 535.9 217.333 536.082 217.858C544.907 243.532 549.38 270.447 549.38 297.857C549.38 309.234 548.595 320.674 547.048 331.862C546.981 332.366 546.549 332.73 546.055 332.73Z" fill="#0A428D"/>
<path d="M518.718 343.61H274.874C264.284 343.61 255.698 352.193 255.698 362.784V510.602C255.698 521.192 264.284 529.776 274.874 529.776H518.718C529.31 529.776 537.893 521.192 537.893 510.602V362.784C537.893 352.193 529.31 343.61 518.718 343.61Z" fill="#0A428D"/>
<path d="M274.874 344.614C264.854 344.614 256.701 352.765 256.701 362.784V510.602C256.701 520.621 264.854 528.771 274.874 528.771H518.717C528.738 528.771 536.89 520.621 536.89 510.602V362.784C536.89 352.765 528.738 344.614 518.717 344.614H274.874ZM518.717 530.78H274.874C263.747 530.78 254.692 521.729 254.692 510.602V362.784C254.692 351.657 263.747 342.606 274.874 342.606H518.717C529.847 342.606 538.897 351.657 538.897 362.784V510.602C538.897 521.729 529.847 530.78 518.717 530.78Z" fill="#0A428D"/>
<path d="M537.893 429.124H255.698V393.695H537.893V429.124Z" fill="black"/>
<path d="M516.381 468.001H446.743V445.431H516.381V468.001Z" fill="#EC4C60"/>
<mask id="mask1_81_4690" style="mask-type:luminance" maskUnits="userSpaceOnUse" x="290" y="90" width="239" height="400">
<path d="M528.329 90.5049H290.758V489.616H528.329V90.5049Z" fill="white"/>
</mask>
<g mask="url(#mask1_81_4690)">
<path d="M294.244 421.98C296.084 421.022 298.203 420.785 300.271 420.651C309.335 420.068 318.455 421.188 327.502 420.373C329.966 420.151 332.597 419.688 334.363 417.968L333.747 417.563C333.56 417.438 333.497 417.195 333.599 416.996L395.069 297.214H358.362C358.184 297.214 358.023 297.103 357.956 296.938L333.514 235.577C333.461 235.441 333.477 235.288 333.558 235.167C333.641 235.047 333.775 234.975 333.92 234.975H417C417.18 234.975 417.342 235.084 417.406 235.251L430.228 267.436C430.135 250.059 430.043 232.681 429.951 215.304C429.918 209.052 429.886 202.792 430.327 196.556C430.899 188.473 432.532 179.897 438.178 174.096C441.682 170.496 446.576 168.302 451.583 168.052C451.602 167.89 451.71 167.746 451.872 167.69C452.902 167.329 453.95 167.026 454.972 166.732C455.351 166.623 455.741 166.51 456.009 166.276C456.542 165.809 456.597 164.915 456.18 163.466L454.905 159.047C454.649 159.075 454.393 159.109 454.137 159.126C453.76 159.149 453.393 159.16 453.04 159.16C450.997 159.16 449.312 158.769 447.911 157.975C444.556 156.075 443.199 152.116 442.193 148.554C440.907 144.012 439.759 139.403 438.686 134.785C435.302 133.596 432.411 130.809 430.749 127.096C429.343 123.954 428.783 120.197 429.087 115.927C429.47 110.559 431.109 105.584 433.824 101.545C436.811 97.1002 441.068 93.8572 445.812 92.4127C448.545 91.5794 451.408 91.3456 454.176 91.1164C457.491 90.8433 461.249 90.5331 464.703 91.6095C467.542 92.4961 469.966 94.2275 472.309 95.9011C475.165 97.9405 478.117 100.049 480.543 102.714C483.094 103.327 485.964 104.04 488.224 105.843C490.214 107.434 491.504 109.695 492.758 112.07C495.779 117.792 499.141 124.658 501.16 132.186C501.511 133.501 501.881 135.033 501.768 136.582C501.62 138.66 500.653 140.526 499.674 142.26C496.121 148.547 491.645 154.653 486.37 160.417C486.372 160.447 486.379 160.478 486.377 160.512C486.319 160.978 486.243 161.441 486.174 161.908C498.665 166.681 511.249 173.35 518.213 184.776C522.782 192.274 524.497 201.144 525.7 209.848C529.306 235.906 529.052 262.496 524.952 288.48L518.594 288.559C518.656 288.633 518.703 288.723 518.707 288.827C518.716 289.068 518.527 289.272 518.287 289.281C517.752 289.302 517.214 289.313 516.678 289.327L516.664 295.718C516.664 295.834 516.618 295.947 516.535 296.028C516.452 296.11 516.341 296.156 516.228 296.156C516.226 296.156 516.223 296.156 516.221 296.156L514.847 296.137L516.387 316.202C516.969 323.783 514.155 331.142 508.668 336.39C504.081 340.776 498.113 343.216 491.885 343.357C491.82 343.485 491.703 343.584 491.55 343.603L435.045 350.193C426.562 351.322 420.05 352.234 418.484 352.572C418.835 358.452 420.555 393.473 413.886 422.765C406.679 454.429 407.598 462.082 407.609 462.156C407.625 462.279 407.591 462.404 407.51 462.501C407.429 462.596 407.311 462.651 407.189 462.656L405.31 462.711C404.71 463.688 405.063 465.038 405.707 466.068C406.397 467.17 407.371 468.075 408.002 469.211C408.9 470.818 409.029 472.735 409.061 474.577C409.14 479.216 408.717 483.864 407.803 488.413C404.938 488.225 402.246 488.385 399.583 488.753C398.514 486.982 397.756 485.126 396.999 483.269C396.782 482.73 396.508 482.137 395.965 481.936C394.991 484.029 394.183 486.197 393.55 488.417C393.352 488.415 358.429 489.529 357.409 489.561C357.529 487.656 357.623 485.644 358.801 484.202C359.493 483.355 360.477 482.816 361.437 482.297C368.72 478.35 376.006 474.404 383.292 470.457C386.484 468.728 389.988 466.582 390.949 463.14L389.515 463.184C389.511 463.184 389.506 463.184 389.501 463.184C389.287 463.184 389.104 463.026 389.07 462.813L379.178 400.466C378.573 401.1 377.973 401.732 377.345 402.362C367.061 412.672 359.544 420.1 355.003 424.443C351.183 428.098 350.271 428.869 349.874 428.869C349.761 428.869 349.689 428.804 349.604 428.725C349.366 428.508 349.438 428.244 349.599 427.991L347.667 426.721C346.725 427.663 346.774 429.598 346.347 431.072C346.097 431.934 345.619 432.707 345.148 433.466C343.207 436.596 341.266 439.725 339.324 442.857C339.068 443.272 338.784 443.711 338.336 443.904C337.764 444.149 337.11 443.924 336.531 443.7C335.213 443.188 333.897 442.679 332.581 442.167C332.443 440.042 332.595 437.899 333.033 435.816C331.353 437.279 329.675 438.739 327.994 440.202C327.701 440.457 327.387 440.721 327.004 440.783C326.699 440.834 326.387 440.748 326.092 440.663C316.943 438.017 307.961 434.795 299.214 431.026C296.336 429.785 293.468 428.478 290.846 426.762C290.883 424.76 292.404 422.936 294.244 421.98ZM440.33 292.799L440.341 292.829H440.909C440.676 292.818 440.48 292.809 440.33 292.799ZM515.526 316.512C515.547 317.364 515.556 318.214 515.568 319.066C515.6 318.221 515.584 317.369 515.526 316.512Z" fill="#90D9D1"/>
</g>
<mask id="mask2_81_4690" style="mask-type:luminance" maskUnits="userSpaceOnUse" x="356" y="489" width="2" height="1">
<path d="M357.538 489.111H356.947V489.616H357.538V489.111Z" fill="white"/>
</mask>
<g mask="url(#mask2_81_4690)">
<path d="M357.383 489.562C357.383 489.562 357.392 489.562 357.409 489.562C357.406 489.591 357.404 489.619 357.402 489.649C357.395 489.619 357.39 489.591 357.383 489.562Z" fill="#90D9D1"/>
</g>
<path d="M485.929 161.812C498.499 166.593 511.203 173.275 518.213 184.775C522.782 192.275 524.497 201.144 525.702 209.85C529.306 235.907 529.052 262.498 524.952 288.482L504.538 288.727L490.084 272.512C490.084 272.512 457.971 279.995 457.574 280.313C454.635 278.329 451.108 277.234 446.768 277.502C444.725 277.338 442.687 278.019 440.918 279.058C439.15 280.097 437.615 281.479 436.091 282.854C436.091 282.854 429.995 268.424 430.232 268.162C430.138 250.542 430.045 232.921 429.953 215.303C429.918 209.051 429.886 202.792 430.327 196.556C430.9 188.47 432.534 179.894 438.181 174.093C441.837 170.338 447.006 168.106 452.239 168.023C452.239 168.023 459.91 193.613 460.016 193.84C460.958 191.532 462.205 189.35 463.472 187.176C463.978 192.155 464.481 197.171 464.003 202.15C463.8 204.275 463.419 206.384 463.331 208.516C463.292 209.431 463.308 210.354 463.121 211.252C462.902 212.306 462.406 213.315 462.406 214.391C463.768 210.949 465.672 207.597 468.606 205.347C469.761 204.463 471.046 203.769 472.311 203.053C473.835 202.194 475.345 201.294 476.709 200.197C479.876 197.648 482.183 194.046 483.242 190.072C484.198 187.361 484.551 184.481 484.902 181.63C485.544 176.387 486.16 170.903 484.223 165.843C485.05 165.329 485.477 164.243 485.929 161.812Z" fill="#E12599" stroke="black" stroke-width="3"/>
<path d="M492.132 288.357L460.822 288.989C457.345 291.5 452.966 292.723 448.696 292.373C445.734 292.13 442.509 291.218 439.963 292.75C440.304 293.084 480.56 293.012 480.56 293.012L481.204 295.234L516.168 295.734L515.882 288.855L492.132 288.357ZM480.927 295.364C480.927 295.364 514.587 295.692 514.31 295.653C515.051 304.186 515.586 312.736 515.607 321.378C515.007 327.688 511.609 333.621 506.657 337.565C501.705 341.507 495.295 343.477 488.972 343.301C488.972 343.301 417.93 352.146 418.115 352.688C419.059 364.924 418.36 377.218 417.66 389.47C417.383 394.322 417.106 399.176 416.555 404.003C414.318 423.584 407.591 442.607 407.235 462.311L389.603 462.827C389.603 462.827 379.423 399.486 379.09 399.783C370.002 409.787 360.366 419.292 350.239 428.239L333.828 417.169L358.046 369.725L395.64 296.919C395.64 296.919 475.89 296.605 475.871 296.642C477.228 296.593 478.593 296.667 479.939 296.861C480.197 296.901 480.47 296.94 480.712 296.838C480.952 296.739 481.13 296.438 480.927 295.364ZM334.075 235.373L358.247 296.598L480.703 296.878L480.483 293.299L440.034 292.938L417.102 235.521L334.075 235.373Z" fill="white"/>
<path d="M435.618 118.377C437.447 129.331 439.974 140.166 443.181 150.796C443.793 152.821 444.612 155.06 446.2 155.935C447.207 157.298 448.83 158.099 450.487 158.449C452.145 158.796 453.855 158.736 455.547 158.673C455.709 160.261 456.023 161.833 456.487 163.358C456.789 164.349 457.129 165.504 456.528 166.345C456.113 166.926 455.374 167.155 454.689 167.349C453.65 167.641 452.613 167.933 451.577 168.224L459.654 193.824C459.654 193.824 463.484 187.953 464.033 187.673C463.953 184.088 463.948 180.474 464.599 176.949C465.252 173.421 466.603 169.956 468.96 167.257C470.476 165.521 472.379 164.132 473.741 162.271C472.988 162.331 472.235 161.794 472.277 160.97C471.086 158.606 469.888 156.227 469.119 153.694C468.35 151.159 468.025 148.437 468.609 145.914C469.92 143.099 471.374 140.352 472.963 137.685C473.302 137.115 473.667 136.527 474.232 136.183C474.796 135.84 475.479 135.782 476.118 135.629C478.314 135.106 480.119 133.317 480.844 131.176C481.566 129.032 481.255 126.602 480.179 124.613C479.209 122.828 477.374 121.284 475.359 121.511C473.337 121.738 471.891 123.646 471.27 125.588C470.649 127.53 470.599 129.618 469.998 131.564C469.816 132.152 469.26 132.852 468.678 132.611C467.111 130.504 465.723 128.266 464.532 125.926C463.403 123.713 462.443 121.393 460.998 119.372C459.901 117.838 458.546 116.507 457.119 115.275C455.778 114.115 454.243 112.986 452.472 112.905C450.589 112.821 448.88 113.939 447.378 115.083C445.877 116.224 444.333 117.486 442.47 117.764C441.445 117.916 440.401 117.757 439.367 117.731C438.326 117.708 437.227 117.842 435.618 118.377ZM504.919 288.74L498.511 288.451L482.203 288.277L460.575 288.965C458.424 290.703 455.751 291.722 453.02 292.152C450.289 292.583 447.495 292.444 444.76 292.051C443.903 291.928 443.042 291.78 442.181 291.833C441.318 291.889 440.438 292.173 439.836 292.794C439.877 292.639 436.038 283.509 436.038 283.509C436.542 282.25 437.546 281.252 438.635 280.449C441.385 278.419 444.831 277.414 448.248 277.426C451.662 277.437 455.042 278.435 458.034 280.085C458.507 280.085 489.542 272.317 489.542 272.317L504.919 288.74Z" fill="#F6D5B2"/>
<mask id="mask3_81_4690" style="mask-type:luminance" maskUnits="userSpaceOnUse" x="427" y="89" width="77" height="128">
<path d="M502.326 90.0049H502.826V90.5049V215.334V215.834H502.326H428.455H427.955V215.334V90.5049V90.0049H428.455H502.326Z" fill="white" stroke="white"/>
</mask>
<g mask="url(#mask3_81_4690)">
<path d="M499.674 142.262C496.121 148.551 491.645 154.655 486.37 160.419C486.372 160.452 486.379 160.479 486.377 160.514C486.192 161.991 485.947 163.477 485.647 164.931C485.603 165.137 485.523 165.523 485.186 165.741C485.047 165.831 484.902 165.861 484.761 165.871C486.197 171.352 485.536 177.239 484.948 182.456C484.417 187.139 483.757 192.97 480.372 197.206C478.405 199.665 475.709 201.355 473.101 202.989C471.173 204.197 469.181 205.447 467.516 206.989C465.273 209.07 463.59 211.711 462.652 214.628C462.592 214.813 462.422 214.931 462.235 214.931C462.198 214.931 462.163 214.926 462.126 214.917C461.902 214.861 461.761 214.637 461.805 214.41C461.858 214.137 461.909 213.861 461.962 213.586C461.923 213.674 461.881 213.76 461.844 213.848C461.914 213.628 461.971 213.403 462.038 213.181C462.733 209.544 463.396 205.811 463.599 202.084C463.774 198.85 463.603 195.547 463.44 192.352C463.377 191.165 463.32 189.961 463.276 188.75C462.061 190.498 460.988 192.345 460.095 194.276C460.023 194.431 459.868 194.528 459.698 194.528C459.686 194.528 459.674 194.528 459.665 194.528C459.483 194.514 459.328 194.387 459.277 194.211C456.819 185.57 454.233 176.829 451.595 168.234C451.525 168.01 451.648 167.769 451.869 167.692C452.897 167.331 453.947 167.028 454.967 166.734C455.346 166.623 455.738 166.51 456.006 166.276C456.54 165.808 456.593 164.917 456.175 163.468L454.9 159.049C454.644 159.074 454.39 159.111 454.134 159.125C453.755 159.151 453.391 159.162 453.035 159.162C450.995 159.162 449.307 158.771 447.908 157.977C444.552 156.077 443.196 152.116 442.188 148.556C440.902 144.012 439.755 139.403 438.683 134.787C435.297 133.598 432.409 130.811 430.744 127.098C429.339 123.956 428.78 120.199 429.085 115.929C429.468 110.561 431.105 105.586 433.819 101.547C436.807 97.1022 441.063 93.8591 445.807 92.4147C448.543 91.5813 451.403 91.3475 454.171 91.1184C457.488 90.8452 461.244 90.535 464.698 91.6114C467.539 92.498 469.963 94.2272 472.306 95.9031C475.162 97.9425 478.115 100.051 480.541 102.713C483.092 103.329 485.961 104.042 488.219 105.845C490.209 107.436 491.499 109.697 492.753 112.07C495.777 117.794 499.138 124.658 501.156 132.188C501.509 133.503 501.876 135.035 501.765 136.581C501.62 138.662 500.652 140.528 499.674 142.262ZM443.033 148.315C443.993 151.709 445.274 155.475 448.34 157.213C449.833 158.058 451.71 158.396 454.081 158.25C457.925 158.01 461.736 156.602 464.813 154.287C465.007 154.142 465.282 154.179 465.425 154.375C465.57 154.57 465.531 154.843 465.337 154.989C462.567 157.072 459.224 158.447 455.785 158.947L457.017 163.223C457.347 164.366 457.659 165.993 456.583 166.936C456.17 167.297 455.639 167.449 455.208 167.577C454.335 167.829 453.437 168.088 452.557 168.382C455.041 176.486 457.477 184.713 459.806 192.864C460.783 190.912 461.934 189.044 463.234 187.294C463.22 186.669 463.211 186.047 463.211 185.424C463.19 184.426 463.227 183.433 463.31 182.44C463.721 175.459 465.707 170.019 469.262 166.294C469.659 165.878 470.079 165.479 470.499 165.081C471.346 164.28 472.14 163.507 472.757 162.611L472.313 162.489C472.203 162.456 471.972 162.392 471.826 162.179C471.685 161.973 471.702 161.748 471.711 161.628L471.743 161.204C470.358 158.442 469.211 155.542 468.343 152.574C468.022 151.479 467.683 150.204 467.722 148.894C467.768 147.412 468.285 146.026 468.765 144.843C470.033 141.72 471.635 138.72 473.528 135.931C473.597 135.827 473.71 135.757 473.835 135.741C475.407 135.544 477.574 134.991 478.978 133.489C480.594 131.762 481.012 128.806 480.042 125.963C479.56 124.547 478.874 123.477 477.999 122.78C476.979 121.963 475.647 121.699 474.606 122.1C473.659 122.468 472.863 123.375 472.168 124.873C471.42 126.482 470.94 128.19 470.737 129.952C470.716 130.132 470.584 130.276 470.42 130.322C470.411 130.417 470.397 130.512 470.383 130.609C470.6 130.667 470.744 130.88 470.702 131.104C470.487 132.267 470.019 132.915 469.303 133.033C469.229 133.047 469.16 133.051 469.091 133.051C468.359 133.051 467.798 132.426 467.599 132.206C465.972 130.392 464.972 128.146 464.007 125.975C463.414 124.644 462.802 123.269 462.054 122.019C461.062 120.357 459.781 118.841 458.543 117.373C457.534 116.179 456.493 114.942 455.18 114.093C454.436 113.609 453.709 113.331 453.024 113.262C451.262 113.079 449.621 114.206 448.042 115.292L447.744 115.496C445.777 116.841 443.134 118.387 440.209 118.341C439.932 118.336 439.658 118.317 439.381 118.301C438.829 118.264 438.307 118.232 437.804 118.313C437.169 118.417 436.46 118.801 436.31 119.431C436.299 119.479 436.276 119.521 436.248 119.561C438.249 129.084 440.355 138.848 443.033 148.315Z" fill="black" stroke="black"/>
</g>
<path d="M358.449 296.338L333.568 235.07H416.644L439.838 293.38H480.743V296.338H358.449Z" fill="#1F1F1F" stroke="black"/>
<mask id="mask4_81_4690" style="mask-type:luminance" maskUnits="userSpaceOnUse" x="290" y="86" width="278" height="412">
<path d="M567.615 86.3379H290.977V497.042H567.615V86.3379Z" fill="white"/>
</mask>
<g mask="url(#mask4_81_4690)">
<mask id="path-70-outside-1_81_4690" maskUnits="userSpaceOnUse" x="289.708" y="180.472" width="230" height="311" fill="black">
<rect fill="white" x="289.708" y="180.472" width="230" height="311"/>
<path d="M294.244 421.978C296.084 421.02 298.203 420.784 300.272 420.65C309.335 420.066 318.456 421.187 327.503 420.372C329.966 420.15 332.598 419.687 334.364 417.967L333.747 417.562C333.56 417.437 333.498 417.194 333.599 416.995L395.07 297.212H358.363C358.185 297.212 358.023 297.101 357.956 296.937L333.514 235.576C333.461 235.439 333.477 235.286 333.558 235.166C333.641 235.046 333.775 234.974 333.92 234.974H417C417.181 234.974 417.342 235.083 417.407 235.249L436.089 282.152C436.422 281.573 437.031 281.184 437.601 280.86L440.425 279.256C441.687 278.539 442.992 277.798 444.43 277.353C445.494 277.025 446.568 276.872 447.648 276.853C446.995 263.245 446.064 249.462 444.885 235.886C440.99 230.462 438.954 223.127 439.293 215.735C439.58 209.499 441.438 202.879 444.97 195.506C444.19 193.224 443.516 190.944 442.865 188.738C442.795 188.506 442.927 188.263 443.158 188.194C443.391 188.122 443.633 188.256 443.703 188.488C444.368 190.74 445.058 193.069 445.857 195.39C445.893 195.499 445.887 195.62 445.836 195.724C442.304 203.053 440.45 209.613 440.166 215.775C439.836 223.015 441.837 230.194 445.663 235.469C445.709 235.532 445.736 235.608 445.743 235.687C446.932 249.333 447.867 263.187 448.525 276.865C451.614 277.015 454.776 278.182 457.992 279.506C468.318 277.434 478.602 275.027 489.411 272.152C489.468 272.009 489.593 271.9 489.748 271.877C492.01 271.539 494.312 271.194 496.627 270.835C496.618 270.803 496.606 270.775 496.606 270.738L495.009 206.805C494.898 202.279 494.78 197.599 495.831 193.076C497.015 187.969 499.621 183.874 503.167 181.543C503.368 181.411 503.64 181.467 503.772 181.668C503.903 181.872 503.848 182.143 503.647 182.275C500.288 184.485 497.816 188.39 496.682 193.272C495.655 197.689 495.771 202.312 495.884 206.782L497.479 270.701C499.663 270.36 501.856 270.009 504.04 269.634C504.28 269.594 504.504 269.752 504.543 269.99C504.584 270.228 504.425 270.455 504.187 270.497C499.677 271.27 495.133 271.958 490.722 272.617C495.759 277.805 500.358 282.944 504.753 288.305C508.497 288.502 512.283 288.548 516.046 288.462C516.106 288.432 516.168 288.411 516.24 288.411C516.305 288.411 516.365 288.427 516.42 288.453C517.032 288.437 517.643 288.427 518.253 288.404C518.488 288.384 518.696 288.585 518.708 288.826C518.717 289.066 518.528 289.27 518.288 289.279C517.752 289.3 517.214 289.312 516.679 289.326L516.665 295.717C516.665 295.833 516.619 295.946 516.535 296.027C516.452 296.108 516.341 296.154 516.228 296.154C516.226 296.154 516.224 296.154 516.221 296.154L514.848 296.136L516.388 316.201C516.969 323.782 514.155 331.14 508.668 336.388C504.081 340.775 498.114 343.215 491.885 343.356C491.821 343.483 491.703 343.583 491.551 343.601L418.457 352.127C418.729 356.421 420.747 392.627 413.886 422.765C406.679 454.43 407.598 462.08 407.61 462.154C407.626 462.279 407.591 462.404 407.51 462.499C407.429 462.594 407.312 462.652 407.189 462.654L405.31 462.712C404.71 463.689 405.063 465.036 405.707 466.066C406.398 467.168 407.372 468.076 408.002 469.21C408.9 470.819 409.029 472.733 409.062 474.576C409.14 479.215 408.718 483.863 407.803 488.414C404.939 488.224 402.247 488.384 399.583 488.752C398.514 486.983 397.757 485.124 397 483.268C396.783 482.731 396.508 482.136 395.966 481.934C394.991 484.027 394.183 486.196 393.551 488.416C393.352 488.416 358.43 489.527 357.409 489.559C357.529 487.657 357.624 485.643 358.801 484.201C359.494 483.356 360.477 482.816 361.438 482.296C368.721 478.349 376.006 474.402 383.292 470.455C386.485 468.726 389.989 466.58 390.949 463.14L389.516 463.182C389.511 463.182 389.506 463.182 389.502 463.182C389.287 463.182 389.105 463.027 389.07 462.812L379.178 400.467C378.573 401.099 377.973 401.733 377.345 402.363C367.061 412.671 359.545 420.099 355.004 424.441C351.183 428.096 350.269 428.87 349.874 428.87C349.761 428.87 349.69 428.805 349.604 428.726C349.366 428.506 349.438 428.245 349.6 427.99L347.667 426.721C346.726 427.661 346.774 429.599 346.347 431.071C346.098 431.932 345.62 432.705 345.149 433.467C343.207 436.596 341.266 439.726 339.325 442.856C339.068 443.27 338.784 443.71 338.337 443.902C337.764 444.15 337.111 443.925 336.531 443.698C335.213 443.189 333.897 442.677 332.579 442.166C332.443 440.041 332.595 437.9 333.034 435.814C331.353 437.277 329.675 438.738 327.994 440.201C327.701 440.455 327.387 440.721 327.004 440.784C326.699 440.833 326.388 440.747 326.092 440.661C316.944 438.015 307.961 434.796 299.215 431.025C296.336 429.784 293.469 428.476 290.846 426.761C290.883 424.759 292.405 422.934 294.244 421.978ZM416.705 235.851H334.567L358.66 296.335H480.41V293.703H440.046C439.868 293.703 439.707 293.594 439.64 293.427L416.705 235.851ZM489.819 272.953C478.882 275.865 468.48 278.3 458.034 280.395C457.948 280.411 457.861 280.402 457.782 280.37C453.239 278.492 448.821 276.914 444.686 278.191C443.34 278.608 442.075 279.326 440.856 280.02L438.033 281.622C437.461 281.948 436.84 282.342 436.729 282.893C436.703 283.027 436.616 283.129 436.503 283.189L439.979 291.918C441.863 291.055 443.97 291.302 446.013 291.552L446.614 291.624C450.677 292.101 456.332 291.974 460.197 288.661C460.275 288.592 460.377 288.555 460.481 288.555C464.294 288.541 468.288 288.4 472.15 288.263C474.74 288.171 477.344 288.078 479.951 288.02C487.922 287.842 495.731 287.733 503.552 288.242C499.252 283.032 494.748 278.013 489.819 272.953ZM515.804 289.353C514.737 289.377 513.671 289.39 512.604 289.39C509.901 289.39 507.195 289.316 504.515 289.173C504.497 289.171 504.48 289.161 504.464 289.159C504.432 289.164 504.402 289.173 504.367 289.171C496.29 288.596 488.217 288.712 479.971 288.897C477.37 288.953 474.768 289.046 472.182 289.138C468.367 289.275 464.424 289.414 460.642 289.43C457.392 292.138 452.51 293.198 446.512 292.495L445.907 292.423C443.97 292.184 441.974 291.946 440.305 292.731L440.342 292.826H480.846C481.089 292.826 481.285 293.022 481.285 293.263V294.853C481.285 294.853 481.287 294.853 481.289 294.853L515.792 295.272L515.804 289.353ZM389.873 462.296L406.702 461.793C406.594 459.719 406.675 450.506 413.034 422.571C420.272 390.775 417.584 352.161 417.557 351.775C417.538 351.541 417.709 351.335 417.942 351.307L487.906 343.145L411.774 333.675C411.384 337.923 407.563 370.302 379.938 399.68L389.873 462.296ZM350.431 427.49C352.162 426.011 357.942 420.571 376.727 401.742C408.417 369.976 410.918 333.522 410.938 333.159C410.945 333.036 411.001 332.923 411.095 332.846C411.188 332.77 411.31 332.731 411.428 332.749L488.291 342.309C495.558 343.215 502.765 340.826 508.061 335.758C513.359 330.691 516.076 323.587 515.515 316.27L513.968 296.129L481.283 295.733V296.772C481.283 297.015 481.086 297.212 480.846 297.212H396.053L334.555 417.046L350.431 427.49Z"/>
</mask>
<path d="M294.244 421.978C296.084 421.02 298.203 420.784 300.272 420.65C309.335 420.066 318.456 421.187 327.503 420.372C329.966 420.15 332.598 419.687 334.364 417.967L333.747 417.562C333.56 417.437 333.498 417.194 333.599 416.995L395.07 297.212H358.363C358.185 297.212 358.023 297.101 357.956 296.937L333.514 235.576C333.461 235.439 333.477 235.286 333.558 235.166C333.641 235.046 333.775 234.974 333.92 234.974H417C417.181 234.974 417.342 235.083 417.407 235.249L436.089 282.152C436.422 281.573 437.031 281.184 437.601 280.86L440.425 279.256C441.687 278.539 442.992 277.798 444.43 277.353C445.494 277.025 446.568 276.872 447.648 276.853C446.995 263.245 446.064 249.462 444.885 235.886C440.99 230.462 438.954 223.127 439.293 215.735C439.58 209.499 441.438 202.879 444.97 195.506C444.19 193.224 443.516 190.944 442.865 188.738C442.795 188.506 442.927 188.263 443.158 188.194C443.391 188.122 443.633 188.256 443.703 188.488C444.368 190.74 445.058 193.069 445.857 195.39C445.893 195.499 445.887 195.62 445.836 195.724C442.304 203.053 440.45 209.613 440.166 215.775C439.836 223.015 441.837 230.194 445.663 235.469C445.709 235.532 445.736 235.608 445.743 235.687C446.932 249.333 447.867 263.187 448.525 276.865C451.614 277.015 454.776 278.182 457.992 279.506C468.318 277.434 478.602 275.027 489.411 272.152C489.468 272.009 489.593 271.9 489.748 271.877C492.01 271.539 494.312 271.194 496.627 270.835C496.618 270.803 496.606 270.775 496.606 270.738L495.009 206.805C494.898 202.279 494.78 197.599 495.831 193.076C497.015 187.969 499.621 183.874 503.167 181.543C503.368 181.411 503.64 181.467 503.772 181.668C503.903 181.872 503.848 182.143 503.647 182.275C500.288 184.485 497.816 188.39 496.682 193.272C495.655 197.689 495.771 202.312 495.884 206.782L497.479 270.701C499.663 270.36 501.856 270.009 504.04 269.634C504.28 269.594 504.504 269.752 504.543 269.99C504.584 270.228 504.425 270.455 504.187 270.497C499.677 271.27 495.133 271.958 490.722 272.617C495.759 277.805 500.358 282.944 504.753 288.305C508.497 288.502 512.283 288.548 516.046 288.462C516.106 288.432 516.168 288.411 516.24 288.411C516.305 288.411 516.365 288.427 516.42 288.453C517.032 288.437 517.643 288.427 518.253 288.404C518.488 288.384 518.696 288.585 518.708 288.826C518.717 289.066 518.528 289.27 518.288 289.279C517.752 289.3 517.214 289.312 516.679 289.326L516.665 295.717C516.665 295.833 516.619 295.946 516.535 296.027C516.452 296.108 516.341 296.154 516.228 296.154C516.226 296.154 516.224 296.154 516.221 296.154L514.848 296.136L516.388 316.201C516.969 323.782 514.155 331.14 508.668 336.388C504.081 340.775 498.114 343.215 491.885 343.356C491.821 343.483 491.703 343.583 491.551 343.601L418.457 352.127C418.729 356.421 420.747 392.627 413.886 422.765C406.679 454.43 407.598 462.08 407.61 462.154C407.626 462.279 407.591 462.404 407.51 462.499C407.429 462.594 407.312 462.652 407.189 462.654L405.31 462.712C404.71 463.689 405.063 465.036 405.707 466.066C406.398 467.168 407.372 468.076 408.002 469.21C408.9 470.819 409.029 472.733 409.062 474.576C409.14 479.215 408.718 483.863 407.803 488.414C404.939 488.224 402.247 488.384 399.583 488.752C398.514 486.983 397.757 485.124 397 483.268C396.783 482.731 396.508 482.136 395.966 481.934C394.991 484.027 394.183 486.196 393.551 488.416C393.352 488.416 358.43 489.527 357.409 489.559C357.529 487.657 357.624 485.643 358.801 484.201C359.494 483.356 360.477 482.816 361.438 482.296C368.721 478.349 376.006 474.402 383.292 470.455C386.485 468.726 389.989 466.58 390.949 463.14L389.516 463.182C389.511 463.182 389.506 463.182 389.502 463.182C389.287 463.182 389.105 463.027 389.07 462.812L379.178 400.467C378.573 401.099 377.973 401.733 377.345 402.363C367.061 412.671 359.545 420.099 355.004 424.441C351.183 428.096 350.269 428.87 349.874 428.87C349.761 428.87 349.69 428.805 349.604 428.726C349.366 428.506 349.438 428.245 349.6 427.99L347.667 426.721C346.726 427.661 346.774 429.599 346.347 431.071C346.098 431.932 345.62 432.705 345.149 433.467C343.207 436.596 341.266 439.726 339.325 442.856C339.068 443.27 338.784 443.71 338.337 443.902C337.764 444.15 337.111 443.925 336.531 443.698C335.213 443.189 333.897 442.677 332.579 442.166C332.443 440.041 332.595 437.9 333.034 435.814C331.353 437.277 329.675 438.738 327.994 440.201C327.701 440.455 327.387 440.721 327.004 440.784C326.699 440.833 326.388 440.747 326.092 440.661C316.944 438.015 307.961 434.796 299.215 431.025C296.336 429.784 293.469 428.476 290.846 426.761C290.883 424.759 292.405 422.934 294.244 421.978ZM416.705 235.851H334.567L358.66 296.335H480.41V293.703H440.046C439.868 293.703 439.707 293.594 439.64 293.427L416.705 235.851ZM489.819 272.953C478.882 275.865 468.48 278.3 458.034 280.395C457.948 280.411 457.861 280.402 457.782 280.37C453.239 278.492 448.821 276.914 444.686 278.191C443.34 278.608 442.075 279.326 440.856 280.02L438.033 281.622C437.461 281.948 436.84 282.342 436.729 282.893C436.703 283.027 436.616 283.129 436.503 283.189L439.979 291.918C441.863 291.055 443.97 291.302 446.013 291.552L446.614 291.624C450.677 292.101 456.332 291.974 460.197 288.661C460.275 288.592 460.377 288.555 460.481 288.555C464.294 288.541 468.288 288.4 472.15 288.263C474.74 288.171 477.344 288.078 479.951 288.02C487.922 287.842 495.731 287.733 503.552 288.242C499.252 283.032 494.748 278.013 489.819 272.953ZM515.804 289.353C514.737 289.377 513.671 289.39 512.604 289.39C509.901 289.39 507.195 289.316 504.515 289.173C504.497 289.171 504.48 289.161 504.464 289.159C504.432 289.164 504.402 289.173 504.367 289.171C496.29 288.596 488.217 288.712 479.971 288.897C477.37 288.953 474.768 289.046 472.182 289.138C468.367 289.275 464.424 289.414 460.642 289.43C457.392 292.138 452.51 293.198 446.512 292.495L445.907 292.423C443.97 292.184 441.974 291.946 440.305 292.731L440.342 292.826H480.846C481.089 292.826 481.285 293.022 481.285 293.263V294.853C481.285 294.853 481.287 294.853 481.289 294.853L515.792 295.272L515.804 289.353ZM389.873 462.296L406.702 461.793C406.594 459.719 406.675 450.506 413.034 422.571C420.272 390.775 417.584 352.161 417.557 351.775C417.538 351.541 417.709 351.335 417.942 351.307L487.906 343.145L411.774 333.675C411.384 337.923 407.563 370.302 379.938 399.68L389.873 462.296ZM350.431 427.49C352.162 426.011 357.942 420.571 376.727 401.742C408.417 369.976 410.918 333.522 410.938 333.159C410.945 333.036 411.001 332.923 411.095 332.846C411.188 332.77 411.31 332.731 411.428 332.749L488.291 342.309C495.558 343.215 502.765 340.826 508.061 335.758C513.359 330.691 516.076 323.587 515.515 316.27L513.968 296.129L481.283 295.733V296.772C481.283 297.015 481.086 297.212 480.846 297.212H396.053L334.555 417.046L350.431 427.49Z" fill="black"/>
<path d="M294.244 421.978C296.084 421.02 298.203 420.784 300.272 420.65C309.335 420.066 318.456 421.187 327.503 420.372C329.966 420.15 332.598 419.687 334.364 417.967L333.747 417.562C333.56 417.437 333.498 417.194 333.599 416.995L395.07 297.212H358.363C358.185 297.212 358.023 297.101 357.956 296.937L333.514 235.576C333.461 235.439 333.477 235.286 333.558 235.166C333.641 235.046 333.775 234.974 333.92 234.974H417C417.181 234.974 417.342 235.083 417.407 235.249L436.089 282.152C436.422 281.573 437.031 281.184 437.601 280.86L440.425 279.256C441.687 278.539 442.992 277.798 444.43 277.353C445.494 277.025 446.568 276.872 447.648 276.853C446.995 263.245 446.064 249.462 444.885 235.886C440.99 230.462 438.954 223.127 439.293 215.735C439.58 209.499 441.438 202.879 444.97 195.506C444.19 193.224 443.516 190.944 442.865 188.738C442.795 188.506 442.927 188.263 443.158 188.194C443.391 188.122 443.633 188.256 443.703 188.488C444.368 190.74 445.058 193.069 445.857 195.39C445.893 195.499 445.887 195.62 445.836 195.724C442.304 203.053 440.45 209.613 440.166 215.775C439.836 223.015 441.837 230.194 445.663 235.469C445.709 235.532 445.736 235.608 445.743 235.687C446.932 249.333 447.867 263.187 448.525 276.865C451.614 277.015 454.776 278.182 457.992 279.506C468.318 277.434 478.602 275.027 489.411 272.152C489.468 272.009 489.593 271.9 489.748 271.877C492.01 271.539 494.312 271.194 496.627 270.835C496.618 270.803 496.606 270.775 496.606 270.738L495.009 206.805C494.898 202.279 494.78 197.599 495.831 193.076C497.015 187.969 499.621 183.874 503.167 181.543C503.368 181.411 503.64 181.467 503.772 181.668C503.903 181.872 503.848 182.143 503.647 182.275C500.288 184.485 497.816 188.39 496.682 193.272C495.655 197.689 495.771 202.312 495.884 206.782L497.479 270.701C499.663 270.36 501.856 270.009 504.04 269.634C504.28 269.594 504.504 269.752 504.543 269.99C504.584 270.228 504.425 270.455 504.187 270.497C499.677 271.27 495.133 271.958 490.722 272.617C495.759 277.805 500.358 282.944 504.753 288.305C508.497 288.502 512.283 288.548 516.046 288.462C516.106 288.432 516.168 288.411 516.24 288.411C516.305 288.411 516.365 288.427 516.42 288.453C517.032 288.437 517.643 288.427 518.253 288.404C518.488 288.384 518.696 288.585 518.708 288.826C518.717 289.066 518.528 289.27 518.288 289.279C517.752 289.3 517.214 289.312 516.679 289.326L516.665 295.717C516.665 295.833 516.619 295.946 516.535 296.027C516.452 296.108 516.341 296.154 516.228 296.154C516.226 296.154 516.224 296.154 516.221 296.154L514.848 296.136L516.388 316.201C516.969 323.782 514.155 331.14 508.668 336.388C504.081 340.775 498.114 343.215 491.885 343.356C491.821 343.483 491.703 343.583 491.551 343.601L418.457 352.127C418.729 356.421 420.747 392.627 413.886 422.765C406.679 454.43 407.598 462.08 407.61 462.154C407.626 462.279 407.591 462.404 407.51 462.499C407.429 462.594 407.312 462.652 407.189 462.654L405.31 462.712C404.71 463.689 405.063 465.036 405.707 466.066C406.398 467.168 407.372 468.076 408.002 469.21C408.9 470.819 409.029 472.733 409.062 474.576C409.14 479.215 408.718 483.863 407.803 488.414C404.939 488.224 402.247 488.384 399.583 488.752C398.514 486.983 397.757 485.124 397 483.268C396.783 482.731 396.508 482.136 395.966 481.934C394.991 484.027 394.183 486.196 393.551 488.416C393.352 488.416 358.43 489.527 357.409 489.559C357.529 487.657 357.624 485.643 358.801 484.201C359.494 483.356 360.477 482.816 361.438 482.296C368.721 478.349 376.006 474.402 383.292 470.455C386.485 468.726 389.989 466.58 390.949 463.14L389.516 463.182C389.511 463.182 389.506 463.182 389.502 463.182C389.287 463.182 389.105 463.027 389.07 462.812L379.178 400.467C378.573 401.099 377.973 401.733 377.345 402.363C367.061 412.671 359.545 420.099 355.004 424.441C351.183 428.096 350.269 428.87 349.874 428.87C349.761 428.87 349.69 428.805 349.604 428.726C349.366 428.506 349.438 428.245 349.6 427.99L347.667 426.721C346.726 427.661 346.774 429.599 346.347 431.071C346.098 431.932 345.62 432.705 345.149 433.467C343.207 436.596 341.266 439.726 339.325 442.856C339.068 443.27 338.784 443.71 338.337 443.902C337.764 444.15 337.111 443.925 336.531 443.698C335.213 443.189 333.897 442.677 332.579 442.166C332.443 440.041 332.595 437.9 333.034 435.814C331.353 437.277 329.675 438.738 327.994 440.201C327.701 440.455 327.387 440.721 327.004 440.784C326.699 440.833 326.388 440.747 326.092 440.661C316.944 438.015 307.961 434.796 299.215 431.025C296.336 429.784 293.469 428.476 290.846 426.761C290.883 424.759 292.405 422.934 294.244 421.978ZM416.705 235.851H334.567L358.66 296.335H480.41V293.703H440.046C439.868 293.703 439.707 293.594 439.64 293.427L416.705 235.851ZM489.819 272.953C478.882 275.865 468.48 278.3 458.034 280.395C457.948 280.411 457.861 280.402 457.782 280.37C453.239 278.492 448.821 276.914 444.686 278.191C443.34 278.608 442.075 279.326 440.856 280.02L438.033 281.622C437.461 281.948 436.84 282.342 436.729 282.893C436.703 283.027 436.616 283.129 436.503 283.189L439.979 291.918C441.863 291.055 443.97 291.302 446.013 291.552L446.614 291.624C450.677 292.101 456.332 291.974 460.197 288.661C460.275 288.592 460.377 288.555 460.481 288.555C464.294 288.541 468.288 288.4 472.15 288.263C474.74 288.171 477.344 288.078 479.951 288.02C487.922 287.842 495.731 287.733 503.552 288.242C499.252 283.032 494.748 278.013 489.819 272.953ZM515.804 289.353C514.737 289.377 513.671 289.39 512.604 289.39C509.901 289.39 507.195 289.316 504.515 289.173C504.497 289.171 504.48 289.161 504.464 289.159C504.432 289.164 504.402 289.173 504.367 289.171C496.29 288.596 488.217 288.712 479.971 288.897C477.37 288.953 474.768 289.046 472.182 289.138C468.367 289.275 464.424 289.414 460.642 289.43C457.392 292.138 452.51 293.198 446.512 292.495L445.907 292.423C443.97 292.184 441.974 291.946 440.305 292.731L440.342 292.826H480.846C481.089 292.826 481.285 293.022 481.285 293.263V294.853C481.285 294.853 481.287 294.853 481.289 294.853L515.792 295.272L515.804 289.353ZM389.873 462.296L406.702 461.793C406.594 459.719 406.675 450.506 413.034 422.571C420.272 390.775 417.584 352.161 417.557 351.775C417.538 351.541 417.709 351.335 417.942 351.307L487.906 343.145L411.774 333.675C411.384 337.923 407.563 370.302 379.938 399.68L389.873 462.296ZM350.431 427.49C352.162 426.011 357.942 420.571 376.727 401.742C408.417 369.976 410.918 333.522 410.938 333.159C410.945 333.036 411.001 332.923 411.095 332.846C411.188 332.77 411.31 332.731 411.428 332.749L488.291 342.309C495.558 343.215 502.765 340.826 508.061 335.758C513.359 330.691 516.076 323.587 515.515 316.27L513.968 296.129L481.283 295.733V296.772C481.283 297.015 481.086 297.212 480.846 297.212H396.053L334.555 417.046L350.431 427.49Z" stroke="black" stroke-width="2" mask="url(#path-70-outside-1_81_4690)"/>
</g>
<mask id="mask5_81_4690" style="mask-type:luminance" maskUnits="userSpaceOnUse" x="356" y="489" width="2" height="1">
<path d="M357.538 489.111H356.947V489.616H357.538V489.111Z" fill="white"/>
</mask>
<g mask="url(#mask5_81_4690)">
<path d="M357.383 489.562C357.383 489.562 357.392 489.562 357.409 489.562C357.406 489.591 357.404 489.619 357.402 489.649C357.395 489.619 357.39 489.591 357.383 489.562Z" fill="black"/>
</g>
<ellipse cx="7.59746" cy="8.86534" rx="7.59746" ry="8.86534" transform="matrix(0.738997 -0.673708 0.67226 0.740316 371.948 262.701)" fill="#D9D9D9"/>
<ellipse cx="458.815" cy="201.267" rx="1.68682" ry="1.69014" fill="#1A1919"/>
<path d="M457.971 217.324C457.971 218.257 457.216 219.014 456.284 219.014C455.353 219.014 454.598 218.257 454.598 217.324C454.598 216.39 455.353 215.634 456.284 215.634C457.216 215.634 457.971 216.39 457.971 217.324Z" fill="#1A1919"/>
<ellipse cx="457.971" cy="234.225" rx="1.68682" ry="1.69014" fill="#1A1919"/>
<ellipse cx="460.501" cy="252.817" rx="1.68682" ry="1.69014" fill="#1A1919"/>
<ellipse cx="462.188" cy="272.254" rx="1.68682" ry="1.69014" fill="#1A1919"/>
<rect x="0.582018" y="0.40113" width="3.21732" height="4.09393" transform="matrix(0.983429 -0.181295 0.180607 0.983555 461.282 284.962)" fill="#D9612D" stroke="black"/>
<rect x="0.582018" y="0.40113" width="3.21732" height="4.09393" transform="matrix(0.983429 -0.181295 0.180607 0.983555 459.595 279.046)" fill="#D9612D" stroke="black"/>
<ellipse cx="463.032" cy="283.662" rx="3.37364" ry="2.95775" fill="#272626"/>
<ellipse cx="463.032" cy="282.817" rx="3.37364" ry="2.95775" fill="#D9D9D9"/>
<line x1="463.032" y1="282.739" x2="464.719" y2="282.739" stroke="black"/>
<line y1="-0.5" x2="2.53521" y2="-0.5" transform="matrix(0.00884115 0.999961 -0.999961 0.00887601 462.188 280.704)" stroke="black"/>
</svg>
