<svg width="1440" height="607" viewBox="0 0 1440 607" fill="none" xmlns="http://www.w3.org/2000/svg">
<g clip-path="url(#clip0_2711_27418)">
<rect width="1440" height="612" fill="white"/>
<rect width="1440" height="720" fill="#E9F4FE"/>
<rect width="1440" height="720" fill="#FEFFFF"/>
<g opacity="0.35" clip-path="url(#clip1_2711_27418)">
<g opacity="0.15" clip-path="url(#clip2_2711_27418)">
<path d="M958.228 498.687C956.074 496.473 941.215 516.46 916.512 518.151C892.331 519.781 884.548 502.038 859.998 505.697C855.045 506.435 845.785 511.571 826.619 520.519C807.853 529.282 795.64 539.245 793.241 540.905C777.797 551.668 751.986 566.273 706.486 583.462C772.475 577.312 838.494 571.132 904.483 564.982C950.137 514.922 960.012 500.532 958.228 498.687Z" fill="#1467E1"/>
<path d="M894.424 580.884C893.039 567.077 846.463 556.838 808.223 558.652C778.259 560.066 771.614 568.031 744.265 572.551C687.136 581.96 667.97 555.147 613.58 553.086C552.175 550.78 539.008 583.528 482.895 591.984C442.502 598.073 381.158 591.4 296.588 525.289C239.121 551.241 181.654 577.163 124.188 603.115C223.37 617.937 322.553 632.758 421.705 647.579C566.08 669.995 676.615 655.912 749.833 639.246C758.386 637.309 896.885 605.268 894.424 580.884Z" fill="#3A95EE"/>
<path d="M819.146 560.037C814.131 561.021 807.855 559.084 804.687 554.164C801.856 549.767 802.102 543.925 804.225 540.173C805.979 537.098 808.101 536.883 808.747 533.839C809.455 530.456 807.117 529.103 807.855 525.721C808.347 523.415 810.224 520.555 813.27 519.848C816.408 519.11 819.822 520.893 821.084 523.353C822.683 526.459 819.792 528.704 820.961 532.055C822.53 536.483 828.898 535.253 830.897 539.281C833.882 545.216 828.867 558.131 819.146 560.037Z" fill="#4A76E9"/>
<path d="M817.177 588.172C816.654 588.172 816.254 587.772 816.254 587.249V548.782C816.254 548.259 816.654 547.859 817.177 547.859C817.7 547.859 818.1 548.259 818.1 548.782V587.249C818.1 587.772 817.669 588.172 817.177 588.172Z" fill="#1D93B8"/>
<path d="M786.566 570.707C780.105 571.045 774.968 565.695 773.122 561.021C769.03 550.72 777.921 536.391 785.828 536.391C793.703 536.391 802.409 550.689 798.533 561.021C796.933 565.203 792.657 570.369 786.566 570.707Z" fill="#FFFEFF"/>
<path d="M785.458 605.575C784.935 605.575 784.535 605.176 784.535 604.653V555.485C784.535 554.962 784.935 554.562 785.458 554.562C785.981 554.562 786.381 554.962 786.381 555.485V604.653C786.381 605.145 785.95 605.575 785.458 605.575Z" fill="#1D93B8"/>
<path d="M587.738 581.185C581.554 581.493 576.694 576.389 574.91 571.93C571.002 562.09 579.493 548.438 587.031 548.438C594.537 548.438 602.843 562.059 599.151 571.93C597.613 575.958 593.522 580.878 587.738 581.185Z" fill="#D0F7F7"/>
<path d="M586.724 608.366C586.201 608.366 585.801 607.966 585.801 607.444V574.204C585.801 573.681 586.201 573.281 586.724 573.281C587.247 573.281 587.647 573.681 587.647 574.204V607.444C587.647 607.966 587.247 608.366 586.724 608.366Z" fill="#1D93B8"/>
<path d="M619.702 561.324C613.765 561.632 609.089 556.712 607.397 552.438C603.643 542.998 611.796 529.898 619.025 529.898C626.224 529.898 634.192 542.967 630.654 552.438C629.177 556.281 625.27 561.017 619.702 561.324Z" fill="#4A76E9"/>
<path d="M619.241 598.715C618.718 598.715 618.318 598.315 618.318 597.793V539.461C618.318 538.939 618.718 538.539 619.241 538.539C619.764 538.539 620.164 538.939 620.164 539.461V597.793C620.164 598.315 619.733 598.715 619.241 598.715Z" fill="#1D93B8"/>
<path d="M757.002 597.703C752.387 597.949 748.757 594.137 747.434 590.785C744.512 583.436 750.849 573.258 756.479 573.258C762.078 573.258 768.292 583.436 765.523 590.785C764.385 593.798 761.34 597.457 757.002 597.703Z" fill="#FFFEFF"/>
<path d="M756.202 622.798C755.679 622.798 755.279 622.399 755.279 621.876V586.883C755.279 586.361 755.679 585.961 756.202 585.961C756.725 585.961 757.125 586.361 757.125 586.883V621.876C757.125 622.368 756.725 622.798 756.202 622.798Z" fill="#1D93B8"/>
<path d="M1476.97 219.766H1410V539.004H1476.97V219.766Z" fill="#3A95EE"/>
<path d="M1476.97 241.688H1420.79V247.807H1476.97V241.688Z" fill="#157DB7"/>
<path d="M1476.97 255.586H1420.79V261.705H1476.97V255.586Z" fill="#157DB7"/>
<path d="M1476.97 269.484H1420.79V275.603H1476.97V269.484Z" fill="#157DB7"/>
<path d="M1476.97 283.383H1420.79V289.502H1476.97V283.383Z" fill="#157DB7"/>
<path d="M1476.97 297.281H1420.79V303.4H1476.97V297.281Z" fill="#157DB7"/>
<path d="M1476.97 311.18H1420.79V317.299H1476.97V311.18Z" fill="#157DB7"/>
<path d="M1476.97 325.078H1420.79V331.197H1476.97V325.078Z" fill="#157DB7"/>
<path d="M1476.97 338.977H1420.79V345.096H1476.97V338.977Z" fill="#157DB7"/>
<path d="M1476.97 352.883H1420.79V359.002H1476.97V352.883Z" fill="#157DB7"/>
<path d="M1476.97 366.781H1420.79V372.9H1476.97V366.781Z" fill="#157DB7"/>
<path d="M1476.97 380.68H1420.79V386.799H1476.97V380.68Z" fill="#157DB7"/>
<path d="M1476.97 394.578H1420.79V400.697H1476.97V394.578Z" fill="#157DB7"/>
<path d="M1476.97 408.477H1420.79V414.596H1476.97V408.477Z" fill="#157DB7"/>
<path d="M1476.97 422.375H1420.79V428.494H1476.97V422.375Z" fill="#157DB7"/>
<path d="M1476.97 436.273H1420.79V442.393H1476.97V436.273Z" fill="#157DB7"/>
<path d="M1476.97 450.172H1420.79V456.291H1476.97V450.172Z" fill="#157DB7"/>
<path d="M1476.97 464.07H1420.79V470.189H1476.97V464.07Z" fill="#157DB7"/>
<path d="M1378.99 137.32H1325.86V504.497H1378.99V137.32Z" fill="#FFFEFF"/>
<path d="M1410.03 137.32H1378.99V511.354H1410.03V137.32Z" fill="#1266E3"/>
<path d="M1338.38 150.516H1334.66V169.365H1338.38V150.516Z" fill="#34B0DA"/>
<path d="M1347.67 150.516H1343.95V169.365H1347.67V150.516Z" fill="#34B0DA"/>
<path d="M1356.93 150.516H1353.21V169.365H1356.93V150.516Z" fill="#34B0DA"/>
<path d="M1366.19 150.516H1362.47V169.365H1366.19V150.516Z" fill="#34B0DA"/>
<path d="M1338.38 182.953H1334.66V201.802H1338.38V182.953Z" fill="#34B0DA"/>
<path d="M1347.67 182.953H1343.95V201.802H1347.67V182.953Z" fill="#34B0DA"/>
<path d="M1356.93 182.953H1353.21V201.802H1356.93V182.953Z" fill="#34B0DA"/>
<path d="M1366.19 182.953H1362.47V201.802H1366.19V182.953Z" fill="#34B0DA"/>
<path d="M1338.38 215.359H1334.66V234.209H1338.38V215.359Z" fill="#34B0DA"/>
<path d="M1347.67 215.359H1343.95V234.209H1347.67V215.359Z" fill="#34B0DA"/>
<path d="M1356.93 215.359H1353.21V234.209H1356.93V215.359Z" fill="#34B0DA"/>
<path d="M1366.19 215.359H1362.47V234.209H1366.19V215.359Z" fill="#34B0DA"/>
<path d="M1338.38 247.805H1334.66V266.654H1338.38V247.805Z" fill="#34B0DA"/>
<path d="M1347.67 247.805H1343.95V266.654H1347.67V247.805Z" fill="#34B0DA"/>
<path d="M1356.93 247.805H1353.21V266.654H1356.93V247.805Z" fill="#34B0DA"/>
<path d="M1366.19 247.805H1362.47V266.654H1366.19V247.805Z" fill="#34B0DA"/>
<path d="M1338.38 280.242H1334.66V299.091H1338.38V280.242Z" fill="#34B0DA"/>
<path d="M1347.67 280.242H1343.95V299.091H1347.67V280.242Z" fill="#34B0DA"/>
<path d="M1356.93 280.242H1353.21V299.091H1356.93V280.242Z" fill="#34B0DA"/>
<path d="M1366.19 280.242H1362.47V299.091H1366.19V280.242Z" fill="#34B0DA"/>
<path d="M1338.38 312.656H1334.66V331.506H1338.38V312.656Z" fill="#34B0DA"/>
<path d="M1347.67 312.656H1343.95V331.506H1347.67V312.656Z" fill="#34B0DA"/>
<path d="M1356.93 312.656H1353.21V331.506H1356.93V312.656Z" fill="#34B0DA"/>
<path d="M1366.19 312.656H1362.47V331.506H1366.19V312.656Z" fill="#34B0DA"/>
<path d="M1338.38 345.094H1334.66V363.943H1338.38V345.094Z" fill="#34B0DA"/>
<path d="M1347.67 345.094H1343.95V363.943H1347.67V345.094Z" fill="#34B0DA"/>
<path d="M1356.93 345.094H1353.21V363.943H1356.93V345.094Z" fill="#34B0DA"/>
<path d="M1366.19 345.094H1362.47V363.943H1366.19V345.094Z" fill="#34B0DA"/>
<path d="M1338.38 377.531H1334.66V396.381H1338.38V377.531Z" fill="#34B0DA"/>
<path d="M1347.67 377.531H1343.95V396.381H1347.67V377.531Z" fill="#34B0DA"/>
<path d="M1356.93 377.531H1353.21V396.381H1356.93V377.531Z" fill="#34B0DA"/>
<path d="M1366.19 377.531H1362.47V396.381H1366.19V377.531Z" fill="#34B0DA"/>
<path d="M1338.38 409.977H1334.66V428.826H1338.38V409.977Z" fill="#34B0DA"/>
<path d="M1347.67 409.977H1343.95V428.826H1347.67V409.977Z" fill="#34B0DA"/>
<path d="M1356.93 409.977H1353.21V428.826H1356.93V409.977Z" fill="#34B0DA"/>
<path d="M1366.19 409.977H1362.47V428.826H1366.19V409.977Z" fill="#34B0DA"/>
<path d="M1338.38 442.383H1334.66V461.232H1338.38V442.383Z" fill="#34B0DA"/>
<path d="M1347.67 442.383H1343.95V461.232H1347.67V442.383Z" fill="#34B0DA"/>
<path d="M1356.93 442.383H1353.21V461.232H1356.93V442.383Z" fill="#34B0DA"/>
<path d="M1366.19 442.383H1362.47V461.232H1366.19V442.383Z" fill="#34B0DA"/>
<path d="M999.697 324.344H950.383V491.896H999.697V324.344Z" fill="#FFFEFF"/>
<path d="M1015.48 324.344H999.697V486.976H1015.48V324.344Z" fill="#1266E3"/>
<path d="M961.828 333.047H959.951V486.947H961.828V333.047Z" fill="#34B0DA"/>
<path d="M975.732 333.047H973.855V486.947H975.732V333.047Z" fill="#34B0DA"/>
<path d="M989.638 333.047H987.762V486.947H989.638V333.047Z" fill="#34B0DA"/>
<path d="M236.723 230.281H152.307V592.261H236.723V230.281Z" fill="#002A9A"/>
<path d="M313.725 622.149H236.723V230.281L313.725 316.01V622.149Z" fill="#FEFFFF"/>
<path d="M261.272 321.148H248.443V328.897H261.272V321.148Z" fill="#157DB7"/>
<path d="M282.653 321.148H269.824V328.897H282.653V321.148Z" fill="#157DB7"/>
<path d="M304.065 321.148H291.236V328.897H304.065V321.148Z" fill="#157DB7"/>
<path d="M261.272 339.656H248.443V347.405H261.272V339.656Z" fill="#157DB7"/>
<path d="M282.653 339.656H269.824V347.405H282.653V339.656Z" fill="#157DB7"/>
<path d="M304.065 339.656H291.236V347.405H304.065V339.656Z" fill="#157DB7"/>
<path d="M261.272 358.195H248.443V365.944H261.272V358.195Z" fill="#157DB7"/>
<path d="M282.653 358.195H269.824V365.944H282.653V358.195Z" fill="#157DB7"/>
<path d="M304.065 358.195H291.236V365.944H304.065V358.195Z" fill="#157DB7"/>
<path d="M261.272 376.742H248.443V384.491H261.272V376.742Z" fill="#157DB7"/>
<path d="M282.653 376.742H269.824V384.491H282.653V376.742Z" fill="#157DB7"/>
<path d="M304.065 376.742H291.236V384.491H304.065V376.742Z" fill="#157DB7"/>
<path d="M261.272 395.25H248.443V402.999H261.272V395.25Z" fill="#157DB7"/>
<path d="M282.653 395.25H269.824V402.999H282.653V395.25Z" fill="#157DB7"/>
<path d="M304.065 395.25H291.236V402.999H304.065V395.25Z" fill="#157DB7"/>
<path d="M261.272 413.789H248.443V421.538H261.272V413.789Z" fill="#157DB7"/>
<path d="M282.653 413.789H269.824V421.538H282.653V413.789Z" fill="#157DB7"/>
<path d="M304.065 413.789H291.236V421.538H304.065V413.789Z" fill="#157DB7"/>
<path d="M261.272 432.336H248.443V440.085H261.272V432.336Z" fill="#157DB7"/>
<path d="M282.653 432.336H269.824V440.085H282.653V432.336Z" fill="#157DB7"/>
<path d="M304.065 432.336H291.236V440.085H304.065V432.336Z" fill="#157DB7"/>
<path d="M261.272 450.844H248.443V458.593H261.272V450.844Z" fill="#157DB7"/>
<path d="M282.653 450.844H269.824V458.593H282.653V450.844Z" fill="#157DB7"/>
<path d="M304.065 450.844H291.236V458.593H304.065V450.844Z" fill="#157DB7"/>
<path d="M261.272 469.391H248.443V477.139H261.272V469.391Z" fill="#157DB7"/>
<path d="M282.653 469.391H269.824V477.139H282.653V469.391Z" fill="#157DB7"/>
<path d="M304.065 469.391H291.236V477.139H304.065V469.391Z" fill="#157DB7"/>
<path d="M261.272 487.93H248.443V495.679H261.272V487.93Z" fill="#157DB7"/>
<path d="M282.653 487.93H269.824V495.679H282.653V487.93Z" fill="#157DB7"/>
<path d="M304.065 487.93H291.236V495.679H304.065V487.93Z" fill="#157DB7"/>
<path d="M261.272 506.469H248.443V514.218H261.272V506.469Z" fill="#157DB7"/>
<path d="M282.653 506.469H269.824V514.218H282.653V506.469Z" fill="#157DB7"/>
<path d="M304.065 506.469H291.236V514.218H304.065V506.469Z" fill="#157DB7"/>
<path d="M261.272 524.984H248.443V532.733H261.272V524.984Z" fill="#157DB7"/>
<path d="M282.653 524.984H269.824V532.733H282.653V524.984Z" fill="#157DB7"/>
<path d="M304.065 524.984H291.236V532.733H304.065V524.984Z" fill="#157DB7"/>
<path d="M261.272 543.523H248.443V551.272H261.272V543.523Z" fill="#157DB7"/>
<path d="M282.653 543.523H269.824V551.272H282.653V543.523Z" fill="#157DB7"/>
<path d="M304.065 543.523H291.236V551.272H304.065V543.523Z" fill="#157DB7"/>
<path d="M261.272 566.68H248.443V574.429H261.272V566.68Z" fill="#157DB7"/>
<path d="M282.653 566.68H269.824V574.429H282.653V566.68Z" fill="#157DB7"/>
<path d="M304.065 566.68H291.236V574.429H304.065V566.68Z" fill="#157DB7"/>
<path d="M123.971 191.596V115.953H40.232V149.562H15.5286V191.596H-15.2969V541.83H130.463V191.596H123.971Z" fill="#1266E3"/>
<path d="M148.674 191.596V149.562H123.971V115.953H89.2999V149.562H64.5965V191.596H33.7402V545.397H179.5V191.596H148.674Z" fill="#34B0DA"/>
<path d="M72.5031 492.906H62.5664V218.992H72.5031V492.906ZM64.1046 491.369H70.9649V220.53H64.1046V491.369Z" fill="white"/>
<path d="M97.0227 492.906H87.0859V218.992H97.0227V492.906ZM88.6241 491.369H95.4845V220.53H88.6241V491.369Z" fill="white"/>
<path d="M125.048 492.906H115.111V218.992H125.048V492.906ZM116.65 491.369H123.51V220.53H116.65V491.369Z" fill="white"/>
<path d="M153.073 492.906H143.137V218.992H153.073V492.906ZM144.675 491.369H151.535V220.53H144.675V491.369Z" fill="white"/>
<path d="M702.549 661.476C716.393 650.652 736.174 635.862 760.939 619.78C760.939 619.78 797.978 595.734 834.957 577.07C923.526 532.36 1013.88 572.057 1158.56 530.853C1245.41 506.131 1293.37 472.522 1347.64 491.956C1358.84 495.953 1382.65 510.713 1417.16 511.42C1442.36 511.912 1463.16 505.239 1476.97 499.397C1476.97 538.633 1476.97 577.838 1476.97 617.074C1289.22 654.711 1074.08 678.173 837.233 669.686C791.18 668.026 746.264 665.228 702.549 661.476Z" fill="#5BBDFE"/>
<path d="M390.264 569.692C405.031 566.863 425.581 564.28 450.07 565.51C466.128 566.34 490.616 567.785 519.596 579.408C533.101 584.82 552.759 594.537 573.125 612.064C551.406 618.245 525.995 623.903 497.354 627.347C453.946 632.574 415.799 631.313 385.373 628.023C387.004 608.59 388.634 589.125 390.264 569.692Z" fill="#1467E1"/>
<path d="M407.492 443.773H350.148V636.141H407.492V443.773Z" fill="#3A95EE"/>
<path d="M313.725 599.272H350.149V443.773L313.725 444.235V599.272Z" fill="#1469DE"/>
<path d="M365.101 476.305H362.363V484.361H365.101V476.305Z" fill="#FEFFFF"/>
<path d="M375.623 476.305H372.885V484.361H375.623V476.305Z" fill="#FEFFFF"/>
<path d="M386.113 476.305H383.375V484.361H386.113V476.305Z" fill="#FEFFFF"/>
<path d="M396.634 476.305H393.896V484.361H396.634V476.305Z" fill="#FEFFFF"/>
<path d="M365.101 493.805H362.363V501.861H365.101V493.805Z" fill="#FEFFFF"/>
<path d="M375.623 493.805H372.885V501.861H375.623V493.805Z" fill="#FEFFFF"/>
<path d="M386.113 493.805H383.375V501.861H386.113V493.805Z" fill="#FEFFFF"/>
<path d="M396.634 493.805H393.896V501.861H396.634V493.805Z" fill="#FEFFFF"/>
<path d="M365.101 511.328H362.363V519.384H365.101V511.328Z" fill="#FEFFFF"/>
<path d="M375.623 511.328H372.885V519.384H375.623V511.328Z" fill="#FEFFFF"/>
<path d="M386.113 511.328H383.375V519.384H386.113V511.328Z" fill="#FEFFFF"/>
<path d="M396.634 511.328H393.896V519.384H396.634V511.328Z" fill="#FEFFFF"/>
<path d="M365.101 528.828H362.363V536.884H365.101V528.828Z" fill="#FEFFFF"/>
<path d="M375.623 528.828H372.885V536.884H375.623V528.828Z" fill="#FEFFFF"/>
<path d="M386.113 528.828H383.375V536.884H386.113V528.828Z" fill="#FEFFFF"/>
<path d="M396.634 528.828H393.896V536.884H396.634V528.828Z" fill="#FEFFFF"/>
<path d="M365.101 546.351H362.363V554.408H365.101V546.351Z" fill="#FEFFFF"/>
<path d="M375.623 546.351H372.885V554.408H375.623V546.351Z" fill="#FEFFFF"/>
<path d="M386.113 546.351H383.375V554.408H386.113V546.351Z" fill="#FEFFFF"/>
<path d="M396.634 546.351H393.896V554.408H396.634V546.351Z" fill="#FEFFFF"/>
<path d="M365.101 563.852H362.363V571.908H365.101V563.852Z" fill="#FEFFFF"/>
<path d="M375.623 563.852H372.885V571.908H375.623V563.852Z" fill="#FEFFFF"/>
<path d="M386.113 563.852H383.375V571.908H386.113V563.852Z" fill="#FEFFFF"/>
<path d="M396.634 563.852H393.896V571.908H396.634V563.852Z" fill="#FEFFFF"/>
<path d="M365.101 581.375H362.363V589.431H365.101V581.375Z" fill="#FEFFFF"/>
<path d="M375.623 581.375H372.885V589.431H375.623V581.375Z" fill="#FEFFFF"/>
<path d="M386.113 581.375H383.375V589.431H386.113V581.375Z" fill="#FEFFFF"/>
<path d="M396.634 581.375H393.896V589.431H396.634V581.375Z" fill="#FEFFFF"/>
<path d="M-4.99017 476.087C13.099 470.614 19.7133 472.889 22.3282 476.087C27.4965 482.391 19.1288 494.475 24.4201 499.211C29.7423 503.946 40.6635 493.891 49.6466 499.211C56.23 503.116 53.8612 510.588 60.1678 513.909C68.2587 518.183 76.6572 508.097 85.3942 509.696C92.5622 511.018 100.745 520.428 106.406 553.821C64.3825 556.619 22.3282 559.418 -19.6953 562.216C-14.8039 533.496 -9.88163 504.776 -4.99017 476.087Z" fill="#87D5FB"/>
<path d="M-303 550.344C-231.351 553.788 -156.502 559.169 -78.7926 566.979C17.0985 576.604 108.037 588.965 193.714 603.109C28.2043 641.884 -137.306 680.659 -302.815 719.465C-302.877 687.424 -302.908 655.352 -302.969 623.312C-303 598.989 -303 574.666 -303 550.344Z" fill="#1669E1"/>
<path d="M-303 649.881C-292.479 638.965 -274.697 622.79 -249.225 609.507C-232.397 600.743 -211.816 593.486 -130.568 579.864C-77.9927 571.039 -81.5921 574.453 -56.3965 568.733C12.5762 553.082 17.3139 532.511 62.26 524.27C116.435 514.307 163.35 534.325 218.018 557.633C277.3 582.909 278.13 597.515 325.568 613.227C373.991 629.279 413.461 627.403 466.467 624.359C599.613 616.702 626.993 580.941 692.674 598.406C721.069 605.94 762.6 625.035 805.424 680.968C688.767 692.468 571.987 701.724 455.054 708.765C203.066 723.925 -49.5361 728.66 -302.785 723.033C-302.846 698.618 -302.908 674.265 -303 649.881Z" fill="#5EC0FF"/>
<path d="M1325.86 346.758H1295.74V504.501H1325.86V346.758Z" fill="#1266E3"/>
<path d="M1021.02 486.945H842.863V573.597H1021.02V486.945Z" fill="#AFE5FF"/>
<path d="M1020.99 491.281H973.518V573.628H1020.99V491.281Z" fill="#34B0DA"/>
<path d="M973.548 486.945H842.863V496.816H973.548V486.945Z" fill="#1469E8"/>
<path d="M1020.99 486.945H973.518V496.816H1020.99V486.945Z" fill="#4A76E9"/>
<path d="M1257.5 451.548C1266.88 444.014 1276.94 445.337 1280.63 451.486C1283.1 455.576 1282.36 461.111 1281.87 463.571C1282.48 463.202 1288.23 459.85 1294.26 463.571C1300.91 467.691 1301.68 476.608 1301.71 477.162C1305.71 466.83 1314.66 463.079 1320.32 466.584C1325.98 470.09 1326.5 479.714 1326.53 480.175C1332.69 473.81 1341.18 472.642 1347.61 477.162C1355.05 482.359 1356.16 492.598 1356.28 493.767C1357.73 486.048 1363.7 480.852 1369.91 481.682C1376.53 482.543 1381.57 489.923 1381.08 498.287C1386.71 498.809 1391.32 503.883 1392.25 510.371C1393.26 517.505 1389.57 524.793 1383.57 526.976C1390.12 526.238 1396.15 530.02 1398.46 536.047C1401.6 544.195 1397.75 556.126 1388.52 560.216C1346.78 564.244 1305 568.272 1263.25 572.3C1261.38 532.019 1259.44 491.768 1257.5 451.548Z" fill="#87D5FB"/>
<path d="M1256.79 306.656H1169.64V595.176H1256.79V306.656Z" fill="#34B0DA"/>
<path d="M1295.74 306.656H1256.79V575.312H1295.74V306.656Z" fill="#002A9A"/>
<path d="M1187.08 337.68H1184V345.09H1187.08V337.68Z" fill="#FEFFFF"/>
<path d="M1196.37 337.68H1193.29V345.09H1196.37V337.68Z" fill="#FEFFFF"/>
<path d="M1205.63 337.68H1202.55V345.09H1205.63V337.68Z" fill="#FEFFFF"/>
<path d="M1214.89 337.68H1211.81V345.09H1214.89V337.68Z" fill="#FEFFFF"/>
<path d="M1224.18 337.68H1221.11V345.09H1224.18V337.68Z" fill="#FEFFFF"/>
<path d="M1233.44 337.68H1230.37V345.09H1233.44V337.68Z" fill="#FEFFFF"/>
<path d="M1242.7 337.68H1239.62V345.09H1242.7V337.68Z" fill="#FEFFFF"/>
<path d="M1187.08 356.227H1184V363.637H1187.08V356.227Z" fill="#FEFFFF"/>
<path d="M1196.37 356.227H1193.29V363.637H1196.37V356.227Z" fill="#FEFFFF"/>
<path d="M1205.63 356.227H1202.55V363.637H1205.63V356.227Z" fill="#FEFFFF"/>
<path d="M1214.89 356.227H1211.81V363.637H1214.89V356.227Z" fill="#FEFFFF"/>
<path d="M1224.18 356.227H1221.11V363.637H1224.18V356.227Z" fill="#FEFFFF"/>
<path d="M1233.44 356.227H1230.37V363.637H1233.44V356.227Z" fill="#FEFFFF"/>
<path d="M1242.7 356.227H1239.62V363.637H1242.7V356.227Z" fill="#FEFFFF"/>
<path d="M1187.08 374.766H1184V382.176H1187.08V374.766Z" fill="#FEFFFF"/>
<path d="M1196.37 374.766H1193.29V382.176H1196.37V374.766Z" fill="#FEFFFF"/>
<path d="M1205.63 374.766H1202.55V382.176H1205.63V374.766Z" fill="#FEFFFF"/>
<path d="M1214.89 374.766H1211.81V382.176H1214.89V374.766Z" fill="#FEFFFF"/>
<path d="M1224.18 374.766H1221.11V382.176H1224.18V374.766Z" fill="#FEFFFF"/>
<path d="M1233.44 374.766H1230.37V382.176H1233.44V374.766Z" fill="#FEFFFF"/>
<path d="M1242.7 374.766H1239.62V382.176H1242.7V374.766Z" fill="#FEFFFF"/>
<path d="M1187.08 393.273H1184V400.684H1187.08V393.273Z" fill="#FEFFFF"/>
<path d="M1196.37 393.273H1193.29V400.684H1196.37V393.273Z" fill="#FEFFFF"/>
<path d="M1205.63 393.273H1202.55V400.684H1205.63V393.273Z" fill="#FEFFFF"/>
<path d="M1214.89 393.273H1211.81V400.684H1214.89V393.273Z" fill="#FEFFFF"/>
<path d="M1224.18 393.273H1221.11V400.684H1224.18V393.273Z" fill="#FEFFFF"/>
<path d="M1233.44 393.273H1230.37V400.684H1233.44V393.273Z" fill="#FEFFFF"/>
<path d="M1242.7 393.273H1239.62V400.684H1242.7V393.273Z" fill="#FEFFFF"/>
<path d="M1187.08 411.82H1184V419.231H1187.08V411.82Z" fill="#FEFFFF"/>
<path d="M1196.37 411.82H1193.29V419.231H1196.37V411.82Z" fill="#FEFFFF"/>
<path d="M1205.63 411.82H1202.55V419.231H1205.63V411.82Z" fill="#FEFFFF"/>
<path d="M1214.89 411.82H1211.81V419.231H1214.89V411.82Z" fill="#FEFFFF"/>
<path d="M1224.18 411.82H1221.11V419.231H1224.18V411.82Z" fill="#FEFFFF"/>
<path d="M1233.44 411.82H1230.37V419.231H1233.44V411.82Z" fill="#FEFFFF"/>
<path d="M1242.7 411.82H1239.62V419.231H1242.7V411.82Z" fill="#FEFFFF"/>
<path d="M1187.08 430.359H1184V437.77H1187.08V430.359Z" fill="#FEFFFF"/>
<path d="M1196.37 430.359H1193.29V437.77H1196.37V430.359Z" fill="#FEFFFF"/>
<path d="M1205.63 430.359H1202.55V437.77H1205.63V430.359Z" fill="#FEFFFF"/>
<path d="M1214.89 430.359H1211.81V437.77H1214.89V430.359Z" fill="#FEFFFF"/>
<path d="M1224.18 430.359H1221.11V437.77H1224.18V430.359Z" fill="#FEFFFF"/>
<path d="M1233.44 430.359H1230.37V437.77H1233.44V430.359Z" fill="#FEFFFF"/>
<path d="M1242.7 430.359H1239.62V437.77H1242.7V430.359Z" fill="#FEFFFF"/>
<path d="M1187.08 448.875H1184V456.286H1187.08V448.875Z" fill="#FEFFFF"/>
<path d="M1196.37 448.875H1193.29V456.286H1196.37V448.875Z" fill="#FEFFFF"/>
<path d="M1205.63 448.875H1202.55V456.286H1205.63V448.875Z" fill="#FEFFFF"/>
<path d="M1214.89 448.875H1211.81V456.286H1214.89V448.875Z" fill="#FEFFFF"/>
<path d="M1224.18 448.875H1221.11V456.286H1224.18V448.875Z" fill="#FEFFFF"/>
<path d="M1233.44 448.875H1230.37V456.286H1233.44V448.875Z" fill="#FEFFFF"/>
<path d="M1242.7 448.875H1239.62V456.286H1242.7V448.875Z" fill="#FEFFFF"/>
<path d="M1187.08 467.414H1184V474.825H1187.08V467.414Z" fill="#FEFFFF"/>
<path d="M1196.37 467.414H1193.29V474.825H1196.37V467.414Z" fill="#FEFFFF"/>
<path d="M1205.63 467.414H1202.55V474.825H1205.63V467.414Z" fill="#FEFFFF"/>
<path d="M1214.89 467.414H1211.81V474.825H1214.89V467.414Z" fill="#FEFFFF"/>
<path d="M1224.18 467.414H1221.11V474.825H1224.18V467.414Z" fill="#FEFFFF"/>
<path d="M1233.44 467.414H1230.37V474.825H1233.44V467.414Z" fill="#FEFFFF"/>
<path d="M1242.7 467.414H1239.62V474.825H1242.7V467.414Z" fill="#FEFFFF"/>
<path d="M1187.08 485.953H1184V493.364H1187.08V485.953Z" fill="#FEFFFF"/>
<path d="M1196.37 485.953H1193.29V493.364H1196.37V485.953Z" fill="#FEFFFF"/>
<path d="M1205.63 485.953H1202.55V493.364H1205.63V485.953Z" fill="#FEFFFF"/>
<path d="M1214.89 485.953H1211.81V493.364H1214.89V485.953Z" fill="#FEFFFF"/>
<path d="M1224.18 485.953H1221.11V493.364H1224.18V485.953Z" fill="#FEFFFF"/>
<path d="M1233.44 485.953H1230.37V493.364H1233.44V485.953Z" fill="#FEFFFF"/>
<path d="M1242.7 485.953H1239.62V493.364H1242.7V485.953Z" fill="#FEFFFF"/>
<path d="M1187.08 504.469H1184V511.879H1187.08V504.469Z" fill="#FEFFFF"/>
<path d="M1196.37 504.469H1193.29V511.879H1196.37V504.469Z" fill="#FEFFFF"/>
<path d="M1205.63 504.469H1202.55V511.879H1205.63V504.469Z" fill="#FEFFFF"/>
<path d="M1214.89 504.469H1211.81V511.879H1214.89V504.469Z" fill="#FEFFFF"/>
<path d="M1224.18 504.469H1221.11V511.879H1224.18V504.469Z" fill="#FEFFFF"/>
<path d="M1233.44 504.469H1230.37V511.879H1233.44V504.469Z" fill="#FEFFFF"/>
<path d="M1242.7 504.469H1239.62V511.879H1242.7V504.469Z" fill="#FEFFFF"/>
<path d="M1187.08 523.008H1184V530.418H1187.08V523.008Z" fill="#FEFFFF"/>
<path d="M1196.37 523.008H1193.29V530.418H1196.37V523.008Z" fill="#FEFFFF"/>
<path d="M1205.63 523.008H1202.55V530.418H1205.63V523.008Z" fill="#FEFFFF"/>
<path d="M1214.89 523.008H1211.81V530.418H1214.89V523.008Z" fill="#FEFFFF"/>
<path d="M1224.18 523.008H1221.11V530.418H1224.18V523.008Z" fill="#FEFFFF"/>
<path d="M1233.44 523.008H1230.37V530.418H1233.44V523.008Z" fill="#FEFFFF"/>
<path d="M1242.7 523.008H1239.62V530.418H1242.7V523.008Z" fill="#FEFFFF"/>
<path d="M1187.08 541.547H1184V548.957H1187.08V541.547Z" fill="#FEFFFF"/>
<path d="M1196.37 541.547H1193.29V548.957H1196.37V541.547Z" fill="#FEFFFF"/>
<path d="M1205.63 541.547H1202.55V548.957H1205.63V541.547Z" fill="#FEFFFF"/>
<path d="M1214.89 541.547H1211.81V548.957H1214.89V541.547Z" fill="#FEFFFF"/>
<path d="M1224.18 541.547H1221.11V548.957H1224.18V541.547Z" fill="#FEFFFF"/>
<path d="M1233.44 541.547H1230.37V548.957H1233.44V541.547Z" fill="#FEFFFF"/>
<path d="M1242.7 541.547H1239.62V548.957H1242.7V541.547Z" fill="#FEFFFF"/>
<path d="M1.16222 384.914H-68.918V575.436H1.16222V384.914Z" fill="#FEFFFF"/>
<path d="M913.806 506.439C911.283 506.531 909.714 513.665 906.853 526.579C904.761 536.05 904.453 541.923 904.084 550.195C903.53 562.525 904.669 565.6 906.853 567.568C909.099 569.567 912.883 570.828 915.898 569.659C922.635 567.045 922.758 553.331 922.85 545.336C923.004 527.041 918.143 506.254 913.806 506.439Z" fill="#4A76E9"/>
<path d="M914.39 589.125C913.867 589.125 913.467 588.725 913.467 588.202V536.297C913.467 535.775 913.867 535.375 914.39 535.375C914.913 535.375 915.313 535.775 915.313 536.297V588.202C915.313 588.725 914.913 589.125 914.39 589.125Z" fill="#1D93B8"/>
<path d="M875.782 567.045C874.398 566.031 870.614 562.618 873.752 539.648C874.921 531.13 877.505 512.158 880.858 512.25C882.642 512.312 884.088 521.075 886.949 538.633C890.333 559.543 890.179 564.524 886.949 567.045C883.965 569.382 878.858 569.259 875.782 567.045Z" fill="#146AE3"/>
<path d="M880.089 589.123C879.566 589.123 879.166 588.724 879.166 588.201V548.227C879.166 547.704 879.566 547.305 880.089 547.305C880.612 547.305 881.012 547.704 881.012 548.227V588.201C881.012 588.724 880.612 589.123 880.089 589.123Z" fill="#1D93B8"/>
<path d="M940.909 514.094C938.14 514.156 936.54 526.886 935.341 536.326C933.31 552.316 931.895 563.693 937.433 566.891C940.663 568.766 945.77 567.536 948.569 564.8C950.815 562.617 952.353 558.711 947.862 537.002C944.816 522.151 943.155 514.033 940.909 514.094Z" fill="#146AE3"/>
<path d="M942.663 589.123C942.14 589.123 941.74 588.723 941.74 588.2V546.719C941.74 546.197 942.14 545.797 942.663 545.797C943.186 545.797 943.586 546.197 943.586 546.719V588.2C943.586 588.723 943.186 589.123 942.663 589.123Z" fill="#1D93B8"/>
<path d="M1026.37 647.45C1024.8 609.167 1023.2 570.884 1021.63 532.602C1017.17 533.247 1013.82 534.631 1011.76 535.676C1008.07 537.552 1004 539.582 1002.19 544.01C1000.9 547.115 1001.24 550.098 1001.57 551.728C999.39 551.205 996.068 550.559 992.007 550.498C985.608 550.405 979.424 550.252 975.025 554.218C969.18 559.476 970.195 568.64 970.38 570.116C962.566 570.577 955.921 574.789 953.398 581.093C951.675 585.336 952.321 589.303 952.783 591.271C951.214 591.548 948.414 592.255 945.676 594.346C944.907 594.93 939.524 599.266 939.493 606.707C939.462 614.487 945.369 618.945 945.984 619.376C938.631 619.776 933.709 626.356 934.663 632.137C935.647 638.102 942.754 642.807 949.953 640.47C943.185 646.681 940.385 651.324 941.616 654.369C944.6 662.056 972.872 659.75 1026.37 647.45Z" fill="#4A76E9"/>
<path d="M1138.54 449.703H1021.11V642.655H1138.54V449.703Z" fill="#146AE3"/>
<path d="M1130.75 630.293H1169.64V449.703H1130.75V630.293Z" fill="#002A9A"/>
<path d="M1095.25 479.133H1084.88V496.414H1095.25V479.133Z" fill="#87D5FB"/>
<path d="M1114.45 479.133H1104.08V496.414H1114.45V479.133Z" fill="#87D5FB"/>
<path d="M1068.36 476.828H1039.17V487.437H1068.36V476.828Z" fill="#87D5FB"/>
<path d="M1095.25 513.664H1084.88V530.945H1095.25V513.664Z" fill="#87D5FB"/>
<path d="M1114.45 513.664H1104.08V530.945H1114.45V513.664Z" fill="#87D5FB"/>
<path d="M1068.36 511.391H1039.17V521.999H1068.36V511.391Z" fill="#87D5FB"/>
<path d="M1068.36 545.922H1039.17V556.53H1068.36V545.922Z" fill="#87D5FB"/>
<path d="M1095.25 548.227H1084.88V565.508H1095.25V548.227Z" fill="#87D5FB"/>
<path d="M1114.45 548.227H1104.08V565.508H1114.45V548.227Z" fill="#87D5FB"/>
<path d="M1068.36 580.453H1039.17V591.062H1068.36V580.453Z" fill="#87D5FB"/>
<path d="M1095.25 582.758H1084.88V600.039H1095.25V582.758Z" fill="#87D5FB"/>
<path d="M1114.45 582.758H1104.08V600.039H1114.45V582.758Z" fill="#87D5FB"/>
<path d="M1058.55 475.75H1056.4V598.378H1058.55V475.75Z" fill="#146AE3"/>
<path d="M1169.67 359.914H1092.51V449.702H1169.67V359.914Z" fill="#AAE9FA"/>
<path d="M1152.99 359.914H1092.51V449.671H1152.99V359.914Z" fill="#FFFEFF"/>
<path d="M1145.09 368.586H1098.26V370.738H1145.09V368.586Z" fill="#1894C1"/>
<path d="M1145.09 377.844H1098.26V379.996H1145.09V377.844Z" fill="#1894C1"/>
<path d="M1145.09 387.094H1098.26V389.246H1145.09V387.094Z" fill="#1894C1"/>
<path d="M1145.09 396.383H1098.26V398.535H1145.09V396.383Z" fill="#1894C1"/>
<path d="M1145.09 405.641H1098.26V407.793H1145.09V405.641Z" fill="#1894C1"/>
<path d="M1145.09 414.891H1098.26V417.043H1145.09V414.891Z" fill="#1894C1"/>
<path d="M1145.09 424.18H1098.26V426.332H1145.09V424.18Z" fill="#1894C1"/>
<path d="M1145.09 433.438H1098.26V435.59H1145.09V433.438Z" fill="#1894C1"/>
<path d="M1145.09 442.688H1098.26V444.84H1145.09V442.688Z" fill="#1894C1"/>
<path d="M991.73 614.243C1003.24 613.751 1014.74 613.136 1026.25 612.613C1108.05 608.77 1185.33 585.892 1203.05 580.911C1253.78 566.612 1336.72 552.068 1476.94 552.683C1476.94 629.064 1476.94 705.476 1476.94 781.857C1282.76 781.58 1088.57 781.273 894.392 780.996C852.892 767.343 825.389 733.335 824.866 697.604C824.435 666.148 844.986 638.32 867.382 625.251C885.563 614.673 897.161 618.24 991.73 614.243Z" fill="#3A95EE"/>
<path d="M350.486 683.581C342.026 676.57 329.844 667.13 314.339 657.167C294.958 644.714 272.592 630.354 240.628 621.037C218.571 614.579 187.622 605.109 153.013 615.471C130.986 622.082 135.631 626.387 118.25 630.753C74.6264 641.731 54.9068 612.181 23.6814 625.188C2.45429 634.044 8.45325 648.988 -16.6501 659.934C-41.3228 670.697 -56.0279 660.15 -77.8395 671.066C-95.0365 679.645 -104.543 695.511 -109.834 707.196C25.0658 706.274 159.966 705.351 294.865 704.429C313.385 697.479 331.936 690.53 350.486 683.581Z" fill="#1969E2"/>
<path d="M-303 723.249C-168.992 723.31 -34.9848 723.403 99.0229 723.464C97.7308 707.475 93.5161 686.227 78.5033 678.048C65.5825 671.037 57.0301 680.415 36.7874 678.97C2.14728 676.479 -3.45175 646.776 -43.8755 634.507C-65.9025 627.803 -66.4255 635.952 -99.4967 631.739C-125.615 628.388 -187.512 601.482 -190.343 600.221C-213.108 590.259 -248.579 582.879 -302.969 596.716C-303 638.904 -303 681.092 -303 723.249Z" fill="#3A95EE"/>
<path d="M-0.529843 662.89C-1.51429 661.383 -4.99062 656.063 -5.11367 648.468C-5.26749 639.213 -0.314492 634.139 -1.39123 626.237C-1.97574 621.932 -3.66776 621.655 -3.69852 617.811C-3.69852 612.553 -0.468319 611.446 0.331542 605.204C1.00835 599.731 -1.11435 597.64 -1.39123 590.783C-1.72963 582.173 1.00834 570.365 5.49988 568.551C9.06849 567.106 13.1293 572.21 14.6675 578.76C16.7287 587.523 13.1909 594.442 15.8058 603.39C17.0979 607.818 18.7899 609.017 18.9745 613.599C19.1283 618.057 17.5901 619.103 17.5286 623.223C17.4363 630.449 22.0509 632.386 22.9738 640.043C24.0505 649.145 18.9745 658.769 18.3899 659.876C13.3754 669.162 4.91537 671.253 -0.529843 662.89Z" fill="#4A76E9"/>
<path d="M7.86823 704.279C7.34524 704.279 6.94531 703.879 6.94531 703.357V597.149C6.94531 596.626 7.34524 596.226 7.86823 596.226C8.39122 596.226 8.79115 596.626 8.79115 597.149V703.357C8.79115 703.849 8.39122 704.279 7.86823 704.279Z" fill="#1D93B8"/>
<path d="M1264.91 596.779C1265.41 595.334 1265.99 592.843 1264.91 590.537C1263.07 586.54 1257.01 584.357 1250.3 586.355C1249.81 585.556 1244.61 577.131 1235.01 576.639C1230.03 576.393 1226.24 578.391 1224.58 579.406C1220.4 573.717 1213.42 570.765 1206.49 571.749C1196.4 573.225 1192.16 582.266 1191.88 582.881C1186.1 578.207 1180.62 576.177 1177.27 575.224C1172.28 573.84 1161.92 570.919 1155.7 576.608C1152.84 579.221 1151.89 582.758 1151.52 584.941C1146.1 582.358 1140.29 582.758 1137.61 585.648C1134.07 589.492 1135.03 598.84 1143.18 604.405C1183.79 601.884 1224.37 599.331 1264.91 596.779Z" fill="#87D5FB"/>
<path d="M1335.82 617.931C1333.61 617.778 1328.78 617.409 1324.01 614.149C1321.55 612.458 1318.66 610.521 1317.77 607.2C1316.01 600.835 1323.61 597.237 1321.95 591.21C1320.72 586.721 1315.83 586.352 1315 580.786C1314.87 580.018 1314.63 577.681 1315.7 575.221C1318.01 569.932 1323.52 570.977 1326.13 566.888C1329.58 561.507 1322.53 555.941 1325.43 548.131C1327.46 542.688 1333.42 538.537 1336.56 539.798C1339.58 540.997 1339.92 547.27 1340.04 549.514C1340.41 556.187 1337.76 558.124 1339.33 561.322C1341.02 564.797 1344.56 563.444 1349.05 567.564C1352.16 570.424 1355.73 575.836 1354.62 580.756C1353.51 585.675 1348.41 586.967 1349.05 589.796C1349.67 592.502 1354.47 591.733 1357.39 595.361C1360.44 599.144 1359.82 605.724 1357.39 609.967C1352.22 619.038 1338.59 618.116 1335.82 617.931Z" fill="#E7FFF7"/>
<path d="M1337.45 641.946C1336.93 641.946 1336.53 641.546 1336.53 641.023V587.735C1336.53 587.212 1336.93 586.812 1337.45 586.812C1337.98 586.812 1338.38 587.212 1338.38 587.735V641.023C1338.38 641.515 1337.95 641.946 1337.45 641.946Z" fill="#1D93B8"/>
<path d="M1432.48 595.762C1431.38 594.04 1427.38 587.951 1427.22 579.28C1427.04 568.702 1432.7 562.891 1431.5 553.851C1430.85 548.9 1428.88 548.592 1428.88 544.226C1428.88 538.199 1432.58 536.969 1433.47 529.805C1434.24 523.532 1431.81 521.164 1431.5 513.323C1431.1 503.483 1434.27 489.984 1439.37 487.893C1443.47 486.233 1448.11 492.075 1449.87 499.578C1452.23 509.602 1448.17 517.505 1451.19 527.744C1452.66 532.818 1454.6 534.202 1454.79 539.429C1454.97 544.503 1453.22 545.702 1453.16 550.437C1453.03 558.709 1458.36 560.923 1459.4 569.686C1460.66 580.11 1454.85 591.088 1454.14 592.349C1448.42 602.926 1438.73 605.294 1432.48 595.762Z" fill="#B1E4FF"/>
<path d="M1391.11 614.523C1385.23 615.876 1377.88 613.201 1374.19 606.406C1370.86 600.317 1371.17 592.23 1373.66 587.033C1375.69 582.759 1378.22 582.483 1378.96 578.27C1379.79 573.596 1377.05 571.69 1377.91 567.016C1378.62 563.111 1381.94 563.633 1384.25 558.898C1387.48 552.256 1382.86 546.506 1385.66 544.2C1388.06 542.232 1394.43 543.954 1396.8 547.92C1399.78 552.871 1393.44 556.407 1394.95 565.54C1395.88 571.136 1399.47 576.978 1403.63 583.743C1404.7 585.527 1404.67 585.281 1404.89 585.804C1408.37 594.014 1402.49 611.879 1391.11 614.523Z" fill="#4A76E9"/>
<path d="M1388.8 646.164C1388.28 646.164 1387.88 645.764 1387.88 645.241V598.133C1387.88 597.611 1388.28 597.211 1388.8 597.211C1389.32 597.211 1389.72 597.611 1389.72 598.133V645.241C1389.72 645.764 1389.32 646.164 1388.8 646.164Z" fill="#1D93B8"/>
</g>
</g>
</g>
<defs>
<clipPath id="clip0_2711_27418">
<rect width="1440" height="612" fill="white"/>
</clipPath>
<clipPath id="clip1_2711_27418">
<rect width="1440" height="720" fill="white"/>
</clipPath>
<clipPath id="clip2_2711_27418">
<rect width="1780" height="640" fill="white" transform="translate(-303 80)"/>
</clipPath>
</defs>
</svg>
