<svg width="154" height="14" viewBox="0 0 154 14" fill="none" xmlns="http://www.w3.org/2000/svg">
<path d="M2.42717 8.70444H5.60662V10.4219H0V1.28809H2.42717V8.70444Z" fill="black"/>
<path d="M10.3691 10.526C9.59318 10.526 8.89294 10.3742 8.26841 10.0706C7.65333 9.76703 7.16601 9.33333 6.80643 8.76951C6.45631 8.20569 6.28125 7.54646 6.28125 6.79182C6.28125 6.04584 6.46104 5.39095 6.82062 4.82713C7.1802 4.25464 7.67226 3.8166 8.29679 3.51301C8.92133 3.20941 9.62157 3.05762 10.3975 3.05762C11.1734 3.05762 11.8737 3.20941 12.4982 3.51301C13.1227 3.8166 13.6148 4.25464 13.9744 4.82713C14.334 5.39095 14.5138 6.04584 14.5138 6.79182C14.5138 7.53779 14.3292 8.19702 13.9602 8.76951C13.6006 9.33333 13.1038 9.76703 12.4698 10.0706C11.8453 10.3742 11.1451 10.526 10.3691 10.526ZM10.3691 8.60036C10.8328 8.60036 11.2255 8.44423 11.5472 8.13196C11.8784 7.8197 12.044 7.37298 12.044 6.79182C12.044 6.21065 11.8831 5.76394 11.5614 5.45167C11.2491 5.1394 10.8612 4.98327 10.3975 4.98327C9.92437 4.98327 9.53167 5.1394 9.2194 5.45167C8.90714 5.75526 8.751 6.20198 8.751 6.79182C8.751 7.37298 8.9024 7.8197 9.20521 8.13196C9.51748 8.44423 9.90545 8.60036 10.3691 8.60036Z" fill="black"/>
<path d="M18.8111 3.05762C19.3693 3.05762 19.8567 3.16171 20.273 3.36988C20.6989 3.57806 21.0253 3.8513 21.2524 4.18959V3.16171H23.6796V10.4089C23.6796 11.0768 23.5329 11.6797 23.2396 12.2175C22.9557 12.7639 22.5157 13.1976 21.9195 13.5186C21.3328 13.8395 20.5995 14 19.7195 14C18.5461 14 17.5951 13.7441 16.8665 13.2323C16.1379 12.7292 15.7215 12.044 15.6174 11.1766H18.0162C18.0919 11.4541 18.2717 11.671 18.5556 11.8271C18.8394 11.9919 19.1896 12.0743 19.6059 12.0743C20.1074 12.0743 20.5049 11.9399 20.7982 11.671C21.101 11.4108 21.2524 10.9901 21.2524 10.4089V9.38103C21.0159 9.71932 20.6894 9.99689 20.273 10.2137C19.8567 10.4219 19.3693 10.526 18.8111 10.526C18.1581 10.526 17.5667 10.3742 17.0368 10.0706C16.5069 9.75836 16.0858 9.32031 15.7735 8.7565C15.4707 8.18401 15.3193 7.52478 15.3193 6.7788C15.3193 6.03283 15.4707 5.37794 15.7735 4.81412C16.0858 4.25031 16.5069 3.8166 17.0368 3.51301C17.5667 3.20941 18.1581 3.05762 18.8111 3.05762ZM21.2524 6.79182C21.2524 6.23667 21.0821 5.79863 20.7414 5.47769C20.4102 5.15675 20.0033 4.99628 19.5208 4.99628C19.0382 4.99628 18.6265 5.15675 18.2859 5.47769C17.9547 5.78996 17.7891 6.22366 17.7891 6.7788C17.7891 7.33395 17.9547 7.77633 18.2859 8.10594C18.6265 8.42688 19.0382 8.58735 19.5208 8.58735C20.0033 8.58735 20.4102 8.42688 20.7414 8.10594C21.0821 7.785 21.2524 7.34696 21.2524 6.79182Z" fill="black"/>
<path d="M29.6636 2.40706C29.2378 2.40706 28.8877 2.2943 28.6133 2.06877C28.3483 1.83457 28.2158 1.54833 28.2158 1.21004C28.2158 0.863073 28.3483 0.576828 28.6133 0.351302C28.8877 0.117101 29.2378 0 29.6636 0C30.08 0 30.4206 0.117101 30.6856 0.351302C30.96 0.576828 31.0972 0.863073 31.0972 1.21004C31.0972 1.54833 30.96 1.83457 30.6856 2.06877C30.4206 2.2943 30.08 2.40706 29.6636 2.40706ZM30.8701 3.16171V10.4219H28.4429V3.16171H30.8701Z" fill="black"/>
<path d="M37.4558 3.08362C38.3832 3.08362 39.1213 3.36119 39.6701 3.91633C40.2284 4.4628 40.5075 5.21745 40.5075 6.18027V10.4219H38.0946V6.47953C38.0946 5.99378 37.9574 5.61645 37.6829 5.34756C37.4085 5.07866 37.0395 4.94421 36.5758 4.94421C36.1121 4.94421 35.7431 5.07866 35.4687 5.34756C35.1943 5.61645 35.0571 5.99378 35.0571 6.47953V10.4219H32.6299V3.16168H35.0571V4.12451C35.3031 3.80357 35.6343 3.55202 36.0506 3.36986C36.467 3.17903 36.9354 3.08362 37.4558 3.08362Z" fill="black"/>
<path d="M56.5715 3.16168L54.4282 10.4219H51.7456L50.4965 5.71187L49.2049 10.4219H46.5364L44.3789 3.16168H46.8061L47.9274 8.35313L49.2616 3.16168H51.8307L53.1792 8.32711L54.2863 3.16168H56.5715Z" fill="black"/>
<path d="M58.7173 2.40706C58.2915 2.40706 57.9414 2.2943 57.667 2.06877C57.402 1.83457 57.2695 1.54833 57.2695 1.21004C57.2695 0.863073 57.402 0.576828 57.667 0.351302C57.9414 0.117101 58.2915 0 58.7173 0C59.1337 0 59.4743 0.117101 59.7393 0.351302C60.0137 0.576828 60.1509 0.863073 60.1509 1.21004C60.1509 1.54833 60.0137 1.83457 59.7393 2.06877C59.4743 2.2943 59.1337 2.40706 58.7173 2.40706ZM59.9238 3.16171V10.4219H57.4966V3.16171H59.9238Z" fill="black"/>
<path d="M66.0969 8.53533V10.4219H64.862C63.982 10.4219 63.2959 10.2268 62.8039 9.83645C62.3118 9.43744 62.0658 8.79122 62.0658 7.89778V5.00931H61.1006V3.16173H62.0658V1.39221H64.4929V3.16173H66.0828V5.00931H64.4929V7.92381C64.4929 8.14066 64.5497 8.29679 64.6633 8.39221C64.7768 8.48762 64.9661 8.53533 65.231 8.53533H66.0969Z" fill="black"/>
<path d="M72.3177 3.08366C73.2262 3.08366 73.9548 3.36123 74.5036 3.91638C75.0525 4.46284 75.3269 5.21749 75.3269 6.18032V10.4219H72.9139V6.47957C72.9139 5.99382 72.7767 5.6165 72.5023 5.3476C72.2279 5.0787 71.8588 4.94426 71.3951 4.94426C70.9315 4.94426 70.5624 5.0787 70.288 5.3476C70.0136 5.6165 69.8764 5.99382 69.8764 6.47957V10.4219H67.4492V0.793701H69.8764V4.13756C70.1224 3.81662 70.4583 3.56074 70.8842 3.36991C71.31 3.17908 71.7878 3.08366 72.3177 3.08366Z" fill="black"/>
<path d="M84.4334 10.6107C86.7045 10.6107 88.086 9.52279 88.086 7.79716C88.086 6.61553 87.2982 5.80898 85.6714 5.48074L84.0754 5.15242C83.4714 5.02115 83.1544 4.84298 83.1544 4.51473C83.1544 4.18649 83.4509 3.98012 84.1771 3.98012C85.0193 4.00708 85.8236 4.30605 86.449 4.82418L87.7887 3.02358C86.7344 2.34736 85.4625 2.01695 84.1771 2.0857C82.0496 2.0857 80.6168 3.02358 80.6168 4.68352C80.6034 5.27278 80.8305 5.84541 81.2548 6.28822C81.6798 6.73104 82.2696 7.01179 82.9091 7.07504L84.4949 7.42207C85.2827 7.58146 85.5177 7.79716 85.5177 8.07856C85.5177 8.35989 85.2007 8.63189 84.4949 8.63189C83.4942 8.61389 82.5298 8.28298 81.7626 7.69401L80.3408 9.43844C81.5118 10.2592 82.9612 10.6744 84.4334 10.6107Z" fill="#F4333D"/>
<path d="M90.7348 4.85159C91.0431 4.85159 91.3444 4.76774 91.5999 4.61074C91.8561 4.45366 92.0556 4.23045 92.1724 3.96943C92.2898 3.70841 92.3206 3.4213 92.2591 3.14453C92.1984 2.86775 92.0493 2.61374 91.8309 2.41474C91.6125 2.21582 91.3341 2.08079 91.0321 2.0268C90.7301 1.97287 90.417 2.00244 90.1332 2.1118C89.8485 2.2211 89.6064 2.40528 89.4369 2.64092C89.2673 2.87664 89.1782 3.15313 89.1798 3.43547C89.1774 3.62297 89.2153 3.80903 89.2926 3.98259C89.3698 4.15621 89.485 4.31372 89.6301 4.44586C89.7751 4.57799 89.9478 4.68201 90.1371 4.75176C90.3271 4.82145 90.5306 4.85542 90.7348 4.85159Z" fill="black"/>
<path d="M89.0586 10.4221H92.4139L91.7081 5.32959C91.0741 5.47965 90.4086 5.47965 89.7746 5.32959L89.0586 10.4221Z" fill="black"/>
<path d="M93.9883 10.4213H96.7096V6.01345C96.7096 4.93497 97.2821 4.26909 98.3876 4.26909C99.4924 4.26909 99.9939 4.82242 99.9939 6.01345V10.4213H102.674V5.39448C102.674 3.19993 101.477 2.07454 99.4309 2.07454C98.8978 2.05329 98.3679 2.15767 97.8916 2.37763C97.4153 2.59766 97.0084 2.92598 96.7096 3.33127V2.80606C96.7175 2.72915 96.7064 2.65151 96.678 2.57887C96.6496 2.50615 96.6039 2.44008 96.544 2.38551C96.4848 2.33086 96.4123 2.28894 96.3334 2.26277C96.2538 2.23653 96.1694 2.2267 96.085 2.23393H94.0395L93.9883 10.4213Z" fill="#F4333D"/>
<path d="M111.443 2.23492C111.358 2.22769 111.274 2.23752 111.195 2.26376C111.115 2.28993 111.044 2.33185 110.984 2.3865C110.924 2.44108 110.878 2.50714 110.85 2.57986C110.821 2.65251 110.81 2.73014 110.818 2.80705V3.30408C110.521 2.90218 110.115 2.57776 109.639 2.36243C109.164 2.14717 108.636 2.04828 108.107 2.07553C107.005 2.17268 105.983 2.64246 105.239 3.39327C104.495 4.14409 104.083 5.12202 104.083 6.13639C104.083 7.15075 104.495 8.12868 105.239 8.8795C105.983 9.63031 107.005 10.1001 108.107 10.1972C108.619 10.2268 109.131 10.1454 109.602 9.95971C110.073 9.77394 110.49 9.48907 110.818 9.12808V9.67209C110.819 9.92899 110.762 10.1833 110.651 10.4192C110.54 10.6551 110.377 10.8675 110.173 11.0434C109.969 11.2193 109.727 11.3548 109.463 11.4415C109.199 11.5283 108.919 11.5645 108.639 11.5478C107.635 11.5656 106.661 11.23 105.918 10.6099L104.516 12.4856C105.71 13.3128 107.186 13.7249 108.68 13.6485C111.361 13.6485 113.54 12.42 113.54 9.33445V2.23492H111.443ZM108.823 8.03081C108.418 8.03081 108.023 7.92086 107.687 7.71471C107.35 7.50863 107.087 7.21566 106.933 6.87296C106.778 6.53019 106.737 6.15308 106.816 5.7892C106.896 5.4254 107.091 5.09116 107.377 4.82884C107.662 4.56652 108.027 4.3879 108.424 4.31548C108.821 4.24312 109.232 4.28027 109.606 4.42224C109.981 4.5642 110.3 4.80462 110.525 5.11306C110.749 5.42149 110.869 5.78414 110.869 6.15518C110.869 6.65264 110.654 7.12971 110.27 7.48145C109.887 7.83326 109.366 8.03081 108.823 8.03081Z" fill="#F4333D"/>
<path d="M121.03 2.07484C120.485 2.05272 119.941 2.15305 119.447 2.36716C118.953 2.58126 118.524 2.90264 118.196 3.30345V2.80636C118.204 2.72945 118.193 2.65189 118.165 2.57917C118.136 2.50645 118.091 2.44046 118.031 2.38581C117.972 2.33116 117.899 2.28924 117.82 2.26307C117.741 2.2369 117.656 2.22707 117.573 2.2343H115.526V13.4228H118.196V9.52134C118.552 9.88305 118.99 10.1681 119.48 10.3562C119.971 10.5443 120.5 10.6307 121.03 10.6092C121.616 10.5956 122.192 10.4729 122.724 10.2487C123.256 10.0246 123.732 9.70364 124.125 9.30542C124.517 8.90714 124.816 8.43989 125.006 7.9321C125.195 7.4243 125.27 6.88651 125.225 6.35139C125.273 5.81489 125.2 5.27508 125.013 4.76504C124.824 4.255 124.525 3.78545 124.133 3.38514C123.74 2.98483 123.262 2.66215 122.729 2.43691C122.195 2.2116 121.617 2.08836 121.03 2.07484ZM120.314 8.42406C119.857 8.4409 119.404 8.3319 119.016 8.11114C118.627 7.89039 118.319 7.56793 118.132 7.18526C117.944 6.80266 117.886 6.37734 117.965 5.96416C118.043 5.55099 118.255 5.16882 118.573 4.86689C118.89 4.56496 119.299 4.35707 119.747 4.26997C120.194 4.18294 120.66 4.2206 121.083 4.37832C121.508 4.53597 121.87 4.80639 122.125 5.15465C122.38 5.50299 122.515 5.91327 122.514 6.33267C122.53 6.60467 122.484 6.87675 122.38 7.13191C122.276 7.38707 122.116 7.61997 121.909 7.81608C121.703 8.01219 121.455 8.16731 121.18 8.2719C120.906 8.3765 120.611 8.42825 120.314 8.42406Z" fill="#F4333D"/>
<path d="M134.074 2.23451C133.99 2.22728 133.906 2.23704 133.826 2.26328C133.747 2.28944 133.674 2.33137 133.615 2.38602C133.555 2.44066 133.51 2.50666 133.481 2.57938C133.453 2.65209 133.442 2.72966 133.45 2.80657V3.30366C133.118 2.89605 132.68 2.57048 132.176 2.35602C131.672 2.14162 131.119 2.04505 130.564 2.07505C129.979 2.08878 129.404 2.21138 128.871 2.43553C128.34 2.65968 127.863 2.98063 127.471 3.37891C127.078 3.77712 126.779 4.24437 126.589 4.75224C126.4 5.26003 126.325 5.79783 126.37 6.33287C126.325 6.86792 126.4 7.40572 126.589 7.91351C126.779 8.42138 127.078 8.88855 127.471 9.28684C127.863 9.68512 128.34 10.0061 128.871 10.2302C129.404 10.4544 129.979 10.577 130.564 10.5907C131.119 10.6182 131.672 10.5205 132.175 10.3063C132.678 10.0921 133.115 9.76782 133.45 9.36209V10.4218H136.13V2.23451H134.074ZM131.281 8.42427C130.701 8.38871 130.158 8.15234 129.76 7.76316C129.363 7.37398 129.142 6.86105 129.142 6.32818C129.142 5.7953 129.363 5.28237 129.76 4.89319C130.158 4.50401 130.701 4.26772 131.281 4.23208C131.861 4.26772 132.404 4.50401 132.802 4.89319C133.199 5.28237 133.42 5.7953 133.42 6.32818C133.42 6.86105 133.199 7.37398 132.802 7.76316C132.404 8.15234 131.861 8.38871 131.281 8.42427Z" fill="#F4333D"/>
<path d="M141.554 10.61C143.825 10.61 145.206 9.52213 145.206 7.79649C145.206 6.61479 144.418 5.80825 142.792 5.48L141.206 5.15176C140.592 5.02042 140.275 4.84224 140.275 4.514C140.275 4.18576 140.571 3.97946 141.298 3.97946C142.139 4.00635 142.945 4.30531 143.569 4.82352L144.91 3.02285C143.855 2.34663 142.583 2.01622 141.298 2.08496C139.17 2.08496 137.738 3.02285 137.738 4.68285C137.724 5.27204 137.951 5.84468 138.376 6.28749C138.8 6.7303 139.39 7.01105 140.029 7.0743L141.615 7.42134C142.403 7.58073 142.638 7.79649 142.638 8.07782C142.638 8.35915 142.311 8.63116 141.615 8.63116C140.614 8.61316 139.651 8.28224 138.884 7.69327L137.543 9.49394C138.716 10.3081 140.166 10.7166 141.636 10.6475L141.554 10.61Z" fill="#F4333D"/>
<path d="M150.024 10.6106C152.296 10.6106 153.677 9.52261 153.677 7.79697C153.677 6.61527 152.889 5.80873 151.262 5.48048L149.666 5.15224C149.063 5.02097 148.745 4.84279 148.745 4.51455C148.745 4.18631 149.043 3.97994 149.769 3.97994C150.608 4.00581 151.41 4.30507 152.03 4.824L153.37 3.02333C152.321 2.34516 151.05 2.01446 149.769 2.08551C147.64 2.08551 146.208 3.02333 146.208 4.68333C146.194 5.27259 146.422 5.84523 146.846 6.28804C147.271 6.73078 147.86 7.01161 148.5 7.07486L150.086 7.42182C150.874 7.58128 151.109 7.79697 151.109 8.07838C151.109 8.35971 150.792 8.63164 150.086 8.63164C149.085 8.61371 148.121 8.2828 147.354 7.69382L146.014 9.49449C147.187 10.3086 148.636 10.7171 150.106 10.6481L150.024 10.6106Z" fill="#F4333D"/>
</svg>
