<svg width="92" height="32" viewBox="0 0 92 32" fill="none" xmlns="http://www.w3.org/2000/svg">
<g clip-path="url(#clip0_2727_36879)">
<path d="M89.0794 0H2.92063C1.30761 0 0 1.91025 0 4.26667V27.7333C0 30.0898 1.30761 32 2.92063 32H89.0794C90.6924 32 92 30.0898 92 27.7333V4.26667C92 1.91025 90.6924 0 89.0794 0Z" fill="#F4333D"/>
<path d="M10.4319 15.4667L9.03032 12.9227H8.63672V15.4667H6.99512V8.72754H9.75032C10.2815 8.72754 10.7327 8.82034 11.1039 9.00594C11.4815 9.19154 11.7631 9.44754 11.9487 9.77394C12.1343 10.0939 12.2271 10.4523 12.2271 10.8491C12.2271 11.2971 12.0991 11.6971 11.8431 12.0491C11.5935 12.4011 11.2223 12.6507 10.7295 12.7979L12.2847 15.4667H10.4319ZM8.63672 11.7611H9.65432C9.95512 11.7611 10.1791 11.6875 10.3263 11.5403C10.4799 11.3931 10.5567 11.1851 10.5567 10.9163C10.5567 10.6603 10.4799 10.4587 10.3263 10.3115C10.1791 10.1643 9.95512 10.0907 9.65432 10.0907H8.63672V11.7611Z" fill="white"/>
<path d="M18.3076 12.702C18.3076 12.8556 18.298 13.0156 18.2788 13.182H14.5636C14.5892 13.5148 14.6948 13.7708 14.8804 13.95C15.0724 14.1228 15.306 14.2092 15.5812 14.2092C15.9908 14.2092 16.2756 14.0364 16.4356 13.6908H18.1828C18.0932 14.0428 17.93 14.3596 17.6932 14.6412C17.4628 14.9228 17.1716 15.1436 16.8196 15.3036C16.4676 15.4636 16.074 15.5436 15.6388 15.5436C15.114 15.5436 14.6468 15.4316 14.2372 15.2076C13.8276 14.9836 13.5076 14.6636 13.2772 14.2476C13.0468 13.8316 12.9316 13.3452 12.9316 12.7884C12.9316 12.2316 13.0436 11.7452 13.2676 11.3292C13.498 10.9132 13.818 10.5932 14.2276 10.3692C14.6372 10.1452 15.1076 10.0332 15.6388 10.0332C16.1572 10.0332 16.618 10.142 17.0212 10.3596C17.4244 10.5772 17.738 10.8876 17.962 11.2908C18.1924 11.694 18.3076 12.1644 18.3076 12.702ZM16.6276 12.27C16.6276 11.9884 16.5316 11.7644 16.3396 11.598C16.1476 11.4316 15.9076 11.3484 15.6196 11.3484C15.3444 11.3484 15.1108 11.4284 14.9188 11.5884C14.7332 11.7484 14.618 11.9756 14.5732 12.27H16.6276Z" fill="white"/>
<path d="M22.1585 14.0746V15.4666H21.3233C20.7281 15.4666 20.2641 15.3226 19.9313 15.0346C19.5985 14.7402 19.4321 14.2634 19.4321 13.6042V11.473H18.7793V10.1098H19.4321V8.8042H21.0737V10.1098H22.1489V11.473H21.0737V13.6234C21.0737 13.7834 21.1121 13.8986 21.1889 13.969C21.2657 14.0394 21.3937 14.0746 21.5729 14.0746H22.1585Z" fill="white"/>
<path d="M24.7148 11.0026C24.9068 10.7082 25.1468 10.4778 25.4348 10.3114C25.7228 10.1386 26.0428 10.0522 26.3948 10.0522V11.7898H25.9436C25.534 11.7898 25.2268 11.8794 25.022 12.0586C24.8172 12.2314 24.7148 12.5386 24.7148 12.9802V15.4666H23.0732V10.1098H24.7148V11.0026Z" fill="white"/>
<path d="M28.0056 9.55286C27.7176 9.55286 27.4808 9.46966 27.2952 9.30326C27.116 9.13046 27.0264 8.91926 27.0264 8.66966C27.0264 8.41366 27.116 8.20246 27.2952 8.03606C27.4808 7.86326 27.7176 7.77686 28.0056 7.77686C28.2872 7.77686 28.5176 7.86326 28.6968 8.03606C28.8824 8.20246 28.9752 8.41366 28.9752 8.66966C28.9752 8.91926 28.8824 9.13046 28.6968 9.30326C28.5176 9.46966 28.2872 9.55286 28.0056 9.55286ZM28.8216 10.1097V15.4665H27.18V10.1097H28.8216Z" fill="white"/>
<path d="M35.0603 12.702C35.0603 12.8556 35.0507 13.0156 35.0315 13.182H31.3163C31.3419 13.5148 31.4475 13.7708 31.6331 13.95C31.8251 14.1228 32.0587 14.2092 32.3339 14.2092C32.7435 14.2092 33.0283 14.0364 33.1883 13.6908H34.9355C34.8459 14.0428 34.6827 14.3596 34.4459 14.6412C34.2155 14.9228 33.9243 15.1436 33.5723 15.3036C33.2203 15.4636 32.8267 15.5436 32.3915 15.5436C31.8667 15.5436 31.3995 15.4316 30.9899 15.2076C30.5803 14.9836 30.2603 14.6636 30.0299 14.2476C29.7995 13.8316 29.6843 13.3452 29.6843 12.7884C29.6843 12.2316 29.7963 11.7452 30.0203 11.3292C30.2507 10.9132 30.5707 10.5932 30.9803 10.3692C31.3899 10.1452 31.8603 10.0332 32.3915 10.0332C32.9099 10.0332 33.3707 10.142 33.7739 10.3596C34.1771 10.5772 34.4907 10.8876 34.7147 11.2908C34.9451 11.694 35.0603 12.1644 35.0603 12.702ZM33.3803 12.27C33.3803 11.9884 33.2843 11.7644 33.0923 11.598C32.9003 11.4316 32.6603 11.3484 32.3723 11.3484C32.0971 11.3484 31.8635 11.4284 31.6715 11.5884C31.4859 11.7484 31.3707 11.9756 31.3259 12.27H33.3803Z" fill="white"/>
<path d="M38.3364 13.9307L39.498 10.1099H41.2452L39.3444 15.4667H37.3188L35.418 10.1099H37.1748L38.3364 13.9307Z" fill="white"/>
<path d="M46.9854 12.702C46.9854 12.8556 46.9758 13.0156 46.9566 13.182H43.2414C43.267 13.5148 43.3726 13.7708 43.5582 13.95C43.7502 14.1228 43.9838 14.2092 44.259 14.2092C44.6686 14.2092 44.9534 14.0364 45.1134 13.6908H46.8606C46.771 14.0428 46.6078 14.3596 46.371 14.6412C46.1406 14.9228 45.8494 15.1436 45.4974 15.3036C45.1454 15.4636 44.7518 15.5436 44.3166 15.5436C43.7918 15.5436 43.3246 15.4316 42.915 15.2076C42.5054 14.9836 42.1854 14.6636 41.955 14.2476C41.7246 13.8316 41.6094 13.3452 41.6094 12.7884C41.6094 12.2316 41.7214 11.7452 41.9454 11.3292C42.1758 10.9132 42.4958 10.5932 42.9054 10.3692C43.315 10.1452 43.7854 10.0332 44.3166 10.0332C44.835 10.0332 45.2958 10.142 45.699 10.3596C46.1022 10.5772 46.4158 10.8876 46.6398 11.2908C46.8702 11.694 46.9854 12.1644 46.9854 12.702ZM45.3054 12.27C45.3054 11.9884 45.2094 11.7644 45.0174 11.598C44.8254 11.4316 44.5854 11.3484 44.2974 11.3484C44.0222 11.3484 43.7886 11.4284 43.5966 11.5884C43.411 11.7484 43.2958 11.9756 43.251 12.27H45.3054Z" fill="white"/>
<path d="M57.5178 8.72754V15.4667H55.8762V11.4251L54.369 15.4667H53.0441L51.5273 11.4155V15.4667H49.8857V8.72754H51.8249L53.7162 13.3931L55.5882 8.72754H57.5178Z" fill="white"/>
<path d="M64.1705 10.1099L60.8105 18.0107H59.0441L60.2729 15.2843L58.0938 10.1099H59.9273L61.1657 13.4603L62.3945 10.1099H64.1705Z" fill="white"/>
<path d="M65.5893 9.55286C65.3013 9.55286 65.0645 9.46966 64.8789 9.30326C64.6997 9.13046 64.6101 8.91926 64.6101 8.66966C64.6101 8.41366 64.6997 8.20246 64.8789 8.03606C65.0645 7.86326 65.3013 7.77686 65.5893 7.77686C65.8709 7.77686 66.1013 7.86326 66.2805 8.03606C66.4661 8.20246 66.5589 8.41366 66.5589 8.66966C66.5589 8.91926 66.4661 9.13046 66.2805 9.30326C66.1013 9.46966 65.8709 9.55286 65.5893 9.55286ZM66.4053 10.1097V15.4665H64.7637V10.1097H66.4053Z" fill="white"/>
<path d="M70.8587 10.0522C71.4859 10.0522 71.9851 10.257 72.3563 10.6666C72.7339 11.0698 72.9227 11.6266 72.9227 12.337V15.4666H71.2907V12.5578C71.2907 12.1994 71.1979 11.921 71.0123 11.7226C70.8267 11.5242 70.5771 11.425 70.2635 11.425C69.9499 11.425 69.7003 11.5242 69.5147 11.7226C69.3291 11.921 69.2363 12.1994 69.2363 12.5578V15.4666H67.5947V10.1098H69.2363V10.8202C69.4027 10.5834 69.6267 10.3978 69.9083 10.2634C70.1899 10.1226 70.5067 10.0522 70.8587 10.0522Z" fill="white"/>
<path d="M76.7521 11.4732H75.8689V15.4668H74.2273V11.4732H73.6321V10.11H74.2273V9.95643C74.2273 9.29723 74.4161 8.79803 74.7937 8.45883C75.1713 8.11323 75.7249 7.94043 76.4545 7.94043C76.5761 7.94043 76.6657 7.94363 76.7233 7.95003V9.34203C76.4097 9.32283 76.1889 9.36763 76.0609 9.47643C75.9329 9.58523 75.8689 9.78043 75.8689 10.062V10.11H76.7521V11.4732Z" fill="white"/>
<path d="M79.9621 15.5436C79.4373 15.5436 78.9637 15.4316 78.5413 15.2076C78.1253 14.9836 77.7957 14.6636 77.5525 14.2476C77.3157 13.8316 77.1973 13.3452 77.1973 12.7884C77.1973 12.238 77.3189 11.7548 77.5621 11.3388C77.8053 10.9164 78.1381 10.5932 78.5605 10.3692C78.9829 10.1452 79.4565 10.0332 79.9813 10.0332C80.5061 10.0332 80.9797 10.1452 81.4021 10.3692C81.8245 10.5932 82.1573 10.9164 82.4005 11.3388C82.6437 11.7548 82.7653 12.238 82.7653 12.7884C82.7653 13.3388 82.6405 13.8252 82.3909 14.2476C82.1477 14.6636 81.8117 14.9836 81.3829 15.2076C80.9605 15.4316 80.4869 15.5436 79.9621 15.5436ZM79.9621 14.1228C80.2757 14.1228 80.5413 14.0076 80.7589 13.7772C80.9829 13.5468 81.0949 13.2172 81.0949 12.7884C81.0949 12.3596 80.9861 12.03 80.7685 11.7996C80.5573 11.5692 80.2949 11.454 79.9813 11.454C79.6613 11.454 79.3957 11.5692 79.1845 11.7996C78.9733 12.0236 78.8677 12.3532 78.8677 12.7884C78.8677 13.2172 78.9701 13.5468 79.1749 13.7772C79.3861 14.0076 79.6485 14.1228 79.9621 14.1228Z" fill="white"/>
<path d="M21.2513 23.5423C22.0937 23.5423 22.6059 23.1021 22.6059 22.4039C22.6059 21.9258 22.3138 21.5995 21.7104 21.4667L21.1185 21.3338C20.8946 21.2807 20.7769 21.2086 20.7769 21.0758C20.7769 20.943 20.887 20.8595 21.1564 20.8595C21.4687 20.8704 21.7671 20.9914 21.9988 21.201L22.4959 20.4724C22.1048 20.1989 21.6329 20.0652 21.1564 20.093C20.3671 20.093 19.8359 20.4724 19.8359 21.1441C19.8307 21.3825 19.9151 21.6142 20.0725 21.7934C20.2299 21.9725 20.4488 22.0861 20.6859 22.1117L21.274 22.2521C21.5662 22.3166 21.6535 22.4039 21.6535 22.5178C21.6535 22.6316 21.5359 22.7416 21.274 22.7416C20.9029 22.7343 20.5455 22.6005 20.2609 22.3622L19.7334 23.068C20.1676 23.4001 20.7052 23.5681 21.2513 23.5423Z" fill="white"/>
<path d="M23.5885 21.2127C23.7028 21.2127 23.8144 21.1787 23.9094 21.1152C24.0043 21.0516 24.0782 20.9614 24.1218 20.8557C24.1653 20.7501 24.1765 20.6339 24.154 20.5219C24.1314 20.4099 24.0761 20.3072 23.995 20.2267C23.914 20.1462 23.8109 20.0915 23.6987 20.0697C23.5866 20.0479 23.4705 20.0599 23.3652 20.1041C23.2598 20.1483 23.17 20.2228 23.1071 20.3182C23.0442 20.4136 23.011 20.5254 23.0118 20.6396C23.0107 20.7155 23.0249 20.7908 23.0536 20.861C23.0823 20.9313 23.1248 20.995 23.1786 21.0485C23.2325 21.1019 23.2965 21.144 23.3669 21.1722C23.4373 21.2004 23.5127 21.2142 23.5885 21.2127Z" fill="white"/>
<path d="M22.9668 23.4668H24.2114L23.9496 21.4062C23.7144 21.467 23.4677 21.467 23.2325 21.4062L22.9668 23.4668Z" fill="white"/>
<path d="M24.7949 23.4657H25.8043V21.6823C25.8043 21.2459 26.0168 20.9764 26.4266 20.9764C26.8364 20.9764 27.0223 21.2003 27.0223 21.6823V23.4657H28.0166V21.4318C28.0166 20.5439 27.5726 20.0885 26.8136 20.0885C26.616 20.0799 26.4194 20.1221 26.2427 20.2112C26.066 20.3002 25.915 20.433 25.8043 20.597V20.3845C25.8072 20.3533 25.8032 20.322 25.7926 20.2925C25.782 20.2632 25.7651 20.2364 25.743 20.2143C25.7208 20.1922 25.6942 20.1753 25.6647 20.1647C25.6353 20.154 25.6039 20.1501 25.5728 20.153H24.8139L24.7949 23.4657Z" fill="white"/>
<path d="M31.2687 20.1537C31.2375 20.1508 31.2062 20.1547 31.1767 20.1653C31.1473 20.176 31.1206 20.1929 31.0985 20.215C31.0764 20.2371 31.0594 20.2638 31.0488 20.2932C31.0383 20.3227 31.0343 20.354 31.0372 20.3852V20.5863C30.9267 20.4236 30.7761 20.2924 30.5999 20.2053C30.4236 20.1182 30.2279 20.0782 30.0316 20.0892C29.6231 20.1285 29.2439 20.3186 28.9679 20.6224C28.6919 20.9261 28.5391 21.3219 28.5391 21.7323C28.5391 22.1427 28.6919 22.5384 28.9679 22.8422C29.2439 23.146 29.6231 23.3361 30.0316 23.3754C30.2214 23.3873 30.4114 23.3544 30.5861 23.2792C30.7608 23.2041 30.9153 23.0888 31.0372 22.9428V23.1628C31.0374 23.2668 31.0163 23.3697 30.9751 23.4651C30.9339 23.5606 30.8736 23.6466 30.7978 23.7177C30.722 23.7889 30.6324 23.8437 30.5345 23.8788C30.4367 23.9139 30.3327 23.9285 30.2289 23.9218C29.8563 23.929 29.4951 23.7932 29.2195 23.5423L28.6997 24.3012C29.1426 24.636 29.6898 24.8027 30.2441 24.7718C31.2383 24.7718 32.0466 24.2747 32.0466 23.0262V20.1537H31.2687ZM30.2972 22.4988C30.1471 22.4988 30.0004 22.4543 29.8756 22.3709C29.7508 22.2875 29.6535 22.169 29.5961 22.0303C29.5386 21.8916 29.5236 21.739 29.5529 21.5918C29.5822 21.4446 29.6545 21.3093 29.7606 21.2032C29.8667 21.0971 30.0019 21.0248 30.1492 20.9955C30.2964 20.9662 30.449 20.9812 30.5876 21.0387C30.7264 21.0962 30.8449 21.1934 30.9282 21.3182C31.0116 21.443 31.0562 21.5898 31.0562 21.7399C31.0562 21.9411 30.9762 22.1342 30.8339 22.2765C30.6915 22.4188 30.4985 22.4988 30.2972 22.4988Z" fill="white"/>
<path d="M34.8247 20.0886C34.6223 20.0797 34.4207 20.1203 34.2375 20.2069C34.0543 20.2935 33.8951 20.4236 33.7736 20.5857V20.3846C33.7765 20.3535 33.7725 20.3221 33.762 20.2927C33.7514 20.2633 33.7344 20.2366 33.7123 20.2144C33.6902 20.1924 33.6635 20.1754 33.6341 20.1648C33.6046 20.1542 33.5733 20.1502 33.5421 20.1532H32.7832V24.6802H33.7736V23.1016C33.9055 23.2479 34.0682 23.3633 34.2499 23.4394C34.4316 23.5155 34.6279 23.5505 34.8247 23.5418C35.0418 23.5362 35.2554 23.4866 35.4527 23.3959C35.65 23.3052 35.8268 23.1753 35.9723 23.0142C36.1178 22.8531 36.229 22.664 36.2992 22.4585C36.3694 22.2531 36.3971 22.0355 36.3805 21.819C36.3981 21.6019 36.3713 21.3835 36.3016 21.1772C36.2319 20.9708 36.1209 20.7808 35.9752 20.6188C35.8296 20.4568 35.6524 20.3263 35.4546 20.2351C35.2568 20.144 35.0425 20.0941 34.8247 20.0886ZM34.5591 22.6576C34.3896 22.6645 34.2218 22.6204 34.0775 22.531C33.9332 22.4417 33.819 22.3112 33.7495 22.1564C33.68 22.0016 33.6585 21.8295 33.6876 21.6623C33.7168 21.4951 33.7953 21.3405 33.913 21.2183C34.0308 21.0962 34.1825 21.012 34.3485 20.9768C34.5145 20.9416 34.6873 20.9568 34.8445 21.0207C35.0018 21.0845 35.1363 21.1938 35.2308 21.3348C35.3254 21.4757 35.3756 21.6417 35.3749 21.8114C35.3807 21.9215 35.3637 22.0316 35.3252 22.1348C35.2866 22.2381 35.2272 22.3322 35.1507 22.4116C35.0742 22.491 34.9822 22.5537 34.8804 22.596C34.7787 22.6384 34.6693 22.6593 34.5591 22.6576Z" fill="white"/>
<path d="M39.6626 20.1536C39.6314 20.1507 39.6001 20.1547 39.5706 20.1652C39.5412 20.1758 39.5145 20.1928 39.4924 20.2149C39.4703 20.237 39.4533 20.2637 39.4427 20.2931C39.4321 20.3226 39.4282 20.3539 39.4311 20.3851V20.5862C39.3078 20.4213 39.1455 20.2895 38.9587 20.2028C38.772 20.116 38.5666 20.077 38.361 20.0891C38.144 20.0946 37.9303 20.1443 37.733 20.2349C37.5357 20.3257 37.3589 20.4555 37.2134 20.6166C37.0679 20.7778 36.9567 20.9668 36.8865 21.1723C36.8163 21.3778 36.7887 21.5954 36.8052 21.8118C36.7887 22.0284 36.8163 22.246 36.8865 22.4514C36.9567 22.6569 37.0679 22.8459 37.2134 23.0071C37.3589 23.1682 37.5357 23.2981 37.733 23.3887C37.9303 23.4795 38.144 23.5291 38.361 23.5346C38.5665 23.5458 38.7715 23.5062 38.958 23.4196C39.1447 23.3329 39.3071 23.2017 39.4311 23.0375V23.4663H40.4253V20.1536H39.6626ZM38.6266 22.6581C38.4115 22.6437 38.2099 22.5481 38.0626 22.3906C37.9153 22.2331 37.8334 22.0255 37.8334 21.81C37.8334 21.5943 37.9153 21.3868 38.0626 21.2293C38.2099 21.0719 38.4115 20.9763 38.6266 20.9619C38.8418 20.9763 39.0434 21.0719 39.1907 21.2293C39.3379 21.3868 39.4199 21.5943 39.4199 21.81C39.4199 22.0255 39.3379 22.2331 39.1907 22.3906C39.0434 22.5481 38.8418 22.6437 38.6266 22.6581Z" fill="white"/>
<path d="M42.4367 23.5423C43.2791 23.5423 43.7914 23.1021 43.7914 22.4039C43.7914 21.9258 43.4992 21.5995 42.8959 21.4667L42.3077 21.3338C42.08 21.2807 41.9624 21.2086 41.9624 21.0758C41.9624 20.943 42.0725 20.8595 42.3419 20.8595C42.6542 20.8704 42.9526 20.9914 43.1843 21.201L43.6814 20.4724C43.2903 20.1989 42.8183 20.0652 42.3419 20.093C41.5526 20.093 41.0213 20.4724 41.0213 21.1441C41.0162 21.3825 41.1006 21.6142 41.258 21.7934C41.4153 21.9725 41.6342 22.0861 41.8714 22.1117L42.4595 22.2521C42.7517 22.3166 42.839 22.4039 42.839 22.5178C42.839 22.6316 42.7175 22.7416 42.4595 22.7416C42.0884 22.7343 41.7309 22.6005 41.4463 22.3622L40.9492 23.0908C41.3845 23.4202 41.922 23.5854 42.4671 23.5575L42.4367 23.5423Z" fill="white"/>
<path d="M45.5783 23.543C46.4207 23.543 46.933 23.1028 46.933 22.4046C46.933 21.9265 46.6408 21.6001 46.0375 21.4673L45.4455 21.3345C45.2216 21.2814 45.104 21.2093 45.104 21.0765C45.104 20.9437 45.214 20.8602 45.4835 20.8602C45.7947 20.8706 46.092 20.9917 46.3221 21.2017L46.8192 20.4731C46.4299 20.1987 45.9589 20.0649 45.4835 20.0937C44.6942 20.0937 44.1629 20.4731 44.1629 21.1448C44.1578 21.3832 44.2422 21.6149 44.3996 21.7941C44.557 21.9732 44.7758 22.0868 45.0129 22.1124L45.6011 22.2528C45.8933 22.3173 45.9805 22.4046 45.9805 22.5184C45.9805 22.6323 45.8629 22.7423 45.6011 22.7423C45.23 22.735 44.8725 22.6012 44.5879 22.3629L44.0908 23.0914C44.5261 23.4208 45.0636 23.5861 45.6087 23.5582L45.5783 23.543Z" fill="white"/>
<path d="M11.0022 20.4907L10.1969 23.4667H9.1889L8.71957 21.5361L8.23423 23.4667H7.23157L6.4209 20.4907H7.3329L7.75423 22.6187L8.25556 20.4907H9.2209L9.72757 22.6081L10.1436 20.4907H11.0022Z" fill="white"/>
<path d="M11.8086 20.1815C11.6486 20.1815 11.5171 20.1353 11.414 20.0428C11.3145 19.9468 11.2646 19.8295 11.2646 19.6908C11.2646 19.5486 11.3145 19.4313 11.414 19.3388C11.5171 19.2428 11.6486 19.1948 11.8086 19.1948C11.9651 19.1948 12.0931 19.2428 12.1926 19.3388C12.2958 19.4313 12.3473 19.5486 12.3473 19.6908C12.3473 19.8295 12.2958 19.9468 12.1926 20.0428C12.0931 20.1353 11.9651 20.1815 11.8086 20.1815ZM12.262 20.4908V23.4668H11.35V20.4908H12.262Z" fill="white"/>
<path d="M14.5824 22.6936V23.467H14.1184C13.7877 23.467 13.53 23.387 13.3451 23.227C13.1602 23.0634 13.0677 22.7985 13.0677 22.4323V21.2483H12.7051V20.491H13.0677V19.7656H13.9797V20.491H14.5771V21.2483H13.9797V22.443C13.9797 22.5319 14.0011 22.5959 14.0437 22.635C14.0864 22.6741 14.1576 22.6936 14.2571 22.6936H14.5824Z" fill="white"/>
<path d="M16.9194 20.4587C17.2608 20.4587 17.5346 20.5725 17.7408 20.8C17.947 21.024 18.0501 21.3334 18.0501 21.728V23.4667H17.1434V21.8507C17.1434 21.6516 17.0919 21.4969 16.9888 21.3867C16.8857 21.2765 16.747 21.2214 16.5728 21.2214C16.3986 21.2214 16.2599 21.2765 16.1568 21.3867C16.0537 21.4969 16.0021 21.6516 16.0021 21.8507V23.4667H15.0901V19.52H16.0021V20.8907C16.0946 20.7592 16.2208 20.6543 16.3808 20.576C16.5408 20.4978 16.7203 20.4587 16.9194 20.4587Z" fill="white"/>
</g>
<defs>
<clipPath id="clip0_2727_36879">
<rect width="92" height="32" fill="white"/>
</clipPath>
</defs>
</svg>
