<svg width="252" height="60" viewBox="0 0 252 60" fill="none" xmlns="http://www.w3.org/2000/svg">
<g clip-path="url(#clip0_2_13473)">
<path d="M244 0H8C3.58172 0 0 3.58172 0 8V52C0 56.4183 3.58172 60 8 60H244C248.418 60 252 56.4183 252 52V8C252 3.58172 248.418 0 244 0Z" fill="#F4333D"/>
<path d="M19.56 29L16.932 24.23H16.194V29H13.116V16.364H18.282C19.278 16.364 20.124 16.538 20.82 16.886C21.528 17.234 22.056 17.714 22.404 18.326C22.752 18.926 22.926 19.598 22.926 20.342C22.926 21.182 22.686 21.932 22.206 22.592C21.738 23.252 21.042 23.72 20.118 23.996L23.034 29H19.56ZM16.194 22.052H18.102C18.666 22.052 19.086 21.914 19.362 21.638C19.65 21.362 19.794 20.972 19.794 20.468C19.794 19.988 19.65 19.61 19.362 19.334C19.086 19.058 18.666 18.92 18.102 18.92H16.194V22.052Z" fill="white"/>
<path d="M34.3261 23.816C34.3261 24.104 34.3081 24.404 34.2721 24.716H27.3061C27.3541 25.34 27.5521 25.82 27.9001 26.156C28.2601 26.48 28.6981 26.642 29.2141 26.642C29.9821 26.642 30.5161 26.318 30.8161 25.67H34.0921C33.9241 26.33 33.6181 26.924 33.1741 27.452C32.7421 27.98 32.1961 28.394 31.5361 28.694C30.8761 28.994 30.1381 29.144 29.3221 29.144C28.3381 29.144 27.4621 28.934 26.6941 28.514C25.9261 28.094 25.3261 27.494 24.8941 26.714C24.4621 25.934 24.2461 25.022 24.2461 23.978C24.2461 22.934 24.4561 22.022 24.8761 21.242C25.3081 20.462 25.9081 19.862 26.6761 19.442C27.4441 19.022 28.3261 18.812 29.3221 18.812C30.2941 18.812 31.1581 19.016 31.9141 19.424C32.6701 19.832 33.2581 20.414 33.6781 21.17C34.1101 21.926 34.3261 22.808 34.3261 23.816ZM31.1761 23.006C31.1761 22.478 30.9961 22.058 30.6361 21.746C30.2761 21.434 29.8261 21.278 29.2861 21.278C28.7701 21.278 28.3321 21.428 27.9721 21.728C27.6241 22.028 27.4081 22.454 27.3241 23.006H31.1761Z" fill="white"/>
<path d="M41.5479 26.3901V29.0001H39.9819C38.8659 29.0001 37.9959 28.7301 37.3719 28.1901C36.7479 27.6381 36.4359 26.7441 36.4359 25.5081V21.5121H35.2119V18.9561H36.4359V16.5081H39.5139V18.9561H41.5299V21.5121H39.5139V25.5441C39.5139 25.8441 39.5859 26.0601 39.7299 26.1921C39.8739 26.3241 40.1139 26.3901 40.4499 26.3901H41.5479Z" fill="white"/>
<path d="M46.3405 20.63C46.7005 20.078 47.1504 19.646 47.6904 19.334C48.2304 19.01 48.8305 18.848 49.4905 18.848V22.106H48.6445C47.8765 22.106 47.3005 22.274 46.9165 22.61C46.5325 22.934 46.3405 23.51 46.3405 24.338V29H43.2625V18.956H46.3405V20.63Z" fill="white"/>
<path d="M52.5096 17.912C51.9696 17.912 51.5256 17.756 51.1776 17.444C50.8416 17.12 50.6736 16.724 50.6736 16.256C50.6736 15.776 50.8416 15.38 51.1776 15.068C51.5256 14.744 51.9696 14.582 52.5096 14.582C53.0376 14.582 53.4696 14.744 53.8056 15.068C54.1536 15.38 54.3276 15.776 54.3276 16.256C54.3276 16.724 54.1536 17.12 53.8056 17.444C53.4696 17.756 53.0376 17.912 52.5096 17.912ZM54.0396 18.956V29H50.9616V18.956H54.0396Z" fill="white"/>
<path d="M65.7382 23.816C65.7382 24.104 65.7202 24.404 65.6842 24.716H58.7182C58.7662 25.34 58.9642 25.82 59.3122 26.156C59.6722 26.48 60.1102 26.642 60.6262 26.642C61.3942 26.642 61.9282 26.318 62.2282 25.67H65.5042C65.3362 26.33 65.0302 26.924 64.5862 27.452C64.1542 27.98 63.6082 28.394 62.9482 28.694C62.2882 28.994 61.5502 29.144 60.7342 29.144C59.7502 29.144 58.8742 28.934 58.1062 28.514C57.3382 28.094 56.7382 27.494 56.3062 26.714C55.8742 25.934 55.6582 25.022 55.6582 23.978C55.6582 22.934 55.8682 22.022 56.2882 21.242C56.7202 20.462 57.3202 19.862 58.0882 19.442C58.8562 19.022 59.7382 18.812 60.7342 18.812C61.7062 18.812 62.5702 19.016 63.3262 19.424C64.0822 19.832 64.6702 20.414 65.0902 21.17C65.5222 21.926 65.7382 22.808 65.7382 23.816ZM62.5882 23.006C62.5882 22.478 62.4082 22.058 62.0482 21.746C61.6882 21.434 61.2382 21.278 60.6982 21.278C60.1822 21.278 59.7442 21.428 59.3842 21.728C59.0362 22.028 58.8202 22.454 58.7362 23.006H62.5882Z" fill="white"/>
<path d="M71.8802 26.1201L74.0582 18.9561H77.3342L73.7702 29.0001H69.9722L66.4082 18.9561H69.7022L71.8802 26.1201Z" fill="white"/>
<path d="M88.0976 23.816C88.0976 24.104 88.0796 24.404 88.0436 24.716H81.0776C81.1256 25.34 81.3236 25.82 81.6716 26.156C82.0316 26.48 82.4696 26.642 82.9856 26.642C83.7536 26.642 84.2876 26.318 84.5876 25.67H87.8636C87.6956 26.33 87.3896 26.924 86.9456 27.452C86.5136 27.98 85.9676 28.394 85.3076 28.694C84.6476 28.994 83.9096 29.144 83.0936 29.144C82.1096 29.144 81.2336 28.934 80.4656 28.514C79.6976 28.094 79.0976 27.494 78.6656 26.714C78.2336 25.934 78.0176 25.022 78.0176 23.978C78.0176 22.934 78.2276 22.022 78.6476 21.242C79.0796 20.462 79.6796 19.862 80.4476 19.442C81.2156 19.022 82.0976 18.812 83.0936 18.812C84.0656 18.812 84.9296 19.016 85.6856 19.424C86.4416 19.832 87.0296 20.414 87.4496 21.17C87.8816 21.926 88.0976 22.808 88.0976 23.816ZM84.9476 23.006C84.9476 22.478 84.7676 22.058 84.4076 21.746C84.0476 21.434 83.5976 21.278 83.0576 21.278C82.5416 21.278 82.1036 21.428 81.7436 21.728C81.3956 22.028 81.1796 22.454 81.0956 23.006H84.9476Z" fill="white"/>
<path d="M107.846 16.364V29H104.768V21.422L101.942 29H99.4579L96.6139 21.404V29H93.5359V16.364H97.1719L100.718 25.112L104.228 16.364H107.846Z" fill="white"/>
<path d="M120.319 18.9561L114.019 33.7701H110.707L113.011 28.6581L108.925 18.9561H112.363L114.685 25.2381L116.989 18.9561H120.319Z" fill="white"/>
<path d="M122.98 17.912C122.44 17.912 121.996 17.756 121.648 17.444C121.312 17.12 121.144 16.724 121.144 16.256C121.144 15.776 121.312 15.38 121.648 15.068C121.996 14.744 122.44 14.582 122.98 14.582C123.508 14.582 123.94 14.744 124.276 15.068C124.624 15.38 124.798 15.776 124.798 16.256C124.798 16.724 124.624 17.12 124.276 17.444C123.94 17.756 123.508 17.912 122.98 17.912ZM124.51 18.956V29H121.432V18.956H124.51Z" fill="white"/>
<path d="M132.861 18.848C134.037 18.848 134.973 19.232 135.669 20C136.377 20.756 136.731 21.8 136.731 23.132V29H133.671V23.546C133.671 22.874 133.497 22.352 133.149 21.98C132.801 21.608 132.333 21.422 131.745 21.422C131.157 21.422 130.689 21.608 130.341 21.98C129.993 22.352 129.819 22.874 129.819 23.546V29H126.741V18.956H129.819V20.288C130.131 19.844 130.551 19.496 131.079 19.244C131.607 18.98 132.201 18.848 132.861 18.848Z" fill="white"/>
<path d="M143.91 21.5119H142.254V28.9999H139.176V21.5119H138.06V18.9559H139.176V18.6679C139.176 17.4319 139.53 16.4959 140.238 15.8599C140.946 15.2119 141.984 14.8879 143.352 14.8879C143.58 14.8879 143.748 14.8939 143.856 14.9059V17.5159C143.268 17.4799 142.854 17.5639 142.614 17.7679C142.374 17.9719 142.254 18.3379 142.254 18.8659V18.9559H143.91V21.5119Z" fill="white"/>
<path d="M149.928 29.144C148.944 29.144 148.056 28.934 147.264 28.514C146.484 28.094 145.866 27.494 145.41 26.714C144.966 25.934 144.744 25.022 144.744 23.978C144.744 22.946 144.972 22.04 145.428 21.26C145.884 20.468 146.508 19.862 147.3 19.442C148.092 19.022 148.98 18.812 149.964 18.812C150.948 18.812 151.836 19.022 152.628 19.442C153.42 19.862 154.044 20.468 154.5 21.26C154.956 22.04 155.184 22.946 155.184 23.978C155.184 25.01 154.95 25.922 154.482 26.714C154.026 27.494 153.396 28.094 152.592 28.514C151.8 28.934 150.912 29.144 149.928 29.144ZM149.928 26.48C150.516 26.48 151.014 26.264 151.422 25.832C151.842 25.4 152.052 24.782 152.052 23.978C152.052 23.174 151.848 22.556 151.44 22.124C151.044 21.692 150.552 21.476 149.964 21.476C149.364 21.476 148.866 21.692 148.47 22.124C148.074 22.544 147.876 23.162 147.876 23.978C147.876 24.782 148.068 25.4 148.452 25.832C148.848 26.264 149.34 26.48 149.928 26.48Z" fill="white"/>
<path d="M160.28 29.0001V15.0001H163.18V20.4401C163.527 19.9334 163.98 19.5468 164.54 19.2801C165.113 19.0134 165.727 18.8801 166.38 18.8801C167.047 18.8801 167.66 19.0134 168.22 19.2801C168.793 19.5468 169.287 19.9134 169.7 20.3801C170.127 20.8334 170.46 21.3801 170.7 22.0201C170.94 22.6468 171.06 23.3268 171.06 24.0601C171.06 24.7934 170.94 25.4734 170.7 26.1001C170.46 26.7268 170.127 27.2734 169.7 27.7401C169.287 28.2068 168.793 28.5734 168.22 28.8401C167.66 29.1068 167.047 29.2401 166.38 29.2401C165.727 29.2401 165.113 29.1201 164.54 28.8801C163.98 28.6268 163.527 28.2401 163.18 27.7201V29.0001H160.28ZM168.16 24.0601C168.16 23.7001 168.093 23.3668 167.96 23.0601C167.827 22.7534 167.647 22.4868 167.42 22.2601C167.193 22.0201 166.927 21.8334 166.62 21.7001C166.313 21.5668 165.98 21.5001 165.62 21.5001C165.26 21.5001 164.927 21.5668 164.62 21.7001C164.313 21.8334 164.047 22.0201 163.82 22.2601C163.593 22.4868 163.413 22.7534 163.28 23.0601C163.147 23.3668 163.08 23.7001 163.08 24.0601C163.08 24.4201 163.147 24.7534 163.28 25.0601C163.413 25.3668 163.593 25.6401 163.82 25.8801C164.047 26.1068 164.313 26.2868 164.62 26.4201C164.927 26.5534 165.26 26.6201 165.62 26.6201C165.98 26.6201 166.313 26.5534 166.62 26.4201C166.927 26.2868 167.193 26.1068 167.42 25.8801C167.647 25.6401 167.827 25.3668 167.96 25.0601C168.093 24.7534 168.16 24.4201 168.16 24.0601ZM179.395 19.1201H182.315V29.0001H179.395V27.7401C179.102 28.2068 178.709 28.5801 178.215 28.8601C177.735 29.1268 177.169 29.2601 176.515 29.2601C175.382 29.2601 174.495 28.9001 173.855 28.1801C173.215 27.4601 172.895 26.4734 172.895 25.2201V19.1201H175.815V24.5201C175.815 25.1734 175.962 25.6801 176.255 26.0401C176.562 26.4001 176.995 26.5801 177.555 26.5801C178.115 26.5801 178.562 26.3868 178.895 26.0001C179.229 25.6001 179.395 25.0468 179.395 24.3401V19.1201ZM188.11 21.2001C187.843 21.2001 187.623 21.2668 187.45 21.4001C187.277 21.5201 187.19 21.6801 187.19 21.8801C187.19 22.2401 187.463 22.4934 188.01 22.6401L189.25 22.9601C190.183 23.2001 190.89 23.5734 191.37 24.0801C191.863 24.5734 192.11 25.1734 192.11 25.8801C192.11 26.3734 192.01 26.8268 191.81 27.2401C191.61 27.6534 191.33 28.0134 190.97 28.3201C190.623 28.6134 190.203 28.8401 189.71 29.0001C189.23 29.1734 188.703 29.2601 188.13 29.2601C187.143 29.2601 186.283 29.0468 185.55 28.6201C184.817 28.1934 184.283 27.6001 183.95 26.8401L186.31 25.5401C186.497 25.9534 186.757 26.2801 187.09 26.5201C187.423 26.7601 187.777 26.8801 188.15 26.8801C188.457 26.8801 188.703 26.8134 188.89 26.6801C189.09 26.5468 189.19 26.3601 189.19 26.1201C189.19 25.7734 188.89 25.5268 188.29 25.3801L187.13 25.1001C185.25 24.6601 184.31 23.6468 184.31 22.0601C184.31 21.5934 184.403 21.1668 184.59 20.7801C184.777 20.3801 185.037 20.0401 185.37 19.7601C185.703 19.4801 186.103 19.2601 186.57 19.1001C187.05 18.9401 187.57 18.8601 188.13 18.8601C188.557 18.8601 188.97 18.9201 189.37 19.0401C189.77 19.1468 190.143 19.3001 190.49 19.5001C190.837 19.7001 191.143 19.9401 191.41 20.2201C191.677 20.5001 191.89 20.8134 192.05 21.1601L189.67 22.4201C189.523 22.0468 189.303 21.7534 189.01 21.5401C188.717 21.3134 188.417 21.2001 188.11 21.2001ZM193.893 29.0001V19.1201H196.813V29.0001H193.893ZM197.053 16.2601C197.053 16.4868 197.007 16.7068 196.913 16.9201C196.833 17.1201 196.713 17.3001 196.553 17.4601C196.407 17.6068 196.227 17.7268 196.013 17.8201C195.813 17.9134 195.593 17.9601 195.353 17.9601C195.113 17.9601 194.887 17.9134 194.673 17.8201C194.473 17.7268 194.293 17.6068 194.133 17.4601C193.987 17.3001 193.867 17.1201 193.773 16.9201C193.693 16.7068 193.653 16.4868 193.653 16.2601C193.653 16.0334 193.693 15.8201 193.773 15.6201C193.867 15.4068 193.987 15.2268 194.133 15.0801C194.293 14.9201 194.473 14.7934 194.673 14.7001C194.887 14.6068 195.113 14.5601 195.353 14.5601C195.593 14.5601 195.813 14.6068 196.013 14.7001C196.227 14.7934 196.407 14.9201 196.553 15.0801C196.713 15.2268 196.833 15.4068 196.913 15.6201C197.007 15.8201 197.053 16.0334 197.053 16.2601ZM202.302 29.0001H199.382V19.1201H202.302V20.3801C202.608 19.9001 203.002 19.5268 203.482 19.2601C203.975 18.9934 204.555 18.8601 205.222 18.8601C206.355 18.8601 207.242 19.2201 207.882 19.9401C208.535 20.6601 208.862 21.6468 208.862 22.9001V29.0001H205.942V23.5801C205.942 22.9268 205.788 22.4268 205.482 22.0801C205.175 21.7201 204.735 21.5401 204.162 21.5401C203.602 21.5401 203.148 21.7401 202.802 22.1401C202.468 22.5268 202.302 23.0668 202.302 23.7601V29.0001ZM220.555 26.6401C220.142 27.4534 219.542 28.0934 218.755 28.5601C217.982 29.0268 217.055 29.2601 215.975 29.2601C215.202 29.2601 214.495 29.1334 213.855 28.8801C213.215 28.6268 212.662 28.2734 212.195 27.8201C211.742 27.3534 211.382 26.8001 211.115 26.1601C210.862 25.5201 210.735 24.8201 210.735 24.0601C210.735 23.3134 210.862 22.6268 211.115 22.0001C211.382 21.3601 211.742 20.8068 212.195 20.3401C212.662 19.8734 213.202 19.5134 213.815 19.2601C214.442 18.9934 215.122 18.8601 215.855 18.8601C216.602 18.8601 217.282 18.9934 217.895 19.2601C218.522 19.5134 219.055 19.8734 219.495 20.3401C219.935 20.8068 220.275 21.3668 220.515 22.0201C220.768 22.6601 220.895 23.3668 220.895 24.1401C220.895 24.3134 220.888 24.4601 220.875 24.5801C220.875 24.7001 220.868 24.7934 220.855 24.8601H213.595C213.622 25.1534 213.702 25.4201 213.835 25.6601C213.968 25.9001 214.142 26.1134 214.355 26.3001C214.582 26.4734 214.828 26.6134 215.095 26.7201C215.375 26.8134 215.668 26.8601 215.975 26.8601C216.522 26.8601 216.955 26.7534 217.275 26.5401C217.595 26.3268 217.868 26.0334 218.095 25.6601L220.555 26.6401ZM218.035 22.9601C217.968 22.4268 217.735 21.9934 217.335 21.6601C216.935 21.3134 216.435 21.1401 215.835 21.1401C215.542 21.1401 215.268 21.1934 215.015 21.3001C214.762 21.3934 214.535 21.5268 214.335 21.7001C214.135 21.8734 213.968 22.0668 213.835 22.2801C213.715 22.4934 213.642 22.7201 213.615 22.9601H218.035ZM226.098 21.2001C225.831 21.2001 225.611 21.2668 225.438 21.4001C225.265 21.5201 225.178 21.6801 225.178 21.8801C225.178 22.2401 225.451 22.4934 225.998 22.6401L227.238 22.9601C228.171 23.2001 228.878 23.5734 229.358 24.0801C229.851 24.5734 230.098 25.1734 230.098 25.8801C230.098 26.3734 229.998 26.8268 229.798 27.2401C229.598 27.6534 229.318 28.0134 228.958 28.3201C228.611 28.6134 228.191 28.8401 227.698 29.0001C227.218 29.1734 226.691 29.2601 226.118 29.2601C225.131 29.2601 224.271 29.0468 223.538 28.6201C222.805 28.1934 222.271 27.6001 221.938 26.8401L224.298 25.5401C224.485 25.9534 224.745 26.2801 225.078 26.5201C225.411 26.7601 225.765 26.8801 226.138 26.8801C226.445 26.8801 226.691 26.8134 226.878 26.6801C227.078 26.5468 227.178 26.3601 227.178 26.1201C227.178 25.7734 226.878 25.5268 226.278 25.3801L225.118 25.1001C223.238 24.6601 222.298 23.6468 222.298 22.0601C222.298 21.5934 222.391 21.1668 222.578 20.7801C222.765 20.3801 223.025 20.0401 223.358 19.7601C223.691 19.4801 224.091 19.2601 224.558 19.1001C225.038 18.9401 225.558 18.8601 226.118 18.8601C226.545 18.8601 226.958 18.9201 227.358 19.0401C227.758 19.1468 228.131 19.3001 228.478 19.5001C228.825 19.7001 229.131 19.9401 229.398 20.2201C229.665 20.5001 229.878 20.8134 230.038 21.1601L227.658 22.4201C227.511 22.0468 227.291 21.7534 226.998 21.5401C226.705 21.3134 226.405 21.2001 226.098 21.2001ZM235.219 21.2001C234.953 21.2001 234.733 21.2668 234.559 21.4001C234.386 21.5201 234.299 21.6801 234.299 21.8801C234.299 22.2401 234.573 22.4934 235.119 22.6401L236.359 22.9601C237.293 23.2001 237.999 23.5734 238.479 24.0801C238.973 24.5734 239.219 25.1734 239.219 25.8801C239.219 26.3734 239.119 26.8268 238.919 27.2401C238.719 27.6534 238.439 28.0134 238.079 28.3201C237.733 28.6134 237.313 28.8401 236.819 29.0001C236.339 29.1734 235.813 29.2601 235.239 29.2601C234.253 29.2601 233.393 29.0468 232.659 28.6201C231.926 28.1934 231.393 27.6001 231.059 26.8401L233.419 25.5401C233.606 25.9534 233.866 26.2801 234.199 26.5201C234.533 26.7601 234.886 26.8801 235.259 26.8801C235.566 26.8801 235.813 26.8134 235.999 26.6801C236.199 26.5468 236.299 26.3601 236.299 26.1201C236.299 25.7734 235.999 25.5268 235.399 25.3801L234.239 25.1001C232.359 24.6601 231.419 23.6468 231.419 22.0601C231.419 21.5934 231.513 21.1668 231.699 20.7801C231.886 20.3801 232.146 20.0401 232.479 19.7601C232.813 19.4801 233.213 19.2601 233.679 19.1001C234.159 18.9401 234.679 18.8601 235.239 18.8601C235.666 18.8601 236.079 18.9201 236.479 19.0401C236.879 19.1468 237.253 19.3001 237.599 19.5001C237.946 19.7001 238.253 19.9401 238.519 20.2201C238.786 20.5001 238.999 20.8134 239.159 21.1601L236.779 22.4201C236.633 22.0468 236.413 21.7534 236.119 21.5401C235.826 21.3134 235.526 21.2001 235.219 21.2001Z" fill="white"/>
<path d="M39.846 44.1422C41.4255 44.1422 42.386 43.3169 42.386 42.0077C42.386 41.1113 41.8382 40.4994 40.7069 40.2504L39.597 40.0013C39.1772 39.9017 38.9566 39.7665 38.9566 39.5175C38.9566 39.2685 39.163 39.112 39.6681 39.112C40.2537 39.1324 40.8132 39.3592 41.2476 39.7523L42.1797 38.3862C41.4464 37.8733 40.5615 37.6226 39.6681 37.6747C38.1882 37.6747 37.1921 38.3862 37.1921 39.6456C37.1824 40.0926 37.3407 40.527 37.6358 40.863C37.9309 41.1989 38.3413 41.4119 38.7859 41.4599L39.8887 41.7231C40.4365 41.8441 40.6002 42.0078 40.6002 42.2212C40.6002 42.4346 40.3796 42.641 39.8887 42.641C39.1929 42.6273 38.5226 42.3763 37.989 41.9295L37 43.2529C37.8142 43.8756 38.8221 44.1906 39.846 44.1422Z" fill="white"/>
<path d="M44.228 39.7733C44.4422 39.7733 44.6516 39.7097 44.8296 39.5905C45.0076 39.4714 45.1462 39.3021 45.2279 39.104C45.3095 38.906 45.3305 38.6882 45.2882 38.4782C45.2459 38.2682 45.1422 38.0756 44.9902 37.9246C44.8382 37.7736 44.6449 37.6712 44.4346 37.6303C44.2244 37.5893 44.0067 37.6118 43.8092 37.6947C43.6117 37.7777 43.4433 37.9174 43.3253 38.0962C43.2074 38.275 43.1451 38.4847 43.1466 38.6989C43.1446 38.8412 43.1713 38.9823 43.2251 39.114C43.2788 39.2457 43.3585 39.3652 43.4594 39.4655C43.5604 39.5657 43.6804 39.6446 43.8124 39.6975C43.9445 39.7504 44.0858 39.7762 44.228 39.7733Z" fill="white"/>
<path d="M43.0615 44.0002H45.3952L44.9043 40.1367C44.4633 40.2506 44.0006 40.2506 43.5596 40.1367L43.0615 44.0002Z" fill="white"/>
<path d="M46.4912 43.9984H48.3837V40.6544C48.3837 39.8362 48.7822 39.331 49.5506 39.331C50.319 39.331 50.6676 39.7508 50.6676 40.6544V43.9984H52.5318V40.1848C52.5318 38.5199 51.6993 37.6661 50.2763 37.6661C49.9057 37.65 49.5371 37.7292 49.2057 37.8961C48.8744 38.063 48.5914 38.3121 48.3837 38.6195V38.2211C48.3892 38.1627 48.3818 38.1039 48.3619 38.0487C48.342 37.9936 48.3102 37.9435 48.2688 37.902C48.2273 37.8606 48.1773 37.8288 48.1221 37.8089C48.067 37.789 48.0081 37.7816 47.9497 37.7871H46.5267L46.4912 43.9984Z" fill="white"/>
<path d="M58.6285 37.7884C58.5701 37.7829 58.5113 37.7903 58.4561 37.8102C58.401 37.8301 58.3509 37.8619 58.3094 37.9033C58.268 37.9448 58.2362 37.9949 58.2163 38.05C58.1965 38.1052 58.189 38.164 58.1945 38.2224V38.5995C57.9874 38.2945 57.7049 38.0484 57.3745 37.8851C57.0441 37.7218 56.677 37.6468 56.309 37.6674C55.543 37.7411 54.832 38.0975 54.3146 38.6671C53.7971 39.2367 53.5105 39.9787 53.5105 40.7482C53.5105 41.5177 53.7971 42.2597 54.3146 42.8293C54.832 43.3989 55.543 43.7553 56.309 43.829C56.6649 43.8514 57.0211 43.7897 57.3487 43.6487C57.6763 43.5078 57.966 43.2917 58.1945 43.0179V43.4305C58.1949 43.6255 58.1553 43.8184 58.078 43.9973C58.0008 44.1763 57.8877 44.3375 57.7456 44.4709C57.6035 44.6043 57.4355 44.7071 57.252 44.773C57.0685 44.8388 56.8735 44.8662 56.679 44.8535C55.9804 44.8671 55.3031 44.6125 54.7864 44.142L53.8117 45.565C54.6421 46.1926 55.6682 46.5052 56.7075 46.4473C58.5716 46.4473 60.0871 45.5152 60.0871 43.1744V37.7884H58.6285ZM56.8071 42.1854C56.5256 42.1854 56.2505 42.102 56.0165 41.9456C55.7825 41.7892 55.6001 41.567 55.4924 41.307C55.3847 41.047 55.3565 40.7608 55.4114 40.4848C55.4663 40.2088 55.6019 39.9552 55.8009 39.7562C55.9999 39.5572 56.2534 39.4217 56.5295 39.3668C56.8055 39.3119 57.0916 39.34 57.3516 39.4478C57.6117 39.5555 57.8339 39.7378 57.9902 39.9719C58.1466 40.2059 58.2301 40.481 58.2301 40.7624C58.2301 41.1398 58.0801 41.5018 57.8133 41.7686C57.5464 42.0355 57.1845 42.1854 56.8071 42.1854Z" fill="white"/>
<path d="M65.2965 37.6663C64.917 37.6495 64.5391 37.7257 64.1956 37.8881C63.8521 38.0505 63.5535 38.2944 63.3257 38.5984V38.2213C63.3312 38.1629 63.3238 38.1041 63.304 38.0489C63.2841 37.9938 63.2522 37.9437 63.2108 37.9022C63.1693 37.8608 63.1193 37.829 63.0642 37.8091C63.009 37.7893 62.9502 37.7818 62.8918 37.7873H61.4688V46.2755H63.3257V43.3156C63.573 43.59 63.8781 43.8063 64.2188 43.949C64.5594 44.0917 64.9275 44.1573 65.2965 44.141C65.7035 44.1306 66.1042 44.0375 66.4741 43.8675C66.844 43.6974 67.1754 43.4539 67.4482 43.1518C67.7211 42.8497 67.9296 42.4952 68.0612 42.1099C68.1928 41.7247 68.2448 41.3167 68.2138 40.9108C68.2468 40.5037 68.1965 40.0942 68.0658 39.7073C67.9351 39.3203 67.7269 38.9641 67.4538 38.6604C67.1808 38.3567 66.8486 38.1119 66.4777 37.941C66.1068 37.7701 65.7048 37.6766 65.2965 37.6663ZM64.7986 42.4832C64.4807 42.496 64.1661 42.4133 63.8955 42.2458C63.625 42.0783 63.4109 41.8337 63.2806 41.5434C63.1503 41.2531 63.1099 40.9304 63.1645 40.617C63.2192 40.3035 63.3664 40.0136 63.5872 39.7845C63.8081 39.5555 64.0923 39.3977 64.4036 39.3317C64.7149 39.2656 65.0388 39.2942 65.3336 39.4139C65.6285 39.5335 65.8809 39.7386 66.0581 40.0029C66.2354 40.2671 66.3294 40.5784 66.3282 40.8965C66.339 41.1029 66.3072 41.3093 66.2349 41.5029C66.1625 41.6965 66.0513 41.8731 65.9079 42.0219C65.7644 42.1707 65.5919 42.2884 65.401 42.3677C65.2102 42.4471 65.0052 42.4864 64.7986 42.4832Z" fill="white"/>
<path d="M74.3673 37.7881C74.3089 37.7826 74.2501 37.7901 74.1949 37.8099C74.1398 37.8298 74.0897 37.8616 74.0482 37.903C74.0068 37.9445 73.975 37.9946 73.9551 38.0497C73.9352 38.1049 73.9278 38.1637 73.9333 38.2221V38.5992C73.7021 38.29 73.3977 38.043 73.0475 37.8803C72.6974 37.7176 72.3123 37.6444 71.9269 37.6671C71.5199 37.6775 71.1193 37.7706 70.7494 37.9406C70.3795 38.1107 70.048 38.3542 69.7752 38.6563C69.5023 38.9584 69.2938 39.3129 69.1622 39.6982C69.0306 40.0834 68.9787 40.4914 69.0097 40.8973C68.9787 41.3033 69.0306 41.7113 69.1622 42.0965C69.2938 42.4818 69.5023 42.8362 69.7752 43.1384C70.048 43.4405 70.3795 43.684 70.7494 43.854C71.1193 44.0241 71.5199 44.1171 71.9269 44.1275C72.3121 44.1484 72.6965 44.0743 73.0463 43.9118C73.3962 43.7493 73.7008 43.5033 73.9333 43.1955V43.9995H75.7974V37.7881H74.3673ZM72.4249 42.484C72.0215 42.457 71.6435 42.2777 71.3674 41.9825C71.0912 41.6872 70.9376 41.298 70.9376 40.8938C70.9376 40.4895 71.0912 40.1004 71.3674 39.8051C71.6435 39.5099 72.0215 39.3306 72.4249 39.3036C72.8283 39.3306 73.2063 39.5099 73.4825 39.8051C73.7586 40.1004 73.9122 40.4895 73.9122 40.8938C73.9122 41.298 73.7586 41.6872 73.4825 41.9825C73.2063 42.2777 72.8283 42.457 72.4249 42.484Z" fill="white"/>
<path d="M79.5696 44.1422C81.1491 44.1422 82.1096 43.3169 82.1096 42.0077C82.1096 41.1113 81.5618 40.4994 80.4305 40.2504L79.3277 40.0013C78.9008 39.9017 78.6802 39.7665 78.6802 39.5175C78.6802 39.2685 78.8866 39.112 79.3917 39.112C79.9773 39.1324 80.5368 39.3592 80.9712 39.7523L81.9033 38.3862C81.17 37.8733 80.2851 37.6226 79.3917 37.6747C77.9118 37.6747 76.9157 38.3862 76.9157 39.6456C76.906 40.0926 77.0643 40.527 77.3594 40.863C77.6545 41.1989 78.0649 41.4119 78.5095 41.4599L79.6123 41.7231C80.1601 41.8441 80.3238 42.0078 80.3238 42.2212C80.3238 42.4346 80.0961 42.641 79.6123 42.641C78.9165 42.6273 78.2462 42.3763 77.7126 41.9295L76.7805 43.2956C77.5966 43.9132 78.6044 44.2231 79.6265 44.1707L79.5696 44.1422Z" fill="white"/>
<path d="M85.46 44.1427C87.0395 44.1427 88 43.3173 88 42.0082C88 41.1117 87.4522 40.4998 86.3209 40.2508L85.2109 40.0017C84.7912 39.9021 84.5706 39.767 84.5706 39.5179C84.5706 39.2689 84.7769 39.1124 85.2821 39.1124C85.8657 39.132 86.4232 39.359 86.8545 39.7527L87.7866 38.3866C87.0567 37.8721 86.1735 37.6212 85.2821 37.6752C83.8022 37.6752 82.8061 38.3866 82.8061 39.646C82.7964 40.093 82.9547 40.5274 83.2498 40.8634C83.5449 41.1993 83.9553 41.4123 84.3998 41.4603L85.5026 41.7236C86.0505 41.8445 86.2141 42.0082 86.2141 42.2216C86.2141 42.4351 85.9936 42.6414 85.5026 42.6414C84.8068 42.6277 84.1365 42.3767 83.6029 41.9299L82.6709 43.296C83.487 43.9136 84.4948 44.2235 85.5169 44.1711L85.46 44.1427Z" fill="white"/>
<path d="M20.63 38.4202L19.12 44.0002H17.23L16.35 40.3802L15.44 44.0002H13.56L12.04 38.4202H13.75L14.54 42.4102L15.48 38.4202H17.29L18.24 42.3902L19.02 38.4202H20.63Z" fill="white"/>
<path d="M22.1421 37.8402C21.8421 37.8402 21.5955 37.7536 21.4021 37.5802C21.2155 37.4002 21.1221 37.1802 21.1221 36.9202C21.1221 36.6536 21.2155 36.4336 21.4021 36.2602C21.5955 36.0802 21.8421 35.9902 22.1421 35.9902C22.4355 35.9902 22.6755 36.0802 22.8621 36.2602C23.0555 36.4336 23.1521 36.6536 23.1521 36.9202C23.1521 37.1802 23.0555 37.4002 22.8621 37.5802C22.6755 37.7536 22.4355 37.8402 22.1421 37.8402ZM22.9921 38.4202V44.0002H21.2821V38.4202H22.9921Z" fill="white"/>
<path d="M27.3413 42.5502V44.0002H26.4713C25.8513 44.0002 25.368 43.8502 25.0213 43.5502C24.6747 43.2436 24.5013 42.7469 24.5013 42.0602V39.8402H23.8213V38.4202H24.5013V37.0602H26.2113V38.4202H27.3313V39.8402H26.2113V42.0802C26.2113 42.2469 26.2513 42.3669 26.3313 42.4402C26.4113 42.5136 26.5447 42.5502 26.7313 42.5502H27.3413Z" fill="white"/>
<path d="M31.7237 38.3602C32.3637 38.3602 32.8771 38.5736 33.2637 39.0002C33.6504 39.4202 33.8437 40.0002 33.8437 40.7402V44.0002H32.1437V40.9702C32.1437 40.5969 32.0471 40.3069 31.8537 40.1002C31.6604 39.8936 31.4004 39.7902 31.0737 39.7902C30.7471 39.7902 30.4871 39.8936 30.2937 40.1002C30.1004 40.3069 30.0037 40.5969 30.0037 40.9702V44.0002H28.2937V36.6002H30.0037V39.1702C30.1771 38.9236 30.4137 38.7269 30.7137 38.5802C31.0137 38.4336 31.3504 38.3602 31.7237 38.3602Z" fill="white"/>
</g>
<defs>
<clipPath id="clip0_2_13473">
<rect width="252" height="60" fill="white"/>
</clipPath>
</defs>
</svg>
