<svg width="100%" height="148" viewBox="0 0 464 148" fill="none" xmlns="http://www.w3.org/2000/svg">
<g clip-path="url(#clip0_2727_36008)">
<g clip-path="url(#clip1_2727_36008)">
<path fill-rule="evenodd" clip-rule="evenodd" d="M1.32992 145.751C3.25688 145.216 6.97791 145.884 8.97132 145.684C9.50289 145.617 10.3667 145.149 10.6325 145.55C10.7654 145.751 9.37 147.155 9.37 147.155C8.43974 148.425 7.90817 149.763 7.70883 151.167C7.2437 153.842 8.30685 155.514 11.297 156.784C11.6292 156.918 12.7588 156.985 12.9581 157.118C13.5562 157.587 12.1608 158.389 11.895 158.59C10.6989 159.526 8.50619 160.529 6.64568 160.194C5.51608 159.994 4.32003 157.052 3.92135 156.517C2.59241 154.511 -2.32466 146.754 1.32992 145.751Z" fill="#FFE297"/>
<path fill-rule="evenodd" clip-rule="evenodd" d="M59.1398 124.22C62.3292 121.545 57.5451 119.806 54.3556 120.675C48.6412 122.28 51.1661 129.502 55.6181 130.973C58.3424 131.91 60.7345 130.973 62.5286 129.369C62.7279 129.168 64.7213 126.894 63.5917 126.627C62.8608 126.426 61.997 128.432 61.7312 128.7C60.1365 130.171 56.6148 130.572 55.0201 128.834C53.4918 127.162 53.5582 121.745 57.7444 122.414C58.8075 122.615 58.4753 124.755 59.1398 124.22Z" fill="#77B8D8"/>
<path fill-rule="evenodd" clip-rule="evenodd" d="M101.132 133.11C99.8698 132.307 97.5441 135.517 98.0757 136.787C99.4711 139.93 102.926 142.806 106.647 144.544C107.245 144.812 111.232 146.082 111.897 145.815C112.03 145.748 111.963 144.277 111.897 144.21C109.172 142.07 105.784 142.137 103.724 139.061C102.528 137.189 103.192 134.514 101.132 133.11Z" fill="#F48184"/>
<path fill-rule="evenodd" clip-rule="evenodd" d="M217.748 153.239C217.349 153.908 215.09 153.172 214.359 153.038C213.761 152.972 212.299 153.373 212.432 152.905C212.698 152.169 214.16 151.5 214.692 150.765C215.356 149.829 215.821 148.759 216.087 147.756C216.153 147.488 216.02 146.552 216.419 146.351C217.084 146.084 218.08 146.552 218.678 146.619C218.878 146.686 219.741 146.686 219.874 146.819C220.14 147.221 219.343 148.224 219.276 148.558C218.811 150.163 218.612 151.768 217.748 153.239Z" fill="#77B8D8"/>
<path fill-rule="evenodd" clip-rule="evenodd" d="M140.603 139.26C144.191 138.257 141.865 134.847 138.41 135.181C129.772 136.117 133.56 142.804 138.875 144.944C145.719 147.686 153.56 139.795 149.241 135.114C148.577 134.378 147.646 133.509 146.45 133.308C145.786 133.175 143.925 132.64 144.324 133.108C144.789 133.576 145.919 133.71 146.384 134.178C148.776 136.585 147.58 143.272 142.929 143.673C139.407 144.008 132.829 139.728 137.679 137.588C138.61 137.254 139.141 139.728 140.603 139.26Z" fill="white"/>
<path fill-rule="evenodd" clip-rule="evenodd" d="M343.598 32.8724C349.179 33.3405 351.97 23.1762 345.193 22.5075C341.272 22.1063 337.551 27.389 341.538 28.8602C342.867 29.3951 346.256 27.5228 344.993 26.5866C344.595 26.3191 343 28.459 342.335 26.3191C341.87 24.9148 344.595 23.0425 346.123 24.2461C348.183 25.851 346.189 29.2614 344.661 30.5319C343.997 31.1338 342.535 32.8055 343.598 32.8724Z" fill="#FF6A68"/>
<path fill-rule="evenodd" clip-rule="evenodd" d="M375.559 36.9474C378.084 34.8076 374.297 33.4033 371.772 34.1389C367.253 35.4094 369.247 41.1602 372.768 42.297C374.961 43.0326 376.822 42.297 378.217 41.0265C378.35 40.8927 379.945 39.0872 379.014 38.8866C378.416 38.7529 377.752 40.3578 377.552 40.5584C376.29 41.6952 373.499 42.0295 372.237 40.6921C370.974 39.3547 371.041 35.075 374.363 35.61C375.227 35.6769 375.027 37.4155 375.559 36.9474Z" fill="#FFE297"/>
<path fill-rule="evenodd" clip-rule="evenodd" d="M382.603 64.5654C382.669 63.5624 384.862 63.3618 386.191 63.4286C386.191 63.4286 386.191 66.1703 386.191 66.3709C386.191 68.2433 387.254 71.4531 384.53 71.988C384.264 72.0549 383.466 72.4561 383.201 72.3892C382.47 72.1218 383.267 71.1187 383.334 70.45C383.599 68.6445 382.403 66.4378 382.603 64.5654Z" fill="#FFE297"/>
<path fill-rule="evenodd" clip-rule="evenodd" d="M414.895 26.6512C413.898 25.9825 412.038 28.5904 412.503 29.5935C413.566 32.0677 416.357 34.3413 419.281 35.7456C419.746 35.9462 422.935 36.9492 423.4 36.7486C423.533 36.6817 423.467 35.5449 423.4 35.4781C421.208 33.8063 418.55 33.8732 416.955 31.399C415.958 29.861 416.49 27.788 414.895 26.6512Z" fill="#F48184"/>
<path fill-rule="evenodd" clip-rule="evenodd" d="M447.255 36.2783C445.926 36.1446 446.258 37.4151 445.594 38.2176C444.929 39.02 442.67 39.8224 442.271 40.3574C442.005 40.7586 443.334 41.9623 443.733 42.0292C443.999 42.096 445.527 41.0261 445.726 40.8924C447.188 39.8224 450.311 36.5458 447.255 36.2783Z" fill="#AC40A4"/>
<path fill-rule="evenodd" clip-rule="evenodd" d="M344.262 61.1564C344.328 60.6215 344.195 59.6853 344.86 59.6853C347.385 59.6184 347.983 60.8221 347.983 62.0926C347.983 62.8951 345.989 63.7644 344.993 63.2294C344.328 62.895 344.262 61.6914 344.262 61.1564Z" fill="white"/>
<path fill-rule="evenodd" clip-rule="evenodd" d="M400.609 8.99787C400.477 8.39604 402.603 8.06169 403.267 7.79421C403.799 7.5936 404.596 6.72428 404.729 7.12551C404.995 7.72734 404.397 8.79726 404.463 9.53283C404.53 10.469 404.928 11.4721 405.394 12.3414C405.527 12.6089 406.257 13.2107 406.058 13.4782C405.726 13.9463 404.729 13.9463 404.198 14.1469C403.998 14.2137 403.4 14.5481 403.201 14.4144C402.736 14.2137 402.669 13.2107 402.536 12.9432C401.805 11.6727 400.875 10.4021 400.609 8.99787Z" fill="white"/>
<path fill-rule="evenodd" clip-rule="evenodd" d="M432.172 65.9742C430.179 68.114 434.099 69.7189 436.425 68.1141C442.206 64.1018 435.096 60.6246 429.846 61.0927C423.069 61.6945 422.271 70.5214 428.517 72.3269C429.448 72.5944 430.777 72.9287 431.707 72.5944C432.305 72.3937 433.966 72.1263 433.368 71.9256C432.704 71.725 431.84 72.1263 431.175 71.9256C427.853 71.0563 424.464 65.7067 427.654 63.5669C430.046 62.0289 437.687 62.6307 435.428 66.0411C434.963 66.7098 433.036 65.1049 432.172 65.9742Z" fill="#77B8D8"/>
<path fill-rule="evenodd" clip-rule="evenodd" d="M391.772 152.901C387.253 155.509 377.951 147.886 383.399 144.609C386.522 142.737 393.233 145.746 390.841 148.622C390.044 149.558 385.858 149.357 386.256 148.02C386.389 147.619 389.247 148.822 388.383 146.749C387.851 145.412 384.263 144.81 383.731 146.549C383.001 148.755 387.054 150.962 389.247 151.363C390.243 151.564 392.635 152.433 391.772 152.901Z" fill="#FF6A68"/>
<path fill-rule="evenodd" clip-rule="evenodd" d="M395.825 98.2706C392.171 97.4681 394.563 94.7264 397.221 94.3252C402.005 93.5897 404.131 99.3405 401.872 101.748C400.476 103.219 398.417 103.353 396.29 102.818C396.025 102.751 393.5 101.815 394.098 101.28C394.496 100.945 396.157 102.015 396.49 102.082C398.35 102.55 401.008 101.748 401.141 100.076C401.274 98.4043 398.35 94.7264 395.825 96.5319C395.227 97.0669 396.556 98.4712 395.825 98.2706Z" fill="#FFE297"/>
<path fill-rule="evenodd" clip-rule="evenodd" d="M417.819 148.691C417.088 147.888 415.028 148.557 413.965 149.159C413.965 149.159 415.825 151.566 415.958 151.7C417.221 153.372 418.483 156.515 421.208 155.913C421.473 155.846 422.47 155.913 422.603 155.712C423.068 155.177 421.673 154.642 421.141 154.107C419.679 152.636 419.214 150.229 417.819 148.691Z" fill="#F9EAC3"/>
<path fill-rule="evenodd" clip-rule="evenodd" d="M385.858 118.665C386.257 117.729 389.646 119.2 389.912 120.203C390.642 122.811 389.845 125.887 388.184 128.228C387.918 128.629 385.858 130.769 385.327 130.769C385.194 130.769 384.463 129.766 384.463 129.699C385.194 127.358 387.586 126.355 387.254 123.547C387.054 121.875 385.194 120.27 385.858 118.665Z" fill="#F48184"/>
<path fill-rule="evenodd" clip-rule="evenodd" d="M414.696 125.549C412.437 125.75 413.367 127.756 415.56 127.756C417.155 127.756 416.889 125.282 414.696 125.549Z" fill="#F9EAC3"/>
<path fill-rule="evenodd" clip-rule="evenodd" d="M467.454 131.567C467.056 131.166 466.524 130.296 465.993 130.564C463.733 131.567 464.066 132.837 464.929 133.907C465.461 134.643 467.787 134.509 468.252 133.707C468.584 133.105 467.853 131.968 467.454 131.567Z" fill="white"/>
<path fill-rule="evenodd" clip-rule="evenodd" d="M351.307 121.542C348.316 122.011 348.051 118.935 350.642 118.065C357.087 115.925 358.084 121.743 355.559 124.886C352.303 128.898 342.735 126.023 343.2 121.476C343.266 120.74 343.399 119.871 344.13 119.336C344.529 119.068 345.526 118.065 345.459 118.533C345.393 119.001 344.728 119.403 344.595 119.938C344.263 122.345 348.649 126.491 352.037 125.287C354.562 124.418 356.822 119.403 352.37 119.469C351.572 119.536 352.569 121.342 351.307 121.542Z" fill="white"/>
<path fill-rule="evenodd" clip-rule="evenodd" d="M309.312 11.4717C304.793 12.4079 306.588 20.9004 312.103 19.8305C315.292 19.2286 316.089 14.3471 312.435 14.0796C311.239 14.0127 309.312 16.2195 310.641 16.6876C311.039 16.8213 311.438 14.8152 312.767 16.2863C313.631 17.2225 312.302 19.2955 310.641 18.7605C308.448 18.025 308.581 14.8821 309.378 13.5447C309.644 12.9428 310.176 11.2711 309.312 11.4717Z" fill="#FF6A68"/>
<path fill-rule="evenodd" clip-rule="evenodd" d="M194.358 105.761C193.229 107.968 196.684 108.168 198.412 107.032C201.402 105.026 197.681 101.013 194.491 100.947C192.564 100.88 191.368 101.883 190.77 103.22C190.704 103.354 190.172 105.092 190.969 105.092C191.501 105.092 191.368 103.688 191.501 103.488C192.033 102.284 194.092 101.415 195.554 102.15C197.016 102.886 198.611 106.229 195.887 106.63C195.089 106.697 194.624 105.36 194.358 105.761Z" fill="#FFE297"/>
<path fill-rule="evenodd" clip-rule="evenodd" d="M125.585 119.604C125.917 120.407 124.322 121.075 123.259 121.343C123.259 121.343 122.196 119.203 122.129 119.069C121.399 117.598 119.339 115.391 121.199 114.322C121.399 114.255 121.864 113.72 122.063 113.72C122.727 113.787 122.528 114.723 122.661 115.258C123.193 116.729 124.987 118.133 125.585 119.604Z" fill="#FFE297"/>
<path fill-rule="evenodd" clip-rule="evenodd" d="M179.872 81.7524C180.869 82.0199 181.334 79.6126 180.603 78.9439C178.809 77.2721 175.753 76.1353 172.962 75.7341C172.497 75.6673 169.706 75.6004 169.374 75.8679C169.307 75.9347 169.772 76.8041 169.839 76.8709C172.164 77.6734 174.224 77.0047 176.417 78.5427C177.746 79.4789 178.145 81.2843 179.872 81.7524Z" fill="#F48184"/>
<path fill-rule="evenodd" clip-rule="evenodd" d="M134.49 88.0377C134.623 88.4389 135.088 89.1744 134.623 89.3082C132.696 89.91 131.766 89.1744 131.234 88.1714C130.902 87.5696 132.164 86.4328 133.095 86.5665C133.759 86.7002 134.291 87.5696 134.49 88.0377Z" fill="white"/>
<path fill-rule="evenodd" clip-rule="evenodd" d="M148.244 56.8776C148.576 57.3457 147.048 58.0813 146.649 58.4156C146.317 58.6831 146.051 59.5524 145.719 59.2849C145.254 58.8837 145.32 57.8806 144.988 57.3457C144.589 56.6101 143.858 55.9414 143.194 55.4064C142.995 55.2727 142.197 54.9384 142.264 54.6709C142.33 54.2697 143.127 54.0022 143.46 53.7347C143.593 53.6678 143.925 53.2666 144.124 53.2666C144.523 53.2666 144.988 54.1359 145.187 54.2697C146.25 55.139 147.447 55.8745 148.244 56.8776Z" fill="#77B8D8"/>
<path fill-rule="evenodd" clip-rule="evenodd" d="M96.3498 96.1273C97.0807 93.9874 93.4261 93.6531 92.2301 95.4586C89.3064 99.9389 96.1505 101.009 100.071 99.4039C105.121 97.331 102.264 90.3765 96.7485 90.3765C95.8847 90.3765 94.7551 90.4433 94.157 90.9114C93.7584 91.1789 92.5623 91.8476 93.0939 91.7807C93.6919 91.7807 94.2235 91.3126 94.8215 91.2458C97.7452 91.112 102.463 94.5224 100.802 96.8629C99.5393 98.6015 93.4261 99.872 93.8248 96.7291C93.9577 96.1942 96.084 96.9966 96.3498 96.1273Z" fill="white"/>
<path fill-rule="evenodd" clip-rule="evenodd" d="M198.676 45.5129C198.078 44.9111 196.218 46.516 196.351 47.3184C196.616 49.2576 198.145 51.1969 199.939 52.6011C200.204 52.8018 202.264 53.9386 202.729 53.8717C202.796 53.8717 203.062 53.0024 202.995 52.9355C201.799 51.4644 199.872 51.13 199.208 49.1908C198.743 47.9871 199.606 46.516 198.676 45.5129Z" fill="#77B8D8"/>
<path fill-rule="evenodd" clip-rule="evenodd" d="M136.15 14.4118C136.815 13.275 139.539 13.7431 141.001 14.278C141.001 14.278 139.406 17.5547 139.273 17.7553C138.144 20.0289 137.612 24.108 134.024 23.8405C133.692 23.8405 132.429 24.0411 132.23 23.8405C131.499 23.2386 133.094 22.3693 133.559 21.6338C135.021 19.5608 134.888 16.5516 136.15 14.4118Z" fill="#77B8D8"/>
<path fill-rule="evenodd" clip-rule="evenodd" d="M59.4044 60.8923C57.9426 60.2905 57.6104 61.8953 56.3479 62.564C55.0854 63.2327 51.9624 63.4334 51.165 63.9683C50.567 64.3695 51.5637 66.2419 51.9624 66.4425C52.2946 66.5763 54.7531 65.8407 54.9525 65.7738C57.2117 65.0382 62.8597 62.2966 59.4044 60.8923Z" fill="#AC40A4"/>
<path fill-rule="evenodd" clip-rule="evenodd" d="M111.699 44.2382C114.689 41.2959 117.347 45.5756 114.888 46.913C112.828 47.9829 110.702 45.1743 111.699 44.2382Z" fill="#77B8D8"/>
<path fill-rule="evenodd" clip-rule="evenodd" d="M84.5215 26.1827C84.7208 25.3803 87.4451 25.7815 88.3089 25.7146C89.0399 25.6477 90.4353 24.9122 90.4353 25.4471C90.3688 26.3164 89.0399 27.3195 88.7076 28.1888C88.2425 29.3256 88.1761 30.5961 88.1761 31.7998C88.1761 32.1342 88.6412 33.1372 88.2425 33.4047C87.6445 33.8728 86.382 33.5384 85.6511 33.5384C85.3853 33.5384 84.5215 33.6722 84.2557 33.5384C83.857 33.2041 84.3886 31.9335 84.3886 31.5323C84.3886 29.7268 84.0563 27.9213 84.5215 26.1827Z" fill="white"/>
<path fill-rule="evenodd" clip-rule="evenodd" d="M199.874 6.79135C196.286 8.59685 199.94 11.8735 203.595 10.8036C212.764 8.06189 206.452 1.44174 199.94 0.171208C191.568 -1.43368 185.521 8.66372 191.767 12.9434C192.764 13.6121 194.093 14.4146 195.422 14.3477C196.219 14.3477 198.412 14.5483 197.814 14.1471C197.149 13.7459 195.887 13.8127 195.222 13.4115C191.834 11.2717 190.903 3.71533 195.887 2.31105C199.608 1.308 208.246 4.65151 203.661 7.92815C202.731 8.66372 201.336 6.05578 199.874 6.79135Z" fill="white"/>
<path fill-rule="evenodd" clip-rule="evenodd" d="M258.413 41.2997C256.952 40.4972 255.623 38.0899 254.427 37.0868C254.094 36.8194 253.231 36.6188 253.43 36.2175C253.496 36.0169 255.556 36.0838 255.623 36.0838C257.284 35.9501 258.812 35.5488 260.274 34.947C262.998 33.8102 264.061 32.4059 263.796 30.0655C263.796 29.798 263.198 29.1293 263.264 28.9956C263.397 28.4606 264.859 28.7949 265.191 28.8618C266.719 29.0624 268.779 29.7311 269.377 30.9348C269.776 31.6704 267.65 33.8771 267.251 34.3452C265.988 36.1507 261.204 42.8377 258.413 41.2997Z" fill="#77B8D8"/>
<path fill-rule="evenodd" clip-rule="evenodd" d="M257.351 10.3338C253.165 9.93257 253.962 13.5436 256.487 14.8141C260.939 17.2214 266.454 12.0724 265.59 8.79578C265.059 6.78967 262.999 5.98723 260.54 5.78662C260.275 5.78662 257.085 5.85349 257.417 6.58906C257.617 7.12402 259.942 6.52219 260.341 6.58906C262.534 6.7228 264.727 8.5283 263.929 10.2669C263.132 12.0055 258.015 14.7472 256.487 12.0724C256.022 11.3368 258.215 10.4007 257.351 10.3338Z" fill="#FFE297"/>
<path fill-rule="evenodd" clip-rule="evenodd" d="M247.382 92.7174C248.113 93.7205 249.376 92.6505 250.705 92.6505C252.1 92.6505 254.492 93.7204 255.422 93.5867C256.087 93.5198 256.618 91.7812 256.419 91.4469C256.286 91.1794 254.027 90.845 253.761 90.7782C251.635 90.5107 245.721 90.3769 247.382 92.7174Z" fill="#32ABD8"/>
<path fill-rule="evenodd" clip-rule="evenodd" d="M234.094 20.4311C231.968 19.4281 234.028 17.6894 236.287 18.425C237.815 18.96 236.154 21.3673 234.094 20.4311Z" fill="#FFE297"/>
<path fill-rule="evenodd" clip-rule="evenodd" d="M215.888 50.4588C215.888 50.4588 215.688 47.9846 214.492 46.5804C213.296 45.1761 211.236 44.8418 211.236 44.8418C211.236 44.8418 212.964 44.5743 214.16 43.17C215.356 41.8326 215.888 39.3584 215.888 39.3584C215.888 39.3584 216.153 41.9663 217.283 43.3706C218.413 44.7749 220.406 44.9755 220.406 44.9755C220.406 44.9755 218.346 45.1761 217.217 46.5135C216.021 47.9178 215.888 50.4588 215.888 50.4588Z" fill="white"/>
<path fill-rule="evenodd" clip-rule="evenodd" d="M244.392 77.8727C244.392 77.8727 244.127 74.663 242.598 72.8575C241.07 71.052 238.412 70.6508 238.412 70.6508C238.412 70.6508 240.671 70.3164 242.2 68.5109C243.728 66.7723 244.459 63.6294 244.459 63.6294C244.459 63.6294 244.791 66.9729 246.253 68.7784C247.715 70.5839 250.24 70.7845 250.24 70.7845C250.24 70.7845 247.582 70.9851 246.12 72.7906C244.658 74.5961 244.392 77.8727 244.392 77.8727Z" fill="white"/>
<path fill-rule="evenodd" clip-rule="evenodd" d="M197.482 32.9358C197.482 32.9358 197.349 31.264 196.552 30.3278C195.755 29.3917 194.359 29.191 194.359 29.191C194.359 29.191 195.555 28.9904 196.353 28.0543C197.15 27.1181 197.549 25.5132 197.549 25.5132C197.549 25.5132 197.748 27.2518 198.479 28.188C199.21 29.1242 200.539 29.2579 200.539 29.2579C200.539 29.2579 199.144 29.3917 198.413 30.3278C197.615 31.1971 197.482 32.9358 197.482 32.9358Z" fill="white"/>
<path fill-rule="evenodd" clip-rule="evenodd" d="M256.885 123.343C257.549 122.207 260.273 122.675 261.735 123.21C261.735 123.21 260.14 126.486 260.008 126.687C258.878 128.961 258.346 133.04 254.758 132.772C254.426 132.772 253.164 132.973 252.964 132.772C252.233 132.17 253.828 131.301 254.293 130.565C255.689 128.492 255.556 125.483 256.885 123.343Z" fill="#77B8D8"/>
<path fill-rule="evenodd" clip-rule="evenodd" d="M205.189 135.114C205.389 134.312 208.113 134.713 208.977 134.646C209.708 134.579 211.103 133.844 211.103 134.379C211.037 135.248 209.708 136.251 209.376 137.12C208.91 138.257 208.844 139.528 208.844 140.731C208.844 141.066 209.309 142.069 208.91 142.336C208.312 142.804 207.05 142.47 206.319 142.47C206.053 142.47 205.189 142.604 204.924 142.47C204.525 142.136 205.057 140.865 205.057 140.464C205.057 138.658 204.724 136.853 205.189 135.114Z" fill="white"/>
<path fill-rule="evenodd" clip-rule="evenodd" d="M299.012 153.171C295.424 154.976 299.079 158.253 302.733 157.183C311.903 154.441 305.591 147.821 299.079 146.551C290.707 144.946 284.66 155.043 290.906 159.323C291.903 159.991 293.232 160.794 294.56 160.727C295.358 160.727 297.551 160.928 296.953 160.526C296.288 160.125 295.026 160.192 294.361 159.791C290.972 157.651 290.042 150.095 295.026 148.69C298.747 147.687 307.385 151.031 302.8 154.308C301.87 154.976 300.474 152.368 299.012 153.171Z" fill="white"/>
<path fill-rule="evenodd" clip-rule="evenodd" d="M310.176 116.055C307.451 112.311 300.541 117.46 303.73 122.074C305.591 124.748 310.375 123.478 309.112 120.001C308.714 118.864 305.923 117.995 306.056 119.399C306.122 119.867 308.116 119.332 307.318 121.204C306.787 122.408 304.395 122.007 304.195 120.268C303.996 117.928 306.853 116.791 308.381 116.925C308.979 117.058 310.707 116.791 310.176 116.055Z" fill="#FF6A68"/>
<path fill-rule="evenodd" clip-rule="evenodd" d="M262.202 81.7559C262.335 80.0841 263.929 77.8774 264.394 76.3394C264.527 75.9382 264.328 75.0688 264.727 75.0688C264.926 75.0688 265.723 77.0081 265.723 77.0081C266.521 78.4792 267.517 79.6829 268.647 80.8197C270.773 82.8258 272.501 83.227 274.494 82.0233C274.694 81.8896 275.092 81.0872 275.292 81.0872C275.823 80.9534 276.156 82.4914 276.222 82.7589C276.687 84.2301 276.887 86.4368 276.089 87.5067C275.558 88.1754 272.7 87.1055 272.102 86.9717C269.976 86.5705 261.936 84.8988 262.202 81.7559Z" fill="#77B8D8"/>
<path fill-rule="evenodd" clip-rule="evenodd" d="M289.776 67.9744C288.447 63.9622 285.523 66.2358 285.324 69.0443C284.992 74.1264 291.902 77.0687 294.494 74.862C296.088 73.5246 295.956 71.3179 295.158 68.9774C295.092 68.71 293.696 65.8345 293.098 66.4364C292.7 66.8376 294.162 68.71 294.361 69.1112C295.092 71.1842 294.427 73.9258 292.5 73.9258C290.64 73.9258 285.989 70.3148 287.783 67.8406C288.314 67.1719 290.042 68.7768 289.776 67.9744Z" fill="#FFE297"/>
<path fill-rule="evenodd" clip-rule="evenodd" d="M373.499 61.6255C368.981 62.5617 370.775 71.0542 376.29 69.9843C379.479 69.3824 380.277 64.5009 376.622 64.2334C375.426 64.1666 373.499 66.3733 374.828 66.8414C375.227 66.9751 375.625 64.969 376.954 66.4401C377.818 67.3763 376.489 69.4493 374.828 68.9143C372.635 68.1788 372.768 65.0359 373.566 63.6985C373.831 63.0966 374.363 61.4249 373.499 61.6255Z" fill="#FF6A68"/>
<path fill-rule="evenodd" clip-rule="evenodd" d="M322.601 91.4452C321.139 90.6427 319.81 88.2354 318.614 87.2323C318.282 86.9649 317.418 86.7643 317.617 86.363C317.684 86.1624 319.744 86.2293 319.81 86.2293C321.471 86.0956 323 85.6943 324.461 85.0925C327.186 83.9557 328.249 82.5514 327.983 80.211C327.983 79.9435 327.385 79.2748 327.452 79.1411C327.584 78.6061 329.046 78.9404 329.379 79.0073C330.907 79.2079 332.967 79.8766 333.565 81.0803C333.963 81.8159 331.837 84.0226 331.438 84.4907C330.176 86.2293 325.325 92.9832 322.601 91.4452Z" fill="#77B8D8"/>
<path fill-rule="evenodd" clip-rule="evenodd" d="M321.538 60.4871C317.352 60.0859 318.15 63.6969 320.675 64.9674C325.127 67.3747 330.642 62.2257 329.778 58.9491C329.246 56.943 327.186 56.1406 324.728 55.9399C324.462 55.9399 321.273 56.0068 321.605 56.7424C321.804 57.2773 324.13 56.6755 324.529 56.7424C326.721 56.8761 328.914 58.6816 328.117 60.4202C327.319 62.1589 322.203 64.9005 320.675 62.2257C320.21 61.4902 322.336 60.554 321.538 60.4871Z" fill="#FFE297"/>
<path fill-rule="evenodd" clip-rule="evenodd" d="M99.0071 79.8814C94.4888 80.8175 96.2828 89.31 101.798 88.2401C104.987 87.6383 105.785 82.7568 102.13 82.4893C100.934 82.4224 99.0071 84.6291 100.336 85.0972C100.735 85.231 101.133 83.2249 102.462 84.696C103.326 85.6322 101.997 87.7052 100.336 87.1702C98.1433 86.4346 98.2762 83.2917 99.0736 81.9543C99.4058 81.3525 99.871 79.6807 99.0071 79.8814Z" fill="#FF6A68"/>
<path fill-rule="evenodd" clip-rule="evenodd" d="M28.7064 123.751C27.2446 122.949 25.9156 120.542 24.7196 119.538C24.3873 119.271 23.5235 119.07 23.7229 118.669C23.7893 118.469 25.8492 118.535 25.9156 118.535C27.5768 118.402 29.1051 118 30.5669 117.399C33.2912 116.262 34.3544 114.858 34.0886 112.517C34.0886 112.25 33.4906 111.581 33.557 111.447C33.6899 110.912 35.1517 111.247 35.484 111.313C37.0123 111.514 39.0721 112.183 39.6701 113.386C40.0688 114.122 37.9425 116.329 37.5438 116.797C36.2813 118.535 31.4972 125.222 28.7064 123.751Z" fill="#77B8D8"/>
<path fill-rule="evenodd" clip-rule="evenodd" d="M27.644 92.7225C23.4578 92.3212 24.2552 95.9322 26.7801 97.2028C31.2321 99.6101 36.7472 94.4611 35.8834 91.1844C35.3518 89.1783 33.2919 88.3759 30.8334 88.1753C30.5676 88.1753 27.3782 88.2422 27.7104 88.9777C27.9097 89.5127 30.2354 88.9109 30.6341 88.9777C32.8268 89.1115 35.0196 90.917 34.2222 92.6556C33.4248 94.3942 28.3084 97.1359 26.7801 94.4611C26.315 93.7924 28.5078 92.8562 27.644 92.7225Z" fill="#FFE297"/>
</g>
<circle cx="232" cy="88" r="36" fill="#2CAF70"/>
<rect x="200" y="56" width="64" height="64" rx="32" fill="#2CAF70"/>
<path d="M229.936 96L221 87.282L224.223 84.0855L229.936 89.8974L240.777 79L244 82.1966L229.936 96Z" fill="white"/>
</g>
<defs>
<clipPath id="clip0_2727_36008">
<rect width="464" height="148" fill="white"/>
</clipPath>
<clipPath id="clip1_2727_36008">
<rect width="464" height="148" fill="white"/>
</clipPath>
</defs>
</svg>
