<svg width="644" height="194" viewBox="0 0 644 194" fill="none" xmlns="http://www.w3.org/2000/svg">
<g clip-path="url(#clip0_2_16174)">
<path d="M47.2407 76.25L41.5 84.0564L56.0656 94.7676L61.8063 86.9612L47.2407 76.25Z" fill="#0071BC"/>
<path d="M77.9194 36.4001C77.2794 35.6801 76.2295 35.5201 75.4295 36.0101C75.2695 35.6901 75.0995 35.3801 74.9395 35.0601C76.1995 34.4701 77.6895 34.8501 78.4795 35.9501C78.2895 36.1001 78.1094 36.2401 77.9194 36.3901V36.4001Z" fill="#0071BC"/>
<path d="M42.5701 92.6699C44.1101 94.2599 46.5201 94.5399 48.3201 93.3599C48.7201 94.0699 49.1301 94.7699 49.5301 95.4799C46.6901 96.9399 43.2601 96.1899 41.3301 93.7199C41.7401 93.3699 42.1601 93.0199 42.5701 92.6599V92.6699Z" fill="#009245"/>
<path d="M24.1995 35.0996C24.7695 35.2996 25.3995 35.0696 25.6995 34.5596C25.8895 34.6796 26.0695 34.8096 26.2595 34.9396C25.7395 35.6496 24.7995 35.8896 24.0195 35.5196C24.0795 35.3796 24.1395 35.2396 24.1995 35.1096V35.0996Z" fill="#C1272D"/>
<path d="M94.0401 28.9702L92.6777 33.3848L101.516 36.1124L102.879 31.6978L94.0401 28.9702Z" fill="#009245"/>
<path d="M54.5429 41.5973L50.9414 42.4453L52.6398 49.6581L56.2413 48.81L54.5429 41.5973Z" fill="#FCEE21"/>
<path d="M98.1193 102.349L88.5898 106.637L90.7321 111.398L100.262 107.109L98.1193 102.349Z" fill="#FCEE21"/>
<path d="M4.97865 68.3648L0.00585938 73.75L2.69478 76.233L7.66757 70.8478L4.97865 68.3648Z" fill="#662D91"/>
<path d="M107.706 62.4904L105.816 63.7302L109.53 69.3906L111.42 68.1508L107.706 62.4904Z" fill="#FBB03B"/>
<path d="M55.1918 104.978L54.8516 106.14L56.1951 106.533L56.5353 105.372L55.1918 104.978Z" fill="#FBB03B"/>
<path d="M140.96 82.9803C140.72 79.1603 143.09 76.4003 145.5 75.8203C145.35 76.6303 145.44 77.3803 145.69 77.9803C143.94 78.8303 142.51 81.6903 143.94 84.9003C142.87 84.5003 141.85 83.8603 140.97 82.9703L140.96 82.9803Z" fill="#662D91"/>
<path d="M89.14 124.34C87.07 120.78 88.03 116.98 90.06 115.26C90.3 116.12 90.75 116.79 91.28 117.25C90.01 118.91 90 122.36 92.92 124.76C91.7 124.89 90.4 124.76 89.13 124.34H89.14Z" fill="#ED1E79"/>
<path d="M42.4081 55.1142L38.5859 56.9727L42.0098 64.0144L45.8319 62.156L42.4081 55.1142Z" fill="#ED1E79"/>
<path d="M164.988 54.7518L158.197 68.1377L165.367 71.7753L172.158 58.3894L164.988 54.7518Z" fill="#0071BC"/>
<path d="M223.21 27.3295C221.3 30.6995 222.03 34.8895 224.9 37.3195C223.91 38.3495 222.92 39.3695 221.93 40.3995C218.08 36.3595 217.64 30.2095 220.82 25.7695C221.62 26.2895 222.41 26.8095 223.21 27.3295Z" fill="#0071BC"/>
<path d="M170.149 110.2C169.609 109.98 169.009 110.17 168.699 110.64C168.529 110.51 168.359 110.39 168.189 110.26C168.719 109.61 169.619 109.43 170.339 109.82C170.279 109.95 170.219 110.08 170.149 110.2Z" fill="#009245"/>
<path d="M175.619 4.15995C175.459 6.27995 176.799 8.17995 178.789 8.71995C178.539 9.45995 178.289 10.2 178.039 10.94C175.189 9.83995 173.539 6.89995 174.069 3.94995C174.589 4.01995 175.099 4.08995 175.619 4.15995Z" fill="#C1272D"/>
<path d="M170.144 65.8443L169.537 72.5469L182.952 73.7607L183.559 67.0581L170.144 65.8443Z" fill="#009245"/>
<path d="M149.12 68.9503L141.828 71.4229L143.061 75.0595L150.353 72.587L149.12 68.9503Z" fill="#FCEE21"/>
<path d="M206.213 90.0273L199.914 91.3213L200.56 94.4656L206.859 93.1716L206.213 90.0273Z" fill="#FCEE21"/>
<path d="M112.046 96.3263L110.031 101.109L119.616 105.146L121.63 100.363L112.046 96.3263Z" fill="#662D91"/>
<path d="M197.838 99.1276L197.781 100.086L200.666 100.257L200.723 99.2985L197.838 99.1276Z" fill="#FBB03B"/>
<path d="M184.744 113.179L182.59 116.051L185.91 118.541L188.064 115.669L184.744 113.179Z" fill="#FBB03B"/>
<path d="M245.671 85.8697C245.221 86.8697 244.251 87.2597 243.561 87.0797C243.711 86.8897 243.781 86.6897 243.801 86.4997C244.361 86.5197 245.111 85.9797 245.171 84.9697C245.391 85.2197 245.561 85.5197 245.671 85.8597V85.8697Z" fill="#662D91"/>
<path d="M231.63 126.02C230.94 126.57 230.11 126.49 229.68 126.12C229.85 126.04 229.98 125.92 230.06 125.8C230.45 126.02 231.18 125.91 231.6 125.21C231.67 125.46 231.68 125.74 231.63 126.03V126.02Z" fill="#ED1E79"/>
<path d="M228.119 111.061L227.145 113L228.199 113.53L229.173 111.591L228.119 111.061Z" fill="#C1272D"/>
<path d="M136.158 31.2023L136.109 32.4314L136.779 32.4577L136.827 31.2287L136.158 31.2023Z" fill="#ED1E79"/>
<path d="M227.33 47.3553L222.828 51.1992L230.003 59.603L234.505 55.759L227.33 47.3553Z" fill="#0071BC"/>
<path d="M299.109 57.71C302.329 51.74 300.879 44.44 295.779 40.3C297.469 38.47 299.159 36.63 300.849 34.8C307.739 41.72 308.749 52.45 303.349 60.35C301.939 59.47 300.529 58.5901 299.109 57.7201V57.71Z" fill="#0071BC"/>
<path d="M270.13 126.89C269.04 124.16 266.21 122.61 263.41 123.16C263.27 122.09 263.13 121.02 262.99 119.95C267.21 119.58 271.05 122.22 272.18 126.21C271.5 126.43 270.81 126.66 270.13 126.89Z" fill="#009245"/>
<path d="M264.24 18.71C263.96 16.8 262.39 15.39 260.52 15.31C260.59 14.6 260.67 13.9 260.74 13.2C263.48 13.6 265.54 15.87 265.65 18.59C265.18 18.63 264.71 18.67 264.24 18.71Z" fill="#C1272D"/>
<path d="M324.312 33.0949L318.246 33.3184L318.358 36.3463L324.424 36.1228L324.312 33.0949Z" fill="#009245"/>
<path d="M284.657 69.4748L283.311 73.6951L291.77 76.3949L293.117 72.1746L284.657 69.4748Z" fill="#FCEE21"/>
<path d="M262.062 109.072L258.527 113.233L263.336 117.319L266.871 113.158L262.062 109.072Z" fill="#FBB03B"/>
<path d="M321.04 44.13C327.81 42.29 333.65 45.52 335.57 49.63C334.06 49.65 332.75 50.1 331.75 50.77C329.58 47.95 323.91 46.43 318.68 50.19C319 48.12 319.78 46.04 321.04 44.14V44.13Z" fill="#662D91"/>
<path d="M224.247 22.5908L222.918 28.1338L233.138 30.5837L234.467 25.0408L224.247 22.5908Z" fill="#ED1E79"/>
<path d="M366.4 84.033L365.373 84.4792L366.206 86.3962L367.233 85.95L366.4 84.033Z" fill="#0071BC"/>
<path d="M408.78 14.32C407.78 15.87 408.02 17.87 409.32 19.1C408.82 19.56 408.33 20.02 407.83 20.48C406.11 18.46 406.07 15.54 407.7 13.51C408.06 13.78 408.43 14.05 408.79 14.31L408.78 14.32Z" fill="#0071BC"/>
<path d="M349.21 52.3096C350.11 53.1196 351.43 53.1696 352.36 52.4596C352.61 52.8296 352.85 53.1996 353.1 53.5696C351.62 54.4696 349.72 54.1996 348.58 52.9296C348.79 52.7196 349 52.5196 349.21 52.3096Z" fill="#C1272D"/>
<path d="M433.209 36.0182L428.811 37.4958L431.769 46.3022L436.167 44.8245L433.209 36.0182Z" fill="#009245"/>
<path d="M386.892 64.027L383.75 67.4141L390.539 73.7116L393.681 70.3245L386.892 64.027Z" fill="#FCEE21"/>
<path d="M411.738 98.5502L411.549 104.287L423.043 104.666L423.232 98.9295L411.738 98.5502Z" fill="#FCEE21"/>
<path d="M410.635 53.4414L409.773 57.1631L420.948 59.7491L421.809 56.0275L410.635 53.4414Z" fill="#FBB03B"/>
<path d="M367.737 150.468L365.893 150.924L366.288 152.526L368.133 152.07L367.737 150.468Z" fill="#FBB03B"/>
<path d="M447.069 46.9099C451.859 48.7699 453.899 53.2299 453.249 56.4899C452.349 55.8399 451.379 55.5399 450.499 55.4999C450.449 52.8899 447.769 49.5199 443.039 49.4499C444.129 48.3699 445.499 47.4799 447.069 46.9099Z" fill="#662D91"/>
<path d="M402.48 119.35C402.66 115.27 405.5 112.6 408.12 112.27C407.86 113.11 407.88 113.92 408.07 114.59C406.12 115.29 404.26 118.17 405.42 121.74C404.33 121.19 403.32 120.39 402.48 119.35Z" fill="#ED1E79"/>
<path d="M437.035 88.798L432.674 89.821L433.229 92.1868L437.59 91.1638L437.035 88.798Z" fill="#C1272D"/>
<path d="M354.526 57.7544L350.701 60.8486L352.38 62.9245L356.206 59.8302L354.526 57.7544Z" fill="#ED1E79"/>
<path d="M487.31 91.7868L484.984 99.3994L489.058 100.644L491.384 93.0316L487.31 91.7868Z" fill="#0071BC"/>
<path d="M500.729 14.4501C496.429 19.1701 496.089 26.1801 499.819 31.1301C497.859 32.4201 495.889 33.7201 493.929 35.0101C489.199 27.1101 490.719 17.0701 497.449 11.0801C498.539 12.2001 499.629 13.3301 500.729 14.4501Z" fill="#0071BC"/>
<path d="M477.639 105.51C477.059 107.66 478.079 109.87 480.019 110.81C479.619 111.52 479.219 112.23 478.819 112.95C476.099 111.27 474.969 107.92 476.089 104.99C476.609 105.16 477.119 105.34 477.639 105.51Z" fill="#009245"/>
<path d="M473.811 33.1197C474.811 29.8797 473.381 26.4397 470.471 24.9097C471.121 23.8497 471.771 22.7797 472.421 21.7197C476.481 24.4397 478.021 29.5997 476.151 33.9997C475.371 33.7097 474.591 33.4097 473.811 33.1197Z" fill="#C1272D"/>
<path d="M534.114 69.0846L532.451 70.7451L535.779 74.0779L537.442 72.4174L534.114 69.0846Z" fill="#009245"/>
<path d="M476.905 55.1373L475.586 55.1797L475.671 57.8183L476.99 57.7759L476.905 55.1373Z" fill="#FCEE21"/>
<path d="M514.836 105.22L513.043 118.277L519.562 119.173L521.355 106.115L514.836 105.22Z" fill="#FCEE21"/>
<path d="M518.807 75.8151L518.08 84.2539L520.89 84.4958L521.616 76.0569L518.807 75.8151Z" fill="#FBB03B"/>
<path d="M492.554 117.215L490.9 123.097L495.993 124.528L497.646 118.646L492.554 117.215Z" fill="#FBB03B"/>
<path d="M553.471 76C554.681 76.67 555.061 77.93 554.771 78.78C554.551 78.58 554.311 78.46 554.071 78.42C554.151 77.72 553.561 76.72 552.301 76.54C552.631 76.29 553.031 76.1 553.471 76.01V76Z" fill="#662D91"/>
<path d="M538.531 97.7699C536.801 96.8799 536.211 95.1199 536.591 93.9199C536.901 94.1999 537.261 94.3499 537.591 94.3999C537.511 95.3899 538.381 96.7599 540.161 96.9699C539.711 97.3299 539.161 97.6099 538.541 97.7699H538.531Z" fill="#ED1E79"/>
<path d="M462.709 29.5918L459.793 32.752L465.621 38.1298L468.537 34.9696L462.709 29.5918Z" fill="#ED1E79"/>
<path d="M544.963 47.2818L543.305 54.7295L547.297 55.6182L548.955 48.1705L544.963 47.2818Z" fill="#0071BC"/>
<path d="M593.979 130.99C593.629 128.62 591.679 126.86 589.359 126.76C589.449 125.88 589.539 125.01 589.639 124.13C593.049 124.63 595.599 127.46 595.739 130.84C595.159 130.89 594.569 130.94 593.979 130.99Z" fill="#009245"/>
<path d="M580.779 7.63001C581.859 5.65001 581.389 3.22001 579.699 1.83001C580.269 1.22001 580.829 0.61001 581.399 0.0100098C583.679 2.32001 583.999 5.90001 582.189 8.52001C581.719 8.23001 581.249 7.93001 580.779 7.64001V7.63001Z" fill="#C1272D"/>
<path d="M643.517 68.8578L628.492 69.5322L628.829 77.0347L643.854 76.3603L643.517 68.8578Z" fill="#009245"/>
<path d="M562.324 65.7029L561.801 68.7483L567.901 69.7966L568.425 66.7512L562.324 65.7029Z" fill="#FCEE21"/>
<path d="M581.532 90.3523L577.562 91.2068L579.274 99.1547L583.243 98.3002L581.532 90.3523Z" fill="#FCEE21"/>
<path d="M566.536 74.5017L565.422 78.2285L567.281 78.7844L568.395 75.0575L566.536 74.5017Z" fill="#662D91"/>
<path d="M613.256 66.7606L613.154 70.1191L623.22 70.4232L623.321 67.0646L613.256 66.7606Z" fill="#FBB03B"/>
<path d="M575.064 116.872L568.336 117.038L568.479 122.856L575.207 122.69L575.064 116.872Z" fill="#FBB03B"/>
<path d="M633.579 83.96C632.329 89.07 628.079 91.72 624.689 91.48C625.219 90.48 625.399 89.46 625.329 88.57C627.969 88.17 631.029 85.01 630.469 80.21C631.709 81.17 632.789 82.44 633.579 83.96Z" fill="#662D91"/>
<path d="M632.375 122.556L631.076 123.05L631.346 123.76L632.646 123.266L632.375 122.556Z" fill="#C1272D"/>
<path d="M554.254 23.4656L552.523 24.8396L553.269 25.7795L555 24.4056L554.254 23.4656Z" fill="#ED1E79"/>
<path d="M35.9941 174.125L32.7656 187.604L39.9912 189.334L43.2197 175.855L35.9941 174.125Z" fill="#0071BC"/>
<path d="M83.9491 106.69C79.5991 106.38 75.6891 109.16 74.6091 113.26C73.0891 112.75 71.5591 112.25 70.0391 111.74C72.2791 105.86 78.3091 102.43 84.3791 103.51C84.2391 104.57 84.0991 105.63 83.9591 106.69H83.9491Z" fill="#0071BC"/>
<path d="M56.9198 150.74C58.0898 151.57 59.6598 151.44 60.6598 150.47C60.9998 150.87 61.3498 151.27 61.6898 151.67C60.0598 152.95 57.7798 152.89 56.2598 151.56C56.4798 151.29 56.6998 151.01 56.9198 150.73V150.74Z" fill="#C1272D"/>
<path d="M72.8042 147.469L68.9219 152.044L71.2092 153.985L75.0915 149.41L72.8042 147.469Z" fill="#009245"/>
<path d="M74.0301 160.763L63.1621 163.069L64.3141 168.498L75.1822 166.192L74.0301 160.763Z" fill="#FCEE21"/>
<path d="M99.8004 169.248L98.5176 173.593L111.551 177.441L112.834 173.097L99.8004 169.248Z" fill="#FBB03B"/>
<path d="M142.94 178.34C142.41 172 146.25 167.33 150.23 166.28C150 167.63 150.19 168.87 150.62 169.87C147.75 171.35 145.46 176.15 147.95 181.43C146.16 180.81 144.43 179.77 142.94 178.33V178.34Z" fill="#662D91"/>
<path d="M32.2924 145.786L31.4062 149.819L38.8488 151.454L39.7349 147.421L32.2924 145.786Z" fill="#ED1E79"/>
<path d="M169.272 161.218L165.775 162.517L168.202 169.051L171.698 167.752L169.272 161.218Z" fill="#0071BC"/>
<path d="M220.23 155.79C219.44 155.84 218.81 156.43 218.71 157.19C218.42 157.14 218.14 157.08 217.85 157.03C218.11 155.92 219.11 155.16 220.22 155.21V155.79H220.23Z" fill="#0071BC"/>
<path d="M177.031 111.74C176.051 113.81 176.661 116.24 178.461 117.55C177.921 118.2 177.381 118.85 176.851 119.49C174.411 117.28 173.881 113.68 175.561 110.92C176.051 111.19 176.541 111.46 177.041 111.73L177.031 111.74Z" fill="#C1272D"/>
<path d="M201.286 155.243L197.578 159.999L207.089 167.414L210.797 162.658L201.286 155.243Z" fill="#009245"/>
<path d="M152.986 131.523L147.943 134.027L149.193 136.544L154.236 134.04L152.986 131.523Z" fill="#FCEE21"/>
<path d="M224.549 149.89C223.589 142.93 227.559 137.55 231.879 136.17C231.709 137.68 231.989 139.03 232.519 140.11C229.439 141.91 227.199 147.34 230.259 153.02C228.249 152.44 226.279 151.39 224.549 149.9V149.89Z" fill="#662D91"/>
<path d="M138.422 171.115L136.635 175.299L144.341 178.591L146.128 174.406L138.422 171.115Z" fill="#ED1E79"/>
<path d="M239.169 140.58C241.019 141.68 243.349 141.32 244.719 139.75C245.279 140.31 245.839 140.87 246.399 141.43C244.119 143.52 240.709 143.7 238.279 141.89C238.579 141.46 238.869 141.02 239.169 140.58Z" fill="#C1272D"/>
<path d="M250.087 165.117L247.535 165.42L247.686 166.691L250.238 166.388L250.087 165.117Z" fill="#FCEE21"/>
<path d="M250.462 139.82L246.527 141.699L247.549 143.838L251.483 141.959L250.462 139.82Z" fill="#ED1E79"/>
<path d="M422.052 172.804L415.43 176.45L416.645 178.658L423.268 175.011L422.052 172.804Z" fill="#FBB03B"/>
<path d="M427.949 165.88C428.319 161.84 431.259 159.33 433.869 159.11C433.579 159.94 433.559 160.73 433.719 161.41C431.749 162.02 429.779 164.79 430.749 168.38C429.689 167.79 428.719 166.94 427.949 165.88Z" fill="#662D91"/>
<path d="M508.16 156.95C502.04 154.87 495.4 157.37 492.31 162.83C490.32 161.53 488.33 160.23 486.34 158.93C491.76 151.36 501.69 148.72 509.97 152.55C509.37 154.02 508.76 155.48 508.16 156.95Z" fill="#0071BC"/>
<path d="M476.04 159.39C476.25 159.74 476.68 159.88 477.05 159.74C477.09 159.88 477.14 160.03 477.18 160.17C476.61 160.32 476.02 160.05 475.77 159.53C475.86 159.48 475.95 159.44 476.03 159.39H476.04Z" fill="#C1272D"/>
<path d="M489.1 155.797L485.404 160.408L487.706 162.253L491.402 157.641L489.1 155.797Z" fill="#009245"/>
<path d="M503.207 151.406L501.484 156.121L510.933 159.573L512.656 154.858L503.207 151.406Z" fill="#FCEE21"/>
<path d="M563.511 164.45C566.471 165.9 567.541 168.85 566.951 170.9C566.411 170.44 565.811 170.19 565.251 170.12C565.351 168.45 563.821 166.15 560.801 165.86C561.551 165.23 562.471 164.73 563.511 164.45Z" fill="#662D91"/>
<path d="M419.95 143.48L416.674 147.53L424.138 153.568L427.414 149.517L419.95 143.48Z" fill="#ED1E79"/>
<path d="M575.227 173.097L570.076 174.002L571.766 183.615L576.917 182.709L575.227 173.097Z" fill="#0071BC"/>
<path d="M592.179 110.05C592.229 111.23 593.099 112.2 594.239 112.36C594.149 112.79 594.059 113.21 593.969 113.64C592.309 113.22 591.199 111.7 591.299 110.03C591.589 110.03 591.879 110.03 592.169 110.04L592.179 110.05Z" fill="#C1272D"/>
<path d="M629.359 136.721L622.154 137.328L623.37 151.747L630.575 151.139L629.359 136.721Z" fill="#009245"/>
<path d="M568.134 134.211L565.705 137.856L572.995 142.714L575.424 139.069L568.134 134.211Z" fill="#FCEE21"/>
<path d="M521.802 172.204L517.348 176.589L526.131 185.511L530.585 181.126L521.802 172.204Z" fill="#662D91"/>
<path d="M627.061 159.94C630.561 160.63 632.491 163.42 632.441 165.72C631.751 165.39 631.051 165.3 630.451 165.38C630.101 163.61 627.861 161.63 624.631 162.17C625.241 161.3 626.071 160.53 627.071 159.95L627.061 159.94Z" fill="#662D91"/>
<path d="M574.126 137.565L569.729 146.099L574.36 148.485L578.757 139.951L574.126 137.565Z" fill="#ED1E79"/>
</g>
<path d="M330 111.868C307.48 111.868 289 130.277 289 152.709C289 175.141 307.48 193.549 330 193.549C352.52 193.549 371 175.141 371 152.709C371 130.277 352.52 111.868 330 111.868ZM325.038 171.285L307.084 153.4L313.878 146.633L325.353 158.063L348.388 137.203L354.854 144.284L325.038 171.285Z" fill="#22B567"/>
<defs>
<clipPath id="clip0_2_16174">
<rect width="643.85" height="190.59" fill="white"/>
</clipPath>
</defs>
</svg>
