<svg width="36" height="36" viewBox="0 0 36 36" fill="none" xmlns="http://www.w3.org/2000/svg">
<g clip-path="url(#clip0_2816_39302)">
<path d="M18.3077 0.00268041C8.36827 -0.167131 0.172493 7.75287 0.00268219 17.6923C-0.0937706 23.328 2.41808 28.3931 6.41747 31.7615C6.67898 31.5332 6.95951 31.324 7.27129 31.1542L12.6421 28.2246C13.3465 27.8402 13.7852 27.1018 13.7852 26.299V24.0982C13.7852 24.0982 12.2087 22.2126 11.6076 19.5928C11.109 19.2702 10.7748 18.7125 10.7748 18.0774V15.6688C10.7748 15.139 11.0105 14.6655 11.3766 14.3341V10.8523C11.3766 10.8523 10.6614 5.43393 17.9993 5.43393C25.3372 5.43393 24.6219 10.8523 24.6219 10.8523V14.3341C24.9887 14.6655 25.2237 15.139 25.2237 15.6688V18.0774C25.2237 18.8871 24.6803 19.5683 23.9427 19.7959C23.5317 21.0735 22.9388 22.2914 22.1549 23.3986C21.9572 23.6778 21.7725 23.9142 21.6108 24.0982V26.3547C21.6108 27.1854 22.0802 27.9455 22.8233 28.3163L28.5745 31.1916C28.9195 31.3641 29.2313 31.5822 29.5186 31.8246C33.3971 28.5901 35.9028 23.7538 35.9959 18.3077C36.1671 8.36826 28.2477 0.172492 18.3077 0.00268041Z" fill="#2752E7" fill-opacity="0.15"/>
<path d="M12.6429 28.224L7.27212 31.1536C6.95695 31.3254 6.6737 31.5367 6.41016 31.7669C9.54148 34.4072 13.5837 36 18.0001 36C22.384 36 26.4003 34.4309 29.5228 31.8267C29.2348 31.5835 28.9224 31.3648 28.576 31.1923L22.8248 28.317C22.0817 27.9455 21.6123 27.1861 21.6123 26.3554V24.0989C21.774 23.9149 21.9588 23.6785 22.1564 23.3993C22.9403 22.2921 23.5332 21.0743 23.9442 19.7966C24.6819 19.569 25.2253 18.8878 25.2253 18.0781V15.6695C25.2253 15.1397 24.9895 14.6663 24.6234 14.3348V10.853C24.6234 10.853 25.3387 5.43463 18.0008 5.43463C10.6629 5.43463 11.3782 10.853 11.3782 10.853V14.3348C11.0114 14.6663 10.7763 15.1397 10.7763 15.6695V18.0781C10.7763 18.7125 11.1099 19.2709 11.6091 19.5935C12.2109 22.2133 13.7868 24.0989 13.7868 24.0989V26.2997C13.7861 27.1012 13.3473 27.8395 12.6429 28.224Z" fill="#2752E7"/>
</g>
<defs>
<clipPath id="clip0_2816_39302">
<rect width="36" height="36" fill="white"/>
</clipPath>
</defs>
</svg>
