<svg width="66" height="66" viewBox="0 0 66 66" fill="none" xmlns="http://www.w3.org/2000/svg">
    <g clip-path="url(#y1tfubboxa)">
        <path d="M5.472 49.906h55.056a31.436 31.436 0 0 0 4.054-15.488c0-17.443-14.14-31.583-31.582-31.583S1.418 16.975 1.418 34.418a31.433 31.433 0 0 0 4.054 15.488z" fill="#DFEBFA"/>
        <path d="M30.266 44.45s1.914.839 2.734 2.043c.82-1.204 2.734-2.044 2.734-2.044l7.707-3.92c-.646-.2-1.304-.378-1.976-.533-1.309-1.309-1.64-3.79-1.7-5.526-.683.796-1.4 1.461-2.085 1.993a7.626 7.626 0 0 1-4.677 1.6 7.625 7.625 0 0 1-4.677-1.6 14.468 14.468 0 0 1-2.084-1.992c-.06 1.735-.392 4.216-1.7 5.525-.674.155-1.333.334-1.981.535l7.705 3.918z" fill="#FFAA7B"/>
        <path d="M32.683 38.055a7.623 7.623 0 0 1-4.357-1.592 14.454 14.454 0 0 1-2.084-1.993c-.052 1.51-.31 3.583-1.238 4.959 1.319 2.662 3.028 4.89 4.757 3.724 2.131-1.436 2.764-3.572 2.922-5.098z" fill="#FC9460"/>
        <path d="m30.537 44.04-3.42-1.739c-1.455.443-3.442 1.598-3.512 4.614-.982.17-5.93 1.259-5.93 5.881v9.24A31.43 31.43 0 0 0 33 66c.11 0 .22-.003.33-.004V46.834c0-1.569-2.793-2.793-2.793-2.793z" fill="#60B8FE"/>
        <path d="M17.868 62.142v-9.346c0-4.994 5.929-5.715 5.929-5.715 0-3.171 2.129-4.273 3.563-4.656l-4.121-2.097c-8.825 2.878-13.04 4.029-15.237 5.597 2.287 1.562 5.886 4.805 5.886 9.768v3.868a31.617 31.617 0 0 0 3.98 2.581zM42.761 40.328l-7.298 3.712s-2.793 1.225-2.793 2.794v19.162c.11.001.22.004.33.004 1.481 0 2.938-.104 4.366-.301h-.001l8.995-2.658a31.573 31.573 0 0 0 5.752-3.48v-3.868c0-4.963 3.598-8.206 5.886-9.768-2.197-1.568-6.412-2.72-15.237-5.597z" fill="#23A8FE"/>
        <path d="M40.505 37.012a.25.25 0 0 0-.367.17c-.22 1.08-1.177 4.483-4.731 6.503a.634.634 0 0 0-.17.969l3.592 4.113a1.623 1.623 0 0 0 2.656-.298c.91-1.694 2.178-4.272 3.116-7.043a1.438 1.438 0 0 0-.306-1.432 14.931 14.931 0 0 0-3.79-2.982z" fill="#60B8FE"/>
        <path d="M30.595 43.685a9.613 9.613 0 0 1-2.138-1.647c-.865.074-4.626.629-4.841 4.678.32.652.627 1.243.901 1.754a1.623 1.623 0 0 0 2.657.297l3.59-4.113a.634.634 0 0 0-.169-.969z" fill="#23A8FE"/>
        <path d="M25.864 37.182a.25.25 0 0 0-.367-.17 14.93 14.93 0 0 0-3.79 2.983 1.438 1.438 0 0 0-.306 1.43c.71 2.096 1.607 4.08 2.396 5.656 0-4.78 4.84-4.86 4.84-4.86v-.001c-1.974-1.917-2.6-4.19-2.773-5.038z" fill="#60B8FE"/>
        <path d="M51.855 59.756a31.737 31.737 0 0 0 8.673-9.85 16.335 16.335 0 0 0-.792-1.97c-.412-.84-.984-1.498-1.865-2.1-2.279 1.526-6.017 4.8-6.017 9.857v4.063z" fill="#B5B0F7"/>
        <path d="M8.129 45.836c-.881.602-1.453 1.26-1.865 2.1a16.367 16.367 0 0 0-.792 1.97 31.736 31.736 0 0 0 8.673 9.85v-4.063c0-5.057-3.737-8.33-6.016-9.857z" fill="#23A8FE"/>
        <path d="M44.813 54.221H38.82c-.85 0-1.547.696-1.547 1.547v9.41c0 .183.034.357.093.52a31.355 31.355 0 0 0 8.995-2.657v-7.273c0-.85-.696-1.547-1.547-1.547z" fill="#B5B0F7"/>
        <path d="M21.253 20.3h23.625c.042-1.703.326-6.208 2.105-9.418.247-.446.291-.976.119-1.457-.646-1.8-2.574-6.007-6.779-7.13a.281.281 0 0 1-.1-.492l.63-.495a.424.424 0 0 0-.181-.75C37.569-.04 27.265-1.472 24.064 5.11a1.494 1.494 0 0 1-.974.785c-.931.24-2.606.967-3.698 3.144-.214.426-.25.92-.097 1.371.53 1.564 1.823 5.763 1.958 9.89z" fill="#56415E"/>
        <path d="M31.824 9.896C28.051 4.146 34.651.002 34.651.002 30.648.054 26.024 1.08 24.064 5.11a1.494 1.494 0 0 1-.974.785c-.931.24-2.606.967-3.698 3.144-.214.426-.25.92-.097 1.371.53 1.564 1.823 5.763 1.958 9.89h5.5c3.48-2.82 7.313-6.987 5.071-10.404z" fill="#45304C"/>
        <path d="M45.795 19.611c-.53-.485-1.712-.239-2.167.058.1.621.105 1.257.02 1.885l-.538 3.915c0 .316-.01.625-.029.93 1.311.395 2.091-.782 2.2-1.59.048-.347.125-.69.232-1.024.35-1.09 1.607-2.96.282-4.174z" fill="#FFAA7B"/>
        <path d="M20.205 19.611c.53-.485 1.712-.239 2.167.058a6.401 6.401 0 0 0-.019 1.885l.537 3.915c0 .316.01.625.029.93-1.311.395-2.091-.782-2.2-1.59a6.007 6.007 0 0 0-.232-1.024c-.349-1.09-1.607-2.96-.282-4.174z" fill="#FC9460"/>
        <path d="M43.433 18.46a5.219 5.219 0 0 0-.465-.937 2.813 2.813 0 0 1-.425-1.717c.125-1.733.058-5.12-2.216-6.144-1.932-.87-4.302-.366-5.813.136a4.799 4.799 0 0 1-2.918.034c-1.722 1.322-1.762 4.297-1.646 5.882a2.823 2.823 0 0 1-.432 1.725 5.26 5.26 0 0 0-.46.919 6.342 6.342 0 0 0-.359 3.165l.545 3.968c0 5.704 3.045 9.581 5.635 11.593.382.296.791.552 1.218.77a7.59 7.59 0 0 0 1.58-.943c2.556-1.985 5.561-5.812 5.561-11.442l.538-3.915a6.26 6.26 0 0 0-.343-3.095z" fill="#FFC7AB"/>
        <path d="M34.897 36.91c-2.556-1.984-5.561-5.811-5.561-11.441l-.538-3.916a6.26 6.26 0 0 1 .354-3.123 5.19 5.19 0 0 1 .455-.908c.323-.506.47-1.104.426-1.702-.119-1.613-.073-4.688 1.791-5.924a4.748 4.748 0 0 1-.337-.098c-1.512-.502-3.882-1.006-5.813-.136-2.281 1.026-2.342 4.43-2.215 6.158a2.786 2.786 0 0 1-.427 1.702 5.197 5.197 0 0 0-.454.908 6.26 6.26 0 0 0-.354 3.123l.538 3.916c0 5.63 3.005 9.456 5.561 11.442a7.642 7.642 0 0 0 7.964.855 7.583 7.583 0 0 1-1.39-.855z" fill="#FFAA7B"/>
        <path d="M63.773 46H37.188c-.653 0-1.188.535-1.188 1.188v17.623c0 .654.535 1.189 1.188 1.189h26.585c.653 0 1.188-.535 1.188-1.189V47.188c0-.653-.534-1.188-1.188-1.188z" fill="#DFEBFA"/>
        <path d="M37.981 64.811V47.188c0-.653.535-1.188 1.189-1.188h-1.982c-.653 0-1.188.535-1.188 1.188v17.623c0 .654.535 1.189 1.188 1.189h1.982a1.192 1.192 0 0 1-1.189-1.189z" fill="#B1DBFC"/>
        <path d="M50.894 62.03V49.725A.726.726 0 0 0 50.17 49H39.614a.726.726 0 0 0-.724.724V62.03h12.004z" fill="#FF656F"/>
        <path d="M42.154 49h-2.54a.726.726 0 0 0-.724.725V62.03h2.54V49.725c0-.399.326-.724.724-.724z" fill="#FF4756"/>
        <path d="M42.606 59.89c.405.8 1.235 1.382 2.322 1.382.98 0 1.83-.562 2.248-1.38l-.778-.302a.244.244 0 0 1-.156-.227v-.977c-.379.247-.83.392-1.316.392a2.528 2.528 0 0 1-1.387-.396v.98c0 .064-.02.112-.05.148-.054.068-.142.093-.188.111l-.695.27z" fill="#FFBD86"/>
        <path d="M44.891 60.064v-1.287a2.523 2.523 0 0 1-1.352-.396v.98c0 .065-.02.113-.05.148-.054.068-.142.094-.188.112l-.695.27c.234.461.61.85 1.096 1.097.262-.097.5-.177.692-.24a.719.719 0 0 0 .497-.684z" fill="#F6A96C"/>
        <path d="m49.813 60.912-2.723-1.054a2.412 2.412 0 0 1-2.163 1.35c-1.053 0-1.853-.572-2.234-1.351l-2.722 1.055c-.366.15-.812.511-1.081 1.041v.322c0 .398.325.724.724.724H50.17a.726.726 0 0 0 .724-.724v-.32c-.24-.481-.637-.86-1.081-1.043z" fill="#60B8FE"/>
        <path d="M43.792 60.955a2.38 2.38 0 0 1-1.099-1.098l-2.722 1.055c-.366.15-.812.511-1.081 1.041v.322c0 .398.325.724.724.724h.989c.382-.893 2.05-1.631 3.19-2.044z" fill="#23A8FE"/>
        <path d="M62.289 54.989h-6.094a.437.437 0 1 1 0-.874h6.094a.437.437 0 0 1 0 .874zM62.289 56.859h-6.094a.437.437 0 0 1 0-.874h6.094a.437.437 0 0 1 0 .874z" fill="#B1DBFC"/>
        <path d="M61.86 49h-8.163a.429.429 0 0 0-.428.43v.954c0 .236.191.428.428.428h8.163a.429.429 0 0 0 .43-.428v-.955a.429.429 0 0 0-.43-.428z" fill="#FF656F"/>
        <path d="M55.809 50.384v-.955c0-.237.192-.428.428-.428h-2.54a.429.429 0 0 0-.428.428v.955c0 .236.191.428.428.428h2.54a.429.429 0 0 1-.428-.428z" fill="#FF4756"/>
        <path d="M62.289 53.12h-6.094a.437.437 0 1 1 0-.875h6.094a.437.437 0 1 1 0 .874zM62.289 58.728h-6.094a.437.437 0 1 1 0-.874h6.094a.437.437 0 1 1 0 .874zM62.289 60.598h-6.094a.437.437 0 1 1 0-.874h6.094a.437.437 0 0 1 0 .874zM62.289 62.467h-6.094a.437.437 0 0 1 0-.874h6.094a.437.437 0 0 1 0 .874zM54.475 56.859h-1.207a.437.437 0 0 1 0-.874h1.207a.437.437 0 1 1 0 .874zM54.475 53.12h-1.207a.437.437 0 1 1 0-.875h1.207a.437.437 0 1 1 0 .874zM54.475 60.598h-1.207a.437.437 0 1 1 0-.874h1.207a.437.437 0 0 1 0 .874z" fill="#B1DBFC"/>
        <path d="M47.815 54.654a.458.458 0 0 1-.298.11 1.44 1.44 0 0 1-.233-.02v1.799l-.001.066c.602.049 1.185-.395 1.185-.936 0-.411-.265-.887-.654-1.02z" fill="#FFBD86"/>
        <path d="M48.017 54.76a.758.758 0 0 0-.203-.106.458.458 0 0 1-.297.11 1.44 1.44 0 0 1-.233-.02v1.8l-.001.066c.264.021.525-.053.734-.188v-1.661z" fill="#F6A96C"/>
        <path d="M42.499 56.543v-1.78h-.353a.714.714 0 0 1-.268-.052c-.32.162-.563.59-.563.963 0 .54.583.984 1.186.935l-.002-.066z" fill="#FFBD86"/>
        <path d="M42.499 56.422c-.267-.173-.45-.445-.45-.748 0-.328.187-.698.45-.893v-.018h-.353a.714.714 0 0 1-.268-.052c-.32.162-.563.59-.563.963 0 .54.583.984 1.186.935l-.002-.066v-.121z" fill="#F6A96C"/>
        <path d="M46.638 53.936c0-.047-.063-.063-.085-.022a1.7 1.7 0 0 1-1.501.9h-2.605v1.729c0 1.259.986 2.409 2.479 2.409 1.328 0 2.41-1.08 2.41-2.41v-1.746a.882.882 0 0 1-.698-.86z" fill="#FED2A4"/>
        <path d="M43.728 56.543v-1.728h-1.281v1.728c0 1.26.986 2.41 2.479 2.41a2.4 2.4 0 0 0 .619-.082 2.394 2.394 0 0 1-1.817-2.328z" fill="#FFBD86"/>
        <path d="M47.18 51.643a.45.45 0 0 1-.487-.354c-.074-.381-.263-.76-1.001-.76h-2.56c-.94 0-1.703.762-1.703 1.702v1.919c0 .395.321.716.717.716h2.906a1.7 1.7 0 0 0 1.501-.9c.023-.042.086-.026.086.021 0 .484.395.88.878.88.253 0 .46-.208.46-.461v-2c0-.46-.4-.794-.798-.763z" fill="#665E68"/>
        <path d="M42.945 54.15v-1.92c0-.94.761-1.7 1.701-1.7h-1.515c-.94 0-1.702.76-1.702 1.7v1.92c0 .395.321.716.717.716h1.515a.716.716 0 0 1-.716-.716z" fill="#544E55"/>
    </g>
    <defs>
        <clipPath id="y1tfubboxa">
            <path fill="#fff" d="M0 0h66v66H0z"/>
        </clipPath>
    </defs>
</svg>
