<svg width="73" height="72" viewBox="0 0 73 72" fill="none" xmlns="http://www.w3.org/2000/svg">
<rect opacity="0.1" x="0.5" width="72" height="72" rx="7.73684" fill="#FF6A68"/>
<g clip-path="url(#clip0_16_4133)">
<path d="M37.2811 39.5742V42.3296C38.2841 42.1596 38.7856 41.7247 38.7856 41.0235C38.7856 40.2769 37.964 39.8873 37.2811 39.5742Z" fill="#FF6A68"/>
<path d="M34.3385 34.3073C34.3385 35.0893 35.0454 35.4392 35.7665 35.7565V33.1555C34.8145 33.2958 34.3385 33.6797 34.3385 34.3073Z" fill="#FF6A68"/>
<path d="M45.0007 23.25L40.7507 19L36.5007 23.25L32.2507 19L28.0007 23.25L22.334 19V51.5833C22.334 52.3667 22.9687 53 23.7507 53H49.2507C50.0327 53 50.6673 52.3667 50.6673 51.5833V19L45.0007 23.25ZM37.2812 44.9647V47.2342H35.7654V45.01C33.9648 44.9732 32.3852 44.6558 31.0281 44.058V41.1368C32.3031 41.7672 34.3261 42.3197 35.7654 42.409V38.9778C33.231 37.9947 31.0068 37.0412 31.0068 34.3071C31.0068 31.8237 33.2848 30.6563 35.7654 30.4113V28.7169H37.2812V30.3659C38.9699 30.4396 40.4985 30.7796 41.8627 31.3845L40.8229 33.9742C39.6726 33.5024 38.4911 33.2148 37.2812 33.1114V36.3768C39.9701 37.411 42.1177 38.3531 42.1177 40.8592C42.1177 43.5012 39.9233 44.7224 37.2812 44.9647Z" fill="#FF6A68"/>
</g>
<defs>
<clipPath id="clip0_16_4133">
<rect width="34" height="34" fill="white" transform="translate(19.5 19)"/>
</clipPath>
</defs>
</svg>
