<svg width="75" height="74" viewBox="0 0 75 74" fill="none" xmlns="http://www.w3.org/2000/svg">
<g opacity="0.1">
<rect x="0.5" width="74" height="74" rx="6" fill="#2752E7"/>
</g>
<mask id="path-2-inside-1_16_4190" fill="white">
<path fillRule="evenodd" clipRule="evenodd" d="M45.9706 31.9901V36.0819C46.6834 34.8563 47.086 33.465 47.086 31.9901C47.086 27.0622 42.5918 23.0674 37.0479 23.0674C31.504 23.0674 27.0098 27.0622 27.0098 31.9901C27.0098 33.465 27.4123 34.8563 28.1251 36.0819V31.9901C28.1251 27.7981 31.9928 24.1827 37.0479 24.1827C42.1029 24.1827 45.9706 27.7981 45.9706 31.9901Z"/>
</mask>
<path fillRule="evenodd" clipRule="evenodd" d="M45.9706 31.9901V36.0819C46.6834 34.8563 47.086 33.465 47.086 31.9901C47.086 27.0622 42.5918 23.0674 37.0479 23.0674C31.504 23.0674 27.0098 27.0622 27.0098 31.9901C27.0098 33.465 27.4123 34.8563 28.1251 36.0819V31.9901C28.1251 27.7981 31.9928 24.1827 37.0479 24.1827C42.1029 24.1827 45.9706 27.7981 45.9706 31.9901Z" fill="#2752E7"/>
<path d="M45.9706 36.0819H43.9706V43.4992L47.6995 37.0874L45.9706 36.0819ZM28.1251 36.0819L26.3962 37.0874L30.1251 43.4992V36.0819H28.1251ZM43.9706 31.9901V36.0819H47.9706V31.9901H43.9706ZM47.6995 37.0874C48.5805 35.5726 49.086 33.8365 49.086 31.9901H45.086C45.086 33.0935 44.7864 34.14 44.2417 35.0765L47.6995 37.0874ZM49.086 31.9901C49.086 25.7427 43.4684 21.0674 37.0479 21.0674V25.0674C41.7151 25.0674 45.086 28.3818 45.086 31.9901H49.086ZM37.0479 21.0674C30.6274 21.0674 25.0098 25.7427 25.0098 31.9901H29.0098C29.0098 28.3818 32.3806 25.0674 37.0479 25.0674V21.0674ZM25.0098 31.9901C25.0098 33.8365 25.5153 35.5726 26.3962 37.0874L29.854 35.0765C29.3094 34.14 29.0098 33.0935 29.0098 31.9901H25.0098ZM30.1251 36.0819V31.9901H26.1251V36.0819H30.1251ZM37.0479 22.1827C31.107 22.1827 26.1251 26.4868 26.1251 31.9901H30.1251C30.1251 29.1093 32.8787 26.1827 37.0479 26.1827V22.1827ZM47.9706 31.9901C47.9706 26.4868 42.9888 22.1827 37.0479 22.1827V26.1827C41.217 26.1827 43.9706 29.1093 43.9706 31.9901H47.9706Z" fill="#2752E7" mask="url(#path-2-inside-1_16_4190)"/>
<mask id="path-4-inside-2_16_4190" fill="white">
<path fillRule="evenodd" clipRule="evenodd" d="M48.2011 23.0671H25.8942V21.9517H48.2011V23.0671Z"/>
<path d="M24.5 21.9517C24.5 21.4898 24.8745 21.1152 25.3365 21.1152H26.4519C26.9138 21.1152 27.2884 21.4898 27.2884 21.9517V23.0671C27.2884 23.5291 26.9138 23.9036 26.4519 23.9036H25.3365C24.8745 23.9036 24.5 23.5291 24.5 23.0671V21.9517Z"/>
<path d="M46.8069 21.9517C46.8069 21.4898 47.1814 21.1152 47.6434 21.1152H48.7587C49.2207 21.1152 49.5953 21.4898 49.5953 21.9517V23.0671C49.5953 23.5291 49.2207 23.9036 48.7587 23.9036H47.6434C47.1814 23.9036 46.8069 23.5291 46.8069 23.0671V21.9517Z"/>
</mask>
<path fillRule="evenodd" clipRule="evenodd" d="M48.2011 23.0671H25.8942V21.9517H48.2011V23.0671Z" fill="#2752E7"/>
<path d="M24.5 21.9517C24.5 21.4898 24.8745 21.1152 25.3365 21.1152H26.4519C26.9138 21.1152 27.2884 21.4898 27.2884 21.9517V23.0671C27.2884 23.5291 26.9138 23.9036 26.4519 23.9036H25.3365C24.8745 23.9036 24.5 23.5291 24.5 23.0671V21.9517Z" fill="#2752E7"/>
<path d="M46.8069 21.9517C46.8069 21.4898 47.1814 21.1152 47.6434 21.1152H48.7587C49.2207 21.1152 49.5953 21.4898 49.5953 21.9517V23.0671C49.5953 23.5291 49.2207 23.9036 48.7587 23.9036H47.6434C47.1814 23.9036 46.8069 23.5291 46.8069 23.0671V21.9517Z" fill="#2752E7"/>
<path d="M25.8942 23.0671H23.8942V25.0671H25.8942V23.0671ZM48.2011 23.0671V25.0671H50.2011V23.0671H48.2011ZM25.8942 21.9517V19.9517H23.8942V21.9517H25.8942ZM48.2011 21.9517H50.2011V19.9517H48.2011V21.9517ZM25.8942 25.0671H48.2011V21.0671H25.8942V25.0671ZM23.8942 21.9517V23.0671H27.8942V21.9517H23.8942ZM48.2011 19.9517H25.8942V23.9517H48.2011V19.9517ZM50.2011 23.0671V21.9517H46.2011V23.0671H50.2011ZM25.3365 23.1152H26.4519V19.1152H25.3365V23.1152ZM25.2884 21.9517V23.0671H29.2884V21.9517H25.2884ZM26.4519 21.9036H25.3365V25.9036H26.4519V21.9036ZM26.5 23.0671V21.9517H22.5V23.0671H26.5ZM25.3365 21.9036C25.9791 21.9036 26.5 22.4245 26.5 23.0671H22.5C22.5 24.6336 23.7699 25.9036 25.3365 25.9036V21.9036ZM25.2884 23.0671C25.2884 22.4245 25.8093 21.9036 26.4519 21.9036V25.9036C28.0184 25.9036 29.2884 24.6336 29.2884 23.0671H25.2884ZM26.4519 23.1152C25.8093 23.1152 25.2884 22.5943 25.2884 21.9517H29.2884C29.2884 20.3852 28.0184 19.1152 26.4519 19.1152V23.1152ZM25.3365 19.1152C23.7699 19.1152 22.5 20.3852 22.5 21.9517H26.5C26.5 22.5943 25.9791 23.1152 25.3365 23.1152V19.1152ZM47.6434 23.1152H48.7587V19.1152H47.6434V23.1152ZM47.5953 21.9517V23.0671H51.5953V21.9517H47.5953ZM48.7587 21.9036H47.6434V25.9036H48.7587V21.9036ZM48.8069 23.0671V21.9517H44.8069V23.0671H48.8069ZM47.6434 21.9036C48.286 21.9036 48.8069 22.4245 48.8069 23.0671H44.8069C44.8069 24.6336 46.0768 25.9036 47.6434 25.9036V21.9036ZM47.5953 23.0671C47.5953 22.4245 48.1162 21.9036 48.7587 21.9036V25.9036C50.3253 25.9036 51.5953 24.6336 51.5953 23.0671H47.5953ZM48.7587 23.1152C48.1162 23.1152 47.5953 22.5943 47.5953 21.9517H51.5953C51.5953 20.3852 50.3253 19.1152 48.7587 19.1152V23.1152ZM47.6434 19.1152C46.0768 19.1152 44.8069 20.3852 44.8069 21.9517H48.8069C48.8069 22.5943 48.286 23.1152 47.6434 23.1152V19.1152Z" fill="#2752E7" mask="url(#path-4-inside-2_16_4190)"/>
<path d="M27.5657 35.731C26.578 35.731 25.7773 34.9303 25.7773 33.9427C25.7773 32.955 26.578 32.1543 27.5657 32.1543C28.5534 32.1543 29.3541 32.955 29.3541 33.9427C29.3541 34.9303 28.5534 35.731 27.5657 35.731Z" fill="white" stroke="#2752E7" strokeWidth="2"/>
<mask id="path-7-inside-3_16_4190" fill="white">
<path fillRule="evenodd" clipRule="evenodd" d="M25.8927 33.9427C25.8927 34.8666 26.6417 35.6157 27.5657 35.6157C28.4897 35.6157 29.2387 34.8666 29.2387 33.9427C29.2387 33.0187 28.4897 32.2696 27.5657 32.2696C26.6417 32.2696 25.8927 33.0187 25.8927 33.9427ZM27.5657 31.1543C26.0257 31.1543 24.7773 32.4027 24.7773 33.9427C24.7773 35.4826 26.0257 36.731 27.5657 36.731C29.1057 36.731 30.3541 35.4826 30.3541 33.9427C30.3541 32.4027 29.1057 31.1543 27.5657 31.1543Z"/>
</mask>
<path fillRule="evenodd" clipRule="evenodd" d="M25.8927 33.9427C25.8927 34.8666 26.6417 35.6157 27.5657 35.6157C28.4897 35.6157 29.2387 34.8666 29.2387 33.9427C29.2387 33.0187 28.4897 32.2696 27.5657 32.2696C26.6417 32.2696 25.8927 33.0187 25.8927 33.9427ZM27.5657 31.1543C26.0257 31.1543 24.7773 32.4027 24.7773 33.9427C24.7773 35.4826 26.0257 36.731 27.5657 36.731C29.1057 36.731 30.3541 35.4826 30.3541 33.9427C30.3541 32.4027 29.1057 31.1543 27.5657 31.1543Z" fill="#2752E7"/>
<path d="M27.5657 33.6157C27.7463 33.6157 27.8927 33.7621 27.8927 33.9427H23.8927C23.8927 35.9712 25.5372 37.6157 27.5657 37.6157V33.6157ZM27.2387 33.9427C27.2387 33.7621 27.3851 33.6157 27.5657 33.6157V37.6157C29.5943 37.6157 31.2387 35.9712 31.2387 33.9427H27.2387ZM27.5657 34.2696C27.3851 34.2696 27.2387 34.1232 27.2387 33.9427H31.2387C31.2387 31.9141 29.5943 30.2696 27.5657 30.2696V34.2696ZM27.8927 33.9427C27.8927 34.1232 27.7463 34.2696 27.5657 34.2696V30.2696C25.5372 30.2696 23.8927 31.9141 23.8927 33.9427H27.8927ZM26.7773 33.9427C26.7773 33.5073 27.1303 33.1543 27.5657 33.1543V29.1543C24.9212 29.1543 22.7773 31.2981 22.7773 33.9427H26.7773ZM27.5657 34.731C27.1303 34.731 26.7773 34.3781 26.7773 33.9427H22.7773C22.7773 36.5872 24.9212 38.731 27.5657 38.731V34.731ZM28.3541 33.9427C28.3541 34.3781 28.0011 34.731 27.5657 34.731V38.731C30.2102 38.731 32.3541 36.5872 32.3541 33.9427H28.3541ZM27.5657 33.1543C28.0011 33.1543 28.3541 33.5073 28.3541 33.9427H32.3541C32.3541 31.2981 30.2102 29.1543 27.5657 29.1543V33.1543Z" fill="#2752E7" mask="url(#path-7-inside-3_16_4190)"/>
<path d="M37.0481 24.5767C36.0604 24.5767 35.2598 23.776 35.2598 22.7884C35.2598 21.8007 36.0604 21 37.0481 21C38.0358 21 38.8365 21.8007 38.8365 22.7884C38.8365 23.776 38.0358 24.5767 37.0481 24.5767Z" fill="white" stroke="#2752E7" strokeWidth="2"/>
<mask id="path-10-inside-4_16_4190" fill="white">
<path fillRule="evenodd" clipRule="evenodd" d="M35.3751 22.7884C35.3751 23.7123 36.1241 24.4614 37.0481 24.4614C37.9721 24.4614 38.7211 23.7123 38.7211 22.7884C38.7211 21.8644 37.9721 21.1153 37.0481 21.1153C36.1241 21.1153 35.3751 21.8644 35.3751 22.7884ZM37.0481 20C35.5082 20 34.2598 21.2484 34.2598 22.7884C34.2598 24.3283 35.5082 25.5767 37.0481 25.5767C38.5881 25.5767 39.8365 24.3283 39.8365 22.7884C39.8365 21.2484 38.5881 20 37.0481 20Z"/>
</mask>
<path fillRule="evenodd" clipRule="evenodd" d="M35.3751 22.7884C35.3751 23.7123 36.1241 24.4614 37.0481 24.4614C37.9721 24.4614 38.7211 23.7123 38.7211 22.7884C38.7211 21.8644 37.9721 21.1153 37.0481 21.1153C36.1241 21.1153 35.3751 21.8644 35.3751 22.7884ZM37.0481 20C35.5082 20 34.2598 21.2484 34.2598 22.7884C34.2598 24.3283 35.5082 25.5767 37.0481 25.5767C38.5881 25.5767 39.8365 24.3283 39.8365 22.7884C39.8365 21.2484 38.5881 20 37.0481 20Z" fill="#2752E7"/>
<path d="M37.0481 22.4614C37.2287 22.4614 37.3751 22.6078 37.3751 22.7884H33.3751C33.3751 24.8169 35.0196 26.4614 37.0481 26.4614V22.4614ZM36.7211 22.7884C36.7211 22.6078 36.8675 22.4614 37.0481 22.4614V26.4614C39.0767 26.4614 40.7211 24.8169 40.7211 22.7884H36.7211ZM37.0481 23.1153C36.8675 23.1153 36.7211 22.9689 36.7211 22.7884H40.7211C40.7211 20.7598 39.0767 19.1153 37.0481 19.1153V23.1153ZM37.3751 22.7884C37.3751 22.9689 37.2287 23.1153 37.0481 23.1153V19.1153C35.0196 19.1153 33.3751 20.7598 33.3751 22.7884H37.3751ZM36.2598 22.7884C36.2598 22.353 36.6127 22 37.0481 22V18C34.4036 18 32.2598 20.1438 32.2598 22.7884H36.2598ZM37.0481 23.5767C36.6127 23.5767 36.2598 23.2238 36.2598 22.7884H32.2598C32.2598 25.4329 34.4036 27.5767 37.0481 27.5767V23.5767ZM37.8365 22.7884C37.8365 23.2238 37.4835 23.5767 37.0481 23.5767V27.5767C39.6927 27.5767 41.8365 25.4329 41.8365 22.7884H37.8365ZM37.0481 22C37.4835 22 37.8365 22.353 37.8365 22.7884H41.8365C41.8365 20.1438 39.6927 18 37.0481 18V22Z" fill="#2752E7" mask="url(#path-10-inside-4_16_4190)"/>
<path d="M46.5286 35.731C45.5409 35.731 44.7402 34.9303 44.7402 33.9427C44.7402 32.955 45.5409 32.1543 46.5286 32.1543C47.5163 32.1543 48.317 32.955 48.317 33.9427C48.317 34.9303 47.5163 35.731 46.5286 35.731Z" fill="white" stroke="#2752E7" strokeWidth="2"/>
<mask id="path-13-inside-5_16_4190" fill="white">
<path fillRule="evenodd" clipRule="evenodd" d="M44.8556 33.9427C44.8556 34.8666 45.6046 35.6157 46.5286 35.6157C47.4526 35.6157 48.2016 34.8666 48.2016 33.9427C48.2016 33.0187 47.4526 32.2696 46.5286 32.2696C45.6046 32.2696 44.8556 33.0187 44.8556 33.9427ZM46.5286 31.1543C44.9886 31.1543 43.7402 32.4027 43.7402 33.9427C43.7402 35.4826 44.9886 36.731 46.5286 36.731C48.0686 36.731 49.317 35.4826 49.317 33.9427C49.317 32.4027 48.0686 31.1543 46.5286 31.1543Z"/>
</mask>
<path fillRule="evenodd" clipRule="evenodd" d="M44.8556 33.9427C44.8556 34.8666 45.6046 35.6157 46.5286 35.6157C47.4526 35.6157 48.2016 34.8666 48.2016 33.9427C48.2016 33.0187 47.4526 32.2696 46.5286 32.2696C45.6046 32.2696 44.8556 33.0187 44.8556 33.9427ZM46.5286 31.1543C44.9886 31.1543 43.7402 32.4027 43.7402 33.9427C43.7402 35.4826 44.9886 36.731 46.5286 36.731C48.0686 36.731 49.317 35.4826 49.317 33.9427C49.317 32.4027 48.0686 31.1543 46.5286 31.1543Z" fill="#2752E7"/>
<path d="M46.5286 33.6157C46.7092 33.6157 46.8556 33.7621 46.8556 33.9427H42.8556C42.8556 35.9712 44.5 37.6157 46.5286 37.6157V33.6157ZM46.2016 33.9427C46.2016 33.7621 46.348 33.6157 46.5286 33.6157V37.6157C48.5571 37.6157 50.2016 35.9712 50.2016 33.9427H46.2016ZM46.5286 34.2696C46.348 34.2696 46.2016 34.1232 46.2016 33.9427H50.2016C50.2016 31.9141 48.5571 30.2696 46.5286 30.2696V34.2696ZM46.8556 33.9427C46.8556 34.1232 46.7092 34.2696 46.5286 34.2696V30.2696C44.5 30.2696 42.8556 31.9141 42.8556 33.9427H46.8556ZM45.7402 33.9427C45.7402 33.5073 46.0932 33.1543 46.5286 33.1543V29.1543C43.8841 29.1543 41.7402 31.2981 41.7402 33.9427H45.7402ZM46.5286 34.731C46.0932 34.731 45.7402 34.3781 45.7402 33.9427H41.7402C41.7402 36.5872 43.8841 38.731 46.5286 38.731V34.731ZM47.317 33.9427C47.317 34.3781 46.964 34.731 46.5286 34.731V38.731C49.1731 38.731 51.317 36.5872 51.317 33.9427H47.317ZM46.5286 33.1543C46.964 33.1543 47.317 33.5073 47.317 33.9427H51.317C51.317 31.2981 49.1731 29.1543 46.5286 29.1543V33.1543Z" fill="#2752E7" mask="url(#path-13-inside-5_16_4190)"/>
<path d="M40.3379 50.4937C40.3379 50.0795 40.5198 49.6639 40.8719 49.4456C42.8668 48.209 44.1955 45.9996 44.1955 43.4799C44.1955 40.5882 40.2866 34.1963 38.3051 31.1418C37.7711 30.3186 36.5924 30.3186 36.0584 31.1418C34.0768 34.1963 30.168 40.5882 30.168 43.4799C30.168 45.9996 31.4966 48.209 33.4916 49.4456C33.8436 49.6639 34.0255 50.0795 34.0255 50.4937V51.1951C34.0255 52.7445 35.2816 54.0006 36.8311 54.0006H37.5324C39.0819 54.0006 40.3379 52.7445 40.3379 51.1951V50.4937Z" fill="#2752E7"/>
<path fillRule="evenodd" clipRule="evenodd" d="M40.1328 48.2534C41.7324 47.2618 42.7928 45.4941 42.7928 43.48C42.7928 43.0177 42.6234 42.2697 42.2413 41.2567C41.8714 40.276 41.3487 39.1656 40.7505 38.0222C39.5765 35.7783 38.1613 33.5009 37.1817 31.9877C36.2022 33.5009 34.787 35.7783 33.613 38.0222C33.0148 39.1656 32.4921 40.276 32.1222 41.2567C31.7401 42.2697 31.5707 43.0177 31.5707 43.48C31.5707 45.4941 32.631 47.2618 34.2307 48.2534C35.0873 48.7844 35.4283 49.713 35.4283 50.4937V51.1951C35.4283 51.9698 36.0563 52.5979 36.831 52.5979H37.5324C38.3071 52.5979 38.9352 51.9698 38.9352 51.1951V50.4937C38.9352 49.713 39.2762 48.7844 40.1328 48.2534ZM40.8719 49.4456C40.5198 49.6639 40.3379 50.0795 40.3379 50.4937V51.1951C40.3379 52.7445 39.0819 54.0006 37.5324 54.0006H36.831C35.2816 54.0006 34.0255 52.7445 34.0255 51.1951V50.4937C34.0255 50.0795 33.8436 49.6639 33.4916 49.4456C31.4966 48.209 30.168 45.9996 30.168 43.48C30.168 40.5882 34.0768 34.1963 36.0584 31.1418C36.5924 30.3186 37.7711 30.3186 38.3051 31.1418C40.2866 34.1963 44.1955 40.5882 44.1955 43.48C44.1955 45.9996 42.8668 48.209 40.8719 49.4456Z" fill="#2752E7"/>
<path fillRule="evenodd" clipRule="evenodd" d="M36.4801 42.7788L36.4801 31.2061L37.8828 31.2061L37.8828 42.7788L36.4801 42.7788Z" fill="#2752E7"/>
<circle cx="37.1821" cy="43.4799" r="1.40275" fill="white"/>
</svg>
