<svg width="73" height="72" viewBox="0 0 73 72" fill="none" xmlns="http://www.w3.org/2000/svg">
<rect opacity="0.1" x="0.5" width="72" height="72" rx="8" fill="#2752E7"/>
<path fillRule="evenodd" clipRule="evenodd" d="M34.3559 21.9717C33.2471 21.9717 32.3038 22.7422 32.0391 23.7807H40.9423C40.6775 22.7422 39.7343 21.9717 38.6255 21.9717H34.3559ZM43.4583 23.7804H46.735C50.2102 23.7804 53.0401 26.6447 53.0401 30.1621C53.0401 30.1621 52.9408 31.6512 52.9077 33.7248C52.9044 33.889 52.8249 34.0498 52.6942 34.1469C51.8982 34.7348 51.17 35.2206 51.1039 35.2541C48.3568 37.0966 45.1645 38.393 41.7637 39.0379C41.5419 39.0814 41.3235 38.9658 41.211 38.7682C40.2578 37.1167 38.4771 36.0413 36.4912 36.0413C34.5186 36.0413 32.7214 37.1049 31.7401 38.7581C31.6259 38.9524 31.4108 39.0647 31.1907 39.0228C27.818 38.3762 24.6258 37.0815 21.8952 35.2708L20.3065 34.1653C20.1741 34.0816 20.0914 33.9308 20.0914 33.7633C20.0417 32.9091 19.959 30.1621 19.959 30.1621C19.959 26.6447 22.7888 23.7804 26.2641 23.7804H29.5242C29.8386 21.3517 31.8741 19.459 34.3565 19.459H38.626C41.1084 19.459 43.1439 21.3517 43.4583 23.7804ZM52.476 37.3483L52.4098 37.3818C49.0669 39.6263 45.0456 41.1171 40.8256 41.7368C40.2299 41.8205 39.6341 41.4353 39.4686 40.8323C39.1045 39.4588 37.9296 38.5543 36.5229 38.5543H36.5064H36.4733C35.0666 38.5543 33.8917 39.4588 33.5276 40.8323C33.3621 41.4353 32.7663 41.8205 32.1706 41.7368C27.9506 41.1171 23.9293 39.6263 20.5864 37.3818C20.5699 37.3651 20.4044 37.2646 20.272 37.3483C20.123 37.4321 20.123 37.6331 20.123 37.6331L20.2389 46.1755C20.2389 49.693 23.0522 52.5404 26.5274 52.5404H46.4522C49.9275 52.5404 52.7408 49.693 52.7408 46.1755L52.8731 37.6331C52.8731 37.6331 52.8731 37.4321 52.7242 37.3483C52.6415 37.2981 52.5422 37.3148 52.476 37.3483ZM37.7304 44.3662C37.7304 45.0697 37.1843 45.6224 36.4892 45.6224C35.8107 45.6224 35.248 45.0697 35.248 44.3662V42.2055C35.248 41.5187 35.8107 40.9492 36.4892 40.9492C37.1843 40.9492 37.7304 41.5187 37.7304 42.2055V44.3662Z" fill="#2752E7"/>
</svg>
