<svg width="75" height="74" viewBox="0 0 75 74" fill="none" xmlns="http://www.w3.org/2000/svg">
<g opacity="0.1">
<rect x="0.5" width="74" height="74" rx="6" fill="#FFDF6C"/>
</g>
<path fillRule="evenodd" clipRule="evenodd" d="M28.7632 20C26.4087 20 24.5 21.9087 24.5 24.2632V49.7368C24.5 52.0913 26.4087 54 28.7632 54H46.8455C49.2 54 51.1087 52.0913 51.1087 49.7368V24.2632C51.1087 21.9087 49.2 20 46.8455 20H28.7632ZM30.7922 35.2578H44.3767C45.0069 35.2578 45.497 35.7536 45.5321 36.3911C45.5321 37.0286 45.0419 37.5245 44.4117 37.5245H30.7922C30.162 37.5245 29.6719 37.0286 29.6719 36.3911C29.6719 35.7536 30.162 35.2578 30.7922 35.2578ZM44.3767 40.7471H30.7922C30.162 40.7471 29.6719 41.2429 29.6719 41.8804C29.6719 42.5179 30.162 43.0137 30.7922 43.0137H44.4117C45.0419 43.0137 45.5321 42.5179 45.5321 41.8804C45.497 41.2429 45.0069 40.7471 44.3767 40.7471ZM30.7922 46.2363H44.3767C45.0069 46.2363 45.5321 46.7322 45.5321 47.3697C45.5321 48.0072 45.0419 48.503 44.4117 48.503H30.7922C30.162 48.503 29.6719 48.0072 29.6719 47.3697C29.6719 46.7322 30.162 46.2363 30.7922 46.2363ZM40.5265 32.0702C40.5265 30.689 40.0713 29.5202 39.126 28.9182C39.091 28.8827 39.021 28.8827 38.986 28.9182C38.6008 29.2015 38.1107 29.3786 37.5855 29.3786C37.0603 29.3786 36.5702 29.2015 36.185 28.9182C36.15 28.8827 36.08 28.8827 36.045 28.9182C35.0997 29.5202 34.6445 30.7244 34.6445 32.0702C34.6445 33.0265 40.5265 33.0265 40.5265 32.0702ZM39.3351 27.0052C39.3351 27.9832 38.5514 28.776 37.5846 28.776C36.6177 28.776 35.834 27.9832 35.834 27.0052C35.834 26.0272 36.6177 25.2344 37.5846 25.2344C38.5514 25.2344 39.3351 26.0272 39.3351 27.0052Z" fill="#FFDF6C"/>
</svg>
