<svg width="618" height="618" viewBox="0 0 618 618" fill="none" xmlns="http://www.w3.org/2000/svg">
<path d="M161.174 181.967C218.238 124.812 201.901 88.9933 240.945 62.5327C301.022 21.8131 413.15 56.8444 479.303 112.851C560.328 181.447 602.127 306.692 554.511 419.998C503.797 540.666 370.364 603.303 251.303 584.427C144.98 567.57 40.4627 484.178 29.9905 384.158C28.855 373.318 23.8443 314.718 58.9882 264.193C88.0374 222.43 115.941 227.275 161.174 181.967Z" fill="#BEFDFF"/>
<path d="M196.183 503.327C205.48 496.607 215.224 490.362 225.194 484.421C245.432 472.359 266.718 461.64 288.224 451.27C299.536 445.814 311.267 440.907 322.854 435.853C334.508 430.766 346.191 425.727 357.881 420.694C368.559 416.094 379.239 411.493 389.902 406.865C415.378 332.497 440.849 231.39 435.668 231.286L50.8468 228.468C41.5768 228.286 28.676 236.794 30.1357 245.37L72.9741 497.087C74.4338 505.661 83.163 512.786 92.4346 512.967L180.076 514.675C185.321 510.762 190.875 507.162 196.183 503.327Z" fill="#5479F7"/>
<path d="M50.5673 229.451C44.9192 229.451 37.8074 232.815 33.8958 237.358C32.325 239.182 30.5668 242.024 31.1075 245.204L73.9443 496.922C75.3283 505.053 83.6311 511.808 92.4513 511.982L179.757 513.684C182.642 511.541 185.655 509.467 188.57 507.455C190.893 505.856 193.294 504.198 195.605 502.53C204.197 496.317 213.71 490.118 224.688 483.575C246.071 470.828 268.587 459.642 287.793 450.384C296.568 446.152 305.73 442.19 314.59 438.36C317.216 437.225 319.838 436.092 322.453 434.948C334.101 429.867 345.674 424.88 357.487 419.789C367.271 415.576 378.339 410.806 389.106 406.134C400.289 373.448 412.764 331.615 422.511 294.125C432.542 255.543 436.114 235.289 435.277 232.272L50.8393 229.455C50.7484 229.451 50.6582 229.451 50.5673 229.451ZM180.394 515.668L180.056 515.662L92.4135 513.955C82.6928 513.763 73.5355 506.272 72.0018 497.253L29.1642 245.534C28.6331 242.42 29.7541 239.148 32.4023 236.072C36.7927 230.973 44.5659 227.363 50.865 227.484L435.674 230.305C436.136 230.314 436.539 230.535 436.813 230.928C437.276 231.588 438.353 233.134 434.748 251.036C432.529 262.066 429.003 276.974 424.54 294.15C414.722 331.973 402.122 374.228 390.829 407.185L390.692 407.597L390.293 407.769C379.396 412.499 368.17 417.335 358.264 421.602C346.455 426.689 334.885 431.676 323.243 436.757C320.626 437.898 318 439.036 315.373 440.169C306.533 443.991 297.388 447.946 288.649 452.159C269.487 461.4 247.017 472.558 225.698 485.268C214.769 491.782 205.304 497.95 196.759 504.127C194.431 505.81 192.021 507.47 189.689 509.08C186.696 511.141 183.603 513.275 180.665 515.465L180.394 515.668Z" fill="black"/>
<path d="M424.967 228.261H51.8905C43.6569 228.261 38.152 234.932 39.5956 243.166L84.4554 498.953C85.8998 507.187 93.7463 513.861 101.981 513.861H475.054C483.288 513.861 488.794 507.187 487.349 498.953L442.489 243.166C441.044 234.932 433.197 228.261 424.967 228.261Z" fill="black"/>
<path d="M416.617 237.185H64.3321C56.5565 237.185 51.3582 243.392 52.7229 251.048L95.0825 488.826C96.4448 496.481 103.855 502.685 111.63 502.685H463.916C471.688 502.685 476.888 496.481 475.525 488.826L433.165 251.048C431.798 243.392 424.39 237.185 416.617 237.185Z" fill="white"/>
<path d="M253.01 515.003H100.71C94.5702 515.003 89.5747 519.996 89.5747 526.139C89.5747 532.276 94.5702 537.273 100.71 537.273H257.557C263.699 537.273 253.01 515.003 253.01 515.003Z" fill="#5479F7"/>
<path d="M100.71 515.989C95.1141 515.989 90.5604 520.543 90.5604 526.139C90.5604 531.734 95.1141 536.288 100.71 536.288H257.557C257.96 536.288 258.091 536.135 258.18 535.994C259.632 533.687 255.743 523.108 252.387 515.989H100.71ZM257.557 538.257H100.71C94.0269 538.257 88.5889 532.822 88.5889 526.139C88.5889 519.456 94.0269 514.018 100.71 514.018H253.63L253.898 514.574C255.349 517.599 262.459 532.897 259.85 537.042C259.349 537.837 258.556 538.257 257.557 538.257Z" fill="black"/>
<path d="M561.465 515.004H201.951C195.801 515.004 190.816 519.988 190.816 526.139C190.816 532.289 195.801 537.274 201.951 537.274H561.465C567.617 537.274 572.602 532.289 572.602 526.139C572.602 519.988 567.617 515.004 561.465 515.004Z" fill="#5479F7"/>
<path d="M201.953 515.989C196.357 515.989 191.803 520.541 191.803 526.137C191.803 531.734 196.357 536.286 201.953 536.286H561.47C567.067 536.286 571.62 531.734 571.62 526.137C571.62 520.541 567.067 515.989 561.47 515.989H201.953ZM561.47 538.257H201.953C195.27 538.257 189.832 532.821 189.832 526.137C189.832 519.454 195.27 514.016 201.953 514.016H561.47C568.154 514.016 573.593 519.454 573.593 526.137C573.593 532.821 568.154 538.257 561.47 538.257Z" fill="black"/>
<path d="M475.051 514.848H224.258C223.713 514.848 223.271 514.407 223.271 513.861C223.271 513.319 223.713 512.879 224.258 512.879H475.051C478.698 512.879 481.877 511.481 484.009 508.942C486.191 506.343 487.032 502.857 486.376 499.122L441.518 243.34C440.155 235.569 432.727 229.247 424.965 229.247H51.8904C48.246 229.247 45.0666 230.645 42.935 233.183C40.7527 235.779 39.9118 239.268 40.5676 243L60.2704 355.342C60.363 355.879 60.0049 356.389 59.4698 356.484C58.9306 356.579 58.422 356.219 58.3279 355.682L38.6251 243.34C37.8671 239.023 38.8625 234.964 41.4254 231.911C43.9369 228.921 47.6537 227.272 51.8904 227.272H424.965C433.644 227.272 441.936 234.33 443.461 243L488.32 498.784C489.076 503.099 488.083 507.156 485.518 510.211C483.004 513.2 479.288 514.848 475.051 514.848Z" fill="black"/>
<path d="M416.208 249.626H68.1415C64.5301 249.626 62.116 252.557 62.7493 256.166L63.5926 260.981C64.2259 264.593 67.6684 267.521 71.2798 267.521H419.346C422.959 267.521 425.375 264.593 424.738 260.981L423.895 256.166C423.262 252.557 419.821 249.626 416.208 249.626Z" fill="#5479F7"/>
<path d="M416.088 258.575C416.505 260.955 414.915 262.882 412.537 262.882C410.157 262.882 407.892 260.955 407.474 258.575C407.058 256.197 408.648 254.269 411.028 254.269C413.403 254.269 415.672 256.197 416.088 258.575Z" fill="#FFF4E3"/>
<path d="M353.012 502.686C358.462 502.686 362.944 498.113 362.95 492.437C362.95 492.401 362.95 492.365 362.95 492.332C362.95 444.03 325.371 404.875 279.017 404.875C232.665 404.875 195.089 444.03 195.089 492.332C195.089 492.365 195.089 492.401 195.089 492.437C195.095 498.113 199.577 502.686 205.026 502.686H353.012Z" fill="#5479F7"/>
<path d="M417.9 401.43C401.456 373.698 377.344 351.052 348.475 336.435C325.539 324.824 299.616 318.27 272.158 318.27C271.289 318.27 270.424 318.291 269.561 318.304C240.845 318.735 213.865 326.326 190.316 339.367C162.972 354.511 140.256 376.999 124.826 404.165C110.816 428.838 102.808 457.769 102.808 488.151C102.808 492.871 103.01 497.205 103.389 502.689H152.328C152.144 499.4 152.042 496.525 152.042 493.669C152.042 470.186 158.353 448.013 169.312 429.288C180.205 410.673 195.695 395.164 214.149 384.647C231.119 374.98 250.594 369.396 271.313 369.321C271.452 369.321 271.594 369.289 271.735 369.289C290.66 369.289 308.558 373.839 324.47 381.952C344.25 392.035 360.954 407.598 372.73 426.737C384.567 445.975 391.426 469.218 391.426 493.705C391.426 496.557 391.323 499.4 391.14 502.689L433.46 502.964L440.986 499.218C441.366 493.732 441.51 492.871 441.51 488.151C441.51 456.636 432.891 426.72 417.9 401.43Z" fill="#5479F7"/>
<path d="M133.139 404.572L177.623 429.492C188.517 410.878 204.007 395.469 222.461 384.953L198.627 339.771C171.283 354.916 148.569 377.403 133.139 404.572Z" fill="#5479F7"/>
<path d="M277.871 318.71C249.157 319.141 222.177 326.728 198.626 339.77L222.461 384.953C239.431 375.28 258.907 369.75 279.623 369.676L277.871 318.71Z" fill="#5479F7"/>
<path d="M111.119 488.153C111.119 492.869 111.322 497.19 111.7 502.282H160.64C160.456 499.451 160.355 496.523 160.355 493.668C160.355 470.185 166.664 448.218 177.623 429.493L133.139 404.572C119.127 429.245 111.119 457.767 111.119 488.153Z" fill="#5479F7"/>
<path d="M381.039 427.137C392.876 446.375 399.738 469.018 399.738 493.504C399.738 496.359 399.633 498.885 399.451 501.895H449.242C449.62 497.383 449.819 492.675 449.819 487.955C449.819 456.442 441.202 427.028 426.21 401.738L381.039 427.137Z" fill="#E12599"/>
<path d="M356.788 336.842L332.782 382.346C352.56 392.426 369.265 407.995 381.04 427.137L426.21 401.836C409.767 374.104 385.652 351.458 356.788 336.842Z" fill="#E12599"/>
<path d="M280.469 318.677C279.602 318.677 278.737 318.694 277.872 318.71L279.623 369.675C279.767 369.675 279.906 369.67 280.046 369.67C298.973 369.67 316.871 374.235 332.782 382.345L356.788 336.841C333.851 325.227 307.927 318.677 280.469 318.677Z" fill="#E12599"/>
<path d="M279.948 484.779L280.985 423.832L336.775 331.795C338.16 329.509 341.15 330.65 340.66 333.275L321.053 438.301C320.592 440.777 319.466 443.113 317.833 444.979L282.246 485.664C281.357 486.68 279.923 486.129 279.948 484.779Z" fill="black"/>
<path d="M288.738 494.549C286.303 500.902 279.11 504.049 272.674 501.582C266.235 499.114 262.989 491.966 265.424 485.613C267.859 479.263 275.052 476.113 281.488 478.581C287.927 481.048 291.172 488.196 288.738 494.549Z" fill="black"/>
<path d="M277.182 483.325L278.145 426.721C278.193 423.892 279.017 421.056 280.508 418.602L334.01 330.34C335.395 328.057 338.384 329.196 337.896 331.821L318.24 437.088C317.808 439.408 316.754 441.593 315.226 443.342L279.476 484.213C278.589 485.226 277.159 484.674 277.182 483.325Z" fill="#FFF4E3"/>
<path d="M278.169 483.343C278.166 483.545 278.231 483.691 278.345 483.736C278.458 483.778 278.603 483.715 278.735 483.563L314.483 442.695C315.904 441.068 316.871 439.066 317.272 436.906L336.927 331.639C337.085 330.787 336.71 330.316 336.304 330.161C335.899 330.006 335.307 330.107 334.852 330.849L281.352 419.111C279.944 421.431 279.176 424.068 279.131 426.738L278.169 483.343ZM278.41 485.72C278.151 485.72 277.888 485.673 277.635 485.574C276.744 485.232 276.178 484.34 276.196 483.306L277.159 426.702C277.209 423.688 278.076 420.708 279.665 418.088L333.166 329.827C334.18 328.159 335.824 327.869 337.007 328.319C338.191 328.768 339.221 330.083 338.864 332.003L319.212 437.269C318.741 439.775 317.622 442.099 315.967 443.992L280.221 484.859C279.734 485.417 279.075 485.72 278.41 485.72Z" fill="black"/>
<path d="M285.85 493.131C283.905 498.212 278.151 500.729 273.005 498.758C267.856 496.781 265.261 491.064 267.206 485.987C269.155 480.906 274.906 478.388 280.055 480.36C285.205 482.333 287.799 488.051 285.85 493.131Z" fill="#FFF4E3"/>
<path d="M276.449 480.676C272.852 480.676 269.473 482.827 268.127 486.338C266.378 490.903 268.722 496.061 273.357 497.837C275.602 498.698 278.047 498.643 280.234 497.684C282.416 496.731 284.084 494.987 284.93 492.777C285.776 490.569 285.701 488.158 284.715 485.988C283.728 483.813 281.947 482.141 279.7 481.28C278.63 480.869 277.531 480.676 276.449 480.676ZM276.623 500.417C275.284 500.417 273.941 500.169 272.65 499.674C267.004 497.511 264.149 491.212 266.285 485.631C268.425 480.053 274.76 477.273 280.406 479.439C283.142 480.487 285.308 482.523 286.512 485.172C287.716 487.828 287.808 490.777 286.771 493.483C285.734 496.189 283.694 498.322 281.024 499.49C279.614 500.107 278.122 500.417 276.623 500.417Z" fill="black"/>
<path d="M216.713 512.652L220.523 518.68L272.892 435.255L266.976 427.695L238.442 466.775C237.327 468.277 224.563 486.45 217.086 497.1C213.833 501.734 213.687 507.866 216.713 512.652Z" fill="black"/>
<path d="M245.463 373.574C245.826 338.088 274.621 309.61 309.775 309.97C344.928 310.33 373.131 339.392 372.768 374.879C372.405 410.367 343.611 438.843 308.459 438.482C273.303 438.121 245.099 409.062 245.463 373.574ZM235.799 373.475C235.382 414.349 267.865 447.824 308.357 448.238C348.846 448.652 382.011 415.853 382.431 374.981C382.852 334.103 350.366 300.631 309.874 300.218C269.385 299.8 236.219 332.602 235.799 373.475Z" fill="black"/>
<path d="M246.603 476.176C247.701 476.558 251.193 471.995 252.012 471.191C255.225 468.026 267.171 465.324 268.68 458.714C270.638 450.145 269.855 447.681 267.674 447.964C265.49 448.246 255.296 456.763 246.746 457.356C246.746 457.356 244.822 457.13 245.031 449.098C245.06 447.975 243.854 447.195 242.859 447.714C241.488 448.426 239.738 449.958 238.302 453.222C236.47 457.392 236.821 462.196 237.113 465.076C237.304 466.983 236.613 472.702 238.07 473.208L246.603 476.176Z" fill="#F9D9A7"/>
<path d="M238.469 472.305L246.765 475.187C247.552 474.835 249.56 472.495 250.335 471.596C250.779 471.077 251.1 470.702 251.321 470.488C252.54 469.286 254.7 468.241 257.206 467.031C261.494 464.954 266.833 462.374 267.719 458.498C269.393 451.17 268.743 449.465 268.386 449.069C268.329 449.01 268.216 448.887 267.799 448.941C267.304 449.003 265.496 450.12 263.899 451.104C259.501 453.818 252.849 457.922 246.816 458.339L246.723 458.345L246.63 458.336C245.579 458.211 243.841 456.843 244.047 449.075C244.053 448.809 243.871 448.667 243.792 448.616C243.701 448.559 243.516 448.482 243.314 448.586C242.191 449.171 240.567 450.517 239.205 453.619C237.369 457.791 237.876 462.826 238.094 464.979C238.153 465.577 238.135 466.434 238.118 467.43C238.091 468.717 238.034 471.695 238.469 472.305ZM246.746 477.187C246.586 477.187 246.431 477.159 246.282 477.106L237.746 474.142C236.145 473.584 236.073 471.108 236.145 467.391C236.162 466.501 236.181 465.657 236.13 465.175C235.769 461.59 235.588 456.945 237.4 452.826C238.993 449.2 241.002 447.568 242.405 446.837C243.177 446.435 244.086 446.477 244.837 446.944C245.6 447.421 246.041 448.238 246.016 449.125C245.877 454.481 246.714 455.994 246.994 456.348C252.471 455.839 258.707 451.989 262.864 449.426C265.409 447.859 266.67 447.1 267.546 446.986C268.735 446.829 269.454 447.314 269.843 447.743C271.163 449.194 271.104 452.544 269.64 458.935C268.545 463.735 262.734 466.545 258.064 468.807C255.814 469.891 253.69 470.92 252.703 471.892C252.543 472.049 252.197 472.451 251.827 472.881C249.352 475.765 247.917 477.187 246.746 477.187Z" fill="black"/>
<path d="M252.15 474.44L234.955 468.122C228.203 480.19 220.953 490.558 212.874 497.05C208.106 500.882 202.939 504.002 197.514 506.421C195.087 507.506 192.303 506.359 191.33 503.886C188.646 497.062 184.194 486.311 176.294 473.634C170.36 464.114 159.047 454.311 150.869 450.256C138.165 443.95 115.341 441.859 101.101 443.665C47.7259 450.426 22.9576 519.899 32.6903 539.709C44.627 564.003 76.8033 549.788 76.8033 549.788C76.8033 549.788 72.3091 564.233 69.1467 580.836C66.5186 594.638 169.049 590.692 167.733 584.123C164.326 567.087 164.148 550.793 164.148 550.793C173.327 559.872 185.858 558.448 185.858 558.448C185.858 558.448 193.102 557.903 198.101 555.844C241.568 541.422 252.15 474.44 252.15 474.44Z" fill="#E12599" stroke="black" stroke-width="2"/>
<path d="M77.2152 538.246C76.8064 538.246 76.425 537.989 76.2825 537.581C67.163 511.192 71.4021 489.856 71.4464 489.644C71.5566 489.111 72.0781 488.769 72.6116 488.879C73.1435 488.989 73.4871 489.51 73.3776 490.044C73.3358 490.25 69.2126 511.087 78.1462 536.937C78.324 537.452 78.0521 538.012 77.5363 538.192C77.43 538.228 77.3222 538.246 77.2152 538.246Z" fill="black"/>
<path d="M163.608 551.922C163.361 551.922 163.111 551.831 162.919 551.643C148.648 537.707 138.731 505.387 138.315 504.02C138.158 503.499 138.451 502.947 138.973 502.788C139.494 502.631 140.043 502.926 140.202 503.447C140.302 503.778 150.39 536.649 164.297 550.23C164.686 550.612 164.694 551.234 164.313 551.625C164.12 551.821 163.864 551.922 163.608 551.922Z" fill="black"/>
<path d="M121.909 370.463C127.965 370.49 133.543 373.764 136.583 378.999C137.99 381.425 139.271 383.686 139.529 384.325C140.119 385.779 141.416 390.666 146.174 395.375C146.645 395.839 146.711 396.574 146.304 397.096L143.255 400.994C143.044 401.265 142.958 401.608 143.016 401.944C143.379 404.024 145.195 411.572 144.657 412.93C143.519 415.818 136.617 416.601 134.574 416.772C134.19 416.802 133.848 417.018 133.661 417.356C132.998 418.55 131.249 421.981 129.813 430.529C127.625 443.563 140.047 445.589 137.516 446.864C127.088 445.182 94.4185 443.3 89.2544 450.044C90.8034 446.995 108.636 439.109 110.295 417.672C111 395.375 96.0127 401.941 109.5 376.5C112.634 370.584 116.02 370.436 121.909 370.463Z" fill="#F9D9A7"/>
<path d="M90.248 450.312C91.3738 451.218 97.7839 445.503 108.037 445.151C119.132 444.773 129.4 449.654 136.382 446.322C136.203 446.194 136.007 446.058 135.829 445.932C133.04 443.984 127.236 439.925 128.84 430.368C129.855 424.326 131.186 419.788 132.798 416.877C133.143 416.253 133.776 415.848 134.494 415.788C138.598 415.446 143.051 414.32 143.74 412.57C144.018 411.655 142.939 406.483 142.479 404.275C142.289 403.36 142.129 402.594 142.045 402.112C141.938 401.507 142.096 400.878 142.477 400.389L145.527 396.488C145.62 396.369 145.601 396.196 145.481 396.077C141.179 391.819 139.62 387.474 138.871 385.389C138.771 385.109 138.687 384.873 138.615 384.695C138.499 384.411 137.974 383.36 135.73 379.494C132.863 374.557 127.566 371.473 121.905 371.449C121.848 371.449 121.789 371.447 121.734 371.447C114.322 371.447 109.356 373.73 106.97 378.228C98.6916 393.843 102.846 399.814 106.863 405.586C109.233 408.994 111.683 412.514 111.278 417.75C109.969 434.647 99.0352 443.208 93.1602 447.81C91.8855 448.81 90.6729 449.758 90.248 450.312ZM104.752 447.177C97.726 447.177 90.5707 453.429 88.7481 451.603C88.1703 451.022 88.0311 450.274 88.3755 449.597C88.8326 448.694 90.071 447.725 91.9451 446.257C97.5803 441.844 108.071 433.629 109.312 417.594C109.662 413.065 107.517 409.977 105.243 406.712C101.092 400.746 96.3862 393.983 105.227 377.305C107.944 372.182 113.652 369.478 121.742 369.478C121.799 369.478 121.856 369.478 121.913 369.478C128.272 369.507 134.219 372.966 137.435 378.505C139.81 382.594 140.287 383.574 140.443 383.956C140.522 384.153 140.616 384.411 140.728 384.722C141.427 386.673 142.884 390.732 146.867 394.674C147.696 395.493 147.788 396.798 147.079 397.704L144.031 401.601C143.992 401.652 143.976 401.715 143.987 401.774C144.068 402.24 144.224 402.985 144.409 403.873C145.529 409.242 146.017 412.171 145.574 413.294C144.315 416.489 138.192 417.46 134.655 417.756C134.596 417.758 134.548 417.788 134.524 417.832C132.651 421.212 131.457 426.692 130.785 430.693C129.386 439.021 134.312 442.467 136.958 444.317C138.131 445.137 138.903 445.678 138.841 446.57C138.815 446.916 138.643 447.401 137.96 447.746C128.222 452.661 115.383 446.838 108.596 447.103C107.343 447.153 106.049 447.177 104.752 447.177Z" fill="black"/>
<path d="M132.2 391.065L139.26 382.229C142.882 377.694 141.616 371.016 136.603 368.093C135.214 367.282 133.58 366.436 131.755 365.65C113.624 357.843 92.8487 370.728 92.8286 390.469C92.8198 398.55 98.2224 407.918 109.705 416.24C109.705 416.24 117.773 409.879 117.669 402.999C117.669 402.999 111.815 396.052 120.065 392.536C121.644 391.863 123.446 391.917 124.986 392.673C127.471 393.898 130.472 393.227 132.2 391.065Z" fill="black"/>
<path d="M121.43 407.15C119.017 407.15 115.944 406.121 113.664 401.81C113.409 401.327 113.593 400.73 114.075 400.475C114.557 400.222 115.153 400.406 115.408 400.887C118.833 407.364 124.132 404.671 124.356 404.551C124.837 404.298 125.433 404.483 125.687 404.963C125.941 405.445 125.757 406.041 125.275 406.295C125.24 406.312 123.603 407.15 121.43 407.15Z" fill="black"/>
<path d="M102.192 369.017C102.192 369.017 96.968 350.951 77.9146 354.351C66.0189 356.475 55.6295 364.467 49.9219 377.515C38.8784 402.763 48.879 426.784 30.8822 448.703C26.8185 453.649 29.4474 468.007 35.8463 468.227C47.94 468.643 69.4235 465.98 80.7551 450.407C90.0396 437.648 79.7211 371.911 100.15 372.793L102.192 369.017Z" fill="black"/>
<path d="M311.954 216.234H58.7017C53.983 216.234 49.579 212.497 48.8652 207.886L38.6336 141.815C37.9215 137.208 41.1676 133.471 45.8863 133.471H299.138C303.858 133.471 308.261 137.208 308.975 141.815L319.206 207.886C319.919 212.497 316.673 216.234 311.954 216.234Z" fill="#AFE5FF"/>
<path d="M150.363 176.577L141.34 175.323L136.182 167.51C135.073 165.829 132.62 165.829 132.031 167.51L129.293 175.323L120.657 176.577C118.801 176.847 118.395 179.123 119.972 180.431L127.303 186.516L127.125 195.106C127.086 196.95 129.289 198.357 130.851 197.487L138.121 193.43L146.646 197.487C148.479 198.357 150.245 196.95 149.635 195.106L146.797 186.516L152.245 180.431C153.415 179.123 152.303 176.847 150.363 176.577Z" fill="#E12599"/>
<path d="M187.275 176.577L178.252 175.323L173.093 167.51C171.984 165.829 169.531 165.829 168.943 167.51L166.204 175.323L157.568 176.577C155.712 176.847 155.308 179.123 156.883 180.431L164.214 186.516L164.036 195.106C163.997 196.95 166.2 198.357 167.762 197.487L175.033 193.43L183.557 197.487C185.39 198.357 187.157 196.95 186.545 195.106L183.708 186.516L189.155 180.431C190.326 179.123 189.216 176.847 187.275 176.577Z" fill="#E12599"/>
<path d="M87.7371 451.825L89.3849 442.09C102.69 433.36 128.944 436.156 140.407 438.645L140.014 450.102C139.31 449.886 136.265 449.305 129.717 448.714C123.169 448.124 99.2665 452.405 88.1339 454.619L87.7371 451.825Z" fill="white" stroke="black" stroke-width="2"/>
<path d="M224.736 176.577L215.713 175.323L210.555 167.51C209.446 165.829 206.993 165.829 206.404 167.51L203.666 175.323L195.031 176.577C193.173 176.847 192.769 179.123 194.344 180.431L201.676 186.516L201.498 195.106C201.459 196.95 203.662 198.357 205.225 197.487L212.494 193.43L221.019 197.487C222.853 198.357 224.618 196.95 224.008 195.106L221.169 186.516L226.617 180.431C227.786 179.123 226.677 176.847 224.736 176.577Z" fill="#E12599"/>
<path d="M261.097 176.577L252.074 175.323L246.916 167.51C245.805 165.829 243.353 165.829 242.765 167.51L240.028 175.323L231.393 176.577C229.535 176.847 229.131 179.123 230.707 180.431L238.038 186.516L237.858 195.106C237.82 196.95 240.022 198.357 241.586 197.487L248.854 193.43L257.378 197.487C259.21 198.357 260.979 196.95 260.367 195.106L257.532 186.516L262.977 180.431C264.147 179.123 263.039 176.847 261.097 176.577Z" fill="#E12599"/>
<path d="M297.461 176.577L288.436 175.323L283.277 167.51C282.168 165.829 279.715 165.829 279.127 167.51L276.389 175.323L267.75 176.577C265.896 176.847 265.492 179.123 267.066 180.431L274.395 186.516L274.221 195.106C274.183 196.95 276.385 198.357 277.947 197.487L285.215 193.43L293.742 197.487C295.574 198.357 297.339 196.95 296.729 195.106L293.89 186.516L299.338 180.431C300.508 179.123 299.4 176.847 297.461 176.577Z" fill="#E12599"/>
<path d="M60.0174 176.354C57.7385 161.634 68.0973 149.699 83.1586 149.699C98.2175 149.699 112.274 161.634 114.554 176.354C116.833 191.076 106.473 203.011 91.4131 203.011C76.3534 203.011 62.2979 191.076 60.0174 176.354Z" fill="#FEFFFF"/>
<path d="M71.0903 195.738C76.703 200.266 83.7513 203.045 91.0377 203.045C98.3242 203.045 104.511 200.266 108.722 195.738C102.773 194.019 96.2392 193.053 89.4911 193.053C82.7406 193.053 76.5067 194.019 71.0903 195.738Z" fill="#E12599"/>
<path d="M93.2799 160.782C91.9257 160.006 90.4217 159.593 88.9515 159.593H80.2971C78.3651 159.593 76.6157 160.305 75.3982 161.589L74.991 162.022C73.0573 164.061 72.7604 167.213 74.2386 170.034L78.2774 177.748L96.5067 177.635L97.7765 169.207C98.2561 166.019 96.4239 162.585 93.2799 160.782Z" fill="black"/>
<path d="M89.2905 164.146C89.2487 164.127 89.1634 164.095 89.1634 164.095L77.3618 171.947L78.1311 177.411C78.5745 180.278 80.3416 182.829 82.7315 184.479L83.9136 192.116C84.3803 195.132 87.2651 197.58 90.3543 197.58C93.4443 197.58 95.5711 195.132 95.1036 192.116L93.9521 184.676C95.9847 183.035 97.067 180.398 96.6051 177.411L95.7819 172.1C95.2339 168.558 92.6034 165.513 89.2905 164.146Z" fill="#FFF4E3"/>
<path d="M88.7649 187.416C88.2201 187.416 87.7792 186.976 87.7792 186.433C87.7792 185.886 88.2201 185.446 88.7649 185.446C90.9609 185.446 92.8809 184.618 94.1716 183.11C95.4382 181.631 95.9564 179.661 95.6305 177.561L94.8073 172.249C94.1346 167.9 89.9615 164.36 85.5035 164.36H77.1082L79.1055 177.26C79.6003 180.456 81.9911 183.382 85.1953 184.715C85.6983 184.925 85.9364 185.5 85.7272 186.006C85.5188 186.507 84.9427 186.744 84.4389 186.536C80.6142 184.944 77.7552 181.421 77.1573 177.561L74.9838 163.526C74.9396 163.244 75.0225 162.953 75.21 162.733C75.3966 162.517 75.6702 162.39 75.9583 162.39H85.5035C90.8933 162.39 95.9403 166.676 96.7571 171.945L97.5787 177.26C97.9947 179.939 97.3155 182.473 95.6691 184.395C93.997 186.342 91.5451 187.416 88.7649 187.416Z" fill="black"/>
<path d="M91.0237 203.993C83.7066 203.993 75.9857 201.258 69.6222 195.795C62.9304 190.051 58.7718 182.124 58.2141 174.055C57.7555 167.426 59.7833 161.199 63.9234 156.509C72.9906 146.239 89.9711 145.76 102.583 155.415C103.014 155.745 103.096 156.362 102.766 156.796C102.434 157.231 101.816 157.31 101.382 156.98C89.5913 147.952 73.7857 148.32 65.4016 157.814C61.6139 162.103 59.7599 167.823 60.1816 173.917C60.703 181.467 64.613 188.897 70.9073 194.3C82.7499 204.466 99.5485 204.625 108.354 194.653C112.946 189.45 114.651 182.211 113.033 174.786C112.918 174.251 113.254 173.728 113.787 173.61C114.317 173.493 114.844 173.831 114.961 174.364C116.713 182.413 114.844 190.282 109.832 195.959C105.101 201.315 98.261 203.993 91.0237 203.993Z" fill="black"/>
<path d="M90.3543 198.566C86.804 198.566 83.4774 195.74 82.9399 192.263L81.7586 184.631C81.6741 184.093 82.0435 183.59 82.581 183.506C83.121 183.426 83.6231 183.793 83.7068 184.329L84.8881 191.962C85.284 194.515 87.7366 196.594 90.3543 196.594C91.5694 196.594 92.6275 196.137 93.3349 195.313C94.0269 194.506 94.3093 193.422 94.1299 192.263L93.0065 185.02C92.9245 184.481 93.2922 183.975 93.8313 183.895C94.3689 183.811 94.8726 184.176 94.9555 184.718L96.0772 191.962C96.3476 193.698 95.9042 195.346 94.8324 196.597C93.7436 197.864 92.1536 198.566 90.3543 198.566Z" fill="black"/>
<path d="M282.072 158.373H128.621C125.717 158.373 123.007 156.074 122.568 153.238L122.217 150.968C121.777 148.131 123.776 145.832 126.68 145.832H280.13C283.029 145.832 285.742 148.131 286.18 150.968L286.533 153.238C286.973 156.074 284.975 158.373 282.072 158.373Z" fill="#D3E65C"/>
<path d="M311.955 217.22H58.7019C53.5246 217.22 48.6755 213.1 47.891 208.037L37.661 141.965C37.2731 139.467 37.908 137.105 39.4449 135.309C41.0052 133.487 43.2938 132.484 45.8865 132.484H299.137C301.223 132.484 303.295 133.131 305.13 134.358C305.582 134.659 305.706 135.271 305.401 135.726C305.1 136.178 304.484 136.3 304.034 135.997C302.525 134.991 300.833 134.457 299.137 134.457H45.8865C43.878 134.457 42.1221 135.213 40.9425 136.591C39.7853 137.942 39.3114 139.743 39.6091 141.665L49.8407 207.736C50.4812 211.876 54.4572 215.247 58.7019 215.247H311.955C313.962 215.247 315.719 214.488 316.9 213.113C318.054 211.76 318.53 209.958 318.232 208.037L317.729 204.796C317.648 204.255 318.013 203.753 318.553 203.671C319.09 203.589 319.593 203.954 319.679 204.492L320.18 207.736C320.567 210.235 319.935 212.601 318.396 214.396C316.834 216.215 314.547 217.22 311.955 217.22Z" fill="black"/>
<path d="M477.42 325.424C477.42 325.424 488.328 347.444 500.588 358.028C502.652 359.812 505.872 358.827 506.643 356.207C507.088 354.694 507.525 352.672 507.888 349.986C509.236 339.932 500.194 313.748 500.194 313.748L496.166 312.453C494.753 311.998 493.256 312.862 492.943 314.314L492.523 316.274L487.681 312.012C486.579 311.041 484.885 311.186 483.974 312.338C482.124 314.684 479.253 319.06 477.42 325.424Z" fill="black"/>
<path d="M503.995 356.371C503.74 356.371 503.487 356.273 503.295 356.079C490.777 343.508 480.308 323.847 480.202 323.649C479.947 323.169 480.131 322.572 480.612 322.317C481.096 322.064 481.689 322.247 481.947 322.727C482.05 322.925 492.384 342.328 504.695 354.687C505.078 355.075 505.075 355.698 504.691 356.082C504.497 356.273 504.249 356.371 503.995 356.371Z" fill="#B8863A"/>
<path d="M498.683 339.175C498.269 339.175 497.88 338.912 497.746 338.498C497.575 337.983 497.859 337.422 498.372 337.252L504.892 335.108C505.409 334.938 505.964 335.218 506.138 335.734C506.308 336.251 506.025 336.809 505.508 336.981L498.988 339.126C498.889 339.16 498.782 339.175 498.683 339.175Z" fill="#B8863A"/>
<path d="M494.396 332.214C493.98 332.214 493.596 331.949 493.459 331.534C493.29 331.02 493.571 330.46 494.09 330.29L502.278 327.594C502.796 327.425 503.352 327.704 503.523 328.221C503.695 328.739 503.413 329.297 502.895 329.466L494.707 332.162C494.601 332.196 494.498 332.214 494.396 332.214Z" fill="#B8863A"/>
<path d="M388.332 160.066C389.17 159.184 448.938 133.361 473.37 127.871C497.802 122.376 506.905 122.327 515.216 136.287C523.531 150.249 475.171 226.434 475.171 226.434L372.292 199.619L388.332 160.066Z" fill="#6B450A" stroke="black" stroke-width="2"/>
<path d="M446.23 190.003C446.096 190.003 445.96 189.976 445.83 189.919C445.332 189.693 445.106 189.111 445.332 188.613C456.865 162.872 475.909 144.475 476.1 144.29C476.494 143.916 477.116 143.93 477.494 144.324C477.87 144.713 477.857 145.34 477.466 145.717C477.275 145.895 458.503 164.043 447.131 189.421C446.967 189.788 446.607 190.003 446.23 190.003Z" fill="black"/>
<path d="M339.427 194.194C339.427 194.194 342.137 221.963 348.142 227.735C354.15 233.512 426.21 227.735 426.21 227.735C426.21 227.735 431.936 237.12 435.675 262.193C439.419 287.271 443.594 321.028 449.793 329.263L503.753 317.613C503.753 317.613 485.857 210.196 473.425 195.589C460.997 180.983 370.555 178.688 370.555 178.688L339.427 194.194Z" fill="#6B450A" stroke="black" stroke-width="2"/>
<path d="M479.661 209.753C479.259 209.753 478.876 209.5 478.734 209.093C476.492 202.652 474.454 198.326 472.673 196.231C466.149 188.566 423.495 182.98 385.751 180.307C385.206 180.27 384.797 179.8 384.834 179.255C384.875 178.714 385.348 178.295 385.89 178.341C409.612 180.02 465.703 184.999 474.174 194.953C476.14 197.263 478.241 201.677 480.596 208.444C480.775 208.958 480.504 209.52 479.986 209.699C479.881 209.736 479.773 209.753 479.661 209.753Z" fill="black"/>
<path d="M312.574 188.849C312.574 188.849 302.894 175.313 306.856 145.005C310.821 114.694 315.874 104.912 325.69 100.499C347.38 90.7475 382.818 104.824 391.197 169.397L354 198L338.5 199L325.5 196L312.574 188.849Z" fill="#0A428D" stroke="black" stroke-width="2"/>
<path d="M341.742 167.941C341.23 167.941 340.796 167.544 340.759 167.023L338.749 138.599C338.709 138.053 339.119 137.582 339.664 137.544C340.207 137.499 340.678 137.915 340.715 138.459L342.728 166.884C342.761 167.429 342.354 167.901 341.814 167.938C341.789 167.941 341.765 167.941 341.742 167.941Z" fill="black"/>
<path d="M478.426 152.795L419.807 155.886L459.737 86.758C460.986 84.5975 463.281 83.207 465.827 83.0726L513.402 80.5636C516.423 80.4026 518.434 83.5393 516.95 86.1087L478.426 152.795Z" fill="#5479F7"/>
<path d="M513.618 81.5454C513.563 81.5454 513.506 81.5454 513.45 81.5494L465.875 84.0576C463.654 84.1775 461.678 85.3717 460.588 87.2514L421.563 154.809L477.837 151.84L516.094 85.6147C516.592 84.7537 516.577 83.7349 516.06 82.8932C515.539 82.0395 514.634 81.5454 513.618 81.5454ZM419.8 156.876C419.459 156.876 419.141 156.7 418.961 156.405C418.77 156.097 418.766 155.712 418.947 155.396L458.88 86.2665C460.303 83.8025 462.879 82.2414 465.77 82.0877L513.349 79.5795C515.139 79.4902 516.82 80.3585 517.74 81.86C518.644 83.331 518.665 85.1061 517.801 86.6028L479.274 153.293C479.109 153.581 478.807 153.764 478.474 153.783L419.852 156.876C419.834 156.876 419.818 156.876 419.8 156.876Z" fill="black"/>
<path d="M487.642 105.425C485.891 108.457 481.923 111.047 478.771 111.214C475.623 111.38 474.491 109.058 476.239 106.026C477.993 102.998 481.962 100.407 485.109 100.241C488.26 100.074 489.393 102.397 487.642 105.425Z" fill="#5CE1E6"/>
<path d="M477.332 157.893L381.614 162.944C380.751 162.988 380.016 162.327 379.972 161.463L379.767 157.567L478.606 152.355L478.812 156.252C478.855 157.114 478.195 157.851 477.332 157.893Z" fill="#5479F7"/>
<path d="M380.798 158.501L380.856 159.535C380.928 160.889 382.086 161.942 383.439 161.861L475.402 157.009C476.752 156.937 477.796 155.779 477.725 154.424L477.671 153.392L380.798 158.501ZM383.308 163.837C380.971 163.837 379.009 161.999 378.884 159.639L378.779 157.619C378.752 157.076 379.168 156.614 379.711 156.582L478.553 151.369C479.097 151.352 479.558 151.757 479.59 152.304L479.694 154.319C479.822 156.762 477.942 158.849 475.507 158.978L383.541 163.831C383.466 163.834 383.386 163.837 383.308 163.837Z" fill="black"/>
<path d="M380.798 158.501L380.856 159.535C380.928 160.889 382.086 161.942 383.439 161.861L475.402 157.009C476.752 156.937 477.796 155.779 477.725 154.424L477.671 153.392L380.798 158.501ZM383.308 163.837C380.971 163.837 379.009 161.999 378.884 159.639L378.779 157.619C378.752 157.076 379.168 156.614 379.711 156.582L478.553 151.369C479.097 151.352 479.558 151.757 479.59 152.304L479.694 154.319C479.822 156.762 477.942 158.849 475.507 158.978L383.541 163.831C383.466 163.834 383.386 163.837 383.308 163.837Z" fill="black"/>
<path d="M306.216 170.958C306.216 170.958 303.174 184.859 319.907 194.641C359.359 207.996 404.379 182.054 402.983 176.444C402.983 176.444 424.325 178.932 428 165.589C428 165.589 420.735 165.121 415.668 161.371C410.603 157.62 403.855 157.374 400.751 158.816C379.477 168.68 327.111 156.728 306.216 170.958Z" fill="#FDEDD4"/>
<path d="M379.973 163.557C387.9 163.086 394.997 162.044 400.34 159.732L402.487 176.691L402.491 176.72L402.498 176.749C402.542 176.926 402.51 177.221 402.272 177.669C402.039 178.108 401.642 178.629 401.072 179.222C399.934 180.404 398.171 181.801 395.867 183.297C391.265 186.284 384.573 189.618 376.6 192.366C360.66 197.858 339.685 200.975 320.116 194.367C311.893 189.547 308.562 183.745 307.268 179.179C306.618 176.885 306.479 174.891 306.502 173.475C306.514 172.767 306.566 172.204 306.614 171.821C306.635 171.662 306.654 171.534 306.67 171.439C311.782 168.022 318.811 166.145 326.874 165.125C335.02 164.094 344.161 163.946 353.342 163.934C355.012 163.932 356.683 163.934 358.349 163.936C365.835 163.947 373.228 163.958 379.973 163.557Z" fill="#0A428D" stroke="black"/>
<path d="M308.117 171.094C307.905 172.832 307.401 179.946 312.279 186.386C317.285 192.993 326.255 196.92 338.937 198.061C374.503 201.263 402.477 176.426 402.757 176.174C402.967 175.985 403.247 175.894 403.529 175.926C403.725 175.95 422.507 177.956 426.761 167.216C424.416 166.908 419.285 165.937 415.348 163.063C410.586 159.593 404.323 159.448 401.624 160.68C391.864 165.14 375.862 164.885 358.914 164.621C339.362 164.31 319.154 163.99 308.117 171.094ZM345.298 200.319C343.148 200.319 340.969 200.223 338.756 200.028C325.481 198.829 316.038 194.63 310.686 187.545C304.587 179.469 306.163 170.702 306.234 170.332C306.287 170.071 306.434 169.842 306.656 169.696C318.126 162.003 338.881 162.33 358.946 162.647C375.664 162.912 391.449 163.16 400.807 158.886C404.401 157.242 411.43 157.765 416.507 161.468C421.214 164.901 428.079 165.373 428.146 165.375C428.444 165.395 428.719 165.548 428.892 165.791C429.061 166.033 429.113 166.34 429.035 166.627C425.484 179.331 406.931 178.217 403.745 177.93C400.64 180.582 376.497 200.319 345.298 200.319Z" fill="black"/>
<path d="M339.562 87.9524C337.365 89.7718 333.136 91.9123 330.006 90.1315C327.673 88.8054 326.493 85.6148 326.754 82.0428C325.644 82.0758 324.195 81.9253 323.202 80.9581C321.676 79.4654 322.108 76.8839 322.254 75.182C322.941 67.3234 318.429 65.883 319.817 60.5979C320.907 56.4408 324.33 54.1072 324.973 53.6695C328.206 51.463 330.274 52.3313 335.584 51.2265C344.509 49.3628 344.97 47.0421 350.777 47.3181C351.113 47.3342 359.015 46.3549 361.423 51.9483C363.377 56.4956 360.559 61.7614 357.783 64.4652C354.187 67.9632 351.83 66.0255 348.254 68.9304C341.975 74.0297 346.092 82.5529 339.562 87.9524Z" fill="#764C26"/>
<path d="M357.853 74.7886L357.522 74.4732C355.834 72.8638 354.048 69.6765 353.51 67.4048C351.476 58.7367 343.648 55.5888 342.842 63.9455C342.628 66.1592 334.525 65.6345 335.368 68.0156C337.571 74.2173 337.707 72.587 334.053 74.6494C333.653 74.6462 333.253 74.7114 332.867 74.8667C331.007 75.6223 330.237 78.0573 331.152 80.3032C331.703 81.6647 332.754 82.6368 333.902 83.0303L333.418 92.6318C333.236 96.2303 330.894 99.363 327.498 100.557L326.035 101.359C325.423 101.693 325.412 102.565 326.008 102.911C329.793 105.094 341.317 110.366 354.122 102.646C354.378 102.495 354.362 102.118 354.098 101.982L352.698 101.266C349.172 99.4676 346.982 95.8151 347.06 91.8577L347.134 89.9787C348.165 90.122 349.165 90.1035 350.102 89.8814C354.456 88.8498 356.132 83.975 355.712 77.7933L357.506 76.9412C358.347 76.5445 358.526 75.4316 357.853 74.7886Z" fill="#FDEDD4"/>
<path d="M326.656 102.144C330.754 104.47 341.031 108.808 352.662 102.353L352.252 102.144C348.416 100.186 345.99 96.1418 346.071 91.8392L346.153 89.9393C346.165 89.6601 346.293 89.4002 346.505 89.2215C346.72 89.0429 346.997 88.9616 347.273 89.001C348.22 89.133 349.095 89.1056 349.875 88.923C354.852 87.7409 354.927 80.7892 354.729 77.8585C354.702 77.4513 354.927 77.0715 355.291 76.9001L357.086 76.0488C357.222 75.982 357.26 75.8621 357.272 75.8001C357.284 75.7341 357.284 75.6094 357.171 75.5016L356.841 75.187C355.027 73.4504 353.144 70.1319 352.553 67.6269C351.449 62.9131 348.433 59.9051 346.301 60.0452C344.963 60.1337 344.06 61.591 343.824 64.0372C343.652 65.8091 341.377 66.3209 339.174 66.8214C338.233 67.0347 336.689 67.3871 336.314 67.7283C336.627 68.6119 336.891 69.3216 337.112 69.9074C338.175 72.7335 338.496 73.5816 336.077 74.7259C335.667 74.9158 335.157 75.1572 334.538 75.5048C334.387 75.5909 334.22 75.6328 334.046 75.6328C333.743 75.6376 333.484 75.6794 333.235 75.7808C331.882 76.3312 331.358 78.1925 332.065 79.929C332.487 80.9719 333.293 81.7822 334.22 82.0968C334.638 82.2392 334.909 82.6392 334.891 83.0769L334.402 92.6793C334.205 96.6697 331.653 100.108 327.901 101.462L326.656 102.144ZM340.074 107.66C333.076 107.66 327.629 104.981 325.516 103.764C324.935 103.427 324.578 102.799 324.582 102.124C324.59 101.446 324.963 100.821 325.56 100.495L327.025 99.6937C327.072 99.6656 327.118 99.6422 327.168 99.6269C330.204 98.5607 332.273 95.7966 332.433 92.5827L332.882 83.6619C331.723 83.0576 330.777 81.9986 330.239 80.6733C329.122 77.9245 330.134 74.9126 332.495 73.9542C332.902 73.7876 333.332 73.691 333.785 73.6677C334.367 73.3507 334.844 73.1245 335.235 72.9427C335.495 72.8147 335.79 72.6787 335.938 72.5854C335.891 72.2563 335.585 71.4492 335.267 70.601C335.037 69.9919 334.763 69.2516 334.44 68.3455C334.251 67.8136 334.286 67.2906 334.542 66.8254C335.154 65.7126 336.817 65.336 338.741 64.899C339.757 64.6697 341.645 64.2384 341.869 63.8207C342.342 58.8695 345.033 58.1525 346.165 58.0793C349.584 57.8427 353.22 61.8468 354.476 67.1779C354.969 69.2902 356.679 72.303 358.202 73.761L358.536 74.0741C359.087 74.6019 359.341 75.3616 359.218 76.114C359.102 76.8623 358.618 77.5061 357.928 77.832L356.733 78.3977C357.042 85.2785 354.729 89.7993 350.332 90.843C349.622 91.0087 348.871 91.0787 348.076 91.0522L348.045 91.8971C347.975 95.4289 349.98 98.7707 353.147 100.387L354.546 101.104C354.988 101.329 355.271 101.775 355.291 102.272C355.306 102.768 355.058 103.234 354.632 103.489C349.46 106.61 344.459 107.66 340.074 107.66Z" fill="black"/>
<path d="M377 141C376.931 127.17 357 113 357 113L354.5 114.5C354.5 114.5 364.5 138.5 368.5 140.5C372.5 142.5 375 146.5 376.5 149.5C378 152.5 377.017 144.342 377 141Z" fill="#FEFFFF" stroke="#060606" stroke-width="2"/>
<path d="M356 106.5L352.5 107L352 114C352.5 114.5 353.8 117.1 355 115.5C356.2 113.9 358.833 114.167 360 114.5V112L356 106.5Z" fill="white" stroke="#060606" stroke-width="2"/>
<path d="M324.5 100.5C324.5 99.7 327.833 97.1667 329.5 96L352.5 103V112.5C349.333 111.667 342.3 110 339.5 110C336.7 110 328 106 324 104C324.167 103.167 324.5 101.3 324.5 100.5Z" fill="#093F88"/>
<path d="M359 110L354 103L353 101.5L359.5 104L359 110Z" fill="#093F88"/>
<path d="M324.5 100.5C324.5 99.7 327.833 97.1667 329.5 96L352.5 103V112.5C349.333 111.667 342.3 110 339.5 110C336.7 110 328 106 324 104C324.167 103.167 324.5 101.3 324.5 100.5Z" stroke="#060606" stroke-width="2"/>
<path d="M359 110L354 103L353 101.5L359.5 104L359 110Z" stroke="#060606" stroke-width="2"/>
<path d="M347.136 90.9664C347.068 90.9664 347.002 90.9584 346.938 90.9479C340.631 89.6515 338.017 84.644 337.906 84.4323C337.66 83.9479 337.854 83.3516 338.337 83.1062C338.822 82.8608 339.413 83.0507 339.664 83.5343C339.693 83.5939 341.997 87.9207 347.333 89.015C347.87 89.1229 348.212 89.6443 348.1 90.1778C348.003 90.6469 347.594 90.9664 347.136 90.9664Z" fill="black"/>
<path d="M450.439 56.2446C450.184 56.2446 449.931 56.1464 449.738 55.9509C449.354 55.5638 449.359 54.941 449.746 54.558L452.337 52.0087C452.722 51.6249 453.348 51.6297 453.732 52.0168C454.112 52.4046 454.107 53.0307 453.719 53.4105L451.128 55.9629C450.94 56.1512 450.689 56.2446 450.439 56.2446Z" fill="black"/>
<path d="M441.378 65.1733C441.127 65.1733 440.868 65.0767 440.678 64.8796C440.293 64.4933 440.3 63.8681 440.687 63.4866L443.276 60.9342C443.662 60.5519 444.287 60.556 444.671 60.9454C445.053 61.3325 445.049 61.9569 444.659 62.34L442.068 64.8916C441.879 65.0799 441.628 65.1733 441.378 65.1733Z" fill="black"/>
<path d="M443.999 56.2157C443.744 56.2157 443.49 56.1176 443.298 55.926L440.734 53.3494C440.346 52.9656 440.346 52.3428 440.734 51.9557C441.122 51.5727 441.743 51.5727 442.131 51.9597L444.696 54.5323C445.079 54.9202 445.076 55.5414 444.691 55.9293C444.501 56.1216 444.249 56.2157 443.999 56.2157Z" fill="black"/>
<path d="M452.98 65.226C452.725 65.226 452.475 65.1294 452.277 64.9363L449.714 62.3613C449.329 61.9751 449.332 61.3498 449.714 60.9684C450.1 60.5821 450.726 60.5821 451.112 60.9684L453.675 63.5426C454.061 63.928 454.061 64.5541 453.675 64.9363C453.482 65.1294 453.231 65.226 452.98 65.226Z" fill="black"/>
<path d="M292.636 94.6789C292.32 94.6789 292.01 94.5268 291.819 94.2492L265.505 55.5952C265.198 55.1422 265.314 54.5298 265.765 54.2265C266.217 53.9175 266.829 54.035 267.135 54.4832L293.45 93.1379C293.756 93.591 293.639 94.2034 293.19 94.5067C293.021 94.6242 292.828 94.6789 292.636 94.6789Z" fill="black"/>
<path d="M279.439 104.075C279.248 104.075 279.057 104.017 278.887 103.907L228.359 69.8786C227.91 69.5736 227.786 68.9621 228.091 68.513C228.395 68.0592 229.008 67.9401 229.461 68.2451L279.989 102.27C280.44 102.575 280.561 103.187 280.255 103.641C280.067 103.923 279.754 104.075 279.439 104.075Z" fill="black"/>
<path d="M392.702 163.501C394.078 163.963 398.8 181.832 398.8 181.832C412.262 179.535 407.543 173.903 404.026 166.262C403.029 164.096 402.129 161.767 401.767 159.307C401.067 154.549 391.325 163.039 392.702 163.501Z" fill="#093F88" stroke="black" stroke-width="2"/>
<path d="M268.011 118.219C267.591 118.219 267.182 118.168 266.783 118.068C265.362 117.699 264.658 116.834 264.04 116.071C263.568 115.49 263.157 114.987 262.421 114.673C261.014 114.073 259.686 114.77 258.148 115.581C256.56 116.418 254.757 117.366 252.632 116.86C250.049 116.242 249.045 113.964 248.159 111.955C247.371 110.161 246.625 108.47 244.912 107.844C242.954 107.136 240.976 108.284 238.883 109.507C236.589 110.844 233.992 112.363 231.163 111.292C228.791 110.396 227.788 108.3 226.902 106.449C226.146 104.869 225.493 103.502 224.175 103.155C222.267 102.648 219.561 104.337 216.347 108.036C215.989 108.444 215.366 108.487 214.956 108.13C214.545 107.775 214.501 107.15 214.858 106.741C218.706 102.317 221.92 100.516 224.68 101.25C226.878 101.828 227.796 103.744 228.682 105.596C229.477 107.262 230.227 108.831 231.857 109.445C233.808 110.184 235.791 109.03 237.888 107.804C240.171 106.474 242.76 104.963 245.585 105.993C248.088 106.9 249.084 109.163 249.962 111.159C250.765 112.978 251.458 114.554 253.091 114.94C254.495 115.276 255.821 114.575 257.23 113.834C258.961 112.924 260.922 111.889 263.192 112.858C264.382 113.364 265.041 114.178 265.57 114.832C266.101 115.482 266.483 115.953 267.275 116.159C268.589 116.491 270.213 115.895 272.103 114.372C272.525 114.029 273.145 114.094 273.487 114.522C273.827 114.944 273.762 115.565 273.339 115.906C271.428 117.445 269.644 118.219 268.011 118.219Z" fill="black"/>
<path d="M292.799 583.741C274.131 583.741 251.919 581.388 231.121 573.211C230.614 573.01 230.363 572.439 230.564 571.933C230.762 571.423 231.335 571.172 231.842 571.375C285.594 592.507 349.755 574.775 350.395 574.593C350.92 574.444 351.465 574.751 351.614 575.272C351.763 575.797 351.457 576.342 350.931 576.49C350.771 576.536 334.451 581.101 311.658 582.963C306.011 583.425 299.643 583.741 292.799 583.741Z" fill="black"/>
<path d="M294.673 571.708C275.636 571.708 253.416 569.368 233.093 561.377C232.587 561.18 232.34 560.609 232.538 560.101C232.739 559.595 233.308 559.342 233.815 559.545C287.555 580.674 355.64 562.292 356.322 562.101C356.847 561.961 357.39 562.265 357.535 562.79C357.678 563.317 357.37 563.859 356.847 564.003C356.674 564.049 339.37 568.779 315.61 570.802C309.352 571.336 302.265 571.708 294.673 571.708Z" fill="black"/>
<path d="M500.461 450.382C500.194 450.382 499.928 450.275 499.733 450.063C499.365 449.66 499.391 449.038 499.795 448.668C499.928 448.546 513.359 435.999 525.137 409.937C536.014 385.875 547.664 345.044 541.423 287.157C541.369 286.612 541.757 286.13 542.301 286.072C542.843 286.007 543.329 286.404 543.386 286.944C549.681 345.338 537.883 386.561 526.884 410.858C514.934 437.247 501.264 449.995 501.13 450.12C500.935 450.295 500.701 450.382 500.461 450.382Z" fill="black"/>
<path d="M500.942 469.021C500.645 469.021 500.351 468.885 500.155 468.631C499.83 468.196 499.911 467.579 500.348 467.248C500.487 467.141 514.653 456.227 528.449 431.726C541.192 409.108 556.212 369.952 555.44 311.862C555.435 311.317 555.868 310.869 556.416 310.863C556.416 310.863 556.424 310.863 556.428 310.863C556.968 310.863 557.404 311.296 557.411 311.835C558.191 370.433 542.994 409.962 530.104 432.805C516.112 457.615 501.682 468.712 501.54 468.819C501.358 468.955 501.15 469.021 500.942 469.021Z" fill="black"/>
<path d="M109.924 323.03C109.669 323.03 109.416 322.932 109.223 322.738C108.84 322.351 108.845 321.725 109.233 321.344L111.822 318.794C112.209 318.408 112.834 318.414 113.216 318.802C113.598 319.19 113.593 319.816 113.206 320.196L110.617 322.747C110.425 322.939 110.174 323.03 109.924 323.03Z" fill="black"/>
<path d="M100.863 331.96C100.608 331.96 100.354 331.863 100.161 331.668C99.7788 331.282 99.7836 330.656 100.171 330.274L102.76 327.72C103.147 327.34 103.772 327.345 104.155 327.733C104.536 328.119 104.531 328.742 104.144 329.128L101.556 331.678C101.363 331.868 101.113 331.96 100.863 331.96Z" fill="black"/>
<path d="M103.48 323.004C103.228 323.004 102.975 322.905 102.782 322.715L100.216 320.14C99.8312 319.753 99.8328 319.13 100.218 318.745C100.603 318.358 101.227 318.361 101.612 318.748L104.179 321.323C104.563 321.706 104.562 322.329 104.176 322.715C103.984 322.908 103.731 323.004 103.48 323.004Z" fill="black"/>
<path d="M112.463 332.014C112.209 332.014 111.956 331.916 111.765 331.722L109.198 329.148C108.814 328.763 108.815 328.14 109.2 327.752C109.586 327.368 110.209 327.371 110.595 327.756L113.162 330.33C113.544 330.718 113.544 331.341 113.159 331.725C112.966 331.916 112.714 332.014 112.463 332.014Z" fill="black"/>
<path d="M125 406.5C125.828 406.5 126.5 405.828 126.5 405C126.5 404.172 125.828 403.5 125 403.5C124.172 403.5 123.5 404.172 123.5 405C123.5 405.828 124.172 406.5 125 406.5Z" fill="#E80D8B" stroke="black"/>
<mask id="mask0_45_10641" style="mask-type:luminance" maskUnits="userSpaceOnUse" x="376" y="48" width="66" height="66">
<path d="M442 48H376V114H442V48Z" fill="white"/>
</mask>
<g mask="url(#mask0_45_10641)">
<path d="M412.725 52.0422C410.799 49.6904 407.203 49.6904 405.278 52.0422L402.55 55.3737C402.363 55.602 402.051 55.6856 401.775 55.5813L397.747 54.0599C394.904 52.9859 391.789 54.7841 391.298 57.7836L390.601 62.0325C390.553 62.3238 390.325 62.552 390.034 62.5998L385.785 63.2962C382.786 63.7878 380.987 66.9024 382.061 69.7458L383.583 73.7737C383.687 74.0497 383.603 74.3616 383.375 74.5485L380.044 77.276C377.692 79.2016 377.692 82.798 380.044 84.7236L383.375 87.451C383.603 87.638 383.687 87.9499 383.583 88.226L382.061 92.2539C380.987 95.0971 382.786 98.2118 385.785 98.7035L390.034 99.3998C390.325 99.4476 390.553 99.6759 390.601 99.9671L391.298 104.216C391.789 107.215 394.904 109.014 397.747 107.94L401.775 106.418C402.051 106.314 402.363 106.397 402.55 106.626L405.278 109.957C407.203 112.309 410.799 112.309 412.725 109.957L415.452 106.626C415.639 106.397 415.951 106.314 416.227 106.418L420.255 107.94C423.099 109.014 426.213 107.215 426.705 104.216L427.401 99.9671C427.449 99.6759 427.677 99.4476 427.968 99.3998L432.217 98.7035C435.217 98.2118 437.015 95.0971 435.941 92.2539L434.42 88.226C434.315 87.9499 434.399 87.638 434.627 87.451L437.959 84.7236C440.311 82.798 440.311 79.2016 437.959 77.276L434.627 74.5485C434.399 74.3616 434.315 74.0497 434.42 73.7737L435.941 69.7458C437.015 66.9024 435.217 63.7878 432.217 63.2962L427.968 62.5998C427.677 62.552 427.449 62.3238 427.401 62.0325L426.705 57.7836C426.213 54.7842 423.099 52.9859 420.255 54.0599L416.227 55.5813C415.951 55.6856 415.639 55.602 415.452 55.3737L412.725 52.0422Z" fill="#E12599"/>
<path fill-rule="evenodd" clip-rule="evenodd" d="M425.582 69.9166C426.388 70.722 426.388 72.028 425.582 72.8334L406.332 92.0833C405.946 92.4702 405.421 92.6875 404.874 92.6875C404.327 92.6875 403.802 92.4702 403.416 92.0833L392.416 81.0833C391.61 80.2778 391.61 78.9721 392.416 78.1667C393.221 77.3612 394.527 77.3612 395.332 78.1667L404.874 87.7081L422.666 69.9166C423.471 69.1111 424.777 69.1111 425.582 69.9166Z" fill="#ECEFF1"/>
</g>
</svg>
