<svg width="367" height="380" viewBox="0 0 367 380" fill="none" xmlns="http://www.w3.org/2000/svg">
<path d="M99.1034 111.889C117.43 93.5335 123.444 78.7567 128.429 66.5094C132.988 55.3082 136.685 46.2229 148.154 38.4507C185.094 13.4128 254.04 34.953 294.717 69.391C344.538 111.57 370.24 188.581 340.961 258.252C309.778 332.449 227.732 370.963 154.523 359.356C89.1462 348.991 24.8797 297.715 18.4405 236.214C17.7423 229.548 14.6613 193.516 36.2708 162.449C45.8292 148.707 55.1858 143.172 66.0814 136.726C75.5468 131.127 86.1737 124.84 99.1034 111.889Z" fill="#BEFDFF"/>
<path d="M99.1034 111.889C117.43 93.5335 123.444 78.7567 128.429 66.5094C132.988 55.3082 136.685 46.2229 148.154 38.4507C185.094 13.4128 254.04 34.953 294.717 69.391C344.538 111.57 370.24 188.581 340.961 258.252C309.778 332.449 227.732 370.963 154.523 359.356C89.1462 348.991 24.8797 297.715 18.4405 236.214C17.7423 229.548 14.6613 193.516 36.2708 162.449C45.8292 148.707 55.1858 143.172 66.0814 136.726C75.5468 131.127 86.1737 124.84 99.1034 111.889Z" stroke="black"/>
<path d="M120.63 309.49C126.347 305.358 132.338 301.518 138.469 297.865C150.913 290.448 164.001 283.857 177.225 277.481C184.181 274.125 191.394 271.108 198.518 268C205.684 264.873 212.868 261.774 220.056 258.68C226.622 255.851 233.189 253.022 239.745 250.176C255.41 204.448 271.072 142.279 267.887 142.215L31.2649 140.482C25.5649 140.37 17.6324 145.602 18.5299 150.875L44.8706 305.653C45.7682 310.925 51.1357 315.305 56.8367 315.417L110.726 316.467C113.951 314.061 117.367 311.848 120.63 309.49Z" fill="#5479F7"/>
<path d="M31.093 141.086C27.6201 141.086 23.2471 143.155 20.8419 145.948C19.8761 147.07 18.795 148.817 19.1275 150.772L45.4672 305.55C46.3183 310.55 51.4235 314.704 56.8469 314.81L110.53 315.857C112.304 314.539 114.157 313.264 115.949 312.027C117.377 311.044 118.854 310.024 120.275 308.999C125.558 305.178 131.408 301.367 138.158 297.344C151.306 289.505 165.15 282.628 176.96 276.935C182.356 274.333 187.989 271.896 193.437 269.541C195.052 268.843 196.664 268.147 198.272 267.444C205.434 264.319 212.55 261.253 219.814 258.123C225.83 255.532 232.636 252.599 239.256 249.726C246.132 229.628 253.803 203.905 259.796 180.854C265.964 157.13 268.161 144.676 267.646 142.82L31.2603 141.089C31.2044 141.086 31.149 141.086 31.093 141.086ZM110.922 317.077L110.714 317.074L56.8237 316.024C50.8466 315.906 45.2159 311.3 44.2728 305.754L17.9326 150.976C17.606 149.061 18.2953 147.049 19.9236 145.157C22.6232 142.022 27.4029 139.802 31.2761 139.877L267.89 141.611C268.174 141.617 268.422 141.753 268.591 141.995C268.875 142.4 269.537 143.351 267.321 154.358C265.956 161.141 263.788 170.308 261.044 180.868C255.007 204.126 247.26 230.108 240.316 250.372L240.231 250.626L239.986 250.731C233.286 253.64 226.383 256.614 220.292 259.237C213.03 262.365 205.916 265.432 198.758 268.556C197.149 269.257 195.534 269.957 193.919 270.654C188.483 273.004 182.86 275.436 177.486 278.026C165.704 283.708 151.888 290.57 138.779 298.385C132.059 302.39 126.239 306.182 120.984 309.981C119.553 311.015 118.071 312.036 116.637 313.026C114.797 314.293 112.895 315.606 111.088 316.952L110.922 317.077Z" fill="black"/>
<path d="M261.306 140.354H31.9064C26.8437 140.354 23.4588 144.457 24.3464 149.52L51.9301 306.799C52.8182 311.863 57.643 315.966 62.7062 315.966H292.104C297.167 315.966 300.552 311.863 299.664 306.799L272.08 149.52C271.192 144.457 266.367 140.354 261.306 140.354Z" fill="black"/>
<path d="M256.173 145.842H39.5573C34.7761 145.842 31.5798 149.659 32.4189 154.366L58.4653 300.573C59.3029 305.28 63.8595 309.094 68.6401 309.094H285.256C290.035 309.094 293.233 305.28 292.394 300.573L266.348 154.366C265.507 149.659 260.952 145.842 256.173 145.842Z" fill="white"/>
<path d="M155.572 316.669H61.9251C58.1498 316.669 55.0781 319.739 55.0781 323.516C55.0781 327.29 58.1498 330.363 61.9251 330.363H158.368C162.145 330.363 155.572 316.669 155.572 316.669Z" fill="#5479F7"/>
<path d="M61.9247 317.275C58.4839 317.275 55.6839 320.075 55.6839 323.516C55.6839 326.956 58.4839 329.756 61.9247 329.756H158.368C158.616 329.756 158.696 329.662 158.751 329.575C159.644 328.157 157.252 321.652 155.189 317.275H61.9247ZM158.368 330.967H61.9247C57.8155 330.967 54.4717 327.625 54.4717 323.516C54.4717 319.406 57.8155 316.062 61.9247 316.062H155.953L156.118 316.404C157.01 318.265 161.382 327.671 159.778 330.22C159.47 330.709 158.982 330.967 158.368 330.967Z" fill="black"/>
<path d="M345.237 316.669H124.177C120.395 316.669 117.33 319.734 117.33 323.516C117.33 327.298 120.395 330.363 124.177 330.363H345.237C349.02 330.363 352.085 327.298 352.085 323.516C352.085 319.734 349.02 316.669 345.237 316.669Z" fill="#5479F7"/>
<path d="M124.178 317.275C120.737 317.275 117.937 320.074 117.937 323.515C117.937 326.956 120.737 329.755 124.178 329.755H345.24C348.682 329.755 351.481 326.956 351.481 323.515C351.481 320.074 348.682 317.275 345.24 317.275H124.178ZM345.24 330.967H124.178C120.068 330.967 116.725 327.625 116.725 323.515C116.725 319.405 120.068 316.062 124.178 316.062H345.24C349.35 316.062 352.694 319.405 352.694 323.515C352.694 327.625 349.35 330.967 345.24 330.967Z" fill="black"/>
<path d="M292.102 316.573H137.893C137.558 316.573 137.286 316.302 137.286 315.967C137.286 315.633 137.558 315.362 137.893 315.362H292.102C294.345 315.362 296.3 314.503 297.611 312.942C298.952 311.344 299.47 309.2 299.066 306.904L271.483 149.627C270.645 144.848 266.078 140.961 261.305 140.961H31.9066C29.6657 140.961 27.7108 141.821 26.4001 143.381C25.0582 144.978 24.5411 147.123 24.9444 149.418L37.0594 218.496C37.1163 218.826 36.8961 219.139 36.567 219.198C36.2355 219.256 35.9228 219.034 35.8649 218.704L23.75 149.627C23.2839 146.973 23.8959 144.477 25.4718 142.6C27.0161 140.761 29.3015 139.747 31.9066 139.747H261.305C266.642 139.747 271.741 144.086 272.678 149.418L300.261 306.696C300.726 309.349 300.115 311.844 298.538 313.722C296.993 315.56 294.708 316.573 292.102 316.573Z" fill="black"/>
<path d="M255.921 153.492H41.8991C39.6785 153.492 38.1941 155.295 38.5835 157.514L39.1021 160.474C39.4915 162.695 41.6082 164.496 43.8288 164.496H257.85C260.072 164.496 261.557 162.695 261.166 160.474L260.648 157.514C260.258 155.295 258.142 153.492 255.921 153.492Z" fill="#5479F7"/>
<path d="M255.847 158.995C256.103 160.458 255.126 161.643 253.663 161.643C252.2 161.643 250.807 160.458 250.55 158.995C250.295 157.532 251.272 156.347 252.735 156.347C254.196 156.347 255.591 157.532 255.847 158.995Z" fill="#FFF4E3"/>
<path d="M217.062 309.095C220.414 309.095 223.17 306.283 223.173 302.793C223.173 302.771 223.173 302.749 223.173 302.728C223.173 273.028 200.066 248.952 171.564 248.952C143.063 248.952 119.958 273.028 119.958 302.728C119.958 302.749 119.958 302.771 119.958 302.793C119.961 306.283 122.717 309.095 126.068 309.095H217.062Z" fill="#5479F7"/>
<path d="M256.961 246.834C246.85 229.782 232.023 215.858 214.273 206.87C200.169 199.73 184.23 195.7 167.346 195.7C166.812 195.7 166.28 195.714 165.749 195.721C148.092 195.986 131.503 200.654 117.022 208.673C100.209 217.985 86.2415 231.812 76.7538 248.516C68.139 263.687 63.2148 281.476 63.2148 300.158C63.2148 303.06 63.3395 305.725 63.5721 309.097H93.6643C93.551 307.075 93.4887 305.307 93.4887 303.551C93.4887 289.111 97.3688 275.478 104.107 263.964C110.805 252.518 120.33 242.981 131.677 236.515C142.112 230.571 154.087 227.137 166.827 227.091C166.912 227.091 166.999 227.071 167.086 227.071C178.722 227.071 189.728 229.869 199.512 234.858C211.675 241.058 221.946 250.627 229.187 262.396C236.465 274.225 240.683 288.516 240.683 303.573C240.683 305.327 240.619 307.075 240.507 309.097L266.529 309.266L271.156 306.963C271.39 303.59 271.479 303.06 271.479 300.158C271.479 280.78 266.179 262.385 256.961 246.834Z" fill="#5479F7"/>
<path d="M81.8652 248.765L109.218 264.089C115.917 252.643 125.442 243.168 136.789 236.702L122.133 208.92C105.32 218.233 91.3529 232.059 81.8652 248.765Z" fill="#5479F7"/>
<path d="M170.859 195.971C153.203 196.236 136.614 200.901 122.133 208.92L136.789 236.702C147.223 230.755 159.199 227.354 171.937 227.309L170.859 195.971Z" fill="#5479F7"/>
<path d="M68.3262 300.158C68.3262 303.058 68.4509 305.715 68.6834 308.846H98.7757C98.6628 307.106 98.6005 305.305 98.6005 303.549C98.6005 289.11 102.48 275.603 109.218 264.089L81.8657 248.766C73.2503 263.936 68.3262 281.474 68.3262 300.158Z" fill="#5479F7"/>
<path d="M234.296 262.641C241.575 274.47 245.794 288.393 245.794 303.449C245.794 305.205 245.73 306.758 245.617 308.608H276.233C276.466 305.834 276.588 302.939 276.588 300.037C276.588 280.66 271.289 262.574 262.071 247.023L234.296 262.641Z" fill="#E12599"/>
<path d="M219.384 207.12L204.623 235.1C216.785 241.298 227.056 250.872 234.297 262.642L262.071 247.084C251.96 230.032 237.132 216.108 219.384 207.12Z" fill="#E12599"/>
<path d="M172.457 195.95C171.924 195.95 171.392 195.961 170.859 195.97L171.937 227.309C172.025 227.309 172.11 227.305 172.196 227.305C183.834 227.305 194.839 230.112 204.623 235.099L219.384 207.119C205.281 199.978 189.34 195.95 172.457 195.95Z" fill="#E12599"/>
<path d="M172.136 298.084L172.774 260.608L207.079 204.016C207.93 202.61 209.768 203.312 209.467 204.926L197.411 269.505C197.127 271.028 196.435 272.464 195.431 273.611L173.549 298.628C173.003 299.253 172.121 298.914 172.136 298.084Z" fill="black"/>
<path d="M177.541 304.092C176.044 307.999 171.621 309.934 167.663 308.417C163.704 306.899 161.709 302.504 163.205 298.598C164.703 294.693 169.126 292.756 173.083 294.274C177.043 295.791 179.038 300.186 177.541 304.092Z" fill="black"/>
<path d="M170.436 297.19L171.028 262.385C171.057 260.646 171.564 258.901 172.481 257.392L205.378 203.122C206.23 201.718 208.068 202.418 207.768 204.032L195.682 268.759C195.416 270.186 194.768 271.53 193.828 272.605L171.846 297.736C171.301 298.359 170.421 298.02 170.436 297.19Z" fill="#FFF4E3"/>
<path d="M171.043 297.201C171.041 297.326 171.081 297.416 171.15 297.443C171.22 297.469 171.309 297.431 171.39 297.337L193.372 272.208C194.245 271.208 194.84 269.977 195.087 268.648L207.172 203.921C207.269 203.397 207.038 203.107 206.789 203.012C206.54 202.917 206.176 202.979 205.896 203.435L173 257.706C172.134 259.133 171.662 260.755 171.634 262.396L171.043 297.201ZM171.191 298.664C171.031 298.664 170.87 298.634 170.714 298.574C170.166 298.363 169.818 297.815 169.829 297.179L170.421 262.374C170.452 260.521 170.985 258.688 171.962 257.077L204.859 202.807C205.483 201.781 206.494 201.603 207.221 201.88C207.949 202.156 208.582 202.964 208.363 204.145L196.279 268.871C195.99 270.412 195.301 271.841 194.284 273.005L172.304 298.134C172.004 298.477 171.599 298.664 171.191 298.664Z" fill="black"/>
<path d="M175.766 303.22C174.57 306.344 171.032 307.892 167.867 306.68C164.701 305.464 163.106 301.949 164.301 298.827C165.5 295.703 169.036 294.154 172.202 295.367C175.369 296.58 176.964 300.096 175.766 303.22Z" fill="#FFF4E3"/>
<path d="M169.984 295.562C167.773 295.562 165.695 296.884 164.867 299.043C163.792 301.85 165.233 305.022 168.083 306.114C169.464 306.643 170.967 306.609 172.312 306.02C173.653 305.434 174.679 304.361 175.199 303.002C175.719 301.645 175.673 300.162 175.067 298.828C174.46 297.491 173.365 296.463 171.983 295.933C171.326 295.68 170.65 295.562 169.984 295.562ZM170.091 307.7C169.268 307.7 168.442 307.548 167.648 307.244C164.176 305.914 162.421 302.04 163.735 298.609C165.05 295.179 168.946 293.469 172.418 294.801C174.1 295.446 175.432 296.698 176.172 298.326C176.912 299.959 176.969 301.773 176.332 303.437C175.694 305.1 174.439 306.412 172.797 307.13C171.93 307.509 171.013 307.7 170.091 307.7Z" fill="black"/>
<path d="M133.255 315.223L135.597 318.929L167.798 267.633L164.16 262.984L146.616 287.014C145.93 287.938 138.081 299.112 133.484 305.66C131.484 308.51 131.394 312.28 133.255 315.223Z" fill="black"/>
<path d="M150.932 229.706C151.155 207.886 168.86 190.375 190.476 190.596C212.091 190.818 229.433 208.688 229.21 230.508C228.987 252.33 211.281 269.839 189.667 269.617C168.05 269.395 150.708 251.527 150.932 229.706ZM144.99 229.645C144.733 254.778 164.706 275.361 189.605 275.616C214.501 275.87 234.893 255.703 235.152 230.571C235.41 205.436 215.435 184.854 190.537 184.6C165.641 184.343 145.248 204.513 144.99 229.645Z" fill="black"/>
<path d="M151.632 292.794C152.307 293.029 154.455 290.223 154.958 289.729C156.934 287.783 164.279 286.122 165.208 282.057C166.411 276.788 165.93 275.273 164.589 275.447C163.246 275.621 156.978 280.857 151.721 281.222C151.721 281.222 150.537 281.083 150.666 276.145C150.683 275.454 149.942 274.974 149.33 275.293C148.487 275.731 147.411 276.673 146.528 278.68C145.402 281.244 145.618 284.198 145.797 285.969C145.915 287.142 145.49 290.658 146.386 290.97L151.632 292.794Z" fill="#F9D9A7"/>
<path d="M146.631 290.415L151.732 292.187C152.216 291.97 153.45 290.532 153.927 289.978C154.2 289.66 154.397 289.429 154.533 289.297C155.283 288.558 156.611 287.916 158.152 287.172C160.789 285.894 164.071 284.308 164.616 281.925C165.645 277.419 165.246 276.371 165.026 276.127C164.991 276.091 164.922 276.015 164.666 276.049C164.361 276.087 163.249 276.773 162.267 277.379C159.563 279.048 155.473 281.571 151.763 281.827L151.706 281.831L151.649 281.825C151.003 281.749 149.934 280.907 150.061 276.131C150.064 275.967 149.953 275.88 149.904 275.849C149.848 275.814 149.734 275.766 149.61 275.83C148.919 276.19 147.921 277.017 147.083 278.925C145.955 281.49 146.266 284.586 146.4 285.91C146.437 286.277 146.426 286.805 146.415 287.417C146.398 288.209 146.363 290.039 146.631 290.415ZM151.72 293.416C151.622 293.416 151.527 293.399 151.435 293.367L146.186 291.544C145.202 291.201 145.158 289.679 145.202 287.393C145.212 286.846 145.224 286.327 145.193 286.031C144.971 283.826 144.859 280.97 145.973 278.437C146.953 276.207 148.189 275.204 149.051 274.755C149.526 274.508 150.085 274.534 150.546 274.821C151.015 275.114 151.287 275.616 151.272 276.161C151.186 279.455 151.701 280.385 151.873 280.603C155.24 280.29 159.075 277.923 161.631 276.347C163.196 275.383 163.971 274.917 164.51 274.846C165.241 274.75 165.683 275.048 165.922 275.312C166.734 276.204 166.698 278.264 165.798 282.194C165.124 285.145 161.551 286.873 158.68 288.264C157.296 288.93 155.99 289.563 155.383 290.161C155.285 290.257 155.072 290.504 154.845 290.769C153.323 292.542 152.44 293.416 151.72 293.416Z" fill="black"/>
<path d="M92.3231 277.752L92.3228 277.752C88.5629 275.886 83.2295 274.614 77.7018 273.952C72.1855 273.293 66.5719 273.253 62.2913 273.795L62.2911 273.795C46.3101 275.82 34.5268 287.248 27.453 299.813C23.9219 306.086 21.5933 312.595 20.5158 318.265C19.4288 323.984 19.6482 328.671 20.9983 331.419M92.3231 277.752L20.9983 331.419M92.3231 277.752C97.1883 280.165 104.003 286.067 107.552 291.76C112.364 299.481 115.075 306.028 116.716 310.199C117.522 312.246 119.841 313.206 121.857 312.305C125.269 310.783 128.519 308.82 131.519 306.409C136.47 302.43 140.872 296.212 144.924 289.074L153.913 292.377C153.866 292.634 153.805 292.949 153.731 293.316C153.504 294.445 153.149 296.071 152.641 298.052C151.622 302.016 149.989 307.388 147.532 313.029C142.597 324.361 134.442 336.536 121.495 340.832L121.461 340.843L121.429 340.856C119.999 341.445 118.207 341.831 116.733 342.069C116.004 342.187 115.369 342.266 114.916 342.316C114.69 342.341 114.51 342.359 114.388 342.37C114.327 342.375 114.28 342.379 114.25 342.382L114.215 342.385L114.208 342.385L114.206 342.385L114.206 342.385L114.206 342.385L114.206 342.385L114.187 342.387L114.17 342.389L114.17 342.389L114.169 342.389L114.168 342.389L114.159 342.39C114.148 342.391 114.131 342.393 114.106 342.395C114.058 342.399 113.982 342.405 113.881 342.411C113.679 342.423 113.377 342.434 112.996 342.432C112.231 342.427 111.151 342.366 109.902 342.138C107.401 341.683 104.272 340.572 101.636 337.965L99.9059 336.254L99.9324 338.686L100.932 338.675C99.9324 338.686 99.9324 338.687 99.9324 338.687L99.9324 338.687L99.9325 338.689L99.9325 338.695L99.9329 338.719L99.9343 338.808C99.9356 338.886 99.9379 339.001 99.9415 339.15C99.9487 339.45 99.9613 339.887 99.983 340.444C100.026 341.557 100.106 343.149 100.252 345.07C100.537 348.827 101.075 353.857 102.089 359.029C102.085 359.032 102.081 359.034 102.076 359.037C101.773 359.209 101.239 359.412 100.441 359.624C98.8685 360.041 96.5353 360.428 93.6648 360.758C87.9382 361.415 80.2221 361.831 72.5211 361.856C64.8133 361.881 57.1712 361.515 51.5783 360.625C48.7686 360.177 46.5543 359.609 45.1172 358.932C44.3961 358.593 43.9493 358.262 43.7089 357.974C43.4954 357.717 43.4634 357.526 43.4996 357.335C44.466 352.262 45.6367 347.514 46.5666 344.032C47.0313 342.292 47.4354 340.871 47.723 339.885C47.8668 339.392 47.9815 339.008 48.06 338.748C48.0992 338.618 48.1295 338.519 48.1498 338.453L48.1727 338.378L48.1784 338.36L48.1797 338.356L48.18 338.355L48.1801 338.355L48.8338 336.254L46.8216 337.143M92.3231 277.752L46.8216 337.143M20.9983 331.419C24.4191 338.381 30.7039 339.869 36.3613 339.562C39.1906 339.409 41.8123 338.803 43.734 338.231C44.6925 337.946 45.4711 337.671 46.0073 337.468C46.2753 337.367 46.4824 337.284 46.6207 337.227C46.6898 337.199 46.7418 337.177 46.7755 337.162L46.8123 337.147L46.8203 337.143L46.8211 337.143M20.9983 331.419L46.8211 337.143M46.8211 337.143L46.8216 337.143M46.8211 337.143L46.8216 337.143" fill="#E12599" stroke="black" stroke-width="2"/>
<path d="M47.4783 330.96C47.227 330.96 46.9925 330.802 46.9049 330.552C41.2974 314.325 43.904 301.206 43.9312 301.076C43.999 300.748 44.3196 300.538 44.6476 300.605C44.9747 300.673 45.186 300.994 45.1187 301.322C45.093 301.448 42.5576 314.261 48.0508 330.156C48.1602 330.472 47.9929 330.817 47.6758 330.927C47.6105 330.949 47.5442 330.96 47.4783 330.96Z" fill="black"/>
<path d="M100.6 339.37C100.448 339.37 100.294 339.313 100.176 339.198C91.4016 330.629 85.3033 310.756 85.0475 309.915C84.951 309.595 85.1316 309.255 85.4522 309.158C85.7728 309.061 86.1103 309.242 86.2077 309.563C86.2696 309.766 92.4723 329.978 101.024 338.329C101.263 338.564 101.268 338.947 101.034 339.187C100.915 339.307 100.758 339.37 100.6 339.37Z" fill="black"/>
<path d="M74.9595 227.792C78.6833 227.809 82.1132 229.822 83.9825 233.041C84.8479 234.533 85.6351 235.923 85.794 236.316C86.1566 237.21 86.9542 240.215 89.8799 243.11C90.1694 243.396 90.21 243.848 89.9596 244.168L88.0848 246.565C87.9552 246.732 87.9023 246.943 87.9384 247.15C88.1615 248.429 89.2783 253.07 88.9473 253.905C88.2476 255.681 84.0038 256.162 82.747 256.267C82.511 256.285 82.3007 256.418 82.1859 256.626C81.7782 257.361 80.7025 259.47 79.8198 264.726C78.4745 272.741 86.1126 273.987 84.5565 274.77C78.1444 273.736 58.0562 272.578 54.8809 276.726C55.8333 274.851 66.7984 270.002 67.8187 256.82C68.252 243.11 59.0364 247.148 67.3296 231.504C69.2568 227.867 71.3386 227.775 74.9595 227.792Z" fill="#F9D9A7"/>
<path d="M55.4923 276.89C56.1845 277.448 60.1261 273.933 66.4307 273.717C73.2529 273.485 79.5664 276.486 83.8592 274.437C83.7494 274.358 83.6292 274.275 83.5193 274.197C81.8044 272.999 78.2359 270.504 79.222 264.627C79.846 260.912 80.6649 258.122 81.6559 256.332C81.8682 255.948 82.2571 255.699 82.6985 255.662C85.2224 255.452 87.9601 254.759 88.3836 253.684C88.5548 253.121 87.8913 249.941 87.6088 248.583C87.4915 248.02 87.3935 247.549 87.3416 247.253C87.2758 246.881 87.3732 246.494 87.6073 246.193L89.4825 243.795C89.5399 243.722 89.5281 243.616 89.4543 243.542C86.8092 240.924 85.8508 238.253 85.3901 236.97C85.3283 236.798 85.2768 236.653 85.2328 236.544C85.1615 236.369 84.8384 235.723 83.4585 233.346C81.696 230.31 78.4388 228.414 74.9579 228.399C74.9228 228.399 74.8867 228.397 74.8525 228.397C70.295 228.397 67.2417 229.801 65.7746 232.567C60.6842 242.168 63.2388 245.84 65.7088 249.389C67.166 251.485 68.6726 253.649 68.4232 256.869C67.6187 267.258 60.8955 272.522 57.283 275.352C56.4992 275.967 55.7536 276.55 55.4923 276.89ZM64.4105 274.963C60.0904 274.963 55.6907 278.807 54.57 277.684C54.2148 277.327 54.1292 276.867 54.341 276.451C54.622 275.896 55.3835 275.3 56.5359 274.397C60.0009 271.684 66.4515 266.632 67.2144 256.773C67.4297 253.988 66.1106 252.089 64.7128 250.082C62.1601 246.413 59.2666 242.254 64.7029 231.999C66.3733 228.85 69.8833 227.187 74.8575 227.187C74.8926 227.187 74.9278 227.187 74.9629 227.187C78.8727 227.204 82.5292 229.331 84.5069 232.738C85.967 235.252 86.261 235.854 86.3564 236.089C86.4054 236.21 86.4628 236.369 86.5316 236.56C86.9616 237.76 87.8577 240.255 90.3069 242.679C90.8165 243.183 90.8729 243.986 90.437 244.542L88.5627 246.939C88.539 246.97 88.5291 247.009 88.5355 247.045C88.5855 247.331 88.6815 247.79 88.7953 248.336C89.484 251.637 89.7839 253.438 89.5117 254.129C88.7374 256.093 84.9725 256.69 82.7979 256.872C82.7613 256.874 82.7321 256.892 82.7168 256.919C81.5654 258.997 80.8311 262.367 80.418 264.827C79.5575 269.948 82.5866 272.067 84.214 273.205C84.9349 273.708 85.4099 274.041 85.3713 274.59C85.3555 274.802 85.2496 275.101 84.8295 275.313C78.8421 278.335 70.9476 274.754 66.7741 274.918C66.0037 274.948 65.2081 274.963 64.4105 274.963Z" fill="black"/>
<path d="M81.2883 240.461L85.6291 235.028C87.8561 232.24 87.0778 228.133 83.9953 226.336C83.1413 225.837 82.1364 225.317 81.0147 224.834C69.866 220.033 57.0915 227.956 57.0791 240.094C57.0737 245.064 60.3957 250.824 67.4564 255.941C67.4564 255.941 72.4172 252.03 72.3533 247.799C72.3533 247.799 68.7537 243.528 73.8263 241.366C74.7976 240.952 75.9054 240.985 76.8525 241.45C78.3804 242.203 80.2255 241.791 81.2883 240.461Z" fill="black"/>
<path d="M74.6659 250.351C73.1825 250.351 71.2929 249.718 69.8907 247.067C69.7343 246.77 69.8471 246.404 70.1435 246.246C70.4399 246.091 70.8065 246.204 70.9629 246.5C73.0692 250.483 76.3274 248.827 76.465 248.753C76.7609 248.598 77.1275 248.711 77.2834 249.006C77.4397 249.303 77.3264 249.669 77.03 249.825C77.0088 249.836 76.0024 250.351 74.6659 250.351Z" fill="black"/>
<path d="M62.8363 226.903C62.8363 226.903 59.6241 215.794 47.9085 217.885C40.594 219.191 34.2057 224.106 30.6961 232.129C23.9056 247.653 30.0549 262.423 18.9889 275.901C16.4902 278.942 18.1067 287.77 22.0413 287.906C29.4775 288.162 42.6874 286.524 49.6551 276.949C55.364 269.103 49.0193 228.682 61.581 229.225L62.8363 226.903Z" fill="black"/>
<path d="M191.817 132.959H36.0952C33.1937 132.959 30.4857 130.661 30.0468 127.826L23.7556 87.2003C23.3177 84.3671 25.3137 82.0693 28.2151 82.0693H183.936C186.838 82.0693 189.546 84.3671 189.985 87.2003L196.276 127.826C196.714 130.661 194.718 132.959 191.817 132.959Z" fill="#AFE5FF"/>
<path d="M92.4559 108.575L86.9078 107.804L83.7356 103C83.0543 101.966 81.5457 101.966 81.1835 103L79.5002 107.804L74.1901 108.575C73.0486 108.741 72.7993 110.141 73.7686 110.945L78.2761 114.687L78.1668 119.968C78.143 121.102 79.4973 121.968 80.4581 121.432L84.9281 118.938L90.1699 121.432C91.2971 121.968 92.3831 121.102 92.0081 119.968L90.2629 114.687L93.6127 110.945C94.3326 110.141 93.6488 108.741 92.4559 108.575Z" fill="#E12599"/>
<path d="M115.153 108.575L109.605 107.804L106.433 103C105.751 101.966 104.243 101.966 103.881 103L102.197 107.804L96.887 108.575C95.7455 108.741 95.4971 110.141 96.4654 110.945L100.973 114.687L100.864 119.968C100.84 121.102 102.195 121.968 103.155 121.432L107.625 118.938L112.867 121.432C113.994 121.968 115.08 121.102 114.704 119.968L112.96 114.687L116.309 110.945C117.029 110.141 116.347 108.741 115.153 108.575Z" fill="#E12599"/>
<path d="M53.948 277.821L54.9612 271.835C63.1421 266.467 79.2853 268.186 86.3342 269.717L86.0925 276.762C85.6595 276.628 83.787 276.271 79.7607 275.908C75.7344 275.545 61.0373 278.177 54.192 279.539L53.948 277.821Z" fill="white" stroke="black" stroke-width="2"/>
<path d="M138.187 108.575L132.639 107.804L129.467 103C128.785 101.966 127.277 101.966 126.915 103L125.232 107.804L119.922 108.575C118.78 108.741 118.531 110.141 119.5 110.945L124.008 114.687L123.898 119.968C123.875 121.102 125.229 121.968 126.19 121.432L130.66 118.938L135.901 121.432C137.029 121.968 138.115 121.102 137.74 119.968L135.994 114.687L139.344 110.945C140.063 110.141 139.381 108.741 138.187 108.575Z" fill="#E12599"/>
<path d="M160.545 108.575L154.997 107.804L151.825 103C151.142 101.966 149.635 101.966 149.273 103L147.59 107.804L142.28 108.575C141.138 108.741 140.889 110.141 141.859 110.945L146.366 114.687L146.256 119.968C146.232 121.102 147.586 121.968 148.548 121.432L153.017 118.938L158.258 121.432C159.385 121.968 160.472 121.102 160.096 119.968L158.353 114.687L161.701 110.945C162.421 110.141 161.739 108.741 160.545 108.575Z" fill="#E12599"/>
<path d="M182.905 108.575L177.355 107.804L174.183 103C173.501 101.966 171.993 101.966 171.631 103L169.947 107.804L164.636 108.575C163.496 108.741 163.247 110.141 164.215 110.945L168.722 114.687L168.615 119.968C168.591 121.102 169.945 121.968 170.906 121.432L175.375 118.938L180.618 121.432C181.744 121.968 182.829 121.102 182.454 119.968L180.709 114.687L184.059 110.945C184.778 110.141 184.097 108.741 182.905 108.575Z" fill="#E12599"/>
<path d="M36.9042 108.437C35.5029 99.3861 41.8724 92.0479 51.1334 92.0479C60.3929 92.0479 69.036 99.3861 70.4377 108.437C71.8394 117.49 65.469 124.828 56.209 124.828C46.949 124.828 38.3064 117.49 36.9042 108.437Z" fill="#FEFFFF"/>
<path d="M43.7119 120.356C47.1631 123.14 51.497 124.849 55.9773 124.849C60.4576 124.849 64.2616 123.14 66.8513 120.356C63.1933 119.299 59.1756 118.705 55.0263 118.705C50.8755 118.705 47.0424 119.299 43.7119 120.356Z" fill="#E12599"/>
<path d="M57.3564 98.8631C56.5237 98.3857 55.5989 98.1318 54.695 98.1318H49.3735C48.1855 98.1318 47.1098 98.5697 46.3612 99.3594L46.1108 99.6256C44.9218 100.879 44.7393 102.818 45.6482 104.552L48.1315 109.295L59.3406 109.226L60.1213 104.044C60.4162 102.083 59.2896 99.972 57.3564 98.8631Z" fill="black"/>
<path d="M54.9032 100.931C54.8774 100.919 54.825 100.899 54.825 100.899L47.5684 105.728L48.0414 109.087C48.314 110.85 49.4006 112.419 50.8701 113.433L51.597 118.13C51.8839 119.984 53.6578 121.489 55.5573 121.489C57.4573 121.489 58.765 119.984 58.4775 118.13L57.7695 113.555C59.0193 112.545 59.6848 110.924 59.4008 109.087L58.8946 105.822C58.5577 103.644 56.9402 101.772 54.9032 100.931Z" fill="#FFF4E3"/>
<path d="M54.5806 115.24C54.2456 115.24 53.9745 114.969 53.9745 114.635C53.9745 114.299 54.2456 114.028 54.5806 114.028C55.9309 114.028 57.1115 113.52 57.9051 112.592C58.6839 111.683 59.0025 110.471 58.8022 109.18L58.296 105.914C57.8823 103.24 55.3163 101.063 52.5752 101.063H47.413L48.6411 108.995C48.9454 110.961 50.4154 112.759 52.3857 113.579C52.6949 113.708 52.8414 114.062 52.7128 114.373C52.5846 114.681 52.2303 114.826 51.9206 114.699C49.5688 113.72 47.8109 111.553 47.4432 109.18L46.1068 100.55C46.0796 100.377 46.1305 100.198 46.2458 100.063C46.3606 99.9297 46.5288 99.8516 46.706 99.8516H52.5752C55.8893 99.8516 58.9926 102.487 59.4949 105.727L60 108.995C60.2559 110.642 59.8382 112.201 58.8259 113.382C57.7977 114.58 56.2901 115.24 54.5806 115.24Z" fill="black"/>
<path d="M55.9692 125.433C51.4701 125.433 46.7225 123.751 42.8097 120.392C38.695 116.861 36.138 111.986 35.7951 107.025C35.513 102.948 36.7599 99.1193 39.3056 96.2356C44.8809 89.9211 55.322 89.6262 63.0769 95.5627C63.3421 95.7661 63.3926 96.1456 63.1892 96.4123C62.9853 96.6794 62.6053 96.7279 62.3387 96.5251C55.0885 90.974 45.3698 91.2001 40.2145 97.0382C37.8856 99.6754 36.7456 103.192 37.0048 106.94C37.3255 111.582 39.7296 116.15 43.5999 119.473C50.8818 125.724 61.211 125.822 66.6255 119.69C69.4488 116.491 70.4973 112.039 69.5022 107.474C69.4315 107.145 69.6383 106.823 69.9664 106.751C70.2919 106.679 70.616 106.887 70.6878 107.215C71.7654 112.163 70.616 117.002 67.5345 120.493C64.6251 123.787 60.4194 125.433 55.9692 125.433Z" fill="black"/>
<path d="M55.5574 122.096C53.3744 122.096 51.3289 120.358 50.9984 118.22L50.2721 113.528C50.2201 113.197 50.4472 112.887 50.7777 112.836C51.1097 112.786 51.4185 113.012 51.4699 113.342L52.1963 118.035C52.4397 119.605 53.9479 120.884 55.5574 120.884C56.3046 120.884 56.9552 120.602 57.3901 120.096C57.8156 119.6 57.9893 118.933 57.879 118.22L57.1882 113.767C57.1378 113.436 57.3639 113.124 57.6954 113.075C58.0259 113.023 58.3357 113.248 58.3866 113.581L59.0764 118.035C59.2426 119.103 58.97 120.116 58.3109 120.885C57.6415 121.664 56.6638 122.096 55.5574 122.096Z" fill="black"/>
<path d="M173.442 97.3812H79.0876C77.3019 97.3812 75.6354 95.9676 75.3658 94.2235L75.1495 92.8277C74.8794 91.0835 76.108 89.6699 77.8937 89.6699H172.248C174.031 89.6699 175.699 91.0835 175.968 92.8277L176.186 94.2235C176.456 95.9676 175.228 97.3812 173.442 97.3812Z" fill="#D3E65C"/>
<path d="M191.817 133.566H36.095C32.9115 133.566 29.9299 131.033 29.4475 127.919L23.1572 87.2925C22.9187 85.7562 23.3091 84.304 24.2542 83.1996C25.2136 82.0794 26.6208 81.4629 28.215 81.4629H183.935C185.218 81.4629 186.492 81.8602 187.621 82.6153C187.898 82.8003 187.974 83.1764 187.787 83.4564C187.602 83.734 187.223 83.8092 186.947 83.6227C186.019 83.0042 184.978 82.6761 183.935 82.6761H28.215C26.98 82.6761 25.9003 83.1407 25.175 83.9883C24.4635 84.8186 24.172 85.9264 24.3551 87.108L30.6464 127.734C31.0402 130.28 33.485 132.353 36.095 132.353H191.817C193.051 132.353 194.131 131.886 194.857 131.041C195.567 130.208 195.86 129.1 195.677 127.919L195.367 125.926C195.317 125.594 195.542 125.285 195.874 125.235C196.204 125.184 196.513 125.409 196.566 125.739L196.875 127.734C197.113 129.271 196.724 130.726 195.778 131.829C194.817 132.948 193.411 133.566 191.817 133.566Z" fill="black"/>
<path d="M293.56 200.098C293.56 200.098 300.266 213.638 307.805 220.146C309.074 221.243 311.054 220.637 311.528 219.027C311.802 218.096 312.071 216.853 312.294 215.201C313.123 209.019 307.563 192.919 307.563 192.919L305.086 192.122C304.217 191.843 303.297 192.374 303.104 193.267L302.846 194.472L299.869 191.851C299.191 191.254 298.149 191.343 297.589 192.052C296.452 193.494 294.686 196.185 293.56 200.098Z" fill="black"/>
<path d="M309.9 219.128C309.743 219.128 309.587 219.067 309.469 218.948C301.772 211.218 295.335 199.129 295.27 199.007C295.113 198.712 295.226 198.345 295.522 198.188C295.82 198.032 296.184 198.145 296.343 198.44C296.406 198.562 302.76 210.493 310.33 218.092C310.566 218.331 310.564 218.714 310.328 218.95C310.208 219.067 310.056 219.128 309.9 219.128Z" fill="#B8863A"/>
<path d="M306.633 208.555C306.379 208.555 306.139 208.393 306.057 208.138C305.952 207.822 306.126 207.477 306.442 207.372L310.451 206.054C310.769 205.95 311.11 206.121 311.217 206.439C311.322 206.757 311.147 207.099 310.83 207.205L306.82 208.524C306.76 208.545 306.694 208.555 306.633 208.555Z" fill="#B8863A"/>
<path d="M303.997 204.274C303.741 204.274 303.505 204.111 303.421 203.856C303.317 203.54 303.49 203.196 303.809 203.091L308.844 201.434C309.162 201.33 309.504 201.501 309.609 201.819C309.715 202.138 309.542 202.481 309.223 202.585L304.188 204.242C304.123 204.263 304.06 204.274 303.997 204.274Z" fill="#B8863A"/>
<path d="M291.72 138.079L230.272 122.063L239.576 99.1211C239.62 99.0991 239.669 99.0745 239.725 99.0472C240.014 98.9062 240.433 98.7104 240.972 98.4655C242.048 97.9765 243.578 97.3014 245.45 96.494C249.195 94.8797 254.299 92.7419 259.856 90.5156C270.997 86.0517 283.867 81.2698 291.288 79.6023L291.288 79.6022C298.834 77.9053 303.797 77.1086 307.489 77.7149C311.028 78.2961 313.484 80.1889 315.94 84.3131L315.94 84.3133C316.39 85.0696 316.538 86.4368 316.221 88.4961C315.911 90.5039 315.194 92.967 314.171 95.7378C312.125 101.274 308.912 107.888 305.522 114.267C302.135 120.639 298.587 126.747 295.884 131.265C294.533 133.523 293.394 135.382 292.594 136.676C292.228 137.267 291.932 137.74 291.72 138.079Z" fill="#6B450A" stroke="black" stroke-width="2"/>
<path d="M274.381 116.831C274.298 116.831 274.215 116.814 274.135 116.779C273.828 116.64 273.689 116.282 273.828 115.976C280.92 100.149 292.63 88.8363 292.747 88.7225C292.989 88.4924 293.372 88.5013 293.604 88.7432C293.835 88.9827 293.827 89.3682 293.587 89.5997C293.47 89.7096 281.927 100.869 274.935 116.473C274.834 116.698 274.612 116.831 274.381 116.831Z" fill="black"/>
<path d="M262.071 140.031C261.991 139.034 261.991 139.034 261.99 139.034L261.989 139.034L261.983 139.035L261.959 139.037L261.865 139.044C261.782 139.051 261.657 139.061 261.495 139.073C261.171 139.098 260.694 139.135 260.086 139.18C258.869 139.27 257.127 139.394 255.024 139.533C250.818 139.81 245.173 140.142 239.416 140.364C233.654 140.586 227.799 140.695 223.162 140.53C220.841 140.448 218.852 140.297 217.344 140.063C216.589 139.946 215.98 139.811 215.521 139.664C215.036 139.509 214.824 139.371 214.761 139.31L214.761 139.31C214.036 138.613 213.299 137.102 212.625 135.005C211.968 132.963 211.422 130.542 210.987 128.205C210.552 125.873 210.231 123.647 210.019 122.002C209.913 121.181 209.834 120.506 209.782 120.037C209.78 120.022 209.778 120.007 209.777 119.993L228.072 110.88C228.169 110.882 228.294 110.886 228.445 110.891C228.853 110.903 229.452 110.923 230.217 110.951C231.749 111.006 233.946 111.096 236.607 111.232C241.93 111.505 249.104 111.961 256.512 112.696C263.925 113.432 271.548 114.446 277.779 115.829C280.896 116.52 283.637 117.298 285.82 118.169C288.032 119.051 289.548 119.982 290.341 120.913L290.341 120.913C291.179 121.897 292.137 123.772 293.166 126.429C294.183 129.054 295.23 132.337 296.279 136.05C298.377 143.473 300.463 152.545 302.315 161.354C304.166 170.16 305.778 178.687 306.928 185.014C307.503 188.177 307.962 190.79 308.278 192.611C308.415 193.404 308.525 194.047 308.606 194.52L277.023 201.339C276.308 200.158 275.592 198.268 274.894 195.778C274.093 192.923 273.35 189.407 272.649 185.544C271.602 179.772 270.66 173.283 269.77 167.148C269.468 165.068 269.172 163.029 268.88 161.071C267.722 153.307 266.253 147.95 265.064 144.516C264.469 142.8 263.944 141.564 263.563 140.75C263.372 140.343 263.217 140.041 263.108 139.837C263.053 139.735 263.01 139.657 262.979 139.603C262.963 139.576 262.951 139.555 262.942 139.539L262.931 139.52L262.927 139.514L262.926 139.512L262.925 139.511C262.925 139.511 262.924 139.51 262.071 140.031ZM262.071 140.031L261.991 139.034L262.604 138.985L262.924 139.51L262.071 140.031Z" fill="#6B450A" stroke="black" stroke-width="2"/>
<path d="M294.937 128.974C294.69 128.974 294.455 128.818 294.368 128.568C292.989 124.608 291.736 121.948 290.64 120.66C286.629 115.946 260.402 112.511 237.193 110.868C236.858 110.845 236.607 110.556 236.629 110.221C236.655 109.888 236.946 109.631 237.279 109.659C251.865 110.692 286.354 113.753 291.564 119.873C292.772 121.294 294.064 124.008 295.512 128.169C295.622 128.485 295.456 128.831 295.137 128.94C295.073 128.964 295.006 128.974 294.937 128.974Z" fill="black"/>
<path d="M192.804 115.214C192.839 115.272 192.87 115.323 192.897 115.366L200.507 119.575L208.221 121.355L217.301 120.769L239.475 103.719C236.865 84.361 230.26 72.715 222.836 66.6127C215.355 60.463 206.975 59.8742 200.672 62.7078L192.804 115.214ZM192.804 115.214C192.661 114.974 192.452 114.602 192.205 114.093M192.804 115.214L192.205 114.093M192.205 114.093C191.711 113.076 191.066 111.513 190.492 109.371M192.205 114.093L190.492 109.371M190.492 109.371C189.343 105.091 188.471 98.4835 189.673 89.2918M190.492 109.371L189.673 89.2918M189.673 89.2918C190.89 79.9882 192.263 73.9449 194.038 69.9103M189.673 89.2918L194.038 69.9103M194.038 69.9103C195.786 65.9369 197.906 63.9518 200.672 62.7078L194.038 69.9103Z" fill="#0A428D" stroke="black" stroke-width="2"/>
<path d="M210.133 103.265C209.818 103.265 209.551 103.021 209.528 102.7L208.293 85.2231C208.268 84.8871 208.52 84.5976 208.855 84.5744C209.189 84.5462 209.479 84.802 209.501 85.137L210.739 102.615C210.76 102.95 210.509 103.24 210.177 103.263C210.162 103.265 210.147 103.265 210.133 103.265Z" fill="black"/>
<path d="M294.178 93.9518L258.134 95.8528L282.686 53.3467C283.454 52.0182 284.865 51.1632 286.431 51.0806L315.684 49.5378C317.541 49.4389 318.778 51.3676 317.866 52.9474L294.178 93.9518Z" fill="#5479F7"/>
<path d="M315.817 50.1413C315.783 50.1413 315.748 50.1413 315.714 50.1438L286.46 51.6861C285.095 51.7598 283.879 52.4941 283.209 53.6499L259.214 95.1901L293.816 93.3649L317.339 52.6435C317.645 52.1141 317.636 51.4877 317.318 50.9701C316.998 50.4452 316.442 50.1413 315.817 50.1413ZM258.129 96.4613C257.92 96.4613 257.724 96.3529 257.614 96.1713C257.496 95.9823 257.494 95.7453 257.605 95.5513L282.159 53.0443C283.034 51.5292 284.618 50.5693 286.396 50.4748L315.651 48.9326C316.752 48.8777 317.785 49.4115 318.352 50.3348C318.907 51.2393 318.921 52.3308 318.389 53.2511L294.699 94.258C294.598 94.4351 294.412 94.5479 294.207 94.5593L258.162 96.4613C258.15 96.4613 258.141 96.4613 258.129 96.4613Z" fill="black"/>
<path d="M299.845 64.8245C298.768 66.6888 296.328 68.2816 294.39 68.384C292.454 68.4864 291.759 67.0584 292.833 65.1941C293.911 63.3322 296.352 61.7389 298.287 61.637C300.225 61.5346 300.921 62.9631 299.845 64.8245Z" fill="#5CE1E6"/>
<path d="M293.505 97.0868L234.65 100.192C234.119 100.219 233.667 99.8131 233.64 99.2817L233.514 96.8859L294.289 93.6816L294.416 96.0774C294.442 96.6078 294.036 97.0606 293.505 97.0868Z" fill="#5479F7"/>
<path d="M234.148 97.4599L234.184 98.0957C234.228 98.9284 234.94 99.5761 235.772 99.5261L292.319 96.5425C293.149 96.4985 293.791 95.7865 293.747 94.9533L293.714 94.3184L234.148 97.4599ZM235.691 100.741C234.254 100.741 233.048 99.6112 232.971 98.16L232.906 96.9181C232.89 96.5841 233.145 96.2996 233.479 96.2803L294.256 93.0745C294.59 93.0641 294.874 93.313 294.894 93.6495L294.958 94.8889C295.037 96.3906 293.88 97.6741 292.383 97.7533L235.834 100.737C235.788 100.739 235.739 100.741 235.691 100.741Z" fill="black"/>
<path d="M234.148 97.4599L234.184 98.0957C234.228 98.9284 234.94 99.5761 235.772 99.5261L292.319 96.5425C293.149 96.4985 293.791 95.7865 293.747 94.9533L293.714 94.3184L234.148 97.4599ZM235.691 100.741C234.254 100.741 233.048 99.6112 232.971 98.16L232.906 96.9181C232.89 96.5841 233.145 96.2996 233.479 96.2803L294.256 93.0745C294.59 93.0641 294.874 93.313 294.894 93.6495L294.958 94.8889C295.037 96.3906 293.88 97.6741 292.383 97.7533L235.834 100.737C235.788 100.739 235.739 100.741 235.691 100.741Z" fill="black"/>
<path d="M188.288 105.12C188.288 105.12 186.418 113.668 196.707 119.682C220.965 127.894 248.647 111.943 247.789 108.493C247.789 108.493 260.912 110.023 263.171 101.819C263.171 101.819 258.705 101.531 255.589 99.2254C252.474 96.919 248.325 96.7677 246.416 97.6541C233.336 103.719 201.136 96.3704 188.288 105.12Z" fill="#FDEDD4"/>
<path d="M233.652 100.761C238.415 100.478 242.715 99.8592 246.005 98.4933L247.293 108.669L247.297 108.698L247.304 108.726C247.314 108.769 247.318 108.899 247.182 109.156C247.05 109.404 246.819 109.71 246.475 110.067C245.79 110.779 244.718 111.63 243.309 112.545C240.494 114.372 236.393 116.416 231.504 118.101C221.73 121.468 208.888 123.374 196.915 119.337C191.915 116.401 189.901 112.879 189.12 110.122C188.726 108.733 188.643 107.526 188.657 106.67C188.664 106.243 188.695 105.904 188.724 105.674C188.731 105.619 188.738 105.571 188.744 105.529C191.844 103.482 196.104 102.345 201.014 101.724C206.01 101.092 211.62 101 217.266 100.993C218.291 100.992 219.318 100.993 220.342 100.995C224.945 101.001 229.498 101.008 233.652 100.761Z" fill="#0A428D" stroke="black"/>
<path d="M189.457 105.203C189.327 106.273 189.017 110.647 192.016 114.606C195.094 118.669 200.61 121.084 208.408 121.785C230.277 123.754 247.477 108.482 247.65 108.327C247.779 108.211 247.951 108.155 248.125 108.175C248.245 108.189 259.794 109.423 262.41 102.819C260.967 102.63 257.813 102.033 255.392 100.265C252.464 98.1318 248.613 98.0427 246.953 98.8003C240.952 101.543 231.113 101.386 220.691 101.223C208.669 101.032 196.244 100.835 189.457 105.203ZM212.319 123.174C210.997 123.174 209.657 123.115 208.296 122.995C200.134 122.258 194.327 119.676 191.037 115.319C187.287 110.353 188.255 104.962 188.299 104.735C188.332 104.574 188.422 104.434 188.559 104.344C195.611 99.6137 208.373 99.8151 220.711 100.01C230.991 100.173 240.697 100.325 246.451 97.6974C248.661 96.6865 252.983 97.0081 256.105 99.2847C258.999 101.396 263.22 101.686 263.261 101.687C263.444 101.699 263.614 101.794 263.72 101.943C263.824 102.092 263.856 102.281 263.808 102.457C261.625 110.269 250.216 109.584 248.257 109.407C246.348 111.038 231.503 123.174 212.319 123.174Z" fill="black"/>
<path d="M208.793 54.0807C207.441 55.1994 204.841 56.5156 202.916 55.4206C201.482 54.6052 200.757 52.6433 200.917 50.447C200.235 50.4672 199.344 50.3747 198.733 49.78C197.795 48.8621 198.061 47.2748 198.15 46.2284C198.572 41.3962 195.798 40.5106 196.651 37.2608C197.322 34.7047 199.427 33.2698 199.822 33.0006C201.81 31.6439 203.082 32.1778 206.346 31.4984C211.835 30.3525 212.118 28.9255 215.689 29.0952C215.895 29.1051 220.754 28.5029 222.235 31.9422C223.436 34.7383 221.703 37.9762 219.996 39.6387C217.785 41.7896 216.336 40.5981 214.137 42.3843C210.276 45.5198 212.808 50.7607 208.793 54.0807Z" fill="#764C26"/>
<path d="M220.039 45.9865L219.835 45.7925C218.797 44.803 217.699 42.8431 217.368 41.4463C216.118 36.1164 211.304 34.1808 210.809 39.3192C210.677 40.6804 205.695 40.3577 206.213 41.8218C207.568 45.6352 207.651 44.6327 205.405 45.9009C205.158 45.8989 204.913 45.939 204.676 46.0345C203.532 46.4991 203.058 47.9963 203.621 49.3773C203.96 50.2145 204.606 50.8122 205.312 51.0542L205.014 56.958C204.902 59.1707 203.462 61.0969 201.374 61.8312L200.474 62.3245C200.098 62.5299 200.091 63.0657 200.458 63.2785C202.785 64.6208 209.871 67.8627 217.744 63.1157C217.902 63.0227 217.892 62.7911 217.73 62.7075L216.869 62.2671C214.701 61.1613 213.355 58.9154 213.402 56.482L213.448 55.3267C214.082 55.4148 214.697 55.4034 215.273 55.2668C217.95 54.6325 218.981 51.635 218.723 47.834L219.826 47.3101C220.343 47.0661 220.452 46.3818 220.039 45.9865Z" fill="#FDEDD4"/>
<path d="M200.856 62.807C203.376 64.2369 209.695 66.9043 216.847 62.9356L216.595 62.807C214.236 61.6031 212.745 59.1163 212.794 56.4707L212.844 55.3025C212.852 55.1308 212.931 54.971 213.061 54.8611C213.193 54.7513 213.364 54.7013 213.534 54.7255C214.116 54.8067 214.654 54.7899 215.133 54.6775C218.194 53.9507 218.24 49.6762 218.118 47.8742C218.102 47.6238 218.24 47.3903 218.464 47.2849L219.567 46.7614C219.651 46.7203 219.675 46.6466 219.681 46.6085C219.689 46.5679 219.689 46.4912 219.62 46.4249L219.417 46.2315C218.301 45.1637 217.143 43.1232 216.78 41.5829C216.101 38.6844 214.247 36.8349 212.936 36.921C212.113 36.9754 211.558 37.8715 211.413 39.3756C211.307 40.4651 209.908 40.7798 208.554 41.0876C207.975 41.2187 207.026 41.4354 206.795 41.6452C206.988 42.1885 207.149 42.6249 207.285 42.9851C207.939 44.7228 208.137 45.2443 206.649 45.9479C206.397 46.0647 206.084 46.2131 205.703 46.4269C205.61 46.4798 205.507 46.5056 205.4 46.5056C205.214 46.5085 205.054 46.5343 204.902 46.5966C204.07 46.935 203.748 48.0795 204.182 49.1473C204.442 49.7885 204.937 50.2868 205.507 50.4802C205.764 50.5678 205.931 50.8137 205.92 51.0829L205.62 56.9872C205.498 59.4409 203.929 61.5552 201.622 62.3874L200.856 62.807ZM209.107 66.1988C204.804 66.1988 201.454 64.5516 200.156 63.803C199.798 63.5957 199.579 63.2097 199.581 62.7946C199.586 62.3775 199.815 61.9935 200.182 61.7931L201.083 61.3003C201.112 61.283 201.14 61.2687 201.171 61.2593C203.038 60.6037 204.31 58.9041 204.408 56.9279L204.685 51.4426C203.972 51.071 203.39 50.4199 203.059 49.6049C202.373 47.9147 202.995 46.0627 204.446 45.4734C204.697 45.371 204.961 45.3116 205.24 45.2973C205.598 45.1023 205.891 44.9633 206.132 44.8515C206.291 44.7728 206.473 44.6892 206.564 44.6318C206.535 44.4294 206.346 43.9331 206.151 43.4116C206.01 43.0371 205.841 42.5819 205.643 42.0247C205.526 41.6977 205.548 41.3761 205.705 41.0901C206.082 40.4058 207.104 40.1742 208.287 39.9055C208.912 39.7645 210.073 39.4993 210.211 39.2425C210.501 36.1981 212.156 35.7572 212.852 35.7122C214.954 35.5667 217.19 38.0288 217.963 41.3068C218.265 42.6056 219.317 44.4581 220.253 45.3547L220.459 45.5472C220.798 45.8717 220.954 46.3388 220.878 46.8015C220.807 47.2616 220.509 47.6574 220.085 47.8578L219.35 48.2057C219.54 52.4366 218.118 55.2164 215.414 55.8581C214.978 55.96 214.516 56.0031 214.027 55.9868L214.008 56.5063C213.965 58.6779 215.198 60.7328 217.145 61.7268L218.006 62.1677C218.277 62.3058 218.451 62.5799 218.464 62.8856C218.473 63.1904 218.32 63.4769 218.059 63.6343C214.878 65.5531 211.803 66.1988 209.107 66.1988Z" fill="black"/>
<path d="M231.812 86.6993C231.77 78.1951 219.515 69.4824 219.515 69.4824L217.978 70.4048C217.978 70.4048 224.126 85.162 226.586 86.3918C229.045 87.6216 230.583 90.0811 231.505 91.9258C232.427 93.7704 231.823 88.7544 231.812 86.6993Z" fill="#FEFFFF" stroke="#060606" stroke-width="2"/>
<path d="M218.9 65.4854L216.748 65.7928L216.44 70.097C216.748 70.4044 217.547 72.0032 218.285 71.0193C219.023 70.0355 220.642 70.1995 221.36 70.4044V68.8672L218.9 65.4854Z" fill="white" stroke="#060606" stroke-width="2"/>
<path d="M199.531 61.7963C199.531 61.3044 201.581 59.7467 202.606 59.0293L216.748 63.3335V69.1749C214.801 68.6625 210.476 67.6377 208.754 67.6377C207.033 67.6377 201.683 65.1782 199.224 63.9484C199.326 63.436 199.531 62.2882 199.531 61.7963Z" fill="#093F88"/>
<path d="M220.745 67.6377L217.67 63.3335L217.055 62.4112L221.052 63.9484L220.745 67.6377Z" fill="#093F88"/>
<path d="M199.531 61.7963C199.531 61.3044 201.581 59.7467 202.606 59.0293L216.748 63.3335V69.1749C214.801 68.6625 210.476 67.6377 208.754 67.6377C207.033 67.6377 201.683 65.1782 199.224 63.9484C199.326 63.436 199.531 62.2882 199.531 61.7963Z" stroke="#060606" stroke-width="2"/>
<path d="M220.745 67.6377L217.67 63.3335L217.055 62.4112L221.052 63.9484L220.745 67.6377Z" stroke="#060606" stroke-width="2"/>
<path d="M213.449 55.9342C213.407 55.9342 213.367 55.9292 213.327 55.9228C209.449 55.1257 207.842 52.0466 207.774 51.9165C207.622 51.6186 207.742 51.252 208.039 51.1011C208.337 50.9502 208.7 51.0669 208.854 51.3643C208.872 51.4009 210.289 54.0614 213.57 54.7343C213.9 54.8006 214.111 55.1212 214.042 55.4493C213.982 55.7378 213.731 55.9342 213.449 55.9342Z" fill="black"/>
<path d="M276.97 34.5836C276.813 34.5836 276.657 34.5232 276.539 34.403C276.303 34.165 276.306 33.782 276.544 33.5465L278.137 31.979C278.373 31.743 278.758 31.746 278.994 31.984C279.228 32.2224 279.225 32.6074 278.986 32.8409L277.393 34.4104C277.277 34.5262 277.123 34.5836 276.97 34.5836Z" fill="black"/>
<path d="M271.397 40.074C271.243 40.074 271.084 40.0146 270.967 39.8934C270.73 39.6559 270.735 39.2715 270.972 39.0369L272.565 37.4675C272.802 37.2324 273.187 37.2349 273.422 37.4744C273.657 37.7124 273.655 38.0963 273.415 38.3319L271.822 39.9008C271.706 40.0166 271.551 40.074 271.397 40.074Z" fill="black"/>
<path d="M273.009 34.5663C272.852 34.5663 272.696 34.5059 272.578 34.3881L271.001 32.8038C270.763 32.5678 270.763 32.1848 271.001 31.9468C271.24 31.7113 271.622 31.7113 271.86 31.9493L273.437 33.5312C273.673 33.7697 273.671 34.1516 273.435 34.3901C273.317 34.5084 273.163 34.5663 273.009 34.5663Z" fill="black"/>
<path d="M278.532 40.1066C278.375 40.1066 278.221 40.0472 278.1 39.9285L276.524 38.3452C276.287 38.1077 276.289 37.7232 276.524 37.4887C276.761 37.2512 277.146 37.2512 277.383 37.4887L278.959 39.0715C279.197 39.3085 279.197 39.6935 278.959 39.9285C278.84 40.0472 278.686 40.1066 278.532 40.1066Z" fill="black"/>
<path d="M179.938 58.2162C179.744 58.2162 179.553 58.1227 179.436 57.952L163.256 34.1842C163.067 33.9056 163.139 33.5291 163.416 33.3426C163.694 33.1526 164.07 33.2248 164.258 33.5004L180.439 57.2687C180.627 57.5473 180.555 57.9238 180.279 58.1103C180.175 58.1826 180.056 58.2162 179.938 58.2162Z" fill="black"/>
<path d="M171.824 63.9943C171.706 63.9943 171.589 63.9592 171.484 63.8914L140.415 42.9677C140.139 42.7801 140.063 42.4041 140.251 42.128C140.438 41.8489 140.815 41.7757 141.093 41.9632L172.162 62.885C172.439 63.0725 172.513 63.4486 172.325 63.7276C172.21 63.9008 172.018 63.9943 171.824 63.9943Z" fill="black"/>
<path d="M241.467 100.534C242.313 100.819 245.216 111.805 245.216 111.805C253.494 110.393 250.592 106.93 248.43 102.232C247.817 100.9 247.263 99.468 247.041 97.9555C246.61 95.0296 240.62 100.25 241.467 100.534Z" fill="#093F88" stroke="black" stroke-width="2"/>
<path d="M164.796 72.6912C164.538 72.6912 164.287 72.66 164.041 72.5981C163.167 72.3715 162.735 71.8396 162.354 71.3706C162.064 71.0128 161.812 70.7036 161.359 70.5106C160.494 70.142 159.678 70.5705 158.731 71.0687C157.755 71.5838 156.646 72.1667 155.34 71.8555C153.751 71.4755 153.134 70.0747 152.59 68.8392C152.105 67.7363 151.647 66.6963 150.593 66.3113C149.389 65.8764 148.173 66.5825 146.886 67.3341C145.476 68.1564 143.878 69.0906 142.139 68.432C140.68 67.8808 140.063 66.5919 139.519 65.4539C139.054 64.4821 138.653 63.6419 137.842 63.4287C136.669 63.1169 135.005 64.1555 133.029 66.4296C132.809 66.6804 132.425 66.7072 132.174 66.4875C131.921 66.2693 131.894 65.8848 132.113 65.6335C134.479 62.9131 136.455 61.8058 138.153 62.257C139.504 62.6128 140.068 63.7909 140.613 64.9294C141.102 65.9536 141.564 66.9184 142.566 67.296C143.766 67.7502 144.985 67.0406 146.274 66.2871C147.678 65.4692 149.27 64.54 151.007 65.1733C152.546 65.7314 153.158 67.1228 153.698 68.3499C154.192 69.4686 154.618 70.4374 155.622 70.6749C156.486 70.8817 157.301 70.4503 158.167 69.995C159.232 69.4349 160.438 68.7991 161.833 69.3949C162.565 69.7061 162.97 70.2063 163.295 70.6086C163.622 71.0084 163.857 71.2978 164.344 71.4245C165.152 71.6284 166.15 71.2622 167.312 70.3256C167.572 70.1148 167.953 70.1549 168.164 70.4176C168.372 70.6774 168.332 71.0593 168.073 71.2686C166.898 72.2152 165.801 72.6912 164.796 72.6912Z" fill="black"/>
<path d="M180.039 358.934C168.56 358.934 154.902 357.487 142.114 352.459C141.802 352.336 141.648 351.985 141.771 351.673C141.893 351.36 142.246 351.206 142.557 351.33C175.608 364.324 215.06 353.421 215.454 353.309C215.777 353.218 216.111 353.406 216.203 353.727C216.295 354.049 216.107 354.384 215.783 354.476C215.685 354.504 205.65 357.311 191.635 358.456C188.163 358.74 184.247 358.934 180.039 358.934Z" fill="black"/>
<path d="M181.19 351.536C169.485 351.536 155.822 350.097 143.326 345.183C143.014 345.062 142.862 344.711 142.985 344.399C143.108 344.087 143.458 343.932 143.769 344.057C176.814 357.049 218.678 345.746 219.097 345.629C219.42 345.543 219.754 345.729 219.843 346.052C219.931 346.376 219.742 346.71 219.42 346.798C219.314 346.827 208.674 349.735 194.064 350.978C190.216 351.307 185.859 351.536 181.19 351.536Z" fill="black"/>
<path d="M307.727 276.933C307.563 276.933 307.4 276.867 307.28 276.737C307.053 276.489 307.069 276.107 307.318 275.88C307.4 275.805 315.658 268.089 322.9 252.065C329.588 237.269 336.752 212.163 332.914 176.569C332.881 176.234 333.12 175.937 333.454 175.902C333.787 175.862 334.086 176.106 334.121 176.438C337.992 212.344 330.737 237.691 323.975 252.631C316.626 268.857 308.221 276.695 308.139 276.772C308.019 276.88 307.875 276.933 307.727 276.933Z" fill="black"/>
<path d="M308.023 288.394C307.84 288.394 307.66 288.311 307.539 288.155C307.339 287.887 307.389 287.508 307.658 287.304C307.743 287.239 316.454 280.528 324.936 265.462C332.772 251.555 342.008 227.479 341.533 191.76C341.53 191.425 341.796 191.149 342.133 191.146C342.133 191.146 342.138 191.146 342.14 191.146C342.472 191.146 342.74 191.412 342.745 191.743C343.224 227.774 333.88 252.08 325.954 266.126C317.351 281.381 308.478 288.204 308.391 288.27C308.279 288.354 308.151 288.394 308.023 288.394Z" fill="black"/>
<path d="M67.5912 198.628C67.4343 198.628 67.2785 198.567 67.1597 198.448C66.9247 198.21 66.9277 197.825 67.1662 197.591L68.7579 196.023C68.9959 195.786 69.3803 195.789 69.6154 196.027C69.8499 196.266 69.8469 196.651 69.6089 196.885L68.0172 198.453C67.8989 198.571 67.7451 198.628 67.5912 198.628Z" fill="black"/>
<path d="M62.0189 204.118C61.8621 204.118 61.7062 204.058 61.5875 203.939C61.3524 203.701 61.3554 203.316 61.5939 203.082L63.1856 201.511C63.4236 201.277 63.8076 201.281 64.0431 201.519C64.2776 201.757 64.2747 202.14 64.0367 202.377L62.4449 203.945C62.3267 204.062 62.1728 204.118 62.0189 204.118Z" fill="black"/>
<path d="M63.6285 198.611C63.4732 198.611 63.3178 198.55 63.1991 198.433L61.6212 196.85C61.3847 196.612 61.3856 196.229 61.6226 195.992C61.8592 195.754 62.2431 195.756 62.4796 195.994L64.058 197.577C64.294 197.813 64.2935 198.196 64.0565 198.433C63.9383 198.552 63.7829 198.611 63.6285 198.611Z" fill="black"/>
<path d="M69.1523 204.151C68.9959 204.151 68.8406 204.091 68.7228 203.971L67.1444 202.389C66.9084 202.152 66.9089 201.769 67.1459 201.53C67.3829 201.294 67.7664 201.296 68.0034 201.533L69.5818 203.116C69.8168 203.354 69.8168 203.737 69.5803 203.973C69.4615 204.091 69.3067 204.151 69.1523 204.151Z" fill="black"/>
<path d="M76.861 250.144C77.4767 250.144 77.9759 249.645 77.9759 249.029C77.9759 248.413 77.4767 247.914 76.861 247.914C76.2452 247.914 75.7461 248.413 75.7461 249.029C75.7461 249.645 76.2452 250.144 76.861 250.144Z" fill="#E80D8B" stroke="black"/>
<mask id="mask0_188_40050" style="mask-type:luminance" maskUnits="userSpaceOnUse" x="231" y="29" width="41" height="42">
<path d="M271.78 29.5137H231.197V70.0962H271.78V29.5137Z" fill="white"/>
</mask>
<g mask="url(#mask0_188_40050)">
<path d="M253.778 32.0006C252.594 30.5545 250.382 30.5545 249.198 32.0006L247.521 34.0491C247.406 34.1895 247.214 34.2409 247.045 34.1767L244.568 33.2413C242.82 32.5809 240.904 33.6866 240.602 35.5309L240.174 38.1435C240.145 38.3226 240.004 38.463 239.825 38.4923L237.213 38.9205C235.368 39.2228 234.263 41.1379 234.923 42.8863L235.858 45.363C235.922 45.5327 235.871 45.7245 235.731 45.8394L233.682 47.5165C232.236 48.7005 232.236 50.912 233.682 52.0959L235.731 53.773C235.871 53.888 235.922 54.0798 235.858 54.2495L234.923 56.7262C234.263 58.4745 235.368 60.3897 237.213 60.692L239.825 61.1201C240.004 61.1496 240.145 61.2899 240.174 61.469L240.602 64.0815C240.904 65.9258 242.82 67.0315 244.568 66.3712L247.045 65.4358C247.214 65.3717 247.406 65.4229 247.521 65.5634L249.198 67.6118C250.382 69.0579 252.594 69.0579 253.778 67.6118L255.455 65.5634C255.57 65.4229 255.761 65.3717 255.931 65.4358L258.408 66.3712C260.156 67.0315 262.071 65.9258 262.374 64.0815L262.802 61.469C262.831 61.2899 262.971 61.1496 263.151 61.1201L265.763 60.692C267.608 60.3897 268.713 58.4745 268.053 56.7262L267.117 54.2495C267.053 54.0798 267.105 53.888 267.245 53.773L269.294 52.0959C270.74 50.912 270.74 48.7005 269.294 47.5165L267.245 45.8394C267.105 45.7245 267.053 45.5327 267.117 45.363L268.053 42.8863C268.713 41.1379 267.608 39.2228 265.763 38.9205L263.151 38.4923C262.971 38.463 262.831 38.3226 262.802 38.1435L262.374 35.5309C262.071 33.6866 260.156 32.5809 258.408 33.2413L255.931 34.1767C255.761 34.2409 255.57 34.1895 255.455 34.0491L253.778 32.0006Z" fill="#E12599"/>
<path fill-rule="evenodd" clip-rule="evenodd" d="M261.683 42.9916C262.178 43.4868 262.178 44.2898 261.683 44.7851L249.847 56.6216C249.609 56.8595 249.286 56.9931 248.95 56.9931C248.614 56.9931 248.291 56.8595 248.053 56.6216L241.289 49.8578C240.794 49.3626 240.794 48.5597 241.289 48.0644C241.785 47.5692 242.588 47.5692 243.083 48.0644L248.95 53.9313L259.89 42.9916C260.385 42.4963 261.188 42.4963 261.683 42.9916Z" fill="#ECEFF1"/>
</g>
</svg>
