<svg width="375" height="377" viewBox="0 0 375 377" fill="none" xmlns="http://www.w3.org/2000/svg">
<path d="M333.295 203.076C306.965 176.262 356.576 126.32 344.241 90.2369C327.636 41.6574 192.541 0.00777245 101.613 52.8948C25.4663 97.183 -0.976196 196.875 32.2916 237.17C42.2482 249.23 54.6382 252.438 70.9096 265.051C86.0475 276.785 87.7533 279.778 88.8411 281.818C99.6082 301.967 76.9651 319.649 81.5235 336.931C88.7209 364.233 160.724 378.8 220.935 369.56C237.171 367.067 319.45 352.576 349.714 292.371C352.056 287.714 374.213 242.72 353.363 217.688C346.133 209.008 340.315 210.223 333.295 203.076Z" fill="#FFB4E2"/>
<path d="M38.8047 70.3535H310.474C316.551 70.3535 321.907 75.281 322.436 81.3577L343.117 318.706C343.646 324.784 339.149 329.709 333.072 329.709H61.4041C55.3279 329.709 49.9694 324.784 49.4413 318.706L28.7603 81.3577C28.2316 75.281 32.7285 70.3535 38.8047 70.3535Z" fill="#E12599"/>
<path d="M44.1708 70.3545H315.839C321.916 70.3545 327.272 75.283 327.801 81.3587L348.481 318.706C349.011 324.784 344.514 329.709 338.438 329.709H66.7672C60.6915 329.709 55.3379 324.784 54.8078 318.706L34.1273 81.3587C33.5966 75.283 38.0951 70.3545 44.1708 70.3545Z" fill="white"/>
<path d="M335.696 172.602C335.714 172.602 335.733 172.6 335.751 172.598C336.093 172.571 336.346 172.268 336.316 171.926L328.42 81.3041C327.865 74.924 322.221 69.7334 315.839 69.7334H302.051C301.708 69.7334 301.43 70.0117 301.43 70.3558C301.43 70.6995 301.708 70.9778 302.051 70.9778H315.839C321.592 70.9778 326.68 75.6579 327.181 81.4121L335.077 172.032C335.106 172.357 335.377 172.602 335.696 172.602Z" fill="black"/>
<path d="M208.029 70.9778H294.779C295.122 70.9778 295.4 70.6995 295.4 70.3558C295.4 70.0117 295.122 69.7334 294.779 69.7334H208.029C207.685 69.7334 207.407 70.0117 207.407 70.3558C207.407 70.6995 207.685 70.9778 208.029 70.9778Z" fill="black"/>
<path d="M338.438 330.331C341.546 330.331 344.367 329.12 346.382 326.922C348.408 324.712 349.374 321.774 349.101 318.653L343.847 258.35C343.818 258.008 343.519 257.759 343.174 257.785C342.832 257.815 342.579 258.117 342.609 258.46L347.863 318.76C348.105 321.532 347.253 324.132 345.465 326.08C343.688 328.02 341.193 329.086 338.438 329.086C338.095 329.086 337.816 329.366 337.816 329.708C337.816 330.052 338.095 330.331 338.438 330.331Z" fill="black"/>
<path d="M51.7149 114.998H315.967C316.311 114.998 316.589 114.72 316.589 114.376C316.589 114.035 316.311 113.754 315.967 113.754H51.7149C51.3708 113.754 51.0934 114.035 51.0934 114.376C51.0934 114.72 51.3708 114.998 51.7149 114.998Z" fill="#E12599"/>
<path d="M202.21 310.141C202.228 310.141 202.247 310.139 202.267 310.139C202.609 310.108 202.86 309.806 202.832 309.464L183.133 83.3969C183.104 83.0538 182.799 82.7985 182.459 82.8309C182.117 82.8618 181.864 83.1627 181.894 83.5044L201.591 309.573C201.619 309.896 201.892 310.141 202.21 310.141Z" fill="#E12599"/>
<path d="M135.464 310.141C135.482 310.141 135.501 310.139 135.52 310.139C135.863 310.108 136.115 309.806 136.085 309.464L116.387 83.3969C116.356 83.0538 116.055 82.7985 115.715 82.8309C115.373 82.8618 115.119 83.1627 115.148 83.5044L134.846 309.573C134.873 309.896 135.145 310.141 135.464 310.141Z" fill="#E12599"/>
<path d="M268.957 310.141C268.975 310.141 268.993 310.139 269.012 310.139C269.354 310.109 269.607 309.806 269.577 309.465L249.879 83.3978C249.849 83.0537 249.548 82.8018 249.206 82.8303C248.864 82.8608 248.611 83.1617 248.64 83.5033L268.338 309.573C268.367 309.897 268.638 310.141 268.957 310.141Z" fill="#E12599"/>
<path d="M193.064 106.802H242.807L241.262 89.0713H191.52L193.064 106.802Z" fill="#0A428D"/>
<path d="M125.912 106.802H175.655L174.111 89.0713H124.368L125.912 106.802Z" fill="#5479F7"/>
<path d="M260.217 106.802H309.959L308.414 89.0713H258.672L260.217 106.802Z" fill="#5CE1E6"/>
<path d="M58.7644 106.803H108.506L106.96 89.0713H57.2186L58.7644 106.803Z" fill="#5CE1E6"/>
<path d="M75.3137 296.75H125.057L119.295 230.609H69.5517L75.3137 296.75Z" fill="#B1E4FF"/>
<path d="M138.487 251.082H188.227L182.465 184.943H132.722L138.487 251.082Z" fill="#1A73E8"/>
<path d="M267.335 171.387H315.586L311.969 129.878H263.718L267.335 171.387Z" fill="#0A428D"/>
<path d="M293.785 142.924C294.094 146.473 297.221 149.349 300.77 149.349C304.318 149.349 306.944 146.473 306.635 142.924C306.326 139.374 303.199 136.498 299.65 136.498C296.102 136.498 293.476 139.374 293.785 142.924Z" fill="white"/>
<path d="M274.305 165.157H308.572L307.653 154.599H273.385L274.305 165.157Z" fill="#5CE1E6"/>
<path d="M65.8798 171.385H114.131L110.514 129.877H62.2629L65.8798 171.385Z" fill="#B1E4FF"/>
<path d="M92.3322 142.924C92.6414 146.473 95.7694 149.349 99.3155 149.349C102.865 149.349 105.493 146.473 105.182 142.924C104.872 139.375 101.745 136.498 98.1963 136.498C94.6492 136.498 92.0219 139.375 92.3322 142.924Z" fill="white"/>
<path d="M72.8519 165.156H107.118L106.2 154.599H71.9315L72.8519 165.156Z" fill="#5CE1E6"/>
<path d="M204.171 234.252H253.912L244.818 129.878H195.078L204.171 234.252Z" fill="#5479F7"/>
<path d="M204.975 165.003H241.04L238.668 137.782H202.604L204.975 165.003Z" fill="#5CE1E6"/>
<path d="M205.89 175.505H241.954L241.34 168.453H205.276L205.89 175.505Z" fill="#5CE1E6"/>
<path d="M230.407 186.285C230.718 189.835 233.844 192.711 237.393 192.711C240.941 192.711 243.568 189.835 243.258 186.285C242.95 182.736 239.822 179.859 236.273 179.859C232.725 179.859 230.099 182.736 230.407 186.285Z" fill="white"/>
<path d="M210.4 227.253H246.829L244.457 200.031H208.029L210.4 227.253Z" fill="#5CE1E6"/>
<path d="M133.033 171.387H181.284L177.667 129.878H129.416L133.033 171.387Z" fill="#0A428D"/>
<path d="M168.104 164.94H175.664L173.197 136.614H165.635L168.104 164.94Z" fill="#5CE1E6"/>
<path d="M157.912 164.94H165.474L163.005 136.614H155.444L157.912 164.94Z" fill="#5CE1E6"/>
<path d="M147.72 164.94H155.281L152.814 136.614H145.251L147.72 164.94Z" fill="#5CE1E6"/>
<path d="M137.529 164.94H145.09L142.621 136.614H135.06L137.529 164.94Z" fill="#5CE1E6"/>
<path d="M168.104 164.94H175.664L175.225 159.897H167.664L168.104 164.94Z" fill="white"/>
<path d="M157.912 164.94H165.474L164.814 157.379H157.254L157.912 164.94Z" fill="white"/>
<path d="M147.72 164.94H155.281L153.218 141.243H145.655L147.72 164.94Z" fill="white"/>
<path d="M137.529 164.94H145.09L143.439 146.01H135.879L137.529 164.94Z" fill="white"/>
<path d="M312.212 231.045C316.328 234.244 322.42 238.981 331.068 238.802C332.438 238.774 343.607 238.376 348.744 230.029C349.419 228.932 352.498 223.927 350.773 219.273C348.936 214.314 343.292 214.178 343.022 210.966C342.665 206.707 352.501 205.696 354.308 199.614C356.256 193.053 348.153 182.971 339.036 178.186C328.056 172.42 317.843 175.514 315.497 169.81C314.136 166.502 317.181 164.519 315.662 160.01C314.043 155.203 308.115 150.123 302.876 151.891C299.538 153.016 296.881 156.787 297.193 160.212C297.574 164.406 302.128 165.041 304.702 168.736C311.269 178.162 293.998 191.793 297.237 209.613C299.308 221.011 308.714 228.324 312.212 231.045Z" fill="black"/>
<path d="M283.223 192.7L283.223 192.7C279.783 197.153 274.248 199.449 269.024 199.91C263.85 200.367 258.636 199.043 255.985 195.803C254.264 193.699 253.206 192.114 252.559 190.928L251.872 192.9C251.873 192.919 251.875 192.938 251.877 192.959C251.891 193.128 251.916 193.381 251.955 193.704C252.033 194.35 252.17 195.274 252.402 196.374C252.868 198.578 253.712 201.456 255.22 204.202C256.726 206.946 258.874 209.522 261.936 211.192C264.985 212.856 269.031 213.672 274.434 212.749L274.434 212.749C276.718 212.36 279.477 211.805 281.989 211.06C284.541 210.302 286.685 209.389 287.865 208.352L288.525 209.103L287.865 208.352C292.784 204.03 294.159 197.57 294.248 192.021C294.293 189.264 294.018 186.782 293.732 184.987C293.626 184.323 293.518 183.754 293.425 183.303C292.888 183.593 292.159 184.029 291.278 184.658C289.243 186.112 286.391 188.598 283.223 192.7Z" fill="#5479F7" stroke="black" stroke-width="2"/>
<path d="M291.037 184.951L291.037 184.951C294.08 182.276 298.307 181.319 302.507 181.168C306.692 181.018 310.691 181.673 313.165 182.079L291.037 184.951ZM291.037 184.951C287.812 187.785 287.565 191.073 287.628 196.602C287.633 197.034 287.64 197.477 287.646 197.932C287.726 203.282 287.831 210.314 285.484 219.88M291.037 184.951L328.799 192.177M328.799 192.177C332.8 202.288 328.595 212.367 325.83 217.335L325.71 217.551L325.704 217.798C325.466 228.171 327.279 235.144 328.645 240.396C328.729 240.72 328.812 241.038 328.892 241.35C330.278 246.727 330.865 249.936 328.325 253.546L329.142 254.121L328.325 253.546C325.493 257.57 320.503 259.571 315.069 260.317C309.656 261.06 303.997 260.53 300.107 259.682M328.799 192.177L328.721 192.451L327.644 189.68C327.279 188.741 326.748 187.855 325.986 186.997L328.799 192.177ZM300.107 259.682L299.895 260.659L300.108 259.682C300.107 259.682 300.107 259.682 300.107 259.682ZM300.107 259.682C298.745 259.385 294.231 258.314 289.635 255.944C285.016 253.564 280.493 249.966 278.825 244.701C277.762 241.343 278.39 239.04 279.851 235.581C280.089 235.016 280.349 234.422 280.625 233.792C282.056 230.523 283.917 226.27 285.484 219.88M285.484 219.88L284.513 219.642L285.484 219.88C285.484 219.88 285.484 219.88 285.484 219.88ZM325.986 186.996C323.107 183.756 318.863 183.017 313.166 182.079L325.986 186.996Z" fill="#5479F7" stroke="black" stroke-width="2"/>
<path d="M290.759 212.894C290.759 212.894 277.847 208.188 273.817 199.582L265.505 191.838C265.505 191.838 265.623 195.582 268.09 197.146C268.09 197.146 265.972 201.411 269.098 204.356C269.098 204.356 271.442 206.218 272.84 206.252C272.84 206.252 276.933 219.698 287.983 223.7C287.983 223.7 291.087 218.982 290.759 212.894Z" fill="#FFF4E3"/>
<path d="M290.155 213.33C290.287 217.943 288.411 221.706 287.717 222.935C277.45 218.875 273.474 206.201 273.435 206.072C273.357 205.817 273.123 205.638 272.855 205.63C271.996 205.611 270.355 204.556 269.506 203.885C266.787 201.299 268.57 197.577 268.648 197.42C268.787 197.136 268.692 196.79 268.424 196.619C267.281 195.896 266.705 194.599 266.415 193.536L273.305 199.956C277.096 207.878 287.915 212.452 290.155 213.33ZM287.983 224.321C288.188 224.321 288.385 224.22 288.503 224.042C288.634 223.842 291.715 219.081 291.38 212.86C291.367 212.612 291.206 212.397 290.971 212.31C290.845 212.264 278.253 207.589 274.38 199.319C274.346 199.248 274.298 199.182 274.24 199.128L265.929 191.383C265.745 191.212 265.477 191.169 265.248 191.272C265.019 191.375 264.875 191.606 264.884 191.858C264.888 192.014 265.026 195.526 267.328 197.365C266.851 198.656 265.907 202.204 268.671 204.808C268.684 204.821 268.698 204.832 268.711 204.843C268.944 205.027 270.853 206.515 272.371 206.821C273.149 209.12 277.485 220.558 287.772 224.284C287.841 224.311 287.913 224.321 287.983 224.321Z" fill="black"/>
<path d="M302.392 228.211C313.247 228.211 319.489 222.823 319.573 222.748C319.83 222.52 319.853 222.128 319.626 221.872C319.398 221.615 319.006 221.591 318.748 221.818C318.64 221.911 307.744 231.265 289.603 224.533C289.28 224.414 288.922 224.578 288.803 224.901C288.684 225.222 288.848 225.58 289.17 225.699C294.11 227.533 298.542 228.211 302.392 228.211Z" fill="black"/>
<path d="M295.799 213.653C305.275 213.653 310.793 208.258 313.815 203.5C317.357 197.923 318.272 192.174 318.309 191.934C318.362 191.594 318.129 191.276 317.79 191.223C317.452 191.174 317.133 191.404 317.08 191.744C317.071 191.801 316.158 197.508 312.745 202.865C308.22 209.968 301.652 213.136 293.224 212.276C292.881 212.247 292.576 212.491 292.542 212.833C292.507 213.174 292.755 213.479 293.097 213.513C294.032 213.609 294.932 213.653 295.799 213.653Z" fill="black"/>
<path d="M257.057 181.369L267.614 218.956L255.235 215.38L243.607 178.34L257.057 181.369Z" fill="white"/>
<path d="M256.561 181.893L266.713 218.048L255.729 214.875L244.524 179.184L256.561 181.893ZM267.615 219.578C267.776 219.578 267.934 219.516 268.052 219.397C268.213 219.24 268.274 219.007 268.213 218.789L257.657 181.2C257.595 180.98 257.418 180.81 257.195 180.76L243.743 177.733C243.526 177.686 243.3 177.756 243.15 177.919C242.999 178.082 242.947 178.314 243.014 178.527L254.643 215.566C254.705 215.766 254.863 215.92 255.063 215.978L267.441 219.555C267.499 219.571 267.557 219.578 267.615 219.578Z" fill="black"/>
<path d="M250.347 199.972C250.347 199.972 247.17 196.63 246.434 193.977C245.698 191.324 250.347 185.484 250.347 185.484V199.972Z" fill="#FFF4E3"/>
<path d="M249.726 187.372V198.307C248.769 197.133 247.455 195.329 247.034 193.811C246.655 192.445 248.208 189.574 249.726 187.372ZM250.348 200.594C250.425 200.594 250.504 200.581 250.578 200.551C250.814 200.455 250.97 200.228 250.97 199.972V185.484C250.97 185.219 250.802 184.984 250.553 184.896C250.302 184.809 250.026 184.89 249.861 185.097C249.366 185.718 245.037 191.267 245.836 194.143C246.605 196.913 249.763 200.259 249.897 200.4C250.017 200.526 250.181 200.594 250.348 200.594Z" fill="black"/>
<path d="M288.524 206.875C288.553 206.875 288.584 206.873 288.615 206.869C288.954 206.819 289.19 206.503 289.14 206.165C287.466 194.72 292.675 188.305 292.728 188.241C292.948 187.977 292.912 187.584 292.647 187.365C292.384 187.145 291.992 187.181 291.772 187.445C291.542 187.722 286.156 194.358 287.909 206.343C287.955 206.654 288.221 206.875 288.524 206.875Z" fill="black"/>
<path d="M288.354 306.579C288.354 309.015 294.022 306.724 301.146 308.296C311.52 310.589 316.735 306.302 316.735 303.866C316.735 301.43 308.949 302.167 301.621 302.167C294.294 302.167 288.354 304.142 288.354 306.579Z" fill="black"/>
<path d="M294.502 300.109L325.894 341.806L330.901 337.377C330.901 337.377 317.879 303.599 306.43 300.324L297.913 295.129L294.502 300.109Z" fill="#FFF4E3"/>
<path d="M330.163 337.199L325.986 340.893L295.266 300.091L298.093 295.965L306.106 300.852C306.154 300.882 306.205 300.905 306.259 300.92C316.621 303.885 328.651 333.393 330.163 337.199ZM325.894 342.426C326.045 342.426 326.192 342.372 326.306 342.27L331.313 337.842C331.508 337.669 331.574 337.394 331.481 337.152C330.945 335.763 318.273 303.202 306.683 299.749L298.237 294.598C297.954 294.424 297.586 294.503 297.4 294.776L293.988 299.756C293.837 299.978 293.844 300.269 294.004 300.484L325.397 342.178C325.501 342.318 325.659 342.405 325.831 342.423C325.852 342.424 325.873 342.426 325.894 342.426Z" fill="black"/>
<path d="M305.175 295.417C305.175 295.417 310.746 307.223 309.186 320.165C307.626 333.109 301.165 355.669 301.165 355.669H293.144L295.032 293.91L305.175 295.417Z" fill="#FFF4E3"/>
<path d="M300.695 355.047H293.786L295.631 294.628L304.747 295.982C305.58 297.891 309.953 308.611 308.569 320.092C307.154 331.834 301.609 351.801 300.695 355.047ZM293.144 356.291H301.165C301.443 356.291 301.687 356.107 301.763 355.84C301.827 355.615 308.256 333.083 309.804 320.241C311.366 307.269 305.794 295.273 305.738 295.152C305.65 294.964 305.473 294.833 305.268 294.803L295.123 293.294C294.947 293.268 294.769 293.318 294.632 293.432C294.497 293.546 294.416 293.713 294.41 293.891L292.523 355.65C292.517 355.818 292.581 355.981 292.698 356.101C292.815 356.224 292.976 356.291 293.144 356.291Z" fill="black"/>
<path d="M276.217 362.595C278.31 359.501 286.151 354.527 293.293 350.824L297.049 350.837C298.094 350.841 298.885 351.78 298.713 352.81L298.444 354.409L301.028 352.024C301.762 351.346 302.951 351.671 303.24 352.63C303.842 354.625 304.616 357.817 304.554 360.857C304.537 361.742 304.005 362.535 303.193 362.892C302.476 363.208 301.193 363.65 299.49 364.121C297.793 364.591 297.639 357.564 293.293 365.525C288.907 366.323 283.6 366.901 278.26 366.674C276.216 366.588 275.071 364.29 276.217 362.595Z" fill="black"/>
<path d="M278.665 364.66C287.847 364.66 293.479 363.25 293.723 363.187C293.912 363.139 293.99 363.019 293.898 362.921C293.806 362.822 293.578 362.781 293.389 362.828C293.329 362.844 287.247 364.364 277.666 364.256C277.462 364.252 277.282 364.341 277.277 364.451C277.273 364.561 277.439 364.652 277.65 364.654C277.992 364.658 278.331 364.66 278.665 364.66Z" fill="white"/>
<path d="M322.762 338.556L325.378 336.602C326.168 336.012 327.296 336.271 327.75 337.145L328.374 338.349L328.932 335.296C329.097 334.396 330.145 333.979 330.883 334.522C332.388 335.628 334.636 337.483 336.215 339.674C336.678 340.318 336.724 341.169 336.336 341.863C335.892 342.654 334.884 344.106 333.425 345.899C332.453 347.095 331.682 339.674 329.939 349.851C327.347 352.571 324.131 355.509 320.536 357.981C319.027 359.019 316.971 357.991 316.88 356.163C316.712 352.822 319.646 345.047 322.762 338.556Z" fill="black"/>
<path d="M318.986 356.956C319.069 356.928 319.15 356.891 319.215 356.847C326.177 352.188 328.428 348.995 328.521 348.861C328.597 348.75 328.486 348.682 328.272 348.709C328.056 348.736 327.82 348.849 327.743 348.961C327.72 348.992 325.455 352.196 318.652 356.75C318.485 356.862 318.475 356.974 318.631 357.001C318.725 357.017 318.859 356.998 318.986 356.956Z" fill="white"/>
<path d="M316.015 304.05C314.071 290.761 317.264 269.31 320.429 247.906C320.429 247.906 306.529 231.283 294.076 232.243C286.022 232.861 286.547 247.906 286.547 247.906L288.871 306.58C288.871 306.58 299.233 301.7 316.015 304.05Z" fill="#F3DD69"/>
<path d="M306.92 302.783C297.75 302.783 291.619 304.81 289.457 305.658L287.169 247.88C287.164 247.739 286.757 233.429 294.124 232.862C305.369 231.994 318.117 246.189 319.772 248.096L319.763 248.164C316.723 268.718 313.582 289.96 315.289 303.327C312.276 302.941 309.479 302.783 306.92 302.783ZM288.871 307.202C288.961 307.202 289.052 307.181 289.136 307.142C289.237 307.095 299.551 302.374 315.929 304.667C316.124 304.694 316.318 304.63 316.456 304.491C316.594 304.352 316.659 304.154 316.63 303.963C314.71 290.835 317.904 269.235 320.993 248.346L321.044 247.997C321.07 247.822 321.02 247.643 320.906 247.506C320.33 246.819 306.657 230.634 294.029 231.624C285.478 232.281 285.904 247.288 285.926 247.927L288.25 306.604C288.257 306.813 288.37 307.003 288.548 307.11C288.647 307.17 288.759 307.202 288.871 307.202Z" fill="black"/>
<path d="M323.591 258.488C323.85 258.488 324.091 258.324 324.179 258.068C324.253 257.851 325.919 252.735 320.878 247.476C320.64 247.226 320.247 247.219 319.999 247.457C319.751 247.694 319.742 248.088 319.98 248.336C324.504 253.054 323.018 257.62 323.002 257.665C322.891 257.991 323.065 258.344 323.39 258.454C323.457 258.477 323.525 258.488 323.591 258.488Z" fill="black"/>
<path d="M298.373 168.376C300.06 166.63 303.296 161.112 303.292 161.3C303.251 163.124 307.043 163.64 309.593 165.315C312.143 166.989 308.647 170.118 308.647 170.118C308.647 170.118 311.179 168.109 311.597 170.798C311.839 172.357 310.002 172.834 308.525 172.951C308.573 173.421 308.632 173.999 308.697 174.633C309.008 177.646 311.051 180.199 313.923 181.162L300.93 186.516L299.919 181.507L301.243 180.963C302.188 180.574 302.86 179.719 303.011 178.708L303.325 175.129C302.688 175.297 301.921 175.461 301.326 175.455C300.14 175.443 299.216 174.653 298.995 173.488C298.69 171.89 298.754 170.384 299.162 169.17L298.373 168.376Z" fill="#FFF4E3"/>
<path d="M312.34 181.143L301.39 185.654L300.63 181.887L301.48 181.538C302.62 181.07 303.443 180.02 303.626 178.802L303.944 175.183C303.962 174.982 303.88 174.783 303.726 174.653C303.57 174.524 303.362 174.477 303.165 174.528C302.191 174.787 301.636 174.839 301.331 174.834C300.451 174.824 299.772 174.249 299.605 173.372C299.321 171.882 299.372 170.498 299.752 169.371C299.826 169.147 299.769 168.901 299.604 168.733L299.227 168.354C300.426 166.933 302.039 164.386 303.046 162.794C303.086 162.732 303.126 162.668 303.165 162.607C303.82 163.362 305.039 163.869 306.305 164.395C307.319 164.818 308.367 165.254 309.251 165.834C309.794 166.191 309.881 166.55 309.898 166.788C309.977 167.841 308.689 169.244 308.232 169.654C307.981 169.879 307.954 170.261 308.171 170.518C308.388 170.776 308.77 170.813 309.033 170.605C309.429 170.294 310.189 169.9 310.564 170.05C310.83 170.156 310.94 170.623 310.982 170.892C311.023 171.155 310.977 171.358 310.839 171.532C310.512 171.948 309.65 172.239 308.476 172.331C308.309 172.344 308.155 172.424 308.048 172.553C307.94 172.681 307.89 172.848 307.907 173.013L308.079 174.697C308.36 177.436 309.981 179.836 312.34 181.143ZM300.93 187.139C301.01 187.139 301.091 187.124 301.167 187.092L314.16 181.737C314.4 181.639 314.552 181.4 314.545 181.141C314.536 180.882 314.367 180.655 314.12 180.574C311.486 179.691 309.6 177.333 309.315 174.569L309.207 173.502C310.451 173.321 311.327 172.921 311.815 172.305C312.167 171.858 312.305 171.304 312.211 170.702C312.064 169.753 311.662 169.144 311.017 168.891C310.862 168.831 310.703 168.797 310.544 168.782C310.915 168.157 311.193 167.428 311.139 166.694C311.099 166.163 310.858 165.402 309.934 164.795C308.952 164.15 307.799 163.671 306.783 163.247C305.299 162.628 303.896 162.047 303.914 161.313C303.919 161.034 303.737 160.78 303.469 160.701C302.992 160.554 302.955 160.615 301.996 162.129C300.967 163.754 299.052 166.779 297.926 167.942C297.69 168.187 297.693 168.573 297.931 168.814L298.459 169.346C298.116 170.597 298.089 172.061 298.383 173.605C298.662 175.067 299.842 176.061 301.318 176.078C301.684 176.079 302.118 176.031 302.63 175.93L302.392 178.654C302.277 179.406 301.745 180.084 301.007 180.387L299.683 180.933C299.407 181.045 299.251 181.339 299.31 181.63L300.321 186.639C300.358 186.822 300.473 186.977 300.637 187.065C300.729 187.114 300.829 187.139 300.93 187.139Z" fill="black"/>
<path d="M303.325 175.75C303.392 175.75 303.459 175.739 303.526 175.716L304.473 175.393C304.799 175.283 304.972 174.929 304.861 174.604C304.75 174.279 304.396 174.106 304.072 174.217L303.124 174.541C302.799 174.652 302.626 175.005 302.737 175.329C302.825 175.589 303.066 175.75 303.325 175.75Z" fill="black"/>
<path d="M92.0198 345.688L90.8883 357.756C90.8495 358.096 91.0768 358.408 91.3763 358.426L97.3391 358.797C97.5948 358.811 97.8167 358.605 97.851 358.314L98.9609 347.345L92.0198 345.688Z" fill="#B8863A"/>
<path d="M98.2869 347.824L97.2433 358.167L91.5107 357.813L92.5725 346.458L98.2869 347.824ZM97.3665 359.419C97.9276 359.419 98.3944 358.989 98.47 358.391L99.5789 347.407C99.6099 347.098 99.4061 346.813 99.1047 346.74L92.1636 345.083C91.9869 345.042 91.8043 345.078 91.656 345.183C91.5107 345.289 91.416 345.451 91.3998 345.63L90.2673 357.7C90.2305 358.035 90.3331 358.382 90.5535 358.643C90.7567 358.885 91.0336 359.028 91.3379 359.047L97.2993 359.417C97.3218 359.419 97.3439 359.419 97.3665 359.419Z" fill="black"/>
<path d="M89.9487 354.633C89.5515 356.059 88.7165 360.076 88.367 362.492C88.1481 364.01 89.1034 365.443 90.5623 365.84C94.6877 366.961 104.551 366.915 112.761 367.277C113.323 367.303 114.361 367.028 114.82 365.658C116.384 361.013 107.755 359.576 99.223 354.855C99.0556 354.762 98.8509 354.769 98.6938 354.882C98.5966 354.952 98.4729 355.039 98.3261 355.132C96.8417 356.081 94.3735 356.083 92.867 355.172L91.1656 354.142C90.6987 353.861 90.0969 354.103 89.9487 354.633Z" fill="#763B10"/>
<path d="M98.9886 355.435C101.58 356.865 104.181 357.996 106.478 358.996C112.009 361.403 115.097 362.891 114.234 365.461C113.834 366.643 112.966 366.664 112.79 366.658C110.682 366.564 108.437 366.496 106.267 366.432C100.099 366.246 93.7229 366.057 90.7261 365.242C89.5597 364.923 88.8106 363.782 88.9844 362.582C89.3177 360.272 90.1483 356.24 90.5479 354.8C90.5724 354.713 90.6362 354.674 90.6701 354.661C90.7113 354.645 90.7761 354.633 90.8444 354.676L92.5463 355.704C94.259 356.739 97.0011 356.717 98.6622 355.657C98.7839 355.576 98.8954 355.501 98.9886 355.435ZM112.834 367.902C113.728 367.902 114.901 367.373 115.412 365.857C116.681 362.081 112.396 360.215 106.972 357.856C104.682 356.858 102.085 355.728 99.5252 354.31C99.1467 354.103 98.6828 354.128 98.3348 354.378C98.2415 354.442 98.1276 354.522 97.9907 354.609C96.7129 355.426 94.5137 355.441 93.1908 354.64L91.4879 353.611C91.0986 353.376 90.6328 353.337 90.2121 353.506C89.788 353.673 89.4733 354.025 89.3486 354.468C88.9387 355.954 88.1042 359.988 87.7542 362.404C87.4887 364.225 88.6275 365.959 90.3986 366.442C93.5383 367.295 99.7034 367.479 106.231 367.674C108.395 367.741 110.634 367.806 112.734 367.9C112.767 367.902 112.8 367.902 112.834 367.902Z" fill="black"/>
<path d="M311.522 178.936L302.883 183.872L301.649 184.489V190.35L313.373 181.712L311.522 178.936Z" fill="white"/>
<path d="M301.032 184.489L301.649 179.553L297.33 184.18L298.564 188.808L301.032 184.489Z" fill="white"/>
<path d="M311.522 178.936L302.883 183.872L301.649 184.489V190.35L313.373 181.712L311.522 178.936Z" stroke="black" stroke-width="2"/>
<path d="M301.032 184.489L301.649 179.553L297.33 184.18L298.564 188.808L301.032 184.489Z" stroke="black" stroke-width="2"/>
<path d="M88.1199 363.588C88.1096 363.629 88.1051 363.659 88.1037 363.672C87.8842 365.188 89.3176 366.121 90.6872 366.767C94.7517 368.685 111.167 367.585 111.803 367.543C111.813 367.541 111.823 367.541 111.836 367.541C112.04 367.545 114.126 367.545 114.725 366.242C114.8 366.081 114.845 365.854 114.874 365.639C114.92 365.292 114.897 364.937 114.821 364.595C114.758 364.314 114.483 364.14 114.208 364.211C111.163 364.995 104.048 365.254 96.9381 364.467C92.2114 363.945 90.1595 362.907 89.0629 362.25C88.7649 362.069 88.3825 362.244 88.3143 362.59C88.2583 362.879 88.1881 363.228 88.1199 363.588Z" fill="white"/>
<path d="M111.839 366.917C111.815 366.917 111.765 366.92 111.744 366.921C105.925 367.314 94.0686 367.673 90.9505 366.203C89.278 365.413 88.5874 364.659 88.7179 363.76L88.8922 362.871C90.1464 363.6 92.3358 364.582 96.8686 365.084C104.223 365.897 111.247 365.571 114.234 364.843C114.28 365.091 114.288 365.33 114.255 365.558C114.219 365.834 114.174 365.95 114.16 365.98C113.807 366.745 112.505 366.931 111.846 366.917C111.844 366.917 111.842 366.917 111.839 366.917ZM101.51 368.518C106.317 368.518 110.931 368.223 111.844 368.161C112.267 368.176 114.54 368.122 115.289 366.501C115.38 366.302 115.447 366.046 115.49 365.719C115.542 365.315 115.521 364.891 115.426 364.458C115.359 364.159 115.173 363.897 114.914 363.736C114.655 363.579 114.35 363.532 114.054 363.607C111.251 364.328 104.321 364.658 97.0056 363.847C92.5277 363.351 90.5087 362.393 89.3836 361.715C89.0704 361.527 88.6851 361.502 88.3532 361.651C88.017 361.801 87.775 362.106 87.7023 362.469L87.5079 363.468L87.4863 363.575C87.1672 365.792 89.5304 366.908 90.4198 367.327C92.404 368.263 97.0409 368.518 101.51 368.518Z" fill="black"/>
<path d="M99.8069 359.229C99.939 359.229 100.073 359.187 100.185 359.101L102.675 357.196C102.947 356.987 103.001 356.597 102.791 356.324C102.58 356.052 102.193 355.999 101.919 356.207L99.4289 358.115C99.155 358.324 99.1054 358.712 99.3131 358.986C99.4348 359.146 99.6189 359.229 99.8069 359.229Z" fill="black"/>
<path d="M103.118 360.592C103.246 360.592 103.379 360.551 103.492 360.467L105.669 358.823C105.944 358.618 105.998 358.227 105.792 357.953C105.584 357.678 105.196 357.624 104.921 357.83L102.742 359.474C102.469 359.681 102.413 360.07 102.619 360.345C102.742 360.506 102.93 360.592 103.118 360.592Z" fill="black"/>
<path d="M47.7607 332.199C61.0392 301.374 66.4895 262.941 67.9719 253.607C69.5619 243.581 74.2955 234.064 74.2955 234.064L95.0713 235.799C95.0713 235.799 95.3643 235.045 94.6928 239.44L107.816 240.412C118.687 274.657 102.653 344.57 100.794 351.963C100.664 352.477 100.25 352.86 99.7322 352.957C96.9151 353.485 92.797 353.048 90.5154 352.726C89.6068 352.596 88.9725 351.758 89.0884 350.842C90.5615 339.376 89.5081 302.625 86.2844 282.525C75.4275 322.415 56.8352 338.032 56.8352 338.032C56.8352 338.032 55.741 338.986 55.0813 339.309C53.7981 339.936 53.1781 340.466 51.6947 340.141C47.9958 339.331 46.2547 335.694 47.7607 332.199Z" fill="black"/>
<path d="M107.351 241C118.556 277.221 100.371 351.1 100.193 351.811C100.123 352.087 99.9018 352.292 99.6186 352.345C96.8755 352.859 92.7933 352.419 90.6044 352.11C90.0262 352.027 89.6335 351.507 89.7076 350.923C91.2342 339.031 90.0904 302.323 86.9007 282.428C86.854 282.138 86.6101 281.92 86.3175 281.905C86.0318 281.896 85.7623 282.08 85.6833 282.362C75.0134 321.571 56.6229 337.4 56.4373 337.556C56.1423 337.813 55.2891 338.516 54.8086 338.751C54.5994 338.853 54.4065 338.953 54.2249 339.048C53.3118 339.521 52.8548 339.76 51.8303 339.534C50.2713 339.195 49.0451 338.287 48.3755 336.983C47.6833 335.64 47.6716 333.986 48.3338 332.446C60.8769 303.326 66.4568 267.406 68.2897 255.603C68.4012 254.877 68.5008 254.243 68.5867 253.706C69.9676 245.005 73.7911 236.581 74.6712 234.722L94.4809 236.375C94.4367 236.836 94.3302 237.711 94.0794 239.347C94.0539 239.52 94.1 239.692 94.207 239.828C94.3165 239.965 94.4765 240.048 94.6483 240.061L107.351 241ZM96.5613 353.824C97.7228 353.824 98.8611 353.754 99.8463 353.568C100.604 353.425 101.212 352.856 101.398 352.115C101.579 351.396 119.974 276.654 108.411 240.222C108.334 239.981 108.118 239.809 107.865 239.792L95.4102 238.87C95.9236 235.433 95.8564 235.307 95.2713 235.152C95.1549 235.119 95.0268 235.121 94.9036 235.162L74.3458 233.445C74.0886 233.428 73.8515 233.56 73.7376 233.789C73.6914 233.885 68.9451 243.506 67.358 253.509C67.2721 254.049 67.1749 254.686 67.0611 255.413C65.2325 267.177 59.6732 302.979 47.191 331.954C46.38 333.836 46.408 335.876 47.2695 337.551C48.1104 339.191 49.6371 340.327 51.5628 340.751C53.0286 341.071 53.8494 340.645 54.7968 340.151C54.9705 340.061 55.1541 339.964 55.3544 339.867C56.0701 339.52 57.1295 338.605 57.2473 338.501C57.422 338.354 75.2245 323.063 86.104 285.472C88.9501 305.221 89.8917 339.732 88.4745 350.763C88.314 352.01 89.1922 353.166 90.4307 353.341C91.9293 353.553 94.292 353.824 96.5613 353.824Z" fill="black"/>
<path d="M86.1695 285.611C86.1828 285.611 86.1951 285.61 86.2078 285.61C86.5514 285.589 86.8111 285.296 86.792 284.952C86.7753 284.683 86.3669 278.309 83.2596 271.002C82.3514 268.869 81.6956 266.319 81.3103 263.426C81.2631 263.086 80.9519 262.847 80.6112 262.892C80.2725 262.938 80.0315 263.249 80.0757 263.59C80.4777 266.596 81.164 269.252 82.1143 271.488C85.1392 278.598 85.5456 284.963 85.5495 285.026C85.5707 285.356 85.8436 285.611 86.1695 285.611Z" fill="black"/>
<path d="M51.6676 345.994C52.3937 342.351 50.8568 344.688 52.5969 341.879C53.8895 339.794 50.7468 336.647 49.1475 336.404C46.4795 335.852 46.9061 336.702 43.8543 340.633L43.3142 340.504C43.3142 340.504 51.0359 349.177 51.6676 345.994Z" fill="#B8863A"/>
<path d="M49.8364 333.776C50.1015 333.776 50.4275 333.836 50.8737 333.928C51.7391 334.059 53.2427 335.294 53.8647 336.639C54.2029 337.367 54.221 337.982 53.9211 338.467C52.1073 341.394 51.7862 342.226 51.0617 345.872C51.0332 346.001 50.9979 346.058 50.9861 346.066C50.3951 346.368 47.3845 344.061 44.1333 340.481L46.1882 337.939C46.9677 336.936 47.5136 336.145 47.9549 335.51C48.8699 334.183 49.1517 333.776 49.8364 333.776ZM50.9674 347.311C51.0897 347.311 51.2016 347.296 51.3076 347.268C51.6012 347.187 52.1171 346.932 52.2791 346.114C53.0012 342.494 53.3183 341.799 54.977 339.122C55.5047 338.272 55.5121 337.233 54.9957 336.116C54.2475 334.499 52.4224 332.905 51.0916 332.704C48.7172 332.213 48.2317 332.919 46.9294 334.801C46.5004 335.425 45.9658 336.202 45.2153 337.167L42.8335 340.111C42.641 340.35 42.6484 340.69 42.8526 340.917C44.2315 342.467 48.7246 347.311 50.9674 347.311Z" fill="black"/>
<path d="M50.9669 347.313C51.0891 347.313 51.201 347.297 51.3071 347.269C51.6006 347.189 52.1165 346.933 52.2785 346.115C52.9167 342.915 53.116 342.078 54.3874 339.942C54.5636 339.647 54.4674 339.265 54.1738 339.09C53.8788 338.914 53.4964 339.009 53.3202 339.304C51.9452 341.612 51.7179 342.571 51.0611 345.873C51.0327 346.003 50.9973 346.059 50.9855 346.067C50.3945 346.369 47.3839 344.062 44.1347 340.485L46.0659 338.115C46.9524 336.975 47.4968 336.088 47.9828 335.277C48.1585 334.981 48.0599 334.6 47.7673 334.423C47.4713 334.248 47.0889 334.345 46.9151 334.64C46.4483 335.419 45.927 336.268 45.0949 337.341L42.8329 340.111C42.6405 340.348 42.6478 340.69 42.852 340.918C44.2309 342.469 48.724 347.313 50.9669 347.313Z" fill="black"/>
<path d="M52.0914 344.626L49.0007 339.942C47.5585 337.755 44.4915 337.431 42.6295 339.264L39.0903 342.249C39.0903 342.249 38.4143 344.298 38.6303 345.622C38.9096 347.346 39.4604 349.801 40.5276 352.237C42.1691 355.981 46.7137 363.505 48.3312 366.149C48.6684 366.704 49.5176 367.252 50.1082 366.985C50.8106 366.67 51.5367 366.102 52.2381 365.441C53.3245 364.417 52.9597 359.628 52.5729 356.295C52.3211 354.158 52.5091 348.704 52.5984 346.455C52.6249 345.807 52.4472 345.168 52.0914 344.626Z" fill="#763B10"/>
<path d="M45.5352 338.696C45.6564 338.696 45.7797 338.701 45.9058 338.714C46.9583 338.825 47.8968 339.398 48.481 340.285L51.5726 344.971C51.8573 345.405 52.0006 345.91 51.9786 346.431C51.8858 348.691 51.7012 354.187 51.955 356.367C52.7841 363.464 52.0571 364.759 51.8126 364.988C51.0734 365.686 50.4131 366.166 49.8545 366.419C49.6547 366.509 49.099 366.212 48.8614 365.825C47.4575 363.529 42.746 355.744 41.0991 351.987C40.0446 349.58 39.5096 347.144 39.244 345.524C39.1036 344.648 39.4384 343.25 39.6313 342.608L43.067 339.709C43.7297 339.055 44.6133 338.696 45.5352 338.696ZM49.7671 367.679C49.9689 367.679 50.1706 367.641 50.365 367.554C51.0596 367.239 51.8126 366.698 52.6678 365.894C53.3044 365.292 54.0555 363.634 53.1901 356.224C52.9456 354.13 53.1307 348.714 53.221 346.481C53.2524 345.698 53.0433 344.94 52.6103 344.286L49.5222 339.602C48.7309 338.402 47.4595 337.629 46.0364 337.478C44.6207 337.328 43.2285 337.812 42.2109 338.804L38.5568 341.886L38.5028 342.054C38.4718 342.143 37.7802 344.267 38.0173 345.722C38.2912 347.414 38.8542 349.96 39.9587 352.486C41.5934 356.211 45.9863 363.508 47.8016 366.475C48.1604 367.061 48.9611 367.679 49.7671 367.679Z" fill="black"/>
<path d="M52.4626 350.592C52.735 350.592 52.9844 350.411 53.061 350.136C53.1533 349.805 52.9594 349.461 52.629 349.371L49.3018 348.452C48.969 348.362 48.6293 348.555 48.537 348.886C48.4442 349.217 48.6411 349.559 48.9714 349.651L52.2962 350.57C52.3517 350.585 52.4096 350.592 52.4626 350.592Z" fill="black"/>
<path d="M52.2116 353.577C52.4846 353.577 52.7364 353.396 52.813 353.12C52.9052 352.789 52.7113 352.447 52.3785 352.355L49.0538 351.436C48.7234 351.346 48.3808 351.538 48.288 351.87C48.1957 352.201 48.3901 352.543 48.7234 352.635L52.0482 353.554C52.1031 353.569 52.1591 353.577 52.2116 353.577Z" fill="black"/>
<path d="M48.8222 367.231C49.1599 367.231 49.4829 367.177 49.7769 367.076C50.7685 366.732 53.2544 365.988 52.9765 362.409C52.6889 358.698 49.882 356.809 47.8306 354.374C46.2676 352.516 46.4247 344.749 45.9318 343.225C45.0507 340.499 41.0863 340.087 39.0923 342.248C37.8332 343.612 37.6854 346.575 37.8072 348.755C38.0399 352.834 40.4261 360.956 43.4416 364.878C44.9127 366.791 47.1826 367.231 48.8222 367.231Z" fill="white"/>
<path d="M42.3445 341.488C42.6228 341.488 42.9016 341.518 43.1775 341.578C44.2486 341.815 45.0389 342.483 45.3389 343.418C45.4842 343.864 45.5789 345.152 45.682 346.516C45.9078 349.581 46.1935 353.396 47.3549 354.775C47.8424 355.352 48.3711 355.903 48.883 356.435C50.5633 358.18 52.1509 359.826 52.3556 362.457C52.5868 365.455 50.6851 366.107 49.6611 366.458L49.5732 366.488C49.3376 366.569 49.0848 366.611 48.8207 366.611C47.6004 366.611 45.3457 366.336 43.9344 364.499C40.8929 360.546 38.6412 352.513 38.4292 348.72C38.2647 345.824 38.6716 343.619 39.5474 342.669C40.2479 341.914 41.2856 341.488 42.3445 341.488ZM48.8207 367.855C49.2232 367.855 49.6135 367.79 49.9777 367.665L50.0656 367.634C51.1156 367.274 53.9004 366.319 53.596 362.36C53.355 359.284 51.5373 357.398 49.7779 355.572C49.2802 355.055 48.7667 354.52 48.3072 353.975C47.405 352.902 47.1119 349.003 46.9215 346.424C46.8046 344.858 46.7124 343.625 46.5214 343.035C46.0816 341.67 44.9604 340.697 43.444 340.364C41.697 339.979 39.8095 340.554 38.6358 341.827C37.1249 343.462 37.0792 346.891 37.1862 348.789C37.4081 352.738 39.7619 361.116 42.9463 365.258C44.6845 367.517 47.3741 367.855 48.8207 367.855Z" fill="black"/>
<path d="M48.8203 367.855C49.7957 367.855 50.6822 367.474 51.2575 366.816C51.7764 366.222 51.9997 365.442 51.8878 364.622C51.3454 360.687 49.2316 358.648 46.9888 356.487C45.3502 354.907 44.9055 349.15 44.6919 346.383C44.608 345.33 44.5677 344.812 44.4965 344.551C44.1544 343.299 42.6292 342.18 41.0196 342.002C39.5337 341.839 38.2726 342.515 37.5667 343.859C37.4072 344.164 37.5235 344.54 37.8279 344.699C38.1327 344.859 38.5082 344.743 38.6673 344.438C39.2598 343.313 40.1993 343.166 40.8841 343.239C42.078 343.371 43.1122 344.206 43.2958 344.876C43.3385 345.036 43.3955 345.77 43.4529 346.48C43.693 349.624 44.1495 355.475 46.1282 357.381C48.297 359.477 50.1736 361.284 50.6567 364.792C50.7205 365.258 50.6037 365.675 50.3209 365.998C49.9832 366.387 49.4358 366.611 48.8203 366.611C48.4634 366.611 48.1046 366.588 47.7575 366.543C47.4198 366.496 47.1056 366.739 47.0599 367.078C47.0177 367.419 47.2578 367.732 47.598 367.775C47.9975 367.828 48.4089 367.855 48.8203 367.855Z" fill="black"/>
<path d="M101.704 178.311C101.704 178.311 99.6034 177.325 100.102 173.91C100.102 173.901 100.096 173.889 100.084 173.874L101.437 166.022L93.1066 163.866L91.5063 172.498C91.0954 174.709 89.6144 176.608 87.5262 177.42C86.9764 177.634 86.3755 177.817 85.7069 177.963C84.9947 178.124 84.6442 178.795 85.4748 179.423C89.8981 182.783 97.5186 181.476 101.441 180.269C102.579 179.918 102.745 178.874 101.704 178.311Z" fill="#B8863A"/>
<path d="M101.419 178.865C101.648 178.991 101.789 179.151 101.779 179.276C101.764 179.399 101.601 179.57 101.261 179.675C99.548 180.201 90.7489 182.647 85.8528 178.93C85.6716 178.791 85.6211 178.69 85.6171 178.663C85.6152 178.673 85.6878 178.606 85.8449 178.573C86.5267 178.42 87.1678 178.228 87.7515 178C89.9924 177.128 91.6629 175.063 92.1209 172.611L93.598 164.638L100.729 166.482L99.4748 173.769C99.4621 173.834 99.4621 173.896 99.4704 173.957C99.0129 177.529 101.156 178.732 101.419 178.865ZM93.1782 182.184C97.0273 182.184 100.579 181.186 101.628 180.864C102.429 180.615 102.949 180.067 103.014 179.397C103.077 178.752 102.7 178.143 102.002 177.766C101.994 177.762 101.983 177.758 101.977 177.753C101.894 177.714 100.301 176.865 100.721 174.003C100.725 173.955 100.725 173.909 100.721 173.859L102.052 166.128C102.109 165.809 101.909 165.501 101.594 165.419L93.2641 163.266C93.0992 163.222 92.9215 163.252 92.7767 163.343C92.6285 163.438 92.5303 163.586 92.4989 163.756L90.8971 172.384C90.5191 174.417 89.1417 176.125 87.3019 176.842C86.7746 177.046 86.1939 177.221 85.5754 177.36C84.9628 177.494 84.5136 177.9 84.4002 178.414C84.3462 178.665 84.304 179.315 85.1007 179.922C87.375 181.647 90.3586 182.184 93.1782 182.184Z" fill="black"/>
<path d="M100.319 146.993C96.9953 147.447 96.5427 151.219 92.569 151.663C90.7473 151.865 89.8323 151.187 88.2183 151.965C87.1511 152.48 85.596 153.722 85.4374 155.368C85.2347 157.461 87.5202 157.911 89.8505 161.94C91.4895 164.768 91.5892 166.665 92.893 166.869C94.2081 167.075 94.7981 165.247 96.255 165.364C98.1376 165.516 98.384 168.679 100.373 169.619C101.626 170.213 104.251 170.092 107.957 167.3C108.556 166.848 108.752 166.029 108.416 165.356C107.988 164.491 107.442 163.4 106.833 162.404C103.928 157.652 101.876 156.849 102.282 155.39C102.899 153.16 106.977 153.572 107.292 151.775C107.617 149.911 103.735 146.528 100.319 146.993Z" fill="black"/>
<path d="M94.9227 156.701L95.8078 156.238C95.8078 156.238 98.675 162.254 99.7972 163.797C100.919 165.336 105.932 162.207 105.932 162.207L106.054 161.096L106.653 160.703C106.839 160.581 106.964 160.381 106.986 160.16C107.007 159.937 106.929 159.718 106.771 159.56C105.56 158.355 102.994 155.621 101.746 152.96C101.746 152.96 97.5274 152.709 94.9227 156.701Z" fill="#B8863A"/>
<path d="M95.3813 156.281C95.5075 156.288 95.6552 156.402 95.6881 156.533C95.7063 156.594 95.6999 156.646 95.6896 156.674C95.6881 156.689 95.6778 156.705 95.6803 156.7L95.7146 156.654C95.8138 156.532 95.9046 156.404 96.0101 156.286C96.2094 156.045 96.4303 155.824 96.6556 155.611C97.1122 155.187 97.6168 154.815 98.1632 154.52C98.7105 154.221 99.2912 153.984 99.896 153.825C100.197 153.745 100.504 153.679 100.815 153.639C101.113 153.596 101.452 153.572 101.707 153.576L101.184 153.221C101.995 154.854 103.095 156.248 104.257 157.56C104.846 158.211 105.443 158.848 106.057 159.469L106.483 159.896C106.537 159.965 106.568 160.058 106.544 160.147C106.534 160.19 106.505 160.226 106.472 160.25C106.454 160.265 106.432 160.273 106.414 160.277C106.404 160.281 106.396 160.283 106.385 160.283C106.373 160.287 106.338 160.301 106.316 160.311C106.114 160.396 105.91 160.478 105.718 160.581C105.578 160.658 105.486 160.794 105.461 160.94L105.446 161.027C105.384 161.395 105.355 161.766 105.306 162.135L105.599 161.673C104.553 162.292 103.422 162.87 102.297 163.26C101.744 163.446 101.147 163.59 100.704 163.549C100.486 163.525 100.38 163.464 100.342 163.405C100.196 163.205 100.024 162.931 99.867 162.673C99.2416 161.606 98.6575 160.48 98.0817 159.356C97.5117 158.228 96.9335 157.096 96.3793 155.962L96.3734 155.949C96.2217 155.638 95.8442 155.507 95.534 155.66C95.5261 155.664 95.5158 155.668 95.5089 155.67C95.4505 155.702 95.4584 155.737 95.4731 155.848C95.4893 155.954 95.4662 156.128 95.3813 156.281ZM94.4604 157.119C94.6695 157.114 94.9415 157.135 95.2537 157.088C95.562 157.043 95.8663 156.923 96.1 156.801L95.2296 156.509C95.7755 157.668 96.3184 158.818 96.8991 159.957C97.4774 161.097 98.0615 162.231 98.7208 163.355C98.8931 163.642 99.0556 163.91 99.2829 164.223C99.4512 164.446 99.6844 164.616 99.9176 164.714C100.151 164.817 100.377 164.856 100.587 164.877C101.423 164.925 102.078 164.705 102.723 164.495C103.998 164.032 105.132 163.427 106.263 162.738L106.268 162.735C106.436 162.632 106.536 162.458 106.553 162.273C106.588 161.904 106.641 161.533 106.659 161.161L106.387 161.604C106.558 161.472 106.716 161.318 106.874 161.165L106.941 161.105C106.976 161.075 107.008 161.044 107.038 161.014C107.104 160.948 107.156 160.876 107.205 160.802C107.3 160.656 107.363 160.492 107.397 160.326C107.465 159.989 107.387 159.624 107.17 159.352C107.144 159.317 107.115 159.285 107.085 159.256L107.028 159.195L106.915 159.08L106.694 158.85C106.099 158.236 105.539 157.591 105.01 156.923C104.478 156.26 103.982 155.572 103.523 154.866C103.064 154.162 102.639 153.44 102.305 152.696C102.21 152.481 102.001 152.351 101.782 152.338C101.36 152.32 101.023 152.351 100.65 152.393C100.289 152.436 99.9318 152.507 99.5789 152.595C98.8725 152.773 98.1833 153.033 97.5441 153.387C96.9026 153.736 96.3066 154.175 95.7755 154.676C95.5158 154.931 95.2615 155.195 95.0362 155.479C94.9189 155.619 94.8153 155.767 94.7058 155.911L94.6656 155.966C94.643 155.996 94.6087 156.049 94.5821 156.096C94.5232 156.193 94.4707 156.315 94.4403 156.447C94.3774 156.717 94.43 156.968 94.4604 157.119Z" fill="black"/>
<path d="M96.8076 161.103C96.8076 161.103 94.5014 158.263 93.4377 159.591C92.3764 160.919 94.9933 163.979 96.8076 161.103Z" fill="#B8863A"/>
<path d="M47.2757 281.061L22.2307 267.525L37.0815 243.654L62.1279 257.192L47.2757 281.061Z" fill="white"/>
<path d="M61.249 257.423L47.0561 280.234L23.1077 267.289L37.3012 244.477L61.249 257.423ZM47.276 281.682C47.4841 281.682 47.6849 281.576 47.8037 281.388L62.6549 257.517C62.7438 257.372 62.7718 257.196 62.7271 257.03C62.6824 256.865 62.571 256.724 62.4203 256.643L37.3753 243.106C37.0881 242.95 36.7244 243.045 36.5531 243.324L21.7013 267.194C21.6125 267.34 21.5855 267.517 21.6272 267.682C21.6743 267.847 21.7833 267.988 21.9345 268.068L46.979 281.606C47.0737 281.657 47.1749 281.682 47.276 281.682Z" fill="black"/>
<path d="M52.8459 261.224L38.1375 253.275C37.0438 252.683 36.6845 251.281 37.356 250.231C37.9564 249.29 39.1767 248.972 40.156 249.502L54.8639 257.451C55.9576 258.043 56.3194 259.445 55.6479 260.496C55.0475 261.436 53.8277 261.754 52.8459 261.224Z" fill="#E12599"/>
<path d="M48.5085 268.283L33.8026 260.333C32.7089 259.743 32.3471 258.342 33.0172 257.291C33.619 256.35 34.8408 256.033 35.8216 256.562L50.5276 264.51C51.6213 265.102 51.983 266.504 51.313 267.553C50.7102 268.495 49.4888 268.813 48.5085 268.283Z" fill="#E12599"/>
<path d="M32.9014 265.562C32.9014 266.77 31.9289 267.748 30.7243 267.748C29.5231 267.748 28.5497 266.77 28.5497 265.562C28.5497 264.353 29.5231 263.375 30.7243 263.375C31.9289 263.375 32.9014 264.353 32.9014 265.562Z" fill="#5CE1E6"/>
<path d="M40.3027 269.458C40.3027 270.666 39.3269 271.646 38.1232 271.646C36.9225 271.646 35.9486 270.666 35.9486 269.458C35.9486 268.25 36.9225 267.271 38.1232 267.271C39.3269 267.271 40.3027 268.25 40.3027 269.458Z" fill="#5CE1E6"/>
<path d="M55.7962 241.238C55.7962 241.238 51.5123 240.119 50.4048 241.083C50.1186 241.333 51.0469 246.941 50.7401 247.225C49.2812 248.568 46.9986 250.306 46.5141 251.563C45.7645 253.511 46.3069 256.675 46.7678 259.207C47.0049 260.512 48.8134 260.732 49.3111 259.503C49.4461 259.167 50.2374 256.033 50.3744 255.3C50.4348 254.975 50.6095 254.689 50.8751 254.494C51.4892 254.036 52.8106 252.747 53.7183 252.715C53.7978 252.713 55.6381 253.688 55.6381 253.688C55.6381 253.688 56.8668 250.525 55.8335 247.958C55.6313 247.452 55.6053 246.892 55.6244 246.345L55.7962 241.238Z" fill="#B8863A"/>
<path d="M53.7408 252.094C53.7266 252.094 53.7104 252.094 53.6966 252.094C52.7689 252.126 51.7179 252.997 50.9511 253.634C50.7783 253.778 50.6271 253.905 50.5034 253.997C50.1141 254.287 49.8505 254.71 49.7627 255.187C49.6179 255.955 48.8486 258.977 48.7323 259.273C48.5551 259.709 48.1496 259.703 48.0284 259.69C47.7604 259.662 47.4531 259.494 47.378 259.096C46.9838 256.919 46.3878 253.629 47.0962 251.788C47.4133 250.963 48.8722 249.693 50.0444 248.671C50.4406 248.326 50.82 247.994 51.1607 247.682C51.5058 247.367 51.5078 246.953 51.1887 243.994C51.0954 243.109 50.9668 241.94 50.9698 241.459C51.6364 241.172 53.4983 241.343 55.158 241.725L55.0039 246.326C54.9852 246.856 54.997 247.545 55.2576 248.189C55.9154 249.826 55.5448 251.784 55.2694 252.793C54.0461 252.148 53.8895 252.094 53.7408 252.094ZM48.1148 260.938C48.9026 260.938 49.585 260.485 49.8859 259.737C50.0582 259.313 50.8623 256.064 50.984 255.416C51.0164 255.244 51.1097 255.096 51.2466 254.993C51.3826 254.891 51.5549 254.751 51.7458 254.592C52.2304 254.189 53.1041 253.464 53.6289 253.353C53.9224 253.492 54.6779 253.885 55.3465 254.24C55.5026 254.322 55.6872 254.334 55.8546 254.273C56.0224 254.211 56.153 254.08 56.2183 253.917C56.2718 253.778 57.5231 250.491 56.4112 247.726C56.2389 247.301 56.2301 246.801 56.2463 246.367L56.4166 241.26C56.4255 240.971 56.2345 240.712 55.9527 240.639C54.8738 240.357 51.254 239.518 49.9954 240.616C49.6483 240.918 49.6439 241.247 49.9536 244.128C50.0543 245.06 50.201 246.426 50.1819 246.893C49.8859 247.162 49.5624 247.444 49.2281 247.733C47.8207 248.96 46.3623 250.228 45.9352 251.341C45.1636 253.344 45.6 256.255 46.1566 259.318C46.3132 260.19 47.0147 260.837 47.8998 260.927C47.9724 260.934 48.0446 260.938 48.1148 260.938Z" fill="black"/>
<path d="M144.03 173.485C143.986 173.442 143.986 173.372 144.03 173.329L145.918 171.39C147.385 170.066 147.861 167.257 147.861 167.257C148.092 166.191 148.673 165.235 149.509 164.538L157.629 157.78C158.285 157.233 159.305 157.658 159.346 158.514C159.377 159.149 159.141 159.926 158.279 160.752L156.156 162.631C155.729 163.007 155.634 163.634 155.927 164.121C156.421 164.946 157.009 166.332 156.641 167.898C155.803 171.481 151.624 172.828 150.582 173.111C150.444 173.149 148.308 176.585 147.878 177.277C147.84 177.339 147.756 177.346 147.705 177.294L144.03 173.485Z" fill="#B8863A"/>
<path d="M158.296 158.157C158.382 158.157 158.45 158.181 158.48 158.194C158.55 158.225 158.713 158.32 158.724 158.544C158.752 159.128 158.457 159.72 157.851 160.302L155.742 162.165C155.093 162.739 154.946 163.698 155.393 164.442C155.859 165.216 156.349 166.42 156.036 167.756C155.267 171.036 151.22 172.294 150.417 172.512C150.132 172.589 150.045 172.613 147.697 176.39L144.818 173.41L146.363 171.824C147.943 170.4 148.452 167.483 148.474 167.359C148.668 166.463 149.181 165.62 149.907 165.017L158.026 158.256C158.119 158.179 158.215 158.157 158.296 158.157ZM147.783 177.949C147.81 177.949 147.836 177.949 147.863 177.945C148.088 177.921 148.287 177.796 148.407 177.604C149.623 175.642 150.613 174.095 150.93 173.659C152.406 173.229 156.379 171.741 157.248 168.038C157.655 166.298 157.044 164.772 156.46 163.801C156.321 163.57 156.366 163.273 156.567 163.096L158.692 161.218C159.589 160.357 160.013 159.444 159.966 158.486C159.936 157.859 159.559 157.309 158.98 157.056C158.393 156.799 157.721 156.89 157.231 157.302L149.11 164.06C148.173 164.84 147.512 165.928 147.252 167.123C147.242 167.177 146.787 169.767 145.501 170.927L143.584 172.894C143.304 173.182 143.304 173.631 143.582 173.918L147.257 177.725C147.397 177.87 147.585 177.949 147.783 177.949Z" fill="black"/>
<path d="M147.111 178.152L147.232 178.22C147.254 178.233 147.272 178.253 147.281 178.275C147.29 178.296 147.287 178.307 147.286 178.312C143.173 191.364 137.871 197.11 132.798 199.73C128.642 201.877 124.564 202 120.948 202.109C120.097 202.135 119.271 202.16 118.476 202.211C118.458 202.211 118.435 202.211 118.409 202.211C118.343 202.213 118.254 202.217 118.144 202.226C117.925 202.245 117.624 202.286 117.264 202.372C116.543 202.543 115.584 202.897 114.582 203.622C112.553 205.089 110.507 207.957 109.754 213.45L109.754 213.451C108.77 220.64 109.452 226.42 109.852 229.807C109.888 230.111 109.921 230.395 109.951 230.66L109.951 230.661L110.953 239.446C110.435 239.971 108.429 241.496 102.019 242.653L102.019 242.653C99.947 243.027 96.8276 243.06 93.2443 242.876C89.6827 242.694 85.739 242.303 82.0564 241.861C78.3757 241.419 74.9666 240.928 72.4771 240.547C71.2327 240.357 70.2187 240.194 69.5164 240.079C69.4887 240.075 69.4616 240.07 69.4349 240.066L69.6122 239.16L70.4408 234.922C71.0444 231.835 71.6587 228.69 71.6892 228.523C73.5891 218.157 73.4553 213.019 72.6549 210.452C71.9445 208.171 69.0273 207.685 67.5424 209.467C67.5424 209.467 67.5423 209.467 67.5423 209.467L68.3106 210.107M147.111 178.152L57.2141 242.965C57.5062 238.43 59.2597 220.967 68.3106 210.107M147.111 178.152L147.013 178.053L142.505 173.511M147.111 178.152L142.505 173.511M68.3106 210.107C69.3095 208.908 71.2353 209.257 71.7002 210.749C72.4208 213.06 72.6049 217.981 70.7056 228.343C70.6582 228.602 69.0173 236.992 68.4482 239.901L68.3106 210.107ZM142.505 173.511C142.477 173.52 142.438 173.54 142.396 173.581L142.395 173.582C136.974 178.838 132.352 181.115 127.913 181.738C123.52 182.355 119.429 181.325 115.205 180.259L115.189 180.255L115.116 180.238L114.836 180.172C114.593 180.116 114.243 180.035 113.816 179.938C112.961 179.742 111.797 179.479 110.558 179.209C108.047 178.663 105.326 178.109 104.189 178.003L104.188 178.003C103.889 177.974 103.498 177.917 103.045 177.851C102.769 177.811 102.47 177.767 102.155 177.724C101.284 177.606 100.176 177.478 98.7746 177.395C95.9728 177.227 91.9745 177.236 86.3424 177.871L86.3416 177.872C82.0514 178.352 77.8917 179.668 74.095 181.739L74.0934 181.74L73.5209 182.051L73.5178 182.053L73.5074 182.059C73.4946 182.066 73.4742 182.078 73.4466 182.094C73.3914 182.127 73.307 182.177 73.1958 182.245C72.9733 182.382 72.6434 182.591 72.2234 182.874C71.3834 183.439 70.1842 184.3 68.7657 185.469C65.9277 187.809 62.2192 191.381 58.752 196.297C51.8319 206.109 45.8399 221.317 49.7178 242.904C49.7188 242.91 49.7214 242.918 49.727 242.928C49.7329 242.938 49.7403 242.947 49.7478 242.954C49.7502 242.956 49.7523 242.957 49.7539 242.959H56.1856L142.505 173.511ZM111.797 240.007C111.223 240.671 109.13 242.386 102.196 243.637C94.4627 245.034 73.9782 241.826 69.2428 241.048L110.967 239.562L110.968 239.57L111.244 239.539L111.797 240.007ZM111.797 240.007L111.253 239.538L111.961 239.457C111.982 239.656 111.926 239.855 111.797 240.007Z" fill="#E7FFF7" stroke="black" stroke-width="2"/>
<path d="M86.6172 177.394L87.5427 174.309C91.9853 172.088 99.8831 174.206 103.277 175.543L102.66 179.245C102.454 179.142 101.549 178.813 99.5746 178.32C97.6002 177.826 90.1136 178.114 86.6172 178.32V177.394Z" fill="white" stroke="black" stroke-width="2"/>
<path d="M144.858 169.784C144.858 170.503 151.405 175.535 151.405 175.535C148.664 181.492 147.037 178.389 144.44 175.535C143.703 174.725 142.889 173.935 141.949 173.378C140.13 172.3 144.858 169.065 144.858 169.784Z" fill="white" stroke="black" stroke-width="2"/>
<path d="M57.0171 243.855C56.5021 243.353 48.3296 244.53 48.3296 244.53C45.9754 238.41 49.3331 239.41 53.1903 239.542C54.2841 239.579 55.4181 239.547 56.4734 239.263C58.5149 238.713 57.532 244.356 57.0171 243.855Z" fill="white" stroke="black" stroke-width="2"/>
<path d="M161.506 342.185H255.68C258.099 342.185 259.891 340.223 259.679 337.804L253.809 270.429C253.599 268.008 251.465 266.047 249.045 266.047H154.872C152.452 266.047 150.66 268.008 150.872 270.429L156.742 337.804C156.952 340.223 159.085 342.185 161.506 342.185Z" fill="black"/>
<path d="M249.046 266.667C251.148 266.667 253.008 268.377 253.191 270.481L259.062 337.855C259.148 338.852 258.844 339.788 258.204 340.486C257.567 341.181 256.671 341.562 255.68 341.562H161.507C159.405 341.562 157.545 339.85 157.363 337.748L151.491 270.373C151.405 269.375 151.709 268.441 152.35 267.743C152.985 267.049 153.881 266.667 154.873 266.667H249.046ZM161.507 342.806H255.68C257.024 342.806 258.246 342.279 259.121 341.326C259.999 340.367 260.418 339.097 260.3 337.748L254.43 270.373C254.192 267.644 251.776 265.424 249.046 265.424H154.873C153.53 265.424 152.306 265.948 151.433 266.902C150.554 267.861 150.135 269.132 150.253 270.481L156.122 337.855C156.362 340.585 158.775 342.806 161.507 342.806Z" fill="black"/>
<path d="M166.519 342.185H260.692C263.113 342.185 264.904 340.223 264.693 337.804L258.823 270.429C258.612 268.008 256.479 266.047 254.059 266.047H159.886C157.464 266.047 155.674 268.008 155.883 270.429L161.755 337.804C161.966 340.223 164.098 342.185 166.519 342.185Z" fill="#0A428D"/>
<path d="M254.059 266.667C256.161 266.667 258.02 268.377 258.204 270.481L264.074 337.855C264.161 338.852 263.856 339.788 263.216 340.486C262.58 341.181 261.684 341.562 260.692 341.562H166.519C164.416 341.562 162.558 339.85 162.374 337.748L156.504 270.373C156.417 269.375 156.722 268.441 157.363 267.743C157.997 267.049 158.894 266.667 159.884 266.667H254.059ZM166.519 342.806H260.692C262.037 342.806 263.258 342.279 264.133 341.326C265.011 340.367 265.43 339.097 265.313 337.748L259.443 270.373C259.204 267.644 256.789 265.424 254.059 265.424H159.884C158.541 265.424 157.319 265.948 156.446 266.902C155.567 267.861 155.148 269.132 155.266 270.481L161.135 337.855C161.372 340.585 163.788 342.806 166.519 342.806Z" fill="black"/>
<path d="M234.312 283.95C234.692 288.318 238.542 291.859 242.912 291.859C247.281 291.859 250.514 288.318 250.134 283.95C249.753 279.579 245.903 276.037 241.533 276.037C237.164 276.037 233.931 279.579 234.312 283.95Z" fill="white"/>
<path d="M210.328 311.321H252.519L251.386 298.324H209.195L210.328 311.321Z" fill="#EC4C60"/>
<path d="M211.853 328.837H254.045L252.912 315.84H210.72L211.853 328.837Z" fill="#EC4C60"/>
<path d="M170.839 328.838H203.695L201.036 298.324H168.18L170.839 328.838Z" fill="white"/>
<path d="M99.1502 105.019C103.808 106.294 108.62 103.55 109.896 98.8918C111.171 94.2358 108.43 89.4251 103.771 88.1488C99.1104 86.873 94.3017 89.6151 93.0259 94.2736C91.7496 98.9316 94.4936 103.743 99.1502 105.019ZM84.0608 93.5819L84.9606 90.3043L88.6673 90.4731C89.0104 89.751 89.4071 89.0682 89.8577 88.4266L87.8951 85.285L90.3103 82.8958L93.4367 84.8952C94.0867 84.449 94.7764 84.0578 95.4911 83.7244L95.3605 80.0158L98.6465 79.1543L100.354 82.4442C101.132 82.3833 101.924 82.3902 102.72 82.4599L104.465 79.1842L107.74 80.084L107.572 83.7907C108.294 84.1319 108.977 84.5305 109.615 84.9811L112.759 83.0176L115.149 85.4337L113.151 88.5602C113.595 89.2101 113.99 89.8978 114.322 90.6125L118.031 90.4854L118.891 93.7719L115.6 95.4772C115.664 96.2558 115.655 97.0476 115.585 97.8438L118.858 99.5854L117.963 102.864L114.257 102.695C113.911 103.417 113.512 104.1 113.064 104.741L115.026 107.883L112.611 110.273L109.485 108.273C108.834 108.719 108.147 109.111 107.432 109.443L107.559 113.152L104.272 114.014L102.568 110.723C101.789 110.784 100.999 110.778 100.2 110.708L98.4585 113.981L95.1809 113.086L95.3497 109.378C94.6296 109.034 93.9448 108.638 93.3032 108.187L90.1616 110.15L87.7724 107.735L89.7718 104.607C89.3231 103.958 88.9343 103.271 88.601 102.555L84.8924 102.682L84.0309 99.3955L87.3208 97.6911C87.2599 96.9121 87.2644 96.1198 87.3385 95.3236L84.0608 93.5819Z" fill="#5479F7"/>
<path d="M102.913 87.6336C103.622 87.6336 104.341 87.7249 105.057 87.9213C107.151 88.4941 108.894 89.8475 109.969 91.733C111.043 93.6185 111.32 95.8093 110.746 97.9014C110.173 99.9951 108.821 101.74 106.934 102.814C105.05 103.889 102.861 104.163 100.766 103.592C96.4466 102.408 93.8955 97.9319 95.0771 93.6121C96.0642 90.006 99.3463 87.6336 102.913 87.6336ZM102.911 105.125C107.024 105.125 110.807 102.388 111.946 98.2308C112.607 95.8181 112.288 93.2915 111.05 91.1179C109.81 88.9428 107.8 87.3823 105.387 86.721C100.403 85.3613 95.242 88.3012 93.8778 93.2827C92.5136 98.2637 95.4575 103.427 100.439 104.792C101.263 105.016 102.094 105.125 102.911 105.125ZM108.371 111.85L106.049 112.461L104.572 109.611C104.455 109.388 104.218 109.257 103.972 109.277C103.233 109.336 102.472 109.329 101.709 109.261C101.457 109.239 101.221 109.366 101.104 109.588L99.5932 112.423L97.2767 111.79L97.422 108.58C97.4353 108.329 97.2944 108.096 97.0681 107.989C96.3804 107.661 95.7216 107.279 95.1124 106.851C94.9106 106.708 94.6402 106.699 94.4266 106.833L91.7047 108.532L90.015 106.824L91.7488 104.115C91.8799 103.906 91.878 103.636 91.7356 103.429C91.309 102.808 90.9335 102.149 90.6169 101.465C90.5113 101.238 90.2963 101.096 90.0303 101.105L86.8204 101.216L86.2087 98.8921L89.0588 97.4155C89.2812 97.3011 89.4127 97.064 89.3906 96.8156C89.3342 96.0773 89.3386 95.315 89.4083 94.5521C89.4299 94.3042 89.3008 94.0647 89.0809 93.9483L86.2441 92.4384L86.8798 90.1209L90.0892 90.2677C90.3469 90.2785 90.5707 90.1381 90.6787 89.9138C91.0081 89.2216 91.3905 88.5648 91.8171 87.9586C91.9614 87.7539 91.9683 87.4839 91.8367 87.2708L90.1378 84.5479L91.8456 82.8607L94.5523 84.5921C94.7629 84.7261 95.0339 84.7217 95.2376 84.5808C95.8595 84.1547 96.5207 83.7767 97.2041 83.4601C97.4284 83.355 97.5707 83.1238 97.5624 82.8759L97.4529 79.6636L99.7748 79.0549L101.252 81.903C101.368 82.1244 101.605 82.2545 101.854 82.2368C102.592 82.1794 103.354 82.1838 104.115 82.252C104.367 82.2741 104.603 82.1465 104.721 81.9271L106.231 79.0902L108.549 79.723L108.402 82.9334C108.391 83.1837 108.529 83.4169 108.756 83.5239C109.445 83.8513 110.102 84.2337 110.711 84.6623C110.915 84.8056 111.185 84.812 111.397 84.6799L114.119 82.9815L115.809 84.6888L114.077 87.3955C113.943 87.6071 113.947 87.8771 114.089 88.0832C114.515 88.7057 114.893 89.3669 115.207 90.0483C115.315 90.2741 115.53 90.4262 115.793 90.4061L119.006 90.2962L119.614 92.6215L116.766 94.0971C116.542 94.2115 116.41 94.4486 116.433 94.6974C116.49 95.4382 116.486 96.1986 116.415 96.9604C116.393 97.2093 116.523 97.4484 116.742 97.5652L119.58 99.0742L118.944 101.393L115.736 101.247C115.475 101.236 115.253 101.375 115.145 101.599C114.816 102.291 114.433 102.951 114.007 103.555C113.865 103.759 113.856 104.03 113.987 104.242L115.687 106.965L113.978 108.654L111.271 106.92C111.06 106.787 110.792 106.791 110.586 106.932C109.967 107.358 109.304 107.734 108.619 108.052C108.395 108.158 108.254 108.389 108.261 108.637L108.371 111.85ZM105.725 113.81C105.778 113.81 105.831 113.803 105.881 113.787L109.169 112.925C109.45 112.854 109.641 112.594 109.632 112.304L109.518 109C110.005 108.755 110.484 108.483 110.942 108.189L113.726 109.969C113.972 110.126 114.295 110.091 114.501 109.887L116.916 107.499C117.122 107.294 117.16 106.973 117.006 106.728L115.257 103.929C115.556 103.475 115.833 103.001 116.085 102.506L119.384 102.656C119.676 102.665 119.938 102.482 120.014 102.202L120.909 98.923C120.988 98.6442 120.858 98.3467 120.604 98.2107L117.685 96.6571C117.721 96.1082 117.725 95.5565 117.699 95.0141L120.628 93.4953C120.887 93.3617 121.016 93.0667 120.944 92.7854L120.082 89.5004C120.008 89.2196 119.748 89.0154 119.458 89.0375L116.156 89.149C115.912 88.6615 115.64 88.1844 115.345 87.7249L117.122 84.9411C117.281 84.6957 117.248 84.3746 117.044 84.1679L114.653 81.7533C114.451 81.5466 114.128 81.5093 113.882 81.663L111.082 83.4105C110.63 83.1111 110.155 82.8342 109.663 82.5839L109.812 79.2831C109.826 78.9935 109.636 78.7324 109.357 78.6553L106.079 77.7585C105.796 77.6819 105.503 77.809 105.366 78.0667L103.814 80.9816C103.262 80.9463 102.713 80.9418 102.17 80.9708L100.652 78.0402C100.518 77.7825 100.223 77.651 99.9422 77.7261L96.6572 78.5871C96.3759 78.6597 96.1825 78.9184 96.1933 79.2085L96.3057 82.5137C95.8178 82.7571 95.3411 83.0281 94.8817 83.3246L92.0979 81.5447C91.8519 81.3861 91.5309 81.4214 91.3242 81.6261L88.9096 84.0143C88.7004 84.2185 88.6631 84.5391 88.8173 84.7855L90.5663 87.585C90.2674 88.0376 89.991 88.5142 89.7377 89.0066L86.4399 88.8569C86.1503 88.8417 85.8882 89.0331 85.8116 89.3139L84.9147 92.5906C84.8377 92.8694 84.9658 93.1659 85.2225 93.3023L88.1384 94.8555C88.1055 95.4073 88.0986 95.9561 88.1251 96.4995L85.196 98.0173C84.9393 98.1513 84.8072 98.4458 84.8799 98.7271L85.7434 102.012C85.816 102.293 86.0821 102.485 86.3653 102.476L89.668 102.364C89.9115 102.852 90.1839 103.328 90.4804 103.788L88.7005 106.571C88.5448 106.818 88.5782 107.138 88.78 107.345L91.1701 109.759C91.3753 109.966 91.6958 110.004 91.9418 109.85L94.7408 108.103C95.1958 108.401 95.671 108.678 96.1604 108.929L96.0112 112.229C95.998 112.52 96.1869 112.781 96.4687 112.858L99.7444 113.754C100.026 113.831 100.32 113.704 100.458 113.447L102.01 110.531C102.561 110.564 103.113 110.568 103.653 110.542L105.172 113.473C105.282 113.681 105.497 113.81 105.725 113.81Z" fill="black"/>
<path d="M54.5273 79.8027C62.4988 81.9861 70.7295 77.2933 72.9125 69.3228C75.095 61.3493 70.4031 53.1181 62.4316 50.9376C54.4581 48.7542 46.227 53.447 44.0445 61.418C41.864 69.389 46.5568 77.6197 54.5273 79.8027ZM28.7068 60.2316L30.2442 54.6232L36.584 54.9133C37.1711 53.6782 37.8534 52.5065 38.6222 51.4108L35.266 46.0332L39.3987 41.9446L44.7469 45.3675C45.8617 44.6042 47.0354 43.9337 48.2607 43.3642L48.0442 37.0161L53.6678 35.543L56.5851 41.1739C57.9189 41.0684 59.2713 41.0777 60.6344 41.2034L63.618 35.5975L69.2245 37.132L68.9368 43.4747C70.1719 44.0642 71.3412 44.7446 72.4363 45.5129L77.8135 42.1562L81.9025 46.2889L78.4816 51.6371C79.2459 52.7519 79.9159 53.9286 80.4829 55.1509L86.831 54.9325L88.3066 60.556L82.6762 63.4753C82.7788 64.8091 82.7695 66.1624 82.6467 67.5246L88.2526 70.5087L86.7157 76.1147L80.373 75.8275C79.7859 77.0601 79.1055 78.2313 78.3348 79.3265L81.691 84.7047L77.5612 88.7928L72.21 85.3728C71.0982 86.1361 69.9215 86.8066 68.6958 87.3761L68.9147 93.7212L63.2911 95.1949L60.3738 89.5664C59.041 89.67 57.6852 89.6597 56.3225 89.5369L53.3389 95.1404L47.7325 93.6059L48.0221 87.2632C46.7871 86.6761 45.6188 85.9962 44.5231 85.225L39.143 88.5841L35.0544 84.4514L38.4754 79.1012C37.7135 77.9864 37.0435 76.8117 36.4741 75.5869L30.1259 75.8054L28.6523 70.1823L34.2832 67.265C34.1782 65.9288 34.1875 64.5754 34.3132 63.2127L28.7068 60.2316Z" fill="#5479F7"/>
<path d="M60.9686 49.6096C62.2174 49.6096 63.4888 49.7751 64.7499 50.1206C72.3797 52.2084 76.8875 60.1131 74.7963 67.74C73.7866 71.4354 71.3979 74.5162 68.0677 76.4144C64.74 78.3127 60.8723 78.7992 57.177 77.7869C53.4816 76.7752 50.4013 74.3851 48.5055 71.0574C46.6067 67.7277 46.1178 63.86 47.13 60.1676C48.8731 53.8013 54.6661 49.6096 60.9686 49.6096ZM60.9583 79.5419C67.8081 79.5419 74.1032 74.9879 75.996 68.0713C78.2644 59.7823 73.3698 51.1922 65.0807 48.9214C61.0648 47.8204 56.8603 48.351 53.2445 50.4142C49.6281 52.4759 47.0318 55.8223 45.9327 59.8387C44.8297 63.8527 45.3628 68.0566 47.4236 71.6725C49.4853 75.2888 52.8321 77.8886 56.8481 78.9862C58.2181 79.3612 59.601 79.5419 60.9583 79.5419ZM70.7607 91.8297L66.1003 93.0515L63.4117 87.8634C63.2959 87.6434 63.0637 87.5124 62.8099 87.53C61.5188 87.6307 60.1905 87.6213 58.8651 87.503C58.6162 87.478 58.3762 87.6086 58.2579 87.829L55.5109 92.9951L50.8627 91.7207L51.1263 85.8758C51.1386 85.6264 50.9977 85.3942 50.7734 85.2857C49.5717 84.7133 48.4259 84.0467 47.3647 83.3011C47.16 83.1582 46.8905 83.1484 46.6784 83.2814L41.7195 86.377L38.3329 82.9511L41.4873 78.0211C41.6203 77.809 41.6159 77.54 41.475 77.3329C40.7323 76.252 40.0755 75.0989 39.5228 73.909C39.4162 73.6822 39.1939 73.5364 38.9376 73.5486L33.0848 73.7514L31.8654 69.0909L37.0536 66.3999C37.276 66.2865 37.4065 66.0494 37.3899 65.8005C37.2858 64.5095 37.2961 63.1841 37.4169 61.8553C37.437 61.6059 37.3103 61.3668 37.088 61.2505L31.9219 58.5006L33.1962 53.8528L39.0412 54.1169C39.3004 54.1292 39.5228 53.9913 39.6312 53.764C40.2061 52.5594 40.8722 51.4136 41.6159 50.3553C41.7612 50.1501 41.7686 49.8781 41.6355 49.669L38.54 44.7101L41.9659 41.3205L46.8978 44.475C47.1079 44.6109 47.3794 44.6036 47.5841 44.4627C48.6704 43.72 49.8206 43.0632 51.008 42.5124C51.2348 42.4069 51.3757 42.1771 51.3683 41.9278L51.1661 36.0774L55.8285 34.8561L58.5171 40.0442C58.6329 40.2666 58.8725 40.3952 59.1165 40.3776C60.4075 40.2764 61.7363 40.2862 63.0637 40.4045C63.3155 40.4276 63.5526 40.299 63.6684 40.0786L66.4164 34.9125L71.0666 36.1859L70.8 42.0318C70.7902 42.2807 70.9286 42.5124 71.1535 42.6209C72.3556 43.1943 73.5028 43.8609 74.5617 44.6065C74.7664 44.7494 75.0378 44.7567 75.2509 44.6257L80.2073 41.5306L83.5964 44.9565L80.4444 49.8885C80.3085 50.0986 80.3104 50.3671 80.4518 50.5747C81.1945 51.6561 81.8513 52.8058 82.407 53.9986C82.5081 54.2181 82.7276 54.359 82.9696 54.359C82.9769 54.359 82.9843 54.359 82.9916 54.359L88.8396 54.1567L90.0638 58.8172L84.8727 61.5077C84.6528 61.6216 84.5198 61.8577 84.5419 62.1071C84.641 63.3981 84.6307 64.7265 84.5095 66.0523C84.4874 66.3012 84.618 66.5408 84.8384 66.6591L90.0044 69.4061L88.7335 74.0543L82.8851 73.7907C82.6294 73.7784 82.4041 73.9163 82.2951 74.1431C81.7227 75.3482 81.0561 76.493 80.3104 77.5523C80.1676 77.757 80.1602 78.0285 80.2937 78.2386L83.3868 83.1975L79.9604 86.5871L75.0305 83.4326C74.8184 83.2966 74.5499 83.3011 74.3422 83.4444C73.2613 84.1847 72.1082 84.842 70.9183 85.3942C70.6915 85.5007 70.5506 85.7329 70.5605 85.9823L70.7607 91.8297ZM65.7763 94.402C65.8283 94.402 65.8828 94.3946 65.9349 94.3823L71.5575 92.9087C71.8368 92.8346 72.0316 92.5754 72.0223 92.2838L71.8166 86.345C72.8122 85.8635 73.7792 85.3108 74.7026 84.6986L79.7111 87.9021C79.9555 88.0577 80.2761 88.0234 80.4837 87.8187L84.616 83.7306C84.8231 83.5259 84.858 83.2073 84.7068 82.9609L81.5627 77.9273C82.1773 77.0192 82.7398 76.0566 83.2386 75.0498L89.1729 75.3212C89.4591 75.3335 89.7237 75.1435 89.7997 74.8647L91.3352 69.2559C91.4113 68.977 91.2832 68.681 91.0289 68.5426L85.7838 65.7534C85.8673 64.6351 85.8746 63.5169 85.8079 62.4237L91.076 59.6934C91.3323 59.5599 91.4633 59.2639 91.3917 58.9821L89.918 53.3615C89.8439 53.0777 89.5803 52.8799 89.2931 52.8976L83.3544 53.1003C82.8729 52.1053 82.3201 51.1348 81.7104 50.2144L84.9125 45.2084C85.0701 44.9639 85.0327 44.6433 84.831 44.4352L80.7429 40.3034C80.5382 40.0963 80.2177 40.0565 79.9702 40.2121L74.9377 43.3543C74.0291 42.7402 73.0635 42.1771 72.0611 41.6789L72.3306 35.747C72.3429 35.4554 72.1529 35.1938 71.8741 35.1172L66.2682 33.5817C65.9839 33.5056 65.6904 33.6343 65.552 33.891L62.7627 39.1336C61.6421 39.0497 60.5268 39.0423 59.4331 39.1091L56.7028 33.8409C56.5692 33.5842 56.2757 33.4512 55.9944 33.5253L50.3689 34.9994C50.09 35.0735 49.8971 35.3322 49.905 35.6238L50.1097 41.5625C49.1176 42.0436 48.1496 42.5968 47.2238 43.207L42.2177 40.0045C41.9713 39.8489 41.6527 39.8842 41.4456 40.086L37.3128 44.1765C37.1056 44.3812 37.0693 44.6998 37.2239 44.9472L40.3636 49.9798C39.7495 50.8884 39.1894 51.8535 38.6883 52.8583L32.7564 52.5864C32.4673 52.5741 32.2032 52.7641 32.1266 53.0429L30.5916 58.6517C30.515 58.9306 30.6436 59.2266 30.9004 59.365L36.143 62.1542C36.0591 63.2749 36.0517 64.3907 36.1185 65.4839L30.8503 68.2142C30.5916 68.3477 30.463 68.6437 30.5371 68.9255L32.0088 74.5461C32.0829 74.822 32.3293 75.012 32.6135 75.012C32.6185 75.012 32.6258 75.012 32.6332 75.01L38.5724 74.8073C39.0559 75.8028 39.6062 76.7698 40.2183 77.6932L37.0168 82.6992C36.8592 82.9437 36.8936 83.2667 37.0983 83.4714L41.1859 87.6037C41.3911 87.8113 41.7121 87.8481 41.9585 87.6955L46.9896 84.5528C47.8978 85.1674 48.8628 85.7305 49.8677 86.2287L49.5992 92.163C49.5835 92.4522 49.7734 92.7133 50.0552 92.7904L55.6611 94.3259C55.9424 94.402 56.2389 94.2738 56.3749 94.0166L59.1636 88.7744C60.2823 88.8579 61.3976 88.8653 62.4937 88.7985L65.2236 94.0667C65.3325 94.2758 65.5495 94.402 65.7763 94.402Z" fill="black"/>
<path d="M289.652 56.7957C289.888 56.7957 290.113 56.6612 290.218 56.4329C290.361 56.1212 290.223 55.7511 289.911 55.6087C289.717 55.5209 270.116 46.6555 240.303 41.6484C222.797 38.7056 205.237 37.6462 188.113 38.4999C166.703 39.5666 145.918 43.6419 126.334 50.6115C126.01 50.7269 125.841 51.0818 125.956 51.4058C126.071 51.7273 126.427 51.8967 126.751 51.7813C170.829 36.0941 212.698 38.2741 240.056 42.8668C269.718 47.8454 289.2 56.6509 289.394 56.7392C289.477 56.779 289.566 56.7957 289.652 56.7957Z" fill="black"/>
<path d="M150.013 53.6832C150.083 53.6832 150.152 53.6714 150.222 53.6474C174.975 44.7569 202.263 45.2282 220.797 47.1922C240.905 49.3202 255.335 53.6135 255.479 53.6567C255.808 53.7559 256.155 53.5678 256.254 53.2409C256.353 52.911 256.166 52.564 255.838 52.4658C255.693 52.4226 241.173 48.0994 220.955 45.9576C202.284 43.9789 174.784 43.5027 149.801 52.4751C149.478 52.5905 149.31 52.9474 149.428 53.2723C149.517 53.5246 149.758 53.6832 150.013 53.6832Z" fill="black"/>
<path d="M120.967 52.1985C121.997 52.1985 122.833 53.0345 122.833 54.0639C122.833 55.0913 121.997 55.9292 120.967 55.9292C119.941 55.9292 119.103 55.0913 119.103 54.0639C119.103 53.0345 119.941 52.1985 120.967 52.1985ZM120.967 57.1736C122.682 57.1736 124.077 55.778 124.077 54.0639C124.077 52.3497 122.682 50.9541 120.967 50.9541C119.254 50.9541 117.859 52.3497 117.859 54.0639C117.859 55.778 119.254 57.1736 120.967 57.1736Z" fill="black"/>
<circle cx="298.564" cy="192.82" r="1.04255" fill="#D9D9D9" stroke="black"/>
<circle cx="296.712" cy="200.841" r="1.04255" fill="#D9D9D9" stroke="black"/>
</svg>
