<svg width="611" height="611" viewBox="0 0 611 611" fill="none" xmlns="http://www.w3.org/2000/svg">
<path d="M541.788 329.123C499.115 285.667 579.519 204.727 559.528 146.246C532.616 67.5141 313.669 0.0128822 166.303 85.7263C42.8934 157.504 0.038208 319.074 53.955 384.38C70.0916 403.925 90.1719 409.124 116.543 429.565C141.077 448.582 143.841 453.433 145.604 456.74C163.054 489.395 126.357 518.053 133.745 546.061C145.409 590.31 262.104 613.918 359.687 598.943C386 594.902 519.35 571.417 568.399 473.843C572.194 466.295 608.103 393.374 574.311 352.805C562.595 338.737 553.166 340.707 541.788 329.123Z" fill="#FFB4E2"/>
<path d="M64.5108 114.021H504.802C514.652 114.021 523.331 122.006 524.189 131.855L557.706 516.523C558.564 526.373 551.276 534.355 541.427 534.355H101.137C91.2898 534.355 82.6053 526.373 81.7493 516.523L48.2318 131.855C47.375 122.006 54.6632 114.021 64.5108 114.021Z" fill="#E12599"/>
<path d="M73.2085 114.023H513.499C523.348 114.023 532.027 122.011 532.885 131.857L566.401 516.523C567.26 526.375 559.972 534.356 550.124 534.356H109.83C99.9835 534.356 91.307 526.375 90.4478 516.523L56.9311 131.857C56.0711 122.011 63.3617 114.023 73.2085 114.023Z" fill="white"/>
<path d="M545.68 279.735C545.71 279.735 545.74 279.732 545.769 279.728C546.324 279.684 546.734 279.193 546.685 278.64L533.889 131.769C532.988 121.429 523.841 113.017 513.498 113.017H491.152C490.597 113.017 490.145 113.468 490.145 114.025C490.145 114.582 490.597 115.033 491.152 115.033H513.498C522.822 115.033 531.069 122.618 531.881 131.944L544.678 278.812C544.724 279.338 545.164 279.735 545.68 279.735Z" fill="black"/>
<path d="M338.771 115.033H479.365C479.921 115.033 480.373 114.582 480.373 114.025C480.373 113.468 479.921 113.017 479.365 113.017H338.771C338.213 113.017 337.762 113.468 337.762 114.025C337.762 114.582 338.213 115.033 338.771 115.033Z" fill="black"/>
<path d="M550.123 535.364C555.159 535.364 559.731 533.402 562.998 529.84C566.281 526.258 567.846 521.496 567.405 516.438L558.889 418.706C558.842 418.151 558.358 417.747 557.798 417.79C557.245 417.839 556.834 418.329 556.883 418.883L565.398 516.612C565.79 521.103 564.409 525.317 561.512 528.475C558.632 531.618 554.587 533.347 550.123 533.347C549.566 533.347 549.115 533.801 549.115 534.355C549.115 534.913 549.566 535.364 550.123 535.364Z" fill="black"/>
<path d="M85.4349 186.377H513.705C514.262 186.377 514.713 185.926 514.713 185.369C514.713 184.815 514.262 184.36 513.705 184.36H85.4349C84.8772 184.36 84.4277 184.815 84.4277 185.369C84.4277 185.926 84.8772 186.377 85.4349 186.377Z" fill="#E12599"/>
<path d="M329.341 502.642C329.37 502.642 329.401 502.639 329.432 502.639C329.987 502.59 330.393 502.1 330.348 501.546L298.423 135.161C298.376 134.604 297.882 134.191 297.33 134.243C296.777 134.293 296.366 134.781 296.415 135.335L328.337 501.722C328.383 502.246 328.825 502.642 329.341 502.642Z" fill="#E12599"/>
<path d="M221.166 502.642C221.194 502.642 221.225 502.639 221.257 502.639C221.812 502.59 222.221 502.1 222.173 501.546L190.247 135.161C190.197 134.604 189.71 134.191 189.159 134.243C188.604 134.293 188.193 134.781 188.239 135.335L220.165 501.722C220.208 502.246 220.649 502.642 221.166 502.642Z" fill="#E12599"/>
<path d="M437.517 502.641C437.546 502.641 437.576 502.639 437.606 502.639C438.16 502.59 438.571 502.1 438.521 501.546L406.598 135.162C406.55 134.604 406.06 134.196 405.507 134.242C404.953 134.291 404.542 134.779 404.59 135.333L436.513 501.722C436.56 502.246 437 502.641 437.517 502.641Z" fill="#E12599"/>
<path d="M314.517 173.092H395.135L392.631 144.356H312.015L314.517 173.092Z" fill="#0A428D"/>
<path d="M205.685 173.092H286.303L283.8 144.356H203.182L205.685 173.092Z" fill="#5479F7"/>
<path d="M423.351 173.092H503.968L501.463 144.356H420.847L423.351 173.092Z" fill="#5CE1E6"/>
<path d="M96.8602 173.094H177.476L174.97 144.357H94.3549L96.8602 173.094Z" fill="#5CE1E6"/>
<path d="M123.681 480.939H204.299L194.96 373.746H114.343L123.681 480.939Z" fill="#B1E4FF"/>
<path d="M226.065 406.928H306.678L297.339 299.737H216.722L226.065 406.928Z" fill="#1A73E8"/>
<path d="M434.888 277.765H513.087L507.226 210.492H429.026L434.888 277.765Z" fill="#0A428D"/>
<path d="M477.754 231.634C478.256 237.386 483.323 242.048 489.076 242.048C494.826 242.048 499.082 237.386 498.582 231.634C498.08 225.881 493.012 221.22 487.261 221.22C481.509 221.22 477.254 225.881 477.754 231.634Z" fill="white"/>
<path d="M446.183 267.667H501.72L500.23 250.556H444.693L446.183 267.667Z" fill="#5CE1E6"/>
<path d="M108.392 277.761H186.592L180.73 210.49H102.53L108.392 277.761Z" fill="#B1E4FF"/>
<path d="M151.262 231.634C151.763 237.386 156.832 242.048 162.58 242.048C168.332 242.048 172.591 237.386 172.087 231.634C171.585 225.883 166.517 221.22 160.766 221.22C155.017 221.22 150.759 225.883 151.262 231.634Z" fill="white"/>
<path d="M119.691 267.666H175.226L173.738 250.556H118.199L119.691 267.666Z" fill="#5CE1E6"/>
<path d="M332.518 379.65H413.133L398.395 210.492H317.781L332.518 379.65Z" fill="#5479F7"/>
<path d="M333.822 267.42H392.271L388.427 223.303H329.978L333.822 267.42Z" fill="#5CE1E6"/>
<path d="M335.305 284.439H393.754L392.759 273.01H334.309L335.305 284.439Z" fill="#5CE1E6"/>
<path d="M375.04 301.909C375.543 307.661 380.609 312.323 386.361 312.323C392.113 312.323 396.369 307.661 395.868 301.909C395.367 296.157 390.299 291.495 384.547 291.495C378.795 291.495 374.54 296.157 375.04 301.909Z" fill="white"/>
<path d="M342.614 368.307H401.654L397.809 324.189H338.77L342.614 368.307Z" fill="#5CE1E6"/>
<path d="M217.226 277.765H295.427L289.565 210.492H211.364L217.226 277.765Z" fill="#0A428D"/>
<path d="M274.066 267.316H286.318L282.321 221.409H270.064L274.066 267.316Z" fill="#5CE1E6"/>
<path d="M257.546 267.316H269.802L265.801 221.409H253.547L257.546 267.316Z" fill="#5CE1E6"/>
<path d="M241.028 267.316H253.282L249.283 221.409H237.026L241.028 267.316Z" fill="#5CE1E6"/>
<path d="M224.512 267.316H236.766L232.764 221.409H220.51L224.512 267.316Z" fill="#5CE1E6"/>
<path d="M274.066 267.316H286.318L285.606 259.144H273.352L274.066 267.316Z" fill="white"/>
<path d="M257.546 267.316H269.802L268.733 255.063H256.48L257.546 267.316Z" fill="white"/>
<path d="M241.028 267.317H253.282L249.938 228.911H237.682L241.028 267.317Z" fill="white"/>
<path d="M224.512 267.316H236.766L234.091 236.637H221.838L224.512 267.316Z" fill="white"/>
<path d="M507.619 374.452C514.291 379.637 524.163 387.314 538.18 387.025C540.4 386.979 558.502 386.334 566.827 372.807C567.921 371.029 572.911 362.917 570.115 355.374C567.138 347.338 557.99 347.116 557.553 341.911C556.974 335.009 572.916 333.371 575.844 323.513C579.001 312.88 565.869 296.539 551.093 288.784C533.298 279.439 516.746 284.455 512.943 275.209C510.739 269.85 515.673 266.635 513.21 259.327C510.587 251.536 500.979 243.303 492.489 246.169C487.08 247.992 482.773 254.104 483.279 259.654C483.897 266.452 491.277 267.48 495.448 273.47C506.092 288.747 478.1 310.838 483.349 339.719C486.707 358.191 501.951 370.042 507.619 374.452Z" fill="black"/>
<path d="M460.145 311.927L460.145 311.927C454.703 318.972 445.913 322.637 437.571 323.374C429.278 324.106 421.081 321.964 416.973 316.942C413.503 312.7 411.73 309.796 410.834 307.85L409.198 312.55C409.202 312.612 409.208 312.688 409.216 312.778C409.24 313.06 409.281 313.477 409.345 314.008C409.474 315.07 409.698 316.586 410.079 318.388C410.842 321.998 412.227 326.725 414.709 331.246C417.189 335.765 420.745 340.042 425.839 342.822C430.921 345.595 437.624 346.927 446.497 345.412L446.497 345.412C450.21 344.778 454.708 343.875 458.813 342.656C462.958 341.426 466.549 339.916 468.57 338.14L469.23 338.891L468.57 338.14C476.737 330.964 478.98 320.277 479.126 311.216C479.199 306.702 478.75 302.642 478.282 299.709C478.048 298.243 477.81 297.062 477.631 296.25C477.623 296.217 477.616 296.184 477.609 296.151C477.504 296.203 477.391 296.26 477.27 296.322C476.353 296.796 475.006 297.572 473.331 298.768C469.983 301.159 465.316 305.232 460.145 311.927Z" fill="#5479F7" stroke="black" stroke-width="2"/>
<path d="M472.891 299.283L472.891 299.283C477.98 294.81 485.001 293.244 491.868 292.998C498.719 292.752 505.257 293.823 509.264 294.482L472.891 299.283ZM472.891 299.283C467.431 304.081 467.054 309.69 467.155 318.639C467.163 319.338 467.174 320.056 467.185 320.793C467.314 329.457 467.482 340.786 463.699 356.209C461.172 366.51 458.177 373.354 455.86 378.65C455.411 379.674 454.989 380.64 454.599 381.562C452.213 387.216 451.127 391.119 452.917 396.772C455.695 405.538 463.202 411.471 470.743 415.358C478.263 419.235 485.639 420.985 487.869 421.471C494.229 422.857 503.476 423.725 512.333 422.508C521.213 421.289 529.506 418.005 534.24 411.277L535.056 411.851L534.24 411.277C538.538 405.169 537.495 399.699 535.253 390.999C535.123 390.494 534.989 389.98 534.852 389.455C532.642 380.953 529.722 369.721 530.106 352.997L530.111 352.75L530.232 352.534C534.879 344.185 542.128 326.796 534.388 309.596M472.891 299.283L534.388 309.596M534.388 309.596L534.285 309.959L533.208 307.189C532.589 305.597 531.688 304.097 530.406 302.651C525.568 297.205 518.442 295.992 509.265 294.482L534.388 309.596Z" fill="#5479F7" stroke="black" stroke-width="2"/>
<path d="M472.85 345.036C472.85 345.036 451.924 337.408 445.392 323.461L431.922 310.91C431.922 310.91 432.112 316.979 436.112 319.513C436.112 319.513 432.679 326.425 437.745 331.199C437.745 331.199 441.544 334.216 443.809 334.271C443.809 334.271 450.442 356.063 468.351 362.549C468.351 362.549 473.382 354.902 472.85 345.036Z" fill="#FFF4E3"/>
<path d="M471.871 345.742C472.085 353.218 469.045 359.317 467.92 361.309C451.28 354.729 444.837 334.189 444.774 333.98C444.646 333.566 444.268 333.276 443.834 333.264C442.441 333.233 439.782 331.522 438.405 330.435C433.999 326.244 436.89 320.212 437.015 319.957C437.241 319.496 437.086 318.936 436.652 318.659C434.8 317.488 433.866 315.386 433.397 313.662L444.563 324.068C450.706 336.906 468.241 344.32 471.871 345.742ZM468.351 363.556C468.683 363.556 469.004 363.392 469.194 363.103C469.406 362.78 474.399 355.063 473.857 344.981C473.835 344.579 473.574 344.23 473.195 344.089C472.99 344.015 452.582 336.437 446.304 323.035C446.25 322.92 446.172 322.813 446.079 322.725L432.609 310.173C432.311 309.896 431.877 309.826 431.504 309.994C431.134 310.16 430.901 310.535 430.915 310.943C430.922 311.196 431.146 316.887 434.877 319.869C434.104 321.96 432.573 327.71 437.054 331.93C437.074 331.952 437.096 331.969 437.118 331.988C437.495 332.286 440.589 334.698 443.049 335.194C444.311 338.919 451.337 357.456 468.009 363.496C468.121 363.539 468.238 363.556 468.351 363.556Z" fill="black"/>
<path d="M491.704 369.859C509.297 369.859 519.414 361.126 519.55 361.005C519.966 360.636 520.004 360 519.635 359.586C519.267 359.168 518.63 359.129 518.212 359.497C518.038 359.649 500.379 374.808 470.977 363.898C470.453 363.705 469.874 363.97 469.682 364.494C469.488 365.014 469.754 365.594 470.275 365.788C478.283 368.761 485.465 369.859 491.704 369.859Z" fill="black"/>
<path d="M481.019 346.266C496.377 346.266 505.32 337.521 510.218 329.811C515.958 320.773 517.441 311.455 517.501 311.066C517.587 310.514 517.21 310 516.659 309.914C516.113 309.834 515.595 310.207 515.51 310.757C515.495 310.85 514.016 320.1 508.484 328.782C501.15 340.293 490.505 345.427 476.846 344.035C476.29 343.986 475.796 344.382 475.741 344.937C475.685 345.49 476.087 345.983 476.641 346.038C478.155 346.194 479.615 346.266 481.019 346.266Z" fill="black"/>
<path d="M418.231 293.943L435.341 354.861L415.278 349.065L396.432 289.034L418.231 293.943Z" fill="white"/>
<path d="M417.425 294.792L433.88 353.389L416.078 348.245L397.917 290.402L417.425 294.792ZM435.341 355.868C435.603 355.868 435.859 355.767 436.05 355.575C436.311 355.32 436.409 354.942 436.311 354.589L419.202 293.668C419.102 293.313 418.814 293.037 418.454 292.955L396.653 288.05C396.3 287.974 395.934 288.087 395.69 288.352C395.447 288.616 395.362 288.991 395.471 289.336L414.317 349.365C414.418 349.689 414.673 349.939 414.998 350.033L435.06 355.831C435.153 355.856 435.247 355.868 435.341 355.868Z" fill="black"/>
<path d="M407.355 324.092C407.355 324.092 402.207 318.675 401.015 314.375C399.821 310.076 407.355 300.611 407.355 300.611V324.092Z" fill="#FFF4E3"/>
<path d="M406.348 303.672V321.394C404.797 319.491 402.669 316.568 401.985 314.107C401.371 311.893 403.888 307.24 406.348 303.672ZM407.357 325.101C407.482 325.101 407.609 325.079 407.729 325.031C408.112 324.875 408.364 324.507 408.364 324.092V300.611C408.364 300.182 408.093 299.801 407.689 299.658C407.282 299.518 406.834 299.649 406.568 299.984C405.764 300.991 398.75 309.985 400.044 314.646C401.291 319.135 406.409 324.558 406.625 324.786C406.82 324.991 407.086 325.101 407.357 325.101Z" fill="black"/>
<path d="M469.23 335.28C469.277 335.28 469.327 335.276 469.376 335.27C469.927 335.188 470.309 334.677 470.227 334.128C467.515 315.58 475.957 305.182 476.043 305.079C476.399 304.652 476.341 304.015 475.912 303.66C475.485 303.302 474.849 303.361 474.493 303.79C474.121 304.238 465.391 314.993 468.233 334.417C468.306 334.921 468.737 335.28 469.23 335.28Z" fill="black"/>
<path d="M468.952 496.871C468.952 500.818 478.139 497.105 489.684 499.654C506.498 503.369 514.95 496.422 514.95 492.473C514.95 488.526 502.33 489.72 490.455 489.72C478.578 489.72 468.952 492.92 468.952 496.871Z" fill="black"/>
<path d="M478.916 486.383L529.793 553.96L537.908 546.783C537.908 546.783 516.803 492.038 498.248 486.731L484.445 478.311L478.916 486.383Z" fill="#FFF4E3"/>
<path d="M536.712 546.497L529.942 552.483L480.156 486.356L484.737 479.669L497.724 487.589C497.801 487.638 497.884 487.675 497.972 487.699C514.765 492.504 534.262 540.328 536.712 546.497ZM529.794 554.968C530.039 554.968 530.277 554.88 530.461 554.716L538.576 547.538C538.892 547.258 539 546.813 538.848 546.42C537.981 544.17 517.443 491.399 498.659 485.802L484.97 477.453C484.512 477.172 483.916 477.3 483.614 477.742L478.084 485.814C477.839 486.172 477.851 486.645 478.11 486.993L528.989 554.566C529.157 554.792 529.413 554.935 529.693 554.962C529.726 554.965 529.76 554.968 529.794 554.968Z" fill="black"/>
<path d="M496.215 478.78C496.215 478.78 505.244 497.915 502.716 518.889C500.187 539.867 489.716 576.43 489.716 576.43H476.716L479.776 476.338L496.215 478.78Z" fill="#FFF4E3"/>
<path d="M488.954 575.422H477.756L480.747 477.501L495.521 479.695C496.871 482.789 503.958 500.162 501.715 518.771C499.421 537.8 490.436 570.16 488.954 575.422ZM476.716 577.437H489.716C490.166 577.437 490.561 577.139 490.684 576.707C490.789 576.342 501.208 539.824 503.716 519.012C506.249 497.988 497.218 478.546 497.127 478.35C496.984 478.046 496.697 477.833 496.364 477.784L479.923 475.339C479.637 475.296 479.349 475.378 479.128 475.563C478.909 475.747 478.777 476.017 478.768 476.307L475.709 576.399C475.7 576.67 475.804 576.935 475.993 577.13C476.183 577.328 476.444 577.437 476.716 577.437Z" fill="black"/>
<path d="M449.282 587.654C452.674 582.639 465.382 574.578 476.956 568.577L483.044 568.599C484.737 568.604 486.02 570.127 485.741 571.796L485.305 574.386L489.492 570.522C490.683 569.423 492.61 569.95 493.078 571.503C494.054 574.737 495.309 579.911 495.208 584.837C495.18 586.271 494.318 587.556 493.002 588.136C491.839 588.648 489.76 589.364 487 590.128C484.25 590.889 484 579.5 476.956 592.402C469.849 593.695 461.247 594.633 452.594 594.265C449.281 594.125 447.424 590.401 449.282 587.654Z" fill="black"/>
<path d="M453.249 591C468.131 591 477.259 588.715 477.654 588.613C477.96 588.535 478.087 588.342 477.937 588.181C477.788 588.022 477.419 587.955 477.113 588.032C477.015 588.058 467.159 590.52 451.63 590.345C451.3 590.339 451.007 590.483 451 590.661C450.993 590.84 451.263 590.988 451.604 590.991C452.159 590.997 452.709 591 453.249 591Z" fill="white"/>
<path d="M524.718 548.695L528.958 545.528C530.237 544.572 532.066 544.991 532.802 546.408L533.814 548.361L534.718 543.412C534.985 541.954 536.684 541.277 537.88 542.157C540.318 543.951 543.961 546.956 546.52 550.507C547.271 551.552 547.345 552.93 546.718 554.055C545.998 555.337 544.364 557.689 542 560.596C540.423 562.535 539.175 550.507 536.35 567C532.149 571.41 526.937 576.171 521.11 580.178C518.664 581.859 515.333 580.193 515.184 577.23C514.913 571.816 519.667 559.215 524.718 548.695Z" fill="black"/>
<path d="M518.598 578.515C518.733 578.47 518.863 578.41 518.97 578.337C530.252 570.787 533.901 565.613 534.051 565.396C534.175 565.215 533.995 565.104 533.647 565.149C533.298 565.192 532.915 565.375 532.79 565.556C532.754 565.608 529.083 570.801 518.056 578.181C517.786 578.362 517.77 578.544 518.023 578.587C518.175 578.614 518.392 578.583 518.598 578.515Z" fill="white"/>
<path d="M513.783 492.772C510.632 471.234 515.807 436.469 520.937 401.779C520.937 401.779 498.409 374.839 478.227 376.394C465.173 377.396 466.025 401.779 466.025 401.779L469.791 496.871C469.791 496.871 486.585 488.962 513.783 492.772Z" fill="#F3DD69"/>
<path d="M499.043 490.717C484.181 490.717 474.243 494.002 470.74 495.375L467.032 401.736C467.024 401.507 466.364 378.316 478.304 377.396C496.528 375.989 517.188 398.995 519.872 402.087L519.857 402.196C514.93 435.509 509.84 469.934 512.605 491.599C507.723 490.972 503.19 490.717 499.043 490.717ZM469.791 497.878C469.936 497.878 470.083 497.845 470.219 497.78C470.384 497.705 487.099 490.053 513.643 493.771C513.959 493.814 514.274 493.71 514.498 493.484C514.721 493.259 514.826 492.939 514.779 492.629C511.667 471.353 516.843 436.346 521.85 402.491L521.933 401.925C521.975 401.642 521.894 401.352 521.71 401.13C520.776 400.016 498.617 373.785 478.15 375.39C464.292 376.456 464.982 400.777 465.017 401.811L468.783 496.91C468.796 497.248 468.978 497.556 469.267 497.73C469.427 497.827 469.609 497.878 469.791 497.878Z" fill="black"/>
<path d="M526.061 418.928C526.481 418.928 526.872 418.663 527.015 418.247C527.134 417.896 529.834 409.604 521.664 401.081C521.279 400.676 520.641 400.664 520.24 401.05C519.838 401.435 519.824 402.073 520.209 402.475C527.541 410.121 525.133 417.521 525.107 417.594C524.927 418.122 525.21 418.694 525.736 418.874C525.844 418.91 525.954 418.928 526.061 418.928Z" fill="black"/>
<path d="M485.191 272.885C487.926 270.056 493.169 261.113 493.163 261.417C493.098 264.374 499.243 265.21 503.375 267.925C507.509 270.639 501.842 275.709 501.842 275.709C501.842 275.709 505.945 272.453 506.623 276.811C507.015 279.338 504.038 280.112 501.644 280.301C501.722 281.062 501.818 282 501.924 283.026C502.427 287.91 505.738 292.048 510.393 293.608L489.335 302.286L487.697 294.168L489.843 293.285C491.374 292.655 492.463 291.269 492.709 289.631L493.217 283.83C492.185 284.103 490.941 284.369 489.977 284.359C488.054 284.339 486.558 283.059 486.198 281.171C485.705 278.581 485.809 276.141 486.47 274.173L485.191 272.885Z" fill="#FFF4E3"/>
<path d="M507.827 293.577L490.081 300.888L488.85 294.783L490.226 294.216C492.074 293.459 493.408 291.756 493.705 289.783L494.22 283.918C494.249 283.592 494.117 283.269 493.866 283.059C493.614 282.85 493.277 282.774 492.958 282.856C491.379 283.276 490.479 283.361 489.986 283.352C488.559 283.336 487.459 282.404 487.188 280.982C486.728 278.567 486.81 276.324 487.426 274.497C487.546 274.134 487.454 273.736 487.186 273.465L486.575 272.85C488.518 270.546 491.132 266.418 492.764 263.839C492.83 263.738 492.894 263.635 492.958 263.535C494.02 264.759 495.995 265.58 498.047 266.433C499.69 267.118 501.388 267.826 502.822 268.766C503.702 269.344 503.842 269.926 503.87 270.313C503.998 272.018 501.91 274.293 501.169 274.956C500.764 275.321 500.72 275.94 501.071 276.357C501.422 276.775 502.041 276.835 502.469 276.498C503.11 275.995 504.342 275.356 504.948 275.598C505.38 275.77 505.559 276.528 505.626 276.963C505.692 277.39 505.619 277.719 505.395 278.001C504.864 278.675 503.468 279.147 501.566 279.295C501.295 279.317 501.044 279.446 500.871 279.655C500.697 279.862 500.615 280.133 500.643 280.4L500.921 283.129C501.378 287.569 504.005 291.458 507.827 293.577ZM489.335 303.295C489.466 303.295 489.597 303.27 489.719 303.218L510.777 294.54C511.166 294.38 511.413 293.994 511.4 293.574C511.386 293.154 511.112 292.785 510.712 292.655C506.443 291.223 503.387 287.401 502.925 282.922L502.749 281.193C504.766 280.9 506.186 280.252 506.976 279.252C507.547 278.528 507.77 277.63 507.619 276.656C507.38 275.118 506.728 274.131 505.683 273.72C505.431 273.623 505.174 273.568 504.916 273.543C505.517 272.53 505.969 271.348 505.881 270.16C505.815 269.299 505.426 268.066 503.928 267.082C502.337 266.037 500.468 265.261 498.822 264.573C496.416 263.57 494.143 262.627 494.171 261.439C494.18 260.986 493.885 260.574 493.451 260.447C492.677 260.209 492.617 260.307 491.062 262.76C489.395 265.395 486.291 270.297 484.466 272.182C484.084 272.578 484.089 273.205 484.475 273.595L485.331 274.457C484.775 276.485 484.73 278.858 485.208 281.361C485.66 283.73 487.571 285.34 489.964 285.368C490.558 285.37 491.261 285.292 492.091 285.128L491.704 289.543C491.519 290.761 490.657 291.86 489.46 292.352L487.314 293.236C486.867 293.418 486.614 293.894 486.709 294.366L488.348 302.485C488.408 302.78 488.595 303.032 488.86 303.175C489.009 303.254 489.172 303.295 489.335 303.295Z" fill="black"/>
<path d="M493.217 284.837C493.325 284.837 493.434 284.82 493.542 284.782L495.078 284.259C495.605 284.08 495.886 283.507 495.706 282.98C495.527 282.454 494.953 282.173 494.428 282.353L492.892 282.877C492.365 283.057 492.083 283.629 492.264 284.155C492.406 284.576 492.798 284.837 493.217 284.837Z" fill="black"/>
<path d="M150.755 560.253L148.922 579.813C148.859 580.363 149.227 580.869 149.712 580.899L159.376 581.499C159.791 581.523 160.15 581.189 160.206 580.716L162.005 562.939L150.755 560.253Z" fill="#B8863A"/>
<path d="M160.913 563.715L159.221 580.479L149.931 579.904L151.651 561.502L160.913 563.715ZM159.421 582.507C160.33 582.507 161.087 581.81 161.209 580.842L163.007 563.04C163.057 562.538 162.727 562.077 162.238 561.959L150.989 559.274C150.702 559.206 150.406 559.264 150.166 559.434C149.931 559.606 149.777 559.87 149.751 560.159L147.915 579.721C147.856 580.264 148.022 580.827 148.379 581.25C148.709 581.642 149.157 581.874 149.651 581.904L159.312 582.504C159.349 582.507 159.384 582.507 159.421 582.507Z" fill="black"/>
<path d="M147.399 574.749C146.756 577.06 145.403 583.57 144.836 587.486C144.481 589.947 146.029 592.27 148.394 592.913C155.08 594.73 171.065 594.655 184.371 595.241C185.282 595.284 186.964 594.837 187.708 592.618C190.243 585.089 176.258 582.761 162.43 575.109C162.159 574.958 161.827 574.97 161.573 575.153C161.415 575.267 161.215 575.407 160.977 575.559C158.571 577.096 154.571 577.099 152.129 575.623L149.372 573.954C148.615 573.498 147.64 573.891 147.399 574.749Z" fill="#763B10"/>
<path d="M162.051 576.049C166.25 578.366 170.466 580.199 174.188 581.819C183.153 585.721 188.158 588.132 186.758 592.298C186.11 594.213 184.703 594.247 184.418 594.237C181.002 594.085 177.363 593.976 173.846 593.872C163.85 593.571 153.517 593.263 148.66 591.942C146.77 591.427 145.555 589.576 145.837 587.632C146.377 583.888 147.723 577.353 148.371 575.02C148.411 574.878 148.514 574.816 148.569 574.794C148.636 574.768 148.741 574.749 148.852 574.819L151.61 576.485C154.386 578.163 158.83 578.126 161.522 576.408C161.719 576.277 161.9 576.156 162.051 576.049ZM184.489 596.254C185.94 596.254 187.839 595.397 188.668 592.94C190.725 586.82 183.78 583.796 174.99 579.972C171.278 578.354 167.069 576.524 162.92 574.225C162.307 573.89 161.555 573.93 160.991 574.335C160.84 574.439 160.655 574.569 160.433 574.71C158.363 576.034 154.798 576.058 152.654 574.761L149.895 573.093C149.264 572.712 148.509 572.649 147.827 572.922C147.139 573.193 146.629 573.763 146.427 574.482C145.763 576.89 144.411 583.428 143.843 587.344C143.413 590.294 145.259 593.105 148.129 593.888C153.218 595.27 163.209 595.568 173.789 595.885C177.296 595.992 180.924 596.098 184.328 596.25C184.381 596.254 184.435 596.254 184.489 596.254Z" fill="black"/>
<path d="M506.5 290L492.5 298L490.5 299V308.5L509.5 294.5L506.5 290Z" fill="white"/>
<path d="M489.5 299L490.5 291L483.5 298.5L485.5 306L489.5 299Z" fill="white"/>
<path d="M506.5 290L492.5 298L490.5 299V308.5L509.5 294.5L506.5 290Z" stroke="black" stroke-width="2"/>
<path d="M489.5 299L490.5 291L483.5 298.5L485.5 306L489.5 299Z" stroke="black" stroke-width="2"/>
<path d="M144.436 589.262C144.419 589.328 144.412 589.377 144.41 589.398C144.054 591.856 146.377 593.367 148.597 594.414C155.184 597.523 181.789 595.741 182.818 595.672C182.835 595.668 182.852 595.668 182.872 595.668C183.203 595.675 186.583 595.675 187.554 593.564C187.676 593.302 187.749 592.934 187.796 592.586C187.87 592.024 187.833 591.448 187.709 590.894C187.608 590.439 187.163 590.157 186.717 590.272C181.782 591.542 170.25 591.962 158.727 590.686C151.067 589.84 147.741 588.159 145.964 587.094C145.481 586.801 144.861 587.084 144.751 587.644C144.66 588.113 144.546 588.679 144.436 589.262Z" fill="white"/>
<path d="M182.877 594.66C182.837 594.66 182.757 594.664 182.723 594.666C173.293 595.302 154.077 595.884 149.023 593.502C146.313 592.221 145.193 591 145.405 589.542L145.687 588.101C147.72 589.282 151.268 590.875 158.615 591.688C170.534 593.006 181.918 592.477 186.758 591.298C186.833 591.7 186.846 592.087 186.792 592.456C186.735 592.903 186.661 593.092 186.638 593.141C186.067 594.38 183.957 594.681 182.888 594.66C182.884 594.66 182.881 594.66 182.877 594.66ZM166.137 597.254C173.928 597.254 181.406 596.776 182.884 596.676C183.57 596.699 187.255 596.612 188.469 593.984C188.616 593.662 188.724 593.247 188.794 592.718C188.878 592.063 188.844 591.375 188.69 590.674C188.582 590.189 188.28 589.764 187.861 589.504C187.441 589.249 186.947 589.173 186.466 589.295C181.923 590.463 170.692 590.998 158.837 589.684C151.579 588.88 148.307 587.328 146.484 586.227C145.976 585.924 145.352 585.884 144.814 586.124C144.269 586.368 143.877 586.861 143.759 587.449L143.444 589.069L143.409 589.243C142.892 592.836 146.722 594.644 148.163 595.323C151.379 596.84 158.894 597.254 166.137 597.254Z" fill="black"/>
<path d="M163.377 582.198C163.591 582.198 163.809 582.129 163.99 581.989L168.025 578.902C168.466 578.564 168.553 577.931 168.213 577.49C167.872 577.048 167.245 576.963 166.8 577.3L162.765 580.391C162.321 580.73 162.24 581.359 162.577 581.804C162.774 582.063 163.073 582.198 163.377 582.198Z" fill="black"/>
<path d="M168.743 584.408C168.951 584.408 169.166 584.341 169.349 584.204L172.878 581.54C173.323 581.208 173.411 580.574 173.076 580.13C172.739 579.685 172.11 579.597 171.665 579.931L168.133 582.596C167.691 582.931 167.601 583.562 167.934 584.007C168.133 584.268 168.438 584.408 168.743 584.408Z" fill="black"/>
<path d="M79.0263 538.392C100.547 488.435 109.38 426.147 111.782 411.019C114.359 394.77 122.031 379.347 122.031 379.347L155.702 382.157C155.702 382.157 156.177 380.936 155.089 388.059L176.357 389.633C193.976 445.134 167.99 558.442 164.977 570.423C164.766 571.256 164.095 571.877 163.256 572.035C158.69 572.89 152.016 572.181 148.318 571.66C146.846 571.45 145.818 570.091 146.006 568.606C148.393 550.025 146.686 490.463 141.461 457.886C123.866 522.536 93.7333 547.845 93.7333 547.845C93.7333 547.845 91.9599 549.392 90.8907 549.916C88.8111 550.932 87.8063 551.791 85.402 551.264C79.4074 549.952 76.5855 544.057 79.0263 538.392Z" fill="black"/>
<path d="M175.604 390.587C193.764 449.291 164.291 569.025 164.003 570.178C163.889 570.625 163.531 570.958 163.072 571.043C158.626 571.877 152.01 571.162 148.463 570.663C147.526 570.528 146.889 569.685 147.009 568.738C149.483 549.465 147.63 489.973 142.46 457.73C142.385 457.259 141.989 456.906 141.515 456.882C141.052 456.867 140.615 457.166 140.487 457.622C123.194 521.167 93.3892 546.822 93.0884 547.074C92.6103 547.492 91.2276 548.631 90.4487 549.012C90.1098 549.176 89.7971 549.338 89.5028 549.493C88.023 550.26 87.2823 550.646 85.622 550.281C83.0952 549.731 81.1079 548.259 80.0227 546.146C78.901 543.969 78.8819 541.289 79.9551 538.792C100.284 491.599 109.327 433.383 112.298 414.254C112.478 413.078 112.64 412.049 112.779 411.179C115.017 397.078 121.214 383.426 122.64 380.412L154.745 383.091C154.674 383.839 154.501 385.256 154.095 387.908C154.053 388.189 154.128 388.468 154.301 388.688C154.479 388.91 154.738 389.044 155.017 389.065L175.604 390.587ZM158.117 573.44C159.999 573.44 161.844 573.327 163.441 573.025C164.669 572.794 165.654 571.871 165.956 570.671C166.249 569.505 196.061 448.372 177.322 389.327C177.197 388.936 176.847 388.657 176.437 388.629L156.251 387.135C157.084 381.565 156.975 381.361 156.026 381.109C155.838 381.056 155.63 381.06 155.43 381.126L122.113 378.343C121.696 378.316 121.311 378.529 121.127 378.901C121.052 379.055 113.36 394.649 110.788 410.861C110.648 411.735 110.491 412.768 110.306 413.947C107.343 433.012 98.3328 491.036 78.103 537.995C76.7887 541.046 76.8341 544.352 78.2303 547.066C79.5931 549.724 82.0674 551.566 85.1884 552.253C87.564 552.772 88.8942 552.081 90.4296 551.28C90.7113 551.134 91.0088 550.978 91.3334 550.82C92.4933 550.257 94.2102 548.774 94.4011 548.606C94.6843 548.369 123.537 523.586 141.169 462.662C145.782 494.669 147.308 550.602 145.011 568.479C144.751 570.5 146.174 572.373 148.181 572.656C150.61 573.001 154.439 573.44 158.117 573.44Z" fill="black"/>
<path d="M141.276 462.886C141.297 462.886 141.317 462.884 141.338 462.884C141.895 462.85 142.316 462.375 142.285 461.818C142.257 461.382 141.596 451.051 136.56 439.208C135.088 435.751 134.025 431.619 133.4 426.93C133.324 426.38 132.82 425.993 132.267 426.065C131.719 426.139 131.328 426.644 131.399 427.196C132.051 432.068 133.163 436.373 134.704 439.997C139.606 451.52 140.265 461.836 140.271 461.937C140.305 462.472 140.747 462.886 141.276 462.886Z" fill="black"/>
<path d="M85.3589 560.75C86.5356 554.845 84.0447 558.633 86.865 554.081C88.9598 550.702 83.8665 545.601 81.2745 545.208C76.9506 544.313 77.642 545.691 72.6959 552.062L71.8206 551.852C71.8206 551.852 84.335 565.909 85.3589 560.75Z" fill="#B8863A"/>
<path d="M82.3891 540.948C82.8187 540.948 83.347 541.046 84.0701 541.195C85.4727 541.408 87.9096 543.408 88.9176 545.589C89.4657 546.768 89.4952 547.765 89.0091 548.551C86.0694 553.295 85.5491 554.644 84.3748 560.552C84.3287 560.762 84.2714 560.853 84.2523 560.866C83.2945 561.356 78.4152 557.617 73.1461 551.816L76.4764 547.696C77.7398 546.069 78.6244 544.788 79.3397 543.759C80.8226 541.608 81.2793 540.948 82.3891 540.948ZM84.2221 562.885C84.4202 562.885 84.6016 562.86 84.7734 562.814C85.2492 562.684 86.0853 562.27 86.3479 560.945C87.5182 555.077 88.0321 553.951 90.7203 549.613C91.5756 548.235 91.5875 546.55 90.7506 544.741C89.5381 542.12 86.5802 539.537 84.4234 539.211C80.5752 538.415 79.7884 539.559 77.6777 542.61C76.9824 543.621 76.116 544.88 74.8996 546.444L71.0394 551.216C70.7276 551.602 70.7395 552.154 71.0705 552.522C73.3052 555.034 80.5871 562.885 84.2221 562.885Z" fill="black"/>
<path d="M84.2226 562.885C84.4207 562.885 84.6021 562.86 84.774 562.815C85.2497 562.684 86.0859 562.27 86.3484 560.945C87.3827 555.759 87.7057 554.401 89.7662 550.939C90.0518 550.461 89.8959 549.842 89.4201 549.56C88.942 549.274 88.3222 549.428 88.0366 549.906C85.8082 553.646 85.4399 555.2 84.3754 560.553C84.3293 560.762 84.272 560.853 84.2529 560.866C83.295 561.356 78.4158 557.617 73.1499 551.819L76.2796 547.979C77.7165 546.131 78.5987 544.693 79.3864 543.379C79.6712 542.899 79.5113 542.282 79.0371 541.995C78.5574 541.712 77.9376 541.868 77.656 542.346C76.8994 543.609 76.0545 544.986 74.706 546.725L71.04 551.213C70.7281 551.597 70.7401 552.151 71.071 552.522C73.3058 555.035 80.5877 562.885 84.2226 562.885Z" fill="black"/>
<path d="M86.0446 558.533L81.0357 550.942C78.6983 547.397 73.7276 546.871 70.71 549.842L64.9739 554.679C64.9739 554.679 63.8784 558 64.2284 560.147C64.6811 562.94 65.5738 566.92 67.3033 570.867C69.9637 576.935 77.3291 589.13 79.9506 593.415C80.4971 594.313 81.8735 595.203 82.8305 594.77C83.969 594.258 85.1456 593.339 86.2825 592.267C88.0431 590.607 87.452 582.846 86.8251 577.444C86.417 573.981 86.7217 565.142 86.8665 561.496C86.9094 560.446 86.6214 559.411 86.0446 558.533Z" fill="#763B10"/>
<path d="M75.4191 548.921C75.6156 548.921 75.8153 548.929 76.0198 548.95C77.7255 549.13 79.2466 550.059 80.1934 551.497L85.2039 559.091C85.6653 559.795 85.8976 560.613 85.8618 561.457C85.7115 565.12 85.4123 574.027 85.8236 577.56C87.1674 589.061 85.9891 591.162 85.5929 591.532C84.3948 592.663 83.3247 593.442 82.4194 593.851C82.0956 593.997 81.195 593.516 80.8099 592.889C78.5346 589.167 70.8987 576.551 68.2295 570.461C66.5207 566.561 65.6535 562.612 65.2231 559.986C64.9955 558.567 65.5381 556.301 65.8508 555.261L71.419 550.562C72.493 549.502 73.9251 548.921 75.4191 548.921ZM82.2778 595.894C82.6048 595.894 82.9317 595.832 83.2468 595.69C84.3725 595.181 85.5929 594.304 86.9788 593C88.0107 592.024 89.2279 589.338 87.8253 577.328C87.4291 573.935 87.729 565.157 87.8754 561.538C87.9263 560.27 87.5874 559.04 86.8857 557.98L81.8808 550.389C80.5983 548.445 78.5378 547.191 76.2314 546.947C73.937 546.703 71.6807 547.489 70.0315 549.097L64.1093 554.091L64.0218 554.362C63.9716 554.507 62.8507 557.949 63.2349 560.309C63.6789 563.049 64.5914 567.176 66.3814 571.271C69.0307 577.307 76.1503 589.134 79.0923 593.941C79.6739 594.892 80.9714 595.894 82.2778 595.894Z" fill="black"/>
<path d="M86.6463 568.202C87.0878 568.202 87.492 567.91 87.6161 567.462C87.7656 566.926 87.4514 566.369 86.916 566.223L81.5236 564.734C80.9842 564.587 80.4336 564.902 80.2841 565.438C80.1337 565.973 80.4527 566.528 80.9881 566.676L86.3766 568.166C86.4665 568.19 86.5603 568.202 86.6463 568.202Z" fill="black"/>
<path d="M86.2401 573.038C86.6825 573.038 87.0906 572.745 87.2147 572.298C87.3643 571.761 87.05 571.207 86.5106 571.058L81.1222 569.569C80.5868 569.423 80.0315 569.733 79.8811 570.271C79.7316 570.808 80.0466 571.362 80.5868 571.511L85.9752 573C86.0643 573.026 86.155 573.038 86.2401 573.038Z" fill="black"/>
<path d="M80.7459 595.169C81.2932 595.169 81.8167 595.081 82.2932 594.917C83.9003 594.359 87.9291 593.154 87.4788 587.353C87.0126 581.339 82.4635 578.278 79.1388 574.331C76.6057 571.32 76.8603 558.733 76.0615 556.262C74.6335 551.844 68.2084 551.177 64.9768 554.679C62.9362 556.89 62.6967 561.692 62.894 565.225C63.2711 571.835 67.1384 584.999 72.0256 591.354C74.4099 594.455 78.0886 595.169 80.7459 595.169Z" fill="white"/>
<path d="M70.2477 553.445C70.6988 553.445 71.1507 553.494 71.5978 553.592C73.3338 553.975 74.6146 555.059 75.1007 556.573C75.3362 557.297 75.4898 559.383 75.6568 561.593C76.0228 566.561 76.4858 572.745 78.3682 574.98C79.1582 575.915 80.015 576.807 80.8448 577.67C83.568 580.498 86.1409 583.166 86.4727 587.429C86.8474 592.288 83.7653 593.345 82.1058 593.914L81.9633 593.963C81.5815 594.093 81.1718 594.162 80.7437 594.162C78.7659 594.162 75.1119 593.717 72.8246 590.738C67.8952 584.332 64.2459 571.314 63.9023 565.166C63.6357 560.472 64.2953 556.899 65.7146 555.36C66.8498 554.137 68.5317 553.445 70.2477 553.445ZM80.7437 596.178C81.3961 596.178 82.0286 596.073 82.6189 595.87L82.7613 595.821C84.463 595.236 88.9763 593.689 88.4831 587.273C88.0924 582.288 85.1464 579.231 82.2951 576.272C81.4884 575.433 80.6562 574.566 79.9116 573.682C78.4493 571.945 77.9743 565.625 77.6657 561.445C77.4763 558.908 77.3267 556.908 77.0173 555.952C76.3044 553.74 74.4873 552.163 72.0298 551.624C69.1984 551 66.1394 551.932 64.2372 553.994C61.7884 556.645 61.7144 562.202 61.8879 565.279C62.2475 571.679 66.0622 585.257 71.2231 591.968C74.0402 595.63 78.3992 596.178 80.7437 596.178Z" fill="black"/>
<path d="M80.7425 596.178C82.3233 596.178 83.7601 595.561 84.6925 594.494C85.5335 593.531 85.8954 592.267 85.714 590.939C84.8349 584.56 81.4092 581.257 77.7742 577.754C75.1186 575.194 74.3978 565.863 74.0517 561.378C73.9157 559.672 73.8505 558.833 73.7351 558.409C73.1806 556.381 70.7087 554.566 68.1001 554.279C65.6919 554.015 63.648 555.11 62.504 557.289C62.2454 557.783 62.434 558.391 62.9272 558.649C63.4213 558.908 64.0299 558.72 64.2877 558.226C65.2479 556.402 66.7707 556.164 67.8805 556.284C69.8153 556.496 71.4916 557.851 71.7891 558.936C71.8583 559.196 71.9506 560.385 72.0437 561.536C72.4328 566.631 73.1726 576.113 76.3796 579.203C79.8944 582.6 82.9359 585.528 83.7188 591.214C83.8222 591.968 83.6328 592.645 83.1746 593.168C82.6272 593.799 81.7402 594.162 80.7425 594.162C80.1641 594.162 79.5826 594.124 79.0201 594.052C78.4727 593.976 77.9636 594.369 77.8896 594.919C77.8212 595.471 78.2102 595.979 78.7615 596.049C79.4091 596.135 80.0758 596.178 80.7425 596.178Z" fill="black"/>
<path d="M166.452 288.987C166.452 288.987 163.047 287.388 163.855 281.853C163.855 281.84 163.846 281.82 163.826 281.796L166.019 269.069L152.518 265.576L149.924 279.566C149.258 283.149 146.858 286.226 143.473 287.542C142.582 287.888 141.609 288.186 140.525 288.422C139.371 288.683 138.803 289.77 140.149 290.788C147.318 296.235 159.668 294.115 166.025 292.16C167.87 291.591 168.138 289.899 166.452 288.987Z" fill="#B8863A"/>
<path d="M165.99 289.885C166.361 290.089 166.589 290.349 166.572 290.551C166.548 290.75 166.284 291.028 165.733 291.197C162.957 292.05 148.696 296.015 140.761 289.991C140.468 289.765 140.386 289.601 140.379 289.558C140.376 289.574 140.494 289.466 140.749 289.411C141.854 289.165 142.893 288.854 143.839 288.484C147.47 287.07 150.178 283.723 150.92 279.749L153.314 266.827L164.871 269.816L162.839 281.626C162.818 281.731 162.818 281.833 162.831 281.93C162.09 287.721 165.563 289.669 165.99 289.885ZM152.634 295.264C158.872 295.264 164.628 293.647 166.329 293.125C167.626 292.722 168.47 291.834 168.574 290.747C168.676 289.702 168.066 288.714 166.935 288.104C166.921 288.097 166.904 288.091 166.894 288.083C166.759 288.019 164.177 286.643 164.858 282.005C164.864 281.928 164.864 281.853 164.858 281.772L167.016 269.242C167.108 268.725 166.783 268.226 166.274 268.094L152.773 264.605C152.506 264.533 152.218 264.581 151.983 264.729C151.743 264.883 151.584 265.123 151.533 265.398L148.937 279.382C148.324 282.676 146.092 285.444 143.11 286.606C142.255 286.938 141.314 287.22 140.312 287.446C139.319 287.663 138.591 288.321 138.407 289.154C138.32 289.561 138.251 290.615 139.543 291.598C143.228 294.395 148.064 295.264 152.634 295.264Z" fill="black"/>
<path d="M164.206 238.229C158.82 238.966 158.086 245.078 151.646 245.798C148.694 246.126 147.211 245.028 144.595 246.289C142.866 247.123 140.345 249.136 140.088 251.803C139.76 255.195 143.464 255.924 147.24 262.455C149.897 267.038 150.058 270.113 152.171 270.443C154.303 270.777 155.259 267.814 157.62 268.004C160.671 268.25 161.071 273.376 164.294 274.9C166.325 275.862 170.579 275.666 176.585 271.142C177.556 270.409 177.873 269.081 177.329 267.99C176.636 266.588 175.751 264.821 174.764 263.206C170.055 255.505 166.73 254.204 167.388 251.839C168.388 248.225 174.997 248.893 175.508 245.98C176.035 242.96 169.743 237.477 164.206 238.229Z" fill="black"/>
<path d="M155.46 253.963L156.895 253.213C156.895 253.213 161.542 262.962 163.361 265.464C165.179 267.959 173.304 262.888 173.304 262.888L173.5 261.086L174.471 260.449C174.774 260.252 174.975 259.927 175.011 259.569C175.046 259.207 174.919 258.853 174.662 258.597C172.7 256.644 168.541 252.213 166.519 247.901C166.519 247.901 159.682 247.493 155.46 253.963Z" fill="#B8863A"/>
<path d="M156.203 253.282C156.408 253.294 156.647 253.479 156.701 253.691C156.73 253.79 156.72 253.874 156.703 253.919C156.701 253.943 156.684 253.969 156.688 253.962L156.744 253.887C156.904 253.689 157.051 253.482 157.223 253.29C157.546 252.9 157.904 252.542 158.269 252.196C159.009 251.509 159.826 250.907 160.712 250.428C161.599 249.943 162.54 249.559 163.52 249.302C164.009 249.172 164.506 249.066 165.01 249.001C165.492 248.931 166.041 248.892 166.456 248.898L165.608 248.324C166.922 250.97 168.705 253.229 170.588 255.356C171.542 256.411 172.511 257.443 173.505 258.45L174.195 259.141C174.284 259.252 174.334 259.404 174.295 259.548C174.278 259.617 174.231 259.676 174.179 259.715C174.149 259.739 174.113 259.752 174.084 259.758C174.067 259.765 174.054 259.769 174.038 259.769C174.017 259.774 173.961 259.797 173.926 259.814C173.597 259.952 173.268 260.084 172.957 260.252C172.729 260.377 172.58 260.597 172.539 260.833L172.515 260.975C172.414 261.57 172.367 262.171 172.287 262.77L172.762 262.02C171.069 263.023 169.234 263.961 167.412 264.592C166.515 264.895 165.548 265.128 164.831 265.062C164.477 265.023 164.305 264.924 164.243 264.829C164.006 264.503 163.727 264.059 163.473 263.642C162.46 261.912 161.513 260.088 160.58 258.265C159.656 256.438 158.719 254.603 157.821 252.765L157.811 252.745C157.565 252.239 156.954 252.029 156.451 252.275C156.438 252.282 156.421 252.288 156.41 252.292C156.316 252.344 156.328 252.4 156.352 252.581C156.378 252.752 156.341 253.035 156.203 253.282ZM154.711 254.64C155.05 254.633 155.491 254.666 155.997 254.59C156.496 254.517 156.989 254.323 157.368 254.126L155.958 253.652C156.842 255.531 157.722 257.395 158.663 259.24C159.6 261.087 160.547 262.925 161.616 264.747C161.895 265.213 162.158 265.647 162.527 266.154C162.799 266.515 163.177 266.791 163.555 266.949C163.934 267.116 164.299 267.18 164.64 267.213C165.995 267.291 167.057 266.935 168.103 266.594C170.168 265.845 172.006 264.864 173.84 263.747L173.847 263.743C174.12 263.575 174.281 263.293 174.31 262.993C174.366 262.395 174.451 261.793 174.481 261.191L174.041 261.909C174.317 261.695 174.574 261.445 174.829 261.198L174.938 261.1C174.994 261.051 175.047 261.001 175.096 260.953C175.202 260.847 175.286 260.729 175.366 260.61C175.521 260.373 175.622 260.107 175.677 259.838C175.787 259.291 175.661 258.699 175.31 258.26C175.268 258.203 175.221 258.151 175.172 258.104L175.079 258.006L174.895 257.818L174.537 257.446C173.573 256.451 172.666 255.406 171.809 254.323C170.947 253.248 170.142 252.134 169.399 250.989C168.655 249.849 167.965 248.678 167.425 247.472C167.271 247.123 166.932 246.913 166.577 246.892C165.893 246.863 165.347 246.913 164.743 246.981C164.158 247.051 163.578 247.166 163.006 247.308C161.861 247.596 160.745 248.018 159.709 248.593C158.669 249.158 157.703 249.869 156.842 250.681C156.421 251.095 156.009 251.522 155.644 251.982C155.454 252.209 155.286 252.449 155.109 252.683L155.043 252.772C155.007 252.821 154.951 252.907 154.908 252.982C154.813 253.14 154.728 253.337 154.678 253.551C154.576 253.988 154.662 254.395 154.711 254.64Z" fill="black"/>
<path d="M158.517 261.097C158.517 261.097 154.779 256.495 153.055 258.646C151.335 260.799 155.576 265.758 158.517 261.097Z" fill="#B8863A"/>
<path d="M78.2407 455.512L37.6505 433.574L61.719 394.887L102.312 416.828L78.2407 455.512Z" fill="white"/>
<path d="M100.887 417.205L77.8846 454.174L39.0718 433.194L62.075 396.223L100.887 417.205ZM78.241 456.52C78.5783 456.52 78.9037 456.348 79.0962 456.044L103.165 417.356C103.309 417.121 103.355 416.836 103.282 416.567C103.21 416.299 103.029 416.071 102.785 415.941L62.1951 394C61.7297 393.748 61.1402 393.902 60.8625 394.353L36.7924 433.039C36.6484 433.276 36.6047 433.562 36.6723 433.831C36.7487 434.098 36.9253 434.326 37.1703 434.457L77.7597 456.397C77.9132 456.479 78.0771 456.52 78.241 456.52Z" fill="black"/>
<path d="M87.2668 423.363L63.429 410.48C61.6565 409.52 61.0741 407.248 62.1625 405.546C63.1354 404.021 65.1132 403.506 66.7004 404.365L90.5374 417.248C92.3099 418.207 92.8962 420.479 91.8079 422.182C90.8349 423.706 88.8579 424.222 87.2668 423.363Z" fill="#E12599"/>
<path d="M80.2381 434.804L56.4044 421.919C54.6318 420.962 54.0455 418.692 55.1314 416.989C56.1068 415.463 58.087 414.949 59.6765 415.807L83.5103 428.688C85.2829 429.648 85.8692 431.92 84.7832 433.621C83.8063 435.147 81.8269 435.662 80.2381 434.804Z" fill="#E12599"/>
<path d="M54.9434 430.394C54.9434 432.352 53.3673 433.937 51.415 433.937C49.4682 433.937 47.8906 432.352 47.8906 430.394C47.8906 428.435 49.4682 426.85 51.415 426.85C53.3673 426.85 54.9434 428.435 54.9434 430.394Z" fill="#5CE1E6"/>
<path d="M66.9395 436.707C66.9395 438.665 65.3579 440.252 63.4071 440.252C61.4611 440.252 59.8827 438.665 59.8827 436.707C59.8827 434.749 61.4611 433.163 63.4071 433.163C65.3579 433.163 66.9395 434.749 66.9395 436.707Z" fill="#5CE1E6"/>
<path d="M92.0486 390.973C92.0486 390.973 85.1056 389.159 83.3108 390.721C82.847 391.127 84.3514 400.216 83.8542 400.676C81.4898 402.853 77.7903 405.669 77.0051 407.707C75.7903 410.863 76.6694 415.992 77.4164 420.095C77.8007 422.211 80.7316 422.567 81.5383 420.575C81.7571 420.03 83.0395 414.951 83.2615 413.763C83.3594 413.237 83.6426 412.773 84.073 412.456C85.0682 411.714 87.2099 409.625 88.6809 409.573C88.8098 409.57 91.7924 411.151 91.7924 411.151C91.7924 411.151 93.7837 406.025 92.1091 401.863C91.7813 401.044 91.7391 400.136 91.7701 399.25L92.0486 390.973Z" fill="#B8863A"/>
<path d="M88.7184 408.566C88.6953 408.566 88.6691 408.566 88.6468 408.566C87.1432 408.618 85.4398 410.029 84.1972 411.062C83.9171 411.294 83.6721 411.501 83.4716 411.65C82.8407 412.119 82.4135 412.805 82.2711 413.578C82.0364 414.824 80.7897 419.72 80.6012 420.201C80.314 420.907 79.6568 420.898 79.4603 420.876C79.0259 420.832 78.5279 420.558 78.4062 419.914C77.7673 416.385 76.8015 411.054 77.9495 408.069C78.4635 406.733 80.8279 404.674 82.7277 403.018C83.3698 402.46 83.9847 401.921 84.5369 401.416C85.0962 400.904 85.0993 400.234 84.5822 395.439C84.4311 394.003 84.2226 392.11 84.2274 391.33C85.3078 390.865 88.3254 391.142 91.0152 391.761L90.7654 399.218C90.7352 400.076 90.7543 401.193 91.1767 402.238C92.2428 404.89 91.6421 408.064 91.1958 409.699C89.2132 408.653 88.9595 408.566 88.7184 408.566ZM79.6003 422.899C80.8772 422.899 81.9831 422.165 82.4708 420.953C82.75 420.265 84.0532 414.999 84.2505 413.949C84.303 413.672 84.4541 413.431 84.6761 413.264C84.8965 413.1 85.1757 412.871 85.4852 412.614C86.2704 411.96 87.6865 410.786 88.537 410.605C89.0128 410.831 90.2371 411.468 91.3207 412.044C91.5737 412.177 91.8728 412.196 92.1441 412.098C92.4162 411.997 92.6278 411.785 92.7337 411.52C92.8204 411.294 94.8483 405.967 93.0463 401.486C92.7671 400.798 92.7528 399.988 92.779 399.284L93.0551 391.007C93.0694 390.539 92.7599 390.119 92.3033 390C90.5546 389.543 84.688 388.185 82.6482 389.963C82.0857 390.453 82.0785 390.986 82.5806 395.655C82.7436 397.165 82.9815 399.379 82.9505 400.137C82.4708 400.573 81.9465 401.029 81.4047 401.498C79.1238 403.487 76.7601 405.542 76.068 407.345C74.8174 410.591 75.5246 415.31 76.4268 420.273C76.6806 421.687 77.8175 422.735 79.2519 422.881C79.3696 422.893 79.4866 422.899 79.6003 422.899Z" fill="black"/>
<path d="M235.048 281.165C234.977 281.095 234.977 280.982 235.048 280.913L238.109 277.77C240.486 275.624 241.257 271.072 241.257 271.072C241.632 269.345 242.573 267.795 243.928 266.664L257.089 255.712C258.152 254.825 259.805 255.514 259.871 256.903C259.92 257.931 259.539 259.19 258.142 260.529L254.7 263.574C254.009 264.183 253.855 265.2 254.33 265.989C255.13 267.326 256.084 269.573 255.486 272.11C254.128 277.917 247.357 280.1 245.667 280.56C245.444 280.621 241.982 286.19 241.285 287.31C241.223 287.411 241.087 287.423 241.005 287.338L235.048 281.165Z" fill="#B8863A"/>
<path d="M258.169 256.324C258.309 256.324 258.419 256.363 258.467 256.384C258.58 256.434 258.846 256.588 258.863 256.951C258.909 257.898 258.431 258.856 257.448 259.801L254.03 262.819C252.978 263.75 252.74 265.304 253.465 266.51C254.22 267.763 255.014 269.715 254.506 271.881C253.261 277.197 246.701 279.235 245.401 279.588C244.938 279.713 244.798 279.752 240.992 285.873L236.326 281.044L238.83 278.473C241.391 276.165 242.215 271.439 242.25 271.238C242.566 269.786 243.397 268.419 244.573 267.441L257.731 256.485C257.883 256.36 258.038 256.324 258.169 256.324ZM241.132 288.401C241.175 288.401 241.218 288.401 241.26 288.393C241.626 288.354 241.948 288.153 242.143 287.841C244.113 284.661 245.717 282.155 246.232 281.448C248.623 280.751 255.063 278.339 256.47 272.338C257.131 269.518 256.141 267.045 255.194 265.471C254.969 265.097 255.041 264.615 255.368 264.329L258.811 261.284C260.264 259.889 260.952 258.409 260.876 256.857C260.828 255.84 260.216 254.95 259.277 254.539C258.327 254.123 257.237 254.271 256.443 254.938L243.281 265.891C241.762 267.154 240.692 268.919 240.271 270.855C240.255 270.943 239.517 275.139 237.432 277.021L234.326 280.209C233.872 280.675 233.872 281.403 234.323 281.868L240.279 288.038C240.505 288.273 240.809 288.401 241.132 288.401Z" fill="black"/>
<path d="M240.544 288.299L240.423 288.231L240.325 288.132L232.868 280.618C232.61 280.525 232.272 280.58 231.969 280.876L231.967 280.877C223.246 289.333 215.871 292.94 208.843 293.927C201.861 294.906 195.345 293.273 188.481 291.54L188.479 291.54L188.449 291.533L188.33 291.505C188.226 291.48 188.072 291.445 187.875 291.399C187.481 291.307 186.914 291.176 186.221 291.018C184.834 290.701 182.945 290.274 180.934 289.836C176.879 288.953 172.427 288.046 170.538 287.869L170.537 287.869C170.066 287.825 169.461 287.736 168.742 287.631C168.293 287.565 167.8 287.493 167.267 287.421C165.843 287.228 164.031 287.019 161.742 286.882C157.163 286.609 150.647 286.624 141.487 287.658L141.486 287.658C134.452 288.445 127.633 290.603 121.41 293.998L121.408 293.999L120.469 294.509L120.469 294.509L120.445 294.523C120.422 294.536 120.388 294.556 120.341 294.583C120.248 294.638 120.108 294.721 119.925 294.834C119.557 295.06 119.015 295.403 118.327 295.866C116.951 296.793 114.991 298.199 112.675 300.109C108.042 303.929 101.991 309.758 96.3334 317.779C85.0331 333.801 75.2707 358.615 81.5881 393.782L80.6039 393.959L81.5881 393.782C81.653 394.143 81.9687 394.381 82.2348 394.381H92.7021C92.9965 394.381 93.326 394.104 93.35 393.709L93.3503 393.706C93.5894 389.993 94.4245 381.015 97.048 370.741C99.6679 360.481 104.093 348.842 111.564 339.878C113.669 337.352 117.781 338.055 118.78 341.262C120.028 345.264 120.276 353.456 117.197 370.254C117.149 370.518 116.155 375.608 115.175 380.617C114.685 383.126 114.197 385.619 113.832 387.484L113.422 389.58C113.643 389.617 113.899 389.659 114.186 389.706C115.326 389.893 116.972 390.157 118.991 390.466C123.03 391.084 128.562 391.881 134.536 392.598C140.512 393.315 146.918 393.95 152.71 394.247C158.524 394.544 163.64 394.496 167.073 393.876L167.073 393.876C178.203 391.867 181.333 389.153 182.049 388.328C182.069 388.303 182.088 388.258 182.082 388.193C182.082 388.192 182.082 388.191 182.082 388.191L180.436 373.759L180.436 373.758C180.387 373.328 180.333 372.867 180.275 372.375C179.627 366.889 178.53 357.593 180.114 346.021L180.114 346.021C181.317 337.245 184.567 332.767 187.687 330.51C189.235 329.391 190.712 328.848 191.814 328.585C192.365 328.454 192.822 328.393 193.15 328.365C193.314 328.35 193.446 328.345 193.541 328.342C193.588 328.341 193.626 328.341 193.655 328.341C194.916 328.261 196.238 328.221 197.609 328.18C203.478 328.005 210.257 327.802 217.131 324.252C225.551 319.904 234.223 310.42 240.918 289.174C241.015 288.866 240.876 288.486 240.544 288.299ZM116.214 370.073C116.133 370.513 113.219 385.412 112.436 389.415L94.3482 393.77C94.8215 386.421 97.6633 358.118 112.332 340.519C113.951 338.575 117.072 339.141 117.826 341.559C118.993 345.305 119.292 353.279 116.214 370.073ZM113.23 390.562C119.536 391.61 154.346 397.19 167.251 394.86C178.488 392.832 181.88 390.052 182.81 388.977C183.019 388.73 183.11 388.407 183.076 388.085L113.23 390.562Z" fill="#E7FFF7" stroke="black" stroke-width="2"/>
<path d="M142 287.5L143.5 282.5C150.7 278.9 163.5 282.333 169 284.5L168 290.5C167.667 290.333 166.2 289.8 163 289C159.8 288.2 147.667 288.667 142 289V287.5Z" fill="white" stroke="black" stroke-width="2"/>
<path d="M236.39 275.167C236.39 276.332 247 284.487 247 284.487C242.559 294.142 239.922 289.114 235.712 284.487C234.519 283.175 233.198 281.896 231.675 280.992C228.727 279.245 236.39 274.002 236.39 275.167Z" fill="white" stroke="black" stroke-width="2"/>
<path d="M94.0276 395.213C93.193 394.4 79.9479 396.307 79.9479 396.307C76.1324 386.388 81.5742 388.008 87.8255 388.222C89.5983 388.283 91.4362 388.231 93.1465 387.77C96.4551 386.879 94.8621 396.025 94.0276 395.213Z" fill="white" stroke="black" stroke-width="2"/>
<path d="M263.373 554.576H415.999C419.92 554.576 422.824 551.396 422.481 547.474L412.968 438.28C412.627 434.358 409.169 431.179 405.247 431.179H252.622C248.7 431.179 245.794 434.358 246.139 438.28L255.651 547.474C255.993 551.396 259.449 554.576 263.373 554.576Z" fill="black"/>
<path d="M405.247 432.186C408.653 432.186 411.667 434.958 411.964 438.368L421.479 547.559C421.619 549.176 421.126 550.692 420.088 551.823C419.057 552.949 417.604 553.567 415.999 553.567H263.373C259.966 553.567 256.951 550.792 256.656 547.386L247.14 438.192C247 436.574 247.493 435.061 248.532 433.929C249.561 432.805 251.013 432.186 252.622 432.186H405.247ZM263.373 555.583H415.999C418.176 555.583 420.157 554.73 421.574 553.186C422.998 551.63 423.677 549.572 423.485 547.386L413.972 438.192C413.587 433.769 409.672 430.171 405.247 430.171H252.622C250.445 430.171 248.462 431.021 247.046 432.567C245.621 434.12 244.942 436.181 245.134 438.368L254.646 547.559C255.034 551.983 258.946 555.583 263.373 555.583Z" fill="black"/>
<path d="M271.495 554.576H424.122C428.045 554.576 430.947 551.396 430.606 547.474L421.091 438.28C420.749 434.358 417.293 431.179 413.37 431.179H260.745C256.82 431.179 253.919 434.358 254.259 438.28L263.775 547.474C264.117 551.396 267.573 554.576 271.495 554.576Z" fill="#0A428D"/>
<path d="M413.37 432.186C416.777 432.186 419.79 434.958 420.088 438.368L429.601 547.559C429.742 549.176 429.248 550.692 428.211 551.823C427.181 552.949 425.728 553.567 424.121 553.567H271.495C268.086 553.567 265.075 550.792 264.778 547.386L255.264 438.192C255.123 436.574 255.617 435.061 256.656 433.929C257.684 432.805 259.137 432.186 260.742 432.186H413.37ZM271.495 555.583H424.121C426.3 555.583 428.28 554.73 429.697 553.186C431.121 551.63 431.799 549.572 431.609 547.386L422.096 438.192C421.709 433.769 417.796 430.171 413.37 430.171H260.742C258.565 430.171 256.586 431.021 255.17 432.567C253.745 434.12 253.066 436.181 253.258 438.368L262.77 547.559C263.154 551.983 267.07 555.583 271.495 555.583Z" fill="black"/>
<path d="M381.368 460.193C381.983 467.273 388.223 473.012 395.305 473.012C402.386 473.012 407.626 467.273 407.009 460.193C406.392 453.11 400.152 447.369 393.071 447.369C385.99 447.369 380.749 453.11 381.368 460.193Z" fill="white"/>
<path d="M342.497 504.554H410.875L409.039 483.49H340.661L342.497 504.554Z" fill="#EC4C60"/>
<path d="M344.969 532.943H413.349L411.513 511.879H343.133L344.969 532.943Z" fill="#EC4C60"/>
<path d="M278.498 532.943H331.748L327.438 483.49H274.188L278.498 532.943Z" fill="white"/>
<path d="M162.312 170.204C169.861 172.271 177.659 167.824 179.727 160.274C181.794 152.728 177.351 144.931 169.8 142.862C162.247 140.795 154.454 145.239 152.386 152.789C150.317 160.338 154.765 168.136 162.312 170.204ZM137.856 151.668L139.315 146.356L145.322 146.629C145.878 145.459 146.521 144.353 147.251 143.313L144.071 138.221L147.985 134.349L153.052 137.589C154.105 136.866 155.223 136.232 156.381 135.692L156.17 129.681L161.495 128.285L164.262 133.617C165.524 133.518 166.807 133.53 168.098 133.643L170.925 128.334L176.233 129.792L175.96 135.799C177.131 136.352 178.237 136.998 179.272 137.729L184.368 134.546L188.241 138.462L185.003 143.529C185.723 144.582 186.362 145.697 186.9 146.855L192.911 146.649L194.305 151.976L188.971 154.74C189.075 156.001 189.06 157.285 188.947 158.575L194.251 161.398L192.801 166.711L186.794 166.438C186.234 167.608 185.588 168.715 184.861 169.753L188.042 174.845L184.128 178.718L179.061 175.477C178.007 176.2 176.893 176.835 175.734 177.374L175.939 183.384L170.613 184.782L167.85 179.448C166.588 179.547 165.308 179.538 164.013 179.424L161.191 184.729L155.879 183.278L156.152 177.268C154.985 176.71 153.875 176.069 152.835 175.339L147.744 178.519L143.872 174.605L147.112 169.536C146.385 168.484 145.755 167.37 145.215 166.211L139.204 166.416L137.808 161.09L143.14 158.328C143.041 157.065 143.048 155.781 143.168 154.491L137.856 151.668Z" fill="#5479F7"/>
<path d="M168.41 142.027C169.561 142.027 170.726 142.175 171.886 142.493C175.279 143.421 178.105 145.615 179.846 148.67C181.588 151.726 182.036 155.277 181.106 158.668C180.177 162.061 177.987 164.888 174.928 166.63C171.875 168.371 168.326 168.816 164.931 167.891C157.931 165.971 153.797 158.717 155.712 151.716C157.311 145.872 162.631 142.027 168.41 142.027ZM168.407 170.375C175.074 170.375 181.206 165.938 183.051 159.201C184.122 155.291 183.606 151.196 181.599 147.674C179.589 144.148 176.331 141.619 172.42 140.548C164.343 138.344 155.979 143.109 153.768 151.182C151.557 159.255 156.328 167.623 164.401 169.834C165.737 170.198 167.083 170.375 168.407 170.375ZM177.256 181.274L173.493 182.263L171.1 177.644C170.911 177.284 170.527 177.071 170.127 177.103C168.93 177.2 167.696 177.189 166.46 177.078C166.051 177.042 165.669 177.248 165.48 177.609L163.031 182.202L159.276 181.177L159.512 175.974C159.533 175.567 159.305 175.19 158.938 175.016C157.824 174.485 156.756 173.865 155.769 173.172C155.442 172.94 155.003 172.926 154.657 173.143L150.246 175.896L147.508 173.129L150.318 168.737C150.53 168.4 150.527 167.962 150.296 167.627C149.605 166.619 148.996 165.551 148.483 164.443C148.312 164.076 147.963 163.845 147.532 163.86L142.33 164.04L141.339 160.273L145.958 157.88C146.318 157.695 146.531 157.31 146.496 156.908C146.404 155.711 146.411 154.476 146.524 153.239C146.559 152.838 146.35 152.449 145.994 152.261L141.396 149.814L142.426 146.058L147.628 146.296C148.045 146.313 148.408 146.086 148.583 145.722C149.117 144.6 149.737 143.536 150.428 142.553C150.662 142.222 150.673 141.784 150.46 141.439L147.706 137.026L150.474 134.291L154.861 137.097C155.202 137.314 155.642 137.307 155.972 137.079C156.98 136.388 158.051 135.776 159.159 135.263C159.522 135.092 159.753 134.718 159.74 134.316L159.562 129.11L163.325 128.123L165.719 132.739C165.908 133.098 166.292 133.309 166.694 133.28C167.891 133.187 169.126 133.194 170.359 133.305C170.768 133.341 171.15 133.134 171.341 132.778L173.789 128.18L177.546 129.206L177.307 134.409C177.289 134.815 177.513 135.193 177.88 135.366C178.998 135.897 180.062 136.516 181.049 137.211C181.381 137.443 181.818 137.454 182.161 137.24L186.573 134.487L189.311 137.254L186.505 141.641C186.287 141.984 186.294 142.421 186.523 142.755C187.214 143.764 187.826 144.836 188.336 145.94C188.511 146.306 188.859 146.553 189.286 146.52L194.493 146.342L195.478 150.11L190.863 152.502C190.5 152.687 190.286 153.072 190.322 153.475C190.415 154.675 190.408 155.908 190.293 157.142C190.258 157.546 190.469 157.933 190.824 158.123L195.423 160.568L194.392 164.326L189.193 164.09C188.77 164.072 188.41 164.297 188.236 164.66C187.702 165.782 187.082 166.851 186.391 167.83C186.16 168.16 186.146 168.6 186.359 168.944L189.114 173.356L186.344 176.095L181.957 173.285C181.615 173.068 181.181 173.075 180.847 173.303C179.843 173.994 178.77 174.603 177.659 175.119C177.296 175.29 177.068 175.664 177.078 176.067L177.256 181.274ZM172.968 184.45C173.054 184.45 173.14 184.439 173.222 184.414L178.55 183.017C179.005 182.901 179.315 182.48 179.3 182.01L179.116 176.655C179.906 176.259 180.682 175.817 181.424 175.34L185.935 178.225C186.334 178.481 186.857 178.423 187.192 178.093L191.106 174.222C191.44 173.89 191.501 173.371 191.252 172.972L188.418 168.436C188.902 167.701 189.35 166.932 189.76 166.131L195.105 166.373C195.578 166.387 196.003 166.092 196.127 165.637L197.577 160.323C197.705 159.871 197.495 159.389 197.082 159.169L192.352 156.651C192.41 155.761 192.417 154.867 192.374 153.988L197.121 151.527C197.541 151.31 197.75 150.832 197.634 150.376L196.237 145.052C196.116 144.597 195.696 144.266 195.226 144.302L189.873 144.483C189.479 143.693 189.037 142.919 188.559 142.175L191.44 137.663C191.697 137.265 191.644 136.745 191.313 136.41L187.437 132.496C187.11 132.161 186.587 132.101 186.188 132.35L181.65 135.182C180.918 134.697 180.148 134.248 179.35 133.843L179.593 128.493C179.615 128.024 179.307 127.6 178.856 127.476L173.542 126.022C173.083 125.898 172.609 126.104 172.386 126.522L169.871 131.246C168.977 131.189 168.087 131.181 167.207 131.228L164.747 126.479C164.529 126.061 164.052 125.848 163.596 125.97L158.272 127.365C157.817 127.483 157.503 127.902 157.521 128.372L157.703 133.729C156.912 134.123 156.14 134.563 155.395 135.043L150.883 132.158C150.485 131.901 149.964 131.959 149.629 132.29L145.716 136.161C145.377 136.492 145.317 137.011 145.566 137.411L148.401 141.948C147.916 142.681 147.469 143.454 147.058 144.252L141.713 144.009C141.244 143.985 140.819 144.295 140.695 144.75L139.242 150.06C139.117 150.512 139.324 150.993 139.74 151.214L144.466 153.731C144.413 154.625 144.402 155.515 144.445 156.395L139.697 158.855C139.281 159.073 139.067 159.55 139.185 160.006L140.584 165.33C140.702 165.785 141.133 166.096 141.592 166.082L146.945 165.899C147.34 166.69 147.781 167.463 148.262 168.207L145.377 172.719C145.125 173.118 145.179 173.638 145.506 173.972L149.38 177.885C149.712 178.221 150.232 178.282 150.63 178.032L155.167 175.201C155.904 175.685 156.674 176.134 157.467 176.54L157.225 181.889C157.204 182.36 157.51 182.783 157.967 182.908L163.276 184.36C163.732 184.485 164.209 184.278 164.433 183.862L166.947 179.136C167.841 179.189 168.735 179.197 169.611 179.154L172.072 183.905C172.25 184.242 172.598 184.45 172.968 184.45Z" fill="black"/>
<path d="M89.9915 129.335C102.911 132.874 116.25 125.268 119.788 112.351C123.325 99.4281 115.721 86.0879 102.802 82.554C89.8794 79.0153 76.5392 86.6209 73.0021 99.5394C69.4682 112.458 77.0738 125.797 89.9915 129.335ZM48.1444 97.6166L50.6361 88.5271L60.911 88.9973C61.8625 86.9957 62.9683 85.0966 64.2142 83.3209L58.7749 74.6054L65.4728 67.9791L74.1406 73.5266C75.9473 72.2895 77.8495 71.2027 79.8353 70.2799L79.4844 59.9915L88.5985 57.604L93.3266 66.73C95.4882 66.559 97.68 66.5741 99.8893 66.7778L104.725 57.6923L113.811 60.1793L113.345 70.4589C115.346 71.4144 117.242 72.517 119.016 73.7621L127.731 68.322L134.358 75.0199L128.814 83.6877C130.053 85.4944 131.139 87.4014 132.057 89.3824L142.346 89.0283L144.737 98.1424L135.612 102.874C135.778 105.035 135.763 107.229 135.564 109.436L144.65 114.273L142.159 123.358L131.879 122.893C130.928 124.89 129.825 126.789 128.576 128.564L134.015 137.28L127.322 143.905L118.65 138.363C116.848 139.6 114.941 140.686 112.954 141.609L113.309 151.893L104.195 154.281L99.4668 145.159C97.3068 145.327 95.1095 145.31 92.901 145.111L88.0655 154.193L78.9792 151.706L79.4486 141.426C77.447 140.475 75.5535 139.373 73.7778 138.123L65.0583 143.567L58.432 136.869L63.9763 128.198C62.7416 126.392 61.6556 124.488 60.7328 122.503L50.4444 122.857L48.0561 113.744L57.1821 109.016C57.0119 106.85 57.027 104.657 57.2307 102.448L48.1444 97.6166Z" fill="#5479F7"/>
<path d="M100.433 80.4021C102.456 80.4021 104.517 80.6702 106.561 81.2303C118.926 84.6138 126.232 97.4249 122.843 109.786C121.207 115.775 117.335 120.768 111.938 123.844C106.545 126.921 100.277 127.709 94.2875 126.069C88.2985 124.429 83.3063 120.555 80.2337 115.162C77.1565 109.766 76.3641 103.498 78.0046 97.5133C80.8296 87.1955 90.2182 80.4021 100.433 80.4021ZM100.416 128.913C111.517 128.913 121.72 121.532 124.787 110.323C128.464 96.8887 120.531 82.967 107.097 79.2867C100.588 77.5022 93.7744 78.3622 87.9142 81.706C82.0532 85.0474 77.8454 90.4708 76.0641 96.9802C74.2765 103.486 75.1405 110.299 78.4803 116.159C81.8217 122.02 87.2459 126.233 93.7545 128.012C95.975 128.62 98.2161 128.913 100.416 128.913ZM116.303 148.828L108.749 150.808L104.392 142.399C104.204 142.043 103.828 141.831 103.417 141.859C101.324 142.022 99.1716 142.007 97.0235 141.816C96.6202 141.775 96.2311 141.987 96.0394 142.344L91.5874 150.716L84.0541 148.651L84.4813 139.178C84.5012 138.774 84.2729 138.398 83.9093 138.222C81.9617 137.294 80.1049 136.214 78.3848 135.005C78.0531 134.774 77.6163 134.758 77.2726 134.974L69.2357 139.99L63.7471 134.438L68.8594 126.448C69.075 126.105 69.0679 125.669 68.8396 125.333C67.6358 123.581 66.5714 121.712 65.6756 119.784C65.5029 119.416 65.1425 119.18 64.7272 119.2L55.2416 119.528L53.2654 111.975L61.6738 107.614C62.0342 107.43 62.2458 107.046 62.2188 106.642C62.0501 104.55 62.0668 102.402 62.2626 100.248C62.2952 99.8443 62.0899 99.4568 61.7295 99.2683L53.3569 94.8115L55.4222 87.279L64.8951 87.707C65.3152 87.7269 65.6756 87.5034 65.8514 87.135C66.783 85.1827 67.8626 83.3258 69.0679 81.6105C69.3034 81.278 69.3153 80.8373 69.0997 80.4983L64.0828 72.4615L69.6351 66.968L77.6282 72.0804C77.9688 72.3008 78.4087 72.2888 78.7405 72.0605C80.5011 70.8568 82.3651 69.7923 84.2896 68.8997C84.6571 68.7286 84.8855 68.3563 84.8735 67.9522L84.5458 58.4705L92.1021 56.4911L96.4595 64.8995C96.6472 65.2599 97.0355 65.4684 97.4309 65.4397C99.5232 65.2758 101.677 65.2918 103.828 65.4835C104.236 65.5209 104.62 65.3124 104.808 64.9552L109.262 56.5826L116.798 58.6463L116.366 68.1208C116.35 68.5242 116.575 68.8997 116.939 69.0755C118.887 70.0047 120.747 71.0851 122.463 72.2936C122.795 72.5251 123.234 72.537 123.58 72.3246L131.613 67.3085L137.105 72.8608L131.997 80.854C131.777 81.1945 131.78 81.6296 132.009 81.9662C133.213 83.7188 134.277 85.5821 135.178 87.5153C135.341 87.8709 135.697 88.0992 136.089 88.0992C136.101 88.0992 136.113 88.0992 136.125 88.0992L145.603 87.7715L147.587 95.3246L139.174 99.6852C138.817 99.8697 138.602 100.252 138.638 100.657C138.798 102.749 138.782 104.902 138.585 107.051C138.549 107.454 138.761 107.842 139.118 108.034L147.491 112.486L145.431 120.019L135.952 119.592C135.538 119.572 135.173 119.796 134.996 120.163C134.069 122.116 132.988 123.972 131.78 125.688C131.548 126.02 131.536 126.46 131.753 126.801L136.766 134.838L131.212 140.331L123.223 135.219C122.879 134.998 122.444 135.005 122.107 135.238C120.355 136.437 118.486 137.503 116.558 138.398C116.19 138.57 115.962 138.947 115.978 139.351L116.303 148.828ZM108.224 152.997C108.309 152.997 108.397 152.985 108.481 152.965L117.594 150.576C118.047 150.456 118.362 150.036 118.347 149.564L118.014 139.939C119.627 139.158 121.195 138.263 122.691 137.27L130.808 142.462C131.205 142.715 131.724 142.659 132.061 142.327L138.758 135.702C139.093 135.37 139.15 134.853 138.905 134.454L133.809 126.296C134.805 124.824 135.717 123.264 136.525 121.633L146.143 122.073C146.607 122.092 147.036 121.785 147.159 121.333L149.647 112.242C149.771 111.791 149.563 111.311 149.151 111.087L140.65 106.566C140.786 104.754 140.798 102.941 140.689 101.17L149.227 96.7447C149.643 96.5283 149.855 96.0486 149.739 95.5919L147.351 86.4826C147.231 86.0228 146.803 85.7022 146.338 85.7308L136.713 86.0594C135.933 84.4468 135.037 82.8739 134.049 81.3822L139.238 73.269C139.494 72.8728 139.433 72.3533 139.106 72.0159L132.481 65.3196C132.149 64.9839 131.629 64.9194 131.228 65.1716L123.072 70.2641C121.6 69.2688 120.035 68.3563 118.41 67.5488L118.847 57.9351C118.867 57.4625 118.559 57.0385 118.107 56.9144L109.022 54.4258C108.561 54.3025 108.085 54.5109 107.861 54.927L103.34 63.4237C101.524 63.2877 99.7165 63.2758 97.944 63.384L93.519 54.8459C93.3026 54.4298 92.8269 54.2142 92.371 54.3343L83.2537 56.7234C82.8019 56.8436 82.4892 57.2628 82.5019 57.7354L82.8337 67.3602C81.2258 68.1399 79.657 69.0365 78.1565 70.0254L70.0433 64.8351C69.6439 64.5829 69.1275 64.6402 68.7918 64.9672L62.0939 71.5967C61.7582 71.9284 61.6993 72.4448 61.9499 72.8457L67.0384 81.0019C66.0431 82.4745 65.1354 84.0386 64.3231 85.6672L54.7094 85.2264C54.2408 85.2065 53.8128 85.5144 53.6887 85.9663L51.2009 95.0565C51.0768 95.5084 51.2852 95.9881 51.7013 96.2125L60.198 100.733C60.062 102.549 60.0501 104.358 60.1583 106.129L51.6202 110.554C51.2009 110.771 50.9925 111.25 51.1126 111.707L53.4977 120.816C53.6179 121.263 54.0172 121.571 54.4779 121.571C54.4858 121.571 54.4978 121.571 54.5097 121.568L64.1353 121.24C64.919 122.853 65.8108 124.42 66.8029 125.917L61.6142 134.03C61.3588 134.426 61.4145 134.95 61.7462 135.281L68.371 141.979C68.7035 142.315 69.2238 142.375 69.6232 142.127L77.777 137.034C79.2488 138.03 80.8129 138.943 82.4415 139.75L82.0063 149.368C81.9808 149.837 82.2887 150.26 82.7454 150.385L91.8308 152.873C92.2867 152.997 92.7672 152.789 92.9876 152.372L97.5072 143.876C99.3203 144.011 101.128 144.023 102.904 143.915L107.329 152.453C107.505 152.792 107.857 152.997 108.224 152.997Z" fill="black"/>
<path d="M471.057 92.0485C471.438 92.0485 471.804 91.8305 471.974 91.4605C472.205 90.9554 471.982 90.3555 471.477 90.1248C471.162 89.9824 439.395 75.6143 391.077 67.4995C362.705 62.73 334.245 61.0132 306.492 62.3967C271.793 64.1254 238.107 70.7303 206.368 82.0258C205.844 82.2128 205.569 82.788 205.755 83.3131C205.942 83.8342 206.519 84.1087 207.044 83.9217C278.482 58.4976 346.338 62.0307 390.677 69.4741C438.75 77.5428 470.324 91.8138 470.638 91.957C470.773 92.0214 470.917 92.0485 471.057 92.0485Z" fill="black"/>
<path d="M244.744 87.004C244.857 87.004 244.97 86.985 245.083 86.946C285.201 72.5373 329.426 73.3011 359.464 76.4842C392.053 79.933 415.439 86.8911 415.672 86.9611C416.205 87.1218 416.767 86.8171 416.928 86.2872C417.088 85.7526 416.786 85.1901 416.253 85.031C416.019 84.961 392.486 77.9544 359.719 74.4833C329.459 71.2764 284.89 70.5047 244.401 85.0461C243.878 85.2331 243.605 85.8115 243.796 86.3382C243.94 86.7471 244.331 87.004 244.744 87.004Z" fill="black"/>
<path d="M197.671 84.5973C199.34 84.5973 200.695 85.9522 200.695 87.6205C200.695 89.2857 199.34 90.6437 197.671 90.6437C196.007 90.6437 194.649 89.2857 194.649 87.6205C194.649 85.9522 196.007 84.5973 197.671 84.5973ZM197.671 92.6605C200.45 92.6605 202.711 90.3987 202.711 87.6205C202.711 84.8424 200.45 82.5806 197.671 82.5806C194.894 82.5806 192.633 84.8424 192.633 87.6205C192.633 90.3987 194.894 92.6605 197.671 92.6605Z" fill="black"/>
<circle cx="485.5" cy="312.5" r="2" fill="#D9D9D9" stroke="black"/>
<circle cx="482.5" cy="325.5" r="2" fill="#D9D9D9" stroke="black"/>
</svg>
