<svg width="29" height="20" viewBox="0 0 29 20" fill="none" xmlns="http://www.w3.org/2000/svg">
<path fill-rule="evenodd" clip-rule="evenodd" d="M15.3425 17.8346C15.3444 18.5562 15.3462 19.2778 15.3474 19.9994V20H17.3587C17.3618 19.5282 17.365 19.0565 17.3682 18.5847C17.3788 17.0084 17.3894 15.4318 17.3966 13.8553C17.3996 13.2397 17.3997 12.9365 17.5343 12.8563C17.6653 12.7782 17.9236 12.9112 18.4358 13.1727C18.6885 13.3014 18.9446 13.4254 19.2066 13.5335C22.826 15.0221 26.9961 13.3309 28.4531 9.78678C29.9439 6.15877 28.2938 2.06485 24.6365 0.550822C21.3608 -0.805548 18.4714 0.522478 16.1912 2.5839C16.0184 2.73979 15.9957 2.91222 16.1071 3.13897C16.5033 3.94381 16.9526 4.06664 17.6306 3.50448C18.9405 2.41797 20.3963 1.6273 22.1287 1.70701C24.3868 1.81153 26.0876 2.92993 26.9109 5.06458C27.6718 7.03683 27.4139 8.96953 25.9744 10.5934C24.4469 12.3159 22.501 12.7233 20.3339 12.1423C18.9767 11.7785 17.9019 10.9359 16.8966 9.97869C15.9782 9.10439 15.1645 8.13476 14.3509 7.16524C13.5182 6.17295 12.6856 5.18078 11.7409 4.29103C10.672 3.28423 9.50734 2.45813 8.03346 2.15874C5.25432 1.59482 2.67299 3.38757 2.11459 6.28395C1.62563 8.82013 3.49278 11.4514 6.12547 11.9492C8.21434 12.3448 9.81134 11.3569 11.3348 10.1204C11.8185 9.72773 11.6954 9.41122 11.3389 9.03153C11.3156 9.00674 11.2928 8.98198 11.2702 8.95753C10.9691 8.63132 10.7194 8.36079 10.2233 8.8343C9.48867 9.53581 8.6222 10.0608 7.60402 10.2633C5.76604 10.6294 3.99341 9.30906 3.78161 7.42538C3.5663 5.51099 4.97192 3.89126 6.86416 3.80505C8.36138 3.73714 9.48108 4.47172 10.5033 5.42537C11.4404 6.29948 12.2667 7.27541 13.093 8.25134C13.6538 8.91372 14.2146 9.5761 14.81 10.2066C15.1975 10.6164 15.3451 11.0422 15.3422 11.5961C15.3318 13.6757 15.3372 15.7551 15.3425 17.8346ZM12.3787 2.1304C10.8301 0.894491 9.15784 -0.0237305 6.96919 0.044767C4.14687 0.0406335 1.61047 1.71469 0.533937 4.37901C-0.556595 7.0764 0.0403093 10.1263 2.16944 12.108C5.49122 15.1993 9.70281 14.5096 12.8507 11.4868C12.996 11.3475 13.0182 11.1922 12.933 10.9949C12.549 10.1033 12.063 9.9781 11.3167 10.5952C9.9858 11.6958 8.53176 12.4316 6.73871 12.3672C4.16554 12.2751 1.88237 10.0932 1.74583 7.52931C1.58888 4.57683 3.46361 2.17114 6.17273 1.78791C8.09706 1.51628 9.71915 2.16583 11.2012 3.31789C12.4324 4.27496 13.4231 5.46188 14.4134 6.64828C14.6659 6.95074 14.9183 7.25317 15.1747 7.55175C16.4251 9.00791 17.6878 10.4387 19.4091 11.3687C22.0453 12.793 25.2352 11.8104 26.4657 9.17797C27.68 6.57979 26.5077 3.49031 23.8815 2.44513C21.5102 1.50152 19.566 2.41738 17.7636 3.92256C17.3149 4.29693 17.3546 4.61344 17.7152 5.02442C18.0729 5.43246 18.3816 5.63795 18.8588 5.18149C19.4242 4.64119 20.0871 4.23552 20.8299 3.98102C22.211 3.50744 23.7327 3.91842 24.5513 4.97482C25.4079 6.08082 25.4855 7.6852 24.7386 8.8408C23.9562 10.0525 22.5482 10.5792 21.0808 10.222C20.3625 10.0478 19.7481 9.6793 19.1599 9.24942C18.2529 8.58625 17.5301 7.74175 16.8075 6.8976C16.639 6.70072 16.4705 6.50387 16.2997 6.30934C16.0039 5.97253 15.7142 5.63009 15.4245 5.28768C14.4784 4.16957 13.5325 3.0517 12.3787 2.1304Z" fill="white"/>
</svg>
