<svg width="84" height="84" viewBox="0 0 84 84" fill="none" xmlns="http://www.w3.org/2000/svg">
<path d="M42 3.5C20.7708 3.5 3.5 20.7708 3.5 42C3.5 63.2292 20.7708 80.5 42 80.5C63.2306 80.5 80.5 63.2292 80.5 42C80.5 20.7708 63.2306 3.5 42 3.5Z" fill="#FFD65A"/>
<path d="M47.2946 77.4653L47.684 82.9519L44.9407 83.1466C43.9698 83.2151 42.9896 83.25 42 83.25C19.2548 83.25 0.75 64.7452 0.75 42C0.75 19.2548 19.2548 0.75 42 0.75C55.0612 0.75 67.2911 7.05701 75 17.2997V9H80.5V28.25H61.25V22.75H72.0996C65.5791 12.6094 54.2072 6.25 42 6.25C22.2867 6.25 6.25 22.2867 6.25 42C6.25 61.7133 22.2867 77.75 42 77.75C42.858 77.75 43.7094 77.7205 44.5513 77.66L47.2946 77.4653ZM61.3225 72.0808C59.8938 73.0006 58.3885 73.8251 56.8511 74.5287L54.3508 75.6727L56.6389 80.6732L59.1392 79.5292C60.9143 78.7168 62.6519 77.7675 64.3008 76.7053L66.613 75.2162L63.6348 70.5917L61.3225 72.0808ZM77.75 39.25V42C77.75 43.7053 77.6292 45.4187 77.3901 47.0918L77.0034 49.8149L82.4484 50.5897L82.8364 47.8679C83.1104 45.9384 83.25 43.9631 83.25 42V39.25H77.75ZM73.3833 59.1351C72.5669 60.6256 71.6364 62.0691 70.6199 63.4253L68.9696 65.6248L73.3685 68.9253L75.0188 66.7258C76.1924 65.1615 77.2653 63.4965 78.2065 61.775L79.5278 59.3634L74.7032 56.7222L73.3833 59.1351ZM39.25 14.5V37.2654C38.4255 37.7448 37.7448 38.4255 37.2654 39.25H20V44.75H37.2654C38.2188 46.3855 39.9724 47.5 42 47.5C45.0333 47.5 47.5 45.0333 47.5 42C47.5 39.9724 46.3855 38.2188 44.75 37.2654V14.5H39.25Z" fill="#464646"/>
</svg>
