<svg width="416" height="114" viewBox="0 0 416 114" fill="none" xmlns="http://www.w3.org/2000/svg">
<g clip-path="url(#clip0_506_13524)">
<path fill-rule="evenodd" clip-rule="evenodd" d="M60.5168 98.975C62.9558 96.9425 59.2973 95.6213 56.8583 96.2819C52.4885 97.5014 54.4193 102.989 57.8238 104.107C59.9071 104.818 61.7363 104.107 63.1082 102.888C63.2607 102.735 64.7851 101.007 63.9212 100.804C63.3623 100.652 62.7017 102.176 62.4985 102.379C61.279 103.497 58.5859 103.802 57.3665 102.481C56.1978 101.211 56.2486 97.0949 59.4498 97.603C60.2628 97.7555 60.0087 99.3815 60.5168 98.975Z" fill="#77B8D8"/>
<path fill-rule="evenodd" clip-rule="evenodd" d="M92.6302 105.733C91.6647 105.124 89.8863 107.563 90.2928 108.528C91.3599 110.916 94.0021 113.101 96.8476 114.422C97.3049 114.625 100.354 115.591 100.862 115.388C100.963 115.337 100.913 114.219 100.862 114.168C98.7785 112.542 96.187 112.593 94.6118 110.256C93.6972 108.833 94.2053 106.8 92.6302 105.733Z" fill="#F48184"/>
<path fill-rule="evenodd" clip-rule="evenodd" d="M122.814 110.407C125.558 109.645 123.78 107.054 121.137 107.308C114.532 108.019 117.428 113.1 121.493 114.726C126.727 116.81 132.722 110.814 129.42 107.257C128.912 106.698 128.2 106.037 127.286 105.885C126.777 105.783 125.355 105.377 125.66 105.733C126.015 106.088 126.879 106.19 127.235 106.546C129.064 108.375 128.149 113.456 124.593 113.761C121.899 114.015 116.869 110.763 120.578 109.137C121.29 108.883 121.696 110.763 122.814 110.407Z" fill="white"/>
<path fill-rule="evenodd" clip-rule="evenodd" d="M278.044 29.5657C282.313 29.9214 284.447 22.1979 279.264 21.6898C276.266 21.3849 273.42 25.3991 276.469 26.517C277.485 26.9235 280.077 25.5007 279.111 24.7894C278.807 24.5861 277.587 26.2121 277.079 24.5861C276.723 23.5191 278.807 22.0963 279.975 23.0109C281.55 24.2304 280.026 26.8219 278.857 27.7873C278.349 28.2446 277.231 29.5149 278.044 29.5657Z" fill="#EA6F68"/>
<path fill-rule="evenodd" clip-rule="evenodd" d="M302.485 32.665C304.416 31.039 301.52 29.972 299.589 30.5309C296.134 31.4963 297.658 35.8662 300.351 36.73C302.028 37.2889 303.451 36.73 304.518 35.7646C304.619 35.6629 305.839 34.291 305.127 34.1386C304.67 34.0369 304.162 35.2564 304.01 35.4089C303.044 36.2727 300.91 36.5268 299.945 35.5105C298.979 34.4943 299.03 31.2423 301.571 31.6488C302.231 31.6996 302.079 33.0207 302.485 32.665Z" fill="#FFE297"/>
<path fill-rule="evenodd" clip-rule="evenodd" d="M307.872 53.651C307.923 52.8888 309.599 52.7364 310.616 52.7872C310.616 52.7872 310.616 54.8705 310.616 55.0229C310.616 56.4457 311.429 58.8847 309.345 59.2912C309.142 59.342 308.532 59.6468 308.329 59.596C307.77 59.3928 308.38 58.6306 308.431 58.1225C308.634 56.7505 307.719 55.0737 307.872 53.651Z" fill="#FFE297"/>
<path fill-rule="evenodd" clip-rule="evenodd" d="M332.566 24.8405C331.804 24.3324 330.381 26.3141 330.737 27.0763C331.55 28.9564 333.684 30.684 335.92 31.751C336.275 31.9035 338.714 32.6657 339.07 32.5132C339.172 32.4624 339.121 31.5986 339.07 31.5478C337.393 30.2775 335.361 30.3283 334.141 28.4482C333.379 27.2795 333.786 25.7044 332.566 24.8405Z" fill="#F48184"/>
<path fill-rule="evenodd" clip-rule="evenodd" d="M357.311 32.1573C356.295 32.0557 356.549 33.0211 356.041 33.6309C355.533 34.2406 353.805 34.8504 353.5 35.2569C353.297 35.5617 354.313 36.4764 354.618 36.5272C354.821 36.578 355.99 35.765 356.143 35.6634C357.26 34.8504 359.649 32.3606 357.311 32.1573Z" fill="#CBE37C"/>
<path fill-rule="evenodd" clip-rule="evenodd" d="M278.552 51.0594C278.603 50.6529 278.501 49.9415 279.01 49.9415C280.94 49.8907 281.398 50.8053 281.398 51.7707C281.398 52.3805 279.873 53.041 279.111 52.6345C278.603 52.3805 278.552 51.4658 278.552 51.0594Z" fill="white"/>
<path fill-rule="evenodd" clip-rule="evenodd" d="M321.642 11.4255C321.54 10.9682 323.166 10.7141 323.674 10.5109C324.081 10.3584 324.69 9.69788 324.792 10.0028C324.995 10.4601 324.538 11.2731 324.589 11.832C324.64 12.5434 324.945 13.3056 325.3 13.9661C325.402 14.1694 325.961 14.6267 325.808 14.8299C325.554 15.1856 324.792 15.1856 324.386 15.3381C324.233 15.3889 323.776 15.6429 323.623 15.5413C323.268 15.3889 323.217 14.6267 323.115 14.4234C322.556 13.458 321.845 12.4926 321.642 11.4255Z" fill="white"/>
<path fill-rule="evenodd" clip-rule="evenodd" d="M345.778 54.7176C344.253 56.3436 347.251 57.5631 349.03 56.3436C353.45 53.2948 348.013 50.6526 343.999 51.0083C338.816 51.4656 338.207 58.1728 342.983 59.5448C343.694 59.748 344.71 60.0021 345.422 59.748C345.879 59.5956 347.149 59.3923 346.692 59.2399C346.184 59.0875 345.523 59.3923 345.015 59.2399C342.475 58.5793 339.883 54.5143 342.322 52.8883C344.152 51.7197 349.995 52.177 348.267 54.7684C347.912 55.2765 346.438 54.057 345.778 54.7176Z" fill="#77B8D8"/>
<path fill-rule="evenodd" clip-rule="evenodd" d="M397.352 83.4774C396.132 83.6807 394.455 84.9002 393.338 85.3067C393.033 85.4083 392.423 85.3575 392.372 85.6115C392.372 85.764 393.693 86.1197 393.693 86.1705C394.709 86.577 395.522 87.1867 396.234 87.8473C397.555 89.1176 397.707 90.2355 396.691 91.6582C396.589 91.8106 395.98 92.1155 395.929 92.2171C395.827 92.5728 396.894 92.6744 397.047 92.7253C398.063 92.9285 399.638 92.9285 400.451 92.3188C400.959 91.9631 400.4 90.1338 400.35 89.7273C400.299 88.3046 399.638 83.1217 397.352 83.4774Z" fill="#FFE297"/>
<path fill-rule="evenodd" clip-rule="evenodd" d="M314.883 120.774C311.428 122.755 304.314 116.963 308.481 114.473C310.869 113.05 316.001 115.337 314.172 117.522C313.562 118.233 310.361 118.081 310.666 117.064C310.767 116.759 312.952 117.674 312.292 116.099C311.885 115.083 309.141 114.625 308.735 115.946C308.176 117.623 311.275 119.3 312.952 119.605C313.714 119.757 315.544 120.418 314.883 120.774Z" fill="#EA6F68"/>
<path fill-rule="evenodd" clip-rule="evenodd" d="M317.983 79.2598C315.188 78.6501 317.017 76.5668 319.05 76.2619C322.708 75.703 324.334 80.0728 322.607 81.9021C321.54 83.0199 319.964 83.1216 318.338 82.7151C318.135 82.6642 316.204 81.9529 316.662 81.5464C316.966 81.2923 318.237 82.1053 318.491 82.1561C319.914 82.5118 321.946 81.9021 322.048 80.6318C322.149 79.3614 319.914 76.5668 317.983 77.9387C317.525 78.3452 318.542 79.4123 317.983 79.2598Z" fill="#FFE297"/>
<path fill-rule="evenodd" clip-rule="evenodd" d="M310.361 94.758C310.666 94.0466 313.257 95.1645 313.461 95.9267C314.02 97.9084 313.41 100.246 312.139 102.024C311.936 102.329 310.361 103.955 309.955 103.955C309.853 103.955 309.294 103.193 309.294 103.142C309.853 101.364 311.682 100.601 311.428 98.4673C311.276 97.197 309.853 95.9775 310.361 94.758Z" fill="#F48184"/>
<path fill-rule="evenodd" clip-rule="evenodd" d="M332.414 99.9919C330.686 100.144 331.398 101.669 333.074 101.669C334.294 101.669 334.091 99.7887 332.414 99.9919Z" fill="#F9EAC3"/>
<path fill-rule="evenodd" clip-rule="evenodd" d="M372.758 104.564C372.453 104.26 372.047 103.599 371.64 103.802C369.913 104.564 370.167 105.53 370.827 106.343C371.234 106.902 373.012 106.8 373.368 106.19C373.622 105.733 373.063 104.869 372.758 104.564Z" fill="white"/>
<path fill-rule="evenodd" clip-rule="evenodd" d="M283.939 96.9428C281.653 97.2985 281.449 94.9611 283.431 94.3005C288.36 92.6745 289.122 97.0952 287.191 99.4834C284.701 102.532 277.384 100.347 277.74 96.892C277.791 96.333 277.893 95.6725 278.451 95.266C278.756 95.0627 279.519 94.3005 279.468 94.6562C279.417 95.0119 278.909 95.3168 278.807 95.7233C278.553 97.5525 281.907 100.703 284.498 99.7883C286.429 99.1277 288.157 95.3168 284.752 95.3676C284.142 95.4184 284.905 96.7903 283.939 96.9428Z" fill="white"/>
<path fill-rule="evenodd" clip-rule="evenodd" d="M251.827 13.3051C248.371 14.0165 249.743 20.4696 253.961 19.6566C256.4 19.1993 257.01 15.49 254.215 15.2868C253.3 15.236 251.827 16.9128 252.843 17.2685C253.148 17.3701 253.453 15.8457 254.469 16.9636C255.13 17.675 254.113 19.2501 252.843 18.8436C251.166 18.2847 251.268 15.8965 251.878 14.8803C252.081 14.423 252.487 13.1527 251.827 13.3051Z" fill="#EA6F68"/>
<path fill-rule="evenodd" clip-rule="evenodd" d="M163.921 84.9509C163.057 86.6277 165.7 86.7802 167.021 85.9164C169.307 84.392 166.462 81.3433 164.023 81.2924C162.549 81.2416 161.635 82.0038 161.177 83.0201C161.126 83.1217 160.72 84.4428 161.33 84.4428C161.736 84.4428 161.635 83.3757 161.736 83.2233C162.143 82.3087 163.718 81.6481 164.836 82.2071C165.954 82.766 167.173 85.3066 165.09 85.6115C164.48 85.6623 164.124 84.6461 163.921 84.9509Z" fill="#FFE297"/>
<path fill-rule="evenodd" clip-rule="evenodd" d="M111.33 95.4686C111.584 96.0783 110.364 96.5864 109.551 96.7897C109.551 96.7897 108.738 95.1637 108.687 95.0621C108.128 93.9442 106.553 92.2674 107.976 91.4544C108.128 91.4036 108.484 90.9971 108.637 90.9971C109.145 91.0479 108.992 91.7593 109.094 92.1658C109.5 93.2836 110.872 94.3507 111.33 95.4686Z" fill="#FFE297"/>
<path fill-rule="evenodd" clip-rule="evenodd" d="M152.843 66.7084C153.606 66.9117 153.961 65.0824 153.402 64.5743C152.03 63.304 149.693 62.4402 147.559 62.1353C147.203 62.0845 145.069 62.0337 144.815 62.2369C144.764 62.2877 145.12 62.9483 145.171 62.9991C146.949 63.6089 148.524 63.1007 150.201 64.2694C151.217 64.9808 151.522 66.3527 152.843 66.7084Z" fill="#F48184"/>
<path fill-rule="evenodd" clip-rule="evenodd" d="M118.139 71.4855C118.241 71.7904 118.597 72.3493 118.241 72.4509C116.767 72.9082 116.056 72.3493 115.649 71.5871C115.395 71.1298 116.361 70.266 117.072 70.3676C117.58 70.4692 117.987 71.1298 118.139 71.4855Z" fill="white"/>
<path fill-rule="evenodd" clip-rule="evenodd" d="M128.657 47.8064C128.911 48.1621 127.743 48.721 127.438 48.9751C127.184 49.1783 126.98 49.8389 126.726 49.6356C126.371 49.3307 126.421 48.5686 126.167 48.1621C125.862 47.6031 125.304 47.095 124.795 46.6885C124.643 46.5869 124.033 46.3328 124.084 46.1296C124.135 45.8247 124.745 45.6214 124.999 45.4182C125.1 45.3674 125.354 45.0625 125.507 45.0625C125.812 45.0625 126.167 45.7231 126.32 45.8247C127.133 46.4852 128.047 47.0442 128.657 47.8064Z" fill="#77B8D8"/>
<path fill-rule="evenodd" clip-rule="evenodd" d="M88.973 77.6335C89.5319 76.0075 86.7372 75.7535 85.8226 77.1254C83.5869 80.5298 88.8205 81.3428 91.8185 80.1233C95.6802 78.5482 93.4953 73.2637 89.2779 73.2637C88.6173 73.2637 87.7535 73.3145 87.2962 73.6702C86.9913 73.8734 86.0767 74.3815 86.4832 74.3307C86.9405 74.3307 87.347 73.975 87.8043 73.9242C90.04 73.8226 93.6477 76.414 92.3774 78.1925C91.412 79.5136 86.7372 80.479 87.0421 78.0908C87.1437 77.6843 88.7697 78.2941 88.973 77.6335Z" fill="white"/>
<path fill-rule="evenodd" clip-rule="evenodd" d="M167.225 39.1687C166.767 38.7114 165.344 39.9309 165.446 40.5406C165.649 42.0142 166.818 43.4878 168.19 44.5548C168.393 44.7072 169.968 45.5711 170.324 45.5202C170.375 45.5202 170.578 44.8597 170.527 44.8089C169.613 43.691 168.139 43.4369 167.631 41.9634C167.275 41.0488 167.936 39.9309 167.225 39.1687Z" fill="#77B8D8"/>
<path fill-rule="evenodd" clip-rule="evenodd" d="M119.409 15.5411C119.917 14.6773 122 15.033 123.118 15.4395C123.118 15.4395 121.899 17.9293 121.797 18.0817C120.933 19.8093 120.527 22.9089 117.783 22.7056C117.529 22.7056 116.563 22.8581 116.411 22.7056C115.852 22.2483 117.072 21.5878 117.427 21.0288C118.545 19.4536 118.443 17.1671 119.409 15.5411Z" fill="#77B8D8"/>
<path fill-rule="evenodd" clip-rule="evenodd" d="M60.7207 50.8556C59.6028 50.3983 59.3488 51.6178 58.3833 52.1259C57.4179 52.634 55.0297 52.7865 54.42 53.193C53.9626 53.4978 54.7248 54.9206 55.0297 55.073C55.2838 55.1746 57.1638 54.6157 57.3163 54.5649C59.0439 54.006 63.3629 51.9226 60.7207 50.8556Z" fill="#CBE37C"/>
<path fill-rule="evenodd" clip-rule="evenodd" d="M100.71 38.2028C102.997 35.967 105.029 39.219 103.149 40.2352C101.574 41.0482 99.9482 38.9141 100.71 38.2028Z" fill="#77B8D8"/>
<path fill-rule="evenodd" clip-rule="evenodd" d="M79.928 24.484C80.0804 23.8742 82.1637 24.1791 82.8243 24.1283C83.3832 24.0775 84.4503 23.5185 84.4503 23.925C84.3994 24.5856 83.3832 25.3478 83.1291 26.0083C82.7735 26.8721 82.7226 27.8376 82.7226 28.7522C82.7226 29.0063 83.0783 29.7685 82.7735 29.9717C82.3161 30.3274 81.3507 30.0733 80.7918 30.0733C80.5885 30.0733 79.928 30.175 79.7247 30.0733C79.4198 29.8193 79.8263 28.8538 79.8263 28.549C79.8263 27.177 79.5723 25.8051 79.928 24.484Z" fill="white"/>
<path fill-rule="evenodd" clip-rule="evenodd" d="M168.139 9.74841C165.395 11.1203 168.189 13.6101 170.984 12.7972C177.996 10.7138 173.169 5.68342 168.189 4.71799C161.787 3.49849 157.163 11.1712 161.939 14.4231C162.702 14.9313 163.718 15.541 164.734 15.4902C165.344 15.4902 167.021 15.6426 166.563 15.3378C166.055 15.0329 165.09 15.0837 164.582 14.7788C161.99 13.1528 161.279 7.41104 165.09 6.34398C167.935 5.5818 174.541 8.12241 171.035 10.6122C170.324 11.1712 169.256 9.18947 168.139 9.74841Z" fill="white"/>
<path fill-rule="evenodd" clip-rule="evenodd" d="M212.904 35.9677C211.786 35.358 210.77 33.5287 209.856 32.7666C209.601 32.5633 208.941 32.4109 209.093 32.106C209.144 31.9536 210.719 32.0044 210.77 32.0044C212.04 31.9027 213.209 31.5979 214.327 31.1406C216.41 30.2768 217.223 29.2097 217.02 27.4313C217.02 27.228 216.563 26.7199 216.614 26.6183C216.715 26.2118 217.833 26.4658 218.087 26.5166C219.256 26.6691 220.831 27.1772 221.288 28.0918C221.593 28.6508 219.967 30.3276 219.662 30.6832C218.697 32.0552 215.038 37.1364 212.904 35.9677Z" fill="#77B8D8"/>
<path fill-rule="evenodd" clip-rule="evenodd" d="M212.09 12.4416C208.889 12.1367 209.499 14.8806 211.43 15.846C214.834 17.6752 219.052 13.7627 218.391 11.2729C217.985 9.74851 216.409 9.13877 214.529 8.98633C214.326 8.98633 211.887 9.03714 212.141 9.59608C212.294 10.0026 214.072 9.54526 214.377 9.59608C216.054 9.6977 217.73 11.0696 217.121 12.3908C216.511 13.7119 212.598 15.7952 211.43 13.7627C211.074 13.2038 212.751 12.4924 212.09 12.4416Z" fill="#FFE297"/>
<path fill-rule="evenodd" clip-rule="evenodd" d="M204.469 75.0419C205.028 75.804 205.993 74.991 207.009 74.991C208.076 74.991 209.906 75.804 210.617 75.7024C211.125 75.6516 211.532 74.3305 211.379 74.0764C211.278 73.8732 209.55 73.6191 209.347 73.5683C207.721 73.365 203.198 73.2634 204.469 75.0419Z" fill="#E4F2B5"/>
<path fill-rule="evenodd" clip-rule="evenodd" d="M194.308 20.114C192.682 19.3518 194.257 18.0307 195.984 18.5897C197.153 18.9962 195.883 20.8254 194.308 20.114Z" fill="#FFE297"/>
<path fill-rule="evenodd" clip-rule="evenodd" d="M376.265 70.7233C375.198 71.2314 376.418 72.0444 376.519 72.9082C376.621 73.8229 375.503 75.4489 375.706 76.0586C375.808 76.5159 377.79 76.77 378.145 76.6175C378.399 76.5159 378.755 74.9916 378.755 74.8391C378.958 73.4672 378.806 69.5546 376.265 70.7233Z" fill="#77B8D8"/>
<path fill-rule="evenodd" clip-rule="evenodd" d="M180.385 42.929C180.385 42.929 180.232 41.0489 179.317 39.9819C178.403 38.9148 176.828 38.6608 176.828 38.6608C176.828 38.6608 178.149 38.4575 179.063 37.3904C179.978 36.3742 180.385 34.4941 180.385 34.4941C180.385 34.4941 180.588 36.4758 181.452 37.5429C182.315 38.6099 183.84 38.7624 183.84 38.7624C183.84 38.7624 182.265 38.9148 181.401 39.9311C180.486 40.9981 180.385 42.929 180.385 42.929Z" fill="white"/>
<path fill-rule="evenodd" clip-rule="evenodd" d="M202.182 63.762C202.182 63.762 201.979 61.323 200.811 59.9511C199.642 58.5791 197.609 58.2743 197.609 58.2743C197.609 58.2743 199.337 58.0202 200.506 56.6483C201.674 55.3271 202.233 52.939 202.233 52.939C202.233 52.939 202.487 55.4796 203.605 56.8515C204.723 58.2235 206.654 58.3759 206.654 58.3759C206.654 58.3759 204.621 58.5283 203.504 59.9003C202.386 61.2722 202.182 63.762 202.182 63.762Z" fill="white"/>
<path fill-rule="evenodd" clip-rule="evenodd" d="M166.309 29.6158C166.309 29.6158 166.207 28.3454 165.597 27.6341C164.987 26.9227 163.92 26.7703 163.92 26.7703C163.92 26.7703 164.835 26.6178 165.445 25.9065C166.055 25.1951 166.359 23.9756 166.359 23.9756C166.359 23.9756 166.512 25.2967 167.071 26.0081C167.63 26.7195 168.646 26.8211 168.646 26.8211C168.646 26.8211 167.579 26.9227 167.02 27.6341C166.41 28.2946 166.309 29.6158 166.309 29.6158Z" fill="white"/>
<path fill-rule="evenodd" clip-rule="evenodd" d="M211.735 98.3145C212.243 97.4507 214.327 97.8064 215.444 98.2129C215.444 98.2129 214.225 100.703 214.123 100.855C213.259 102.583 212.853 105.682 210.109 105.479C209.855 105.479 208.89 105.632 208.737 105.479C208.178 105.022 209.398 104.361 209.753 103.802C210.82 102.227 210.719 99.9405 211.735 98.3145Z" fill="#77B8D8"/>
<path fill-rule="evenodd" clip-rule="evenodd" d="M172.204 107.257C172.356 106.648 174.44 106.953 175.1 106.902C175.659 106.851 176.726 106.292 176.726 106.698C176.675 107.359 175.659 108.121 175.405 108.782C175.049 109.646 174.999 110.611 174.999 111.526C174.999 111.78 175.354 112.542 175.049 112.745C174.592 113.101 173.627 112.847 173.068 112.847C172.864 112.847 172.204 112.948 172.001 112.847C171.696 112.593 172.102 111.627 172.102 111.322C172.102 109.95 171.848 108.579 172.204 107.257Z" fill="white"/>
<path fill-rule="evenodd" clip-rule="evenodd" d="M252.487 92.7754C250.404 89.93 245.119 93.8425 247.558 97.3486C248.981 99.3811 252.64 98.4156 251.674 95.7734C251.369 94.9096 249.235 94.249 249.337 95.3161C249.388 95.6718 250.912 95.2653 250.302 96.688C249.896 97.6026 248.066 97.2977 247.914 95.9766C247.762 94.1982 249.946 93.3344 251.115 93.436C251.572 93.5376 252.894 93.3344 252.487 92.7754Z" fill="#EA6F68"/>
<path fill-rule="evenodd" clip-rule="evenodd" d="M215.8 66.7092C215.901 65.4389 217.121 63.762 217.477 62.5934C217.578 62.2885 217.426 61.6279 217.731 61.6279C217.883 61.6279 218.493 63.1015 218.493 63.1015C219.103 64.2194 219.865 65.134 220.729 65.9978C222.355 67.5222 223.676 67.827 225.2 66.9124C225.353 66.8108 225.657 66.201 225.81 66.201C226.216 66.0994 226.47 67.2681 226.521 67.4714C226.877 68.5892 227.029 70.266 226.42 71.079C226.013 71.5872 223.828 70.7742 223.371 70.6725C221.745 70.3677 215.597 69.0973 215.8 66.7092Z" fill="#77B8D8"/>
<path fill-rule="evenodd" clip-rule="evenodd" d="M236.887 56.2416C235.871 53.1928 233.635 54.9204 233.483 57.0545C233.229 60.9163 238.513 63.152 240.495 61.4752C241.715 60.459 241.613 58.7822 241.003 57.0037C240.952 56.8005 239.885 54.6156 239.428 55.0729C239.123 55.3777 240.241 56.8005 240.393 57.1054C240.952 58.6805 240.444 60.7639 238.971 60.7639C237.548 60.7639 233.991 58.02 235.363 56.1399C235.77 55.6318 237.091 56.8513 236.887 56.2416Z" fill="#FFE297"/>
<path fill-rule="evenodd" clip-rule="evenodd" d="M300.91 51.415C297.455 52.1263 298.827 58.5795 303.044 57.7665C305.483 57.3092 306.093 53.5999 303.298 53.3966C302.384 53.3458 300.91 55.0226 301.926 55.3783C302.231 55.48 302.536 53.9556 303.552 55.0735C304.213 55.7848 303.197 57.36 301.926 56.9535C300.25 56.3946 300.351 54.0064 300.961 52.9901C301.164 52.5328 301.571 51.2625 300.91 51.415Z" fill="#EA6F68"/>
<path fill-rule="evenodd" clip-rule="evenodd" d="M261.989 74.0766C260.871 73.4669 259.855 71.6376 258.94 70.8754C258.686 70.6722 258.025 70.5198 258.178 70.2149C258.229 70.0624 259.804 70.1133 259.855 70.1133C261.125 70.0116 262.294 69.7068 263.412 69.2494C265.495 68.3856 266.308 67.3186 266.105 65.5401C266.105 65.3369 265.647 64.8288 265.698 64.7271C265.8 64.3206 266.918 64.5747 267.172 64.6255C268.34 64.778 269.915 65.2861 270.373 66.2007C270.678 66.7596 269.052 68.4365 268.747 68.7921C267.781 70.1133 264.072 75.2453 261.989 74.0766Z" fill="#77B8D8"/>
<path fill-rule="evenodd" clip-rule="evenodd" d="M261.177 50.5505C257.976 50.2456 258.585 52.9894 260.516 53.9549C263.921 55.7841 268.138 51.8716 267.477 49.3818C267.071 47.8574 265.496 47.2477 263.616 47.0952C263.412 47.0952 260.973 47.146 261.228 47.705C261.38 48.1115 263.158 47.6542 263.463 47.705C265.14 47.8066 266.817 49.1785 266.207 50.4996C265.597 51.8208 261.685 53.9041 260.516 51.8716C260.16 51.3126 261.786 50.6013 261.177 50.5505Z" fill="#FFE297"/>
<path fill-rule="evenodd" clip-rule="evenodd" d="M91.0054 65.2861C87.5502 65.9974 88.9221 72.4506 93.1395 71.6376C95.5785 71.1803 96.1883 67.471 93.3936 67.2677C92.479 67.2169 91.0054 68.8937 92.0217 69.2494C92.3265 69.351 92.6314 67.8267 93.6476 68.9445C94.3082 69.6559 93.292 71.2311 92.0217 70.8246C90.3448 70.2657 90.4465 67.8775 91.0562 66.8612C91.3103 66.4039 91.666 65.1336 91.0054 65.2861Z" fill="#EA6F68"/>
<path fill-rule="evenodd" clip-rule="evenodd" d="M37.2456 98.6191C36.1277 98.0094 35.1115 96.1801 34.1969 95.4179C33.9428 95.2147 33.2822 95.0622 33.4347 94.7574C33.4855 94.6049 35.0607 94.6557 35.1115 94.6557C36.3818 94.5541 37.5505 94.2492 38.6683 93.7919C40.7517 92.9281 41.5647 91.8611 41.3614 90.0826C41.3614 89.8794 40.9041 89.3713 40.9549 89.2696C41.0565 88.8631 42.1744 89.1172 42.4285 89.168C43.5971 89.3204 45.1723 89.8286 45.6296 90.7432C45.9345 91.3021 44.3085 92.9789 44.0036 93.3346C43.0382 94.6557 39.3797 99.737 37.2456 98.6191Z" fill="#77B8D8"/>
<path fill-rule="evenodd" clip-rule="evenodd" d="M36.4326 75.0422C33.2314 74.7373 33.8411 77.4811 35.772 78.4466C39.1764 80.2758 43.3939 76.3633 42.7333 73.8735C42.3268 72.3491 40.7516 71.7394 38.8716 71.5869C38.6683 71.5869 36.2293 71.6377 36.4834 72.1967C36.6358 72.6032 38.4143 72.1458 38.7191 72.1967C40.3959 72.2983 42.0728 73.6702 41.463 74.9913C40.8533 76.3125 36.9407 78.3958 35.772 76.3633C35.4163 75.8551 37.0931 75.1438 36.4326 75.0422Z" fill="#FFE297"/>
<g clip-path="url(#clip1_506_13524)">
<path d="M208.004 39.7666C192.803 39.7666 180.479 52.0899 180.479 67.2915C180.479 76.6227 185.123 84.8695 192.225 89.8465V89.8477C201.68 96.4728 214.319 96.48 223.784 89.8477V89.8465C230.886 84.8695 235.529 76.6227 235.529 67.2915C235.529 52.09 223.206 39.7666 208.004 39.7666Z" fill="#CBE3FA"/>
<path d="M220.006 83.3153C215.259 81.6828 215.335 81.7293 214.858 81.4859C212.934 80.5028 211.787 78.5019 211.787 76.5836C215.547 75.078 218.205 71.3978 218.208 67.0935V66.6984C219.692 66.6984 220.936 65.4977 220.936 64.0171V54.3881C220.936 49.8512 217.259 46.1733 212.722 46.1733H205.619C202.225 46.1733 199.22 48.2448 197.983 51.3307C196.437 51.3307 195.191 52.5812 195.191 54.1152V64.1144C195.191 65.5161 196.315 66.6984 197.794 66.6984V67.0745C197.798 71.3776 200.447 75.0686 204.202 76.5801C204.202 78.7966 202.768 80.9851 200.435 81.7908L196.003 83.3153C193.743 84.0925 192.225 86.2185 192.225 88.6091V89.8478C201.68 96.4728 214.319 96.4801 223.784 89.8478C223.784 89.1231 223.784 89.3306 223.784 88.6091C223.784 86.2185 222.266 84.0926 220.006 83.3153Z" fill="#FFEBD2"/>
<path d="M223.784 88.6091V89.8477C214.329 96.4728 201.69 96.48 192.225 89.8477C192.225 89.1228 192.225 89.3309 192.225 88.6091C192.225 86.2185 193.743 84.0925 196.003 83.3153C200.897 81.6321 200.707 81.7183 201.186 81.4692C203.859 87.3871 212.175 87.3871 214.857 81.487C214.869 81.4751 215.046 81.609 215.574 81.7908L220.006 83.3153C222.266 84.0924 223.784 86.2185 223.784 88.6091Z" fill="#80AAFF"/>
<path d="M220.937 54.3881V64.0171C220.937 65.4977 219.692 66.6984 218.208 66.6984V60.3914C218.21 57.6531 215.999 55.4298 213.266 55.4274H202.752C200.02 55.425 197.797 57.6401 197.794 60.3783V66.6984C196.315 66.6984 195.191 65.5161 195.191 64.1144C195.191 62.7143 195.191 55.15 195.191 54.1152C195.191 52.5812 196.437 51.3307 197.983 51.3307C199.22 48.2448 202.226 46.1733 205.619 46.1733H212.722C217.259 46.1732 220.937 49.8512 220.937 54.3881Z" fill="#42434D"/>
<path d="M234.923 47.0134C235.724 47.8415 235.724 49.1548 234.923 49.983L234.745 50.168C234.287 50.6414 234.072 51.2987 234.165 51.9512L234.202 52.2063C234.362 53.3465 233.591 54.4095 232.455 54.6088L232.203 54.6527C231.554 54.7666 230.994 55.1735 230.685 55.7549L230.565 55.9815C230.024 56.9994 228.775 57.4052 227.741 56.8998L227.51 56.7871C226.918 56.4976 226.226 56.4976 225.633 56.7871L225.403 56.8998C224.369 57.4052 223.119 56.9994 222.578 55.9815L222.459 55.7549C222.15 55.1735 221.59 54.7666 220.941 54.6527L220.688 54.6088C219.553 54.4095 218.782 53.3465 218.942 52.2063L218.979 51.9512C219.071 51.2987 218.857 50.6414 218.399 50.168L218.221 49.983C217.42 49.1548 217.42 47.8415 218.221 47.0134L218.399 46.8283C218.857 46.3549 219.071 45.6964 218.979 45.0451L218.942 44.79C218.782 43.6499 219.553 42.5868 220.688 42.3875L220.941 42.3436C221.59 42.2297 222.15 41.8228 222.459 41.2414L222.578 41.0136C223.119 39.9969 224.369 39.5911 225.403 40.0965L225.633 40.2093C226.226 40.4987 226.918 40.4987 227.51 40.2093L227.741 40.0965C228.775 39.5911 230.024 39.9969 230.565 41.0136L230.685 41.2414C230.994 41.8228 231.554 42.2297 232.203 42.3436L232.455 42.3875C233.591 42.5868 234.362 43.6499 234.202 44.79L234.165 45.0451C234.072 45.6964 234.287 46.3549 234.745 46.8283L234.923 47.0134Z" fill="#9CBCFF"/>
<path d="M206.738 73.7222C208.581 74.7186 207.513 77.5162 205.483 76.9994C201.033 75.8669 197.796 71.8227 197.794 67.0752C197.794 67.0569 197.798 60.3552 197.806 60.1715C197.901 57.8957 201.324 57.9959 201.335 60.2737C201.34 61.3834 201.354 62.8124 201.354 64.7023C201.353 68.7135 203.599 72.0251 206.738 73.7222Z" fill="#FFF3E4"/>
<path d="M212.985 46.1777C214.533 46.2264 214.486 48.5523 212.937 48.564C211.926 48.5716 210.7 48.5592 209.178 48.5465C205.962 48.5195 203.094 50.408 201.75 53.2293C201.621 53.5022 201.363 53.6932 201.065 53.7442C199.748 53.9708 198.751 55.1157 198.751 56.4884V57.4636C198.154 58.2811 197.796 59.2883 197.794 60.3787V66.6987C196.315 66.6987 195.191 65.5166 195.191 64.1147V54.1156C195.191 52.5815 196.437 51.331 197.983 51.331C199.22 48.2452 202.226 46.1737 205.619 46.1737C213.392 46.1736 212.797 46.1718 212.985 46.1777Z" fill="#585966"/>
<path d="M211.388 79.1076C209.268 79.8553 206.848 79.8978 204.616 79.11C204.144 78.9432 203.885 78.4418 204.014 77.9576C204.211 77.2179 204.192 76.6753 204.203 76.5801C206.63 77.5578 209.364 77.5539 211.787 76.5836C211.792 76.6188 211.774 77.1861 211.984 77.9534C212.116 78.436 211.86 78.9412 211.388 79.1076Z" fill="#FFDFBA"/>
<path d="M202.7 83.7012C203.009 84.0161 202.892 84.5427 202.475 84.6861L199.562 85.6883C197.302 86.4654 195.784 88.5914 195.784 90.9821C195.784 91.4346 195.3 91.7198 194.902 91.504C193.977 91.0021 193.083 90.4489 192.225 89.8477V88.6091C192.225 86.2185 193.744 84.0968 196.003 83.3153C200.421 81.7866 200.566 81.7916 201.186 81.4692C201.58 82.3418 202.097 83.0857 202.7 83.7012Z" fill="#9CBCFF"/>
<path d="M234.923 49.983C234.871 50.064 233.993 50.7345 234.165 51.9512L234.202 52.2063C234.362 53.3464 233.591 54.4095 232.455 54.6088L232.203 54.6527C231.554 54.7666 230.994 55.1735 230.685 55.7549L230.565 55.9815C230.024 56.9994 228.775 57.4052 227.741 56.8998L227.51 56.7871C226.918 56.4972 226.226 56.4972 225.633 56.7871L225.403 56.8998C224.369 57.4052 223.119 56.9994 222.578 55.9815C222.524 55.914 222.156 54.866 220.941 54.6527C220.911 54.6394 220.655 54.6268 220.333 54.5126C219.897 54.358 220.112 53.7011 220.558 53.8259C226.824 55.5826 232.883 50.8436 232.782 44.4016C232.767 43.4891 234.144 43.4106 234.216 44.3202C234.228 44.4738 234.224 44.6311 234.202 44.79C234.206 44.874 233.886 45.9398 234.745 46.8283L234.923 47.0133C235.724 47.8415 235.724 49.1548 234.923 49.983Z" fill="#80AAFF"/>
<path d="M229.837 52.1301H223.469C222.939 52.1301 222.445 51.8451 222.178 51.3863C221.913 50.925 221.913 50.3549 222.176 49.896L225.362 44.3803C225.626 43.9204 226.12 43.6348 226.651 43.6348C227.181 43.6348 227.676 43.9197 227.943 44.3784L231.126 49.8952C231.393 50.3539 231.393 50.926 231.125 51.3864C230.863 51.8442 230.368 52.1301 229.837 52.1301Z" fill="#FFED90"/>
<path d="M231.125 51.3864C231.393 50.926 231.393 50.3539 231.126 49.8952L227.942 44.3784C227.675 43.9197 227.18 43.6348 226.651 43.6348V52.1302H229.836C230.368 52.1302 230.862 51.8442 231.125 51.3864Z" fill="#FFBE00"/>
<path d="M226.652 50.3524C226.39 50.3524 226.177 50.1401 226.177 49.8781V49.6242C226.177 49.3622 226.39 49.1499 226.652 49.1499C226.913 49.1499 227.126 49.3622 227.126 49.6242V49.8781C227.126 50.1401 226.913 50.3524 226.652 50.3524Z" fill="#002F48"/>
<path d="M226.652 48.357C226.39 48.357 226.177 48.1447 226.177 47.8828V46.8302C226.177 46.5683 226.39 46.356 226.652 46.356C226.913 46.356 227.126 46.5683 227.126 46.8302V47.8828C227.126 48.1447 226.913 48.357 226.652 48.357Z" fill="#002F48"/>
<path d="M227.125 49.8786V49.6246C227.125 49.3627 226.912 49.1504 226.65 49.1504V50.3529C226.912 50.3529 227.125 50.1405 227.125 49.8786Z" fill="#001824"/>
<path d="M227.125 47.8832V46.8307C227.125 46.5688 226.912 46.3564 226.65 46.3564V48.3575C226.912 48.3575 227.125 48.1452 227.125 47.8832Z" fill="#001824"/>
</g>
</g>
<defs>
<clipPath id="clip0_506_13524">
<rect width="416" height="113.176" fill="white"/>
</clipPath>
<clipPath id="clip1_506_13524">
<rect width="55.0588" height="55.0588" fill="white" transform="translate(180.471 39.7642)"/>
</clipPath>
</defs>
</svg>
