<svg width="1328" height="322" viewBox="0 0 1328 322" fill="none" xmlns="http://www.w3.org/2000/svg">
<g clip-path="url(#clip0_185_6656)">
<rect width="1328" height="322" rx="12" fill="#E80D8B"/>
<path fill-rule="evenodd" clip-rule="evenodd" d="M129.755 0C128.029 62.9547 72.1505 113.5 3.4705 113.5C-0.367052 113.5 -4.16463 113.342 -7.91504 113.033V8C-7.91504 3.58172 -4.03125 0 0.75966 0H129.755ZM1346 90.4608C1339.46 89.4994 1332.77 89 1325.94 89C1256.17 89 1199.62 141.159 1199.62 205.5C1199.62 269.841 1256.17 322 1325.94 322C1332.77 322 1339.46 321.501 1346 320.539V90.4608ZM1099.87 322C1014.79 180.094 850.855 84 662.581 84C474.308 84 310.371 180.094 225.293 322H1099.87Z" fill="white" fill-opacity="0.15"/>
</g>
<defs>
<clipPath id="clip0_185_6656">
<rect width="1328" height="322" rx="12" fill="white"/>
</clipPath>
</defs>
</svg>
