<svg width="375" height="422" viewBox="0 0 375 422" fill="none" xmlns="http://www.w3.org/2000/svg">
<g clip-path="url(#clip0_188_36713)">
<rect width="375" height="422" fill="#E80D8B"/>
<path fill-rule="evenodd" clip-rule="evenodd" d="M82.1699 0C80.4447 62.9547 24.5658 113.5 -44.1142 113.5C-47.9518 113.5 -51.7493 113.342 -55.4998 113.033V8C-55.4998 3.58172 -51.616 0 -46.8251 0H82.1699ZM452 84C445.462 83.0386 438.771 82.5392 431.94 82.5392C362.174 82.5392 305.615 134.698 305.615 199.039C305.615 263.38 362.174 315.539 431.94 315.539C438.771 315.539 445.462 315.04 452 314.078V84ZM624 590C538.918 448.094 374.982 352 186.708 352C-1.56514 352 -165.502 448.094 -250.58 590H624Z" fill="white" fill-opacity="0.15"/>
</g>
<defs>
<clipPath id="clip0_188_36713">
<rect width="375" height="422" fill="white"/>
</clipPath>
</defs>
</svg>
