<svg width="16" height="10" viewBox="0 0 16 10" fill="none" xmlns="http://www.w3.org/2000/svg">
<path fill-rule="evenodd" clip-rule="evenodd" d="M10.4629 5.17794L14.9328 1.58594V8.47044L10.4629 5.17794ZM6.36168 5.84375L7.65235 6.88125C7.85235 7.04175 8.14675 7.04175 8.34675 6.88125L9.63742 5.84375L13.9238 9.00175H2.07422L6.36168 5.84375ZM7.99968 5.8415L1.97461 1H14.0247L7.99968 5.8415ZM1.06641 1.58594L5.53627 5.17744L1.06641 8.46994V1.58594ZM16 9.5V0.5C16 0.22 15.7232 0 15.4667 0H0.533333C0.263467 0 0 0.217 0 0.5V9.5C0 9.7625 0.2544 10 0.533333 10H15.4667C15.7664 10 16 9.7515 16 9.5Z" fill="black"/>
</svg>
