<svg width="100%" height="100%" viewBox="0 0 1440 640" fill="none" xmlns="http://www.w3.org/2000/svg">
<g opacity="0.15" clip-path="url(#clip0_4513_38408)">
<path d="M958.228 418.687C956.075 416.473 941.216 436.46 916.513 438.151C892.332 439.781 884.549 422.038 859.999 425.697C855.046 426.435 845.786 431.571 826.62 440.519C807.854 449.282 795.641 459.245 793.242 460.905C777.798 471.668 751.987 486.273 706.487 503.462C772.476 497.312 838.495 491.132 904.484 484.982C950.138 434.922 960.013 420.532 958.228 418.687Z" fill="#1467E1"/>
<path d="M894.424 500.884C893.039 487.077 846.463 476.838 808.223 478.652C778.259 480.066 771.614 488.031 744.265 492.551C687.136 501.96 667.97 475.147 613.58 473.086C552.175 470.78 539.008 503.528 482.895 511.984C442.502 518.073 381.158 511.4 296.588 445.289C239.121 471.241 181.654 497.163 124.188 523.115C223.37 537.936 322.553 552.758 421.705 567.579C566.08 589.995 676.615 575.912 749.833 559.246C758.386 557.309 896.885 525.268 894.424 500.884Z" fill="#3A95EE"/>
<path d="M819.145 480.037C814.13 481.021 807.854 479.084 804.686 474.164C801.855 469.767 802.101 463.925 804.224 460.173C805.978 457.098 808.1 456.883 808.746 453.839C809.454 450.456 807.116 449.103 807.854 445.721C808.347 443.415 810.223 440.555 813.269 439.848C816.407 439.11 819.821 440.893 821.083 443.353C822.682 446.459 819.791 448.704 820.96 452.055C822.529 456.483 828.897 455.253 830.896 459.281C833.881 465.216 828.866 478.131 819.145 480.037Z" fill="#4A76E9"/>
<path d="M817.176 508.172C816.653 508.172 816.253 507.772 816.253 507.249V468.782C816.253 468.259 816.653 467.859 817.176 467.859C817.699 467.859 818.099 468.259 818.099 468.782V507.249C818.099 507.772 817.668 508.172 817.176 508.172Z" fill="#1D93B8"/>
<path d="M786.566 490.707C780.105 491.045 774.968 485.695 773.122 481.021C769.03 470.72 777.921 456.391 785.828 456.391C793.703 456.391 802.409 470.689 798.533 481.021C796.933 485.203 792.657 490.369 786.566 490.707Z" fill="#FFFEFF"/>
<path d="M785.458 525.575C784.935 525.575 784.535 525.176 784.535 524.653V475.485C784.535 474.962 784.935 474.562 785.458 474.562C785.981 474.562 786.381 474.962 786.381 475.485V524.653C786.381 525.145 785.95 525.575 785.458 525.575Z" fill="#1D93B8"/>
<path d="M587.738 501.185C581.554 501.493 576.694 496.389 574.91 491.93C571.002 482.09 579.493 468.438 587.031 468.438C594.537 468.438 602.843 482.059 599.151 491.93C597.613 495.958 593.522 500.878 587.738 501.185Z" fill="#D0F7F7"/>
<path d="M586.723 528.366C586.2 528.366 585.8 527.966 585.8 527.444V494.204C585.8 493.681 586.2 493.281 586.723 493.281C587.246 493.281 587.646 493.681 587.646 494.204V527.444C587.646 527.966 587.246 528.366 586.723 528.366Z" fill="#1D93B8"/>
<path d="M619.702 481.324C613.765 481.632 609.089 476.712 607.397 472.438C603.643 462.998 611.796 449.898 619.025 449.898C626.224 449.898 634.192 462.967 630.654 472.438C629.177 476.281 625.27 481.017 619.702 481.324Z" fill="#4A76E9"/>
<path d="M619.24 518.715C618.717 518.715 618.317 518.316 618.317 517.793V459.461C618.317 458.939 618.717 458.539 619.24 458.539C619.763 458.539 620.163 458.939 620.163 459.461V517.793C620.163 518.316 619.733 518.715 619.24 518.715Z" fill="#1D93B8"/>
<path d="M757.002 517.703C752.387 517.949 748.757 514.137 747.434 510.785C744.512 503.436 750.849 493.258 756.479 493.258C762.078 493.258 768.292 503.436 765.523 510.785C764.385 513.798 761.34 517.457 757.002 517.703Z" fill="#FFFEFF"/>
<path d="M756.202 542.798C755.679 542.798 755.279 542.399 755.279 541.876V506.883C755.279 506.361 755.679 505.961 756.202 505.961C756.725 505.961 757.125 506.361 757.125 506.883V541.876C757.125 542.368 756.725 542.798 756.202 542.798Z" fill="#1D93B8"/>
<path d="M1476.97 139.766H1410V459.004H1476.97V139.766Z" fill="#3A95EE"/>
<path d="M1476.97 161.688H1420.79V167.807H1476.97V161.688Z" fill="#157DB7"/>
<path d="M1476.97 175.586H1420.79V181.705H1476.97V175.586Z" fill="#157DB7"/>
<path d="M1476.97 189.484H1420.79V195.603H1476.97V189.484Z" fill="#157DB7"/>
<path d="M1476.97 203.383H1420.79V209.502H1476.97V203.383Z" fill="#157DB7"/>
<path d="M1476.97 217.281H1420.79V223.4H1476.97V217.281Z" fill="#157DB7"/>
<path d="M1476.97 231.18H1420.79V237.299H1476.97V231.18Z" fill="#157DB7"/>
<path d="M1476.97 245.078H1420.79V251.197H1476.97V245.078Z" fill="#157DB7"/>
<path d="M1476.97 258.977H1420.79V265.096H1476.97V258.977Z" fill="#157DB7"/>
<path d="M1476.97 272.883H1420.79V279.002H1476.97V272.883Z" fill="#157DB7"/>
<path d="M1476.97 286.781H1420.79V292.9H1476.97V286.781Z" fill="#157DB7"/>
<path d="M1476.97 300.68H1420.79V306.799H1476.97V300.68Z" fill="#157DB7"/>
<path d="M1476.97 314.578H1420.79V320.697H1476.97V314.578Z" fill="#157DB7"/>
<path d="M1476.97 328.477H1420.79V334.596H1476.97V328.477Z" fill="#157DB7"/>
<path d="M1476.97 342.375H1420.79V348.494H1476.97V342.375Z" fill="#157DB7"/>
<path d="M1476.97 356.273H1420.79V362.393H1476.97V356.273Z" fill="#157DB7"/>
<path d="M1476.97 370.172H1420.79V376.291H1476.97V370.172Z" fill="#157DB7"/>
<path d="M1476.97 384.07H1420.79V390.189H1476.97V384.07Z" fill="#157DB7"/>
<path d="M1378.99 57.3203H1325.86V424.497H1378.99V57.3203Z" fill="#FFFEFF"/>
<path d="M1410.03 57.3203H1378.99V431.354H1410.03V57.3203Z" fill="#1266E3"/>
<path d="M1338.38 70.5156H1334.66V89.3649H1338.38V70.5156Z" fill="#34B0DA"/>
<path d="M1347.67 70.5156H1343.95V89.3649H1347.67V70.5156Z" fill="#34B0DA"/>
<path d="M1356.93 70.5156H1353.21V89.3649H1356.93V70.5156Z" fill="#34B0DA"/>
<path d="M1366.19 70.5156H1362.47V89.3649H1366.19V70.5156Z" fill="#34B0DA"/>
<path d="M1338.38 102.953H1334.66V121.802H1338.38V102.953Z" fill="#34B0DA"/>
<path d="M1347.67 102.953H1343.95V121.802H1347.67V102.953Z" fill="#34B0DA"/>
<path d="M1356.93 102.953H1353.21V121.802H1356.93V102.953Z" fill="#34B0DA"/>
<path d="M1366.19 102.953H1362.47V121.802H1366.19V102.953Z" fill="#34B0DA"/>
<path d="M1338.38 135.359H1334.66V154.209H1338.38V135.359Z" fill="#34B0DA"/>
<path d="M1347.67 135.359H1343.95V154.209H1347.67V135.359Z" fill="#34B0DA"/>
<path d="M1356.93 135.359H1353.21V154.209H1356.93V135.359Z" fill="#34B0DA"/>
<path d="M1366.19 135.359H1362.47V154.209H1366.19V135.359Z" fill="#34B0DA"/>
<path d="M1338.38 167.805H1334.66V186.654H1338.38V167.805Z" fill="#34B0DA"/>
<path d="M1347.67 167.805H1343.95V186.654H1347.67V167.805Z" fill="#34B0DA"/>
<path d="M1356.93 167.805H1353.21V186.654H1356.93V167.805Z" fill="#34B0DA"/>
<path d="M1366.19 167.805H1362.47V186.654H1366.19V167.805Z" fill="#34B0DA"/>
<path d="M1338.38 200.242H1334.66V219.091H1338.38V200.242Z" fill="#34B0DA"/>
<path d="M1347.67 200.242H1343.95V219.091H1347.67V200.242Z" fill="#34B0DA"/>
<path d="M1356.93 200.242H1353.21V219.091H1356.93V200.242Z" fill="#34B0DA"/>
<path d="M1366.19 200.242H1362.47V219.091H1366.19V200.242Z" fill="#34B0DA"/>
<path d="M1338.38 232.656H1334.66V251.506H1338.38V232.656Z" fill="#34B0DA"/>
<path d="M1347.67 232.656H1343.95V251.506H1347.67V232.656Z" fill="#34B0DA"/>
<path d="M1356.93 232.656H1353.21V251.506H1356.93V232.656Z" fill="#34B0DA"/>
<path d="M1366.19 232.656H1362.47V251.506H1366.19V232.656Z" fill="#34B0DA"/>
<path d="M1338.38 265.094H1334.66V283.943H1338.38V265.094Z" fill="#34B0DA"/>
<path d="M1347.67 265.094H1343.95V283.943H1347.67V265.094Z" fill="#34B0DA"/>
<path d="M1356.93 265.094H1353.21V283.943H1356.93V265.094Z" fill="#34B0DA"/>
<path d="M1366.19 265.094H1362.47V283.943H1366.19V265.094Z" fill="#34B0DA"/>
<path d="M1338.38 297.531H1334.66V316.381H1338.38V297.531Z" fill="#34B0DA"/>
<path d="M1347.67 297.531H1343.95V316.381H1347.67V297.531Z" fill="#34B0DA"/>
<path d="M1356.93 297.531H1353.21V316.381H1356.93V297.531Z" fill="#34B0DA"/>
<path d="M1366.19 297.531H1362.47V316.381H1366.19V297.531Z" fill="#34B0DA"/>
<path d="M1338.38 329.977H1334.66V348.826H1338.38V329.977Z" fill="#34B0DA"/>
<path d="M1347.67 329.977H1343.95V348.826H1347.67V329.977Z" fill="#34B0DA"/>
<path d="M1356.93 329.977H1353.21V348.826H1356.93V329.977Z" fill="#34B0DA"/>
<path d="M1366.19 329.977H1362.47V348.826H1366.19V329.977Z" fill="#34B0DA"/>
<path d="M1338.38 362.383H1334.66V381.232H1338.38V362.383Z" fill="#34B0DA"/>
<path d="M1347.67 362.383H1343.95V381.232H1347.67V362.383Z" fill="#34B0DA"/>
<path d="M1356.93 362.383H1353.21V381.232H1356.93V362.383Z" fill="#34B0DA"/>
<path d="M1366.19 362.383H1362.47V381.232H1366.19V362.383Z" fill="#34B0DA"/>
<path d="M999.697 244.344H950.383V411.896H999.697V244.344Z" fill="#FFFEFF"/>
<path d="M1015.48 244.344H999.697V406.976H1015.48V244.344Z" fill="#1266E3"/>
<path d="M961.827 253.047H959.95V406.947H961.827V253.047Z" fill="#34B0DA"/>
<path d="M975.732 253.047H973.855V406.947H975.732V253.047Z" fill="#34B0DA"/>
<path d="M989.637 253.047H987.761V406.947H989.637V253.047Z" fill="#34B0DA"/>
<path d="M236.722 150.281H152.306V512.261H236.722V150.281Z" fill="#002A9A"/>
<path d="M313.724 542.149H236.722V150.281L313.724 236.01V542.149Z" fill="#FEFFFF"/>
<path d="M261.272 241.148H248.443V248.897H261.272V241.148Z" fill="#157DB7"/>
<path d="M282.653 241.148H269.824V248.897H282.653V241.148Z" fill="#157DB7"/>
<path d="M304.065 241.148H291.236V248.897H304.065V241.148Z" fill="#157DB7"/>
<path d="M261.272 259.656H248.443V267.405H261.272V259.656Z" fill="#157DB7"/>
<path d="M282.653 259.656H269.824V267.405H282.653V259.656Z" fill="#157DB7"/>
<path d="M304.065 259.656H291.236V267.405H304.065V259.656Z" fill="#157DB7"/>
<path d="M261.272 278.195H248.443V285.944H261.272V278.195Z" fill="#157DB7"/>
<path d="M282.653 278.195H269.824V285.944H282.653V278.195Z" fill="#157DB7"/>
<path d="M304.065 278.195H291.236V285.944H304.065V278.195Z" fill="#157DB7"/>
<path d="M261.272 296.742H248.443V304.491H261.272V296.742Z" fill="#157DB7"/>
<path d="M282.653 296.742H269.824V304.491H282.653V296.742Z" fill="#157DB7"/>
<path d="M304.065 296.742H291.236V304.491H304.065V296.742Z" fill="#157DB7"/>
<path d="M261.272 315.25H248.443V322.999H261.272V315.25Z" fill="#157DB7"/>
<path d="M282.653 315.25H269.824V322.999H282.653V315.25Z" fill="#157DB7"/>
<path d="M304.065 315.25H291.236V322.999H304.065V315.25Z" fill="#157DB7"/>
<path d="M261.272 333.789H248.443V341.538H261.272V333.789Z" fill="#157DB7"/>
<path d="M282.653 333.789H269.824V341.538H282.653V333.789Z" fill="#157DB7"/>
<path d="M304.065 333.789H291.236V341.538H304.065V333.789Z" fill="#157DB7"/>
<path d="M261.272 352.336H248.443V360.085H261.272V352.336Z" fill="#157DB7"/>
<path d="M282.653 352.336H269.824V360.085H282.653V352.336Z" fill="#157DB7"/>
<path d="M304.065 352.336H291.236V360.085H304.065V352.336Z" fill="#157DB7"/>
<path d="M261.272 370.844H248.443V378.593H261.272V370.844Z" fill="#157DB7"/>
<path d="M282.653 370.844H269.824V378.593H282.653V370.844Z" fill="#157DB7"/>
<path d="M304.065 370.844H291.236V378.593H304.065V370.844Z" fill="#157DB7"/>
<path d="M261.272 389.391H248.443V397.139H261.272V389.391Z" fill="#157DB7"/>
<path d="M282.653 389.391H269.824V397.139H282.653V389.391Z" fill="#157DB7"/>
<path d="M304.065 389.391H291.236V397.139H304.065V389.391Z" fill="#157DB7"/>
<path d="M261.272 407.93H248.443V415.679H261.272V407.93Z" fill="#157DB7"/>
<path d="M282.653 407.93H269.824V415.679H282.653V407.93Z" fill="#157DB7"/>
<path d="M304.065 407.93H291.236V415.679H304.065V407.93Z" fill="#157DB7"/>
<path d="M261.272 426.469H248.443V434.218H261.272V426.469Z" fill="#157DB7"/>
<path d="M282.653 426.469H269.824V434.218H282.653V426.469Z" fill="#157DB7"/>
<path d="M304.065 426.469H291.236V434.218H304.065V426.469Z" fill="#157DB7"/>
<path d="M261.272 444.984H248.443V452.733H261.272V444.984Z" fill="#157DB7"/>
<path d="M282.653 444.984H269.824V452.733H282.653V444.984Z" fill="#157DB7"/>
<path d="M304.065 444.984H291.236V452.733H304.065V444.984Z" fill="#157DB7"/>
<path d="M261.272 463.523H248.443V471.272H261.272V463.523Z" fill="#157DB7"/>
<path d="M282.653 463.523H269.824V471.272H282.653V463.523Z" fill="#157DB7"/>
<path d="M304.065 463.523H291.236V471.272H304.065V463.523Z" fill="#157DB7"/>
<path d="M261.272 486.68H248.443V494.429H261.272V486.68Z" fill="#157DB7"/>
<path d="M282.653 486.68H269.824V494.429H282.653V486.68Z" fill="#157DB7"/>
<path d="M304.065 486.68H291.236V494.429H304.065V486.68Z" fill="#157DB7"/>
<path d="M123.972 111.596V35.9532H40.2329V69.5621H15.5295V111.596H-15.2959V461.83H130.464V111.596H123.972Z" fill="#1266E3"/>
<path d="M148.676 111.596V69.5621H123.973V35.9532H89.3018V69.5621H64.5984V111.596H33.7422V465.397H179.502V111.596H148.676Z" fill="#34B0DA"/>
<path d="M72.5041 412.906H62.5674V138.992H72.5041V412.906ZM64.1056 411.369H70.9659V140.53H64.1056V411.369Z" fill="white"/>
<path d="M97.0227 412.906H87.0859V138.992H97.0227V412.906ZM88.6241 411.369H95.4845V140.53H88.6241V411.369Z" fill="white"/>
<path d="M125.049 412.906H115.112V138.992H125.049V412.906ZM116.651 411.369H123.511V140.53H116.651V411.369Z" fill="white"/>
<path d="M153.075 412.906H143.139V138.992H153.075V412.906ZM144.677 411.369H151.537V140.53H144.677V411.369Z" fill="white"/>
<path d="M702.549 581.476C716.393 570.652 736.174 555.862 760.939 539.78C760.939 539.78 797.978 515.734 834.957 497.07C923.526 452.36 1013.88 492.057 1158.56 450.853C1245.41 426.131 1293.37 392.522 1347.64 411.956C1358.84 415.953 1382.65 430.713 1417.16 431.42C1442.36 431.912 1463.16 425.239 1476.97 419.397C1476.97 458.633 1476.97 497.838 1476.97 537.074C1289.22 574.711 1074.08 598.173 837.233 589.686C791.18 588.026 746.264 585.228 702.549 581.476Z" fill="#5BBDFE"/>
<path d="M390.264 489.692C405.031 486.863 425.581 484.28 450.07 485.51C466.128 486.34 490.616 487.785 519.596 499.408C533.101 504.82 552.759 514.537 573.125 532.064C551.406 538.245 525.995 543.903 497.354 547.347C453.946 552.574 415.799 551.313 385.373 548.023C387.004 528.59 388.634 509.125 390.264 489.692Z" fill="#1467E1"/>
<path d="M407.493 363.773H350.149V556.141H407.493V363.773Z" fill="#3A95EE"/>
<path d="M313.725 519.272H350.149V363.773L313.725 364.235V519.272Z" fill="#1469DE"/>
<path d="M365.1 396.305H362.362V404.361H365.1V396.305Z" fill="#FEFFFF"/>
<path d="M375.622 396.305H372.884V404.361H375.622V396.305Z" fill="#FEFFFF"/>
<path d="M386.112 396.305H383.374V404.361H386.112V396.305Z" fill="#FEFFFF"/>
<path d="M396.633 396.305H393.895V404.361H396.633V396.305Z" fill="#FEFFFF"/>
<path d="M365.1 413.805H362.362V421.861H365.1V413.805Z" fill="#FEFFFF"/>
<path d="M375.622 413.805H372.884V421.861H375.622V413.805Z" fill="#FEFFFF"/>
<path d="M386.112 413.805H383.374V421.861H386.112V413.805Z" fill="#FEFFFF"/>
<path d="M396.633 413.805H393.895V421.861H396.633V413.805Z" fill="#FEFFFF"/>
<path d="M365.1 431.328H362.362V439.384H365.1V431.328Z" fill="#FEFFFF"/>
<path d="M375.622 431.328H372.884V439.384H375.622V431.328Z" fill="#FEFFFF"/>
<path d="M386.112 431.328H383.374V439.384H386.112V431.328Z" fill="#FEFFFF"/>
<path d="M396.633 431.328H393.895V439.384H396.633V431.328Z" fill="#FEFFFF"/>
<path d="M365.1 448.828H362.362V456.884H365.1V448.828Z" fill="#FEFFFF"/>
<path d="M375.622 448.828H372.884V456.884H375.622V448.828Z" fill="#FEFFFF"/>
<path d="M386.112 448.828H383.374V456.884H386.112V448.828Z" fill="#FEFFFF"/>
<path d="M396.633 448.828H393.895V456.884H396.633V448.828Z" fill="#FEFFFF"/>
<path d="M365.1 466.351H362.362V474.408H365.1V466.351Z" fill="#FEFFFF"/>
<path d="M375.622 466.351H372.884V474.408H375.622V466.351Z" fill="#FEFFFF"/>
<path d="M386.112 466.351H383.374V474.408H386.112V466.351Z" fill="#FEFFFF"/>
<path d="M396.633 466.351H393.895V474.408H396.633V466.351Z" fill="#FEFFFF"/>
<path d="M365.1 483.852H362.362V491.908H365.1V483.852Z" fill="#FEFFFF"/>
<path d="M375.622 483.852H372.884V491.908H375.622V483.852Z" fill="#FEFFFF"/>
<path d="M386.112 483.852H383.374V491.908H386.112V483.852Z" fill="#FEFFFF"/>
<path d="M396.633 483.852H393.895V491.908H396.633V483.852Z" fill="#FEFFFF"/>
<path d="M365.1 501.375H362.362V509.431H365.1V501.375Z" fill="#FEFFFF"/>
<path d="M375.622 501.375H372.884V509.431H375.622V501.375Z" fill="#FEFFFF"/>
<path d="M386.112 501.375H383.374V509.431H386.112V501.375Z" fill="#FEFFFF"/>
<path d="M396.633 501.375H393.895V509.431H396.633V501.375Z" fill="#FEFFFF"/>
<path d="M-4.99017 396.087C13.099 390.614 19.7133 392.889 22.3282 396.087C27.4965 402.391 19.1288 414.475 24.4201 419.211C29.7423 423.946 40.6635 413.891 49.6466 419.211C56.23 423.116 53.8612 430.588 60.1678 433.909C68.2587 438.183 76.6573 428.097 85.3942 429.696C92.5622 431.018 100.745 440.428 106.406 473.821C64.3825 476.619 22.3282 479.418 -19.6953 482.216C-14.8039 453.496 -9.88163 424.776 -4.99017 396.087Z" fill="#87D5FB"/>
<path d="M-303 470.344C-231.351 473.788 -156.502 479.169 -78.7926 486.979C17.0985 496.604 108.037 508.965 193.714 523.109C28.2043 561.884 -137.306 600.659 -302.815 639.465C-302.877 607.424 -302.908 575.352 -302.969 543.312C-303 518.989 -303 494.666 -303 470.344Z" fill="#1669E1"/>
<path d="M-303 569.881C-292.479 558.965 -274.697 542.79 -249.225 529.507C-232.397 520.743 -211.816 513.486 -130.568 499.864C-77.9927 491.039 -81.5921 494.453 -56.3965 488.733C12.5762 473.082 17.3139 452.511 62.26 444.27C116.435 434.307 163.35 454.325 218.018 477.633C277.3 502.909 278.13 517.515 325.568 533.227C373.991 549.279 413.461 547.403 466.467 544.359C599.613 536.702 626.993 500.941 692.674 518.406C721.069 525.94 762.6 545.035 805.424 600.968C688.767 612.468 571.987 621.724 455.054 628.765C203.066 643.925 -49.5361 648.66 -302.785 643.033C-302.846 618.618 -302.908 594.265 -303 569.881Z" fill="#5EC0FF"/>
<path d="M1325.86 266.758H1295.74V424.501H1325.86V266.758Z" fill="#1266E3"/>
<path d="M1021.02 406.945H842.863V493.597H1021.02V406.945Z" fill="#AFE5FF"/>
<path d="M1020.99 411.281H973.518V493.628H1020.99V411.281Z" fill="#34B0DA"/>
<path d="M973.548 406.945H842.863V416.816H973.548V406.945Z" fill="#1469E8"/>
<path d="M1020.99 406.945H973.518V416.816H1020.99V406.945Z" fill="#4A76E9"/>
<path d="M1257.5 371.548C1266.88 364.014 1276.94 365.337 1280.63 371.486C1283.1 375.576 1282.36 381.111 1281.87 383.571C1282.48 383.202 1288.23 379.85 1294.26 383.571C1300.91 387.691 1301.68 396.608 1301.71 397.162C1305.71 386.83 1314.66 383.079 1320.32 386.584C1325.98 390.09 1326.5 399.714 1326.53 400.175C1332.69 393.81 1341.18 392.642 1347.61 397.162C1355.05 402.359 1356.16 412.598 1356.28 413.767C1357.73 406.048 1363.7 400.852 1369.91 401.682C1376.53 402.543 1381.57 409.923 1381.08 418.287C1386.71 418.809 1391.32 423.883 1392.25 430.371C1393.26 437.505 1389.57 444.793 1383.57 446.976C1390.12 446.238 1396.15 450.02 1398.46 456.047C1401.6 464.195 1397.75 476.126 1388.52 480.216C1346.78 484.244 1305 488.272 1263.25 492.3C1261.38 452.019 1259.44 411.768 1257.5 371.548Z" fill="#87D5FB"/>
<path d="M1256.79 226.656H1169.64V515.176H1256.79V226.656Z" fill="#34B0DA"/>
<path d="M1295.74 226.656H1256.79V495.312H1295.74V226.656Z" fill="#002A9A"/>
<path d="M1187.08 257.68H1184V265.09H1187.08V257.68Z" fill="#FEFFFF"/>
<path d="M1196.37 257.68H1193.29V265.09H1196.37V257.68Z" fill="#FEFFFF"/>
<path d="M1205.63 257.68H1202.55V265.09H1205.63V257.68Z" fill="#FEFFFF"/>
<path d="M1214.89 257.68H1211.81V265.09H1214.89V257.68Z" fill="#FEFFFF"/>
<path d="M1224.18 257.68H1221.11V265.09H1224.18V257.68Z" fill="#FEFFFF"/>
<path d="M1233.44 257.68H1230.37V265.09H1233.44V257.68Z" fill="#FEFFFF"/>
<path d="M1242.7 257.68H1239.62V265.09H1242.7V257.68Z" fill="#FEFFFF"/>
<path d="M1187.08 276.227H1184V283.637H1187.08V276.227Z" fill="#FEFFFF"/>
<path d="M1196.37 276.227H1193.29V283.637H1196.37V276.227Z" fill="#FEFFFF"/>
<path d="M1205.63 276.227H1202.55V283.637H1205.63V276.227Z" fill="#FEFFFF"/>
<path d="M1214.89 276.227H1211.81V283.637H1214.89V276.227Z" fill="#FEFFFF"/>
<path d="M1224.18 276.227H1221.11V283.637H1224.18V276.227Z" fill="#FEFFFF"/>
<path d="M1233.44 276.227H1230.37V283.637H1233.44V276.227Z" fill="#FEFFFF"/>
<path d="M1242.7 276.227H1239.62V283.637H1242.7V276.227Z" fill="#FEFFFF"/>
<path d="M1187.08 294.766H1184V302.176H1187.08V294.766Z" fill="#FEFFFF"/>
<path d="M1196.37 294.766H1193.3V302.176H1196.37V294.766Z" fill="#FEFFFF"/>
<path d="M1205.63 294.766H1202.56V302.176H1205.63V294.766Z" fill="#FEFFFF"/>
<path d="M1214.89 294.766H1211.82V302.176H1214.89V294.766Z" fill="#FEFFFF"/>
<path d="M1224.18 294.766H1221.11V302.176H1224.18V294.766Z" fill="#FEFFFF"/>
<path d="M1233.44 294.766H1230.37V302.176H1233.44V294.766Z" fill="#FEFFFF"/>
<path d="M1242.7 294.766H1239.63V302.176H1242.7V294.766Z" fill="#FEFFFF"/>
<path d="M1187.08 313.273H1184V320.684H1187.08V313.273Z" fill="#FEFFFF"/>
<path d="M1196.37 313.273H1193.29V320.684H1196.37V313.273Z" fill="#FEFFFF"/>
<path d="M1205.63 313.273H1202.55V320.684H1205.63V313.273Z" fill="#FEFFFF"/>
<path d="M1214.89 313.273H1211.81V320.684H1214.89V313.273Z" fill="#FEFFFF"/>
<path d="M1224.18 313.273H1221.11V320.684H1224.18V313.273Z" fill="#FEFFFF"/>
<path d="M1233.44 313.273H1230.37V320.684H1233.44V313.273Z" fill="#FEFFFF"/>
<path d="M1242.7 313.273H1239.62V320.684H1242.7V313.273Z" fill="#FEFFFF"/>
<path d="M1187.08 331.82H1184V339.231H1187.08V331.82Z" fill="#FEFFFF"/>
<path d="M1196.37 331.82H1193.29V339.231H1196.37V331.82Z" fill="#FEFFFF"/>
<path d="M1205.63 331.82H1202.55V339.231H1205.63V331.82Z" fill="#FEFFFF"/>
<path d="M1214.89 331.82H1211.81V339.231H1214.89V331.82Z" fill="#FEFFFF"/>
<path d="M1224.18 331.82H1221.11V339.231H1224.18V331.82Z" fill="#FEFFFF"/>
<path d="M1233.44 331.82H1230.37V339.231H1233.44V331.82Z" fill="#FEFFFF"/>
<path d="M1242.7 331.82H1239.62V339.231H1242.7V331.82Z" fill="#FEFFFF"/>
<path d="M1187.08 350.359H1184V357.77H1187.08V350.359Z" fill="#FEFFFF"/>
<path d="M1196.37 350.359H1193.29V357.77H1196.37V350.359Z" fill="#FEFFFF"/>
<path d="M1205.63 350.359H1202.55V357.77H1205.63V350.359Z" fill="#FEFFFF"/>
<path d="M1214.89 350.359H1211.81V357.77H1214.89V350.359Z" fill="#FEFFFF"/>
<path d="M1224.18 350.359H1221.11V357.77H1224.18V350.359Z" fill="#FEFFFF"/>
<path d="M1233.44 350.359H1230.37V357.77H1233.44V350.359Z" fill="#FEFFFF"/>
<path d="M1242.7 350.359H1239.62V357.77H1242.7V350.359Z" fill="#FEFFFF"/>
<path d="M1187.08 368.875H1184V376.286H1187.08V368.875Z" fill="#FEFFFF"/>
<path d="M1196.37 368.875H1193.29V376.286H1196.37V368.875Z" fill="#FEFFFF"/>
<path d="M1205.63 368.875H1202.55V376.286H1205.63V368.875Z" fill="#FEFFFF"/>
<path d="M1214.89 368.875H1211.81V376.286H1214.89V368.875Z" fill="#FEFFFF"/>
<path d="M1224.18 368.875H1221.11V376.286H1224.18V368.875Z" fill="#FEFFFF"/>
<path d="M1233.44 368.875H1230.37V376.286H1233.44V368.875Z" fill="#FEFFFF"/>
<path d="M1242.7 368.875H1239.62V376.286H1242.7V368.875Z" fill="#FEFFFF"/>
<path d="M1187.08 387.414H1184V394.825H1187.08V387.414Z" fill="#FEFFFF"/>
<path d="M1196.37 387.414H1193.29V394.825H1196.37V387.414Z" fill="#FEFFFF"/>
<path d="M1205.63 387.414H1202.55V394.825H1205.63V387.414Z" fill="#FEFFFF"/>
<path d="M1214.89 387.414H1211.81V394.825H1214.89V387.414Z" fill="#FEFFFF"/>
<path d="M1224.18 387.414H1221.11V394.825H1224.18V387.414Z" fill="#FEFFFF"/>
<path d="M1233.44 387.414H1230.37V394.825H1233.44V387.414Z" fill="#FEFFFF"/>
<path d="M1242.7 387.414H1239.62V394.825H1242.7V387.414Z" fill="#FEFFFF"/>
<path d="M1187.08 405.953H1184V413.364H1187.08V405.953Z" fill="#FEFFFF"/>
<path d="M1196.37 405.953H1193.29V413.364H1196.37V405.953Z" fill="#FEFFFF"/>
<path d="M1205.63 405.953H1202.55V413.364H1205.63V405.953Z" fill="#FEFFFF"/>
<path d="M1214.89 405.953H1211.81V413.364H1214.89V405.953Z" fill="#FEFFFF"/>
<path d="M1224.18 405.953H1221.11V413.364H1224.18V405.953Z" fill="#FEFFFF"/>
<path d="M1233.44 405.953H1230.37V413.364H1233.44V405.953Z" fill="#FEFFFF"/>
<path d="M1242.7 405.953H1239.62V413.364H1242.7V405.953Z" fill="#FEFFFF"/>
<path d="M1187.08 424.469H1184V431.879H1187.08V424.469Z" fill="#FEFFFF"/>
<path d="M1196.37 424.469H1193.29V431.879H1196.37V424.469Z" fill="#FEFFFF"/>
<path d="M1205.63 424.469H1202.55V431.879H1205.63V424.469Z" fill="#FEFFFF"/>
<path d="M1214.89 424.469H1211.81V431.879H1214.89V424.469Z" fill="#FEFFFF"/>
<path d="M1224.18 424.469H1221.11V431.879H1224.18V424.469Z" fill="#FEFFFF"/>
<path d="M1233.44 424.469H1230.37V431.879H1233.44V424.469Z" fill="#FEFFFF"/>
<path d="M1242.7 424.469H1239.62V431.879H1242.7V424.469Z" fill="#FEFFFF"/>
<path d="M1187.08 443.008H1184V450.418H1187.08V443.008Z" fill="#FEFFFF"/>
<path d="M1196.37 443.008H1193.3V450.418H1196.37V443.008Z" fill="#FEFFFF"/>
<path d="M1205.63 443.008H1202.56V450.418H1205.63V443.008Z" fill="#FEFFFF"/>
<path d="M1214.89 443.008H1211.82V450.418H1214.89V443.008Z" fill="#FEFFFF"/>
<path d="M1224.18 443.008H1221.11V450.418H1224.18V443.008Z" fill="#FEFFFF"/>
<path d="M1233.44 443.008H1230.37V450.418H1233.44V443.008Z" fill="#FEFFFF"/>
<path d="M1242.7 443.008H1239.63V450.418H1242.7V443.008Z" fill="#FEFFFF"/>
<path d="M1187.08 461.547H1184V468.957H1187.08V461.547Z" fill="#FEFFFF"/>
<path d="M1196.37 461.547H1193.29V468.957H1196.37V461.547Z" fill="#FEFFFF"/>
<path d="M1205.63 461.547H1202.55V468.957H1205.63V461.547Z" fill="#FEFFFF"/>
<path d="M1214.89 461.547H1211.81V468.957H1214.89V461.547Z" fill="#FEFFFF"/>
<path d="M1224.18 461.547H1221.11V468.957H1224.18V461.547Z" fill="#FEFFFF"/>
<path d="M1233.44 461.547H1230.37V468.957H1233.44V461.547Z" fill="#FEFFFF"/>
<path d="M1242.7 461.547H1239.62V468.957H1242.7V461.547Z" fill="#FEFFFF"/>
<path d="M1.16296 304.914H-68.9172V495.436H1.16296V304.914Z" fill="#FEFFFF"/>
<path d="M913.806 426.439C911.283 426.531 909.714 433.665 906.853 446.579C904.761 456.05 904.453 461.923 904.084 470.195C903.53 482.525 904.669 485.6 906.853 487.568C909.099 489.567 912.883 490.828 915.898 489.659C922.635 487.045 922.758 473.331 922.85 465.336C923.004 447.041 918.143 426.254 913.806 426.439Z" fill="#4A76E9"/>
<path d="M914.39 509.125C913.867 509.125 913.467 508.725 913.467 508.202V456.297C913.467 455.775 913.867 455.375 914.39 455.375C914.913 455.375 915.313 455.775 915.313 456.297V508.202C915.313 508.725 914.913 509.125 914.39 509.125Z" fill="#1D93B8"/>
<path d="M875.781 487.045C874.397 486.031 870.613 482.618 873.751 459.648C874.92 451.13 877.504 432.158 880.857 432.25C882.641 432.312 884.087 441.075 886.948 458.633C890.332 479.543 890.178 484.524 886.948 487.045C883.964 489.382 878.857 489.259 875.781 487.045Z" fill="#146AE3"/>
<path d="M880.088 509.123C879.565 509.123 879.165 508.724 879.165 508.201V468.227C879.165 467.704 879.565 467.305 880.088 467.305C880.611 467.305 881.011 467.704 881.011 468.227V508.201C881.011 508.724 880.611 509.123 880.088 509.123Z" fill="#1D93B8"/>
<path d="M940.908 434.094C938.139 434.156 936.54 446.886 935.34 456.326C933.309 472.316 931.894 483.693 937.432 486.891C940.662 488.766 945.769 487.536 948.568 484.8C950.814 482.617 952.352 478.711 947.861 457.002C944.815 442.151 943.154 434.033 940.908 434.094Z" fill="#146AE3"/>
<path d="M942.661 509.123C942.138 509.123 941.738 508.723 941.738 508.2V466.719C941.738 466.197 942.138 465.797 942.661 465.797C943.184 465.797 943.584 466.197 943.584 466.719V508.2C943.584 508.723 943.184 509.123 942.661 509.123Z" fill="#1D93B8"/>
<path d="M1026.37 567.45C1024.8 529.167 1023.2 490.884 1021.63 452.602C1017.17 453.247 1013.82 454.631 1011.76 455.676C1008.07 457.552 1004 459.582 1002.19 464.01C1000.9 467.115 1001.24 470.098 1001.57 471.728C999.39 471.205 996.068 470.559 992.007 470.498C985.608 470.405 979.424 470.252 975.025 474.218C969.18 479.476 970.195 488.64 970.38 490.116C962.566 490.577 955.921 494.789 953.398 501.093C951.675 505.336 952.321 509.303 952.783 511.271C951.214 511.548 948.414 512.255 945.676 514.346C944.907 514.93 939.524 519.266 939.493 526.707C939.462 534.487 945.369 538.945 945.984 539.376C938.631 539.776 933.709 546.356 934.663 552.137C935.647 558.102 942.754 562.807 949.953 560.47C943.185 566.681 940.385 571.324 941.616 574.369C944.6 582.056 972.872 579.75 1026.37 567.45Z" fill="#4A76E9"/>
<path d="M1138.54 369.703H1021.11V562.655H1138.54V369.703Z" fill="#146AE3"/>
<path d="M1130.75 550.293H1169.64V369.703H1130.75V550.293Z" fill="#002A9A"/>
<path d="M1095.25 399.133H1084.88V416.414H1095.25V399.133Z" fill="#87D5FB"/>
<path d="M1114.45 399.133H1104.08V416.414H1114.45V399.133Z" fill="#87D5FB"/>
<path d="M1068.36 396.828H1039.17V407.437H1068.36V396.828Z" fill="#87D5FB"/>
<path d="M1095.25 433.664H1084.88V450.945H1095.25V433.664Z" fill="#87D5FB"/>
<path d="M1114.45 433.664H1104.08V450.945H1114.45V433.664Z" fill="#87D5FB"/>
<path d="M1068.36 431.391H1039.17V441.999H1068.36V431.391Z" fill="#87D5FB"/>
<path d="M1068.36 465.922H1039.17V476.53H1068.36V465.922Z" fill="#87D5FB"/>
<path d="M1095.25 468.227H1084.88V485.508H1095.25V468.227Z" fill="#87D5FB"/>
<path d="M1114.45 468.227H1104.08V485.508H1114.45V468.227Z" fill="#87D5FB"/>
<path d="M1068.36 500.453H1039.17V511.062H1068.36V500.453Z" fill="#87D5FB"/>
<path d="M1095.25 502.758H1084.88V520.039H1095.25V502.758Z" fill="#87D5FB"/>
<path d="M1114.45 502.758H1104.08V520.039H1114.45V502.758Z" fill="#87D5FB"/>
<path d="M1058.55 395.75H1056.4V518.378H1058.55V395.75Z" fill="#146AE3"/>
<path d="M1169.67 279.914H1092.51V369.702H1169.67V279.914Z" fill="#AAE9FA"/>
<path d="M1152.99 279.914H1092.51V369.671H1152.99V279.914Z" fill="#FFFEFF"/>
<path d="M1145.09 288.586H1098.27V290.738H1145.09V288.586Z" fill="#1894C1"/>
<path d="M1145.09 297.844H1098.27V299.996H1145.09V297.844Z" fill="#1894C1"/>
<path d="M1145.09 307.094H1098.27V309.246H1145.09V307.094Z" fill="#1894C1"/>
<path d="M1145.09 316.383H1098.27V318.535H1145.09V316.383Z" fill="#1894C1"/>
<path d="M1145.09 325.641H1098.27V327.793H1145.09V325.641Z" fill="#1894C1"/>
<path d="M1145.09 334.891H1098.27V337.043H1145.09V334.891Z" fill="#1894C1"/>
<path d="M1145.09 344.18H1098.27V346.332H1145.09V344.18Z" fill="#1894C1"/>
<path d="M1145.09 353.438H1098.27V355.59H1145.09V353.438Z" fill="#1894C1"/>
<path d="M1145.09 362.688H1098.27V364.84H1145.09V362.688Z" fill="#1894C1"/>
<path d="M991.73 534.243C1003.24 533.751 1014.74 533.136 1026.25 532.613C1108.05 528.77 1185.33 505.892 1203.05 500.911C1253.78 486.612 1336.72 472.068 1476.94 472.683C1476.94 549.064 1476.94 625.476 1476.94 701.857C1282.76 701.58 1088.57 701.273 894.392 700.996C852.892 687.343 825.389 653.335 824.866 617.604C824.435 586.148 844.986 558.32 867.382 545.251C885.563 534.673 897.161 538.24 991.73 534.243Z" fill="#3A95EE"/>
<path d="M350.487 603.581C342.027 596.57 329.845 587.13 314.34 577.167C294.959 564.714 272.593 550.354 240.629 541.037C218.572 534.579 187.623 525.109 153.014 535.471C130.987 542.082 135.632 546.387 118.251 550.753C74.6274 561.731 54.9077 532.181 23.6824 545.188C2.45527 554.044 8.45422 568.988 -16.6491 579.934C-41.3218 590.697 -56.0269 580.15 -77.8385 591.066C-95.0356 599.645 -104.542 615.511 -109.833 627.196C25.0667 626.274 159.967 625.351 294.866 624.429C313.386 617.479 331.937 610.53 350.487 603.581Z" fill="#1969E2"/>
<path d="M-303 643.249C-168.992 643.31 -34.9848 643.403 99.0229 643.464C97.7308 627.475 93.5161 606.227 78.5033 598.048C65.5825 591.037 57.0301 600.415 36.7874 598.97C2.14728 596.479 -3.45176 566.776 -43.8755 554.507C-65.9025 547.803 -66.4255 555.952 -99.4967 551.739C-125.615 548.388 -187.512 521.482 -190.343 520.221C-213.108 510.259 -248.579 502.879 -302.969 516.716C-303 558.904 -303 601.092 -303 643.249Z" fill="#3A95EE"/>
<path d="M-0.528867 582.89C-1.51331 581.383 -4.98964 576.063 -5.1127 568.468C-5.26652 559.213 -0.313515 554.139 -1.39025 546.237C-1.97477 541.932 -3.66678 541.655 -3.69755 537.811C-3.69755 532.553 -0.467343 531.446 0.332519 525.204C1.00932 519.731 -1.11338 517.64 -1.39025 510.783C-1.72866 502.173 1.00932 490.365 5.50085 488.551C9.06947 487.106 13.1303 492.21 14.6685 498.76C16.7297 507.523 13.1918 514.442 15.8068 523.39C17.0989 527.818 18.7909 529.017 18.9754 533.599C19.1293 538.057 17.5911 539.103 17.5296 543.223C17.4373 550.449 22.0518 552.386 22.9748 560.043C24.0515 569.145 18.9754 578.769 18.3909 579.876C13.3764 589.162 4.91635 591.253 -0.528867 582.89Z" fill="#4A76E9"/>
<path d="M7.87018 624.279C7.3472 624.279 6.94727 623.879 6.94727 623.357V517.149C6.94727 516.626 7.3472 516.226 7.87018 516.226C8.39317 516.226 8.7931 516.626 8.7931 517.149V623.357C8.7931 623.849 8.39317 624.279 7.87018 624.279Z" fill="#1D93B8"/>
<path d="M1264.91 516.779C1265.41 515.334 1265.99 512.843 1264.91 510.537C1263.07 506.54 1257.01 504.357 1250.3 506.355C1249.81 505.556 1244.61 497.131 1235.01 496.639C1230.03 496.393 1226.24 498.391 1224.58 499.406C1220.4 493.717 1213.42 490.765 1206.49 491.749C1196.4 493.225 1192.16 502.266 1191.88 502.881C1186.1 498.207 1180.62 496.177 1177.27 495.224C1172.28 493.84 1161.92 490.919 1155.7 496.608C1152.84 499.221 1151.89 502.758 1151.52 504.941C1146.1 502.358 1140.29 502.758 1137.61 505.648C1134.07 509.492 1135.03 518.84 1143.18 524.405C1183.79 521.884 1224.37 519.331 1264.91 516.779Z" fill="#87D5FB"/>
<path d="M1335.82 537.931C1333.61 537.778 1328.78 537.409 1324.01 534.149C1321.55 532.458 1318.66 530.521 1317.77 527.2C1316.01 520.835 1323.61 517.237 1321.95 511.21C1320.72 506.721 1315.83 506.352 1315 500.786C1314.87 500.018 1314.63 497.681 1315.7 495.221C1318.01 489.932 1323.52 490.977 1326.13 486.888C1329.58 481.507 1322.53 475.941 1325.43 468.131C1327.46 462.688 1333.42 458.537 1336.56 459.798C1339.58 460.997 1339.92 467.27 1340.04 469.514C1340.41 476.187 1337.76 478.124 1339.33 481.322C1341.02 484.797 1344.56 483.444 1349.05 487.564C1352.16 490.424 1355.73 495.836 1354.62 500.756C1353.51 505.675 1348.41 506.967 1349.05 509.796C1349.67 512.502 1354.47 511.733 1357.39 515.361C1360.44 519.144 1359.82 525.724 1357.39 529.967C1352.22 539.038 1338.59 538.116 1335.82 537.931Z" fill="#E7FFF7"/>
<path d="M1337.45 561.946C1336.93 561.946 1336.53 561.546 1336.53 561.023V507.735C1336.53 507.212 1336.93 506.812 1337.45 506.812C1337.98 506.812 1338.38 507.212 1338.38 507.735V561.023C1338.38 561.515 1337.95 561.946 1337.45 561.946Z" fill="#1D93B8"/>
<path d="M1432.48 515.762C1431.38 514.04 1427.38 507.951 1427.22 499.28C1427.04 488.702 1432.7 482.891 1431.5 473.851C1430.85 468.9 1428.89 468.592 1428.89 464.226C1428.89 458.199 1432.58 456.969 1433.47 449.805C1434.24 443.532 1431.81 441.164 1431.5 433.323C1431.1 423.483 1434.27 409.984 1439.38 407.893C1443.47 406.233 1448.11 412.075 1449.87 419.578C1452.24 429.602 1448.17 437.505 1451.19 447.744C1452.67 452.818 1454.6 454.202 1454.79 459.429C1454.97 464.503 1453.22 465.702 1453.16 470.437C1453.04 478.709 1458.36 480.923 1459.4 489.686C1460.66 500.11 1454.85 511.088 1454.14 512.349C1448.42 522.926 1438.73 525.294 1432.48 515.762Z" fill="#B1E4FF"/>
<path d="M1391.11 534.523C1385.23 535.876 1377.88 533.201 1374.19 526.406C1370.86 520.317 1371.17 512.23 1373.66 507.033C1375.69 502.759 1378.22 502.483 1378.96 498.27C1379.79 493.596 1377.05 491.69 1377.91 487.016C1378.62 483.111 1381.94 483.633 1384.25 478.898C1387.48 472.256 1382.86 466.506 1385.66 464.2C1388.06 462.232 1394.43 463.954 1396.8 467.92C1399.78 472.871 1393.45 476.407 1394.95 485.54C1395.88 491.136 1399.47 496.978 1403.63 503.743C1404.7 505.527 1404.67 505.281 1404.89 505.804C1408.37 514.014 1402.49 531.879 1391.11 534.523Z" fill="#4A76E9"/>
<path d="M1388.8 566.164C1388.28 566.164 1387.88 565.764 1387.88 565.241V518.133C1387.88 517.611 1388.28 517.211 1388.8 517.211C1389.32 517.211 1389.72 517.611 1389.72 518.133V565.241C1389.72 565.764 1389.32 566.164 1388.8 566.164Z" fill="#1D93B8"/>
<path d="M1015.66 643.466C1169.42 643.558 1323.21 643.681 1476.97 643.774C1476.97 613.547 1476.97 583.351 1476.97 553.125C1454.85 559.029 1438.58 563.949 1427.62 567.454C1423.72 568.684 1416.39 570.867 1404.18 574.926C1390.86 579.385 1387.05 581.045 1379.32 582.736C1342.72 590.824 1324.32 576.464 1289.62 573.02C1244.86 568.53 1242.12 589.071 1186.1 596.666C1107.8 607.244 1051.81 559.951 994.252 596.666C984.777 602.693 972.256 613.609 962.012 634.703C979.886 637.593 997.759 640.545 1015.66 643.466Z" fill="#B1E4FF"/>
<path d="M-110.633 643.346C268.163 643.439 646.929 643.5 1025.72 643.592C857.077 578.804 716.732 560.231 645.329 564.659C560.205 569.948 502.184 592.518 502.184 592.518C472.559 604.049 474.312 604.51 457.7 611.06C406.539 631.2 378.175 599.19 305.664 599.928C255.181 600.451 262.841 616.656 205.528 618.47C158.521 619.946 142.954 609.891 90.5632 611.06C50.5393 611.951 22.298 618.655 5.2856 622.191C-2.55919 623.821 -3.17447 627.08 -10.3425 629.355C-21.0175 632.738 -43.4137 631.908 -43.4137 631.908C-55.7808 629.97 -76.0542 630.893 -110.633 643.346Z" fill="#1C4CC4"/>
<path d="M1326.41 626.212C1323.21 626.55 1316.9 627.195 1312.84 623.044C1308.38 618.493 1308.81 610.468 1311.49 605.425C1314.2 600.29 1317.92 600.782 1319.18 596.385C1320.72 590.942 1315.52 588.359 1316.01 581.933C1316.47 575.875 1321.92 569.356 1328.23 568.833C1332.84 568.434 1336.38 571.416 1337.76 572.554C1343.33 577.197 1345.7 585.254 1344.47 591.865C1343.45 597.461 1340.75 598.322 1340.84 603.15C1340.96 608.469 1345.11 609.392 1344.9 613.543C1344.62 619.785 1334.87 625.351 1326.41 626.212Z" fill="#4A76E9"/>
<path d="M1325.86 644.415C1325.33 644.415 1324.93 644.015 1324.93 643.492V590.204C1324.93 589.681 1325.33 589.281 1325.86 589.281C1326.38 589.281 1326.78 589.681 1326.78 590.204V643.492C1326.78 643.984 1326.38 644.415 1325.86 644.415Z" fill="#1D93B8"/>
<path d="M1476.97 528.891C1476.97 555.058 1477 581.195 1477 607.363C1439.44 607.363 1401.87 607.332 1364.34 607.332C1364.93 605.764 1366.28 600.875 1369.3 598.23C1370.53 597.154 1372.99 595.063 1376.89 594.356C1381.11 593.618 1384.43 594.971 1385.72 595.586C1385.57 594.632 1385.42 593.218 1385.72 591.558C1386.65 586.392 1391.45 580.488 1397.51 580.734C1402.21 580.918 1405.26 584.7 1405.87 585.531C1405.9 583.839 1406.09 581.349 1406.8 578.428C1407.1 577.167 1408.21 573.231 1411.44 568.403C1414.24 564.252 1419.69 556.104 1428.82 554.658C1431.22 554.29 1433.28 554.474 1434.58 554.658C1434.67 553.306 1434.98 551.368 1435.96 549.247C1438.7 543.373 1445.96 537.808 1452.88 539.684C1456.79 540.729 1459.19 543.804 1460.33 545.557C1460.97 543.988 1461.83 542.328 1462.97 540.606C1467.34 533.995 1473.31 530.551 1476.97 528.891Z" fill="#4A76E9"/>
</g>
<defs>
<clipPath id="clip0_4513_38408">
<rect width="1780" height="640" fill="white" transform="translate(-303)"/>
</clipPath>
</defs>
</svg>
