<svg width="375" height="594" viewBox="0 0 375 594" fill="none" xmlns="http://www.w3.org/2000/svg">
<g opacity="0.15" clip-path="url(#clip0_4716_35593)">
<path d="M392.951 103.749V33.4248H315.099V64.6706H292.133V103.749H263.475V429.357H398.986V103.749H392.951Z" fill="#1266E3"/>
<path d="M415.918 103.749V64.6706H392.951V33.4248H360.718V64.6706H337.752V103.749H309.065V432.673H444.576V103.749H415.918Z" fill="#34B0DA"/>
<path d="M345.101 383.873H335.863V129.219H345.101V383.873ZM337.293 382.444H343.671V130.648H337.293V382.444Z" fill="white"/>
<path d="M367.896 383.873H358.658V129.219H367.896V383.873ZM360.088 382.444H366.466V130.648H360.088V382.444Z" fill="white"/>
<path d="M229.268 33.4248H165.088V460.603H229.268V33.4248Z" fill="#1266E3"/>
<path d="M165.088 460.601H129.251V33.3086L165.088 33.4229V460.601Z" fill="#002A9A"/>
<path d="M185.137 53.29H179.388V64.8393H185.137V53.29Z" fill="#FEFFFF"/>
<path d="M195.233 53.29H189.484V64.8393H195.233V53.29Z" fill="#FEFFFF"/>
<path d="M205.301 53.29H199.552V64.8393H205.301V53.29Z" fill="#FEFFFF"/>
<path d="M215.368 53.29H209.619V64.8393H215.368V53.29Z" fill="#FEFFFF"/>
<path d="M185.137 72.9883H179.388V84.5375H185.137V72.9883Z" fill="#FEFFFF"/>
<path d="M195.233 72.9883H189.484V84.5375H195.233V72.9883Z" fill="#FEFFFF"/>
<path d="M205.301 72.9883H199.552V84.5375H205.301V72.9883Z" fill="#FEFFFF"/>
<path d="M215.368 72.9883H209.619V84.5375H215.368V72.9883Z" fill="#FEFFFF"/>
<path d="M185.137 92.6855H179.388V104.235H185.137V92.6855Z" fill="#FEFFFF"/>
<path d="M195.233 92.6855H189.484V104.235H195.233V92.6855Z" fill="#FEFFFF"/>
<path d="M205.301 92.6855H199.552V104.235H205.301V92.6855Z" fill="#FEFFFF"/>
<path d="M215.368 92.6855H209.619V104.235H215.368V92.6855Z" fill="#FEFFFF"/>
<path d="M185.137 112.405H179.388V123.954H185.137V112.405Z" fill="#FEFFFF"/>
<path d="M195.233 112.405H189.484V123.954H195.233V112.405Z" fill="#FEFFFF"/>
<path d="M205.301 112.405H199.552V123.954H205.301V112.405Z" fill="#FEFFFF"/>
<path d="M215.368 112.405H209.619V123.954H215.368V112.405Z" fill="#FEFFFF"/>
<path d="M185.137 132.103H179.388V143.652H185.137V132.103Z" fill="#FEFFFF"/>
<path d="M195.233 132.103H189.484V143.652H195.233V132.103Z" fill="#FEFFFF"/>
<path d="M205.301 132.103H199.552V143.652H205.301V132.103Z" fill="#FEFFFF"/>
<path d="M215.368 132.103H209.619V143.652H215.368V132.103Z" fill="#FEFFFF"/>
<path d="M185.137 151.801H179.388V163.35H185.137V151.801Z" fill="#FEFFFF"/>
<path d="M195.233 151.801H189.484V163.35H195.233V151.801Z" fill="#FEFFFF"/>
<path d="M205.301 151.801H199.552V163.35H205.301V151.801Z" fill="#FEFFFF"/>
<path d="M215.368 151.801H209.619V163.35H215.368V151.801Z" fill="#FEFFFF"/>
<path d="M185.137 171.527H179.388V183.077H185.137V171.527Z" fill="#FEFFFF"/>
<path d="M195.233 171.527H189.484V183.077H195.233V171.527Z" fill="#FEFFFF"/>
<path d="M205.301 171.527H199.552V183.077H205.301V171.527Z" fill="#FEFFFF"/>
<path d="M215.368 171.527H209.619V183.077H215.368V171.527Z" fill="#FEFFFF"/>
<path d="M185.137 191.226H179.388V202.775H185.137V191.226Z" fill="#FEFFFF"/>
<path d="M195.233 191.226H189.484V202.775H195.233V191.226Z" fill="#FEFFFF"/>
<path d="M205.301 191.226H199.552V202.775H205.301V191.226Z" fill="#FEFFFF"/>
<path d="M215.368 191.226H209.619V202.775H215.368V191.226Z" fill="#FEFFFF"/>
<path d="M185.137 210.923H179.388V222.472H185.137V210.923Z" fill="#FEFFFF"/>
<path d="M195.233 210.923H189.484V222.472H195.233V210.923Z" fill="#FEFFFF"/>
<path d="M205.301 210.923H199.552V222.472H205.301V210.923Z" fill="#FEFFFF"/>
<path d="M215.368 210.923H209.619V222.472H215.368V210.923Z" fill="#FEFFFF"/>
<path d="M185.137 230.613H179.388V242.162H185.137V230.613Z" fill="#FEFFFF"/>
<path d="M195.233 230.613H189.484V242.162H195.233V230.613Z" fill="#FEFFFF"/>
<path d="M205.301 230.613H199.552V242.162H205.301V230.613Z" fill="#FEFFFF"/>
<path d="M215.368 230.613H209.619V242.162H215.368V230.613Z" fill="#FEFFFF"/>
<path d="M185.137 250.34H179.388V261.889H185.137V250.34Z" fill="#FEFFFF"/>
<path d="M195.233 250.34H189.484V261.889H195.233V250.34Z" fill="#FEFFFF"/>
<path d="M205.301 250.34H199.552V261.889H205.301V250.34Z" fill="#FEFFFF"/>
<path d="M215.368 250.34H209.619V261.889H215.368V250.34Z" fill="#FEFFFF"/>
<path d="M185.137 270.038H179.388V281.587H185.137V270.038Z" fill="#FEFFFF"/>
<path d="M195.233 270.038H189.484V281.587H195.233V270.038Z" fill="#FEFFFF"/>
<path d="M205.301 270.038H199.552V281.587H205.301V270.038Z" fill="#FEFFFF"/>
<path d="M215.368 270.038H209.619V281.587H215.368V270.038Z" fill="#FEFFFF"/>
<path d="M185.137 170.873H179.388V182.422H185.137V170.873Z" fill="#FEFFFF"/>
<path d="M195.233 170.873H189.484V182.422H195.233V170.873Z" fill="#FEFFFF"/>
<path d="M205.301 170.873H199.552V182.422H205.301V170.873Z" fill="#FEFFFF"/>
<path d="M215.368 170.873H209.619V182.422H215.368V170.873Z" fill="#FEFFFF"/>
<path d="M185.137 190.571H179.388V202.121H185.137V190.571Z" fill="#FEFFFF"/>
<path d="M195.233 190.571H189.484V202.121H195.233V190.571Z" fill="#FEFFFF"/>
<path d="M205.301 190.571H199.552V202.121H205.301V190.571Z" fill="#FEFFFF"/>
<path d="M215.368 190.571H209.619V202.121H215.368V190.571Z" fill="#FEFFFF"/>
<path d="M185.137 210.298H179.388V221.847H185.137V210.298Z" fill="#FEFFFF"/>
<path d="M195.233 210.298H189.484V221.847H195.233V210.298Z" fill="#FEFFFF"/>
<path d="M205.301 210.298H199.552V221.847H205.301V210.298Z" fill="#FEFFFF"/>
<path d="M215.368 210.298H209.619V221.847H215.368V210.298Z" fill="#FEFFFF"/>
<path d="M185.137 229.988H179.388V241.538H185.137V229.988Z" fill="#FEFFFF"/>
<path d="M195.233 229.988H189.484V241.538H195.233V229.988Z" fill="#FEFFFF"/>
<path d="M205.301 229.988H199.552V241.538H205.301V229.988Z" fill="#FEFFFF"/>
<path d="M215.368 229.988H209.619V241.538H215.368V229.988Z" fill="#FEFFFF"/>
<path d="M185.137 249.686H179.388V261.235H185.137V249.686Z" fill="#FEFFFF"/>
<path d="M195.233 249.686H189.484V261.235H195.233V249.686Z" fill="#FEFFFF"/>
<path d="M205.301 249.686H199.552V261.235H205.301V249.686Z" fill="#FEFFFF"/>
<path d="M215.368 249.686H209.619V261.235H215.368V249.686Z" fill="#FEFFFF"/>
<path d="M185.137 269.413H179.388V280.962H185.137V269.413Z" fill="#FEFFFF"/>
<path d="M195.233 269.413H189.484V280.962H195.233V269.413Z" fill="#FEFFFF"/>
<path d="M205.301 269.413H199.552V280.962H205.301V269.413Z" fill="#FEFFFF"/>
<path d="M215.368 269.413H209.619V280.962H215.368V269.413Z" fill="#FEFFFF"/>
<path d="M185.137 289.11H179.388V300.66H185.137V289.11Z" fill="#FEFFFF"/>
<path d="M195.233 289.11H189.484V300.66H195.233V289.11Z" fill="#FEFFFF"/>
<path d="M205.301 289.11H199.552V300.66H205.301V289.11Z" fill="#FEFFFF"/>
<path d="M215.368 289.11H209.619V300.66H215.368V289.11Z" fill="#FEFFFF"/>
<path d="M185.137 308.809H179.388V320.358H185.137V308.809Z" fill="#FEFFFF"/>
<path d="M195.233 308.809H189.484V320.358H195.233V308.809Z" fill="#FEFFFF"/>
<path d="M205.301 308.809H199.552V320.358H205.301V308.809Z" fill="#FEFFFF"/>
<path d="M215.368 308.809H209.619V320.358H215.368V308.809Z" fill="#FEFFFF"/>
<path d="M185.137 328.527H179.388V340.077H185.137V328.527Z" fill="#FEFFFF"/>
<path d="M195.233 328.527H189.484V340.077H195.233V328.527Z" fill="#FEFFFF"/>
<path d="M205.301 328.527H199.552V340.077H205.301V328.527Z" fill="#FEFFFF"/>
<path d="M215.368 328.527H209.619V340.077H215.368V328.527Z" fill="#FEFFFF"/>
<path d="M185.137 348.226H179.388V359.775H185.137V348.226Z" fill="#FEFFFF"/>
<path d="M195.233 348.226H189.484V359.775H195.233V348.226Z" fill="#FEFFFF"/>
<path d="M205.301 348.226H199.552V359.775H205.301V348.226Z" fill="#FEFFFF"/>
<path d="M215.368 348.226H209.619V359.775H215.368V348.226Z" fill="#FEFFFF"/>
<path d="M185.137 367.923H179.388V379.472H185.137V367.923Z" fill="#FEFFFF"/>
<path d="M195.233 367.923H189.484V379.472H195.233V367.923Z" fill="#FEFFFF"/>
<path d="M205.301 367.923H199.552V379.472H205.301V367.923Z" fill="#FEFFFF"/>
<path d="M215.368 367.923H209.619V379.472H215.368V367.923Z" fill="#FEFFFF"/>
<path d="M185.137 387.621H179.388V399.17H185.137V387.621Z" fill="#FEFFFF"/>
<path d="M195.233 387.621H189.484V399.17H195.233V387.621Z" fill="#FEFFFF"/>
<path d="M205.301 387.621H199.552V399.17H205.301V387.621Z" fill="#FEFFFF"/>
<path d="M215.368 387.621H209.619V399.17H215.368V387.621Z" fill="#FEFFFF"/>
<path d="M122.587 376.04C137.145 370.151 143.266 371.351 146.04 374.096C152.161 380.128 142.865 394.564 149.958 401.454C154.878 406.228 161.456 401.339 169.493 407.314C175.613 411.859 173.897 416.262 179.274 419.035C186.996 423.037 193.975 415.662 200.782 419.035C203.871 420.579 207.56 424.667 208.59 436.616C207.046 440.304 199.123 458.085 179.274 465.918C161.256 473.007 140.263 469.177 124.561 456.141C123.903 429.412 123.245 402.74 122.587 376.04Z" fill="#3A95EE"/>
<path d="M135.429 200.115H83.318V476.21H135.429V200.115Z" fill="#5EC0FF"/>
<path d="M83.3183 200.115H-4V476.21H83.3183V200.115Z" fill="#3891ED"/>
<path d="M83.3183 200.115H-4V210.407H83.3183V200.115Z" fill="#157DB7"/>
<path d="M135.429 200.115H83.318V210.407H135.429V200.115Z" fill="#1266E3"/>
<path d="M106.771 218.354H101.766V444.707H106.771V218.354Z" fill="#3A95EE"/>
<path d="M119.813 218.354H114.808V444.707H119.813V218.354Z" fill="#3A95EE"/>
<path d="M273.056 368.238C289.873 363.149 296.022 365.264 298.453 368.238C303.258 374.098 295.479 385.333 300.398 389.735C305.346 394.138 315.5 384.79 323.851 389.735C329.972 393.366 327.769 400.312 333.633 403.4C341.155 407.373 348.963 397.997 357.085 399.483C363.749 400.713 371.357 409.46 376.62 440.506C337.551 443.107 298.454 445.709 259.385 448.31C263.932 421.61 268.508 394.909 273.056 368.238Z" fill="#87D5FB"/>
<path d="M-4 437.272C62.6113 440.474 132.197 445.477 204.443 452.738C293.592 461.686 378.136 473.178 457.789 486.328C303.916 522.376 150.044 558.425 -3.8284 594.502C-3.8856 564.714 -3.9142 534.898 -3.9714 505.11C-4 482.497 -4 459.885 -4 437.272Z" fill="#1669E1"/>
<path d="M-4 529.81C5.78148 519.662 22.3128 504.625 45.9943 492.276C61.6389 484.128 80.7729 477.382 156.308 464.717C205.186 456.513 201.84 459.686 225.264 454.369C289.387 439.818 293.792 420.693 335.578 413.032C385.944 403.77 429.56 422.38 480.384 444.049C535.497 467.548 536.27 481.127 580.372 495.735C625.39 510.657 662.085 508.913 711.364 506.083C835.148 498.965 860.603 465.718 921.666 481.956C948.065 488.959 986.676 506.712 1026.49 558.712C918.034 569.404 809.465 578.008 700.753 584.555C466.484 598.648 231.642 603.051 -3.79979 597.819C-3.857 575.121 -3.9142 552.48 -4 529.81Z" fill="#5EC0FF"/>
<path d="M249.461 283.475H184.308V460.601H249.461V283.475Z" fill="#01289D"/>
<path d="M278.777 283.475H213.624V460.601H278.777V283.475Z" fill="#FEFFFF"/>
<path d="M235.046 296.94H224.493V301.429H235.046V296.94Z" fill="#34B0DA"/>
<path d="M252.293 296.94H241.739V301.429H252.293V296.94Z" fill="#34B0DA"/>
<path d="M269.568 296.94H259.014V301.429H269.568V296.94Z" fill="#34B0DA"/>
<path d="M235.046 314.176H224.493V318.664H235.046V314.176Z" fill="#34B0DA"/>
<path d="M252.293 314.176H241.739V318.664H252.293V314.176Z" fill="#34B0DA"/>
<path d="M269.568 314.176H259.014V318.664H269.568V314.176Z" fill="#34B0DA"/>
<path d="M235.046 331.39H224.493V335.878H235.046V331.39Z" fill="#34B0DA"/>
<path d="M252.293 331.39H241.739V335.878H252.293V331.39Z" fill="#34B0DA"/>
<path d="M269.568 331.39H259.014V335.878H269.568V331.39Z" fill="#34B0DA"/>
<path d="M235.046 348.625H224.493V353.113H235.046V348.625Z" fill="#34B0DA"/>
<path d="M252.293 348.625H241.739V353.113H252.293V348.625Z" fill="#34B0DA"/>
<path d="M269.568 348.625H259.014V353.113H269.568V348.625Z" fill="#34B0DA"/>
<path d="M235.046 365.86H224.493V370.349H235.046V365.86Z" fill="#34B0DA"/>
<path d="M252.293 365.86H241.739V370.349H252.293V365.86Z" fill="#34B0DA"/>
<path d="M269.568 365.86H259.014V370.349H269.568V365.86Z" fill="#34B0DA"/>
<path d="M235.046 383.074H224.493V387.562H235.046V383.074Z" fill="#34B0DA"/>
<path d="M252.293 383.074H241.739V387.562H252.293V383.074Z" fill="#34B0DA"/>
<path d="M269.568 383.074H259.014V387.562H269.568V383.074Z" fill="#34B0DA"/>
<path d="M235.046 400.31H224.493V404.798H235.046V400.31Z" fill="#34B0DA"/>
<path d="M252.293 400.31H241.739V404.798H252.293V400.31Z" fill="#34B0DA"/>
<path d="M269.568 400.31H259.014V404.798H269.568V400.31Z" fill="#34B0DA"/>
<path d="M235.046 417.553H224.493V422.041H235.046V417.553Z" fill="#34B0DA"/>
<path d="M252.293 417.553H241.739V422.041H252.293V417.553Z" fill="#34B0DA"/>
<path d="M269.568 417.553H259.014V422.041H269.568V417.553Z" fill="#34B0DA"/>
<path d="M235.046 434.759H224.493V439.247H235.046V434.759Z" fill="#34B0DA"/>
<path d="M252.293 434.759H241.739V439.247H252.293V434.759Z" fill="#34B0DA"/>
<path d="M269.568 434.759H259.014V439.247H269.568V434.759Z" fill="#34B0DA"/>
<path d="M135.457 411.351C131.539 414.724 125.533 420.784 121.3 430.018C117.811 437.594 113.177 447.713 118.068 456.404C121.157 461.864 127.592 465.981 134.8 466.066C141.692 466.124 148.328 462.522 151.531 457.061C156.737 448.199 151.36 437.079 147.012 428.103C143.294 420.356 138.747 414.81 135.457 411.351Z" fill="#FEFFFF"/>
<path d="M134.828 502.087C134.428 502.087 134.113 501.773 134.113 501.372V435.736C134.113 435.336 134.428 435.021 134.828 435.021C135.228 435.021 135.543 435.336 135.543 435.736V501.372C135.543 501.773 135.228 502.087 134.828 502.087Z" fill="#1D93B8"/>
<path d="M181.093 422.703C176.231 426.877 168.795 434.395 163.532 445.83C159.214 455.235 153.436 467.785 159.528 478.534C163.361 485.28 171.341 490.398 180.293 490.512C188.816 490.598 197.081 486.109 201.057 479.334C207.492 468.357 200.828 454.549 195.48 443.429C190.818 433.824 185.155 426.963 181.093 422.703Z" fill="#4A76E9"/>
<path d="M180.292 560.295C179.806 560.295 179.434 559.924 179.434 559.438V461.184C179.434 460.698 179.806 460.326 180.292 460.326C180.779 460.326 181.15 460.698 181.15 461.184V559.438C181.15 559.924 180.779 560.295 180.292 560.295Z" fill="#1D93B8"/>
<path d="M31.0965 419.26C29.3518 421.261 26.6919 424.834 24.8043 430.294C23.2598 434.783 21.2006 440.757 23.3742 445.874C24.7471 449.105 27.6072 451.535 30.8105 451.563C33.8707 451.592 36.8166 449.476 38.2467 446.246C40.5633 441.015 38.1609 434.44 36.2446 429.151C34.5858 424.548 32.5551 421.289 31.0965 419.26Z" fill="#4A76E9"/>
<path d="M30.8107 473.321C30.3244 473.321 29.9526 472.949 29.9526 472.463V433.67C29.9526 433.184 30.3244 432.812 30.8107 432.812C31.2969 432.812 31.6687 433.184 31.6687 433.67V472.463C31.6687 472.92 31.2969 473.321 30.8107 473.321Z" fill="#1D93B8"/>
<path d="M603.539 561.142C595.674 554.624 584.348 545.848 569.933 536.585C551.915 525.008 531.122 511.657 501.405 502.995C480.899 496.992 452.126 488.187 419.95 497.821C399.472 503.967 403.791 507.97 387.631 512.029C347.075 522.235 328.742 494.762 299.713 506.855C279.978 515.088 285.555 528.981 262.217 539.158C239.279 549.164 225.608 539.358 205.33 549.507C189.342 557.483 180.504 572.234 175.585 583.097C301 582.239 426.414 581.381 551.829 580.524C569.046 574.063 586.293 567.602 603.539 561.142Z" fill="#1969E2"/>
<path d="M-4 598.021C120.585 598.078 245.17 598.164 369.756 598.221C368.554 583.356 364.636 563.602 350.679 555.998C338.667 549.48 330.715 558.199 311.896 556.855C279.692 554.54 274.486 526.925 236.905 515.518C216.427 509.286 215.94 516.862 185.194 512.945C160.912 509.829 103.368 484.816 100.736 483.644C79.5716 474.381 46.5949 467.52 -3.9714 480.385C-4 519.606 -4 558.828 -4 598.021Z" fill="#3A95EE"/>
<path d="M277.204 541.905C276.289 540.505 273.057 535.559 272.942 528.498C272.799 519.893 277.404 515.176 276.403 507.829C275.86 503.827 274.286 503.57 274.258 499.997C274.258 495.108 277.261 494.079 278.005 488.276C278.634 483.187 276.66 481.243 276.403 474.868C276.088 466.864 278.634 455.887 282.81 454.2C286.127 452.856 289.903 457.602 291.333 463.691C293.249 471.838 289.96 478.27 292.391 486.589C293.592 490.706 295.165 491.821 295.337 496.08C295.48 500.225 294.05 501.197 293.992 505.028C293.907 511.746 298.197 513.547 299.055 520.665C300.056 529.127 295.337 538.075 294.793 539.104C290.131 547.737 282.266 549.681 277.204 541.905Z" fill="#4A76E9"/>
<path d="M285.012 580.385C284.526 580.385 284.154 580.013 284.154 579.527V480.787C284.154 480.301 284.526 479.93 285.012 479.93C285.498 479.93 285.87 480.301 285.87 480.787V579.527C285.87 579.985 285.498 580.385 285.012 580.385Z" fill="#1D93B8"/>
<path d="M199.008 568.181C196.634 568.009 191.486 567.609 186.424 564.15C183.792 562.349 180.732 560.29 179.76 556.746C177.901 549.97 185.966 546.14 184.193 539.736C182.877 534.934 177.672 534.562 176.785 528.644C176.671 527.815 176.385 525.328 177.529 522.727C179.988 517.095 185.823 518.21 188.626 513.836C192.287 508.119 184.793 502.173 187.882 493.854C190.027 488.079 196.405 483.648 199.723 484.963C202.926 486.25 203.298 492.91 203.413 495.312C203.784 502.401 201.01 504.46 202.669 507.89C204.471 511.606 208.217 510.149 213.022 514.551C216.34 517.581 220.144 523.384 218.943 528.616C217.742 533.847 212.336 535.219 213.022 538.221C213.68 541.108 218.8 540.308 221.917 544.139C225.178 548.169 224.491 555.173 221.917 559.662C216.483 569.353 201.954 568.381 199.008 568.181Z" fill="#D0F7F7"/>
<path d="M200.753 593.62C200.267 593.62 199.895 593.248 199.895 592.762V536.017C199.895 535.531 200.267 535.159 200.753 535.159C201.239 535.159 201.611 535.531 201.611 536.017V592.762C201.611 593.248 201.21 593.62 200.753 593.62Z" fill="#1D93B8"/>
<path d="M246.257 552.566C242.196 551.994 235.332 549.507 233.759 544.247C231.814 537.7 240.337 534.47 240.709 524.807C241.052 515.745 233.73 514.059 233.759 504.682C233.787 496.963 238.793 488.016 246.944 485.243C253.322 483.099 262.074 484.585 263.618 488.702C265.735 494.391 252.264 499.736 253.207 508.827C254.037 516.889 265.134 517.518 267.794 528.266C269.71 536.099 265.563 542.703 265.02 543.532C261.33 549.221 254.065 553.68 246.257 552.566Z" fill="#E7FFF7"/>
<path d="M250.233 590.618C249.747 590.618 249.375 590.246 249.375 589.76V527.069C249.375 526.583 249.747 526.211 250.233 526.211C250.719 526.211 251.091 526.583 251.091 527.069V589.76C251.091 590.218 250.719 590.618 250.233 590.618Z" fill="#1D93B8"/>
<path d="M174.841 598.111C527.003 598.197 879.136 598.254 1231.3 598.34C1074.51 538.106 944.032 520.84 877.649 524.956C798.511 529.873 744.569 550.856 744.569 550.856C717.027 561.576 718.657 562.005 703.213 568.094C655.65 586.819 629.28 557.06 561.867 557.746C514.934 558.232 522.055 573.297 468.772 574.984C425.07 576.356 410.598 567.008 361.891 568.094C324.681 568.923 298.425 575.155 282.609 578.443C275.316 579.958 274.744 582.988 268.08 585.104C258.155 588.248 237.334 587.476 237.334 587.476C225.837 585.675 206.989 586.533 174.841 598.111Z" fill="#1C4CC4"/>
<path d="M-4 598.393C-4 567.29 -4 536.158 -4 505.055C5.81008 497.165 19.6243 497.337 28.5191 504.97C36.127 511.516 38.9298 522.522 35.4119 532.528C53.2016 522.922 70.3621 524.638 76.3397 533.185C77.3979 534.7 79.829 538.845 78.4848 546.764C79.6288 545.592 84.6626 540.675 91.6412 540.961C99.9354 541.275 107.743 548.822 109.316 559.485C111.433 558.542 114.951 557.313 119.384 557.341C122.215 557.341 129.966 557.37 135.172 563.373C140.491 569.519 139.262 577.438 139.061 578.667C144.381 574.808 151.302 574.294 156.508 577.381C163.086 581.269 165.917 590.331 162.314 598.278C106.885 598.278 51.457 598.335 -4 598.393Z" fill="#4A76E9"/>
</g>
<defs>
<clipPath id="clip0_4716_35593">
<rect width="1654.84" height="595" fill="white" transform="translate(-4)"/>
</clipPath>
</defs>
</svg>
