<svg width="22" height="22" viewBox="0 0 22 22" fill="none" xmlns="http://www.w3.org/2000/svg">
<path fill-rule="evenodd" clip-rule="evenodd" d="M2 4.16151C2 2.96825 2.96825 2 4.16151 2C5.35401 2 6.32227 2.96825 6.32302 4.16151C6.32302 5.35476 5.35476 6.34327 4.16151 6.34327C2.96825 6.34327 2 5.35476 2 4.16151ZM19.996 19.9992V19.9985H20.0005V13.397C20.0005 10.1674 19.3052 7.67969 15.5297 7.67969C13.7147 7.67969 12.4967 8.67569 11.9995 9.61995H11.947V7.98119H8.36719V19.9985H12.0947V14.048C12.0947 12.4812 12.3917 10.9662 14.332 10.9662C16.2437 10.9662 16.2722 12.7542 16.2722 14.1485V19.9992H19.996ZM2.29688 7.98438H6.02889V20.0017H2.29688V7.98438Z" fill="#7E7E7E"/>
</svg>
