<svg width="35" height="24" viewBox="0 0 35 24" fill="none" xmlns="http://www.w3.org/2000/svg">
<g id="Group">
<g id="Group_2">
<path id="Vector" d="M9.04902 9H3.95454C3.2885 9 2.75 9.54558 2.75 10.2116V15.3557C2.75 16.0217 3.2885 16.5673 3.95454 16.5673H9.0561C9.72214 16.5673 10.2606 16.0217 10.2606 15.3557V10.2116C10.2536 9.54558 9.71506 9 9.04902 9Z" fill="#1677FF"/>
<path id="Vector_2" d="M8.92865 13.749C8.63106 13.6498 8.22718 13.4939 7.77371 13.3309C8.04296 12.8562 8.25552 12.3177 8.39723 11.7367H6.92345V11.1982H8.73734V10.9006H6.92345V10.0078H6.17947C6.05193 10.0078 6.05193 10.1354 6.05193 10.1354V10.9006H4.22387V11.1982H6.05902V11.7367H4.54272V12.0343H7.47612C7.36984 12.4098 7.22813 12.757 7.05099 13.0758C6.10153 12.757 5.08122 12.5019 4.44352 12.6578C4.03256 12.757 3.7704 12.9412 3.6216 13.1325C2.91305 14.004 3.42321 15.3219 4.91825 15.3219C5.80394 15.3219 6.6542 14.826 7.31315 14.004C8.29804 14.4859 10.2536 15.3078 10.2536 15.3078V14.1387C10.2536 14.1387 10.0056 14.1174 8.92865 13.749ZM4.77654 14.8189C3.60743 14.8189 3.26732 13.8907 3.84125 13.3876C4.03256 13.2175 4.38684 13.1325 4.57106 13.1113C5.26544 13.0404 5.90313 13.3097 6.66128 13.6852C6.12987 14.3796 5.45675 14.8189 4.77654 14.8189Z" fill="white"/>
<path id="Vector_3" d="M19.0398 10.103C19.0398 10.4927 19.3232 10.7549 19.7271 10.7549C20.131 10.7549 20.4144 10.4927 20.4144 10.103C20.4144 9.72042 20.131 9.45117 19.7271 9.45117C19.3232 9.45117 19.0398 9.72042 19.0398 10.103Z" fill="#1677FF"/>
<path id="Vector_4" d="M18.3171 9.61523H17.1267V15.1065H18.3171V9.61523Z" fill="black"/>
<path id="Vector_5" d="M15.0434 9.80859H13.4491L11.6636 15.1156H12.7618L13.0594 14.0741H14.9513L15.2347 15.1156H16.6447L15.0434 9.80859ZM13.3074 13.2096L14.016 10.7651H14.0443L14.7174 13.2096H13.3074Z" fill="black"/>
<path id="Vector_6" d="M20.3151 11.0742H19.1248V15.1059H20.3151V11.0742Z" fill="black"/>
<path id="Vector_7" d="M32.7426 11.0813L32.7497 11.0742H31.6301L30.9216 13.5329H30.8862L30.0713 11.0742H28.7393L30.3406 15.1271L29.6745 16.36V16.3884H30.7161L32.7426 11.0813Z" fill="black"/>
<path id="Vector_8" d="M23.2767 10.998C22.8374 10.998 22.5044 11.161 22.1147 11.4799V11.0831H20.9243V16.3972H22.1147V15.0722C22.3414 15.1289 22.554 15.1643 22.8091 15.1643C23.8719 15.1643 24.8284 14.3849 24.8284 12.9891C24.8284 11.742 24.1341 10.998 23.2767 10.998ZM22.5186 14.4203C22.3839 14.4203 22.2564 14.4062 22.1147 14.3637V12.1742C22.3627 12.0042 22.5682 11.9192 22.8232 11.9192C23.2696 11.9192 23.6239 12.2734 23.6239 13.0245C23.6239 13.9881 23.0996 14.4203 22.5186 14.4203Z" fill="black"/>
<path id="Vector_9" d="M28.5061 14.1027V12.4164C28.5061 11.4953 27.9676 10.9922 27.0111 10.9922C26.4017 10.9922 25.9766 11.0985 25.2113 11.3323L25.4239 12.2605C26.1254 11.9416 26.4301 11.807 26.756 11.807C27.1457 11.807 27.3228 12.0834 27.3228 12.5156V12.5439C25.9624 12.799 25.5373 12.9407 25.2751 13.2029C25.0767 13.4013 24.9988 13.6776 24.9988 14.0035C24.9988 14.7759 25.601 15.1939 26.1679 15.1939C26.5859 15.1939 26.926 15.038 27.3866 14.6908L27.4716 15.1089H28.662L28.5061 14.1027ZM27.3157 14.1382C26.9969 14.3082 26.8198 14.3791 26.6072 14.3791C26.3238 14.3791 26.1395 14.1878 26.1395 13.8902C26.1395 13.7768 26.1608 13.6634 26.2529 13.5713C26.3946 13.4296 26.671 13.3233 27.3157 13.1745V14.1382Z" fill="black"/>
</g>
</g>
</svg>
