<svg width="35" height="24" viewBox="0 0 35 24" fill="none" xmlns="http://www.w3.org/2000/svg">
<g id="mc_symbol 2">
<rect width="34.5" height="24" fill="white"/>
<g id="Group">
<g id="Group_2">
<path id="Vector" d="M20.8059 5.71045H13.6753V18.2896H20.8059V5.71045Z" fill="#FF5F00"/>
<path id="Vector_2" d="M14.1281 12C14.127 10.7885 14.4066 9.59268 14.9459 8.503C15.4851 7.41331 16.2699 6.45835 17.2406 5.7104C16.0385 4.78277 14.5947 4.20588 13.0743 4.04569C11.554 3.8855 10.0183 4.14845 8.64302 4.8045C7.26769 5.46056 6.10813 6.48325 5.29688 7.75566C4.48563 9.02808 4.05542 10.4989 4.05542 12C4.05542 13.5011 4.48563 14.9719 5.29688 16.2443C6.10813 17.5167 7.26769 18.5394 8.64302 19.1955C10.0183 19.8515 11.554 20.1145 13.0743 19.9543C14.5947 19.7941 16.0385 19.2172 17.2406 18.2896C16.2699 17.5416 15.4852 16.5867 14.9459 15.497C14.4067 14.4073 14.127 13.2115 14.1281 12Z" fill="#EB001B"/>
<path id="Vector_3" d="M30.4255 12C30.4256 13.5011 29.9954 14.9719 29.1842 16.2443C28.373 17.5167 27.2135 18.5394 25.8382 19.1954C24.4629 19.8515 22.9273 20.1145 21.407 19.9543C19.8866 19.7941 18.4429 19.2172 17.2407 18.2896C18.2107 17.5409 18.9948 16.5857 19.5339 15.4962C20.0731 14.4067 20.3532 13.2113 20.3532 12C20.3532 10.7887 20.0731 9.59325 19.5339 8.50374C18.9948 7.41422 18.2107 6.45911 17.2407 5.7104C18.4429 4.78276 19.8866 4.20588 21.407 4.04569C22.9273 3.8855 24.4629 4.14846 25.8382 4.80452C27.2135 5.46059 28.373 6.48327 29.1842 7.75569C29.9954 9.02811 30.4256 10.4989 30.4255 12Z" fill="#F79E1B"/>
<path id="Vector_4" d="M29.648 16.9572V16.6997H29.7538V16.6472H29.4844V16.6997H29.5902V16.9572H29.648ZM30.171 16.9572V16.6467H30.0884L29.9935 16.8603L29.8985 16.6467H29.8158V16.9572H29.8741V16.723L29.9632 16.925H30.0237L30.1128 16.7225V16.9572H30.171Z" fill="#F79E1B"/>
</g>
</g>
</g>
</svg>
