<svg width="35" height="24" viewBox="0 0 35 24" fill="none" xmlns="http://www.w3.org/2000/svg">
<g id="mc_symbol 4">
<rect width="34.5" height="24" fill="white"/>
<g id="Group">
<g id="OIPjWg_1_">
<g id="Group_2">
<path id="Vector" fill-rule="evenodd" clip-rule="evenodd" d="M28.3809 8.45709C28.3706 8.53693 28.3603 8.61678 28.35 8.69663C28.2759 9.26669 28.0298 9.7569 27.6251 10.1693C27.2143 10.5897 26.715 10.8525 26.1281 10.9486C25.1871 11.1032 24.0988 10.7242 23.5469 9.87717C23.4615 9.74578 23.4059 9.59619 23.3369 9.45469C23.3194 9.4183 23.3256 9.38798 23.3544 9.35462C23.4563 9.23839 23.5531 9.11912 23.6519 9.00086C23.6622 8.98873 23.6674 8.97357 23.6828 8.94628C23.7199 9.04635 23.7425 9.12417 23.7755 9.19695C24.0885 9.88829 24.6249 10.3067 25.3827 10.4331C26.4802 10.617 27.5294 9.89133 27.7796 8.86239C27.8187 8.70169 27.8362 8.5339 27.8434 8.36915C27.8517 8.15488 27.8465 7.93858 27.8331 7.72329C27.8084 7.31394 27.656 6.94906 27.4028 6.62664C27.0321 6.15563 26.5461 5.86858 25.9428 5.79985C25.3436 5.73213 24.8113 5.91002 24.3479 6.284C23.8651 6.67414 23.447 7.12695 23.0455 7.59594C22.8591 7.81426 22.68 8.03864 22.4978 8.25999C22.4864 8.27313 22.4741 8.28526 22.4545 8.30649C22.4525 8.2792 22.4514 8.26403 22.4514 8.24887C22.4514 8.03156 22.4504 7.81325 22.4525 7.59594C22.4525 7.56561 22.4617 7.53024 22.4803 7.50699C22.8005 7.09966 23.133 6.70244 23.5057 6.3406C23.7817 6.07275 24.0813 5.8322 24.4087 5.62803C24.7093 5.44003 25.0419 5.3339 25.394 5.28842C26.7922 5.10851 28.0102 6.07882 28.2975 7.26947C28.3314 7.40794 28.3428 7.55146 28.3644 7.69297C28.3695 7.7243 28.3757 7.75563 28.3819 7.78697C28.3809 8.01236 28.3809 8.23472 28.3809 8.45709Z" fill="#00B041"/>
<path id="Vector_2" fill-rule="evenodd" clip-rule="evenodd" d="M21.3055 19.6075C21.3457 19.6388 21.3745 19.6601 21.4033 19.6833C21.8244 20.0189 22.3032 20.2321 22.8417 20.2999C23.2 20.3453 23.5583 20.3383 23.899 20.1988C24.279 20.0431 24.4694 19.748 24.5045 19.3558C24.523 19.1486 24.5158 18.9394 24.5189 18.7312C24.5189 18.714 24.5147 18.6968 24.5127 18.6726C24.4983 18.6797 24.489 18.6817 24.4839 18.6877C24.244 18.9556 23.931 19.0951 23.585 19.1618C23.0218 19.2719 22.4761 19.2123 21.9655 18.9465C21.4198 18.6625 21.1047 18.1996 20.9534 17.6214C20.8937 17.394 20.8679 17.1625 20.8679 16.928C20.8679 15.8991 20.8679 14.8712 20.8679 13.8423C20.8679 13.7523 20.8679 13.7523 20.9616 13.7523C21.323 13.7523 21.6834 13.7543 22.0447 13.7503C22.1178 13.7493 22.1343 13.7715 22.1343 13.8402C22.1323 14.8853 22.1271 15.9304 22.1364 16.9745C22.1405 17.4546 22.4308 17.9408 23.0476 18.0459C23.4038 18.1066 23.7436 18.051 24.037 17.8256C24.2584 17.6548 24.3696 17.4213 24.4056 17.1524C24.42 17.0473 24.4211 16.9402 24.4211 16.834C24.4221 15.8375 24.4221 14.8419 24.4221 13.8453C24.4221 13.7513 24.4221 13.7513 24.5189 13.7513C24.871 13.7513 25.2221 13.7523 25.5742 13.7503C25.6277 13.7503 25.6473 13.7644 25.6473 13.821C25.6452 15.6656 25.6514 17.5092 25.6422 19.3538C25.6401 19.8582 25.4877 20.3251 25.1366 20.7122C24.8432 21.0357 24.4684 21.2267 24.0473 21.3359C23.7981 21.4006 23.5438 21.4289 23.2864 21.441C22.5719 21.4733 21.9336 21.2783 21.3735 20.8386C21.323 20.7992 21.3004 20.7567 21.3014 20.692C21.3045 20.3514 21.3024 20.0108 21.3034 19.6702C21.3004 19.657 21.3024 19.6409 21.3055 19.6075Z" fill="#00B041"/>
<path id="Vector_3" fill-rule="evenodd" clip-rule="evenodd" d="M10.6339 19.2395C10.5999 19.2395 10.5742 19.2395 10.5494 19.2395C10.2025 19.2395 9.85549 19.2375 9.50852 19.2415C9.43439 19.2425 9.41895 19.2193 9.41895 19.1516C9.421 17.6991 9.41997 16.2467 9.41997 14.7933C9.41997 14.0938 9.41997 13.3944 9.41997 12.694C9.41997 12.603 9.41997 12.602 9.51264 12.602C10.3744 12.602 11.2362 12.5878 12.0969 12.608C12.7188 12.6222 13.2892 12.8082 13.7402 13.258C14.0233 13.5399 14.1901 13.8846 14.2653 14.2697C14.361 14.7589 14.3507 15.2471 14.1829 15.7211C13.9296 16.4337 13.4045 16.8542 12.6725 17.0422C12.4254 17.1058 12.1731 17.1311 11.9167 17.1311C11.5203 17.1301 11.124 17.1311 10.7276 17.1311C10.6349 17.1311 10.6349 17.1321 10.6349 17.2231C10.6349 17.8649 10.6349 18.5067 10.6349 19.1485C10.6339 19.1768 10.6339 19.2041 10.6339 19.2395ZM11.3258 16.0223C11.4936 16.0223 11.6604 16.0274 11.8282 16.0203C11.9713 16.0142 12.1165 16.0072 12.2555 15.9789C12.6375 15.9 12.9155 15.6908 13.0431 15.3199C13.1461 15.0227 13.1471 14.7195 13.0575 14.4193C12.971 14.1282 12.7785 13.9281 12.4902 13.8149C12.31 13.7441 12.1216 13.7168 11.9312 13.7138C11.5214 13.7087 11.1106 13.7128 10.6998 13.7118C10.6473 13.7118 10.6318 13.731 10.6318 13.7815C10.6328 14.5042 10.6339 15.2259 10.6318 15.9485C10.6318 16.0072 10.6514 16.0233 10.709 16.0233C10.916 16.0203 11.1209 16.0223 11.3258 16.0223Z" fill="#00B041"/>
<path id="Vector_4" fill-rule="evenodd" clip-rule="evenodd" d="M18.885 18.6746C18.607 18.9596 18.2723 19.1173 17.8924 19.1911C17.6103 19.2457 17.3261 19.2426 17.042 19.2133C16.696 19.1779 16.3676 19.088 16.0618 18.9232C15.4955 18.617 15.1496 18.1419 14.9756 17.5375C14.8994 17.2717 14.8644 16.9988 14.8634 16.7229C14.8623 16.457 14.8561 16.1892 14.8788 15.9244C14.9673 14.8964 15.5594 14.0414 16.7135 13.7725C17.3169 13.632 17.9223 13.6441 18.5102 13.8443C19.303 14.1151 19.7869 14.669 19.9918 15.4635C20.0515 15.697 20.0793 15.9355 20.0793 16.1771C20.0783 17.1433 20.0793 18.1086 20.0793 19.0748C20.0793 19.1729 20.0793 19.1729 19.9794 19.1729C19.6417 19.1729 19.305 19.1719 18.9673 19.1739C18.9055 19.1739 18.8798 19.1608 18.8829 19.093C18.8891 18.9556 18.885 18.8151 18.885 18.6746ZM18.8973 16.4803C18.8829 16.2842 18.887 16.0861 18.852 15.894C18.7655 15.4271 18.4978 15.0935 18.0397 14.9247C17.7524 14.8186 17.4559 14.8105 17.1563 14.8631C16.5993 14.9601 16.1699 15.3877 16.0865 15.9355C16.0402 16.2417 16.0412 16.55 16.0742 16.8563C16.1287 17.3667 16.3933 17.7437 16.87 17.964C17.1666 18.1015 17.4806 18.1136 17.8029 18.0712C18.3104 18.0035 18.6904 17.6841 18.8283 17.1999C18.8942 16.9614 18.887 16.7218 18.8973 16.4803Z" fill="#00B041"/>
<path id="Vector_5" fill-rule="evenodd" clip-rule="evenodd" d="M12.1741 7.77172C11.4328 7.77172 10.6976 7.77172 9.95323 7.77172C9.95117 7.7414 9.94911 7.71714 9.94911 7.69288C9.94911 7.57665 9.94911 7.46142 9.94911 7.34519C9.94911 7.25018 9.94911 7.25018 10.05 7.25018C10.6492 7.25018 11.2485 7.25018 11.8487 7.25018C12.1082 7.25018 12.3676 7.2522 12.6271 7.24917C12.6889 7.24816 12.7084 7.26635 12.7074 7.327C12.7053 8.23262 12.7064 9.13824 12.7043 10.0449C12.7043 10.0823 12.6868 10.1278 12.6621 10.1561C12.3934 10.4653 12.0526 10.6786 11.6788 10.8423C11.3257 10.997 10.955 11.0849 10.57 11.1264C9.91616 11.1961 9.27884 11.1375 8.67653 10.8646C7.62223 10.3845 6.96123 9.58297 6.72133 8.46711C6.58028 7.81013 6.59366 7.15012 6.83973 6.51335C7.16303 5.67545 7.74887 5.06294 8.54783 4.64146C8.971 4.41809 9.42402 4.28467 9.90278 4.23211C10.2539 4.1937 10.6039 4.20786 10.954 4.23413C11.2979 4.26041 11.6346 4.32308 11.9589 4.44134C12.0248 4.46559 12.0546 4.4949 12.0505 4.5697C12.0433 4.72839 12.0485 4.88808 12.0485 5.05688C11.9826 5.02453 11.928 4.99522 11.8714 4.96894C11.5769 4.82946 11.2649 4.75365 10.9416 4.72839C10.7069 4.71019 10.4721 4.69806 10.2364 4.7011C9.53418 4.71019 8.90613 4.93559 8.35015 5.35302C7.823 5.74822 7.45543 6.25561 7.27113 6.8853C7.17744 7.20369 7.16097 7.53015 7.17435 7.86067C7.19186 8.28113 7.28246 8.68139 7.47499 9.05637C7.89713 9.87608 8.56739 10.3845 9.48373 10.5765C9.85439 10.6543 10.2281 10.6463 10.6019 10.6038C11.0425 10.5543 11.4616 10.4391 11.8384 10.2036C11.9414 10.1389 12.0371 10.0621 12.1288 9.98322C12.1566 9.95997 12.1772 9.91247 12.1772 9.87608C12.1802 9.1999 12.1792 8.5227 12.1792 7.84652C12.1813 7.82327 12.1772 7.80002 12.1741 7.77172Z" fill="#00B041"/>
<path id="Vector_6" fill-rule="evenodd" clip-rule="evenodd" d="M20.2204 10.3027C20.2204 10.4715 20.2225 10.6302 20.2184 10.7899C20.2184 10.808 20.1864 10.8363 20.1648 10.8424C20.0001 10.8869 19.8353 10.9475 19.6675 10.9647C18.9756 11.0375 18.3496 10.8576 17.7988 10.4422C17.2191 10.0045 16.8619 9.4294 16.7682 8.71683C16.728 8.41361 16.7414 8.1023 16.7466 7.79503C16.7589 7.17848 16.9885 6.64077 17.3983 6.17785C17.807 5.71695 18.3167 5.41676 18.9314 5.31266C19.7633 5.17115 20.5077 5.37431 21.147 5.91708C21.6413 6.33654 21.9378 6.87122 22.0438 7.50394C22.0634 7.62422 22.0737 7.74753 22.0737 7.86983C22.0757 8.87551 22.0747 9.8812 22.0747 10.8859C22.0747 10.9152 22.0747 10.9445 22.0747 10.9789C21.8956 10.9789 21.7247 10.9789 21.5445 10.9789C21.5445 10.9435 21.5445 10.9111 21.5445 10.8798C21.5445 9.87412 21.5517 8.86844 21.5424 7.86376C21.5331 6.80653 20.7558 5.99895 19.8014 5.82308C18.6472 5.61184 17.5373 6.38606 17.3077 7.49383C17.285 7.604 17.2706 7.71822 17.2696 7.83041C17.2655 8.12656 17.2418 8.42371 17.3025 8.71683C17.4611 9.48903 17.9203 10.0237 18.6575 10.3219C19.1476 10.52 19.6449 10.5048 20.1411 10.329C20.1648 10.3209 20.1885 10.3128 20.2204 10.3027Z" fill="#00B041"/>
<path id="Vector_7" fill-rule="evenodd" clip-rule="evenodd" d="M11.7665 8.17607C11.7665 8.20437 11.7665 8.22762 11.7665 8.24986C11.7665 8.73198 11.7654 9.21309 11.7675 9.69521C11.7675 9.74777 11.751 9.78113 11.7098 9.81246C11.4802 9.98934 11.2136 10.0843 10.9335 10.146C10.6174 10.2157 10.2941 10.2501 9.97188 10.2289C9.02363 10.1672 8.32144 9.71644 7.86842 8.89976C7.66971 8.54196 7.5894 8.15384 7.58219 7.74651C7.57499 7.35232 7.62646 6.97127 7.80253 6.61347C8.12582 5.95649 8.64885 5.51783 9.33868 5.26514C9.75361 5.11252 10.185 5.07816 10.6246 5.10545C10.9984 5.12869 11.3639 5.18429 11.7129 5.31871C11.8118 5.35611 11.9075 5.40159 12.0022 5.44708C12.0228 5.45718 12.0455 5.4865 12.0455 5.50671C12.0486 5.69168 12.0475 5.87664 12.0475 6.07677C12.0187 6.05756 11.9981 6.04544 11.9786 6.03128C11.6872 5.81499 11.3546 5.69875 10.9953 5.66034C10.7544 5.63507 10.5104 5.61082 10.2694 5.61991C9.42002 5.65529 8.75593 6.01612 8.32762 6.75093C8.17936 7.00564 8.11655 7.28662 8.11037 7.58176C8.10317 7.92339 8.13817 8.25693 8.28849 8.56925C8.58708 9.18984 9.07819 9.57595 9.77317 9.68308C10.2633 9.75889 10.7441 9.69117 11.2105 9.52541C11.2578 9.50823 11.2754 9.48195 11.2754 9.43343C11.2733 9.21612 11.2723 8.9978 11.2754 8.78049C11.2764 8.71278 11.2568 8.68852 11.1837 8.68852C10.7986 8.69155 10.4146 8.68852 10.0295 8.69155C9.96571 8.69155 9.94408 8.67639 9.94614 8.61069C9.95129 8.46717 9.9482 8.32465 9.9482 8.17506C10.5557 8.17607 11.1559 8.17607 11.7665 8.17607Z" fill="#00B041"/>
<path id="Vector_8" fill-rule="evenodd" clip-rule="evenodd" d="M24.4293 8.06385C24.4602 8.2003 24.4798 8.31553 24.5117 8.42772C24.6013 8.736 24.7568 9.00586 24.9915 9.23328C25.4857 9.71136 26.1776 9.57794 26.5627 9.19184C26.7758 8.97857 26.8932 8.72084 26.8983 8.42065C26.9024 8.19424 26.9138 7.96581 26.8932 7.74143C26.8479 7.25728 26.4752 6.85299 25.9912 6.74484C25.565 6.64983 25.1943 6.76607 24.8741 7.04806C24.4489 7.42406 24.0793 7.85261 23.7117 8.28116C23.2937 8.76834 22.8891 9.26562 22.4793 9.75886C22.4752 9.76392 22.4721 9.77099 22.4546 9.77403C22.4536 9.75583 22.4505 9.73764 22.4505 9.71843C22.4505 9.49405 22.4484 9.26866 22.4525 9.04427C22.4536 9.00586 22.468 8.96139 22.4906 8.93107C22.8695 8.43581 23.2803 7.96783 23.7076 7.513C23.9403 7.26436 24.174 7.01572 24.4211 6.77921C24.7001 6.51237 25.0234 6.30719 25.4095 6.22532C25.8698 6.12829 26.295 6.23138 26.677 6.49519C27.0703 6.76607 27.3184 7.13499 27.408 7.60094C27.4234 7.6818 27.4296 7.7667 27.4296 7.84958C27.4275 8.09923 27.4389 8.3509 27.4121 8.59854C27.339 9.25248 26.8376 9.81142 26.1807 9.99538C25.462 10.1965 24.73 9.9125 24.3068 9.27068C24.1781 9.07459 24.0844 8.86335 24.0299 8.63694C24.0227 8.6046 24.033 8.55811 24.0535 8.53183C24.1647 8.39133 24.2821 8.25488 24.3964 8.11641C24.4077 8.10327 24.4139 8.08811 24.4293 8.06385Z" fill="#00B041"/>
<path id="Vector_9" fill-rule="evenodd" clip-rule="evenodd" d="M20.2205 9.28584C20.2205 9.46474 20.2225 9.63152 20.2184 9.79728C20.2174 9.82255 20.1885 9.85287 20.1649 9.86904C20.0238 9.96304 19.8632 10.0105 19.6974 10.0358C18.9747 10.145 18.29 9.8276 17.9183 9.21105C17.7618 8.95129 17.6794 8.66929 17.6815 8.36607C17.6825 8.21749 17.6825 8.06992 17.6815 7.92135C17.6763 7.35937 17.91 6.90757 18.3507 6.55988C19.335 5.78363 20.8568 6.28698 21.1008 7.55748C21.1224 7.6727 21.1317 7.79197 21.1327 7.90922C21.1347 8.90277 21.1337 9.89633 21.1337 10.8899C21.1337 10.9829 21.1337 10.9829 21.0369 10.9839C20.9185 10.9839 20.8012 10.9809 20.6828 10.9849C20.622 10.9869 20.6076 10.9647 20.6076 10.9091C20.6096 10.6423 20.6086 10.3764 20.6086 10.1096C20.6086 9.3849 20.6086 8.65919 20.6086 7.93449C20.6086 7.67675 20.552 7.43316 20.3986 7.21989C20.1566 6.88534 19.8261 6.72059 19.4061 6.7125C18.9139 6.70442 18.3929 7.02583 18.2498 7.58881C18.2272 7.67978 18.2169 7.7758 18.2138 7.8698C18.2076 8.03354 18.2117 8.19829 18.2117 8.36304C18.2117 8.95634 18.6328 9.44453 19.232 9.52842C19.5595 9.57491 19.8694 9.50618 20.1515 9.33234C20.169 9.3192 20.1885 9.30606 20.2205 9.28584Z" fill="#00B041"/>
<path id="Vector_10" fill-rule="evenodd" clip-rule="evenodd" d="M17.3365 5.61975C17.2026 5.76227 17.0852 5.88861 16.9699 6.01091C16.833 5.96037 16.7012 5.89366 16.5612 5.86233C15.7221 5.67534 14.9735 5.83201 14.3702 6.46574C14.1004 6.74875 13.9511 7.09543 13.8935 7.47648C13.8657 7.65639 13.8554 7.84035 13.8554 8.02228C13.8513 8.97642 13.8533 9.93056 13.8533 10.8847C13.8533 10.9827 13.8533 10.9827 13.7535 10.9827C13.633 10.9827 13.5125 10.9807 13.3921 10.9837C13.3416 10.9848 13.3231 10.9666 13.3272 10.9201C13.3282 10.909 13.3272 10.8968 13.3272 10.8857C13.3272 9.89215 13.3282 8.89859 13.3272 7.90504C13.3272 7.33195 13.4703 6.80131 13.8091 6.3303C14.2096 5.77339 14.7625 5.44591 15.4399 5.32058C15.9671 5.22253 16.486 5.25488 16.9874 5.44894C17.1058 5.49341 17.2139 5.55911 17.3365 5.61975Z" fill="#00B041"/>
<path id="Vector_11" fill-rule="evenodd" clip-rule="evenodd" d="M16.7382 6.34569C16.6579 6.50235 16.5828 6.64992 16.5086 6.79446C16.4036 6.7702 16.2996 6.73584 16.1936 6.72371C15.6891 6.66508 15.201 6.82074 14.9385 7.29781C14.8427 7.47165 14.7974 7.66066 14.7974 7.85776C14.7964 8.86546 14.7974 9.87317 14.7974 10.8809C14.7974 10.9112 14.7974 10.9405 14.7974 10.9769C14.6214 10.9769 14.4505 10.9769 14.2723 10.9769C14.2713 10.9526 14.2682 10.9284 14.2682 10.9041C14.2682 9.88025 14.259 8.85637 14.2713 7.83249C14.2806 7.00671 14.8602 6.36287 15.6499 6.22339C15.966 6.1678 16.278 6.18599 16.5848 6.281C16.6373 6.29616 16.6867 6.32345 16.7382 6.34569Z" fill="#00B041"/>
<path id="Vector_12" fill-rule="evenodd" clip-rule="evenodd" d="M23.0095 2.94653C23.1856 2.94653 23.3544 2.94653 23.5305 2.94653C23.5315 2.97483 23.5346 2.99909 23.5346 3.02335C23.5346 3.90876 23.5346 4.79315 23.5356 5.67856C23.5356 5.72404 23.5212 5.75336 23.4883 5.78671C23.3462 5.92821 23.2082 6.07477 23.0692 6.21931C23.0517 6.2375 23.0353 6.25569 23.0106 6.28399C23.0095 5.16511 23.0095 4.05936 23.0095 2.94653Z" fill="#00B041"/>
<path id="Vector_13" fill-rule="evenodd" clip-rule="evenodd" d="M23.9485 5.50666C23.9485 5.46825 23.9485 5.444 23.9485 5.41873C23.9485 4.62429 23.9485 3.82985 23.9485 3.03439C23.9485 2.94141 23.9485 2.94141 24.0463 2.94141C24.1544 2.94141 24.2635 2.94141 24.3717 2.94141C24.4726 2.94141 24.4736 2.94141 24.4736 3.0445C24.4736 3.19712 24.4736 3.35076 24.4736 3.50338C24.4736 4.02896 24.4726 4.55556 24.4746 5.08114C24.4746 5.13572 24.4581 5.16705 24.4087 5.19738C24.2728 5.28127 24.1431 5.37425 24.0113 5.4632C23.9948 5.47533 23.9783 5.48645 23.9485 5.50666Z" fill="#00B041"/>
</g>
</g>
</g>
</g>
</svg>
