<svg width="35" height="24" viewBox="0 0 35 24" fill="none" xmlns="http://www.w3.org/2000/svg">
<g id="Group">
<g id="Group 1000003240">
<path id="Vector" d="M2.75 9.55285C2.75 9.50873 2.76103 9.46461 2.78309 9.44256C2.80515 9.4205 2.84926 9.39844 2.89338 9.39844H5.02206C5.17647 9.39844 5.31986 9.4205 5.45221 9.46461C5.58456 9.50873 5.71692 9.56388 5.82721 9.64109C5.93751 9.71829 6.0478 9.80653 6.13604 9.90579C6.22427 10.0051 6.30148 10.1154 6.36765 10.2367C6.43383 10.358 6.47795 10.4793 6.51104 10.6117C6.54412 10.744 6.56618 10.8764 6.56618 11.0087C6.56618 11.2073 6.53309 11.4058 6.45589 11.5933C6.37868 11.7808 6.27942 11.9573 6.14706 12.1006C6.01471 12.244 5.84927 12.3654 5.6728 12.4646C5.4853 12.5529 5.27574 12.608 5.05515 12.608H4.05147V14.1962C4.05147 14.2955 3.99633 14.3396 3.89706 14.3396H2.90441C2.86029 14.3396 2.82721 14.3286 2.79412 14.3065C2.76103 14.2734 2.75 14.2404 2.75 14.1962V9.55285ZM5.25368 11.0087C5.25368 10.9426 5.24265 10.8764 5.22059 10.8102C5.19853 10.744 5.16545 10.6889 5.12133 10.6337C5.07721 10.5786 5.02206 10.5345 4.95589 10.5014C4.88971 10.4683 4.82353 10.4462 4.74633 10.4462H4.04044V11.5602H4.74633C4.82353 11.5602 4.90074 11.5492 4.96692 11.5161C5.03309 11.483 5.08824 11.4389 5.13236 11.3948C5.17647 11.3396 5.20956 11.2845 5.23162 11.2183C5.24265 11.1411 5.25368 11.0749 5.25368 11.0087Z" fill="#941F7F"/>
<path id="Vector_2" d="M8.52932 9.53079C8.52932 9.51976 8.54035 9.50873 8.55138 9.48667C8.56241 9.47564 8.57344 9.45358 8.5955 9.44256C8.61756 9.43153 8.62859 9.4205 8.65065 9.40947C8.6727 9.39844 8.68373 9.39844 8.70579 9.39844H9.55506C9.58815 9.39844 9.62124 9.40947 9.65432 9.43153C9.67638 9.45358 9.69844 9.47564 9.70947 9.4977L9.79771 9.6852L11.5404 14.1852C11.5624 14.2293 11.5514 14.2624 11.5293 14.2955C11.5073 14.3176 11.4632 14.3396 11.408 14.3396H10.4484C10.3933 14.3396 10.3602 14.3286 10.3271 14.3065C10.294 14.2845 10.272 14.2514 10.2609 14.2073C10.2168 14.097 10.1727 13.9867 10.1286 13.8654C10.0845 13.7551 10.0404 13.6448 10.0073 13.5234H8.24256C8.19844 13.6337 8.15432 13.744 8.1102 13.8654C8.06609 13.9757 8.02197 14.0859 7.97785 14.2073C7.94476 14.2845 7.88961 14.3286 7.81241 14.3286H6.83079C6.78667 14.3286 6.75358 14.3176 6.72049 14.2955C6.68741 14.2734 6.68741 14.2404 6.70947 14.1962L8.52932 9.53079ZM9.13594 10.9536C9.09182 11.0639 9.04771 11.1852 9.00359 11.3176C8.95947 11.4499 8.91535 11.5823 8.87123 11.7146C8.82712 11.847 8.783 11.9793 8.73888 12.1117C8.69476 12.244 8.65065 12.3654 8.60653 12.4756H9.63227L9.13594 10.9536Z" fill="#941F7F"/>
<path id="Vector_3" d="M13.0186 11.2183L13.8238 9.4977C13.8348 9.47564 13.8458 9.45358 13.8568 9.44256C13.8679 9.43153 13.8789 9.4205 13.8789 9.4205C13.8899 9.4205 13.901 9.40947 13.912 9.40947C13.923 9.40947 13.934 9.40947 13.9451 9.39844H15.2245C15.2355 9.39844 15.2576 9.39844 15.2576 9.40947C15.2686 9.4205 15.2686 9.43153 15.2686 9.44256C15.2686 9.46461 15.2576 9.4977 15.2245 9.53079L13.6583 12.3212V14.1852C13.6583 14.2845 13.6032 14.3396 13.5039 14.3396H12.5112C12.4671 14.3396 12.434 14.3286 12.412 14.2955C12.3899 14.2624 12.3789 14.2293 12.3789 14.1852V12.3102L10.8017 9.53079C10.7686 9.4977 10.7576 9.47564 10.7576 9.44256C10.7576 9.43153 10.7576 9.4205 10.7686 9.40947C10.7796 9.39844 10.7907 9.39844 10.8017 9.39844H12.0811C12.0921 9.39844 12.1032 9.40947 12.1142 9.40947C12.1252 9.40947 12.1362 9.40947 12.1362 9.4205C12.1473 9.43153 12.1583 9.43153 12.1583 9.44256C12.1693 9.45358 12.1804 9.47564 12.1914 9.4977L13.0186 11.2183Z" fill="#941F7F"/>
<path id="Vector_4" d="M15.7534 9.54182C15.7534 9.4977 15.7644 9.46461 15.7865 9.44256C15.8086 9.40947 15.8527 9.39844 15.8968 9.39844H16.9887C17.0218 9.39844 17.0549 9.40947 17.088 9.4205C17.1211 9.43153 17.1542 9.46461 17.1762 9.4977C17.463 9.94991 17.7387 10.4021 18.0145 10.8433C18.2902 11.2845 18.577 11.7367 18.8527 12.1889V9.51976C18.8637 9.47564 18.8747 9.45358 18.9078 9.43153C18.9299 9.40947 18.963 9.39844 18.9961 9.39844H19.9446C19.9887 9.39844 20.0328 9.40947 20.0659 9.43153C20.099 9.45358 20.11 9.4977 20.11 9.54182V14.2073C20.11 14.2514 20.099 14.2845 20.0659 14.3065C20.0439 14.3286 19.9997 14.3396 19.9556 14.3396H18.8968C18.8637 14.3396 18.8417 14.3286 18.8196 14.3065C18.7975 14.2845 18.7755 14.2624 18.7534 14.2293C18.4556 13.744 18.1689 13.2587 17.8821 12.7845C17.5953 12.3102 17.2975 11.8249 16.9997 11.3396V14.1962C16.9997 14.2404 16.9887 14.2845 16.9667 14.3065C16.9446 14.3286 16.9005 14.3396 16.8453 14.3396H15.8968C15.8417 14.3396 15.8086 14.3286 15.7865 14.2955C15.7644 14.2734 15.7534 14.2293 15.7534 14.1962V9.54182Z" fill="#941F7F"/>
<path id="Vector_5" d="M27.9188 14.2624C27.8968 14.2293 27.8747 14.1852 27.8526 14.1411C27.8306 14.097 27.8196 14.0639 27.7975 14.0198C27.5107 13.2698 27.224 12.5198 26.9372 11.7808C26.6504 11.0418 26.3637 10.2918 26.0769 9.54182C26.0769 9.53079 26.0769 9.51976 26.0769 9.50873C26.0769 9.4977 26.0769 9.48667 26.0769 9.48667C26.0769 9.4205 26.121 9.39844 26.1982 9.39844H27.2681C27.3563 9.39844 27.4115 9.44256 27.4446 9.51976L28.4593 12.5529L29.3968 9.51976C29.4299 9.43153 29.485 9.39844 29.5843 9.39844H30.6651C30.7203 9.39844 30.7534 9.40947 30.7754 9.43153C30.7975 9.45358 30.8085 9.47564 30.8085 9.50873C30.8085 9.53079 30.8085 9.54182 30.8085 9.54182V9.55285L30.2129 11.2404L30.6541 12.5529L31.735 9.51976C31.7681 9.43153 31.8232 9.39844 31.9225 9.39844H32.9703C33.0254 9.39844 33.0585 9.40947 33.0806 9.43153C33.1027 9.45358 33.1137 9.47564 33.1137 9.50873C33.1137 9.53079 33.1137 9.54182 33.1137 9.54182V9.55285C32.9593 9.93888 32.8049 10.3359 32.6504 10.722C32.496 11.108 32.3306 11.494 32.1762 11.8911C32.0218 12.2771 31.8563 12.6631 31.7019 13.0602C31.5475 13.4462 31.3931 13.8433 31.2497 14.2293C31.2387 14.2514 31.2166 14.2845 31.1946 14.3065C31.1615 14.3396 31.1284 14.3507 31.0843 14.3507H31.0732H30.2681C30.224 14.3507 30.1799 14.3396 30.1578 14.3176C30.1357 14.2955 30.1137 14.2734 30.1026 14.2404L29.5732 12.8506C29.496 13.0492 29.4188 13.2477 29.3526 13.4462C29.2754 13.6448 29.2093 13.8433 29.1321 14.0418C29.121 14.0749 29.11 14.108 29.099 14.1411C29.0879 14.1742 29.0659 14.2073 29.0438 14.2404C29.0218 14.2734 28.9997 14.2955 28.9776 14.3176C28.9556 14.3396 28.9225 14.3507 28.8894 14.3507H28.8784H28.0732C27.985 14.3396 27.9409 14.3176 27.9188 14.2624Z" fill="#941F7F"/>
<g id="Group_2">
<g id="Clip path group">
<mask id="mask0_7596_46463" style="mask-type:luminance" maskUnits="userSpaceOnUse" x="20" y="9" width="7" height="6">
<g id="SVGID_2_">
<path id="Vector_6" d="M21.6768 9.60662C20.4194 10.5882 20.1989 12.4081 21.1694 13.6654C21.7209 14.3713 22.5481 14.7794 23.4525 14.7794C24.1033 14.7794 24.7099 14.5699 25.2283 14.1728C25.8349 13.6985 26.2209 13.0147 26.3202 12.2537C26.4195 11.4816 26.2099 10.7316 25.7356 10.125C25.6143 9.97059 25.4709 9.82721 25.3275 9.69485C25.2945 9.6728 25.2503 9.65074 25.2172 9.65074C25.1621 9.65074 25.107 9.6728 25.0739 9.72794L23.4746 11.9228L22.6694 10.9412C22.6364 10.8971 22.5922 10.875 22.5481 10.875C22.493 10.875 22.4489 10.8971 22.4158 10.9412L22.0739 11.4044C22.0187 11.4816 22.0187 11.5919 22.0849 11.6581L23.3753 13.2463C23.4084 13.2904 23.4525 13.3125 23.4967 13.3125C23.5518 13.3125 23.5959 13.2904 23.629 13.2463L25.2945 10.9522C25.7467 11.8346 25.515 12.9154 24.7209 13.5331C24.357 13.8199 23.9158 13.9743 23.4415 13.9743C22.7908 13.9743 22.1952 13.6875 21.7981 13.1691C21.4562 12.7279 21.3128 12.1875 21.379 11.636C21.4452 11.0846 21.7209 10.5993 22.1621 10.2574C22.5261 9.97059 22.9672 9.81618 23.4415 9.81618C23.7283 9.81618 24.004 9.87132 24.2577 9.98162C24.3459 10.0147 24.4452 9.99265 24.5003 9.91544L24.765 9.54044C24.7981 9.49632 24.8092 9.45221 24.7981 9.39706C24.7871 9.35294 24.754 9.30882 24.7099 9.28677C24.3128 9.08824 23.8827 9 23.4415 9C22.8018 9 22.1952 9.20956 21.6768 9.60662Z" fill="white"/>
</g>
</mask>
<g mask="url(#mask0_7596_46463)">
<path id="Vector_7" d="M29.3091 11.9107L23.287 17.8887L17.3091 11.8666L23.3312 5.88867L29.3091 11.9107Z" fill="url(#paint0_linear_7596_46463)"/>
</g>
</g>
</g>
</g>
</g>
<defs>
<linearGradient id="paint0_linear_7596_46463" x1="26.2704" y1="8.94374" x2="21.2672" y2="13.9152" gradientUnits="userSpaceOnUse">
<stop stop-color="#E83762"/>
<stop offset="1" stop-color="#9A1F81"/>
</linearGradient>
</defs>
</svg>
