<svg width="35" height="24" viewBox="0 0 35 24" fill="none" xmlns="http://www.w3.org/2000/svg">
<g id="Group">
<g id="Group_2">
<path id="Vector" d="M11.6095 5.25269L2.65064 6.45462C2.65064 6.45462 2.25 6.49914 2.25 6.97768C2.25 7.45623 2.25 15.4914 2.25 15.4914C2.25 15.4914 2.30565 16.4819 3.4408 16.4819C4.57596 16.4819 13.5905 16.4819 13.5905 16.4819C13.5905 16.4819 14.4919 16.2593 14.4919 15.3578C14.4919 14.4564 14.4919 8.33542 14.4919 8.33542C14.4919 8.33542 14.5142 7.34494 13.3122 7.34494C12.1103 7.34494 3.51871 7.34494 3.51871 7.34494C3.51871 7.34494 3.14032 7.27817 3.04016 6.87752C3.02903 6.71059 3.08468 6.69946 3.25161 6.69946C3.41855 6.69946 12.2438 6.69946 12.2438 6.69946V5.73124C12.2438 5.73124 12.2216 5.20817 11.6095 5.25269Z" fill="#ED4C2F"/>
<g id="Group_3">
<path id="Vector_2" d="M8.55916 15.0337C7.81352 15.0337 7.26819 14.7332 6.46691 13.9319C6.32223 13.7873 6.32223 13.5536 6.46691 13.4089C6.61158 13.2642 6.84529 13.2642 6.98997 13.4089C7.83577 14.2547 8.23642 14.455 8.91529 14.2769C9.3048 14.1657 9.66093 13.6649 9.68319 13.0861C9.69432 12.641 9.38271 12.3405 8.74835 12.2181C7.60206 11.9844 6.9232 11.5503 6.734 10.916C6.5782 10.4041 6.77852 9.82535 7.27932 9.3468L7.30158 9.32454C8.36997 8.43422 9.61642 9.10196 10.1283 9.56938C10.273 9.70293 10.2842 9.93664 10.1395 10.0924C10.0059 10.2371 9.77222 10.2482 9.62754 10.1036C9.58303 10.0591 8.62593 9.19099 7.79126 9.86986C7.5019 10.1481 7.37948 10.4597 7.44626 10.6934C7.54642 11.0384 8.06948 11.3166 8.90416 11.4836C10.3287 11.7729 10.4511 12.7078 10.4288 13.0973C10.3954 13.9431 9.68319 14.9002 9.01545 14.9892C8.83738 15.0226 8.69271 15.0337 8.55916 15.0337Z" fill="white"/>
</g>
<g id="Group_4">
<g id="Group_5">
<path id="Vector_3" d="M18.2752 7.2806C18.1305 7.19157 17.9635 7.11367 17.7521 7.05802C17.3737 6.94673 17.0955 6.81318 16.9731 6.63512C16.8618 6.47931 16.8618 6.27899 16.9953 6.02303C17.0732 5.86722 17.2624 5.76706 17.5073 5.75593C17.7632 5.73367 18.0748 5.80045 18.3976 5.96738C18.4755 6.0119 18.5756 5.97851 18.6202 5.88948C18.6647 5.81157 18.6313 5.71141 18.5423 5.6669C18.1639 5.46658 17.7855 5.3998 17.4739 5.42206C17.1066 5.45545 16.8284 5.61125 16.6837 5.86722C16.4723 6.25673 16.4834 6.56835 16.6837 6.83544C16.8618 7.06915 17.1956 7.25835 17.6519 7.38076C17.83 7.43641 17.9747 7.49205 18.0971 7.56996C18.2752 7.68125 18.3864 7.80367 18.4421 7.93721C18.4977 8.05963 18.4977 8.20431 18.4644 8.33786C18.4421 8.40463 18.4087 8.47141 18.3753 8.53818C18.3753 8.54931 18.3642 8.56044 18.3531 8.57157C18.2195 8.77189 17.9969 8.87205 17.7298 8.87205C17.4405 8.87205 17.0732 8.76076 16.6948 8.52705C16.6392 8.49366 16.5835 8.46028 16.539 8.42689C16.4611 8.37125 16.361 8.3935 16.3053 8.47141C16.2497 8.54931 16.2719 8.64947 16.3498 8.70512C16.4055 8.74963 16.4611 8.78302 16.5056 8.81641C16.9397 9.0835 17.3626 9.21705 17.7076 9.21705C18.086 9.21705 18.4087 9.07237 18.609 8.77189C18.609 8.76076 18.6202 8.7385 18.6424 8.72737C18.6981 8.63834 18.7426 8.53818 18.7648 8.44915C18.8205 8.24883 18.8205 8.02625 18.7314 7.82592C18.6647 7.60334 18.5089 7.42528 18.2752 7.2806Z" fill="#ED4C2F"/>
<path id="Vector_4" d="M20.8353 6.91512C20.6683 6.8706 20.468 6.8706 20.2566 6.93737C20.0674 6.99302 19.8671 7.10431 19.6779 7.26011V5.57963C19.6779 5.4906 19.6 5.42383 19.5109 5.42383C19.4219 5.42383 19.344 5.4906 19.344 5.57963V9.02963C19.344 9.11866 19.4219 9.18543 19.5109 9.18543C19.6 9.18543 19.6779 9.11866 19.6779 9.02963V7.73866L19.689 7.72753C19.9004 7.47157 20.1342 7.31576 20.3567 7.24899C20.5014 7.20447 20.635 7.20447 20.7574 7.23786C20.8687 7.27124 20.9577 7.32689 21.0245 7.41592C21.0912 7.50495 21.1246 7.6385 21.1246 7.79431V9.02963C21.1246 9.11866 21.2025 9.19656 21.2916 9.19656C21.3806 9.19656 21.4585 9.11866 21.4585 9.02963V7.79431C21.4585 7.57173 21.4029 7.3714 21.2916 7.22673C21.1692 7.07092 21.0133 6.95963 20.8353 6.91512Z" fill="#ED4C2F"/>
<path id="Vector_5" d="M23.0943 6.88281C22.7827 6.88281 22.4822 7.01636 22.2708 7.22781C22.0593 7.43926 21.9258 7.72862 21.9258 8.05136C21.9258 8.3741 22.0593 8.66345 22.2708 8.8749C22.4822 9.08636 22.7716 9.2199 23.0943 9.2199C23.4171 9.2199 23.7064 9.08636 23.9179 8.8749C24.1293 8.66345 24.2629 8.3741 24.2629 8.05136C24.2629 7.72862 24.1293 7.43926 23.9179 7.22781C23.7064 7.01636 23.4171 6.88281 23.0943 6.88281ZM23.6842 8.63007C23.5284 8.77474 23.328 8.8749 23.0943 8.8749C22.8717 8.8749 22.6603 8.78587 22.5045 8.63007C22.3598 8.48539 22.2597 8.27394 22.2597 8.04023C22.2597 7.81765 22.3487 7.6062 22.5045 7.45039C22.6603 7.30571 22.8606 7.20555 23.0943 7.20555C23.3169 7.20555 23.5284 7.29459 23.6842 7.45039C23.8288 7.59507 23.929 7.80652 23.929 8.04023C23.929 8.26281 23.8288 8.47426 23.6842 8.63007Z" fill="#ED4C2F"/>
<path id="Vector_6" d="M25.921 6.88281C25.5983 6.88281 25.3089 7.01636 25.0975 7.22781C25.0864 7.23894 25.0752 7.25007 25.0641 7.2612V7.04975C25.0641 6.96072 24.9862 6.88281 24.8972 6.88281C24.8081 6.88281 24.7302 6.96072 24.7302 7.04975V10.3439C24.7302 10.433 24.8081 10.5109 24.8972 10.5109C24.9862 10.5109 25.0641 10.433 25.0641 10.3439V8.81926C25.0752 8.83039 25.0864 8.84152 25.0975 8.85265C25.3089 9.0641 25.5983 9.19765 25.921 9.19765C26.2438 9.19765 26.5331 9.0641 26.7446 8.85265C26.956 8.6412 27.0896 8.35184 27.0896 8.0291C27.0896 7.70636 26.956 7.417 26.7446 7.20555C26.5331 6.9941 26.2438 6.88281 25.921 6.88281ZM26.4997 8.63007C26.3439 8.77474 26.1436 8.8749 25.9099 8.8749C25.6762 8.8749 25.4759 8.78587 25.3201 8.63007C25.1754 8.48539 25.0752 8.27394 25.0752 8.04023C25.0752 7.81765 25.1643 7.6062 25.3201 7.45039C25.4759 7.30571 25.6762 7.20555 25.9099 7.20555C26.1325 7.20555 26.3439 7.29459 26.4997 7.45039C26.6444 7.59507 26.7446 7.80652 26.7446 8.04023C26.7446 8.26281 26.6555 8.47426 26.4997 8.63007Z" fill="#ED4C2F"/>
<path id="Vector_7" d="M29.3822 7.17685C29.193 6.97652 28.9259 6.86523 28.6477 6.86523C28.3584 6.86523 28.1024 6.97652 27.9132 7.17685C27.5126 7.61088 27.5126 8.0783 27.6795 8.54571C27.7463 8.75717 27.9021 8.91297 28.069 9.02426C28.236 9.13555 28.4474 9.1912 28.6922 9.1912C28.926 9.1912 29.1819 9.13555 29.4601 9.01313C29.5492 8.97975 29.5826 8.87958 29.5492 8.79055C29.5158 8.70152 29.4156 8.66813 29.3266 8.70152C29.0818 8.80168 28.8703 8.85733 28.6811 8.85733C28.5142 8.85733 28.3584 8.82394 28.2471 8.74604C28.1358 8.66813 28.0468 8.56797 27.9911 8.4233C27.9577 8.33426 27.9355 8.22297 27.9132 8.11168H29.449C29.538 8.11168 29.8051 8.13394 29.6605 7.65539C29.6048 7.49959 29.5492 7.34378 29.3822 7.17685ZM27.9243 7.77781C27.9689 7.63314 28.0468 7.52185 28.1469 7.42168C28.2805 7.28814 28.4585 7.21023 28.6477 7.21023C28.8369 7.21023 29.015 7.28814 29.1485 7.42168C29.2487 7.52185 29.3155 7.64426 29.3711 7.77781H27.9243Z" fill="#ED4C2F"/>
<path id="Vector_8" d="M32.2086 7.67297C32.1529 7.50604 32.0861 7.35023 31.9303 7.19442C31.7411 6.9941 31.474 6.88281 31.1958 6.88281C30.9176 6.88281 30.6505 6.9941 30.4613 7.19442C30.0607 7.62846 30.0607 8.09587 30.2276 8.56329C30.2944 8.77474 30.4502 8.93055 30.6171 9.04184C30.784 9.15313 30.9955 9.20877 31.2403 9.20877C31.474 9.20877 31.73 9.15313 32.0082 9.03071C32.0973 8.99732 32.1307 8.89716 32.0973 8.80813C32.0639 8.7191 31.9637 8.68571 31.8747 8.7191C31.6299 8.81926 31.4184 8.8749 31.2292 8.8749C31.0623 8.8749 30.9065 8.84152 30.7952 8.76361C30.6839 8.68571 30.5949 8.58555 30.5392 8.44087C30.5058 8.35184 30.4836 8.24055 30.4613 8.12926H31.9971C32.075 8.11813 32.3532 8.14039 32.2086 7.67297ZM30.4724 7.78426C30.517 7.63958 30.5949 7.52829 30.695 7.42813C30.8286 7.29459 31.0066 7.21668 31.1958 7.21668C31.385 7.21668 31.5631 7.29459 31.6966 7.42813C31.7968 7.52829 31.8636 7.65071 31.9192 7.78426H30.4724Z" fill="#ED4C2F"/>
</g>
</g>
<path id="Vector_9" d="M18.8204 10.0371H16.4165V16.4808H17.3959V14.5555H18.9317C19.4436 14.5555 19.9555 14.4331 20.4007 14.166C20.9238 13.8544 21.4579 13.309 21.4579 12.3519C21.4579 11.4616 20.9905 10.894 20.5008 10.549C20.0112 10.204 19.4213 10.0371 18.8204 10.0371ZM19.132 13.5205H17.3959V10.9942H18.965C18.9873 10.9942 19.0207 10.9942 19.0429 10.9942C19.2767 11.0165 20.3228 11.2057 20.3228 12.3186C20.3228 13.5205 19.132 13.5205 19.132 13.5205Z" fill="#ED4C2F"/>
<path id="Vector_10" d="M25.3313 11.8974V12.3537C24.9306 12.031 24.4298 11.8418 23.8845 11.8418C22.6158 11.8418 21.5808 12.8768 21.5808 14.1455C21.5808 15.4142 22.6158 16.4492 23.8845 16.4492C24.4298 16.4492 24.9418 16.26 25.3313 15.9373V16.4492H26.3106V11.8974H25.3313ZM23.8734 15.5923C23.0721 15.5923 22.4266 14.9468 22.4266 14.1455C22.4266 13.3442 23.0721 12.6987 23.8734 12.6987C24.6747 12.6987 25.3202 13.3442 25.3202 14.1455C25.3202 14.9468 24.6747 15.5923 23.8734 15.5923Z" fill="#ED4C2F"/>
<path id="Vector_11" d="M26.7451 11.8418H28.0472L29.583 14.7687L31.0632 11.8418H32.2428L28.7261 18.3857H27.5798L28.9153 15.9595L26.7451 11.8418Z" fill="#ED4C2F"/>
</g>
</g>
</svg>
