<svg width="35" height="24" viewBox="0 0 35 24" fill="none" xmlns="http://www.w3.org/2000/svg">
<g id="mc_symbol 3">
<rect width="34.5" height="24" transform="translate(0.5)" fill="white"/>
<g id="Group">
<path id="Vector" d="M31.5079 19.4051C31.5079 19.9458 31.0619 20.3836 30.5111 20.3836H5.63357C5.08313 20.3836 4.63696 19.9458 4.63696 19.4051V4.72851C4.63696 4.18815 5.08313 3.75 5.63357 3.75H30.5111C31.0619 3.75 31.5079 4.18815 31.5079 4.72851L31.5079 19.4051Z" fill="#21246E"/>
<path id="Vector_2" d="M14.8501 8.56484L11.8603 15.5685H9.90881L8.43855 9.97979C8.34802 9.6351 8.27065 9.50972 7.99926 9.36338C7.55472 9.12739 6.82343 8.90603 6.17773 8.76818L6.2229 8.56489H9.36251C9.76293 8.56489 10.1229 8.82709 10.2135 9.27909L10.9909 13.3327L12.911 8.56489L14.8501 8.56484ZM22.4939 13.2808C22.5026 11.4334 19.8899 11.3328 19.9087 10.5063C19.9138 10.254 20.1573 9.98705 20.6908 9.91965C20.9557 9.88505 21.6847 9.85971 22.5109 10.2321L22.8347 8.74759C22.3902 8.5892 21.8188 8.4375 21.1086 8.4375C19.2845 8.4375 18.0004 9.38995 17.9896 10.7527C17.9776 11.7605 18.9057 12.3229 19.6058 12.6585C20.3247 13.002 20.565 13.2212 20.5625 13.5292C20.5578 13.9993 19.9889 14.2047 19.4584 14.2139C18.5303 14.2282 17.9919 13.9677 17.562 13.7712L17.2279 15.3067C17.6585 15.5008 18.4558 15.6693 19.2809 15.6793C21.2195 15.6792 22.4878 14.7369 22.4939 13.2808ZM27.3109 15.5685H29.0182L27.5284 8.56479H25.9523C25.5981 8.56479 25.2996 8.76756 25.1665 9.07817L22.3988 15.5684H24.336L24.7205 14.5225H27.0885L27.3109 15.5685ZM25.2515 13.0871L26.2233 10.4573L26.7824 13.0871H25.2515ZM17.4876 8.56484L15.9605 15.5685H14.1146L15.642 8.56479H17.4876V8.56484Z" fill="white"/>
</g>
</g>
</svg>
